<svg xmlns="http://www.w3.org/2000/svg" viewBox="0 0 850 940" font-family="system-ui, -apple-system, sans-serif">
  <rect width="850" height="940" fill="#0d1117"/>
  <text x="450.0" y="22" text-anchor="middle" fill="#e6edf3" font-size="14" font-weight="700">zstd Pipeline @100 MB/s: Aggregate across corpus (lower is better)</text>
  <text x="22" y="435.0" text-anchor="middle" fill="#e6edf3" font-size="11" font-weight="600" transform="rotate(-90,22,435.0)">seconds / GB</text>
  <text x="450.0" y="54" text-anchor="middle" fill="#e6edf3" font-size="12" font-weight="600">High compressibility</text>
  <line x1="70" y1="218.9" x2="830" y2="218.9" stroke="#21262d" stroke-width="1"/>
  <text x="62" y="218.9" text-anchor="end" dominant-baseline="middle" fill="#7d8590" font-size="10">1.0</text>
  <line x1="70" y1="177.7" x2="830" y2="177.7" stroke="#21262d" stroke-width="1"/>
  <text x="62" y="177.7" text-anchor="end" dominant-baseline="middle" fill="#7d8590" font-size="10">2.0</text>
  <line x1="70" y1="136.6" x2="830" y2="136.6" stroke="#21262d" stroke-width="1"/>
  <text x="62" y="136.6" text-anchor="end" dominant-baseline="middle" fill="#7d8590" font-size="10">3.0</text>
  <line x1="70" y1="95.4" x2="830" y2="95.4" stroke="#21262d" stroke-width="1"/>
  <text x="62" y="95.4" text-anchor="end" dominant-baseline="middle" fill="#7d8590" font-size="10">4.0</text>
  <line x1="70" y1="260" x2="830" y2="260" stroke="#30363d" stroke-width="1.5"/>
  <rect x="95.3" y="226.5" width="50.0" height="33.5" fill="#60a5fa" rx="1"/>
  <rect x="95.3" y="153.1" width="50.0" height="73.4" fill="#4680c4" rx="1"/>
  <rect x="95.3" y="142.0" width="50.0" height="11.0" fill="#60a5fa" rx="1"/>
  <rect x="147.8" y="213.0" width="50.0" height="47.0" fill="#f87171" rx="1"/>
  <rect x="147.8" y="134.9" width="50.0" height="78.1" fill="#c45050" rx="1"/>
  <rect x="147.8" y="110.9" width="50.0" height="24.0" fill="#f87171" rx="1"/>
  <rect x="200.3" y="199.3" width="50.0" height="60.7" fill="#f59e0b" rx="1"/>
  <rect x="200.3" y="135.8" width="50.0" height="63.6" fill="#c47d08" rx="1"/>
  <rect x="200.3" y="111.8" width="50.0" height="24.0" fill="#f59e0b" rx="1"/>
  <text x="196.7" y="278" text-anchor="middle" fill="#e6edf3" font-size="11" font-weight="600">Level −1</text>
  <rect x="348.7" y="223.7" width="50.0" height="36.3" fill="#60a5fa" rx="1"/>
  <rect x="348.7" y="161.5" width="50.0" height="62.2" fill="#4680c4" rx="1"/>
  <rect x="348.7" y="149.3" width="50.0" height="12.2" fill="#60a5fa" rx="1"/>
  <rect x="401.2" y="206.9" width="50.0" height="53.1" fill="#f87171" rx="1"/>
  <rect x="401.2" y="135.6" width="50.0" height="71.3" fill="#c45050" rx="1"/>
  <rect x="401.2" y="108.2" width="50.0" height="27.4" fill="#f87171" rx="1"/>
  <rect x="453.7" y="197.2" width="50.0" height="62.8" fill="#f59e0b" rx="1"/>
  <rect x="453.7" y="135.0" width="50.0" height="62.3" fill="#c47d08" rx="1"/>
  <rect x="453.7" y="111.1" width="50.0" height="23.9" fill="#f59e0b" rx="1"/>
  <text x="450.0" y="278" text-anchor="middle" fill="#e6edf3" font-size="11" font-weight="600">Level 1</text>
  <rect x="602.0" y="214.7" width="50.0" height="45.3" fill="#60a5fa" rx="1"/>
  <rect x="602.0" y="156.6" width="50.0" height="58.1" fill="#4680c4" rx="1"/>
  <rect x="602.0" y="144.4" width="50.0" height="12.2" fill="#60a5fa" rx="1"/>
  <rect x="654.5" y="203.8" width="50.0" height="56.2" fill="#f87171" rx="1"/>
  <rect x="654.5" y="137.3" width="50.0" height="66.6" fill="#c45050" rx="1"/>
  <rect x="654.5" y="114.0" width="50.0" height="23.3" fill="#f87171" rx="1"/>
  <rect x="707.0" y="169.8" width="50.0" height="90.2" fill="#f59e0b" rx="1"/>
  <rect x="707.0" y="109.3" width="50.0" height="60.5" fill="#c47d08" rx="1"/>
  <rect x="707.0" y="86.1" width="50.0" height="23.2" fill="#f59e0b" rx="1"/>
  <text x="703.3" y="278" text-anchor="middle" fill="#e6edf3" font-size="11" font-weight="600">Level 3</text>
  <text x="450.0" y="329" text-anchor="middle" fill="#e6edf3" font-size="12" font-weight="600">Medium compressibility</text>
  <line x1="70" y1="494.8" x2="830" y2="494.8" stroke="#21262d" stroke-width="1"/>
  <text x="62" y="494.8" text-anchor="end" dominant-baseline="middle" fill="#7d8590" font-size="10">2.0</text>
  <line x1="70" y1="454.7" x2="830" y2="454.7" stroke="#21262d" stroke-width="1"/>
  <text x="62" y="454.7" text-anchor="end" dominant-baseline="middle" fill="#7d8590" font-size="10">4.0</text>
  <line x1="70" y1="414.5" x2="830" y2="414.5" stroke="#21262d" stroke-width="1"/>
  <text x="62" y="414.5" text-anchor="end" dominant-baseline="middle" fill="#7d8590" font-size="10">6.0</text>
  <line x1="70" y1="374.4" x2="830" y2="374.4" stroke="#21262d" stroke-width="1"/>
  <text x="62" y="374.4" text-anchor="end" dominant-baseline="middle" fill="#7d8590" font-size="10">8.0</text>
  <line x1="70" y1="535" x2="830" y2="535" stroke="#30363d" stroke-width="1.5"/>
  <rect x="95.3" y="509.2" width="50.0" height="25.8" fill="#60a5fa" rx="1"/>
  <rect x="95.3" y="419.9" width="50.0" height="89.3" fill="#4680c4" rx="1"/>
  <rect x="95.3" y="412.4" width="50.0" height="7.4" fill="#60a5fa" rx="1"/>
  <rect x="147.8" y="496.4" width="50.0" height="38.6" fill="#f87171" rx="1"/>
  <rect x="147.8" y="407.3" width="50.0" height="89.1" fill="#c45050" rx="1"/>
  <rect x="147.8" y="392.0" width="50.0" height="15.2" fill="#f87171" rx="1"/>
  <rect x="200.3" y="486.8" width="50.0" height="48.2" fill="#f59e0b" rx="1"/>
  <rect x="200.3" y="409.7" width="50.0" height="77.2" fill="#c47d08" rx="1"/>
  <rect x="200.3" y="391.9" width="50.0" height="17.8" fill="#f59e0b" rx="1"/>
  <text x="196.7" y="553" text-anchor="middle" fill="#e6edf3" font-size="11" font-weight="600">Level −1</text>
  <rect x="348.7" y="506.1" width="50.0" height="28.9" fill="#60a5fa" rx="1"/>
  <rect x="348.7" y="431.9" width="50.0" height="74.2" fill="#4680c4" rx="1"/>
  <rect x="348.7" y="421.8" width="50.0" height="10.1" fill="#60a5fa" rx="1"/>
  <rect x="401.2" y="486.6" width="50.0" height="48.4" fill="#f87171" rx="1"/>
  <rect x="401.2" y="407.0" width="50.0" height="79.6" fill="#c45050" rx="1"/>
  <rect x="401.2" y="387.9" width="50.0" height="19.1" fill="#f87171" rx="1"/>
  <rect x="453.7" y="485.8" width="50.0" height="49.2" fill="#f59e0b" rx="1"/>
  <rect x="453.7" y="411.3" width="50.0" height="74.6" fill="#c47d08" rx="1"/>
  <rect x="453.7" y="393.5" width="50.0" height="17.8" fill="#f59e0b" rx="1"/>
  <text x="450.0" y="553" text-anchor="middle" fill="#e6edf3" font-size="11" font-weight="600">Level 1</text>
  <rect x="602.0" y="487.1" width="50.0" height="47.9" fill="#60a5fa" rx="1"/>
  <rect x="602.0" y="420.0" width="50.0" height="67.0" fill="#4680c4" rx="1"/>
  <rect x="602.0" y="409.4" width="50.0" height="10.6" fill="#60a5fa" rx="1"/>
  <rect x="654.5" y="482.1" width="50.0" height="52.9" fill="#f87171" rx="1"/>
  <rect x="654.5" y="406.3" width="50.0" height="75.9" fill="#c45050" rx="1"/>
  <rect x="654.5" y="391.0" width="50.0" height="15.3" fill="#f87171" rx="1"/>
  <rect x="707.0" y="448.9" width="50.0" height="86.1" fill="#f59e0b" rx="1"/>
  <rect x="707.0" y="380.7" width="50.0" height="68.2" fill="#c47d08" rx="1"/>
  <rect x="707.0" y="361.1" width="50.0" height="19.6" fill="#f59e0b" rx="1"/>
  <text x="703.3" y="553" text-anchor="middle" fill="#e6edf3" font-size="11" font-weight="600">Level 3</text>
  <text x="450.0" y="604" text-anchor="middle" fill="#e6edf3" font-size="12" font-weight="600">Low compressibility</text>
  <line x1="70" y1="747.2" x2="830" y2="747.2" stroke="#21262d" stroke-width="1"/>
  <text x="62" y="747.2" text-anchor="end" dominant-baseline="middle" fill="#7d8590" font-size="10">5.0</text>
  <line x1="70" y1="684.4" x2="830" y2="684.4" stroke="#21262d" stroke-width="1"/>
  <text x="62" y="684.4" text-anchor="end" dominant-baseline="middle" fill="#7d8590" font-size="10">10.0</text>
  <line x1="70" y1="621.7" x2="830" y2="621.7" stroke="#21262d" stroke-width="1"/>
  <text x="62" y="621.7" text-anchor="end" dominant-baseline="middle" fill="#7d8590" font-size="10">15.0</text>
  <line x1="70" y1="810" x2="830" y2="810" stroke="#30363d" stroke-width="1.5"/>
  <rect x="95.3" y="804.3" width="50.0" height="5.7" fill="#60a5fa" rx="1"/>
  <rect x="95.3" y="684.4" width="50.0" height="119.9" fill="#4680c4" rx="1"/>
  <rect x="95.3" y="683.2" width="50.0" height="1.2" fill="#60a5fa" rx="1"/>
  <rect x="147.8" y="802.0" width="50.0" height="8.0" fill="#f87171" rx="1"/>
  <rect x="147.8" y="681.6" width="50.0" height="120.5" fill="#c45050" rx="1"/>
  <rect x="147.8" y="678.2" width="50.0" height="3.4" fill="#f87171" rx="1"/>
  <rect x="200.3" y="783.0" width="50.0" height="27.0" fill="#f59e0b" rx="1"/>
  <rect x="200.3" y="677.9" width="50.0" height="105.1" fill="#c47d08" rx="1"/>
  <rect x="200.3" y="668.5" width="50.0" height="9.4" fill="#f59e0b" rx="1"/>
  <text x="196.7" y="828" text-anchor="middle" fill="#e6edf3" font-size="11" font-weight="600">Level −1</text>
  <rect x="348.7" y="795.3" width="50.0" height="14.7" fill="#60a5fa" rx="1"/>
  <rect x="348.7" y="691.3" width="50.0" height="104.0" fill="#4680c4" rx="1"/>
  <rect x="348.7" y="682.7" width="50.0" height="8.6" fill="#60a5fa" rx="1"/>
  <rect x="401.2" y="786.9" width="50.0" height="23.1" fill="#f87171" rx="1"/>
  <rect x="401.2" y="676.2" width="50.0" height="110.7" fill="#c45050" rx="1"/>
  <rect x="401.2" y="669.7" width="50.0" height="6.5" fill="#f87171" rx="1"/>
  <rect x="453.7" y="781.7" width="50.0" height="28.3" fill="#f59e0b" rx="1"/>
  <rect x="453.7" y="677.7" width="50.0" height="104.0" fill="#c47d08" rx="1"/>
  <rect x="453.7" y="668.2" width="50.0" height="9.5" fill="#f59e0b" rx="1"/>
  <text x="450.0" y="828" text-anchor="middle" fill="#e6edf3" font-size="11" font-weight="600">Level 1</text>
  <rect x="602.0" y="768.0" width="50.0" height="42.0" fill="#60a5fa" rx="1"/>
  <rect x="602.0" y="675.3" width="50.0" height="92.7" fill="#4680c4" rx="1"/>
  <rect x="602.0" y="664.9" width="50.0" height="10.4" fill="#60a5fa" rx="1"/>
  <rect x="654.5" y="775.2" width="50.0" height="34.8" fill="#f87171" rx="1"/>
  <rect x="654.5" y="670.3" width="50.0" height="104.9" fill="#c45050" rx="1"/>
  <rect x="654.5" y="663.3" width="50.0" height="7.0" fill="#f87171" rx="1"/>
  <rect x="707.0" y="744.1" width="50.0" height="65.9" fill="#f59e0b" rx="1"/>
  <rect x="707.0" y="649.2" width="50.0" height="94.8" fill="#c47d08" rx="1"/>
  <rect x="707.0" y="636.1" width="50.0" height="13.2" fill="#f59e0b" rx="1"/>
  <text x="703.3" y="828" text-anchor="middle" fill="#e6edf3" font-size="11" font-weight="600">Level 3</text>
  <rect x="250" y="840" width="12" height="12" fill="#60a5fa" rx="2"/>
  <text x="268" y="850" fill="#e6edf3" font-size="10" font-weight="500">C zstd 1.5.7 (libzstd)</text>
  <rect x="250" y="858" width="12" height="12" fill="#f87171" rx="2"/>
  <text x="268" y="868" fill="#e6edf3" font-size="10" font-weight="500">zrip (safe API, Rust)</text>
  <rect x="460" y="840" width="12" height="12" fill="#f59e0b" rx="2"/>
  <text x="478" y="850" fill="#e6edf3" font-size="10" font-weight="500">structured-zstd 0.0.41 (unsafe Rust)</text>
  <rect x="460" y="858" width="12" height="12" fill="#c084fc" rx="2"/>
  <text x="478" y="868" fill="#e6edf3" font-size="10" font-weight="500">lz4rip 0.3.1 (safe API, Rust, LZ4)</text>
  <text x="240" y="893" fill="#e6edf3" font-size="9">bright = compress + decompress</text>
  <text x="480" y="893" fill="#7d8590" font-size="9">dim = transfer @100 MB/s</text>
</svg>
