<svg viewBox="0 0 850 968" xmlns="http://www.w3.org/2000/svg" font-family="system-ui, -apple-system, sans-serif">
<rect x="0" y="0" width="850" height="968" opacity="1" fill="#0D1117" stroke="none"/>
<text x="425" y="22" dy="0.5ex" text-anchor="middle" font-family="sans-serif" font-size="12.096774193548388" opacity="1" fill="#E6EDF3" font-weight="bold">
12-file Silesia: Pipeline @100 MB/s by compressibility (lower is better)
</text>
<text x="425" y="40" dy="0.5ex" text-anchor="middle" font-family="sans-serif" font-size="8.870967741935484" opacity="1" fill="#7D8590">
Apple M5, 10 cores
</text>
<text x="22" y="461" dy="0.5ex" text-anchor="middle" font-family="sans-serif" font-size="9.67741935483871" opacity="1" fill="#E6EDF3" font-weight="bold" transform="rotate(270, 22, 461)">
seconds / GB
</text>
<text x="450" y="74" dy="0.5ex" text-anchor="middle" font-family="sans-serif" font-size="10.483870967741936" opacity="1" fill="#E6EDF3" font-weight="bold">
High compressibility
</text>
<polyline fill="none" opacity="1" stroke="#21262D" stroke-width="1" points="70,241 830,241 "/>
<text x="62" y="241" dy="0.5ex" text-anchor="end" font-family="sans-serif" font-size="8.870967741935484" opacity="1" fill="#7D8590">
1.0
</text>
<polyline fill="none" opacity="1" stroke="#21262D" stroke-width="1" points="70,199 830,199 "/>
<text x="62" y="199" dy="0.5ex" text-anchor="end" font-family="sans-serif" font-size="8.870967741935484" opacity="1" fill="#7D8590">
2.0
</text>
<polyline fill="none" opacity="1" stroke="#21262D" stroke-width="1" points="70,156 830,156 "/>
<text x="62" y="156" dy="0.5ex" text-anchor="end" font-family="sans-serif" font-size="8.870967741935484" opacity="1" fill="#7D8590">
3.0
</text>
<polyline fill="none" opacity="1" stroke="#21262D" stroke-width="1" points="70,114 830,114 "/>
<text x="62" y="114" dy="0.5ex" text-anchor="end" font-family="sans-serif" font-size="8.870967741935484" opacity="1" fill="#7D8590">
4.0
</text>
<polyline fill="none" opacity="1" stroke="#30363D" stroke-width="2" points="70,284 830,284 "/>
<rect x="95" y="252" width="45" height="32" opacity="1" fill="#60A5FA" stroke="none"/>
<rect x="95" y="176" width="45" height="76" opacity="1" fill="#4680C4" stroke="none"/>
<rect x="95" y="166" width="45" height="10" opacity="1" fill="#60A5FA" stroke="none"/>
<rect x="141" y="233" width="45" height="51" opacity="1" fill="#F87171" stroke="none"/>
<rect x="141" y="157" width="45" height="76" opacity="1" fill="#C45050" stroke="none"/>
<rect x="141" y="136" width="45" height="21" opacity="1" fill="#F87171" stroke="none"/>
<rect x="187" y="229" width="45" height="55" opacity="1" fill="#F59E0B" stroke="none"/>
<rect x="187" y="154" width="45" height="75" opacity="1" fill="#C47D08" stroke="none"/>
<rect x="187" y="130" width="45" height="24" opacity="1" fill="#F59E0B" stroke="none"/>
<rect x="233" y="225" width="45" height="59" opacity="1" fill="#F472B6" stroke="none"/>
<rect x="233" y="148" width="45" height="77" opacity="1" fill="#C05A92" stroke="none"/>
<rect x="233" y="116" width="45" height="32" opacity="1" fill="#F472B6" stroke="none"/>
<text x="197" y="302" dy="0.5ex" text-anchor="middle" font-family="sans-serif" font-size="9.67741935483871" opacity="1" fill="#E6EDF3" font-weight="bold">
Level -1
</text>
<rect x="349" y="250" width="44" height="34" opacity="1" fill="#60A5FA" stroke="none"/>
<rect x="349" y="187" width="44" height="63" opacity="1" fill="#4680C4" stroke="none"/>
<rect x="349" y="175" width="44" height="12" opacity="1" fill="#60A5FA" stroke="none"/>
<rect x="395" y="229" width="44" height="55" opacity="1" fill="#F87171" stroke="none"/>
<rect x="395" y="156" width="44" height="73" opacity="1" fill="#C45050" stroke="none"/>
<rect x="395" y="133" width="44" height="23" opacity="1" fill="#F87171" stroke="none"/>
<rect x="441" y="226" width="44" height="58" opacity="1" fill="#F59E0B" stroke="none"/>
<rect x="441" y="163" width="44" height="63" opacity="1" fill="#C47D08" stroke="none"/>
<rect x="441" y="139" width="44" height="24" opacity="1" fill="#F59E0B" stroke="none"/>
<rect x="487" y="220" width="44" height="64" opacity="1" fill="#F472B6" stroke="none"/>
<rect x="487" y="147" width="44" height="73" opacity="1" fill="#C05A92" stroke="none"/>
<rect x="487" y="110" width="44" height="37" opacity="1" fill="#F472B6" stroke="none"/>
<text x="450" y="302" dy="0.5ex" text-anchor="middle" font-family="sans-serif" font-size="9.67741935483871" opacity="1" fill="#E6EDF3" font-weight="bold">
Level 1
</text>
<rect x="602" y="242" width="44" height="42" opacity="1" fill="#60A5FA" stroke="none"/>
<rect x="602" y="182" width="44" height="60" opacity="1" fill="#4680C4" stroke="none"/>
<rect x="602" y="171" width="44" height="11" opacity="1" fill="#60A5FA" stroke="none"/>
<rect x="648" y="226" width="44" height="58" opacity="1" fill="#F87171" stroke="none"/>
<rect x="648" y="160" width="44" height="66" opacity="1" fill="#C45050" stroke="none"/>
<rect x="648" y="139" width="44" height="21" opacity="1" fill="#F87171" stroke="none"/>
<rect x="694" y="204" width="44" height="80" opacity="1" fill="#F59E0B" stroke="none"/>
<rect x="694" y="144" width="44" height="60" opacity="1" fill="#C47D08" stroke="none"/>
<rect x="694" y="120" width="44" height="24" opacity="1" fill="#F59E0B" stroke="none"/>
<rect x="740" y="216" width="44" height="68" opacity="1" fill="#F472B6" stroke="none"/>
<rect x="740" y="150" width="44" height="66" opacity="1" fill="#C05A92" stroke="none"/>
<rect x="740" y="118" width="44" height="32" opacity="1" fill="#F472B6" stroke="none"/>
<text x="703" y="302" dy="0.5ex" text-anchor="middle" font-family="sans-serif" font-size="9.67741935483871" opacity="1" fill="#E6EDF3" font-weight="bold">
Level 3
</text>
<text x="450" y="351" dy="0.5ex" text-anchor="middle" font-family="sans-serif" font-size="10.483870967741936" opacity="1" fill="#E6EDF3" font-weight="bold">
Medium compressibility
</text>
<polyline fill="none" opacity="1" stroke="#21262D" stroke-width="1" points="70,521 830,521 "/>
<text x="62" y="521" dy="0.5ex" text-anchor="end" font-family="sans-serif" font-size="8.870967741935484" opacity="1" fill="#7D8590">
2.0
</text>
<polyline fill="none" opacity="1" stroke="#21262D" stroke-width="1" points="70,480 830,480 "/>
<text x="62" y="480" dy="0.5ex" text-anchor="end" font-family="sans-serif" font-size="8.870967741935484" opacity="1" fill="#7D8590">
4.0
</text>
<polyline fill="none" opacity="1" stroke="#21262D" stroke-width="1" points="70,440 830,440 "/>
<text x="62" y="440" dy="0.5ex" text-anchor="end" font-family="sans-serif" font-size="8.870967741935484" opacity="1" fill="#7D8590">
6.0
</text>
<polyline fill="none" opacity="1" stroke="#21262D" stroke-width="1" points="70,400 830,400 "/>
<text x="62" y="400" dy="0.5ex" text-anchor="end" font-family="sans-serif" font-size="8.870967741935484" opacity="1" fill="#7D8590">
8.0
</text>
<polyline fill="none" opacity="1" stroke="#30363D" stroke-width="2" points="70,561 830,561 "/>
<rect x="95" y="536" width="45" height="25" opacity="1" fill="#60A5FA" stroke="none"/>
<rect x="95" y="445" width="45" height="91" opacity="1" fill="#4680C4" stroke="none"/>
<rect x="95" y="438" width="45" height="7" opacity="1" fill="#60A5FA" stroke="none"/>
<rect x="141" y="517" width="45" height="44" opacity="1" fill="#F87171" stroke="none"/>
<rect x="141" y="430" width="45" height="87" opacity="1" fill="#C45050" stroke="none"/>
<rect x="141" y="414" width="45" height="16" opacity="1" fill="#F87171" stroke="none"/>
<rect x="187" y="522" width="45" height="39" opacity="1" fill="#F59E0B" stroke="none"/>
<rect x="187" y="431" width="45" height="91" opacity="1" fill="#C47D08" stroke="none"/>
<rect x="187" y="416" width="45" height="15" opacity="1" fill="#F59E0B" stroke="none"/>
<rect x="233" y="509" width="45" height="52" opacity="1" fill="#F472B6" stroke="none"/>
<rect x="233" y="423" width="45" height="86" opacity="1" fill="#C05A92" stroke="none"/>
<rect x="233" y="397" width="45" height="26" opacity="1" fill="#F472B6" stroke="none"/>
<text x="197" y="579" dy="0.5ex" text-anchor="middle" font-family="sans-serif" font-size="9.67741935483871" opacity="1" fill="#E6EDF3" font-weight="bold">
Level -1
</text>
<rect x="349" y="534" width="44" height="27" opacity="1" fill="#60A5FA" stroke="none"/>
<rect x="349" y="458" width="44" height="76" opacity="1" fill="#4680C4" stroke="none"/>
<rect x="349" y="448" width="44" height="10" opacity="1" fill="#60A5FA" stroke="none"/>
<rect x="395" y="509" width="44" height="52" opacity="1" fill="#F87171" stroke="none"/>
<rect x="395" y="428" width="44" height="81" opacity="1" fill="#C45050" stroke="none"/>
<rect x="395" y="409" width="44" height="19" opacity="1" fill="#F87171" stroke="none"/>
<rect x="441" y="517" width="44" height="44" opacity="1" fill="#F59E0B" stroke="none"/>
<rect x="441" y="440" width="44" height="77" opacity="1" fill="#C47D08" stroke="none"/>
<rect x="441" y="423" width="44" height="17" opacity="1" fill="#F59E0B" stroke="none"/>
<rect x="487" y="501" width="44" height="60" opacity="1" fill="#F472B6" stroke="none"/>
<rect x="487" y="420" width="44" height="81" opacity="1" fill="#C05A92" stroke="none"/>
<rect x="487" y="388" width="44" height="32" opacity="1" fill="#F472B6" stroke="none"/>
<text x="450" y="579" dy="0.5ex" text-anchor="middle" font-family="sans-serif" font-size="9.67741935483871" opacity="1" fill="#E6EDF3" font-weight="bold">
Level 1
</text>
<rect x="602" y="518" width="44" height="43" opacity="1" fill="#60A5FA" stroke="none"/>
<rect x="602" y="450" width="44" height="68" opacity="1" fill="#4680C4" stroke="none"/>
<rect x="602" y="439" width="44" height="11" opacity="1" fill="#60A5FA" stroke="none"/>
<rect x="648" y="499" width="44" height="62" opacity="1" fill="#F87171" stroke="none"/>
<rect x="648" y="424" width="44" height="75" opacity="1" fill="#C45050" stroke="none"/>
<rect x="648" y="407" width="44" height="17" opacity="1" fill="#F87171" stroke="none"/>
<rect x="694" y="488" width="44" height="73" opacity="1" fill="#F59E0B" stroke="none"/>
<rect x="694" y="419" width="44" height="69" opacity="1" fill="#C47D08" stroke="none"/>
<rect x="694" y="399" width="44" height="20" opacity="1" fill="#F59E0B" stroke="none"/>
<rect x="740" y="490" width="44" height="71" opacity="1" fill="#F472B6" stroke="none"/>
<rect x="740" y="415" width="44" height="75" opacity="1" fill="#C05A92" stroke="none"/>
<rect x="740" y="387" width="44" height="28" opacity="1" fill="#F472B6" stroke="none"/>
<text x="703" y="579" dy="0.5ex" text-anchor="middle" font-family="sans-serif" font-size="9.67741935483871" opacity="1" fill="#E6EDF3" font-weight="bold">
Level 3
</text>
<text x="450" y="628" dy="0.5ex" text-anchor="middle" font-family="sans-serif" font-size="10.483870967741936" opacity="1" fill="#E6EDF3" font-weight="bold">
Low compressibility
</text>
<polyline fill="none" opacity="1" stroke="#21262D" stroke-width="1" points="70,774 830,774 "/>
<text x="62" y="774" dy="0.5ex" text-anchor="end" font-family="sans-serif" font-size="8.870967741935484" opacity="1" fill="#7D8590">
5.0
</text>
<polyline fill="none" opacity="1" stroke="#21262D" stroke-width="1" points="70,710 830,710 "/>
<text x="62" y="710" dy="0.5ex" text-anchor="end" font-family="sans-serif" font-size="8.870967741935484" opacity="1" fill="#7D8590">
10.0
</text>
<polyline fill="none" opacity="1" stroke="#21262D" stroke-width="1" points="70,646 830,646 "/>
<text x="62" y="646" dy="0.5ex" text-anchor="end" font-family="sans-serif" font-size="8.870967741935484" opacity="1" fill="#7D8590">
15.0
</text>
<polyline fill="none" opacity="1" stroke="#30363D" stroke-width="2" points="70,838 830,838 "/>
<rect x="95" y="832" width="45" height="6" opacity="1" fill="#60A5FA" stroke="none"/>
<rect x="95" y="710" width="45" height="122" opacity="1" fill="#4680C4" stroke="none"/>
<rect x="95" y="709" width="45" height="1" opacity="1" fill="#60A5FA" stroke="none"/>
<rect x="141" y="825" width="45" height="13" opacity="1" fill="#F87171" stroke="none"/>
<rect x="141" y="705" width="45" height="120" opacity="1" fill="#C45050" stroke="none"/>
<rect x="141" y="702" width="45" height="3" opacity="1" fill="#F87171" stroke="none"/>
<rect x="187" y="828" width="45" height="10" opacity="1" fill="#F59E0B" stroke="none"/>
<rect x="187" y="706" width="45" height="122" opacity="1" fill="#C47D08" stroke="none"/>
<rect x="187" y="704" width="45" height="2" opacity="1" fill="#F59E0B" stroke="none"/>
<rect x="233" y="823" width="45" height="15" opacity="1" fill="#F472B6" stroke="none"/>
<rect x="233" y="703" width="45" height="120" opacity="1" fill="#C05A92" stroke="none"/>
<rect x="233" y="699" width="45" height="4" opacity="1" fill="#F472B6" stroke="none"/>
<text x="197" y="856" dy="0.5ex" text-anchor="middle" font-family="sans-serif" font-size="9.67741935483871" opacity="1" fill="#E6EDF3" font-weight="bold">
Level -1
</text>
<rect x="349" y="824" width="44" height="14" opacity="1" fill="#60A5FA" stroke="none"/>
<rect x="349" y="718" width="44" height="106" opacity="1" fill="#4680C4" stroke="none"/>
<rect x="349" y="709" width="44" height="9" opacity="1" fill="#60A5FA" stroke="none"/>
<rect x="395" y="812" width="44" height="26" opacity="1" fill="#F87171" stroke="none"/>
<rect x="395" y="699" width="44" height="113" opacity="1" fill="#C45050" stroke="none"/>
<rect x="395" y="692" width="44" height="7" opacity="1" fill="#F87171" stroke="none"/>
<rect x="441" y="812" width="44" height="26" opacity="1" fill="#F59E0B" stroke="none"/>
<rect x="441" y="706" width="44" height="106" opacity="1" fill="#C47D08" stroke="none"/>
<rect x="441" y="697" width="44" height="9" opacity="1" fill="#F59E0B" stroke="none"/>
<rect x="487" y="809" width="44" height="29" opacity="1" fill="#F472B6" stroke="none"/>
<rect x="487" y="696" width="44" height="113" opacity="1" fill="#C05A92" stroke="none"/>
<rect x="487" y="686" width="44" height="10" opacity="1" fill="#F472B6" stroke="none"/>
<text x="450" y="856" dy="0.5ex" text-anchor="middle" font-family="sans-serif" font-size="9.67741935483871" opacity="1" fill="#E6EDF3" font-weight="bold">
Level 1
</text>
<rect x="602" y="800" width="44" height="38" opacity="1" fill="#60A5FA" stroke="none"/>
<rect x="602" y="706" width="44" height="94" opacity="1" fill="#4680C4" stroke="none"/>
<rect x="602" y="696" width="44" height="10" opacity="1" fill="#60A5FA" stroke="none"/>
<rect x="648" y="790" width="44" height="48" opacity="1" fill="#F87171" stroke="none"/>
<rect x="648" y="689" width="44" height="101" opacity="1" fill="#C45050" stroke="none"/>
<rect x="648" y="679" width="44" height="10" opacity="1" fill="#F87171" stroke="none"/>
<rect x="694" y="774" width="44" height="64" opacity="1" fill="#F59E0B" stroke="none"/>
<rect x="694" y="678" width="44" height="96" opacity="1" fill="#C47D08" stroke="none"/>
<rect x="694" y="664" width="44" height="14" opacity="1" fill="#F59E0B" stroke="none"/>
<rect x="740" y="783" width="44" height="55" opacity="1" fill="#F472B6" stroke="none"/>
<rect x="740" y="681" width="44" height="102" opacity="1" fill="#C05A92" stroke="none"/>
<rect x="740" y="667" width="44" height="14" opacity="1" fill="#F472B6" stroke="none"/>
<text x="703" y="856" dy="0.5ex" text-anchor="middle" font-family="sans-serif" font-size="9.67741935483871" opacity="1" fill="#E6EDF3" font-weight="bold">
Level 3
</text>
<rect x="190" y="880" width="12" height="12" opacity="1" fill="#60A5FA" stroke="none"/>
<text x="208" y="886" dy="0.5ex" text-anchor="start" font-family="sans-serif" font-size="8.870967741935484" opacity="1" fill="#E6EDF3">
libzstd v1.5.7 (C)
</text>
<rect x="190" y="900" width="12" height="12" opacity="1" fill="#F87171" stroke="none"/>
<text x="208" y="906" dy="0.5ex" text-anchor="start" font-family="sans-serif" font-size="8.870967741935484" opacity="1" fill="#E6EDF3">
zrip (safe SIMD + encapsulated unsafe)
</text>
<rect x="460" y="880" width="12" height="12" opacity="1" fill="#F59E0B" stroke="none"/>
<text x="478" y="886" dy="0.5ex" text-anchor="start" font-family="sans-serif" font-size="8.870967741935484" opacity="1" fill="#E6EDF3">
structured-zstd v0.0.49 (unsafe)
</text>
<rect x="460" y="900" width="12" height="12" opacity="1" fill="#F472B6" stroke="none"/>
<text x="478" y="906" dy="0.5ex" text-anchor="start" font-family="sans-serif" font-size="8.870967741935484" opacity="1" fill="#E6EDF3">
zrip paranoid (safe SIMD, no unsafe)
</text>
<text x="215" y="942" dy="0.5ex" text-anchor="start" font-family="sans-serif" font-size="8.064516129032258" opacity="1" fill="#E6EDF3">
bright = compress + decompress
</text>
<text x="455" y="942" dy="0.5ex" text-anchor="start" font-family="sans-serif" font-size="8.064516129032258" opacity="1" fill="#7D8590">
dim = transfer @100 MB/s
</text>
</svg>
