<svg xmlns="http://www.w3.org/2000/svg" viewBox="0 0 850 950" font-family="system-ui, -apple-system, sans-serif">
  <rect width="850" height="950" fill="#0d1117"/>
  <text x="450.0" y="22" text-anchor="middle" fill="#e6edf3" font-size="14" font-weight="700">zstd Pipeline @100 MB/s: Aggregate across corpus (lower is better)</text>
  <text x="450.0" y="38" text-anchor="middle" fill="#7d8590" font-size="10">Apple M4</text>
  <text x="22" y="445.0" text-anchor="middle" fill="#e6edf3" font-size="11" font-weight="600" transform="rotate(-90,22,445.0)">seconds / GB</text>
  <text x="450.0" y="64" text-anchor="middle" fill="#e6edf3" font-size="12" font-weight="600">High compressibility</text>
  <line x1="70" y1="232.2" x2="830" y2="232.2" stroke="#21262d" stroke-width="1"/>
  <text x="62" y="232.2" text-anchor="end" dominant-baseline="middle" fill="#7d8590" font-size="10">1.0</text>
  <line x1="70" y1="194.5" x2="830" y2="194.5" stroke="#21262d" stroke-width="1"/>
  <text x="62" y="194.5" text-anchor="end" dominant-baseline="middle" fill="#7d8590" font-size="10">2.0</text>
  <line x1="70" y1="156.7" x2="830" y2="156.7" stroke="#21262d" stroke-width="1"/>
  <text x="62" y="156.7" text-anchor="end" dominant-baseline="middle" fill="#7d8590" font-size="10">3.0</text>
  <line x1="70" y1="118.9" x2="830" y2="118.9" stroke="#21262d" stroke-width="1"/>
  <text x="62" y="118.9" text-anchor="end" dominant-baseline="middle" fill="#7d8590" font-size="10">4.0</text>
  <line x1="70" y1="81.2" x2="830" y2="81.2" stroke="#21262d" stroke-width="1"/>
  <text x="62" y="81.2" text-anchor="end" dominant-baseline="middle" fill="#7d8590" font-size="10">5.0</text>
  <line x1="70" y1="270" x2="830" y2="270" stroke="#30363d" stroke-width="1.5"/>
  <rect x="95.3" y="239.5" width="44.3" height="30.5" fill="#60a5fa" rx="1"/>
  <rect x="95.3" y="172.1" width="44.3" height="67.4" fill="#4680c4" rx="1"/>
  <rect x="95.3" y="162.0" width="44.3" height="10.2" fill="#60a5fa" rx="1"/>
  <rect x="141.3" y="226.8" width="44.3" height="43.2" fill="#f87171" rx="1"/>
  <rect x="141.3" y="155.1" width="44.3" height="71.7" fill="#c45050" rx="1"/>
  <rect x="141.3" y="131.5" width="44.3" height="23.5" fill="#f87171" rx="1"/>
  <rect x="187.3" y="214.7" width="44.3" height="55.3" fill="#f59e0b" rx="1"/>
  <rect x="187.3" y="156.4" width="44.3" height="58.3" fill="#c47d08" rx="1"/>
  <rect x="187.3" y="134.5" width="44.3" height="21.9" fill="#f59e0b" rx="1"/>
  <rect x="233.3" y="208.0" width="44.3" height="62.0" fill="#f472b6" rx="1"/>
  <rect x="233.3" y="136.3" width="44.3" height="71.7" fill="#c05a92" rx="1"/>
  <rect x="233.3" y="101.3" width="44.3" height="34.9" fill="#f472b6" rx="1"/>
  <text x="196.7" y="288" text-anchor="middle" fill="#e6edf3" font-size="11" font-weight="600">Level −1</text>
  <rect x="348.7" y="236.7" width="44.3" height="33.3" fill="#60a5fa" rx="1"/>
  <rect x="348.7" y="179.6" width="44.3" height="57.1" fill="#4680c4" rx="1"/>
  <rect x="348.7" y="168.4" width="44.3" height="11.2" fill="#60a5fa" rx="1"/>
  <rect x="394.7" y="221.0" width="44.3" height="49.0" fill="#f87171" rx="1"/>
  <rect x="394.7" y="155.5" width="44.3" height="65.5" fill="#c45050" rx="1"/>
  <rect x="394.7" y="128.3" width="44.3" height="27.2" fill="#f87171" rx="1"/>
  <rect x="440.7" y="212.4" width="44.3" height="57.6" fill="#f59e0b" rx="1"/>
  <rect x="440.7" y="155.3" width="44.3" height="57.2" fill="#c47d08" rx="1"/>
  <rect x="440.7" y="133.5" width="44.3" height="21.8" fill="#f59e0b" rx="1"/>
  <rect x="486.7" y="201.1" width="44.3" height="68.9" fill="#f472b6" rx="1"/>
  <rect x="486.7" y="135.7" width="44.3" height="65.5" fill="#c05a92" rx="1"/>
  <rect x="486.7" y="96.1" width="44.3" height="39.6" fill="#f472b6" rx="1"/>
  <text x="450.0" y="288" text-anchor="middle" fill="#e6edf3" font-size="11" font-weight="600">Level 1</text>
  <rect x="602.0" y="228.9" width="44.3" height="41.1" fill="#60a5fa" rx="1"/>
  <rect x="602.0" y="175.5" width="44.3" height="53.3" fill="#4680c4" rx="1"/>
  <rect x="602.0" y="164.3" width="44.3" height="11.2" fill="#60a5fa" rx="1"/>
  <rect x="648.0" y="218.2" width="44.3" height="51.8" fill="#f87171" rx="1"/>
  <rect x="648.0" y="158.2" width="44.3" height="60.0" fill="#c45050" rx="1"/>
  <rect x="648.0" y="135.1" width="44.3" height="23.1" fill="#f87171" rx="1"/>
  <rect x="694.0" y="189.5" width="44.3" height="80.5" fill="#f59e0b" rx="1"/>
  <rect x="694.0" y="134.0" width="44.3" height="55.5" fill="#c47d08" rx="1"/>
  <rect x="694.0" y="112.8" width="44.3" height="21.2" fill="#f59e0b" rx="1"/>
  <rect x="740.0" y="199.0" width="44.3" height="71.0" fill="#f472b6" rx="1"/>
  <rect x="740.0" y="138.9" width="44.3" height="60.0" fill="#c05a92" rx="1"/>
  <rect x="740.0" y="105.2" width="44.3" height="33.7" fill="#f472b6" rx="1"/>
  <text x="703.3" y="288" text-anchor="middle" fill="#e6edf3" font-size="11" font-weight="600">Level 3</text>
  <text x="450.0" y="339" text-anchor="middle" fill="#e6edf3" font-size="12" font-weight="600">Medium compressibility</text>
  <line x1="70" y1="507.8" x2="830" y2="507.8" stroke="#21262d" stroke-width="1"/>
  <text x="62" y="507.8" text-anchor="end" dominant-baseline="middle" fill="#7d8590" font-size="10">2.0</text>
  <line x1="70" y1="470.6" x2="830" y2="470.6" stroke="#21262d" stroke-width="1"/>
  <text x="62" y="470.6" text-anchor="end" dominant-baseline="middle" fill="#7d8590" font-size="10">4.0</text>
  <line x1="70" y1="433.4" x2="830" y2="433.4" stroke="#21262d" stroke-width="1"/>
  <text x="62" y="433.4" text-anchor="end" dominant-baseline="middle" fill="#7d8590" font-size="10">6.0</text>
  <line x1="70" y1="396.2" x2="830" y2="396.2" stroke="#21262d" stroke-width="1"/>
  <text x="62" y="396.2" text-anchor="end" dominant-baseline="middle" fill="#7d8590" font-size="10">8.0</text>
  <line x1="70" y1="358.9" x2="830" y2="358.9" stroke="#21262d" stroke-width="1"/>
  <text x="62" y="358.9" text-anchor="end" dominant-baseline="middle" fill="#7d8590" font-size="10">10.0</text>
  <line x1="70" y1="545" x2="830" y2="545" stroke="#30363d" stroke-width="1.5"/>
  <rect x="95.3" y="521.3" width="44.3" height="23.7" fill="#60a5fa" rx="1"/>
  <rect x="95.3" y="438.5" width="44.3" height="82.8" fill="#4680c4" rx="1"/>
  <rect x="95.3" y="431.6" width="44.3" height="6.9" fill="#60a5fa" rx="1"/>
  <rect x="141.3" y="508.8" width="44.3" height="36.2" fill="#f87171" rx="1"/>
  <rect x="141.3" y="426.3" width="44.3" height="82.6" fill="#c45050" rx="1"/>
  <rect x="141.3" y="410.9" width="44.3" height="15.4" fill="#f87171" rx="1"/>
  <rect x="187.3" y="501.2" width="44.3" height="43.8" fill="#f59e0b" rx="1"/>
  <rect x="187.3" y="429.7" width="44.3" height="71.5" fill="#c47d08" rx="1"/>
  <rect x="187.3" y="413.3" width="44.3" height="16.4" fill="#f59e0b" rx="1"/>
  <rect x="233.3" y="490.9" width="44.3" height="54.1" fill="#f472b6" rx="1"/>
  <rect x="233.3" y="408.3" width="44.3" height="82.6" fill="#c05a92" rx="1"/>
  <rect x="233.3" y="379.4" width="44.3" height="28.9" fill="#f472b6" rx="1"/>
  <text x="196.7" y="563" text-anchor="middle" fill="#e6edf3" font-size="11" font-weight="600">Level −1</text>
  <rect x="348.7" y="518.6" width="44.3" height="26.4" fill="#60a5fa" rx="1"/>
  <rect x="348.7" y="449.8" width="44.3" height="68.8" fill="#4680c4" rx="1"/>
  <rect x="348.7" y="440.5" width="44.3" height="9.3" fill="#60a5fa" rx="1"/>
  <rect x="394.7" y="499.9" width="44.3" height="45.1" fill="#f87171" rx="1"/>
  <rect x="394.7" y="426.1" width="44.3" height="73.7" fill="#c45050" rx="1"/>
  <rect x="394.7" y="406.5" width="44.3" height="19.6" fill="#f87171" rx="1"/>
  <rect x="440.7" y="500.0" width="44.3" height="45.0" fill="#f59e0b" rx="1"/>
  <rect x="440.7" y="430.9" width="44.3" height="69.1" fill="#c47d08" rx="1"/>
  <rect x="440.7" y="414.5" width="44.3" height="16.4" fill="#f59e0b" rx="1"/>
  <rect x="486.7" y="479.0" width="44.3" height="66.0" fill="#f472b6" rx="1"/>
  <rect x="486.7" y="405.3" width="44.3" height="73.7" fill="#c05a92" rx="1"/>
  <rect x="486.7" y="371.1" width="44.3" height="34.2" fill="#f472b6" rx="1"/>
  <text x="450.0" y="563" text-anchor="middle" fill="#e6edf3" font-size="11" font-weight="600">Level 1</text>
  <rect x="602.0" y="501.7" width="44.3" height="43.3" fill="#60a5fa" rx="1"/>
  <rect x="602.0" y="439.6" width="44.3" height="62.1" fill="#4680c4" rx="1"/>
  <rect x="602.0" y="429.8" width="44.3" height="9.9" fill="#60a5fa" rx="1"/>
  <rect x="648.0" y="491.0" width="44.3" height="54.0" fill="#f87171" rx="1"/>
  <rect x="648.0" y="422.1" width="44.3" height="68.9" fill="#c45050" rx="1"/>
  <rect x="648.0" y="405.7" width="44.3" height="16.4" fill="#f87171" rx="1"/>
  <rect x="694.0" y="467.1" width="44.3" height="77.9" fill="#f59e0b" rx="1"/>
  <rect x="694.0" y="403.5" width="44.3" height="63.5" fill="#c47d08" rx="1"/>
  <rect x="694.0" y="385.7" width="44.3" height="17.8" fill="#f59e0b" rx="1"/>
  <rect x="740.0" y="471.1" width="44.3" height="73.9" fill="#f472b6" rx="1"/>
  <rect x="740.0" y="402.2" width="44.3" height="68.9" fill="#c05a92" rx="1"/>
  <rect x="740.0" y="373.1" width="44.3" height="29.1" fill="#f472b6" rx="1"/>
  <text x="703.3" y="563" text-anchor="middle" fill="#e6edf3" font-size="11" font-weight="600">Level 3</text>
  <text x="450.0" y="614" text-anchor="middle" fill="#e6edf3" font-size="12" font-weight="600">Low compressibility</text>
  <line x1="70" y1="758.1" x2="830" y2="758.1" stroke="#21262d" stroke-width="1"/>
  <text x="62" y="758.1" text-anchor="end" dominant-baseline="middle" fill="#7d8590" font-size="10">5.0</text>
  <line x1="70" y1="696.2" x2="830" y2="696.2" stroke="#21262d" stroke-width="1"/>
  <text x="62" y="696.2" text-anchor="end" dominant-baseline="middle" fill="#7d8590" font-size="10">10.0</text>
  <line x1="70" y1="634.4" x2="830" y2="634.4" stroke="#21262d" stroke-width="1"/>
  <text x="62" y="634.4" text-anchor="end" dominant-baseline="middle" fill="#7d8590" font-size="10">15.0</text>
  <line x1="70" y1="820" x2="830" y2="820" stroke="#30363d" stroke-width="1.5"/>
  <rect x="95.3" y="814.4" width="44.3" height="5.6" fill="#60a5fa" rx="1"/>
  <rect x="95.3" y="696.3" width="44.3" height="118.2" fill="#4680c4" rx="1"/>
  <rect x="95.3" y="695.1" width="44.3" height="1.2" fill="#60a5fa" rx="1"/>
  <rect x="141.3" y="811.7" width="44.3" height="8.3" fill="#f87171" rx="1"/>
  <rect x="141.3" y="692.9" width="44.3" height="118.7" fill="#c45050" rx="1"/>
  <rect x="141.3" y="690.8" width="44.3" height="2.1" fill="#f87171" rx="1"/>
  <rect x="187.3" y="793.9" width="44.3" height="26.1" fill="#f59e0b" rx="1"/>
  <rect x="187.3" y="690.3" width="44.3" height="103.6" fill="#c47d08" rx="1"/>
  <rect x="187.3" y="681.1" width="44.3" height="9.2" fill="#f59e0b" rx="1"/>
  <rect x="233.3" y="808.2" width="44.3" height="11.8" fill="#f472b6" rx="1"/>
  <rect x="233.3" y="689.4" width="44.3" height="118.7" fill="#c05a92" rx="1"/>
  <rect x="233.3" y="686.1" width="44.3" height="3.3" fill="#f472b6" rx="1"/>
  <text x="196.7" y="838" text-anchor="middle" fill="#e6edf3" font-size="11" font-weight="600">Level −1</text>
  <rect x="348.7" y="805.6" width="44.3" height="14.4" fill="#60a5fa" rx="1"/>
  <rect x="348.7" y="703.2" width="44.3" height="102.5" fill="#4680c4" rx="1"/>
  <rect x="348.7" y="694.6" width="44.3" height="8.5" fill="#60a5fa" rx="1"/>
  <rect x="394.7" y="796.4" width="44.3" height="23.6" fill="#f87171" rx="1"/>
  <rect x="394.7" y="687.3" width="44.3" height="109.1" fill="#c45050" rx="1"/>
  <rect x="394.7" y="681.4" width="44.3" height="5.9" fill="#f87171" rx="1"/>
  <rect x="440.7" y="792.5" width="44.3" height="27.5" fill="#f59e0b" rx="1"/>
  <rect x="440.7" y="690.0" width="44.3" height="102.5" fill="#c47d08" rx="1"/>
  <rect x="440.7" y="680.6" width="44.3" height="9.4" fill="#f59e0b" rx="1"/>
  <rect x="486.7" y="784.2" width="44.3" height="35.8" fill="#f472b6" rx="1"/>
  <rect x="486.7" y="675.1" width="44.3" height="109.1" fill="#c05a92" rx="1"/>
  <rect x="486.7" y="664.7" width="44.3" height="10.4" fill="#f472b6" rx="1"/>
  <text x="450.0" y="838" text-anchor="middle" fill="#e6edf3" font-size="11" font-weight="600">Level 1</text>
  <rect x="602.0" y="779.1" width="44.3" height="40.9" fill="#60a5fa" rx="1"/>
  <rect x="602.0" y="687.7" width="44.3" height="91.4" fill="#4680c4" rx="1"/>
  <rect x="602.0" y="677.5" width="44.3" height="10.3" fill="#60a5fa" rx="1"/>
  <rect x="648.0" y="777.5" width="44.3" height="42.5" fill="#f87171" rx="1"/>
  <rect x="648.0" y="679.4" width="44.3" height="98.1" fill="#c45050" rx="1"/>
  <rect x="648.0" y="671.0" width="44.3" height="8.4" fill="#f87171" rx="1"/>
  <rect x="694.0" y="757.5" width="44.3" height="62.5" fill="#f59e0b" rx="1"/>
  <rect x="694.0" y="663.7" width="44.3" height="93.7" fill="#c47d08" rx="1"/>
  <rect x="694.0" y="651.3" width="44.3" height="12.4" fill="#f59e0b" rx="1"/>
  <rect x="740.0" y="759.7" width="44.3" height="60.3" fill="#f472b6" rx="1"/>
  <rect x="740.0" y="661.5" width="44.3" height="98.1" fill="#c05a92" rx="1"/>
  <rect x="740.0" y="646.1" width="44.3" height="15.4" fill="#f472b6" rx="1"/>
  <text x="703.3" y="838" text-anchor="middle" fill="#e6edf3" font-size="11" font-weight="600">Level 3</text>
  <rect x="230" y="850" width="12" height="12" fill="#60a5fa" rx="2"/>
  <text x="248" y="860" fill="#e6edf3" font-size="10" font-weight="500">C zstd 1.5.7 (libzstd)</text>
  <rect x="230" y="868" width="12" height="12" fill="#f87171" rx="2"/>
  <text x="248" y="878" fill="#e6edf3" font-size="10" font-weight="500">zrip (encapsulated unsafe, Rust)</text>
  <rect x="480" y="850" width="12" height="12" fill="#f59e0b" rx="2"/>
  <text x="498" y="860" fill="#e6edf3" font-size="10" font-weight="500">structured-zstd 0.0.44 (unsafe Rust)</text>
  <rect x="480" y="868" width="12" height="12" fill="#f472b6" rx="2"/>
  <text x="498" y="878" fill="#e6edf3" font-size="10" font-weight="500">zrip paranoid (safe Rust, no unsafe)</text>
  <text x="240" y="903" fill="#e6edf3" font-size="9">bright = compress + decompress</text>
  <text x="480" y="903" fill="#7d8590" font-size="9">dim = transfer @100 MB/s</text>
</svg>
