<svg viewBox="0 0 850 787" xmlns="http://www.w3.org/2000/svg" font-family="system-ui, -apple-system, sans-serif">
<rect x="0" y="0" width="850" height="787" opacity="1" fill="#0D1117" stroke="none"/>
<text x="425" y="22" dy="0.5ex" text-anchor="middle" font-family="sans-serif" font-size="12.096774193548388" opacity="1" fill="#E6EDF3" font-weight="bold">
12-file Silesia: Per-file pipeline @100 MB/s, Level 1 (lower is better)
</text>
<text x="425" y="40" dy="0.5ex" text-anchor="middle" font-family="sans-serif" font-size="8.870967741935484" opacity="1" fill="#7D8590">
Apple M5, 10 cores
</text>
<text x="22" y="337" dy="0.5ex" text-anchor="middle" font-family="sans-serif" font-size="9.67741935483871" opacity="1" fill="#E6EDF3" font-weight="bold" transform="rotate(270, 22, 337)">
seconds / GB
</text>
<polyline fill="none" opacity="1" stroke="#21262D" stroke-width="1" points="55,249 830,249 "/>
<text x="47" y="249" dy="0.5ex" text-anchor="end" font-family="sans-serif" font-size="8.870967741935484" opacity="1" fill="#7D8590">
5
</text>
<polyline fill="none" opacity="1" stroke="#21262D" stroke-width="1" points="55,195 830,195 "/>
<text x="47" y="195" dy="0.5ex" text-anchor="end" font-family="sans-serif" font-size="8.870967741935484" opacity="1" fill="#7D8590">
10
</text>
<polyline fill="none" opacity="1" stroke="#21262D" stroke-width="1" points="55,142 830,142 "/>
<text x="47" y="142" dy="0.5ex" text-anchor="end" font-family="sans-serif" font-size="8.870967741935484" opacity="1" fill="#7D8590">
15
</text>
<polyline fill="none" opacity="1" stroke="#21262D" stroke-width="1" points="55,88 830,88 "/>
<text x="47" y="88" dy="0.5ex" text-anchor="end" font-family="sans-serif" font-size="8.870967741935484" opacity="1" fill="#7D8590">
20
</text>
<polyline fill="none" opacity="1" stroke="#30363D" stroke-width="2" points="55,302 830,302 "/>
<rect x="71" y="284" width="20" height="18" opacity="1" fill="#60A5FA" stroke="none"/>
<rect x="71" y="240" width="20" height="44" opacity="1" fill="#4680C4" stroke="none"/>
<rect x="71" y="234" width="20" height="6" opacity="1" fill="#60A5FA" stroke="none"/>
<rect x="91" y="263" width="19" height="39" opacity="1" fill="#F87171" stroke="none"/>
<rect x="91" y="215" width="19" height="48" opacity="1" fill="#C45050" stroke="none"/>
<rect x="91" y="202" width="19" height="13" opacity="1" fill="#F87171" stroke="none"/>
<rect x="110" y="276" width="19" height="26" opacity="1" fill="#F59E0B" stroke="none"/>
<rect x="110" y="231" width="19" height="45" opacity="1" fill="#C47D08" stroke="none"/>
<rect x="110" y="222" width="19" height="9" opacity="1" fill="#F59E0B" stroke="none"/>
<rect x="129" y="258" width="20" height="44" opacity="1" fill="#F472B6" stroke="none"/>
<rect x="129" y="211" width="20" height="47" opacity="1" fill="#C05A92" stroke="none"/>
<rect x="129" y="187" width="20" height="24" opacity="1" fill="#F472B6" stroke="none"/>
<rect x="149" y="215" width="19" height="87" opacity="1" fill="#4ADE80" stroke="none"/>
<rect x="149" y="162" width="19" height="53" opacity="1" fill="#3AAF60" stroke="none"/>
<rect x="149" y="128" width="19" height="34" opacity="1" fill="#4ADE80" stroke="none"/>
<text x="120" y="319" dy="0.5ex" text-anchor="middle" font-family="sans-serif" font-size="8.870967741935484" opacity="1" fill="#E6EDF3" font-weight="bold">
dickens
</text>
<text x="120" y="334" dy="0.5ex" text-anchor="middle" font-family="sans-serif" font-size="8.064516129032258" opacity="1" fill="#7D8590">
10.2 MB
</text>
<rect x="200" y="289" width="20" height="13" opacity="1" fill="#60A5FA" stroke="none"/>
<rect x="200" y="248" width="20" height="41" opacity="1" fill="#4680C4" stroke="none"/>
<rect x="200" y="242" width="20" height="6" opacity="1" fill="#60A5FA" stroke="none"/>
<rect x="220" y="280" width="19" height="22" opacity="1" fill="#F87171" stroke="none"/>
<rect x="220" y="236" width="19" height="44" opacity="1" fill="#C45050" stroke="none"/>
<rect x="220" y="226" width="19" height="10" opacity="1" fill="#F87171" stroke="none"/>
<rect x="239" y="279" width="19" height="23" opacity="1" fill="#F59E0B" stroke="none"/>
<rect x="239" y="237" width="19" height="42" opacity="1" fill="#C47D08" stroke="none"/>
<rect x="239" y="228" width="19" height="9" opacity="1" fill="#F59E0B" stroke="none"/>
<rect x="258" y="276" width="20" height="26" opacity="1" fill="#F472B6" stroke="none"/>
<rect x="258" y="233" width="20" height="43" opacity="1" fill="#C05A92" stroke="none"/>
<rect x="258" y="218" width="20" height="15" opacity="1" fill="#F472B6" stroke="none"/>
<rect x="278" y="228" width="19" height="74" opacity="1" fill="#4ADE80" stroke="none"/>
<rect x="278" y="173" width="19" height="55" opacity="1" fill="#3AAF60" stroke="none"/>
<rect x="278" y="155" width="19" height="18" opacity="1" fill="#4ADE80" stroke="none"/>
<text x="249" y="319" dy="0.5ex" text-anchor="middle" font-family="sans-serif" font-size="8.870967741935484" opacity="1" fill="#E6EDF3" font-weight="bold">
mozilla
</text>
<text x="249" y="334" dy="0.5ex" text-anchor="middle" font-family="sans-serif" font-size="8.064516129032258" opacity="1" fill="#7D8590">
51.2 MB
</text>
<rect x="329" y="288" width="20" height="14" opacity="1" fill="#60A5FA" stroke="none"/>
<rect x="329" y="247" width="20" height="41" opacity="1" fill="#4680C4" stroke="none"/>
<rect x="329" y="243" width="20" height="4" opacity="1" fill="#60A5FA" stroke="none"/>
<rect x="349" y="272" width="19" height="30" opacity="1" fill="#F87171" stroke="none"/>
<rect x="349" y="228" width="19" height="44" opacity="1" fill="#C45050" stroke="none"/>
<rect x="349" y="217" width="19" height="11" opacity="1" fill="#F87171" stroke="none"/>
<rect x="368" y="279" width="20" height="23" opacity="1" fill="#F59E0B" stroke="none"/>
<rect x="368" y="238" width="20" height="41" opacity="1" fill="#C47D08" stroke="none"/>
<rect x="368" y="230" width="20" height="8" opacity="1" fill="#F59E0B" stroke="none"/>
<rect x="388" y="267" width="19" height="35" opacity="1" fill="#F472B6" stroke="none"/>
<rect x="388" y="223" width="19" height="44" opacity="1" fill="#C05A92" stroke="none"/>
<rect x="388" y="209" width="19" height="14" opacity="1" fill="#F472B6" stroke="none"/>
<rect x="407" y="234" width="19" height="68" opacity="1" fill="#4ADE80" stroke="none"/>
<rect x="407" y="181" width="19" height="53" opacity="1" fill="#3AAF60" stroke="none"/>
<rect x="407" y="158" width="19" height="23" opacity="1" fill="#4ADE80" stroke="none"/>
<text x="378" y="319" dy="0.5ex" text-anchor="middle" font-family="sans-serif" font-size="8.870967741935484" opacity="1" fill="#E6EDF3" font-weight="bold">
mr
</text>
<text x="378" y="334" dy="0.5ex" text-anchor="middle" font-family="sans-serif" font-size="8.064516129032258" opacity="1" fill="#7D8590">
10.0 MB
</text>
<rect x="459" y="295" width="19" height="7" opacity="1" fill="#60A5FA" stroke="none"/>
<rect x="459" y="286" width="19" height="9" opacity="1" fill="#4680C4" stroke="none"/>
<rect x="459" y="283" width="19" height="3" opacity="1" fill="#60A5FA" stroke="none"/>
<rect x="478" y="291" width="19" height="11" opacity="1" fill="#F87171" stroke="none"/>
<rect x="478" y="280" width="19" height="11" opacity="1" fill="#C45050" stroke="none"/>
<rect x="478" y="275" width="19" height="5" opacity="1" fill="#F87171" stroke="none"/>
<rect x="497" y="289" width="20" height="13" opacity="1" fill="#F59E0B" stroke="none"/>
<rect x="497" y="280" width="20" height="9" opacity="1" fill="#C47D08" stroke="none"/>
<rect x="497" y="275" width="20" height="5" opacity="1" fill="#F59E0B" stroke="none"/>
<rect x="517" y="289" width="19" height="13" opacity="1" fill="#F472B6" stroke="none"/>
<rect x="517" y="278" width="19" height="11" opacity="1" fill="#C05A92" stroke="none"/>
<rect x="517" y="271" width="19" height="7" opacity="1" fill="#F472B6" stroke="none"/>
<rect x="536" y="267" width="20" height="35" opacity="1" fill="#4ADE80" stroke="none"/>
<rect x="536" y="252" width="20" height="15" opacity="1" fill="#3AAF60" stroke="none"/>
<rect x="536" y="240" width="20" height="12" opacity="1" fill="#4ADE80" stroke="none"/>
<text x="507" y="319" dy="0.5ex" text-anchor="middle" font-family="sans-serif" font-size="8.870967741935484" opacity="1" fill="#E6EDF3" font-weight="bold">
nci
</text>
<text x="507" y="334" dy="0.5ex" text-anchor="middle" font-family="sans-serif" font-size="8.064516129032258" opacity="1" fill="#7D8590">
33.6 MB
</text>
<rect x="588" y="288" width="19" height="14" opacity="1" fill="#60A5FA" stroke="none"/>
<rect x="588" y="226" width="19" height="62" opacity="1" fill="#4680C4" stroke="none"/>
<rect x="588" y="219" width="19" height="7" opacity="1" fill="#60A5FA" stroke="none"/>
<rect x="607" y="271" width="20" height="31" opacity="1" fill="#F87171" stroke="none"/>
<rect x="607" y="211" width="20" height="60" opacity="1" fill="#C45050" stroke="none"/>
<rect x="607" y="199" width="20" height="12" opacity="1" fill="#F87171" stroke="none"/>
<rect x="627" y="276" width="19" height="26" opacity="1" fill="#F59E0B" stroke="none"/>
<rect x="627" y="214" width="19" height="62" opacity="1" fill="#C47D08" stroke="none"/>
<rect x="627" y="204" width="19" height="10" opacity="1" fill="#F59E0B" stroke="none"/>
<rect x="646" y="266" width="19" height="36" opacity="1" fill="#F472B6" stroke="none"/>
<rect x="646" y="206" width="19" height="60" opacity="1" fill="#C05A92" stroke="none"/>
<rect x="646" y="186" width="19" height="20" opacity="1" fill="#F472B6" stroke="none"/>
<rect x="665" y="209" width="20" height="93" opacity="1" fill="#4ADE80" stroke="none"/>
<rect x="665" y="138" width="20" height="71" opacity="1" fill="#3AAF60" stroke="none"/>
<rect x="665" y="118" width="20" height="20" opacity="1" fill="#4ADE80" stroke="none"/>
<text x="636" y="319" dy="0.5ex" text-anchor="middle" font-family="sans-serif" font-size="8.870967741935484" opacity="1" fill="#E6EDF3" font-weight="bold">
ooffice
</text>
<text x="636" y="334" dy="0.5ex" text-anchor="middle" font-family="sans-serif" font-size="8.064516129032258" opacity="1" fill="#7D8590">
6.2 MB
</text>
<rect x="717" y="290" width="19" height="12" opacity="1" fill="#60A5FA" stroke="none"/>
<rect x="717" y="251" width="19" height="39" opacity="1" fill="#4680C4" stroke="none"/>
<rect x="717" y="246" width="19" height="5" opacity="1" fill="#60A5FA" stroke="none"/>
<rect x="736" y="283" width="20" height="19" opacity="1" fill="#F87171" stroke="none"/>
<rect x="736" y="241" width="20" height="42" opacity="1" fill="#C45050" stroke="none"/>
<rect x="736" y="235" width="20" height="6" opacity="1" fill="#F87171" stroke="none"/>
<rect x="756" y="283" width="19" height="19" opacity="1" fill="#F59E0B" stroke="none"/>
<rect x="756" y="244" width="19" height="39" opacity="1" fill="#C47D08" stroke="none"/>
<rect x="756" y="236" width="19" height="8" opacity="1" fill="#F59E0B" stroke="none"/>
<rect x="775" y="281" width="19" height="21" opacity="1" fill="#F472B6" stroke="none"/>
<rect x="775" y="239" width="19" height="42" opacity="1" fill="#C05A92" stroke="none"/>
<rect x="775" y="230" width="19" height="9" opacity="1" fill="#F472B6" stroke="none"/>
<rect x="794" y="243" width="20" height="59" opacity="1" fill="#4ADE80" stroke="none"/>
<rect x="794" y="196" width="20" height="47" opacity="1" fill="#3AAF60" stroke="none"/>
<rect x="794" y="183" width="20" height="13" opacity="1" fill="#4ADE80" stroke="none"/>
<text x="765" y="319" dy="0.5ex" text-anchor="middle" font-family="sans-serif" font-size="8.870967741935484" opacity="1" fill="#E6EDF3" font-weight="bold">
osdb
</text>
<text x="765" y="334" dy="0.5ex" text-anchor="middle" font-family="sans-serif" font-size="8.064516129032258" opacity="1" fill="#7D8590">
10.1 MB
</text>
<polyline fill="none" opacity="1" stroke="#21262D" stroke-width="1" points="55,559 830,559 "/>
<text x="47" y="559" dy="0.5ex" text-anchor="end" font-family="sans-serif" font-size="8.870967741935484" opacity="1" fill="#7D8590">
5
</text>
<polyline fill="none" opacity="1" stroke="#21262D" stroke-width="1" points="55,505 830,505 "/>
<text x="47" y="505" dy="0.5ex" text-anchor="end" font-family="sans-serif" font-size="8.870967741935484" opacity="1" fill="#7D8590">
10
</text>
<polyline fill="none" opacity="1" stroke="#21262D" stroke-width="1" points="55,452 830,452 "/>
<text x="47" y="452" dy="0.5ex" text-anchor="end" font-family="sans-serif" font-size="8.870967741935484" opacity="1" fill="#7D8590">
15
</text>
<polyline fill="none" opacity="1" stroke="#21262D" stroke-width="1" points="55,398 830,398 "/>
<text x="47" y="398" dy="0.5ex" text-anchor="end" font-family="sans-serif" font-size="8.870967741935484" opacity="1" fill="#7D8590">
20
</text>
<polyline fill="none" opacity="1" stroke="#30363D" stroke-width="2" points="55,612 830,612 "/>
<rect x="71" y="594" width="20" height="18" opacity="1" fill="#60A5FA" stroke="none"/>
<rect x="71" y="559" width="20" height="35" opacity="1" fill="#4680C4" stroke="none"/>
<rect x="71" y="554" width="20" height="5" opacity="1" fill="#60A5FA" stroke="none"/>
<rect x="91" y="582" width="19" height="30" opacity="1" fill="#F87171" stroke="none"/>
<rect x="91" y="543" width="19" height="39" opacity="1" fill="#C45050" stroke="none"/>
<rect x="91" y="532" width="19" height="11" opacity="1" fill="#F87171" stroke="none"/>
<rect x="110" y="585" width="19" height="27" opacity="1" fill="#F59E0B" stroke="none"/>
<rect x="110" y="550" width="19" height="35" opacity="1" fill="#C47D08" stroke="none"/>
<rect x="110" y="540" width="19" height="10" opacity="1" fill="#F59E0B" stroke="none"/>
<rect x="129" y="576" width="20" height="36" opacity="1" fill="#F472B6" stroke="none"/>
<rect x="129" y="538" width="20" height="38" opacity="1" fill="#C05A92" stroke="none"/>
<rect x="129" y="517" width="20" height="21" opacity="1" fill="#F472B6" stroke="none"/>
<rect x="149" y="537" width="19" height="75" opacity="1" fill="#4ADE80" stroke="none"/>
<rect x="149" y="493" width="19" height="44" opacity="1" fill="#3AAF60" stroke="none"/>
<rect x="149" y="465" width="19" height="28" opacity="1" fill="#4ADE80" stroke="none"/>
<text x="120" y="629" dy="0.5ex" text-anchor="middle" font-family="sans-serif" font-size="8.870967741935484" opacity="1" fill="#E6EDF3" font-weight="bold">
reymont
</text>
<text x="120" y="644" dy="0.5ex" text-anchor="middle" font-family="sans-serif" font-size="8.064516129032258" opacity="1" fill="#7D8590">
6.6 MB
</text>
<rect x="200" y="601" width="20" height="11" opacity="1" fill="#60A5FA" stroke="none"/>
<rect x="200" y="574" width="20" height="27" opacity="1" fill="#4680C4" stroke="none"/>
<rect x="200" y="570" width="20" height="4" opacity="1" fill="#60A5FA" stroke="none"/>
<rect x="220" y="594" width="19" height="18" opacity="1" fill="#F87171" stroke="none"/>
<rect x="220" y="563" width="19" height="31" opacity="1" fill="#C45050" stroke="none"/>
<rect x="220" y="556" width="19" height="7" opacity="1" fill="#F87171" stroke="none"/>
<rect x="239" y="594" width="19" height="18" opacity="1" fill="#F59E0B" stroke="none"/>
<rect x="239" y="567" width="19" height="27" opacity="1" fill="#C47D08" stroke="none"/>
<rect x="239" y="560" width="19" height="7" opacity="1" fill="#F59E0B" stroke="none"/>
<rect x="258" y="591" width="20" height="21" opacity="1" fill="#F472B6" stroke="none"/>
<rect x="258" y="560" width="20" height="31" opacity="1" fill="#C05A92" stroke="none"/>
<rect x="258" y="548" width="20" height="12" opacity="1" fill="#F472B6" stroke="none"/>
<rect x="278" y="552" width="19" height="60" opacity="1" fill="#4ADE80" stroke="none"/>
<rect x="278" y="516" width="19" height="36" opacity="1" fill="#3AAF60" stroke="none"/>
<rect x="278" y="497" width="19" height="19" opacity="1" fill="#4ADE80" stroke="none"/>
<text x="249" y="629" dy="0.5ex" text-anchor="middle" font-family="sans-serif" font-size="8.870967741935484" opacity="1" fill="#E6EDF3" font-weight="bold">
samba
</text>
<text x="249" y="644" dy="0.5ex" text-anchor="middle" font-family="sans-serif" font-size="8.064516129032258" opacity="1" fill="#7D8590">
21.6 MB
</text>
<rect x="329" y="599" width="20" height="13" opacity="1" fill="#60A5FA" stroke="none"/>
<rect x="329" y="507" width="20" height="92" opacity="1" fill="#4680C4" stroke="none"/>
<rect x="329" y="500" width="20" height="7" opacity="1" fill="#60A5FA" stroke="none"/>
<rect x="349" y="594" width="19" height="18" opacity="1" fill="#F87171" stroke="none"/>
<rect x="349" y="501" width="19" height="93" opacity="1" fill="#C45050" stroke="none"/>
<rect x="349" y="496" width="19" height="5" opacity="1" fill="#F87171" stroke="none"/>
<rect x="368" y="587" width="20" height="25" opacity="1" fill="#F59E0B" stroke="none"/>
<rect x="368" y="495" width="20" height="92" opacity="1" fill="#C47D08" stroke="none"/>
<rect x="368" y="487" width="20" height="8" opacity="1" fill="#F59E0B" stroke="none"/>
<rect x="388" y="591" width="19" height="21" opacity="1" fill="#F472B6" stroke="none"/>
<rect x="388" y="499" width="19" height="92" opacity="1" fill="#C05A92" stroke="none"/>
<rect x="388" y="491" width="19" height="8" opacity="1" fill="#F472B6" stroke="none"/>
<rect x="407" y="508" width="19" height="104" opacity="1" fill="#4ADE80" stroke="none"/>
<rect x="407" y="420" width="19" height="88" opacity="1" fill="#3AAF60" stroke="none"/>
<rect x="407" y="403" width="19" height="17" opacity="1" fill="#4ADE80" stroke="none"/>
<text x="378" y="629" dy="0.5ex" text-anchor="middle" font-family="sans-serif" font-size="8.870967741935484" opacity="1" fill="#E6EDF3" font-weight="bold">
sao
</text>
<text x="378" y="644" dy="0.5ex" text-anchor="middle" font-family="sans-serif" font-size="8.064516129032258" opacity="1" fill="#7D8590">
7.3 MB
</text>
<rect x="459" y="596" width="19" height="16" opacity="1" fill="#60A5FA" stroke="none"/>
<rect x="459" y="561" width="19" height="35" opacity="1" fill="#4680C4" stroke="none"/>
<rect x="459" y="556" width="19" height="5" opacity="1" fill="#60A5FA" stroke="none"/>
<rect x="478" y="580" width="19" height="32" opacity="1" fill="#F87171" stroke="none"/>
<rect x="478" y="542" width="19" height="38" opacity="1" fill="#C45050" stroke="none"/>
<rect x="478" y="530" width="19" height="12" opacity="1" fill="#F87171" stroke="none"/>
<rect x="497" y="588" width="20" height="24" opacity="1" fill="#F59E0B" stroke="none"/>
<rect x="497" y="553" width="20" height="35" opacity="1" fill="#C47D08" stroke="none"/>
<rect x="497" y="544" width="20" height="9" opacity="1" fill="#F59E0B" stroke="none"/>
<rect x="517" y="575" width="19" height="37" opacity="1" fill="#F472B6" stroke="none"/>
<rect x="517" y="536" width="19" height="39" opacity="1" fill="#C05A92" stroke="none"/>
<rect x="517" y="516" width="19" height="20" opacity="1" fill="#F472B6" stroke="none"/>
<rect x="536" y="535" width="20" height="77" opacity="1" fill="#4ADE80" stroke="none"/>
<rect x="536" y="492" width="20" height="43" opacity="1" fill="#3AAF60" stroke="none"/>
<rect x="536" y="464" width="20" height="28" opacity="1" fill="#4ADE80" stroke="none"/>
<text x="507" y="629" dy="0.5ex" text-anchor="middle" font-family="sans-serif" font-size="8.870967741935484" opacity="1" fill="#E6EDF3" font-weight="bold">
webster
</text>
<text x="507" y="644" dy="0.5ex" text-anchor="middle" font-family="sans-serif" font-size="8.064516129032258" opacity="1" fill="#7D8590">
41.5 MB
</text>
<rect x="588" y="601" width="19" height="11" opacity="1" fill="#60A5FA" stroke="none"/>
<rect x="588" y="516" width="19" height="85" opacity="1" fill="#4680C4" stroke="none"/>
<rect x="588" y="509" width="19" height="7" opacity="1" fill="#60A5FA" stroke="none"/>
<rect x="607" y="587" width="20" height="25" opacity="1" fill="#F87171" stroke="none"/>
<rect x="607" y="492" width="20" height="95" opacity="1" fill="#C45050" stroke="none"/>
<rect x="607" y="486" width="20" height="6" opacity="1" fill="#F87171" stroke="none"/>
<rect x="627" y="593" width="19" height="19" opacity="1" fill="#F59E0B" stroke="none"/>
<rect x="627" y="508" width="19" height="85" opacity="1" fill="#C47D08" stroke="none"/>
<rect x="627" y="500" width="19" height="8" opacity="1" fill="#F59E0B" stroke="none"/>
<rect x="646" y="584" width="19" height="28" opacity="1" fill="#F472B6" stroke="none"/>
<rect x="646" y="489" width="19" height="95" opacity="1" fill="#C05A92" stroke="none"/>
<rect x="646" y="480" width="19" height="9" opacity="1" fill="#F472B6" stroke="none"/>
<rect x="665" y="504" width="20" height="108" opacity="1" fill="#4ADE80" stroke="none"/>
<rect x="665" y="410" width="20" height="94" opacity="1" fill="#3AAF60" stroke="none"/>
<rect x="665" y="394" width="20" height="16" opacity="1" fill="#4ADE80" stroke="none"/>
<text x="636" y="629" dy="0.5ex" text-anchor="middle" font-family="sans-serif" font-size="8.870967741935484" opacity="1" fill="#E6EDF3" font-weight="bold">
x-ray
</text>
<text x="636" y="644" dy="0.5ex" text-anchor="middle" font-family="sans-serif" font-size="8.064516129032258" opacity="1" fill="#7D8590">
8.5 MB
</text>
<rect x="717" y="604" width="19" height="8" opacity="1" fill="#60A5FA" stroke="none"/>
<rect x="717" y="590" width="19" height="14" opacity="1" fill="#4680C4" stroke="none"/>
<rect x="717" y="588" width="19" height="2" opacity="1" fill="#60A5FA" stroke="none"/>
<rect x="736" y="598" width="20" height="14" opacity="1" fill="#F87171" stroke="none"/>
<rect x="736" y="582" width="20" height="16" opacity="1" fill="#C45050" stroke="none"/>
<rect x="736" y="576" width="20" height="6" opacity="1" fill="#F87171" stroke="none"/>
<rect x="756" y="598" width="19" height="14" opacity="1" fill="#F59E0B" stroke="none"/>
<rect x="756" y="585" width="19" height="13" opacity="1" fill="#C47D08" stroke="none"/>
<rect x="756" y="579" width="19" height="6" opacity="1" fill="#F59E0B" stroke="none"/>
<rect x="775" y="596" width="19" height="16" opacity="1" fill="#F472B6" stroke="none"/>
<rect x="775" y="579" width="19" height="17" opacity="1" fill="#C05A92" stroke="none"/>
<rect x="775" y="570" width="19" height="9" opacity="1" fill="#F472B6" stroke="none"/>
<rect x="794" y="567" width="20" height="45" opacity="1" fill="#4ADE80" stroke="none"/>
<rect x="794" y="543" width="20" height="24" opacity="1" fill="#3AAF60" stroke="none"/>
<rect x="794" y="526" width="20" height="17" opacity="1" fill="#4ADE80" stroke="none"/>
<text x="765" y="629" dy="0.5ex" text-anchor="middle" font-family="sans-serif" font-size="8.870967741935484" opacity="1" fill="#E6EDF3" font-weight="bold">
xml
</text>
<text x="765" y="644" dy="0.5ex" text-anchor="middle" font-family="sans-serif" font-size="8.064516129032258" opacity="1" fill="#7D8590">
5.3 MB
</text>
<rect x="190" y="668" width="12" height="12" opacity="1" fill="#60A5FA" stroke="none"/>
<text x="208" y="674" dy="0.5ex" text-anchor="start" font-family="sans-serif" font-size="8.870967741935484" opacity="1" fill="#E6EDF3">
libzstd v1.5.7 (C)
</text>
<rect x="190" y="688" width="12" height="12" opacity="1" fill="#F87171" stroke="none"/>
<text x="208" y="694" dy="0.5ex" text-anchor="start" font-family="sans-serif" font-size="8.870967741935484" opacity="1" fill="#E6EDF3">
zrip (safe SIMD + encapsulated unsafe)
</text>
<rect x="190" y="708" width="12" height="12" opacity="1" fill="#F59E0B" stroke="none"/>
<text x="208" y="714" dy="0.5ex" text-anchor="start" font-family="sans-serif" font-size="8.870967741935484" opacity="1" fill="#E6EDF3">
structured-zstd v0.0.49 (unsafe)
</text>
<rect x="460" y="668" width="12" height="12" opacity="1" fill="#F472B6" stroke="none"/>
<text x="478" y="674" dy="0.5ex" text-anchor="start" font-family="sans-serif" font-size="8.870967741935484" opacity="1" fill="#E6EDF3">
zrip paranoid (safe SIMD, no unsafe)
</text>
<rect x="460" y="688" width="12" height="12" opacity="1" fill="#4ADE80" stroke="none"/>
<text x="478" y="694" dy="0.5ex" text-anchor="start" font-family="sans-serif" font-size="8.870967741935484" opacity="1" fill="#E6EDF3">
ruzstd v0.8.3 (safe)
</text>
<text x="215" y="750" dy="0.5ex" text-anchor="start" font-family="sans-serif" font-size="8.064516129032258" opacity="1" fill="#E6EDF3">
bright = compress + decompress
</text>
<text x="455" y="750" dy="0.5ex" text-anchor="start" font-family="sans-serif" font-size="8.064516129032258" opacity="1" fill="#7D8590">
dim = transfer @100 MB/s
</text>
</svg>
