<svg xmlns="http://www.w3.org/2000/svg" viewBox="0 0 850 720" font-family="system-ui, -apple-system, sans-serif">
  <rect width="850" height="720" fill="#0d1117"/>
  <text x="442.5" y="22" text-anchor="middle" fill="#e6edf3" font-size="14" font-weight="700">zstd Pipeline @100 MB/s: Per-file, Level 1 (lower is better)</text>
  <text x="442.5" y="38" text-anchor="middle" fill="#7d8590" font-size="10">Apple M4</text>
  <line x1="55" y1="237.7" x2="830" y2="237.7" stroke="#21262d" stroke-width="1"/>
  <text x="47" y="237.7" text-anchor="end" dominant-baseline="middle" fill="#7d8590" font-size="10">5</text>
  <line x1="55" y1="185.4" x2="830" y2="185.4" stroke="#21262d" stroke-width="1"/>
  <text x="47" y="185.4" text-anchor="end" dominant-baseline="middle" fill="#7d8590" font-size="10">10</text>
  <line x1="55" y1="133.1" x2="830" y2="133.1" stroke="#21262d" stroke-width="1"/>
  <text x="47" y="133.1" text-anchor="end" dominant-baseline="middle" fill="#7d8590" font-size="10">15</text>
  <line x1="55" y1="80.8" x2="830" y2="80.8" stroke="#21262d" stroke-width="1"/>
  <text x="47" y="80.8" text-anchor="end" dominant-baseline="middle" fill="#7d8590" font-size="10">20</text>
  <line x1="55" y1="290" x2="830" y2="290" stroke="#30363d" stroke-width="1.5"/>
  <text x="22" y="325.0" text-anchor="middle" fill="#e6edf3" font-size="11" font-weight="600" transform="rotate(-90,22,325.0)">seconds / GB</text>
  <rect x="74.4" y="271.9" width="23.2" height="18.1" fill="#60a5fa" rx="1"/>
  <rect x="74.4" y="228.1" width="23.2" height="43.7" fill="#4680c4" rx="1"/>
  <rect x="74.4" y="222.8" width="23.2" height="5.4" fill="#60a5fa" rx="1"/>
  <rect x="97.6" y="253.9" width="23.2" height="36.1" fill="#f87171" rx="1"/>
  <rect x="97.6" y="207.2" width="23.2" height="46.7" fill="#c45050" rx="1"/>
  <rect x="97.6" y="192.6" width="23.2" height="14.6" fill="#f87171" rx="1"/>
  <rect x="120.9" y="261.5" width="23.2" height="28.5" fill="#f59e0b" rx="1"/>
  <rect x="120.9" y="217.8" width="23.2" height="43.7" fill="#c47d08" rx="1"/>
  <rect x="120.9" y="208.1" width="23.2" height="9.7" fill="#f59e0b" rx="1"/>
  <rect x="144.1" y="238.4" width="23.2" height="51.6" fill="#f472b6" rx="1"/>
  <rect x="144.1" y="191.7" width="23.2" height="46.7" fill="#c05a92" rx="1"/>
  <rect x="144.1" y="163.3" width="23.2" height="28.4" fill="#f472b6" rx="1"/>
  <rect x="167.4" y="198.0" width="23.2" height="92.0" fill="#4ade80" rx="1"/>
  <rect x="167.4" y="146.8" width="23.2" height="51.2" fill="#3aaf60" rx="1"/>
  <rect x="167.4" y="111.2" width="23.2" height="35.6" fill="#4ade80" rx="1"/>
  <text x="132.5" y="306" text-anchor="middle" fill="#e6edf3" font-size="10" font-weight="600">dickens</text>
  <text x="132.5" y="318" text-anchor="middle" fill="#7d8590" font-size="9">10.2 MB</text>
  <rect x="229.4" y="276.9" width="23.2" height="13.1" fill="#60a5fa" rx="1"/>
  <rect x="229.4" y="236.1" width="23.2" height="40.8" fill="#4680c4" rx="1"/>
  <rect x="229.4" y="230.4" width="23.2" height="5.7" fill="#60a5fa" rx="1"/>
  <rect x="252.6" y="270.0" width="23.2" height="20.0" fill="#f87171" rx="1"/>
  <rect x="252.6" y="227.0" width="23.2" height="43.0" fill="#c45050" rx="1"/>
  <rect x="252.6" y="217.3" width="23.2" height="9.7" fill="#f87171" rx="1"/>
  <rect x="275.9" y="265.1" width="23.2" height="24.9" fill="#f59e0b" rx="1"/>
  <rect x="275.9" y="223.8" width="23.2" height="41.2" fill="#c47d08" rx="1"/>
  <rect x="275.9" y="214.1" width="23.2" height="9.7" fill="#f59e0b" rx="1"/>
  <rect x="299.1" y="259.3" width="23.2" height="30.7" fill="#f472b6" rx="1"/>
  <rect x="299.1" y="216.3" width="23.2" height="43.0" fill="#c05a92" rx="1"/>
  <rect x="299.1" y="199.5" width="23.2" height="16.8" fill="#f472b6" rx="1"/>
  <rect x="322.4" y="214.3" width="23.2" height="75.7" fill="#4ade80" rx="1"/>
  <rect x="322.4" y="161.1" width="23.2" height="53.3" fill="#3aaf60" rx="1"/>
  <rect x="322.4" y="141.7" width="23.2" height="19.4" fill="#4ade80" rx="1"/>
  <text x="287.5" y="306" text-anchor="middle" fill="#e6edf3" font-size="10" font-weight="600">mozilla</text>
  <text x="287.5" y="318" text-anchor="middle" fill="#7d8590" font-size="9">51.2 MB</text>
  <rect x="384.4" y="275.4" width="23.2" height="14.6" fill="#60a5fa" rx="1"/>
  <rect x="384.4" y="235.4" width="23.2" height="40.0" fill="#4680c4" rx="1"/>
  <rect x="384.4" y="230.3" width="23.2" height="5.2" fill="#60a5fa" rx="1"/>
  <rect x="407.6" y="261.6" width="23.2" height="28.4" fill="#f87171" rx="1"/>
  <rect x="407.6" y="218.8" width="23.2" height="42.8" fill="#c45050" rx="1"/>
  <rect x="407.6" y="206.0" width="23.2" height="12.8" fill="#f87171" rx="1"/>
  <rect x="430.9" y="264.9" width="23.2" height="25.1" fill="#f59e0b" rx="1"/>
  <rect x="430.9" y="224.9" width="23.2" height="40.0" fill="#c47d08" rx="1"/>
  <rect x="430.9" y="216.9" width="23.2" height="8.0" fill="#f59e0b" rx="1"/>
  <rect x="454.1" y="247.7" width="23.2" height="42.3" fill="#f472b6" rx="1"/>
  <rect x="454.1" y="204.9" width="23.2" height="42.8" fill="#c05a92" rx="1"/>
  <rect x="454.1" y="187.9" width="23.2" height="16.9" fill="#f472b6" rx="1"/>
  <rect x="477.4" y="220.1" width="23.2" height="69.9" fill="#4ade80" rx="1"/>
  <rect x="477.4" y="168.3" width="23.2" height="51.8" fill="#3aaf60" rx="1"/>
  <rect x="477.4" y="145.5" width="23.2" height="22.8" fill="#4ade80" rx="1"/>
  <text x="442.5" y="306" text-anchor="middle" fill="#e6edf3" font-size="10" font-weight="600">mr</text>
  <text x="442.5" y="318" text-anchor="middle" fill="#7d8590" font-size="9">10.0 MB</text>
  <rect x="539.4" y="282.5" width="23.2" height="7.5" fill="#60a5fa" rx="1"/>
  <rect x="539.4" y="273.7" width="23.2" height="8.9" fill="#4680c4" rx="1"/>
  <rect x="539.4" y="270.9" width="23.2" height="2.7" fill="#60a5fa" rx="1"/>
  <rect x="562.6" y="279.2" width="23.2" height="10.8" fill="#f87171" rx="1"/>
  <rect x="562.6" y="268.6" width="23.2" height="10.6" fill="#c45050" rx="1"/>
  <rect x="562.6" y="261.7" width="23.2" height="6.9" fill="#f87171" rx="1"/>
  <rect x="585.9" y="276.0" width="23.2" height="14.0" fill="#f59e0b" rx="1"/>
  <rect x="585.9" y="267.1" width="23.2" height="8.8" fill="#c47d08" rx="1"/>
  <rect x="585.9" y="261.6" width="23.2" height="5.5" fill="#f59e0b" rx="1"/>
  <rect x="609.1" y="274.8" width="23.2" height="15.2" fill="#f472b6" rx="1"/>
  <rect x="609.1" y="264.2" width="23.2" height="10.6" fill="#c05a92" rx="1"/>
  <rect x="609.1" y="255.9" width="23.2" height="8.3" fill="#f472b6" rx="1"/>
  <rect x="632.4" y="253.2" width="23.2" height="36.8" fill="#4ade80" rx="1"/>
  <rect x="632.4" y="237.8" width="23.2" height="15.4" fill="#3aaf60" rx="1"/>
  <rect x="632.4" y="226.0" width="23.2" height="11.9" fill="#4ade80" rx="1"/>
  <text x="597.5" y="306" text-anchor="middle" fill="#e6edf3" font-size="10" font-weight="600">nci</text>
  <text x="597.5" y="318" text-anchor="middle" fill="#7d8590" font-size="9">33.6 MB</text>
  <rect x="694.4" y="277.7" width="23.2" height="12.3" fill="#60a5fa" rx="1"/>
  <rect x="694.4" y="239.0" width="23.2" height="38.7" fill="#4680c4" rx="1"/>
  <rect x="694.4" y="234.5" width="23.2" height="4.6" fill="#60a5fa" rx="1"/>
  <rect x="717.6" y="272.9" width="23.2" height="17.1" fill="#f87171" rx="1"/>
  <rect x="717.6" y="231.8" width="23.2" height="41.1" fill="#c45050" rx="1"/>
  <rect x="717.6" y="223.9" width="23.2" height="7.9" fill="#f87171" rx="1"/>
  <rect x="740.9" y="269.0" width="23.2" height="21.0" fill="#f59e0b" rx="1"/>
  <rect x="740.9" y="230.4" width="23.2" height="38.7" fill="#c47d08" rx="1"/>
  <rect x="740.9" y="222.9" width="23.2" height="7.5" fill="#f59e0b" rx="1"/>
  <rect x="764.1" y="264.4" width="23.2" height="25.6" fill="#f472b6" rx="1"/>
  <rect x="764.1" y="223.2" width="23.2" height="41.1" fill="#c05a92" rx="1"/>
  <rect x="764.1" y="211.7" width="23.2" height="11.6" fill="#f472b6" rx="1"/>
  <rect x="787.4" y="231.7" width="23.2" height="58.3" fill="#4ade80" rx="1"/>
  <rect x="787.4" y="186.0" width="23.2" height="45.7" fill="#3aaf60" rx="1"/>
  <rect x="787.4" y="173.2" width="23.2" height="12.9" fill="#4ade80" rx="1"/>
  <text x="752.5" y="306" text-anchor="middle" fill="#e6edf3" font-size="10" font-weight="600">osdb</text>
  <text x="752.5" y="318" text-anchor="middle" fill="#7d8590" font-size="9">10.1 MB</text>
  <line x1="55" y1="547.7" x2="830" y2="547.7" stroke="#21262d" stroke-width="1"/>
  <text x="47" y="547.7" text-anchor="end" dominant-baseline="middle" fill="#7d8590" font-size="10">5</text>
  <line x1="55" y1="495.4" x2="830" y2="495.4" stroke="#21262d" stroke-width="1"/>
  <text x="47" y="495.4" text-anchor="end" dominant-baseline="middle" fill="#7d8590" font-size="10">10</text>
  <line x1="55" y1="443.1" x2="830" y2="443.1" stroke="#21262d" stroke-width="1"/>
  <text x="47" y="443.1" text-anchor="end" dominant-baseline="middle" fill="#7d8590" font-size="10">15</text>
  <line x1="55" y1="390.8" x2="830" y2="390.8" stroke="#21262d" stroke-width="1"/>
  <text x="47" y="390.8" text-anchor="end" dominant-baseline="middle" fill="#7d8590" font-size="10">20</text>
  <line x1="55" y1="600" x2="830" y2="600" stroke="#30363d" stroke-width="1.5"/>
  <rect x="79.2" y="588.0" width="29.1" height="12.0" fill="#60a5fa" rx="1"/>
  <rect x="79.2" y="561.5" width="29.1" height="26.6" fill="#4680c4" rx="1"/>
  <rect x="79.2" y="557.8" width="29.1" height="3.7" fill="#60a5fa" rx="1"/>
  <rect x="108.3" y="582.1" width="29.1" height="17.9" fill="#f87171" rx="1"/>
  <rect x="108.3" y="552.2" width="29.1" height="29.9" fill="#c45050" rx="1"/>
  <rect x="108.3" y="543.8" width="29.1" height="8.5" fill="#f87171" rx="1"/>
  <rect x="137.3" y="581.0" width="29.1" height="19.0" fill="#f59e0b" rx="1"/>
  <rect x="137.3" y="554.4" width="29.1" height="26.7" fill="#c47d08" rx="1"/>
  <rect x="137.3" y="547.5" width="29.1" height="6.8" fill="#f59e0b" rx="1"/>
  <rect x="166.4" y="574.9" width="29.1" height="25.1" fill="#f472b6" rx="1"/>
  <rect x="166.4" y="545.1" width="29.1" height="29.9" fill="#c05a92" rx="1"/>
  <rect x="166.4" y="529.9" width="29.1" height="15.1" fill="#f472b6" rx="1"/>
  <rect x="195.5" y="537.8" width="29.1" height="62.2" fill="#4ade80" rx="1"/>
  <rect x="195.5" y="502.4" width="29.1" height="35.4" fill="#3aaf60" rx="1"/>
  <rect x="195.5" y="482.6" width="29.1" height="19.7" fill="#4ade80" rx="1"/>
  <text x="151.9" y="616" text-anchor="middle" fill="#e6edf3" font-size="10" font-weight="600">samba</text>
  <text x="151.9" y="628" text-anchor="middle" fill="#7d8590" font-size="9">21.6 MB</text>
  <rect x="273.0" y="586.5" width="29.1" height="13.5" fill="#60a5fa" rx="1"/>
  <rect x="273.0" y="496.3" width="29.1" height="90.2" fill="#4680c4" rx="1"/>
  <rect x="273.0" y="489.3" width="29.1" height="7.1" fill="#60a5fa" rx="1"/>
  <rect x="302.0" y="583.3" width="29.1" height="16.7" fill="#f87171" rx="1"/>
  <rect x="302.0" y="492.4" width="29.1" height="90.9" fill="#c45050" rx="1"/>
  <rect x="302.0" y="487.5" width="29.1" height="4.9" fill="#f87171" rx="1"/>
  <rect x="331.1" y="573.2" width="29.1" height="26.8" fill="#f59e0b" rx="1"/>
  <rect x="331.1" y="483.1" width="29.1" height="90.2" fill="#c47d08" rx="1"/>
  <rect x="331.1" y="474.2" width="29.1" height="8.9" fill="#f59e0b" rx="1"/>
  <rect x="360.2" y="574.3" width="29.1" height="25.7" fill="#f472b6" rx="1"/>
  <rect x="360.2" y="483.5" width="29.1" height="90.9" fill="#c05a92" rx="1"/>
  <rect x="360.2" y="475.1" width="29.1" height="8.3" fill="#f472b6" rx="1"/>
  <rect x="389.2" y="496.6" width="29.1" height="103.4" fill="#4ade80" rx="1"/>
  <rect x="389.2" y="409.9" width="29.1" height="86.7" fill="#3aaf60" rx="1"/>
  <rect x="389.2" y="393.1" width="29.1" height="16.9" fill="#4ade80" rx="1"/>
  <text x="345.6" y="616" text-anchor="middle" fill="#e6edf3" font-size="10" font-weight="600">sao</text>
  <text x="345.6" y="628" text-anchor="middle" fill="#7d8590" font-size="9">7.3 MB</text>
  <rect x="466.7" y="583.0" width="29.1" height="17.0" fill="#60a5fa" rx="1"/>
  <rect x="466.7" y="548.5" width="29.1" height="34.5" fill="#4680c4" rx="1"/>
  <rect x="466.7" y="543.7" width="29.1" height="4.8" fill="#60a5fa" rx="1"/>
  <rect x="495.8" y="569.3" width="29.1" height="30.7" fill="#f87171" rx="1"/>
  <rect x="495.8" y="531.2" width="29.1" height="38.1" fill="#c45050" rx="1"/>
  <rect x="495.8" y="519.1" width="29.1" height="12.1" fill="#f87171" rx="1"/>
  <rect x="524.8" y="573.8" width="29.1" height="26.2" fill="#f59e0b" rx="1"/>
  <rect x="524.8" y="539.4" width="29.1" height="34.5" fill="#c47d08" rx="1"/>
  <rect x="524.8" y="530.2" width="29.1" height="9.2" fill="#f59e0b" rx="1"/>
  <rect x="553.9" y="557.0" width="29.1" height="43.0" fill="#f472b6" rx="1"/>
  <rect x="553.9" y="518.9" width="29.1" height="38.1" fill="#c05a92" rx="1"/>
  <rect x="553.9" y="496.6" width="29.1" height="22.3" fill="#f472b6" rx="1"/>
  <rect x="583.0" y="517.8" width="29.1" height="82.2" fill="#4ade80" rx="1"/>
  <rect x="583.0" y="475.8" width="29.1" height="42.0" fill="#3aaf60" rx="1"/>
  <rect x="583.0" y="446.5" width="29.1" height="29.3" fill="#4ade80" rx="1"/>
  <text x="539.4" y="616" text-anchor="middle" fill="#e6edf3" font-size="10" font-weight="600">webster</text>
  <text x="539.4" y="628" text-anchor="middle" fill="#7d8590" font-size="9">41.5 MB</text>
  <rect x="660.5" y="589.0" width="29.1" height="11.0" fill="#60a5fa" rx="1"/>
  <rect x="660.5" y="505.4" width="29.1" height="83.6" fill="#4680c4" rx="1"/>
  <rect x="660.5" y="498.1" width="29.1" height="7.3" fill="#60a5fa" rx="1"/>
  <rect x="689.5" y="577.3" width="29.1" height="22.7" fill="#f87171" rx="1"/>
  <rect x="689.5" y="483.8" width="29.1" height="93.5" fill="#c45050" rx="1"/>
  <rect x="689.5" y="478.8" width="29.1" height="5.0" fill="#f87171" rx="1"/>
  <rect x="718.6" y="579.7" width="29.1" height="20.3" fill="#f59e0b" rx="1"/>
  <rect x="718.6" y="496.1" width="29.1" height="83.6" fill="#c47d08" rx="1"/>
  <rect x="718.6" y="488.9" width="29.1" height="7.2" fill="#f59e0b" rx="1"/>
  <rect x="747.7" y="565.8" width="29.1" height="34.2" fill="#f472b6" rx="1"/>
  <rect x="747.7" y="472.3" width="29.1" height="93.5" fill="#c05a92" rx="1"/>
  <rect x="747.7" y="463.2" width="29.1" height="9.2" fill="#f472b6" rx="1"/>
  <rect x="776.7" y="490.8" width="29.1" height="109.2" fill="#4ade80" rx="1"/>
  <rect x="776.7" y="398.8" width="29.1" height="91.9" fill="#3aaf60" rx="1"/>
  <rect x="776.7" y="381.8" width="29.1" height="17.0" fill="#4ade80" rx="1"/>
  <text x="733.1" y="616" text-anchor="middle" fill="#e6edf3" font-size="10" font-weight="600">x-ray</text>
  <text x="733.1" y="628" text-anchor="middle" fill="#7d8590" font-size="9">8.5 MB</text>
  <rect x="222" y="645" width="12" height="12" fill="#60a5fa" rx="2"/>
  <text x="240" y="655" fill="#e6edf3" font-size="10" font-weight="500">C zstd 1.5.7 (libzstd)</text>
  <rect x="222" y="663" width="12" height="12" fill="#f87171" rx="2"/>
  <text x="240" y="673" fill="#e6edf3" font-size="10" font-weight="500">zrip (encapsulated unsafe, Rust)</text>
  <rect x="222" y="681" width="12" height="12" fill="#f59e0b" rx="2"/>
  <text x="240" y="691" fill="#e6edf3" font-size="10" font-weight="500">structured-zstd 0.0.44 (unsafe Rust)</text>
  <rect x="472" y="645" width="12" height="12" fill="#f472b6" rx="2"/>
  <text x="490" y="655" fill="#e6edf3" font-size="10" font-weight="500">zrip paranoid (safe Rust, no unsafe)</text>
  <rect x="472" y="663" width="12" height="12" fill="#4ade80" rx="2"/>
  <text x="490" y="673" fill="#e6edf3" font-size="10" font-weight="500">ruzstd 0.8.2 (safe Rust)</text>
  <text x="232" y="716" fill="#e6edf3" font-size="9">bright = compress + decompress</text>
  <text x="472" y="716" fill="#7d8590" font-size="9">dim = transfer @100 MB/s</text>
</svg>
