<svg xmlns="http://www.w3.org/2000/svg" viewBox="0 0 850 720" font-family="system-ui, -apple-system, sans-serif">
  <rect width="850" height="720" fill="#0d1117"/>
  <text x="442.5" y="22" text-anchor="middle" fill="#e6edf3" font-size="14" font-weight="700">zstd Pipeline @100 MB/s: Per-file, Level 1 (lower is better)</text>
  <text x="442.5" y="38" text-anchor="middle" fill="#7d8590" font-size="10">Apple M4</text>
  <line x1="55" y1="237.5" x2="830" y2="237.5" stroke="#21262d" stroke-width="1"/>
  <text x="47" y="237.5" text-anchor="end" dominant-baseline="middle" fill="#7d8590" font-size="10">5</text>
  <line x1="55" y1="185.0" x2="830" y2="185.0" stroke="#21262d" stroke-width="1"/>
  <text x="47" y="185.0" text-anchor="end" dominant-baseline="middle" fill="#7d8590" font-size="10">10</text>
  <line x1="55" y1="132.4" x2="830" y2="132.4" stroke="#21262d" stroke-width="1"/>
  <text x="47" y="132.4" text-anchor="end" dominant-baseline="middle" fill="#7d8590" font-size="10">15</text>
  <line x1="55" y1="79.9" x2="830" y2="79.9" stroke="#21262d" stroke-width="1"/>
  <text x="47" y="79.9" text-anchor="end" dominant-baseline="middle" fill="#7d8590" font-size="10">20</text>
  <line x1="55" y1="290" x2="830" y2="290" stroke="#30363d" stroke-width="1.5"/>
  <text x="22" y="325.0" text-anchor="middle" fill="#e6edf3" font-size="11" font-weight="600" transform="rotate(-90,22,325.0)">seconds / GB</text>
  <rect x="74.4" y="271.7" width="29.1" height="18.3" fill="#60a5fa" rx="1"/>
  <rect x="74.4" y="227.8" width="29.1" height="43.9" fill="#4680c4" rx="1"/>
  <rect x="74.4" y="222.6" width="29.1" height="5.2" fill="#60a5fa" rx="1"/>
  <rect x="103.4" y="254.4" width="29.1" height="35.6" fill="#f87171" rx="1"/>
  <rect x="103.4" y="207.5" width="29.1" height="46.9" fill="#c45050" rx="1"/>
  <rect x="103.4" y="194.7" width="29.1" height="12.8" fill="#f87171" rx="1"/>
  <rect x="132.5" y="261.2" width="29.1" height="28.8" fill="#f59e0b" rx="1"/>
  <rect x="132.5" y="217.3" width="29.1" height="43.9" fill="#c47d08" rx="1"/>
  <rect x="132.5" y="207.6" width="29.1" height="9.7" fill="#f59e0b" rx="1"/>
  <rect x="161.6" y="199.2" width="29.1" height="90.8" fill="#4ade80" rx="1"/>
  <rect x="161.6" y="147.8" width="29.1" height="51.4" fill="#3aaf60" rx="1"/>
  <rect x="161.6" y="113.1" width="29.1" height="34.7" fill="#4ade80" rx="1"/>
  <text x="132.5" y="306" text-anchor="middle" fill="#e6edf3" font-size="10" font-weight="600">dickens</text>
  <text x="132.5" y="318" text-anchor="middle" fill="#7d8590" font-size="9">10.2 MB</text>
  <rect x="229.4" y="276.8" width="29.1" height="13.2" fill="#60a5fa" rx="1"/>
  <rect x="229.4" y="235.8" width="29.1" height="41.0" fill="#4680c4" rx="1"/>
  <rect x="229.4" y="230.2" width="29.1" height="5.7" fill="#60a5fa" rx="1"/>
  <rect x="258.4" y="269.9" width="29.1" height="20.1" fill="#f87171" rx="1"/>
  <rect x="258.4" y="226.8" width="29.1" height="43.1" fill="#c45050" rx="1"/>
  <rect x="258.4" y="217.6" width="29.1" height="9.2" fill="#f87171" rx="1"/>
  <rect x="287.5" y="264.6" width="29.1" height="25.4" fill="#f59e0b" rx="1"/>
  <rect x="287.5" y="223.2" width="29.1" height="41.4" fill="#c47d08" rx="1"/>
  <rect x="287.5" y="213.4" width="29.1" height="9.8" fill="#f59e0b" rx="1"/>
  <rect x="316.6" y="213.8" width="29.1" height="76.2" fill="#4ade80" rx="1"/>
  <rect x="316.6" y="160.4" width="29.1" height="53.5" fill="#3aaf60" rx="1"/>
  <rect x="316.6" y="141.1" width="29.1" height="19.3" fill="#4ade80" rx="1"/>
  <text x="287.5" y="306" text-anchor="middle" fill="#e6edf3" font-size="10" font-weight="600">mozilla</text>
  <text x="287.5" y="318" text-anchor="middle" fill="#7d8590" font-size="9">51.2 MB</text>
  <rect x="384.4" y="275.4" width="29.1" height="14.6" fill="#60a5fa" rx="1"/>
  <rect x="384.4" y="235.2" width="29.1" height="40.2" fill="#4680c4" rx="1"/>
  <rect x="384.4" y="230.0" width="29.1" height="5.2" fill="#60a5fa" rx="1"/>
  <rect x="413.4" y="262.1" width="29.1" height="27.9" fill="#f87171" rx="1"/>
  <rect x="413.4" y="219.1" width="29.1" height="43.0" fill="#c45050" rx="1"/>
  <rect x="413.4" y="208.0" width="29.1" height="11.1" fill="#f87171" rx="1"/>
  <rect x="442.5" y="264.3" width="29.1" height="25.7" fill="#f59e0b" rx="1"/>
  <rect x="442.5" y="224.1" width="29.1" height="40.2" fill="#c47d08" rx="1"/>
  <rect x="442.5" y="216.0" width="29.1" height="8.1" fill="#f59e0b" rx="1"/>
  <rect x="471.6" y="219.7" width="29.1" height="70.3" fill="#4ade80" rx="1"/>
  <rect x="471.6" y="167.7" width="29.1" height="52.0" fill="#3aaf60" rx="1"/>
  <rect x="471.6" y="145.1" width="29.1" height="22.6" fill="#4ade80" rx="1"/>
  <text x="442.5" y="306" text-anchor="middle" fill="#e6edf3" font-size="10" font-weight="600">mr</text>
  <text x="442.5" y="318" text-anchor="middle" fill="#7d8590" font-size="9">10.0 MB</text>
  <rect x="539.4" y="282.6" width="29.1" height="7.4" fill="#60a5fa" rx="1"/>
  <rect x="539.4" y="273.7" width="29.1" height="8.9" fill="#4680c4" rx="1"/>
  <rect x="539.4" y="270.9" width="29.1" height="2.7" fill="#60a5fa" rx="1"/>
  <rect x="568.4" y="279.0" width="29.1" height="11.0" fill="#f87171" rx="1"/>
  <rect x="568.4" y="268.4" width="29.1" height="10.6" fill="#c45050" rx="1"/>
  <rect x="568.4" y="262.7" width="29.1" height="5.7" fill="#f87171" rx="1"/>
  <rect x="597.5" y="276.1" width="29.1" height="13.9" fill="#f59e0b" rx="1"/>
  <rect x="597.5" y="267.2" width="29.1" height="8.9" fill="#c47d08" rx="1"/>
  <rect x="597.5" y="261.5" width="29.1" height="5.7" fill="#f59e0b" rx="1"/>
  <rect x="626.6" y="253.4" width="29.1" height="36.6" fill="#4ade80" rx="1"/>
  <rect x="626.6" y="237.9" width="29.1" height="15.5" fill="#3aaf60" rx="1"/>
  <rect x="626.6" y="226.1" width="29.1" height="11.8" fill="#4ade80" rx="1"/>
  <text x="597.5" y="306" text-anchor="middle" fill="#e6edf3" font-size="10" font-weight="600">nci</text>
  <text x="597.5" y="318" text-anchor="middle" fill="#7d8590" font-size="9">33.6 MB</text>
  <rect x="694.4" y="277.6" width="29.1" height="12.4" fill="#60a5fa" rx="1"/>
  <rect x="694.4" y="238.7" width="29.1" height="38.8" fill="#4680c4" rx="1"/>
  <rect x="694.4" y="234.1" width="29.1" height="4.6" fill="#60a5fa" rx="1"/>
  <rect x="723.4" y="272.6" width="29.1" height="17.4" fill="#f87171" rx="1"/>
  <rect x="723.4" y="231.3" width="29.1" height="41.3" fill="#c45050" rx="1"/>
  <rect x="723.4" y="223.9" width="29.1" height="7.4" fill="#f87171" rx="1"/>
  <rect x="752.5" y="268.6" width="29.1" height="21.4" fill="#f59e0b" rx="1"/>
  <rect x="752.5" y="229.8" width="29.1" height="38.8" fill="#c47d08" rx="1"/>
  <rect x="752.5" y="222.2" width="29.1" height="7.5" fill="#f59e0b" rx="1"/>
  <rect x="781.6" y="233.4" width="29.1" height="56.6" fill="#4ade80" rx="1"/>
  <rect x="781.6" y="187.5" width="29.1" height="45.9" fill="#3aaf60" rx="1"/>
  <rect x="781.6" y="174.6" width="29.1" height="12.9" fill="#4ade80" rx="1"/>
  <text x="752.5" y="306" text-anchor="middle" fill="#e6edf3" font-size="10" font-weight="600">osdb</text>
  <text x="752.5" y="318" text-anchor="middle" fill="#7d8590" font-size="9">10.1 MB</text>
  <line x1="55" y1="547.5" x2="830" y2="547.5" stroke="#21262d" stroke-width="1"/>
  <text x="47" y="547.5" text-anchor="end" dominant-baseline="middle" fill="#7d8590" font-size="10">5</text>
  <line x1="55" y1="495.0" x2="830" y2="495.0" stroke="#21262d" stroke-width="1"/>
  <text x="47" y="495.0" text-anchor="end" dominant-baseline="middle" fill="#7d8590" font-size="10">10</text>
  <line x1="55" y1="442.4" x2="830" y2="442.4" stroke="#21262d" stroke-width="1"/>
  <text x="47" y="442.4" text-anchor="end" dominant-baseline="middle" fill="#7d8590" font-size="10">15</text>
  <line x1="55" y1="389.9" x2="830" y2="389.9" stroke="#21262d" stroke-width="1"/>
  <text x="47" y="389.9" text-anchor="end" dominant-baseline="middle" fill="#7d8590" font-size="10">20</text>
  <line x1="55" y1="600" x2="830" y2="600" stroke="#30363d" stroke-width="1.5"/>
  <rect x="79.2" y="587.9" width="36.3" height="12.1" fill="#60a5fa" rx="1"/>
  <rect x="79.2" y="561.3" width="36.3" height="26.7" fill="#4680c4" rx="1"/>
  <rect x="79.2" y="557.6" width="36.3" height="3.7" fill="#60a5fa" rx="1"/>
  <rect x="115.5" y="582.3" width="36.3" height="17.7" fill="#f87171" rx="1"/>
  <rect x="115.5" y="552.3" width="36.3" height="30.0" fill="#c45050" rx="1"/>
  <rect x="115.5" y="544.6" width="36.3" height="7.7" fill="#f87171" rx="1"/>
  <rect x="151.9" y="580.8" width="36.3" height="19.2" fill="#f59e0b" rx="1"/>
  <rect x="151.9" y="554.0" width="36.3" height="26.8" fill="#c47d08" rx="1"/>
  <rect x="151.9" y="547.1" width="36.3" height="6.9" fill="#f59e0b" rx="1"/>
  <rect x="188.2" y="537.3" width="36.3" height="62.7" fill="#4ade80" rx="1"/>
  <rect x="188.2" y="501.8" width="36.3" height="35.5" fill="#3aaf60" rx="1"/>
  <rect x="188.2" y="482.1" width="36.3" height="19.7" fill="#4ade80" rx="1"/>
  <text x="151.9" y="616" text-anchor="middle" fill="#e6edf3" font-size="10" font-weight="600">samba</text>
  <text x="151.9" y="628" text-anchor="middle" fill="#7d8590" font-size="9">21.6 MB</text>
  <rect x="273.0" y="586.3" width="36.3" height="13.7" fill="#60a5fa" rx="1"/>
  <rect x="273.0" y="495.8" width="36.3" height="90.5" fill="#4680c4" rx="1"/>
  <rect x="273.0" y="488.7" width="36.3" height="7.1" fill="#60a5fa" rx="1"/>
  <rect x="309.3" y="583.2" width="36.3" height="16.8" fill="#f87171" rx="1"/>
  <rect x="309.3" y="492.0" width="36.3" height="91.2" fill="#c45050" rx="1"/>
  <rect x="309.3" y="487.5" width="36.3" height="4.5" fill="#f87171" rx="1"/>
  <rect x="345.6" y="573.0" width="36.3" height="27.0" fill="#f59e0b" rx="1"/>
  <rect x="345.6" y="482.5" width="36.3" height="90.5" fill="#c47d08" rx="1"/>
  <rect x="345.6" y="473.5" width="36.3" height="9.0" fill="#f59e0b" rx="1"/>
  <rect x="382.0" y="495.0" width="36.3" height="105.0" fill="#4ade80" rx="1"/>
  <rect x="382.0" y="407.9" width="36.3" height="87.0" fill="#3aaf60" rx="1"/>
  <rect x="382.0" y="391.1" width="36.3" height="16.8" fill="#4ade80" rx="1"/>
  <text x="345.6" y="616" text-anchor="middle" fill="#e6edf3" font-size="10" font-weight="600">sao</text>
  <text x="345.6" y="628" text-anchor="middle" fill="#7d8590" font-size="9">7.3 MB</text>
  <rect x="466.7" y="583.0" width="36.3" height="17.0" fill="#60a5fa" rx="1"/>
  <rect x="466.7" y="548.4" width="36.3" height="34.6" fill="#4680c4" rx="1"/>
  <rect x="466.7" y="543.6" width="36.3" height="4.8" fill="#60a5fa" rx="1"/>
  <rect x="503.0" y="569.2" width="36.3" height="30.8" fill="#f87171" rx="1"/>
  <rect x="503.0" y="531.0" width="36.3" height="38.2" fill="#c45050" rx="1"/>
  <rect x="503.0" y="521.8" width="36.3" height="9.2" fill="#f87171" rx="1"/>
  <rect x="539.4" y="573.6" width="36.3" height="26.4" fill="#f59e0b" rx="1"/>
  <rect x="539.4" y="539.1" width="36.3" height="34.6" fill="#c47d08" rx="1"/>
  <rect x="539.4" y="529.8" width="36.3" height="9.3" fill="#f59e0b" rx="1"/>
  <rect x="575.7" y="517.3" width="36.3" height="82.7" fill="#4ade80" rx="1"/>
  <rect x="575.7" y="475.1" width="36.3" height="42.2" fill="#3aaf60" rx="1"/>
  <rect x="575.7" y="445.7" width="36.3" height="29.3" fill="#4ade80" rx="1"/>
  <text x="539.4" y="616" text-anchor="middle" fill="#e6edf3" font-size="10" font-weight="600">webster</text>
  <text x="539.4" y="628" text-anchor="middle" fill="#7d8590" font-size="9">41.5 MB</text>
  <rect x="660.5" y="589.0" width="36.3" height="11.0" fill="#60a5fa" rx="1"/>
  <rect x="660.5" y="505.1" width="36.3" height="83.9" fill="#4680c4" rx="1"/>
  <rect x="660.5" y="497.7" width="36.3" height="7.3" fill="#60a5fa" rx="1"/>
  <rect x="696.8" y="577.2" width="36.3" height="22.8" fill="#f87171" rx="1"/>
  <rect x="696.8" y="483.3" width="36.3" height="93.8" fill="#c45050" rx="1"/>
  <rect x="696.8" y="476.9" width="36.3" height="6.4" fill="#f87171" rx="1"/>
  <rect x="733.1" y="579.1" width="36.3" height="20.9" fill="#f59e0b" rx="1"/>
  <rect x="733.1" y="495.1" width="36.3" height="84.0" fill="#c47d08" rx="1"/>
  <rect x="733.1" y="487.9" width="36.3" height="7.2" fill="#f59e0b" rx="1"/>
  <rect x="769.5" y="490.9" width="36.3" height="109.1" fill="#4ade80" rx="1"/>
  <rect x="769.5" y="398.6" width="36.3" height="92.3" fill="#3aaf60" rx="1"/>
  <rect x="769.5" y="381.8" width="36.3" height="16.8" fill="#4ade80" rx="1"/>
  <text x="733.1" y="616" text-anchor="middle" fill="#e6edf3" font-size="10" font-weight="600">x-ray</text>
  <text x="733.1" y="628" text-anchor="middle" fill="#7d8590" font-size="9">8.5 MB</text>
  <rect x="242" y="645" width="12" height="12" fill="#60a5fa" rx="2"/>
  <text x="260" y="655" fill="#e6edf3" font-size="10" font-weight="500">C zstd 1.5.7 (libzstd)</text>
  <rect x="242" y="663" width="12" height="12" fill="#f87171" rx="2"/>
  <text x="260" y="673" fill="#e6edf3" font-size="10" font-weight="500">zrip (encapsulated unsafe, Rust)</text>
  <rect x="452" y="645" width="12" height="12" fill="#f59e0b" rx="2"/>
  <text x="470" y="655" fill="#e6edf3" font-size="10" font-weight="500">structured-zstd 0.0.41 (unsafe Rust)</text>
  <rect x="452" y="663" width="12" height="12" fill="#4ade80" rx="2"/>
  <text x="470" y="673" fill="#e6edf3" font-size="10" font-weight="500">ruzstd 0.8.2 (safe Rust)</text>
  <text x="232" y="698" fill="#e6edf3" font-size="9">bright = compress + decompress</text>
  <text x="472" y="698" fill="#7d8590" font-size="9">dim = transfer @100 MB/s</text>
</svg>
