<svg xmlns="http://www.w3.org/2000/svg" viewBox="0 0 850 1015" font-family="system-ui, -apple-system, sans-serif">
  <rect width="850" height="1015" fill="#0d1117"/>
  <text x="425.0" y="18" text-anchor="middle" fill="#e6edf3" font-size="14" font-weight="700">Encode Speed vs Compression Ratio (geomean across corpus)</text>
  <text x="425.0" y="34" text-anchor="middle" fill="#7d8590" font-size="10">Apple M4</text>
  <rect x="70" y="55" width="760" height="250" fill="#161b22" rx="4"/>
  <text x="450.0" y="47" text-anchor="middle" fill="#e6edf3" font-size="12" font-weight="600">High compressibility</text>
  <line x1="70" y1="255.0" x2="830" y2="255.0" stroke="#21262d" stroke-width="1"/>
  <text x="64" y="255.0" text-anchor="end" dominant-baseline="middle" fill="#7d8590" font-size="9">4.00x</text>
  <line x1="70" y1="188.3" x2="830" y2="188.3" stroke="#21262d" stroke-width="1"/>
  <text x="64" y="188.3" text-anchor="end" dominant-baseline="middle" fill="#7d8590" font-size="9">6.00x</text>
  <line x1="70" y1="121.7" x2="830" y2="121.7" stroke="#21262d" stroke-width="1"/>
  <text x="64" y="121.7" text-anchor="end" dominant-baseline="middle" fill="#7d8590" font-size="9">8.00x</text>
  <line x1="139.5" y1="55" x2="139.5" y2="305" stroke="#21262d" stroke-width="1"/>
  <text x="139.5" y="319" text-anchor="middle" fill="#7d8590" font-size="9">50</text>
  <line x1="233.8" y1="55" x2="233.8" y2="305" stroke="#21262d" stroke-width="1"/>
  <text x="233.8" y="319" text-anchor="middle" fill="#7d8590" font-size="9">100</text>
  <line x1="328.1" y1="55" x2="328.1" y2="305" stroke="#21262d" stroke-width="1"/>
  <text x="328.1" y="319" text-anchor="middle" fill="#7d8590" font-size="9">200</text>
  <line x1="452.8" y1="55" x2="452.8" y2="305" stroke="#21262d" stroke-width="1"/>
  <text x="452.8" y="319" text-anchor="middle" fill="#7d8590" font-size="9">500</text>
  <line x1="547.1" y1="55" x2="547.1" y2="305" stroke="#21262d" stroke-width="1"/>
  <text x="547.1" y="319" text-anchor="middle" fill="#7d8590" font-size="9">1000</text>
  <line x1="641.4" y1="55" x2="641.4" y2="305" stroke="#21262d" stroke-width="1"/>
  <text x="641.4" y="319" text-anchor="middle" fill="#7d8590" font-size="9">2000</text>
  <line x1="766.1" y1="55" x2="766.1" y2="305" stroke="#21262d" stroke-width="1"/>
  <text x="766.1" y="319" text-anchor="middle" fill="#7d8590" font-size="9">5000</text>
  <text x="450.0" y="333" text-anchor="middle" fill="#7d8590" font-size="10">encode MB/s (log scale)</text>
  <path d="M605.5,271.6L599.0,263.1L595.2,255.7L589.0,243.6L584.5,227.0L579.1,211.2L573.0,198.5L561.0,161.3L544.3,157.1L533.6,148.8L532.2,147.9" fill="none" stroke="#60a5fa" stroke-width="1.5" stroke-opacity="0.6"/>
  <circle cx="605.5" cy="271.6" r="3.5" fill="#60a5fa" stroke="#0d1117" stroke-width="1"/>
  <text x="611.5" y="271.6" text-anchor="start" fill="#60a5fa" font-size="8" font-weight="600">-7</text>
  <circle cx="599.0" cy="263.1" r="3.5" fill="#60a5fa" stroke="#0d1117" stroke-width="1"/>
  <circle cx="595.2" cy="255.7" r="3.5" fill="#60a5fa" stroke="#0d1117" stroke-width="1"/>
  <circle cx="589.0" cy="243.6" r="3.5" fill="#60a5fa" stroke="#0d1117" stroke-width="1"/>
  <text x="595.0" y="243.6" text-anchor="start" fill="#60a5fa" font-size="8" font-weight="600">-4</text>
  <circle cx="584.5" cy="227.0" r="3.5" fill="#60a5fa" stroke="#0d1117" stroke-width="1"/>
  <circle cx="579.1" cy="211.2" r="3.5" fill="#60a5fa" stroke="#0d1117" stroke-width="1"/>
  <circle cx="573.0" cy="198.5" r="3.5" fill="#60a5fa" stroke="#0d1117" stroke-width="1"/>
  <text x="579.0" y="198.5" text-anchor="start" fill="#60a5fa" font-size="8" font-weight="600">-1</text>
  <circle cx="561.0" cy="161.3" r="3.5" fill="#60a5fa" stroke="#0d1117" stroke-width="1"/>
  <circle cx="544.3" cy="157.1" r="3.5" fill="#60a5fa" stroke="#0d1117" stroke-width="1"/>
  <circle cx="533.6" cy="148.8" r="3.5" fill="#60a5fa" stroke="#0d1117" stroke-width="1"/>
  <text x="539.6" y="148.8" text-anchor="start" fill="#60a5fa" font-size="8" font-weight="600">3</text>
  <circle cx="532.2" cy="147.9" r="3.5" fill="#60a5fa" stroke="#0d1117" stroke-width="1"/>
  <text x="526.2" y="147.9" text-anchor="end" fill="#60a5fa" font-size="8" font-weight="600">4</text>
  <path d="M575.5,281.7L541.4,268.5L537.5,260.1L538.2,254.2L532.1,241.7L528.1,225.7L525.5,210.6L508.4,192.1L509.0,188.6L501.5,173.3L505.9,170.0" fill="none" stroke="#f87171" stroke-width="1.5" stroke-opacity="0.6"/>
  <circle cx="575.5" cy="281.7" r="3.5" fill="#f87171" stroke="#0d1117" stroke-width="1"/>
  <text x="581.5" y="281.7" text-anchor="start" fill="#f87171" font-size="8" font-weight="600">-7</text>
  <circle cx="541.4" cy="268.5" r="3.5" fill="#f87171" stroke="#0d1117" stroke-width="1"/>
  <circle cx="537.5" cy="260.1" r="3.5" fill="#f87171" stroke="#0d1117" stroke-width="1"/>
  <circle cx="538.2" cy="254.2" r="3.5" fill="#f87171" stroke="#0d1117" stroke-width="1"/>
  <text x="544.2" y="254.2" text-anchor="start" fill="#f87171" font-size="8" font-weight="600">-4</text>
  <circle cx="532.1" cy="241.7" r="3.5" fill="#f87171" stroke="#0d1117" stroke-width="1"/>
  <circle cx="528.1" cy="225.7" r="3.5" fill="#f87171" stroke="#0d1117" stroke-width="1"/>
  <circle cx="525.5" cy="210.6" r="3.5" fill="#f87171" stroke="#0d1117" stroke-width="1"/>
  <text x="531.5" y="210.6" text-anchor="start" fill="#f87171" font-size="8" font-weight="600">-1</text>
  <circle cx="508.4" cy="192.1" r="3.5" fill="#f87171" stroke="#0d1117" stroke-width="1"/>
  <circle cx="509.0" cy="188.6" r="3.5" fill="#f87171" stroke="#0d1117" stroke-width="1"/>
  <circle cx="501.5" cy="173.3" r="3.5" fill="#f87171" stroke="#0d1117" stroke-width="1"/>
  <text x="507.5" y="173.3" text-anchor="start" fill="#f87171" font-size="8" font-weight="600">3</text>
  <circle cx="505.9" cy="170.0" r="3.5" fill="#f87171" stroke="#0d1117" stroke-width="1"/>
  <text x="499.9" y="170.0" text-anchor="end" fill="#f87171" font-size="8" font-weight="600">4</text>
  <path d="M504.7,215.2L502.9,208.9L501.6,201.9L499.9,193.8L498.0,181.6L495.1,171.1L492.3,164.9L486.8,161.4L475.3,157.0L441.0,159.7L439.6,158.4" fill="none" stroke="#f59e0b" stroke-width="1.5" stroke-opacity="0.6"/>
  <circle cx="504.7" cy="215.2" r="3.5" fill="#f59e0b" stroke="#0d1117" stroke-width="1"/>
  <text x="510.7" y="215.2" text-anchor="start" fill="#f59e0b" font-size="8" font-weight="600">-7</text>
  <circle cx="502.9" cy="208.9" r="3.5" fill="#f59e0b" stroke="#0d1117" stroke-width="1"/>
  <circle cx="501.6" cy="201.9" r="3.5" fill="#f59e0b" stroke="#0d1117" stroke-width="1"/>
  <circle cx="499.9" cy="193.8" r="3.5" fill="#f59e0b" stroke="#0d1117" stroke-width="1"/>
  <text x="505.9" y="193.8" text-anchor="start" fill="#f59e0b" font-size="8" font-weight="600">-4</text>
  <circle cx="498.0" cy="181.6" r="3.5" fill="#f59e0b" stroke="#0d1117" stroke-width="1"/>
  <circle cx="495.1" cy="171.1" r="3.5" fill="#f59e0b" stroke="#0d1117" stroke-width="1"/>
  <circle cx="492.3" cy="164.9" r="3.5" fill="#f59e0b" stroke="#0d1117" stroke-width="1"/>
  <text x="498.3" y="164.9" text-anchor="start" fill="#f59e0b" font-size="8" font-weight="600">-1</text>
  <circle cx="486.8" cy="161.4" r="3.5" fill="#f59e0b" stroke="#0d1117" stroke-width="1"/>
  <circle cx="475.3" cy="157.0" r="3.5" fill="#f59e0b" stroke="#0d1117" stroke-width="1"/>
  <circle cx="441.0" cy="159.7" r="3.5" fill="#f59e0b" stroke="#0d1117" stroke-width="1"/>
  <text x="447.0" y="159.7" text-anchor="start" fill="#f59e0b" font-size="8" font-weight="600">3</text>
  <circle cx="439.6" cy="158.4" r="3.5" fill="#f59e0b" stroke="#0d1117" stroke-width="1"/>
  <text x="433.6" y="158.4" text-anchor="end" fill="#f59e0b" font-size="8" font-weight="600">4</text>
  <path d="M519.3,281.7L490.0,268.5L487.2,260.1L486.4,254.2L480.8,241.7L479.1,225.7L476.4,210.6L462.2,192.1L460.0,188.6L458.2,173.3L460.1,170.0" fill="none" stroke="#f472b6" stroke-width="1.5" stroke-opacity="0.6"/>
  <circle cx="519.3" cy="281.7" r="3.5" fill="#f472b6" stroke="#0d1117" stroke-width="1"/>
  <text x="525.3" y="281.7" text-anchor="start" fill="#f472b6" font-size="8" font-weight="600">-7</text>
  <circle cx="490.0" cy="268.5" r="3.5" fill="#f472b6" stroke="#0d1117" stroke-width="1"/>
  <circle cx="487.2" cy="260.1" r="3.5" fill="#f472b6" stroke="#0d1117" stroke-width="1"/>
  <circle cx="486.4" cy="254.2" r="3.5" fill="#f472b6" stroke="#0d1117" stroke-width="1"/>
  <text x="492.4" y="254.2" text-anchor="start" fill="#f472b6" font-size="8" font-weight="600">-4</text>
  <circle cx="480.8" cy="241.7" r="3.5" fill="#f472b6" stroke="#0d1117" stroke-width="1"/>
  <circle cx="479.1" cy="225.7" r="3.5" fill="#f472b6" stroke="#0d1117" stroke-width="1"/>
  <circle cx="476.4" cy="210.6" r="3.5" fill="#f472b6" stroke="#0d1117" stroke-width="1"/>
  <text x="482.4" y="210.6" text-anchor="start" fill="#f472b6" font-size="8" font-weight="600">-1</text>
  <circle cx="462.2" cy="192.1" r="3.5" fill="#f472b6" stroke="#0d1117" stroke-width="1"/>
  <circle cx="460.0" cy="188.6" r="3.5" fill="#f472b6" stroke="#0d1117" stroke-width="1"/>
  <circle cx="458.2" cy="173.3" r="3.5" fill="#f472b6" stroke="#0d1117" stroke-width="1"/>
  <text x="464.2" y="173.3" text-anchor="start" fill="#f472b6" font-size="8" font-weight="600">3</text>
  <circle cx="460.1" cy="170.0" r="3.5" fill="#f472b6" stroke="#0d1117" stroke-width="1"/>
  <text x="454.1" y="170.0" text-anchor="end" fill="#f472b6" font-size="8" font-weight="600">4</text>
  <circle cx="340.3" cy="238.9" r="3.5" fill="#4ade80" stroke="#0d1117" stroke-width="1"/>
  <text x="346.3" y="238.9" text-anchor="start" fill="#4ade80" font-size="8" font-weight="600">L1</text>
  <circle cx="588.2" cy="257.8" r="3.5" fill="#c084fc" stroke="#0d1117" stroke-width="1"/>
  <text x="594.2" y="257.8" text-anchor="start" fill="#c084fc" font-size="8" font-weight="600">LZ4</text>
  <rect x="70" y="370" width="760" height="250" fill="#161b22" rx="4"/>
  <text x="450.0" y="362" text-anchor="middle" fill="#e6edf3" font-size="12" font-weight="600">Medium compressibility</text>
  <line x1="70" y1="606.1" x2="830" y2="606.1" stroke="#21262d" stroke-width="1"/>
  <text x="64" y="606.1" text-anchor="end" dominant-baseline="middle" fill="#7d8590" font-size="9">1.50x</text>
  <line x1="70" y1="536.7" x2="830" y2="536.7" stroke="#21262d" stroke-width="1"/>
  <text x="64" y="536.7" text-anchor="end" dominant-baseline="middle" fill="#7d8590" font-size="9">2.00x</text>
  <line x1="70" y1="467.2" x2="830" y2="467.2" stroke="#21262d" stroke-width="1"/>
  <text x="64" y="467.2" text-anchor="end" dominant-baseline="middle" fill="#7d8590" font-size="9">2.50x</text>
  <line x1="70" y1="397.8" x2="830" y2="397.8" stroke="#21262d" stroke-width="1"/>
  <text x="64" y="397.8" text-anchor="end" dominant-baseline="middle" fill="#7d8590" font-size="9">3.00x</text>
  <line x1="139.5" y1="370" x2="139.5" y2="620" stroke="#21262d" stroke-width="1"/>
  <text x="139.5" y="634" text-anchor="middle" fill="#7d8590" font-size="9">50</text>
  <line x1="233.8" y1="370" x2="233.8" y2="620" stroke="#21262d" stroke-width="1"/>
  <text x="233.8" y="634" text-anchor="middle" fill="#7d8590" font-size="9">100</text>
  <line x1="328.1" y1="370" x2="328.1" y2="620" stroke="#21262d" stroke-width="1"/>
  <text x="328.1" y="634" text-anchor="middle" fill="#7d8590" font-size="9">200</text>
  <line x1="452.8" y1="370" x2="452.8" y2="620" stroke="#21262d" stroke-width="1"/>
  <text x="452.8" y="634" text-anchor="middle" fill="#7d8590" font-size="9">500</text>
  <line x1="547.1" y1="370" x2="547.1" y2="620" stroke="#21262d" stroke-width="1"/>
  <text x="547.1" y="634" text-anchor="middle" fill="#7d8590" font-size="9">1000</text>
  <line x1="641.4" y1="370" x2="641.4" y2="620" stroke="#21262d" stroke-width="1"/>
  <text x="641.4" y="634" text-anchor="middle" fill="#7d8590" font-size="9">2000</text>
  <line x1="766.1" y1="370" x2="766.1" y2="620" stroke="#21262d" stroke-width="1"/>
  <text x="766.1" y="634" text-anchor="middle" fill="#7d8590" font-size="9">5000</text>
  <text x="450.0" y="648" text-anchor="middle" fill="#7d8590" font-size="10">encode MB/s (log scale)</text>
  <path d="M553.3,569.6L549.7,565.9L543.8,558.7L537.5,549.1L531.0,538.4L523.8,527.6L515.7,516.6L499.5,445.9L456.2,419.8L427.4,407.1L420.1,401.2" fill="none" stroke="#60a5fa" stroke-width="1.5" stroke-opacity="0.6"/>
  <circle cx="553.3" cy="569.6" r="3.5" fill="#60a5fa" stroke="#0d1117" stroke-width="1"/>
  <text x="559.3" y="569.6" text-anchor="start" fill="#60a5fa" font-size="8" font-weight="600">-7</text>
  <circle cx="549.7" cy="565.9" r="3.5" fill="#60a5fa" stroke="#0d1117" stroke-width="1"/>
  <circle cx="543.8" cy="558.7" r="3.5" fill="#60a5fa" stroke="#0d1117" stroke-width="1"/>
  <circle cx="537.5" cy="549.1" r="3.5" fill="#60a5fa" stroke="#0d1117" stroke-width="1"/>
  <text x="543.5" y="549.1" text-anchor="start" fill="#60a5fa" font-size="8" font-weight="600">-4</text>
  <circle cx="531.0" cy="538.4" r="3.5" fill="#60a5fa" stroke="#0d1117" stroke-width="1"/>
  <circle cx="523.8" cy="527.6" r="3.5" fill="#60a5fa" stroke="#0d1117" stroke-width="1"/>
  <circle cx="515.7" cy="516.6" r="3.5" fill="#60a5fa" stroke="#0d1117" stroke-width="1"/>
  <text x="521.7" y="516.6" text-anchor="start" fill="#60a5fa" font-size="8" font-weight="600">-1</text>
  <circle cx="499.5" cy="445.9" r="3.5" fill="#60a5fa" stroke="#0d1117" stroke-width="1"/>
  <circle cx="456.2" cy="419.8" r="3.5" fill="#60a5fa" stroke="#0d1117" stroke-width="1"/>
  <circle cx="427.4" cy="407.1" r="3.5" fill="#60a5fa" stroke="#0d1117" stroke-width="1"/>
  <text x="433.4" y="407.1" text-anchor="start" fill="#60a5fa" font-size="8" font-weight="600">3</text>
  <circle cx="420.1" cy="401.2" r="3.5" fill="#60a5fa" stroke="#0d1117" stroke-width="1"/>
  <text x="414.1" y="401.2" text-anchor="end" fill="#60a5fa" font-size="8" font-weight="600">4</text>
  <path d="M495.0,570.9L472.1,551.4L469.6,548.0L466.3,540.8L462.2,528.7L459.3,518.4L454.5,506.5L426.0,470.5L414.3,455.0L397.7,447.3L397.8,441.9" fill="none" stroke="#f87171" stroke-width="1.5" stroke-opacity="0.6"/>
  <circle cx="495.0" cy="570.9" r="3.5" fill="#f87171" stroke="#0d1117" stroke-width="1"/>
  <text x="501.0" y="570.9" text-anchor="start" fill="#f87171" font-size="8" font-weight="600">-7</text>
  <circle cx="472.1" cy="551.4" r="3.5" fill="#f87171" stroke="#0d1117" stroke-width="1"/>
  <circle cx="469.6" cy="548.0" r="3.5" fill="#f87171" stroke="#0d1117" stroke-width="1"/>
  <circle cx="466.3" cy="540.8" r="3.5" fill="#f87171" stroke="#0d1117" stroke-width="1"/>
  <text x="472.3" y="540.8" text-anchor="start" fill="#f87171" font-size="8" font-weight="600">-4</text>
  <circle cx="462.2" cy="528.7" r="3.5" fill="#f87171" stroke="#0d1117" stroke-width="1"/>
  <circle cx="459.3" cy="518.4" r="3.5" fill="#f87171" stroke="#0d1117" stroke-width="1"/>
  <circle cx="454.5" cy="506.5" r="3.5" fill="#f87171" stroke="#0d1117" stroke-width="1"/>
  <text x="460.5" y="506.5" text-anchor="start" fill="#f87171" font-size="8" font-weight="600">-1</text>
  <circle cx="426.0" cy="470.5" r="3.5" fill="#f87171" stroke="#0d1117" stroke-width="1"/>
  <circle cx="414.3" cy="455.0" r="3.5" fill="#f87171" stroke="#0d1117" stroke-width="1"/>
  <circle cx="397.7" cy="447.3" r="3.5" fill="#f87171" stroke="#0d1117" stroke-width="1"/>
  <text x="403.7" y="447.3" text-anchor="start" fill="#f87171" font-size="8" font-weight="600">3</text>
  <circle cx="397.8" cy="441.9" r="3.5" fill="#f87171" stroke="#0d1117" stroke-width="1"/>
  <text x="391.8" y="441.9" text-anchor="end" fill="#f87171" font-size="8" font-weight="600">4</text>
  <path d="M451.5,500.4L450.2,496.6L446.8,491.9L444.3,485.2L440.8,477.6L438.2,469.7L432.3,462.0L428.5,446.5L398.2,420.8L348.5,411.4L341.0,404.9" fill="none" stroke="#f59e0b" stroke-width="1.5" stroke-opacity="0.6"/>
  <circle cx="451.5" cy="500.4" r="3.5" fill="#f59e0b" stroke="#0d1117" stroke-width="1"/>
  <text x="457.5" y="500.4" text-anchor="start" fill="#f59e0b" font-size="8" font-weight="600">-7</text>
  <circle cx="450.2" cy="496.6" r="3.5" fill="#f59e0b" stroke="#0d1117" stroke-width="1"/>
  <circle cx="446.8" cy="491.9" r="3.5" fill="#f59e0b" stroke="#0d1117" stroke-width="1"/>
  <circle cx="444.3" cy="485.2" r="3.5" fill="#f59e0b" stroke="#0d1117" stroke-width="1"/>
  <text x="450.3" y="485.2" text-anchor="start" fill="#f59e0b" font-size="8" font-weight="600">-4</text>
  <circle cx="440.8" cy="477.6" r="3.5" fill="#f59e0b" stroke="#0d1117" stroke-width="1"/>
  <circle cx="438.2" cy="469.7" r="3.5" fill="#f59e0b" stroke="#0d1117" stroke-width="1"/>
  <circle cx="432.3" cy="462.0" r="3.5" fill="#f59e0b" stroke="#0d1117" stroke-width="1"/>
  <text x="438.3" y="462.0" text-anchor="start" fill="#f59e0b" font-size="8" font-weight="600">-1</text>
  <circle cx="428.5" cy="446.5" r="3.5" fill="#f59e0b" stroke="#0d1117" stroke-width="1"/>
  <circle cx="398.2" cy="420.8" r="3.5" fill="#f59e0b" stroke="#0d1117" stroke-width="1"/>
  <circle cx="348.5" cy="411.4" r="3.5" fill="#f59e0b" stroke="#0d1117" stroke-width="1"/>
  <text x="354.5" y="411.4" text-anchor="start" fill="#f59e0b" font-size="8" font-weight="600">3</text>
  <circle cx="341.0" cy="404.9" r="3.5" fill="#f59e0b" stroke="#0d1117" stroke-width="1"/>
  <text x="335.0" y="404.9" text-anchor="end" fill="#f59e0b" font-size="8" font-weight="600">4</text>
  <path d="M443.0,570.9L423.0,551.4L419.5,548.0L416.2,540.8L410.6,528.7L406.3,518.4L400.4,506.5L373.5,470.5L365.6,455.0L356.3,447.3L358.1,441.9" fill="none" stroke="#f472b6" stroke-width="1.5" stroke-opacity="0.6"/>
  <circle cx="443.0" cy="570.9" r="3.5" fill="#f472b6" stroke="#0d1117" stroke-width="1"/>
  <text x="449.0" y="570.9" text-anchor="start" fill="#f472b6" font-size="8" font-weight="600">-7</text>
  <circle cx="423.0" cy="551.4" r="3.5" fill="#f472b6" stroke="#0d1117" stroke-width="1"/>
  <circle cx="419.5" cy="548.0" r="3.5" fill="#f472b6" stroke="#0d1117" stroke-width="1"/>
  <circle cx="416.2" cy="540.8" r="3.5" fill="#f472b6" stroke="#0d1117" stroke-width="1"/>
  <text x="422.2" y="540.8" text-anchor="start" fill="#f472b6" font-size="8" font-weight="600">-4</text>
  <circle cx="410.6" cy="528.7" r="3.5" fill="#f472b6" stroke="#0d1117" stroke-width="1"/>
  <circle cx="406.3" cy="518.4" r="3.5" fill="#f472b6" stroke="#0d1117" stroke-width="1"/>
  <circle cx="400.4" cy="506.5" r="3.5" fill="#f472b6" stroke="#0d1117" stroke-width="1"/>
  <text x="406.4" y="506.5" text-anchor="start" fill="#f472b6" font-size="8" font-weight="600">-1</text>
  <circle cx="373.5" cy="470.5" r="3.5" fill="#f472b6" stroke="#0d1117" stroke-width="1"/>
  <circle cx="365.6" cy="455.0" r="3.5" fill="#f472b6" stroke="#0d1117" stroke-width="1"/>
  <circle cx="356.3" cy="447.3" r="3.5" fill="#f472b6" stroke="#0d1117" stroke-width="1"/>
  <text x="362.3" y="447.3" text-anchor="start" fill="#f472b6" font-size="8" font-weight="600">3</text>
  <circle cx="358.1" cy="441.9" r="3.5" fill="#f472b6" stroke="#0d1117" stroke-width="1"/>
  <text x="352.1" y="441.9" text-anchor="end" fill="#f472b6" font-size="8" font-weight="600">4</text>
  <circle cx="279.6" cy="515.4" r="3.5" fill="#4ade80" stroke="#0d1117" stroke-width="1"/>
  <text x="285.6" y="515.4" text-anchor="start" fill="#4ade80" font-size="8" font-weight="600">L1</text>
  <circle cx="548.2" cy="586.8" r="3.5" fill="#c084fc" stroke="#0d1117" stroke-width="1"/>
  <text x="554.2" y="586.8" text-anchor="start" fill="#c084fc" font-size="8" font-weight="600">LZ4</text>
  <rect x="70" y="685" width="760" height="250" fill="#161b22" rx="4"/>
  <text x="450.0" y="677" text-anchor="middle" fill="#e6edf3" font-size="12" font-weight="600">Low compressibility</text>
  <line x1="70" y1="914.2" x2="830" y2="914.2" stroke="#21262d" stroke-width="1"/>
  <text x="64" y="914.2" text-anchor="end" dominant-baseline="middle" fill="#7d8590" font-size="9">1.00x</text>
  <line x1="70" y1="872.5" x2="830" y2="872.5" stroke="#21262d" stroke-width="1"/>
  <text x="64" y="872.5" text-anchor="end" dominant-baseline="middle" fill="#7d8590" font-size="9">1.10x</text>
  <line x1="70" y1="830.8" x2="830" y2="830.8" stroke="#21262d" stroke-width="1"/>
  <text x="64" y="830.8" text-anchor="end" dominant-baseline="middle" fill="#7d8590" font-size="9">1.20x</text>
  <line x1="70" y1="789.2" x2="830" y2="789.2" stroke="#21262d" stroke-width="1"/>
  <text x="64" y="789.2" text-anchor="end" dominant-baseline="middle" fill="#7d8590" font-size="9">1.30x</text>
  <line x1="70" y1="747.5" x2="830" y2="747.5" stroke="#21262d" stroke-width="1"/>
  <text x="64" y="747.5" text-anchor="end" dominant-baseline="middle" fill="#7d8590" font-size="9">1.40x</text>
  <line x1="70" y1="705.8" x2="830" y2="705.8" stroke="#21262d" stroke-width="1"/>
  <text x="64" y="705.8" text-anchor="end" dominant-baseline="middle" fill="#7d8590" font-size="9">1.50x</text>
  <line x1="139.5" y1="685" x2="139.5" y2="935" stroke="#21262d" stroke-width="1"/>
  <text x="139.5" y="949" text-anchor="middle" fill="#7d8590" font-size="9">50</text>
  <line x1="233.8" y1="685" x2="233.8" y2="935" stroke="#21262d" stroke-width="1"/>
  <text x="233.8" y="949" text-anchor="middle" fill="#7d8590" font-size="9">100</text>
  <line x1="328.1" y1="685" x2="328.1" y2="935" stroke="#21262d" stroke-width="1"/>
  <text x="328.1" y="949" text-anchor="middle" fill="#7d8590" font-size="9">200</text>
  <line x1="452.8" y1="685" x2="452.8" y2="935" stroke="#21262d" stroke-width="1"/>
  <text x="452.8" y="949" text-anchor="middle" fill="#7d8590" font-size="9">500</text>
  <line x1="547.1" y1="685" x2="547.1" y2="935" stroke="#21262d" stroke-width="1"/>
  <text x="547.1" y="949" text-anchor="middle" fill="#7d8590" font-size="9">1000</text>
  <line x1="641.4" y1="685" x2="641.4" y2="935" stroke="#21262d" stroke-width="1"/>
  <text x="641.4" y="949" text-anchor="middle" fill="#7d8590" font-size="9">2000</text>
  <line x1="766.1" y1="685" x2="766.1" y2="935" stroke="#21262d" stroke-width="1"/>
  <text x="766.1" y="949" text-anchor="middle" fill="#7d8590" font-size="9">5000</text>
  <text x="450.0" y="963" text-anchor="middle" fill="#7d8590" font-size="10">encode MB/s (log scale)</text>
  <path d="M775.9,904.6L766.0,900.9L766.3,901.8L755.5,899.4L746.7,897.4L731.1,894.7L712.4,892.1L526.5,828.8L473.4,806.3L384.9,767.6L366.4,742.4" fill="none" stroke="#60a5fa" stroke-width="1.5" stroke-opacity="0.6"/>
  <circle cx="775.9" cy="904.6" r="3.5" fill="#60a5fa" stroke="#0d1117" stroke-width="1"/>
  <text x="781.9" y="904.6" text-anchor="start" fill="#60a5fa" font-size="8" font-weight="600">-7</text>
  <circle cx="766.0" cy="900.9" r="3.5" fill="#60a5fa" stroke="#0d1117" stroke-width="1"/>
  <circle cx="766.3" cy="901.8" r="3.5" fill="#60a5fa" stroke="#0d1117" stroke-width="1"/>
  <circle cx="755.5" cy="899.4" r="3.5" fill="#60a5fa" stroke="#0d1117" stroke-width="1"/>
  <text x="761.5" y="899.4" text-anchor="start" fill="#60a5fa" font-size="8" font-weight="600">-4</text>
  <circle cx="746.7" cy="897.4" r="3.5" fill="#60a5fa" stroke="#0d1117" stroke-width="1"/>
  <circle cx="731.1" cy="894.7" r="3.5" fill="#60a5fa" stroke="#0d1117" stroke-width="1"/>
  <circle cx="712.4" cy="892.1" r="3.5" fill="#60a5fa" stroke="#0d1117" stroke-width="1"/>
  <text x="718.4" y="892.1" text-anchor="start" fill="#60a5fa" font-size="8" font-weight="600">-1</text>
  <circle cx="526.5" cy="828.8" r="3.5" fill="#60a5fa" stroke="#0d1117" stroke-width="1"/>
  <circle cx="473.4" cy="806.3" r="3.5" fill="#60a5fa" stroke="#0d1117" stroke-width="1"/>
  <circle cx="384.9" cy="767.6" r="3.5" fill="#60a5fa" stroke="#0d1117" stroke-width="1"/>
  <text x="390.9" y="767.6" text-anchor="start" fill="#60a5fa" font-size="8" font-weight="600">3</text>
  <circle cx="366.4" cy="742.4" r="3.5" fill="#60a5fa" stroke="#0d1117" stroke-width="1"/>
  <text x="372.4" y="742.4" text-anchor="start" fill="#60a5fa" font-size="8" font-weight="600">4</text>
  <path d="M806.7,913.0L796.3,912.7L741.6,908.9L700.7,903.0L682.2,900.3L678.0,901.5L618.0,895.0L462.4,857.8L411.6,829.9L391.1,807.1L383.1,796.4" fill="none" stroke="#f87171" stroke-width="1.5" stroke-opacity="0.6"/>
  <circle cx="806.7" cy="913.0" r="3.5" fill="#f87171" stroke="#0d1117" stroke-width="1"/>
  <text x="812.7" y="913.0" text-anchor="start" fill="#f87171" font-size="8" font-weight="600">-7</text>
  <circle cx="796.3" cy="912.7" r="3.5" fill="#f87171" stroke="#0d1117" stroke-width="1"/>
  <circle cx="741.6" cy="908.9" r="3.5" fill="#f87171" stroke="#0d1117" stroke-width="1"/>
  <circle cx="700.7" cy="903.0" r="3.5" fill="#f87171" stroke="#0d1117" stroke-width="1"/>
  <text x="706.7" y="903.0" text-anchor="start" fill="#f87171" font-size="8" font-weight="600">-4</text>
  <circle cx="682.2" cy="900.3" r="3.5" fill="#f87171" stroke="#0d1117" stroke-width="1"/>
  <circle cx="678.0" cy="901.5" r="3.5" fill="#f87171" stroke="#0d1117" stroke-width="1"/>
  <circle cx="618.0" cy="895.0" r="3.5" fill="#f87171" stroke="#0d1117" stroke-width="1"/>
  <text x="624.0" y="895.0" text-anchor="start" fill="#f87171" font-size="8" font-weight="600">-1</text>
  <circle cx="462.4" cy="857.8" r="3.5" fill="#f87171" stroke="#0d1117" stroke-width="1"/>
  <circle cx="411.6" cy="829.9" r="3.5" fill="#f87171" stroke="#0d1117" stroke-width="1"/>
  <circle cx="391.1" cy="807.1" r="3.5" fill="#f87171" stroke="#0d1117" stroke-width="1"/>
  <text x="397.1" y="807.1" text-anchor="start" fill="#f87171" font-size="8" font-weight="600">3</text>
  <circle cx="383.1" cy="796.4" r="3.5" fill="#f87171" stroke="#0d1117" stroke-width="1"/>
  <text x="389.1" y="796.4" text-anchor="start" fill="#f87171" font-size="8" font-weight="600">4</text>
  <path d="M467.5,842.9L468.1,843.7L464.3,841.7L461.5,840.3L455.8,836.9L453.6,837.2L445.4,834.6L438.2,828.8L398.0,806.3L326.3,781.0L295.6,754.6" fill="none" stroke="#f59e0b" stroke-width="1.5" stroke-opacity="0.6"/>
  <circle cx="467.5" cy="842.9" r="3.5" fill="#f59e0b" stroke="#0d1117" stroke-width="1"/>
  <text x="473.5" y="842.9" text-anchor="start" fill="#f59e0b" font-size="8" font-weight="600">-7</text>
  <circle cx="468.1" cy="843.7" r="3.5" fill="#f59e0b" stroke="#0d1117" stroke-width="1"/>
  <circle cx="464.3" cy="841.7" r="3.5" fill="#f59e0b" stroke="#0d1117" stroke-width="1"/>
  <circle cx="461.5" cy="840.3" r="3.5" fill="#f59e0b" stroke="#0d1117" stroke-width="1"/>
  <text x="455.5" y="840.3" text-anchor="end" fill="#f59e0b" font-size="8" font-weight="600">-4</text>
  <circle cx="455.8" cy="836.9" r="3.5" fill="#f59e0b" stroke="#0d1117" stroke-width="1"/>
  <circle cx="453.6" cy="837.2" r="3.5" fill="#f59e0b" stroke="#0d1117" stroke-width="1"/>
  <circle cx="445.4" cy="834.6" r="3.5" fill="#f59e0b" stroke="#0d1117" stroke-width="1"/>
  <text x="439.4" y="834.6" text-anchor="end" fill="#f59e0b" font-size="8" font-weight="600">-1</text>
  <circle cx="438.2" cy="828.8" r="3.5" fill="#f59e0b" stroke="#0d1117" stroke-width="1"/>
  <circle cx="398.0" cy="806.3" r="3.5" fill="#f59e0b" stroke="#0d1117" stroke-width="1"/>
  <circle cx="326.3" cy="781.0" r="3.5" fill="#f59e0b" stroke="#0d1117" stroke-width="1"/>
  <text x="332.3" y="781.0" text-anchor="start" fill="#f59e0b" font-size="8" font-weight="600">3</text>
  <circle cx="295.6" cy="754.6" r="3.5" fill="#f59e0b" stroke="#0d1117" stroke-width="1"/>
  <text x="301.6" y="754.6" text-anchor="start" fill="#f59e0b" font-size="8" font-weight="600">4</text>
  <path d="M768.1,913.0L765.0,912.7L706.8,908.9L663.2,903.0L643.8,900.3L635.8,901.5L569.9,895.0L405.5,857.8L363.0,829.9L345.4,807.1L339.2,796.4" fill="none" stroke="#f472b6" stroke-width="1.5" stroke-opacity="0.6"/>
  <circle cx="768.1" cy="913.0" r="3.5" fill="#f472b6" stroke="#0d1117" stroke-width="1"/>
  <text x="774.1" y="913.0" text-anchor="start" fill="#f472b6" font-size="8" font-weight="600">-7</text>
  <circle cx="765.0" cy="912.7" r="3.5" fill="#f472b6" stroke="#0d1117" stroke-width="1"/>
  <circle cx="706.8" cy="908.9" r="3.5" fill="#f472b6" stroke="#0d1117" stroke-width="1"/>
  <circle cx="663.2" cy="903.0" r="3.5" fill="#f472b6" stroke="#0d1117" stroke-width="1"/>
  <text x="669.2" y="903.0" text-anchor="start" fill="#f472b6" font-size="8" font-weight="600">-4</text>
  <circle cx="643.8" cy="900.3" r="3.5" fill="#f472b6" stroke="#0d1117" stroke-width="1"/>
  <circle cx="635.8" cy="901.5" r="3.5" fill="#f472b6" stroke="#0d1117" stroke-width="1"/>
  <circle cx="569.9" cy="895.0" r="3.5" fill="#f472b6" stroke="#0d1117" stroke-width="1"/>
  <text x="575.9" y="895.0" text-anchor="start" fill="#f472b6" font-size="8" font-weight="600">-1</text>
  <circle cx="405.5" cy="857.8" r="3.5" fill="#f472b6" stroke="#0d1117" stroke-width="1"/>
  <circle cx="363.0" cy="829.9" r="3.5" fill="#f472b6" stroke="#0d1117" stroke-width="1"/>
  <circle cx="345.4" cy="807.1" r="3.5" fill="#f472b6" stroke="#0d1117" stroke-width="1"/>
  <text x="351.4" y="807.1" text-anchor="start" fill="#f472b6" font-size="8" font-weight="600">3</text>
  <circle cx="339.2" cy="796.4" r="3.5" fill="#f472b6" stroke="#0d1117" stroke-width="1"/>
  <text x="345.2" y="796.4" text-anchor="start" fill="#f472b6" font-size="8" font-weight="600">4</text>
  <circle cx="231.7" cy="842.5" r="3.5" fill="#4ade80" stroke="#0d1117" stroke-width="1"/>
  <text x="237.7" y="842.5" text-anchor="start" fill="#4ade80" font-size="8" font-weight="600">L1</text>
  <circle cx="811.0" cy="911.7" r="3.5" fill="#c084fc" stroke="#0d1117" stroke-width="1"/>
  <text x="817.0" y="911.7" text-anchor="start" fill="#c084fc" font-size="8" font-weight="600">LZ4</text>
  <text x="16" y="495.0" text-anchor="middle" fill="#e6edf3" font-size="11" font-weight="600" transform="rotate(-90,16,495.0)">compression ratio</text>
  <circle cx="95" cy="975" r="4" fill="#60a5fa"/>
  <text x="103" y="978.5" fill="#e6edf3" font-size="10" font-weight="500">C zstd 1.5.7 (libzstd)</text>
  <circle cx="275" cy="975" r="4" fill="#f87171"/>
  <text x="283" y="978.5" fill="#e6edf3" font-size="10" font-weight="500">zrip (encapsulated unsafe, Rust)</text>
  <circle cx="518" cy="975" r="4" fill="#f59e0b"/>
  <text x="526" y="978.5" fill="#e6edf3" font-size="10" font-weight="500">structured-zstd 0.0.44 (unsafe Rust)</text>
  <circle cx="48" cy="993" r="4" fill="#f472b6"/>
  <text x="56" y="996.5" fill="#e6edf3" font-size="10" font-weight="500">zrip paranoid (safe Rust, no unsafe)</text>
  <circle cx="316" cy="993" r="4" fill="#4ade80"/>
  <text x="324" y="996.5" fill="#e6edf3" font-size="10" font-weight="500">ruzstd 0.8.2 (safe Rust)</text>
  <circle cx="509" cy="993" r="4" fill="#c084fc"/>
  <text x="516" y="996.5" fill="#e6edf3" font-size="10" font-weight="500">lz4rip 0.8.5 (encapsulated unsafe, Rust, LZ4)</text>
</svg>
