<svg xmlns="http://www.w3.org/2000/svg" viewBox="0 0 850 1005" font-family="system-ui, -apple-system, sans-serif">
  <rect width="850" height="1005" fill="#0d1117"/>
  <text x="425.0" y="18" text-anchor="middle" fill="#e6edf3" font-size="14" font-weight="700">Encode Speed vs Compression Ratio (geomean across corpus)</text>
  <rect x="70" y="45" width="760" height="250" fill="#161b22" rx="4"/>
  <text x="450.0" y="37" text-anchor="middle" fill="#e6edf3" font-size="12" font-weight="600">High compressibility</text>
  <line x1="70" y1="245.0" x2="830" y2="245.0" stroke="#21262d" stroke-width="1"/>
  <text x="64" y="245.0" text-anchor="end" dominant-baseline="middle" fill="#7d8590" font-size="9">4.00x</text>
  <line x1="70" y1="178.3" x2="830" y2="178.3" stroke="#21262d" stroke-width="1"/>
  <text x="64" y="178.3" text-anchor="end" dominant-baseline="middle" fill="#7d8590" font-size="9">6.00x</text>
  <line x1="70" y1="111.7" x2="830" y2="111.7" stroke="#21262d" stroke-width="1"/>
  <text x="64" y="111.7" text-anchor="end" dominant-baseline="middle" fill="#7d8590" font-size="9">8.00x</text>
  <line x1="139.5" y1="45" x2="139.5" y2="295" stroke="#21262d" stroke-width="1"/>
  <text x="139.5" y="309" text-anchor="middle" fill="#7d8590" font-size="9">50</text>
  <line x1="233.8" y1="45" x2="233.8" y2="295" stroke="#21262d" stroke-width="1"/>
  <text x="233.8" y="309" text-anchor="middle" fill="#7d8590" font-size="9">100</text>
  <line x1="328.1" y1="45" x2="328.1" y2="295" stroke="#21262d" stroke-width="1"/>
  <text x="328.1" y="309" text-anchor="middle" fill="#7d8590" font-size="9">200</text>
  <line x1="452.8" y1="45" x2="452.8" y2="295" stroke="#21262d" stroke-width="1"/>
  <text x="452.8" y="309" text-anchor="middle" fill="#7d8590" font-size="9">500</text>
  <line x1="547.1" y1="45" x2="547.1" y2="295" stroke="#21262d" stroke-width="1"/>
  <text x="547.1" y="309" text-anchor="middle" fill="#7d8590" font-size="9">1000</text>
  <line x1="641.4" y1="45" x2="641.4" y2="295" stroke="#21262d" stroke-width="1"/>
  <text x="641.4" y="309" text-anchor="middle" fill="#7d8590" font-size="9">2000</text>
  <line x1="766.1" y1="45" x2="766.1" y2="295" stroke="#21262d" stroke-width="1"/>
  <text x="766.1" y="309" text-anchor="middle" fill="#7d8590" font-size="9">5000</text>
  <text x="450.0" y="323" text-anchor="middle" fill="#7d8590" font-size="10">encode MB/s (log scale)</text>
  <path d="M603.2,261.6L597.1,253.1L593.4,245.7L586.4,233.6L582.1,217.0L577.2,201.2L571.7,188.5L560.8,151.3L542.9,147.1L532.1,138.8L530.5,137.9" fill="none" stroke="#60a5fa" stroke-width="1.5" stroke-opacity="0.6"/>
  <circle cx="603.2" cy="261.6" r="3.5" fill="#60a5fa" stroke="#0d1117" stroke-width="1"/>
  <text x="609.2" y="261.6" text-anchor="start" fill="#60a5fa" font-size="8" font-weight="600">-7</text>
  <circle cx="597.1" cy="253.1" r="3.5" fill="#60a5fa" stroke="#0d1117" stroke-width="1"/>
  <circle cx="593.4" cy="245.7" r="3.5" fill="#60a5fa" stroke="#0d1117" stroke-width="1"/>
  <circle cx="586.4" cy="233.6" r="3.5" fill="#60a5fa" stroke="#0d1117" stroke-width="1"/>
  <text x="592.4" y="233.6" text-anchor="start" fill="#60a5fa" font-size="8" font-weight="600">-4</text>
  <circle cx="582.1" cy="217.0" r="3.5" fill="#60a5fa" stroke="#0d1117" stroke-width="1"/>
  <circle cx="577.2" cy="201.2" r="3.5" fill="#60a5fa" stroke="#0d1117" stroke-width="1"/>
  <circle cx="571.7" cy="188.5" r="3.5" fill="#60a5fa" stroke="#0d1117" stroke-width="1"/>
  <text x="577.7" y="188.5" text-anchor="start" fill="#60a5fa" font-size="8" font-weight="600">-1</text>
  <circle cx="560.8" cy="151.3" r="3.5" fill="#60a5fa" stroke="#0d1117" stroke-width="1"/>
  <circle cx="542.9" cy="147.1" r="3.5" fill="#60a5fa" stroke="#0d1117" stroke-width="1"/>
  <circle cx="532.1" cy="138.8" r="3.5" fill="#60a5fa" stroke="#0d1117" stroke-width="1"/>
  <text x="538.1" y="138.8" text-anchor="start" fill="#60a5fa" font-size="8" font-weight="600">3</text>
  <circle cx="530.5" cy="137.9" r="3.5" fill="#60a5fa" stroke="#0d1117" stroke-width="1"/>
  <text x="524.5" y="137.9" text-anchor="end" fill="#60a5fa" font-size="8" font-weight="600">4</text>
  <path d="M577.8,276.1L541.0,258.5L537.9,250.1L539.2,244.2L532.8,231.7L528.8,215.7L525.8,200.6L509.1,182.1L508.8,178.6L501.8,167.4L501.8,166.6" fill="none" stroke="#f87171" stroke-width="1.5" stroke-opacity="0.6"/>
  <circle cx="577.8" cy="276.1" r="3.5" fill="#f87171" stroke="#0d1117" stroke-width="1"/>
  <text x="583.8" y="276.1" text-anchor="start" fill="#f87171" font-size="8" font-weight="600">-7</text>
  <circle cx="541.0" cy="258.5" r="3.5" fill="#f87171" stroke="#0d1117" stroke-width="1"/>
  <circle cx="537.9" cy="250.1" r="3.5" fill="#f87171" stroke="#0d1117" stroke-width="1"/>
  <circle cx="539.2" cy="244.2" r="3.5" fill="#f87171" stroke="#0d1117" stroke-width="1"/>
  <text x="545.2" y="244.2" text-anchor="start" fill="#f87171" font-size="8" font-weight="600">-4</text>
  <circle cx="532.8" cy="231.7" r="3.5" fill="#f87171" stroke="#0d1117" stroke-width="1"/>
  <circle cx="528.8" cy="215.7" r="3.5" fill="#f87171" stroke="#0d1117" stroke-width="1"/>
  <circle cx="525.8" cy="200.6" r="3.5" fill="#f87171" stroke="#0d1117" stroke-width="1"/>
  <text x="531.8" y="200.6" text-anchor="start" fill="#f87171" font-size="8" font-weight="600">-1</text>
  <circle cx="509.1" cy="182.1" r="3.5" fill="#f87171" stroke="#0d1117" stroke-width="1"/>
  <circle cx="508.8" cy="178.6" r="3.5" fill="#f87171" stroke="#0d1117" stroke-width="1"/>
  <circle cx="501.8" cy="167.4" r="3.5" fill="#f87171" stroke="#0d1117" stroke-width="1"/>
  <text x="507.8" y="167.4" text-anchor="start" fill="#f87171" font-size="8" font-weight="600">3</text>
  <circle cx="501.8" cy="166.6" r="3.5" fill="#f87171" stroke="#0d1117" stroke-width="1"/>
  <text x="495.8" y="166.6" text-anchor="end" fill="#f87171" font-size="8" font-weight="600">4</text>
  <path d="M503.6,205.2L502.2,198.9L500.5,191.9L499.3,183.8L497.3,171.6L494.8,161.1L491.2,154.9L486.6,151.4L471.1,147.0L437.2,149.8L436.3,148.5" fill="none" stroke="#f59e0b" stroke-width="1.5" stroke-opacity="0.6"/>
  <circle cx="503.6" cy="205.2" r="3.5" fill="#f59e0b" stroke="#0d1117" stroke-width="1"/>
  <text x="509.6" y="205.2" text-anchor="start" fill="#f59e0b" font-size="8" font-weight="600">-7</text>
  <circle cx="502.2" cy="198.9" r="3.5" fill="#f59e0b" stroke="#0d1117" stroke-width="1"/>
  <circle cx="500.5" cy="191.9" r="3.5" fill="#f59e0b" stroke="#0d1117" stroke-width="1"/>
  <circle cx="499.3" cy="183.8" r="3.5" fill="#f59e0b" stroke="#0d1117" stroke-width="1"/>
  <text x="505.3" y="183.8" text-anchor="start" fill="#f59e0b" font-size="8" font-weight="600">-4</text>
  <circle cx="497.3" cy="171.6" r="3.5" fill="#f59e0b" stroke="#0d1117" stroke-width="1"/>
  <circle cx="494.8" cy="161.1" r="3.5" fill="#f59e0b" stroke="#0d1117" stroke-width="1"/>
  <circle cx="491.2" cy="154.9" r="3.5" fill="#f59e0b" stroke="#0d1117" stroke-width="1"/>
  <text x="497.2" y="154.9" text-anchor="start" fill="#f59e0b" font-size="8" font-weight="600">-1</text>
  <circle cx="486.6" cy="151.4" r="3.5" fill="#f59e0b" stroke="#0d1117" stroke-width="1"/>
  <circle cx="471.1" cy="147.0" r="3.5" fill="#f59e0b" stroke="#0d1117" stroke-width="1"/>
  <circle cx="437.2" cy="149.8" r="3.5" fill="#f59e0b" stroke="#0d1117" stroke-width="1"/>
  <text x="443.2" y="149.8" text-anchor="start" fill="#f59e0b" font-size="8" font-weight="600">3</text>
  <circle cx="436.3" cy="148.5" r="3.5" fill="#f59e0b" stroke="#0d1117" stroke-width="1"/>
  <text x="430.3" y="148.5" text-anchor="end" fill="#f59e0b" font-size="8" font-weight="600">4</text>
  <circle cx="340.7" cy="228.9" r="3.5" fill="#4ade80" stroke="#0d1117" stroke-width="1"/>
  <text x="346.7" y="228.9" text-anchor="start" fill="#4ade80" font-size="8" font-weight="600">L1</text>
  <circle cx="582.9" cy="241.8" r="3.5" fill="#c084fc" stroke="#0d1117" stroke-width="1"/>
  <text x="588.9" y="241.8" text-anchor="start" fill="#c084fc" font-size="8" font-weight="600">LZ4</text>
  <rect x="70" y="360" width="760" height="250" fill="#161b22" rx="4"/>
  <text x="450.0" y="352" text-anchor="middle" fill="#e6edf3" font-size="12" font-weight="600">Medium compressibility</text>
  <line x1="70" y1="596.1" x2="830" y2="596.1" stroke="#21262d" stroke-width="1"/>
  <text x="64" y="596.1" text-anchor="end" dominant-baseline="middle" fill="#7d8590" font-size="9">1.50x</text>
  <line x1="70" y1="526.7" x2="830" y2="526.7" stroke="#21262d" stroke-width="1"/>
  <text x="64" y="526.7" text-anchor="end" dominant-baseline="middle" fill="#7d8590" font-size="9">2.00x</text>
  <line x1="70" y1="457.2" x2="830" y2="457.2" stroke="#21262d" stroke-width="1"/>
  <text x="64" y="457.2" text-anchor="end" dominant-baseline="middle" fill="#7d8590" font-size="9">2.50x</text>
  <line x1="70" y1="387.8" x2="830" y2="387.8" stroke="#21262d" stroke-width="1"/>
  <text x="64" y="387.8" text-anchor="end" dominant-baseline="middle" fill="#7d8590" font-size="9">3.00x</text>
  <line x1="139.5" y1="360" x2="139.5" y2="610" stroke="#21262d" stroke-width="1"/>
  <text x="139.5" y="624" text-anchor="middle" fill="#7d8590" font-size="9">50</text>
  <line x1="233.8" y1="360" x2="233.8" y2="610" stroke="#21262d" stroke-width="1"/>
  <text x="233.8" y="624" text-anchor="middle" fill="#7d8590" font-size="9">100</text>
  <line x1="328.1" y1="360" x2="328.1" y2="610" stroke="#21262d" stroke-width="1"/>
  <text x="328.1" y="624" text-anchor="middle" fill="#7d8590" font-size="9">200</text>
  <line x1="452.8" y1="360" x2="452.8" y2="610" stroke="#21262d" stroke-width="1"/>
  <text x="452.8" y="624" text-anchor="middle" fill="#7d8590" font-size="9">500</text>
  <line x1="547.1" y1="360" x2="547.1" y2="610" stroke="#21262d" stroke-width="1"/>
  <text x="547.1" y="624" text-anchor="middle" fill="#7d8590" font-size="9">1000</text>
  <line x1="641.4" y1="360" x2="641.4" y2="610" stroke="#21262d" stroke-width="1"/>
  <text x="641.4" y="624" text-anchor="middle" fill="#7d8590" font-size="9">2000</text>
  <line x1="766.1" y1="360" x2="766.1" y2="610" stroke="#21262d" stroke-width="1"/>
  <text x="766.1" y="624" text-anchor="middle" fill="#7d8590" font-size="9">5000</text>
  <text x="450.0" y="638" text-anchor="middle" fill="#7d8590" font-size="10">encode MB/s (log scale)</text>
  <path d="M552.2,559.6L548.2,555.9L541.9,548.7L536.4,539.1L529.4,528.4L522.8,517.6L514.3,506.6L498.0,435.9L454.6,409.8L421.5,397.1L417.9,391.2" fill="none" stroke="#60a5fa" stroke-width="1.5" stroke-opacity="0.6"/>
  <circle cx="552.2" cy="559.6" r="3.5" fill="#60a5fa" stroke="#0d1117" stroke-width="1"/>
  <text x="558.2" y="559.6" text-anchor="start" fill="#60a5fa" font-size="8" font-weight="600">-7</text>
  <circle cx="548.2" cy="555.9" r="3.5" fill="#60a5fa" stroke="#0d1117" stroke-width="1"/>
  <circle cx="541.9" cy="548.7" r="3.5" fill="#60a5fa" stroke="#0d1117" stroke-width="1"/>
  <circle cx="536.4" cy="539.1" r="3.5" fill="#60a5fa" stroke="#0d1117" stroke-width="1"/>
  <text x="542.4" y="539.1" text-anchor="start" fill="#60a5fa" font-size="8" font-weight="600">-4</text>
  <circle cx="529.4" cy="528.4" r="3.5" fill="#60a5fa" stroke="#0d1117" stroke-width="1"/>
  <circle cx="522.8" cy="517.6" r="3.5" fill="#60a5fa" stroke="#0d1117" stroke-width="1"/>
  <circle cx="514.3" cy="506.6" r="3.5" fill="#60a5fa" stroke="#0d1117" stroke-width="1"/>
  <text x="520.3" y="506.6" text-anchor="start" fill="#60a5fa" font-size="8" font-weight="600">-1</text>
  <circle cx="498.0" cy="435.9" r="3.5" fill="#60a5fa" stroke="#0d1117" stroke-width="1"/>
  <circle cx="454.6" cy="409.8" r="3.5" fill="#60a5fa" stroke="#0d1117" stroke-width="1"/>
  <circle cx="421.5" cy="397.1" r="3.5" fill="#60a5fa" stroke="#0d1117" stroke-width="1"/>
  <text x="427.5" y="397.1" text-anchor="start" fill="#60a5fa" font-size="8" font-weight="600">3</text>
  <circle cx="417.9" cy="391.2" r="3.5" fill="#60a5fa" stroke="#0d1117" stroke-width="1"/>
  <text x="411.9" y="391.2" text-anchor="end" fill="#60a5fa" font-size="8" font-weight="600">4</text>
  <path d="M499.3,564.9L473.8,541.4L470.2,538.0L468.0,530.8L463.2,518.7L460.7,508.4L456.4,496.5L427.1,460.5L415.8,445.0L410.7,443.7L402.6,438.1" fill="none" stroke="#f87171" stroke-width="1.5" stroke-opacity="0.6"/>
  <circle cx="499.3" cy="564.9" r="3.5" fill="#f87171" stroke="#0d1117" stroke-width="1"/>
  <text x="505.3" y="564.9" text-anchor="start" fill="#f87171" font-size="8" font-weight="600">-7</text>
  <circle cx="473.8" cy="541.4" r="3.5" fill="#f87171" stroke="#0d1117" stroke-width="1"/>
  <circle cx="470.2" cy="538.0" r="3.5" fill="#f87171" stroke="#0d1117" stroke-width="1"/>
  <circle cx="468.0" cy="530.8" r="3.5" fill="#f87171" stroke="#0d1117" stroke-width="1"/>
  <text x="474.0" y="530.8" text-anchor="start" fill="#f87171" font-size="8" font-weight="600">-4</text>
  <circle cx="463.2" cy="518.7" r="3.5" fill="#f87171" stroke="#0d1117" stroke-width="1"/>
  <circle cx="460.7" cy="508.4" r="3.5" fill="#f87171" stroke="#0d1117" stroke-width="1"/>
  <circle cx="456.4" cy="496.5" r="3.5" fill="#f87171" stroke="#0d1117" stroke-width="1"/>
  <text x="462.4" y="496.5" text-anchor="start" fill="#f87171" font-size="8" font-weight="600">-1</text>
  <circle cx="427.1" cy="460.5" r="3.5" fill="#f87171" stroke="#0d1117" stroke-width="1"/>
  <circle cx="415.8" cy="445.0" r="3.5" fill="#f87171" stroke="#0d1117" stroke-width="1"/>
  <circle cx="410.7" cy="443.7" r="3.5" fill="#f87171" stroke="#0d1117" stroke-width="1"/>
  <text x="416.7" y="443.7" text-anchor="start" fill="#f87171" font-size="8" font-weight="600">3</text>
  <circle cx="402.6" cy="438.1" r="3.5" fill="#f87171" stroke="#0d1117" stroke-width="1"/>
  <text x="396.6" y="438.1" text-anchor="end" fill="#f87171" font-size="8" font-weight="600">4</text>
  <path d="M450.0,490.4L448.6,486.6L444.4,481.9L442.7,475.2L438.9,467.6L435.5,459.7L429.6,452.0L427.1,436.5L395.3,410.8L347.2,400.6L338.5,394.1" fill="none" stroke="#f59e0b" stroke-width="1.5" stroke-opacity="0.6"/>
  <circle cx="450.0" cy="490.4" r="3.5" fill="#f59e0b" stroke="#0d1117" stroke-width="1"/>
  <text x="456.0" y="490.4" text-anchor="start" fill="#f59e0b" font-size="8" font-weight="600">-7</text>
  <circle cx="448.6" cy="486.6" r="3.5" fill="#f59e0b" stroke="#0d1117" stroke-width="1"/>
  <circle cx="444.4" cy="481.9" r="3.5" fill="#f59e0b" stroke="#0d1117" stroke-width="1"/>
  <circle cx="442.7" cy="475.2" r="3.5" fill="#f59e0b" stroke="#0d1117" stroke-width="1"/>
  <text x="448.7" y="475.2" text-anchor="start" fill="#f59e0b" font-size="8" font-weight="600">-4</text>
  <circle cx="438.9" cy="467.6" r="3.5" fill="#f59e0b" stroke="#0d1117" stroke-width="1"/>
  <circle cx="435.5" cy="459.7" r="3.5" fill="#f59e0b" stroke="#0d1117" stroke-width="1"/>
  <circle cx="429.6" cy="452.0" r="3.5" fill="#f59e0b" stroke="#0d1117" stroke-width="1"/>
  <text x="435.6" y="452.0" text-anchor="start" fill="#f59e0b" font-size="8" font-weight="600">-1</text>
  <circle cx="427.1" cy="436.5" r="3.5" fill="#f59e0b" stroke="#0d1117" stroke-width="1"/>
  <circle cx="395.3" cy="410.8" r="3.5" fill="#f59e0b" stroke="#0d1117" stroke-width="1"/>
  <circle cx="347.2" cy="400.6" r="3.5" fill="#f59e0b" stroke="#0d1117" stroke-width="1"/>
  <text x="353.2" y="400.6" text-anchor="start" fill="#f59e0b" font-size="8" font-weight="600">3</text>
  <circle cx="338.5" cy="394.1" r="3.5" fill="#f59e0b" stroke="#0d1117" stroke-width="1"/>
  <text x="332.5" y="394.1" text-anchor="end" fill="#f59e0b" font-size="8" font-weight="600">4</text>
  <circle cx="279.4" cy="505.4" r="3.5" fill="#4ade80" stroke="#0d1117" stroke-width="1"/>
  <text x="285.4" y="505.4" text-anchor="start" fill="#4ade80" font-size="8" font-weight="600">L1</text>
  <circle cx="536.7" cy="554.2" r="3.5" fill="#c084fc" stroke="#0d1117" stroke-width="1"/>
  <text x="542.7" y="554.2" text-anchor="start" fill="#c084fc" font-size="8" font-weight="600">LZ4</text>
  <rect x="70" y="675" width="760" height="250" fill="#161b22" rx="4"/>
  <text x="450.0" y="667" text-anchor="middle" fill="#e6edf3" font-size="12" font-weight="600">Low compressibility</text>
  <line x1="70" y1="904.2" x2="830" y2="904.2" stroke="#21262d" stroke-width="1"/>
  <text x="64" y="904.2" text-anchor="end" dominant-baseline="middle" fill="#7d8590" font-size="9">1.00x</text>
  <line x1="70" y1="862.5" x2="830" y2="862.5" stroke="#21262d" stroke-width="1"/>
  <text x="64" y="862.5" text-anchor="end" dominant-baseline="middle" fill="#7d8590" font-size="9">1.10x</text>
  <line x1="70" y1="820.8" x2="830" y2="820.8" stroke="#21262d" stroke-width="1"/>
  <text x="64" y="820.8" text-anchor="end" dominant-baseline="middle" fill="#7d8590" font-size="9">1.20x</text>
  <line x1="70" y1="779.2" x2="830" y2="779.2" stroke="#21262d" stroke-width="1"/>
  <text x="64" y="779.2" text-anchor="end" dominant-baseline="middle" fill="#7d8590" font-size="9">1.30x</text>
  <line x1="70" y1="737.5" x2="830" y2="737.5" stroke="#21262d" stroke-width="1"/>
  <text x="64" y="737.5" text-anchor="end" dominant-baseline="middle" fill="#7d8590" font-size="9">1.40x</text>
  <line x1="70" y1="695.8" x2="830" y2="695.8" stroke="#21262d" stroke-width="1"/>
  <text x="64" y="695.8" text-anchor="end" dominant-baseline="middle" fill="#7d8590" font-size="9">1.50x</text>
  <line x1="139.5" y1="675" x2="139.5" y2="925" stroke="#21262d" stroke-width="1"/>
  <text x="139.5" y="939" text-anchor="middle" fill="#7d8590" font-size="9">50</text>
  <line x1="233.8" y1="675" x2="233.8" y2="925" stroke="#21262d" stroke-width="1"/>
  <text x="233.8" y="939" text-anchor="middle" fill="#7d8590" font-size="9">100</text>
  <line x1="328.1" y1="675" x2="328.1" y2="925" stroke="#21262d" stroke-width="1"/>
  <text x="328.1" y="939" text-anchor="middle" fill="#7d8590" font-size="9">200</text>
  <line x1="452.8" y1="675" x2="452.8" y2="925" stroke="#21262d" stroke-width="1"/>
  <text x="452.8" y="939" text-anchor="middle" fill="#7d8590" font-size="9">500</text>
  <line x1="547.1" y1="675" x2="547.1" y2="925" stroke="#21262d" stroke-width="1"/>
  <text x="547.1" y="939" text-anchor="middle" fill="#7d8590" font-size="9">1000</text>
  <line x1="641.4" y1="675" x2="641.4" y2="925" stroke="#21262d" stroke-width="1"/>
  <text x="641.4" y="939" text-anchor="middle" fill="#7d8590" font-size="9">2000</text>
  <line x1="766.1" y1="675" x2="766.1" y2="925" stroke="#21262d" stroke-width="1"/>
  <text x="766.1" y="939" text-anchor="middle" fill="#7d8590" font-size="9">5000</text>
  <text x="450.0" y="953" text-anchor="middle" fill="#7d8590" font-size="10">encode MB/s (log scale)</text>
  <path d="M778.0,894.6L763.1,890.9L759.7,891.8L753.1,889.4L743.6,887.4L731.2,884.7L709.7,882.1L525.4,818.8L473.2,796.3L383.3,757.6L365.2,732.4" fill="none" stroke="#60a5fa" stroke-width="1.5" stroke-opacity="0.6"/>
  <circle cx="778.0" cy="894.6" r="3.5" fill="#60a5fa" stroke="#0d1117" stroke-width="1"/>
  <text x="784.0" y="894.6" text-anchor="start" fill="#60a5fa" font-size="8" font-weight="600">-7</text>
  <circle cx="763.1" cy="890.9" r="3.5" fill="#60a5fa" stroke="#0d1117" stroke-width="1"/>
  <circle cx="759.7" cy="891.8" r="3.5" fill="#60a5fa" stroke="#0d1117" stroke-width="1"/>
  <circle cx="753.1" cy="889.4" r="3.5" fill="#60a5fa" stroke="#0d1117" stroke-width="1"/>
  <text x="759.1" y="889.4" text-anchor="start" fill="#60a5fa" font-size="8" font-weight="600">-4</text>
  <circle cx="743.6" cy="887.4" r="3.5" fill="#60a5fa" stroke="#0d1117" stroke-width="1"/>
  <circle cx="731.2" cy="884.7" r="3.5" fill="#60a5fa" stroke="#0d1117" stroke-width="1"/>
  <circle cx="709.7" cy="882.1" r="3.5" fill="#60a5fa" stroke="#0d1117" stroke-width="1"/>
  <text x="715.7" y="882.1" text-anchor="start" fill="#60a5fa" font-size="8" font-weight="600">-1</text>
  <circle cx="525.4" cy="818.8" r="3.5" fill="#60a5fa" stroke="#0d1117" stroke-width="1"/>
  <circle cx="473.2" cy="796.3" r="3.5" fill="#60a5fa" stroke="#0d1117" stroke-width="1"/>
  <circle cx="383.3" cy="757.6" r="3.5" fill="#60a5fa" stroke="#0d1117" stroke-width="1"/>
  <text x="389.3" y="757.6" text-anchor="start" fill="#60a5fa" font-size="8" font-weight="600">3</text>
  <circle cx="365.2" cy="732.4" r="3.5" fill="#60a5fa" stroke="#0d1117" stroke-width="1"/>
  <text x="371.2" y="732.4" text-anchor="start" fill="#60a5fa" font-size="8" font-weight="600">4</text>
  <path d="M746.2,902.0L756.1,902.7L710.6,898.9L666.0,893.0L652.7,890.3L653.5,891.5L627.4,885.0L467.2,847.8L415.3,819.9L416.1,823.2L404.6,806.4" fill="none" stroke="#f87171" stroke-width="1.5" stroke-opacity="0.6"/>
  <circle cx="746.2" cy="902.0" r="3.5" fill="#f87171" stroke="#0d1117" stroke-width="1"/>
  <text x="752.2" y="902.0" text-anchor="start" fill="#f87171" font-size="8" font-weight="600">-7</text>
  <circle cx="756.1" cy="902.7" r="3.5" fill="#f87171" stroke="#0d1117" stroke-width="1"/>
  <circle cx="710.6" cy="898.9" r="3.5" fill="#f87171" stroke="#0d1117" stroke-width="1"/>
  <circle cx="666.0" cy="893.0" r="3.5" fill="#f87171" stroke="#0d1117" stroke-width="1"/>
  <text x="672.0" y="893.0" text-anchor="start" fill="#f87171" font-size="8" font-weight="600">-4</text>
  <circle cx="652.7" cy="890.3" r="3.5" fill="#f87171" stroke="#0d1117" stroke-width="1"/>
  <circle cx="653.5" cy="891.5" r="3.5" fill="#f87171" stroke="#0d1117" stroke-width="1"/>
  <circle cx="627.4" cy="885.0" r="3.5" fill="#f87171" stroke="#0d1117" stroke-width="1"/>
  <text x="633.4" y="885.0" text-anchor="start" fill="#f87171" font-size="8" font-weight="600">-1</text>
  <circle cx="467.2" cy="847.8" r="3.5" fill="#f87171" stroke="#0d1117" stroke-width="1"/>
  <circle cx="415.3" cy="819.9" r="3.5" fill="#f87171" stroke="#0d1117" stroke-width="1"/>
  <circle cx="416.1" cy="823.2" r="3.5" fill="#f87171" stroke="#0d1117" stroke-width="1"/>
  <text x="422.1" y="823.2" text-anchor="start" fill="#f87171" font-size="8" font-weight="600">3</text>
  <circle cx="404.6" cy="806.4" r="3.5" fill="#f87171" stroke="#0d1117" stroke-width="1"/>
  <text x="410.6" y="806.4" text-anchor="start" fill="#f87171" font-size="8" font-weight="600">4</text>
  <path d="M464.6,832.9L464.3,833.7L462.2,831.7L459.0,830.3L453.5,826.9L450.8,827.2L442.6,824.6L436.2,818.8L397.8,796.3L321.6,769.5L289.2,743.0" fill="none" stroke="#f59e0b" stroke-width="1.5" stroke-opacity="0.6"/>
  <circle cx="464.6" cy="832.9" r="3.5" fill="#f59e0b" stroke="#0d1117" stroke-width="1"/>
  <text x="470.6" y="832.9" text-anchor="start" fill="#f59e0b" font-size="8" font-weight="600">-7</text>
  <circle cx="464.3" cy="833.7" r="3.5" fill="#f59e0b" stroke="#0d1117" stroke-width="1"/>
  <circle cx="462.2" cy="831.7" r="3.5" fill="#f59e0b" stroke="#0d1117" stroke-width="1"/>
  <circle cx="459.0" cy="830.3" r="3.5" fill="#f59e0b" stroke="#0d1117" stroke-width="1"/>
  <text x="453.0" y="830.3" text-anchor="end" fill="#f59e0b" font-size="8" font-weight="600">-4</text>
  <circle cx="453.5" cy="826.9" r="3.5" fill="#f59e0b" stroke="#0d1117" stroke-width="1"/>
  <circle cx="450.8" cy="827.2" r="3.5" fill="#f59e0b" stroke="#0d1117" stroke-width="1"/>
  <circle cx="442.6" cy="824.6" r="3.5" fill="#f59e0b" stroke="#0d1117" stroke-width="1"/>
  <text x="436.6" y="824.6" text-anchor="end" fill="#f59e0b" font-size="8" font-weight="600">-1</text>
  <circle cx="436.2" cy="818.8" r="3.5" fill="#f59e0b" stroke="#0d1117" stroke-width="1"/>
  <circle cx="397.8" cy="796.3" r="3.5" fill="#f59e0b" stroke="#0d1117" stroke-width="1"/>
  <circle cx="321.6" cy="769.5" r="3.5" fill="#f59e0b" stroke="#0d1117" stroke-width="1"/>
  <text x="327.6" y="769.5" text-anchor="start" fill="#f59e0b" font-size="8" font-weight="600">3</text>
  <circle cx="289.2" cy="743.0" r="3.5" fill="#f59e0b" stroke="#0d1117" stroke-width="1"/>
  <text x="295.2" y="743.0" text-anchor="start" fill="#f59e0b" font-size="8" font-weight="600">4</text>
  <circle cx="230.9" cy="832.5" r="3.5" fill="#4ade80" stroke="#0d1117" stroke-width="1"/>
  <text x="236.9" y="832.5" text-anchor="start" fill="#4ade80" font-size="8" font-weight="600">L1</text>
  <circle cx="794.8" cy="897.7" r="3.5" fill="#c084fc" stroke="#0d1117" stroke-width="1"/>
  <text x="800.8" y="897.7" text-anchor="start" fill="#c084fc" font-size="8" font-weight="600">LZ4</text>
  <text x="16" y="485.0" text-anchor="middle" fill="#e6edf3" font-size="11" font-weight="600" transform="rotate(-90,16,485.0)">compression ratio</text>
  <circle cx="137" cy="965" r="4" fill="#60a5fa"/>
  <text x="145" y="968.5" fill="#e6edf3" font-size="10" font-weight="500">C zstd 1.5.7 (libzstd)</text>
  <circle cx="310" cy="965" r="4" fill="#f87171"/>
  <text x="318" y="968.5" fill="#e6edf3" font-size="10" font-weight="500">zrip (safe API, Rust)</text>
  <circle cx="476" cy="965" r="4" fill="#f59e0b"/>
  <text x="484" y="968.5" fill="#e6edf3" font-size="10" font-weight="500">structured-zstd 0.0.41 (unsafe Rust)</text>
  <circle cx="220" cy="983" r="4" fill="#4ade80"/>
  <text x="228" y="986.5" fill="#e6edf3" font-size="10" font-weight="500">ruzstd 0.8.2 (safe Rust)</text>
  <circle cx="405" cy="983" r="4" fill="#c084fc"/>
  <text x="413" y="986.5" fill="#e6edf3" font-size="10" font-weight="500">lz4rip 0.3.1 (safe API, Rust, LZ4)</text>
</svg>
