<svg viewBox="0 0 850 1106" xmlns="http://www.w3.org/2000/svg" font-family="system-ui, -apple-system, sans-serif">
<rect x="0" y="0" width="850" height="1106" opacity="1" fill="#0D1117" stroke="none"/>
<text x="425" y="18" dy="0.5ex" text-anchor="middle" font-family="sans-serif" font-size="12.096774193548388" opacity="1" fill="#E6EDF3" font-weight="bold">
12-file Silesia: Encode Speed vs Compression Ratio
</text>
<text x="425" y="36" dy="0.5ex" text-anchor="middle" font-family="sans-serif" font-size="8.870967741935484" opacity="1" fill="#7D8590">
Apple M5, 10 cores
</text>
<rect x="70" y="66" width="760" height="250" opacity="1" fill="#161B22" stroke="none"/>
<text x="450" y="53" dy="0.5ex" text-anchor="middle" font-family="sans-serif" font-size="10.483870967741936" opacity="1" fill="#E6EDF3" font-weight="bold">
High compressibility
</text>
<polyline fill="none" opacity="1" stroke="#21262D" stroke-width="1" points="137,66 137,316 "/>
<text x="137" y="332" dy="0.5ex" text-anchor="middle" font-family="sans-serif" font-size="8.064516129032258" opacity="1" fill="#7D8590">
50
</text>
<polyline fill="none" opacity="1" stroke="#21262D" stroke-width="1" points="228,66 228,316 "/>
<text x="228" y="332" dy="0.5ex" text-anchor="middle" font-family="sans-serif" font-size="8.064516129032258" opacity="1" fill="#7D8590">
100
</text>
<polyline fill="none" opacity="1" stroke="#21262D" stroke-width="1" points="318,66 318,316 "/>
<text x="318" y="332" dy="0.5ex" text-anchor="middle" font-family="sans-serif" font-size="8.064516129032258" opacity="1" fill="#7D8590">
200
</text>
<polyline fill="none" opacity="1" stroke="#21262D" stroke-width="1" points="438,66 438,316 "/>
<text x="438" y="332" dy="0.5ex" text-anchor="middle" font-family="sans-serif" font-size="8.064516129032258" opacity="1" fill="#7D8590">
500
</text>
<polyline fill="none" opacity="1" stroke="#21262D" stroke-width="1" points="529,66 529,316 "/>
<text x="529" y="332" dy="0.5ex" text-anchor="middle" font-family="sans-serif" font-size="8.064516129032258" opacity="1" fill="#7D8590">
1000
</text>
<polyline fill="none" opacity="1" stroke="#21262D" stroke-width="1" points="619,66 619,316 "/>
<text x="619" y="332" dy="0.5ex" text-anchor="middle" font-family="sans-serif" font-size="8.064516129032258" opacity="1" fill="#7D8590">
2000
</text>
<polyline fill="none" opacity="1" stroke="#21262D" stroke-width="1" points="739,66 739,316 "/>
<text x="739" y="332" dy="0.5ex" text-anchor="middle" font-family="sans-serif" font-size="8.064516129032258" opacity="1" fill="#7D8590">
5000
</text>
<polyline fill="none" opacity="1" stroke="#21262D" stroke-width="1" points="830,66 830,316 "/>
<text x="830" y="332" dy="0.5ex" text-anchor="middle" font-family="sans-serif" font-size="8.064516129032258" opacity="1" fill="#7D8590">
10000
</text>
<polyline fill="none" opacity="1" stroke="#21262D" stroke-width="1" points="70,293 830,293 "/>
<text x="62" y="293" dy="0.5ex" text-anchor="end" font-family="sans-serif" font-size="8.870967741935484" opacity="1" fill="#7D8590">
3.00x
</text>
<polyline fill="none" opacity="1" stroke="#21262D" stroke-width="1" points="70,248 830,248 "/>
<text x="62" y="248" dy="0.5ex" text-anchor="end" font-family="sans-serif" font-size="8.870967741935484" opacity="1" fill="#7D8590">
4.00x
</text>
<polyline fill="none" opacity="1" stroke="#21262D" stroke-width="1" points="70,202 830,202 "/>
<text x="62" y="202" dy="0.5ex" text-anchor="end" font-family="sans-serif" font-size="8.870967741935484" opacity="1" fill="#7D8590">
5.00x
</text>
<polyline fill="none" opacity="1" stroke="#21262D" stroke-width="1" points="70,157 830,157 "/>
<text x="62" y="157" dy="0.5ex" text-anchor="end" font-family="sans-serif" font-size="8.870967741935484" opacity="1" fill="#7D8590">
6.00x
</text>
<polyline fill="none" opacity="1" stroke="#21262D" stroke-width="1" points="70,111 830,111 "/>
<text x="62" y="111" dy="0.5ex" text-anchor="end" font-family="sans-serif" font-size="8.870967741935484" opacity="1" fill="#7D8590">
7.00x
</text>
<polyline fill="none" opacity="1" stroke="#21262D" stroke-width="1" points="70,66 830,66 "/>
<text x="62" y="66" dy="0.5ex" text-anchor="end" font-family="sans-serif" font-size="8.870967741935484" opacity="1" fill="#7D8590">
8.00x
</text>
<polyline fill="none" opacity="1" stroke="#30363D" stroke-width="2" points="70,316 830,316 "/>
<polyline fill="none" opacity="1" stroke="#60A5FA" stroke-width="1" points="589,259 584,248 581,237 576,221 573,201 568,181 563,165 558,107 542,101 531,85 527,84 "/>
<circle cx="589" cy="259" r="3" opacity="1" fill="#60A5FA" stroke="none" stroke-width="1"/>
<text x="595" y="259" dy="0.5ex" text-anchor="start" font-family="sans-serif" font-size="7.258064516129032" opacity="1" fill="#60A5FA" font-weight="bold">
L-7
</text>
<circle cx="584" cy="248" r="3" opacity="1" fill="#60A5FA" stroke="none" stroke-width="1"/>
<circle cx="581" cy="237" r="3" opacity="1" fill="#60A5FA" stroke="none" stroke-width="1"/>
<circle cx="576" cy="221" r="3" opacity="1" fill="#60A5FA" stroke="none" stroke-width="1"/>
<circle cx="573" cy="201" r="3" opacity="1" fill="#60A5FA" stroke="none" stroke-width="1"/>
<circle cx="568" cy="181" r="3" opacity="1" fill="#60A5FA" stroke="none" stroke-width="1"/>
<circle cx="563" cy="165" r="3" opacity="1" fill="#60A5FA" stroke="none" stroke-width="1"/>
<text x="569" y="165" dy="0.5ex" text-anchor="start" font-family="sans-serif" font-size="7.258064516129032" opacity="1" fill="#60A5FA" font-weight="bold">
L-1
</text>
<circle cx="558" cy="107" r="3" opacity="1" fill="#60A5FA" stroke="none" stroke-width="1"/>
<text x="564" y="107" dy="0.5ex" text-anchor="start" font-family="sans-serif" font-size="7.258064516129032" opacity="1" fill="#60A5FA" font-weight="bold">
L1
</text>
<circle cx="542" cy="101" r="3" opacity="1" fill="#60A5FA" stroke="none" stroke-width="1"/>
<circle cx="531" cy="85" r="3" opacity="1" fill="#60A5FA" stroke="none" stroke-width="1"/>
<text x="537" y="85" dy="0.5ex" text-anchor="start" font-family="sans-serif" font-size="7.258064516129032" opacity="1" fill="#60A5FA" font-weight="bold">
L3
</text>
<circle cx="527" cy="84" r="3" opacity="1" fill="#60A5FA" stroke="none" stroke-width="1"/>
<polyline fill="none" opacity="1" stroke="#F87171" stroke-width="1" points="547,273 516,264 513,247 513,235 511,225 507,209 506,188 503,166 494,152 496,145 488,123 488,117 "/>
<circle cx="547" cy="273" r="3" opacity="1" fill="#F87171" stroke="none" stroke-width="1"/>
<text x="553" y="273" dy="0.5ex" text-anchor="start" font-family="sans-serif" font-size="7.258064516129032" opacity="1" fill="#F87171" font-weight="bold">
L-8
</text>
<circle cx="516" cy="264" r="3" opacity="1" fill="#F87171" stroke="none" stroke-width="1"/>
<circle cx="513" cy="247" r="3" opacity="1" fill="#F87171" stroke="none" stroke-width="1"/>
<circle cx="513" cy="235" r="3" opacity="1" fill="#F87171" stroke="none" stroke-width="1"/>
<circle cx="511" cy="225" r="3" opacity="1" fill="#F87171" stroke="none" stroke-width="1"/>
<circle cx="507" cy="209" r="3" opacity="1" fill="#F87171" stroke="none" stroke-width="1"/>
<circle cx="506" cy="188" r="3" opacity="1" fill="#F87171" stroke="none" stroke-width="1"/>
<circle cx="503" cy="166" r="3" opacity="1" fill="#F87171" stroke="none" stroke-width="1"/>
<text x="509" y="166" dy="0.5ex" text-anchor="start" font-family="sans-serif" font-size="7.258064516129032" opacity="1" fill="#F87171" font-weight="bold">
L-1
</text>
<circle cx="494" cy="152" r="3" opacity="1" fill="#F87171" stroke="none" stroke-width="1"/>
<text x="500" y="152" dy="0.5ex" text-anchor="start" font-family="sans-serif" font-size="7.258064516129032" opacity="1" fill="#F87171" font-weight="bold">
L1
</text>
<circle cx="496" cy="145" r="3" opacity="1" fill="#F87171" stroke="none" stroke-width="1"/>
<circle cx="488" cy="123" r="3" opacity="1" fill="#F87171" stroke="none" stroke-width="1"/>
<text x="494" y="123" dy="0.5ex" text-anchor="start" font-family="sans-serif" font-size="7.258064516129032" opacity="1" fill="#F87171" font-weight="bold">
L3
</text>
<circle cx="488" cy="117" r="3" opacity="1" fill="#F87171" stroke="none" stroke-width="1"/>
<polyline fill="none" opacity="1" stroke="#F59E0B" stroke-width="1" points="515,259 510,248 509,237 506,221 502,201 499,181 495,166 489,107 478,101 445,85 442,84 "/>
<circle cx="515" cy="259" r="3" opacity="1" fill="#F59E0B" stroke="none" stroke-width="1"/>
<text x="521" y="259" dy="0.5ex" text-anchor="start" font-family="sans-serif" font-size="7.258064516129032" opacity="1" fill="#F59E0B" font-weight="bold">
L-7
</text>
<circle cx="510" cy="248" r="3" opacity="1" fill="#F59E0B" stroke="none" stroke-width="1"/>
<circle cx="509" cy="237" r="3" opacity="1" fill="#F59E0B" stroke="none" stroke-width="1"/>
<circle cx="506" cy="221" r="3" opacity="1" fill="#F59E0B" stroke="none" stroke-width="1"/>
<circle cx="502" cy="201" r="3" opacity="1" fill="#F59E0B" stroke="none" stroke-width="1"/>
<circle cx="499" cy="181" r="3" opacity="1" fill="#F59E0B" stroke="none" stroke-width="1"/>
<circle cx="495" cy="166" r="3" opacity="1" fill="#F59E0B" stroke="none" stroke-width="1"/>
<text x="501" y="166" dy="0.5ex" text-anchor="start" font-family="sans-serif" font-size="7.258064516129032" opacity="1" fill="#F59E0B" font-weight="bold">
L-1
</text>
<circle cx="489" cy="107" r="3" opacity="1" fill="#F59E0B" stroke="none" stroke-width="1"/>
<text x="495" y="107" dy="0.5ex" text-anchor="start" font-family="sans-serif" font-size="7.258064516129032" opacity="1" fill="#F59E0B" font-weight="bold">
L1
</text>
<circle cx="478" cy="101" r="3" opacity="1" fill="#F59E0B" stroke="none" stroke-width="1"/>
<circle cx="445" cy="85" r="3" opacity="1" fill="#F59E0B" stroke="none" stroke-width="1"/>
<text x="451" y="85" dy="0.5ex" text-anchor="start" font-family="sans-serif" font-size="7.258064516129032" opacity="1" fill="#F59E0B" font-weight="bold">
L3
</text>
<circle cx="442" cy="84" r="3" opacity="1" fill="#F59E0B" stroke="none" stroke-width="1"/>
<polyline fill="none" opacity="1" stroke="#F472B6" stroke-width="1" points="522,273 498,264 495,247 493,235 492,225 487,209 485,188 483,166 472,152 473,145 466,123 464,117 "/>
<circle cx="522" cy="273" r="3" opacity="1" fill="#F472B6" stroke="none" stroke-width="1"/>
<text x="528" y="273" dy="0.5ex" text-anchor="start" font-family="sans-serif" font-size="7.258064516129032" opacity="1" fill="#F472B6" font-weight="bold">
L-8
</text>
<circle cx="498" cy="264" r="3" opacity="1" fill="#F472B6" stroke="none" stroke-width="1"/>
<circle cx="495" cy="247" r="3" opacity="1" fill="#F472B6" stroke="none" stroke-width="1"/>
<circle cx="493" cy="235" r="3" opacity="1" fill="#F472B6" stroke="none" stroke-width="1"/>
<circle cx="492" cy="225" r="3" opacity="1" fill="#F472B6" stroke="none" stroke-width="1"/>
<circle cx="487" cy="209" r="3" opacity="1" fill="#F472B6" stroke="none" stroke-width="1"/>
<circle cx="485" cy="188" r="3" opacity="1" fill="#F472B6" stroke="none" stroke-width="1"/>
<circle cx="483" cy="166" r="3" opacity="1" fill="#F472B6" stroke="none" stroke-width="1"/>
<text x="489" y="166" dy="0.5ex" text-anchor="start" font-family="sans-serif" font-size="7.258064516129032" opacity="1" fill="#F472B6" font-weight="bold">
L-1
</text>
<circle cx="472" cy="152" r="3" opacity="1" fill="#F472B6" stroke="none" stroke-width="1"/>
<text x="478" y="152" dy="0.5ex" text-anchor="start" font-family="sans-serif" font-size="7.258064516129032" opacity="1" fill="#F472B6" font-weight="bold">
L1
</text>
<circle cx="473" cy="145" r="3" opacity="1" fill="#F472B6" stroke="none" stroke-width="1"/>
<circle cx="466" cy="123" r="3" opacity="1" fill="#F472B6" stroke="none" stroke-width="1"/>
<text x="472" y="123" dy="0.5ex" text-anchor="start" font-family="sans-serif" font-size="7.258064516129032" opacity="1" fill="#F472B6" font-weight="bold">
L3
</text>
<circle cx="464" cy="117" r="3" opacity="1" fill="#F472B6" stroke="none" stroke-width="1"/>
<circle cx="339" cy="227" r="3" opacity="1" fill="#4ADE80" stroke="none" stroke-width="1"/>
<text x="345" y="227" dy="0.5ex" text-anchor="start" font-family="sans-serif" font-size="7.258064516129032" opacity="1" fill="#4ADE80" font-weight="bold">
L1
</text>
<circle cx="579" cy="249" r="3" opacity="1" fill="#C084FC" stroke="none" stroke-width="1"/>
<text x="585" y="249" dy="0.5ex" text-anchor="start" font-family="sans-serif" font-size="7.258064516129032" opacity="1" fill="#C084FC" font-weight="bold">
L1
</text>
<text x="450" y="350" dy="0.5ex" text-anchor="middle" font-family="sans-serif" font-size="8.870967741935484" opacity="1" fill="#7D8590">
encode MB/s (log)
</text>
<rect x="70" y="401" width="760" height="250" opacity="1" fill="#161B22" stroke="none"/>
<text x="450" y="388" dy="0.5ex" text-anchor="middle" font-family="sans-serif" font-size="10.483870967741936" opacity="1" fill="#E6EDF3" font-weight="bold">
Medium compressibility
</text>
<polyline fill="none" opacity="1" stroke="#21262D" stroke-width="1" points="137,401 137,651 "/>
<text x="137" y="667" dy="0.5ex" text-anchor="middle" font-family="sans-serif" font-size="8.064516129032258" opacity="1" fill="#7D8590">
50
</text>
<polyline fill="none" opacity="1" stroke="#21262D" stroke-width="1" points="228,401 228,651 "/>
<text x="228" y="667" dy="0.5ex" text-anchor="middle" font-family="sans-serif" font-size="8.064516129032258" opacity="1" fill="#7D8590">
100
</text>
<polyline fill="none" opacity="1" stroke="#21262D" stroke-width="1" points="318,401 318,651 "/>
<text x="318" y="667" dy="0.5ex" text-anchor="middle" font-family="sans-serif" font-size="8.064516129032258" opacity="1" fill="#7D8590">
200
</text>
<polyline fill="none" opacity="1" stroke="#21262D" stroke-width="1" points="438,401 438,651 "/>
<text x="438" y="667" dy="0.5ex" text-anchor="middle" font-family="sans-serif" font-size="8.064516129032258" opacity="1" fill="#7D8590">
500
</text>
<polyline fill="none" opacity="1" stroke="#21262D" stroke-width="1" points="529,401 529,651 "/>
<text x="529" y="667" dy="0.5ex" text-anchor="middle" font-family="sans-serif" font-size="8.064516129032258" opacity="1" fill="#7D8590">
1000
</text>
<polyline fill="none" opacity="1" stroke="#21262D" stroke-width="1" points="619,401 619,651 "/>
<text x="619" y="667" dy="0.5ex" text-anchor="middle" font-family="sans-serif" font-size="8.064516129032258" opacity="1" fill="#7D8590">
2000
</text>
<polyline fill="none" opacity="1" stroke="#21262D" stroke-width="1" points="739,401 739,651 "/>
<text x="739" y="667" dy="0.5ex" text-anchor="middle" font-family="sans-serif" font-size="8.064516129032258" opacity="1" fill="#7D8590">
5000
</text>
<polyline fill="none" opacity="1" stroke="#21262D" stroke-width="1" points="830,401 830,651 "/>
<text x="830" y="667" dy="0.5ex" text-anchor="middle" font-family="sans-serif" font-size="8.064516129032258" opacity="1" fill="#7D8590">
10000
</text>
<polyline fill="none" opacity="1" stroke="#21262D" stroke-width="1" points="70,637 830,637 "/>
<text x="62" y="637" dy="0.5ex" text-anchor="end" font-family="sans-serif" font-size="8.870967741935484" opacity="1" fill="#7D8590">
1.50x
</text>
<polyline fill="none" opacity="1" stroke="#21262D" stroke-width="1" points="70,568 830,568 "/>
<text x="62" y="568" dy="0.5ex" text-anchor="end" font-family="sans-serif" font-size="8.870967741935484" opacity="1" fill="#7D8590">
2.00x
</text>
<polyline fill="none" opacity="1" stroke="#21262D" stroke-width="1" points="70,498 830,498 "/>
<text x="62" y="498" dy="0.5ex" text-anchor="end" font-family="sans-serif" font-size="8.870967741935484" opacity="1" fill="#7D8590">
2.50x
</text>
<polyline fill="none" opacity="1" stroke="#21262D" stroke-width="1" points="70,429 830,429 "/>
<text x="62" y="429" dy="0.5ex" text-anchor="end" font-family="sans-serif" font-size="8.870967741935484" opacity="1" fill="#7D8590">
3.00x
</text>
<polyline fill="none" opacity="1" stroke="#30363D" stroke-width="2" points="70,651 830,651 "/>
<polyline fill="none" opacity="1" stroke="#60A5FA" stroke-width="1" points="538,606 533,602 527,594 521,585 514,575 507,564 499,552 487,492 456,468 425,452 413,446 "/>
<circle cx="538" cy="606" r="3" opacity="1" fill="#60A5FA" stroke="none" stroke-width="1"/>
<text x="544" y="606" dy="0.5ex" text-anchor="start" font-family="sans-serif" font-size="7.258064516129032" opacity="1" fill="#60A5FA" font-weight="bold">
L-7
</text>
<circle cx="533" cy="602" r="3" opacity="1" fill="#60A5FA" stroke="none" stroke-width="1"/>
<circle cx="527" cy="594" r="3" opacity="1" fill="#60A5FA" stroke="none" stroke-width="1"/>
<circle cx="521" cy="585" r="3" opacity="1" fill="#60A5FA" stroke="none" stroke-width="1"/>
<circle cx="514" cy="575" r="3" opacity="1" fill="#60A5FA" stroke="none" stroke-width="1"/>
<circle cx="507" cy="564" r="3" opacity="1" fill="#60A5FA" stroke="none" stroke-width="1"/>
<circle cx="499" cy="552" r="3" opacity="1" fill="#60A5FA" stroke="none" stroke-width="1"/>
<text x="505" y="552" dy="0.5ex" text-anchor="start" font-family="sans-serif" font-size="7.258064516129032" opacity="1" fill="#60A5FA" font-weight="bold">
L-1
</text>
<circle cx="487" cy="492" r="3" opacity="1" fill="#60A5FA" stroke="none" stroke-width="1"/>
<text x="493" y="492" dy="0.5ex" text-anchor="start" font-family="sans-serif" font-size="7.258064516129032" opacity="1" fill="#60A5FA" font-weight="bold">
L1
</text>
<circle cx="456" cy="468" r="3" opacity="1" fill="#60A5FA" stroke="none" stroke-width="1"/>
<circle cx="425" cy="452" r="3" opacity="1" fill="#60A5FA" stroke="none" stroke-width="1"/>
<text x="431" y="452" dy="0.5ex" text-anchor="start" font-family="sans-serif" font-size="7.258064516129032" opacity="1" fill="#60A5FA" font-weight="bold">
L3
</text>
<circle cx="413" cy="446" r="3" opacity="1" fill="#60A5FA" stroke="none" stroke-width="1"/>
<polyline fill="none" opacity="1" stroke="#F87171" stroke-width="1" points="475,609 450,581 442,571 439,567 436,559 431,548 428,539 423,528 401,511 390,495 377,488 372,479 "/>
<circle cx="475" cy="609" r="3" opacity="1" fill="#F87171" stroke="none" stroke-width="1"/>
<text x="481" y="609" dy="0.5ex" text-anchor="start" font-family="sans-serif" font-size="7.258064516129032" opacity="1" fill="#F87171" font-weight="bold">
L-8
</text>
<circle cx="450" cy="581" r="3" opacity="1" fill="#F87171" stroke="none" stroke-width="1"/>
<circle cx="442" cy="571" r="3" opacity="1" fill="#F87171" stroke="none" stroke-width="1"/>
<circle cx="439" cy="567" r="3" opacity="1" fill="#F87171" stroke="none" stroke-width="1"/>
<circle cx="436" cy="559" r="3" opacity="1" fill="#F87171" stroke="none" stroke-width="1"/>
<circle cx="431" cy="548" r="3" opacity="1" fill="#F87171" stroke="none" stroke-width="1"/>
<circle cx="428" cy="539" r="3" opacity="1" fill="#F87171" stroke="none" stroke-width="1"/>
<circle cx="423" cy="528" r="3" opacity="1" fill="#F87171" stroke="none" stroke-width="1"/>
<text x="429" y="528" dy="0.5ex" text-anchor="start" font-family="sans-serif" font-size="7.258064516129032" opacity="1" fill="#F87171" font-weight="bold">
L-1
</text>
<circle cx="401" cy="511" r="3" opacity="1" fill="#F87171" stroke="none" stroke-width="1"/>
<text x="407" y="511" dy="0.5ex" text-anchor="start" font-family="sans-serif" font-size="7.258064516129032" opacity="1" fill="#F87171" font-weight="bold">
L1
</text>
<circle cx="390" cy="495" r="3" opacity="1" fill="#F87171" stroke="none" stroke-width="1"/>
<circle cx="377" cy="488" r="3" opacity="1" fill="#F87171" stroke="none" stroke-width="1"/>
<text x="383" y="488" dy="0.5ex" text-anchor="start" font-family="sans-serif" font-size="7.258064516129032" opacity="1" fill="#F87171" font-weight="bold">
L3
</text>
<circle cx="372" cy="479" r="3" opacity="1" fill="#F87171" stroke="none" stroke-width="1"/>
<polyline fill="none" opacity="1" stroke="#F59E0B" stroke-width="1" points="475,606 473,602 466,594 461,585 455,575 449,564 441,553 424,492 400,468 356,454 345,447 "/>
<circle cx="475" cy="606" r="3" opacity="1" fill="#F59E0B" stroke="none" stroke-width="1"/>
<text x="481" y="606" dy="0.5ex" text-anchor="start" font-family="sans-serif" font-size="7.258064516129032" opacity="1" fill="#F59E0B" font-weight="bold">
L-7
</text>
<circle cx="473" cy="602" r="3" opacity="1" fill="#F59E0B" stroke="none" stroke-width="1"/>
<circle cx="466" cy="594" r="3" opacity="1" fill="#F59E0B" stroke="none" stroke-width="1"/>
<circle cx="461" cy="585" r="3" opacity="1" fill="#F59E0B" stroke="none" stroke-width="1"/>
<circle cx="455" cy="575" r="3" opacity="1" fill="#F59E0B" stroke="none" stroke-width="1"/>
<circle cx="449" cy="564" r="3" opacity="1" fill="#F59E0B" stroke="none" stroke-width="1"/>
<circle cx="441" cy="553" r="3" opacity="1" fill="#F59E0B" stroke="none" stroke-width="1"/>
<text x="447" y="553" dy="0.5ex" text-anchor="start" font-family="sans-serif" font-size="7.258064516129032" opacity="1" fill="#F59E0B" font-weight="bold">
L-1
</text>
<circle cx="424" cy="492" r="3" opacity="1" fill="#F59E0B" stroke="none" stroke-width="1"/>
<text x="430" y="492" dy="0.5ex" text-anchor="start" font-family="sans-serif" font-size="7.258064516129032" opacity="1" fill="#F59E0B" font-weight="bold">
L1
</text>
<circle cx="400" cy="468" r="3" opacity="1" fill="#F59E0B" stroke="none" stroke-width="1"/>
<circle cx="356" cy="454" r="3" opacity="1" fill="#F59E0B" stroke="none" stroke-width="1"/>
<text x="362" y="454" dy="0.5ex" text-anchor="start" font-family="sans-serif" font-size="7.258064516129032" opacity="1" fill="#F59E0B" font-weight="bold">
L3
</text>
<circle cx="345" cy="447" r="3" opacity="1" fill="#F59E0B" stroke="none" stroke-width="1"/>
<polyline fill="none" opacity="1" stroke="#F472B6" stroke-width="1" points="451,609 433,581 425,571 421,567 418,559 412,548 409,539 404,528 383,511 370,495 359,488 353,479 "/>
<circle cx="451" cy="609" r="3" opacity="1" fill="#F472B6" stroke="none" stroke-width="1"/>
<text x="457" y="609" dy="0.5ex" text-anchor="start" font-family="sans-serif" font-size="7.258064516129032" opacity="1" fill="#F472B6" font-weight="bold">
L-8
</text>
<circle cx="433" cy="581" r="3" opacity="1" fill="#F472B6" stroke="none" stroke-width="1"/>
<circle cx="425" cy="571" r="3" opacity="1" fill="#F472B6" stroke="none" stroke-width="1"/>
<circle cx="421" cy="567" r="3" opacity="1" fill="#F472B6" stroke="none" stroke-width="1"/>
<circle cx="418" cy="559" r="3" opacity="1" fill="#F472B6" stroke="none" stroke-width="1"/>
<circle cx="412" cy="548" r="3" opacity="1" fill="#F472B6" stroke="none" stroke-width="1"/>
<circle cx="409" cy="539" r="3" opacity="1" fill="#F472B6" stroke="none" stroke-width="1"/>
<circle cx="404" cy="528" r="3" opacity="1" fill="#F472B6" stroke="none" stroke-width="1"/>
<text x="410" y="528" dy="0.5ex" text-anchor="start" font-family="sans-serif" font-size="7.258064516129032" opacity="1" fill="#F472B6" font-weight="bold">
L-1
</text>
<circle cx="383" cy="511" r="3" opacity="1" fill="#F472B6" stroke="none" stroke-width="1"/>
<text x="389" y="511" dy="0.5ex" text-anchor="start" font-family="sans-serif" font-size="7.258064516129032" opacity="1" fill="#F472B6" font-weight="bold">
L1
</text>
<circle cx="370" cy="495" r="3" opacity="1" fill="#F472B6" stroke="none" stroke-width="1"/>
<circle cx="359" cy="488" r="3" opacity="1" fill="#F472B6" stroke="none" stroke-width="1"/>
<text x="365" y="488" dy="0.5ex" text-anchor="start" font-family="sans-serif" font-size="7.258064516129032" opacity="1" fill="#F472B6" font-weight="bold">
L3
</text>
<circle cx="353" cy="479" r="3" opacity="1" fill="#F472B6" stroke="none" stroke-width="1"/>
<circle cx="273" cy="557" r="3" opacity="1" fill="#4ADE80" stroke="none" stroke-width="1"/>
<text x="279" y="557" dy="0.5ex" text-anchor="start" font-family="sans-serif" font-size="7.258064516129032" opacity="1" fill="#4ADE80" font-weight="bold">
L1
</text>
<circle cx="536" cy="619" r="3" opacity="1" fill="#C084FC" stroke="none" stroke-width="1"/>
<text x="542" y="619" dy="0.5ex" text-anchor="start" font-family="sans-serif" font-size="7.258064516129032" opacity="1" fill="#C084FC" font-weight="bold">
L1
</text>
<text x="450" y="685" dy="0.5ex" text-anchor="middle" font-family="sans-serif" font-size="8.870967741935484" opacity="1" fill="#7D8590">
encode MB/s (log)
</text>
<rect x="70" y="736" width="760" height="250" opacity="1" fill="#161B22" stroke="none"/>
<text x="450" y="723" dy="0.5ex" text-anchor="middle" font-family="sans-serif" font-size="10.483870967741936" opacity="1" fill="#E6EDF3" font-weight="bold">
Low compressibility
</text>
<polyline fill="none" opacity="1" stroke="#21262D" stroke-width="1" points="137,736 137,986 "/>
<text x="137" y="1002" dy="0.5ex" text-anchor="middle" font-family="sans-serif" font-size="8.064516129032258" opacity="1" fill="#7D8590">
50
</text>
<polyline fill="none" opacity="1" stroke="#21262D" stroke-width="1" points="228,736 228,986 "/>
<text x="228" y="1002" dy="0.5ex" text-anchor="middle" font-family="sans-serif" font-size="8.064516129032258" opacity="1" fill="#7D8590">
100
</text>
<polyline fill="none" opacity="1" stroke="#21262D" stroke-width="1" points="318,736 318,986 "/>
<text x="318" y="1002" dy="0.5ex" text-anchor="middle" font-family="sans-serif" font-size="8.064516129032258" opacity="1" fill="#7D8590">
200
</text>
<polyline fill="none" opacity="1" stroke="#21262D" stroke-width="1" points="438,736 438,986 "/>
<text x="438" y="1002" dy="0.5ex" text-anchor="middle" font-family="sans-serif" font-size="8.064516129032258" opacity="1" fill="#7D8590">
500
</text>
<polyline fill="none" opacity="1" stroke="#21262D" stroke-width="1" points="529,736 529,986 "/>
<text x="529" y="1002" dy="0.5ex" text-anchor="middle" font-family="sans-serif" font-size="8.064516129032258" opacity="1" fill="#7D8590">
1000
</text>
<polyline fill="none" opacity="1" stroke="#21262D" stroke-width="1" points="619,736 619,986 "/>
<text x="619" y="1002" dy="0.5ex" text-anchor="middle" font-family="sans-serif" font-size="8.064516129032258" opacity="1" fill="#7D8590">
2000
</text>
<polyline fill="none" opacity="1" stroke="#21262D" stroke-width="1" points="739,736 739,986 "/>
<text x="739" y="1002" dy="0.5ex" text-anchor="middle" font-family="sans-serif" font-size="8.064516129032258" opacity="1" fill="#7D8590">
5000
</text>
<polyline fill="none" opacity="1" stroke="#21262D" stroke-width="1" points="830,736 830,986 "/>
<text x="830" y="1002" dy="0.5ex" text-anchor="middle" font-family="sans-serif" font-size="8.064516129032258" opacity="1" fill="#7D8590">
10000
</text>
<polyline fill="none" opacity="1" stroke="#21262D" stroke-width="1" points="70,965 830,965 "/>
<text x="62" y="965" dy="0.5ex" text-anchor="end" font-family="sans-serif" font-size="8.870967741935484" opacity="1" fill="#7D8590">
1.00x
</text>
<polyline fill="none" opacity="1" stroke="#21262D" stroke-width="1" points="70,882 830,882 "/>
<text x="62" y="882" dy="0.5ex" text-anchor="end" font-family="sans-serif" font-size="8.870967741935484" opacity="1" fill="#7D8590">
1.20x
</text>
<polyline fill="none" opacity="1" stroke="#21262D" stroke-width="1" points="70,799 830,799 "/>
<text x="62" y="799" dy="0.5ex" text-anchor="end" font-family="sans-serif" font-size="8.870967741935484" opacity="1" fill="#7D8590">
1.40x
</text>
<polyline fill="none" opacity="1" stroke="#30363D" stroke-width="2" points="70,986 830,986 "/>
<polyline fill="none" opacity="1" stroke="#60A5FA" stroke-width="1" points="731,956 721,952 720,953 709,950 701,948 686,946 672,943 513,880 469,857 388,819 360,793 "/>
<circle cx="731" cy="956" r="3" opacity="1" fill="#60A5FA" stroke="none" stroke-width="1"/>
<text x="737" y="956" dy="0.5ex" text-anchor="start" font-family="sans-serif" font-size="7.258064516129032" opacity="1" fill="#60A5FA" font-weight="bold">
L-7
</text>
<circle cx="721" cy="952" r="3" opacity="1" fill="#60A5FA" stroke="none" stroke-width="1"/>
<circle cx="720" cy="953" r="3" opacity="1" fill="#60A5FA" stroke="none" stroke-width="1"/>
<circle cx="709" cy="950" r="3" opacity="1" fill="#60A5FA" stroke="none" stroke-width="1"/>
<circle cx="701" cy="948" r="3" opacity="1" fill="#60A5FA" stroke="none" stroke-width="1"/>
<circle cx="686" cy="946" r="3" opacity="1" fill="#60A5FA" stroke="none" stroke-width="1"/>
<circle cx="672" cy="943" r="3" opacity="1" fill="#60A5FA" stroke="none" stroke-width="1"/>
<text x="678" y="943" dy="0.5ex" text-anchor="start" font-family="sans-serif" font-size="7.258064516129032" opacity="1" fill="#60A5FA" font-weight="bold">
L-1
</text>
<circle cx="513" cy="880" r="3" opacity="1" fill="#60A5FA" stroke="none" stroke-width="1"/>
<text x="519" y="880" dy="0.5ex" text-anchor="start" font-family="sans-serif" font-size="7.258064516129032" opacity="1" fill="#60A5FA" font-weight="bold">
L1
</text>
<circle cx="469" cy="857" r="3" opacity="1" fill="#60A5FA" stroke="none" stroke-width="1"/>
<circle cx="388" cy="819" r="3" opacity="1" fill="#60A5FA" stroke="none" stroke-width="1"/>
<text x="394" y="819" dy="0.5ex" text-anchor="start" font-family="sans-serif" font-size="7.258064516129032" opacity="1" fill="#60A5FA" font-weight="bold">
L3
</text>
<circle cx="360" cy="793" r="3" opacity="1" fill="#60A5FA" stroke="none" stroke-width="1"/>
<polyline fill="none" opacity="1" stroke="#F87171" stroke-width="1" points="760,964 697,961 653,954 640,950 621,948 601,946 554,942 527,936 439,909 386,868 370,858 357,834 "/>
<circle cx="760" cy="964" r="3" opacity="1" fill="#F87171" stroke="none" stroke-width="1"/>
<text x="766" y="964" dy="0.5ex" text-anchor="start" font-family="sans-serif" font-size="7.258064516129032" opacity="1" fill="#F87171" font-weight="bold">
L-8
</text>
<circle cx="697" cy="961" r="3" opacity="1" fill="#F87171" stroke="none" stroke-width="1"/>
<circle cx="653" cy="954" r="3" opacity="1" fill="#F87171" stroke="none" stroke-width="1"/>
<circle cx="640" cy="950" r="3" opacity="1" fill="#F87171" stroke="none" stroke-width="1"/>
<circle cx="621" cy="948" r="3" opacity="1" fill="#F87171" stroke="none" stroke-width="1"/>
<circle cx="601" cy="946" r="3" opacity="1" fill="#F87171" stroke="none" stroke-width="1"/>
<circle cx="554" cy="942" r="3" opacity="1" fill="#F87171" stroke="none" stroke-width="1"/>
<circle cx="527" cy="936" r="3" opacity="1" fill="#F87171" stroke="none" stroke-width="1"/>
<text x="533" y="936" dy="0.5ex" text-anchor="start" font-family="sans-serif" font-size="7.258064516129032" opacity="1" fill="#F87171" font-weight="bold">
L-1
</text>
<circle cx="439" cy="909" r="3" opacity="1" fill="#F87171" stroke="none" stroke-width="1"/>
<text x="445" y="909" dy="0.5ex" text-anchor="start" font-family="sans-serif" font-size="7.258064516129032" opacity="1" fill="#F87171" font-weight="bold">
L1
</text>
<circle cx="386" cy="868" r="3" opacity="1" fill="#F87171" stroke="none" stroke-width="1"/>
<circle cx="370" cy="858" r="3" opacity="1" fill="#F87171" stroke="none" stroke-width="1"/>
<text x="376" y="858" dy="0.5ex" text-anchor="start" font-family="sans-serif" font-size="7.258064516129032" opacity="1" fill="#F87171" font-weight="bold">
L3
</text>
<circle cx="357" cy="834" r="3" opacity="1" fill="#F87171" stroke="none" stroke-width="1"/>
<polyline fill="none" opacity="1" stroke="#F59E0B" stroke-width="1" points="663,956 652,952 643,953 639,950 625,948 611,946 597,943 436,880 402,857 318,827 296,804 "/>
<circle cx="663" cy="956" r="3" opacity="1" fill="#F59E0B" stroke="none" stroke-width="1"/>
<text x="669" y="956" dy="0.5ex" text-anchor="start" font-family="sans-serif" font-size="7.258064516129032" opacity="1" fill="#F59E0B" font-weight="bold">
L-7
</text>
<circle cx="652" cy="952" r="3" opacity="1" fill="#F59E0B" stroke="none" stroke-width="1"/>
<circle cx="643" cy="953" r="3" opacity="1" fill="#F59E0B" stroke="none" stroke-width="1"/>
<circle cx="639" cy="950" r="3" opacity="1" fill="#F59E0B" stroke="none" stroke-width="1"/>
<circle cx="625" cy="948" r="3" opacity="1" fill="#F59E0B" stroke="none" stroke-width="1"/>
<circle cx="611" cy="946" r="3" opacity="1" fill="#F59E0B" stroke="none" stroke-width="1"/>
<circle cx="597" cy="943" r="3" opacity="1" fill="#F59E0B" stroke="none" stroke-width="1"/>
<text x="603" y="943" dy="0.5ex" text-anchor="start" font-family="sans-serif" font-size="7.258064516129032" opacity="1" fill="#F59E0B" font-weight="bold">
L-1
</text>
<circle cx="436" cy="880" r="3" opacity="1" fill="#F59E0B" stroke="none" stroke-width="1"/>
<text x="442" y="880" dy="0.5ex" text-anchor="start" font-family="sans-serif" font-size="7.258064516129032" opacity="1" fill="#F59E0B" font-weight="bold">
L1
</text>
<circle cx="402" cy="857" r="3" opacity="1" fill="#F59E0B" stroke="none" stroke-width="1"/>
<circle cx="318" cy="827" r="3" opacity="1" fill="#F59E0B" stroke="none" stroke-width="1"/>
<text x="324" y="827" dy="0.5ex" text-anchor="start" font-family="sans-serif" font-size="7.258064516129032" opacity="1" fill="#F59E0B" font-weight="bold">
L3
</text>
<circle cx="296" cy="804" r="3" opacity="1" fill="#F59E0B" stroke="none" stroke-width="1"/>
<polyline fill="none" opacity="1" stroke="#F472B6" stroke-width="1" points="750,964 687,961 639,954 629,950 607,948 586,946 537,942 511,936 423,909 369,868 351,858 340,834 "/>
<circle cx="750" cy="964" r="3" opacity="1" fill="#F472B6" stroke="none" stroke-width="1"/>
<text x="756" y="964" dy="0.5ex" text-anchor="start" font-family="sans-serif" font-size="7.258064516129032" opacity="1" fill="#F472B6" font-weight="bold">
L-8
</text>
<circle cx="687" cy="961" r="3" opacity="1" fill="#F472B6" stroke="none" stroke-width="1"/>
<circle cx="639" cy="954" r="3" opacity="1" fill="#F472B6" stroke="none" stroke-width="1"/>
<circle cx="629" cy="950" r="3" opacity="1" fill="#F472B6" stroke="none" stroke-width="1"/>
<circle cx="607" cy="948" r="3" opacity="1" fill="#F472B6" stroke="none" stroke-width="1"/>
<circle cx="586" cy="946" r="3" opacity="1" fill="#F472B6" stroke="none" stroke-width="1"/>
<circle cx="537" cy="942" r="3" opacity="1" fill="#F472B6" stroke="none" stroke-width="1"/>
<circle cx="511" cy="936" r="3" opacity="1" fill="#F472B6" stroke="none" stroke-width="1"/>
<text x="517" y="936" dy="0.5ex" text-anchor="start" font-family="sans-serif" font-size="7.258064516129032" opacity="1" fill="#F472B6" font-weight="bold">
L-1
</text>
<circle cx="423" cy="909" r="3" opacity="1" fill="#F472B6" stroke="none" stroke-width="1"/>
<text x="429" y="909" dy="0.5ex" text-anchor="start" font-family="sans-serif" font-size="7.258064516129032" opacity="1" fill="#F472B6" font-weight="bold">
L1
</text>
<circle cx="369" cy="868" r="3" opacity="1" fill="#F472B6" stroke="none" stroke-width="1"/>
<circle cx="351" cy="858" r="3" opacity="1" fill="#F472B6" stroke="none" stroke-width="1"/>
<text x="357" y="858" dy="0.5ex" text-anchor="start" font-family="sans-serif" font-size="7.258064516129032" opacity="1" fill="#F472B6" font-weight="bold">
L3
</text>
<circle cx="340" cy="834" r="3" opacity="1" fill="#F472B6" stroke="none" stroke-width="1"/>
<circle cx="229" cy="894" r="3" opacity="1" fill="#4ADE80" stroke="none" stroke-width="1"/>
<text x="235" y="894" dy="0.5ex" text-anchor="start" font-family="sans-serif" font-size="7.258064516129032" opacity="1" fill="#4ADE80" font-weight="bold">
L1
</text>
<circle cx="810" cy="963" r="3" opacity="1" fill="#C084FC" stroke="none" stroke-width="1"/>
<text x="804" y="963" dy="0.5ex" text-anchor="end" font-family="sans-serif" font-size="7.258064516129032" opacity="1" fill="#C084FC" font-weight="bold">
L1
</text>
<text x="450" y="1020" dy="0.5ex" text-anchor="middle" font-family="sans-serif" font-size="8.870967741935484" opacity="1" fill="#7D8590">
encode MB/s (log)
</text>
<text x="16" y="526" dy="0.5ex" text-anchor="middle" font-family="sans-serif" font-size="9.67741935483871" opacity="1" fill="#E6EDF3" font-weight="bold" transform="rotate(270, 16, 526)">
compression ratio
</text>
<rect x="111" y="1035" width="12" height="12" opacity="1" fill="#60A5FA" stroke="none"/>
<text x="129" y="1041" dy="0.5ex" text-anchor="start" font-family="sans-serif" font-size="8.870967741935484" opacity="1" fill="#E6EDF3">
libzstd v1.5.7 (C)
</text>
<rect x="391" y="1035" width="12" height="12" opacity="1" fill="#F87171" stroke="none"/>
<text x="409" y="1041" dy="0.5ex" text-anchor="start" font-family="sans-serif" font-size="8.870967741935484" opacity="1" fill="#E6EDF3">
zrip (safe SIMD + encapsulated unsafe)
</text>
<rect x="111" y="1055" width="12" height="12" opacity="1" fill="#F59E0B" stroke="none"/>
<text x="129" y="1061" dy="0.5ex" text-anchor="start" font-family="sans-serif" font-size="8.870967741935484" opacity="1" fill="#E6EDF3">
structured-zstd v0.0.49 (unsafe)
</text>
<rect x="391" y="1055" width="12" height="12" opacity="1" fill="#F472B6" stroke="none"/>
<text x="409" y="1061" dy="0.5ex" text-anchor="start" font-family="sans-serif" font-size="8.870967741935484" opacity="1" fill="#E6EDF3">
zrip paranoid (safe SIMD, no unsafe)
</text>
<rect x="111" y="1075" width="12" height="12" opacity="1" fill="#4ADE80" stroke="none"/>
<text x="129" y="1081" dy="0.5ex" text-anchor="start" font-family="sans-serif" font-size="8.870967741935484" opacity="1" fill="#E6EDF3">
ruzstd v0.8.3 (safe)
</text>
<rect x="391" y="1075" width="12" height="12" opacity="1" fill="#C084FC" stroke="none"/>
<text x="409" y="1081" dy="0.5ex" text-anchor="start" font-family="sans-serif" font-size="8.870967741935484" opacity="1" fill="#E6EDF3">
lz4rip 0.8.5 (encapsulated unsafe, Rust, LZ4)
</text>
</svg>
