<svg viewBox="0 0 700 483" xmlns="http://www.w3.org/2000/svg" font-family="system-ui, -apple-system, sans-serif">
<rect x="0" y="0" width="700" height="483" opacity="1" fill="#0D1117" stroke="none"/>
<text x="350" y="22" dy="0.5ex" text-anchor="middle" font-family="sans-serif" font-size="12.096774193548388" opacity="1" fill="#E6EDF3" font-weight="bold">
12-file Silesia: Pipeline @100 MB/s geomean, Level 1 (lower is better)
</text>
<text x="350" y="40" dy="0.5ex" text-anchor="middle" font-family="sans-serif" font-size="8.870967741935484" opacity="1" fill="#7D8590">
Apple M5, 10 cores
</text>
<text x="22" y="188" dy="0.5ex" text-anchor="middle" font-family="sans-serif" font-size="9.67741935483871" opacity="1" fill="#E6EDF3" font-weight="bold" transform="rotate(270, 22, 188)">
seconds / GB
</text>
<polyline fill="none" opacity="1" stroke="#21262D" stroke-width="1" points="70,228 680,228 "/>
<text x="62" y="228" dy="0.5ex" text-anchor="end" font-family="sans-serif" font-size="8.870967741935484" opacity="1" fill="#7D8590">
5.0
</text>
<polyline fill="none" opacity="1" stroke="#21262D" stroke-width="1" points="70,143 680,143 "/>
<text x="62" y="143" dy="0.5ex" text-anchor="end" font-family="sans-serif" font-size="8.870967741935484" opacity="1" fill="#7D8590">
10.0
</text>
<polyline fill="none" opacity="1" stroke="#30363D" stroke-width="2" points="70,313 680,313 "/>
<rect x="111" y="293" width="80" height="20" opacity="1" fill="#60A5FA" stroke="none"/>
<rect x="111" y="235" width="80" height="58" opacity="1" fill="#4680C4" stroke="none"/>
<rect x="111" y="227" width="80" height="8" opacity="1" fill="#60A5FA" stroke="none"/>
<text x="151" y="329" dy="0.5ex" text-anchor="middle" font-family="sans-serif" font-size="8.870967741935484" opacity="1" fill="#E6EDF3" font-weight="bold">
C zstd
</text>
<rect x="223" y="277" width="80" height="36" opacity="1" fill="#F87171" stroke="none"/>
<rect x="223" y="214" width="80" height="63" opacity="1" fill="#C45050" stroke="none"/>
<rect x="223" y="200" width="80" height="14" opacity="1" fill="#F87171" stroke="none"/>
<text x="263" y="329" dy="0.5ex" text-anchor="middle" font-family="sans-serif" font-size="8.870967741935484" opacity="1" fill="#E6EDF3" font-weight="bold">
zrip
</text>
<rect x="335" y="280" width="80" height="33" opacity="1" fill="#F59E0B" stroke="none"/>
<rect x="335" y="221" width="80" height="59" opacity="1" fill="#C47D08" stroke="none"/>
<rect x="335" y="209" width="80" height="12" opacity="1" fill="#F59E0B" stroke="none"/>
<text x="375" y="329" dy="0.5ex" text-anchor="middle" font-family="sans-serif" font-size="8.870967741935484" opacity="1" fill="#E6EDF3" font-weight="bold">
structured-zstd
</text>
<rect x="447" y="271" width="80" height="42" opacity="1" fill="#F472B6" stroke="none"/>
<rect x="447" y="208" width="80" height="63" opacity="1" fill="#C05A92" stroke="none"/>
<rect x="447" y="187" width="80" height="21" opacity="1" fill="#F472B6" stroke="none"/>
<text x="487" y="329" dy="0.5ex" text-anchor="middle" font-family="sans-serif" font-size="8.870967741935484" opacity="1" fill="#E6EDF3" font-weight="bold">
zrip paranoid
</text>
<rect x="559" y="201" width="80" height="112" opacity="1" fill="#4ADE80" stroke="none"/>
<rect x="559" y="126" width="80" height="75" opacity="1" fill="#3AAF60" stroke="none"/>
<rect x="559" y="96" width="80" height="30" opacity="1" fill="#4ADE80" stroke="none"/>
<text x="599" y="329" dy="0.5ex" text-anchor="middle" font-family="sans-serif" font-size="8.870967741935484" opacity="1" fill="#E6EDF3" font-weight="bold">
ruzstd
</text>
<rect x="115" y="359" width="12" height="12" opacity="1" fill="#60A5FA" stroke="none"/>
<text x="133" y="365" dy="0.5ex" text-anchor="start" font-family="sans-serif" font-size="8.870967741935484" opacity="1" fill="#E6EDF3">
libzstd v1.5.7 (C)
</text>
<rect x="115" y="379" width="12" height="12" opacity="1" fill="#F87171" stroke="none"/>
<text x="133" y="385" dy="0.5ex" text-anchor="start" font-family="sans-serif" font-size="8.870967741935484" opacity="1" fill="#E6EDF3">
zrip (safe SIMD + encapsulated unsafe)
</text>
<rect x="115" y="399" width="12" height="12" opacity="1" fill="#F59E0B" stroke="none"/>
<text x="133" y="405" dy="0.5ex" text-anchor="start" font-family="sans-serif" font-size="8.870967741935484" opacity="1" fill="#E6EDF3">
structured-zstd v0.0.49 (unsafe)
</text>
<rect x="385" y="359" width="12" height="12" opacity="1" fill="#F472B6" stroke="none"/>
<text x="403" y="365" dy="0.5ex" text-anchor="start" font-family="sans-serif" font-size="8.870967741935484" opacity="1" fill="#E6EDF3">
zrip paranoid (safe SIMD, no unsafe)
</text>
<rect x="385" y="379" width="12" height="12" opacity="1" fill="#4ADE80" stroke="none"/>
<text x="403" y="385" dy="0.5ex" text-anchor="start" font-family="sans-serif" font-size="8.870967741935484" opacity="1" fill="#E6EDF3">
ruzstd v0.8.3 (safe)
</text>
<text x="140" y="443" dy="0.5ex" text-anchor="start" font-family="sans-serif" font-size="8.064516129032258" opacity="1" fill="#E6EDF3">
bright = compress + decompress
</text>
<text x="380" y="443" dy="0.5ex" text-anchor="start" font-family="sans-serif" font-size="8.064516129032258" opacity="1" fill="#7D8590">
dim = transfer @100 MB/s
</text>
</svg>
