<svg xmlns="http://www.w3.org/2000/svg" viewBox="0 0 700 429" font-family="system-ui, -apple-system, sans-serif">
  <rect width="700" height="429" fill="#0d1117"/>
  <text x="350.0" y="22" text-anchor="middle" fill="#e6edf3" font-size="14" font-weight="700">zstd Pipeline @100 MB/s: Corpus geomean, Level 1 (lower is better)</text>
  <text x="350.0" y="38" text-anchor="middle" fill="#7d8590" font-size="10">Apple M4</text>
  <text x="22" y="180.0" text-anchor="middle" fill="#e6edf3" font-size="11" font-weight="600" transform="rotate(-90,22,180.0)">seconds / GB</text>
  <line x1="70" y1="223.7" x2="680" y2="223.7" stroke="#21262d" stroke-width="1"/>
  <text x="62" y="223.7" text-anchor="end" dominant-baseline="middle" fill="#7d8590" font-size="10">5.0</text>
  <line x1="70" y1="142.4" x2="680" y2="142.4" stroke="#21262d" stroke-width="1"/>
  <text x="62" y="142.4" text-anchor="end" dominant-baseline="middle" fill="#7d8590" font-size="10">10.0</text>
  <line x1="70" y1="61.1" x2="680" y2="61.1" stroke="#21262d" stroke-width="1"/>
  <text x="62" y="61.1" text-anchor="end" dominant-baseline="middle" fill="#7d8590" font-size="10">15.0</text>
  <line x1="70" y1="305" x2="680" y2="305" stroke="#30363d" stroke-width="1.5"/>
  <rect x="111.0" y="285.0" width="80.0" height="20.0" fill="#60a5fa" rx="1"/>
  <rect x="111.0" y="225.8" width="80.0" height="59.2" fill="#4680c4" rx="1"/>
  <rect x="111.0" y="218.1" width="80.0" height="7.7" fill="#60a5fa" rx="1"/>
  <text x="151.0" y="321" text-anchor="middle" fill="#e6edf3" font-size="10" font-weight="600">C zstd</text>
  <rect x="223.0" y="272.4" width="80.0" height="32.6" fill="#f87171" rx="1"/>
  <rect x="223.0" y="208.0" width="80.0" height="64.4" fill="#c45050" rx="1"/>
  <rect x="223.0" y="194.6" width="80.0" height="13.3" fill="#f87171" rx="1"/>
  <text x="263.0" y="321" text-anchor="middle" fill="#e6edf3" font-size="10" font-weight="600">zrip</text>
  <rect x="335.0" y="270.2" width="80.0" height="34.8" fill="#f59e0b" rx="1"/>
  <rect x="335.0" y="210.9" width="80.0" height="59.3" fill="#c47d08" rx="1"/>
  <rect x="335.0" y="198.6" width="80.0" height="12.3" fill="#f59e0b" rx="1"/>
  <text x="375.0" y="321" text-anchor="middle" fill="#e6edf3" font-size="10" font-weight="600">structured-zstd</text>
  <rect x="447.0" y="257.2" width="80.0" height="47.8" fill="#f472b6" rx="1"/>
  <rect x="447.0" y="192.8" width="80.0" height="64.4" fill="#c05a92" rx="1"/>
  <rect x="447.0" y="171.1" width="80.0" height="21.7" fill="#f472b6" rx="1"/>
  <text x="487.0" y="321" text-anchor="middle" fill="#e6edf3" font-size="10" font-weight="600">zrip paranoid</text>
  <rect x="559.0" y="191.3" width="80.0" height="113.7" fill="#4ade80" rx="1"/>
  <rect x="559.0" y="117.8" width="80.0" height="73.4" fill="#3aaf60" rx="1"/>
  <rect x="559.0" y="87.6" width="80.0" height="30.2" fill="#4ade80" rx="1"/>
  <text x="599.0" y="321" text-anchor="middle" fill="#e6edf3" font-size="10" font-weight="600">ruzstd</text>
  <rect x="130" y="335" width="12" height="12" fill="#60a5fa" rx="2"/>
  <text x="148" y="345" fill="#e6edf3" font-size="10" font-weight="500">C zstd 1.5.7 (libzstd)</text>
  <rect x="130" y="353" width="12" height="12" fill="#f87171" rx="2"/>
  <text x="148" y="363" fill="#e6edf3" font-size="10" font-weight="500">zrip (encapsulated unsafe, Rust)</text>
  <rect x="130" y="371" width="12" height="12" fill="#f59e0b" rx="2"/>
  <text x="148" y="381" fill="#e6edf3" font-size="10" font-weight="500">structured-zstd 0.0.44 (unsafe Rust)</text>
  <rect x="380" y="335" width="12" height="12" fill="#f472b6" rx="2"/>
  <text x="398" y="345" fill="#e6edf3" font-size="10" font-weight="500">zrip paranoid (safe Rust, no unsafe)</text>
  <rect x="380" y="353" width="12" height="12" fill="#4ade80" rx="2"/>
  <text x="398" y="363" fill="#e6edf3" font-size="10" font-weight="500">ruzstd 0.8.2 (safe Rust)</text>
  <text x="140" y="406" fill="#e6edf3" font-size="9">bright = compress + decompress</text>
  <text x="380" y="406" fill="#7d8590" font-size="9">dim = transfer @100 MB/s</text>
</svg>
