<svg xmlns="http://www.w3.org/2000/svg" viewBox="0 0 700 401" font-family="system-ui, -apple-system, sans-serif">
  <rect width="700" height="401" fill="#0d1117"/>
  <text x="350.0" y="22" text-anchor="middle" fill="#e6edf3" font-size="14" font-weight="700">zstd Pipeline @100 MB/s: Corpus geomean, Level 1 (lower is better)</text>
  <text x="22" y="170.0" text-anchor="middle" fill="#e6edf3" font-size="11" font-weight="600" transform="rotate(-90,22,170.0)">seconds / GB</text>
  <line x1="70" y1="213.7" x2="680" y2="213.7" stroke="#21262d" stroke-width="1"/>
  <text x="62" y="213.7" text-anchor="end" dominant-baseline="middle" fill="#7d8590" font-size="10">5.0</text>
  <line x1="70" y1="132.5" x2="680" y2="132.5" stroke="#21262d" stroke-width="1"/>
  <text x="62" y="132.5" text-anchor="end" dominant-baseline="middle" fill="#7d8590" font-size="10">10.0</text>
  <line x1="70" y1="51.2" x2="680" y2="51.2" stroke="#21262d" stroke-width="1"/>
  <text x="62" y="51.2" text-anchor="end" dominant-baseline="middle" fill="#7d8590" font-size="10">15.0</text>
  <line x1="70" y1="295" x2="680" y2="295" stroke="#30363d" stroke-width="1.5"/>
  <rect x="167.0" y="274.9" width="80.0" height="20.1" fill="#60a5fa" rx="1"/>
  <rect x="167.0" y="215.7" width="80.0" height="59.2" fill="#4680c4" rx="1"/>
  <rect x="167.0" y="208.0" width="80.0" height="7.7" fill="#60a5fa" rx="1"/>
  <text x="207.0" y="311" text-anchor="middle" fill="#e6edf3" font-size="10" font-weight="600">C zstd</text>
  <rect x="279.0" y="262.8" width="80.0" height="32.2" fill="#f87171" rx="1"/>
  <rect x="279.0" y="198.5" width="80.0" height="64.4" fill="#c45050" rx="1"/>
  <rect x="279.0" y="186.0" width="80.0" height="12.4" fill="#f87171" rx="1"/>
  <text x="319.0" y="311" text-anchor="middle" fill="#e6edf3" font-size="10" font-weight="600">zrip</text>
  <rect x="391.0" y="259.9" width="80.0" height="35.1" fill="#f59e0b" rx="1"/>
  <rect x="391.0" y="200.6" width="80.0" height="59.3" fill="#c47d08" rx="1"/>
  <rect x="391.0" y="188.3" width="80.0" height="12.4" fill="#f59e0b" rx="1"/>
  <text x="431.0" y="311" text-anchor="middle" fill="#e6edf3" font-size="10" font-weight="600">structured-zstd</text>
  <rect x="503.0" y="181.1" width="80.0" height="113.9" fill="#4ade80" rx="1"/>
  <rect x="503.0" y="107.7" width="80.0" height="73.4" fill="#3aaf60" rx="1"/>
  <rect x="503.0" y="77.6" width="80.0" height="30.1" fill="#4ade80" rx="1"/>
  <text x="543.0" y="311" text-anchor="middle" fill="#e6edf3" font-size="10" font-weight="600">ruzstd</text>
  <rect x="150" y="325" width="12" height="12" fill="#60a5fa" rx="2"/>
  <text x="168" y="335" fill="#e6edf3" font-size="10" font-weight="500">C zstd 1.5.7 (libzstd)</text>
  <rect x="150" y="343" width="12" height="12" fill="#f87171" rx="2"/>
  <text x="168" y="353" fill="#e6edf3" font-size="10" font-weight="500">zrip (safe API, Rust)</text>
  <rect x="360" y="325" width="12" height="12" fill="#f59e0b" rx="2"/>
  <text x="378" y="335" fill="#e6edf3" font-size="10" font-weight="500">structured-zstd 0.0.41 (unsafe Rust)</text>
  <rect x="360" y="343" width="12" height="12" fill="#4ade80" rx="2"/>
  <text x="378" y="353" fill="#e6edf3" font-size="10" font-weight="500">ruzstd 0.8.2 (safe Rust)</text>
  <text x="140" y="378" fill="#e6edf3" font-size="9">bright = compress + decompress</text>
  <text x="380" y="378" fill="#7d8590" font-size="9">dim = transfer @100 MB/s</text>
</svg>
