<svg xmlns="http://www.w3.org/2000/svg" viewBox="0 0 970 605" font-family="system-ui, -apple-system, sans-serif">
  <rect width="970" height="605" fill="#0d1117"/>
  <text x="485.0" y="18" text-anchor="middle" fill="#e6edf3" font-size="14" font-weight="700">Dictionary Compression: Throughput and Ratio vs Input Size</text>
  <text x="485.0" y="34" text-anchor="middle" fill="#7d8590" font-size="10">Intel Core i7-8700B @ 3.20GHz, performance governor, turbo off</text>
  <text x="20" y="155.0" text-anchor="middle" fill="#e6edf3" font-size="11" font-weight="600" transform="rotate(-90,20,155.0)">encode MB/s</text>
  <rect x="90" y="55" width="220" height="200" fill="#161b22" rx="4"/>
  <text x="200.0" y="47" text-anchor="middle" fill="#e6edf3" font-size="12" font-weight="600">dickens</text>
  <line x1="104.0" y1="55" x2="104.0" y2="255" stroke="#21262d" stroke-width="1"/>
  <text x="104.0" y="269" text-anchor="middle" fill="#7d8590" font-size="9">2K</text>
  <line x1="166.3" y1="55" x2="166.3" y2="255" stroke="#21262d" stroke-width="1"/>
  <text x="166.3" y="269" text-anchor="middle" fill="#7d8590" font-size="9">8K</text>
  <line x1="228.7" y1="55" x2="228.7" y2="255" stroke="#21262d" stroke-width="1"/>
  <text x="228.7" y="269" text-anchor="middle" fill="#7d8590" font-size="9">32K</text>
  <line x1="291.0" y1="55" x2="291.0" y2="255" stroke="#21262d" stroke-width="1"/>
  <text x="291.0" y="269" text-anchor="middle" fill="#7d8590" font-size="9">128K</text>
  <line x1="90" y1="215.3" x2="310" y2="215.3" stroke="#21262d" stroke-width="1"/>
  <text x="82" y="215.3" text-anchor="end" dominant-baseline="middle" fill="#7d8590" font-size="9">50</text>
  <line x1="90" y1="175.7" x2="310" y2="175.7" stroke="#21262d" stroke-width="1"/>
  <text x="82" y="175.7" text-anchor="end" dominant-baseline="middle" fill="#7d8590" font-size="9">100</text>
  <line x1="90" y1="136.0" x2="310" y2="136.0" stroke="#21262d" stroke-width="1"/>
  <text x="82" y="136.0" text-anchor="end" dominant-baseline="middle" fill="#7d8590" font-size="9">150</text>
  <line x1="90" y1="96.3" x2="310" y2="96.3" stroke="#21262d" stroke-width="1"/>
  <text x="82" y="96.3" text-anchor="end" dominant-baseline="middle" fill="#7d8590" font-size="9">200</text>
  <path d="M104.0,116.4L166.3,116.3L228.7,136.2L291.0,124.0" fill="none" stroke="#60a5fa" stroke-width="1.5" stroke-opacity="1"/>
  <circle cx="104.0" cy="116.4" r="3" fill="#60a5fa" stroke="#0d1117" stroke-width="1" opacity="1"/>
  <circle cx="166.3" cy="116.3" r="3" fill="#60a5fa" stroke="#0d1117" stroke-width="1" opacity="1"/>
  <circle cx="228.7" cy="136.2" r="3" fill="#60a5fa" stroke="#0d1117" stroke-width="1" opacity="1"/>
  <circle cx="291.0" cy="124.0" r="3" fill="#60a5fa" stroke="#0d1117" stroke-width="1" opacity="1"/>
  <text x="297.0" y="127.0" text-anchor="start" fill="#60a5fa" font-size="8" font-weight="600">L1</text>
  <path d="M104.0,155.8L166.3,176.0L228.7,188.1L291.0,179.6" fill="none" stroke="#60a5fa" stroke-width="1.5" stroke-dasharray="8,4" stroke-opacity="1"/>
  <circle cx="104.0" cy="155.8" r="3" fill="#60a5fa" stroke="#0d1117" stroke-width="1" opacity="1"/>
  <circle cx="166.3" cy="176.0" r="3" fill="#60a5fa" stroke="#0d1117" stroke-width="1" opacity="1"/>
  <circle cx="228.7" cy="188.1" r="3" fill="#60a5fa" stroke="#0d1117" stroke-width="1" opacity="1"/>
  <circle cx="291.0" cy="179.6" r="3" fill="#60a5fa" stroke="#0d1117" stroke-width="1" opacity="1"/>
  <text x="297.0" y="182.6" text-anchor="start" fill="#60a5fa" font-size="8" font-weight="600">L3</text>
  <path d="M104.0,175.8L166.3,149.0L228.7,140.1L291.0,138.3" fill="none" stroke="#f87171" stroke-width="1.5" stroke-opacity="1"/>
  <circle cx="104.0" cy="175.8" r="3" fill="#f87171" stroke="#0d1117" stroke-width="1" opacity="1"/>
  <circle cx="166.3" cy="149.0" r="3" fill="#f87171" stroke="#0d1117" stroke-width="1" opacity="1"/>
  <circle cx="228.7" cy="140.1" r="3" fill="#f87171" stroke="#0d1117" stroke-width="1" opacity="1"/>
  <circle cx="291.0" cy="138.3" r="3" fill="#f87171" stroke="#0d1117" stroke-width="1" opacity="1"/>
  <text x="297.0" y="141.3" text-anchor="start" fill="#f87171" font-size="8" font-weight="600">L1</text>
  <path d="M104.0,190.7L166.3,194.9L228.7,180.7L291.0,180.9" fill="none" stroke="#f87171" stroke-width="1.5" stroke-dasharray="8,4" stroke-opacity="1"/>
  <circle cx="104.0" cy="190.7" r="3" fill="#f87171" stroke="#0d1117" stroke-width="1" opacity="1"/>
  <circle cx="166.3" cy="194.9" r="3" fill="#f87171" stroke="#0d1117" stroke-width="1" opacity="1"/>
  <circle cx="228.7" cy="180.7" r="3" fill="#f87171" stroke="#0d1117" stroke-width="1" opacity="1"/>
  <circle cx="291.0" cy="180.9" r="3" fill="#f87171" stroke="#0d1117" stroke-width="1" opacity="1"/>
  <text x="297.0" y="183.9" text-anchor="start" fill="#f87171" font-size="8" font-weight="600">L3</text>
  <path d="M104.0,121.3L166.3,82.9L228.7,81.1L291.0,94.3" fill="none" stroke="#60a5fa" stroke-width="1.5" stroke-dasharray="4,3" stroke-opacity="0.4"/>
  <circle cx="104.0" cy="121.3" r="2" fill="#60a5fa" stroke="#0d1117" stroke-width="1" opacity="0.4"/>
  <circle cx="166.3" cy="82.9" r="2" fill="#60a5fa" stroke="#0d1117" stroke-width="1" opacity="0.4"/>
  <circle cx="228.7" cy="81.1" r="2" fill="#60a5fa" stroke="#0d1117" stroke-width="1" opacity="0.4"/>
  <circle cx="291.0" cy="94.3" r="2" fill="#60a5fa" stroke="#0d1117" stroke-width="1" opacity="0.4"/>
  <path d="M104.0,151.8L166.3,132.8L228.7,144.6L291.0,149.8" fill="none" stroke="#60a5fa" stroke-width="1.5" stroke-dasharray="4,3" stroke-opacity="0.4"/>
  <circle cx="104.0" cy="151.8" r="2" fill="#60a5fa" stroke="#0d1117" stroke-width="1" opacity="0.4"/>
  <circle cx="166.3" cy="132.8" r="2" fill="#60a5fa" stroke="#0d1117" stroke-width="1" opacity="0.4"/>
  <circle cx="228.7" cy="144.6" r="2" fill="#60a5fa" stroke="#0d1117" stroke-width="1" opacity="0.4"/>
  <circle cx="291.0" cy="149.8" r="2" fill="#60a5fa" stroke="#0d1117" stroke-width="1" opacity="0.4"/>
  <path d="M104.0,179.3L166.3,120.0L228.7,134.2L291.0,136.3" fill="none" stroke="#f87171" stroke-width="1.5" stroke-dasharray="4,3" stroke-opacity="0.4"/>
  <circle cx="104.0" cy="179.3" r="2" fill="#f87171" stroke="#0d1117" stroke-width="1" opacity="0.4"/>
  <circle cx="166.3" cy="120.0" r="2" fill="#f87171" stroke="#0d1117" stroke-width="1" opacity="0.4"/>
  <circle cx="228.7" cy="134.2" r="2" fill="#f87171" stroke="#0d1117" stroke-width="1" opacity="0.4"/>
  <circle cx="291.0" cy="136.3" r="2" fill="#f87171" stroke="#0d1117" stroke-width="1" opacity="0.4"/>
  <path d="M104.0,191.9L166.3,158.1L228.7,173.1L291.0,172.9" fill="none" stroke="#f87171" stroke-width="1.5" stroke-dasharray="4,3" stroke-opacity="0.4"/>
  <circle cx="104.0" cy="191.9" r="2" fill="#f87171" stroke="#0d1117" stroke-width="1" opacity="0.4"/>
  <circle cx="166.3" cy="158.1" r="2" fill="#f87171" stroke="#0d1117" stroke-width="1" opacity="0.4"/>
  <circle cx="228.7" cy="173.1" r="2" fill="#f87171" stroke="#0d1117" stroke-width="1" opacity="0.4"/>
  <circle cx="291.0" cy="172.9" r="2" fill="#f87171" stroke="#0d1117" stroke-width="1" opacity="0.4"/>
  <rect x="380" y="55" width="220" height="200" fill="#161b22" rx="4"/>
  <text x="490.0" y="47" text-anchor="middle" fill="#e6edf3" font-size="12" font-weight="600">hdfs</text>
  <line x1="394.0" y1="55" x2="394.0" y2="255" stroke="#21262d" stroke-width="1"/>
  <text x="394.0" y="269" text-anchor="middle" fill="#7d8590" font-size="9">2K</text>
  <line x1="456.3" y1="55" x2="456.3" y2="255" stroke="#21262d" stroke-width="1"/>
  <text x="456.3" y="269" text-anchor="middle" fill="#7d8590" font-size="9">8K</text>
  <line x1="518.7" y1="55" x2="518.7" y2="255" stroke="#21262d" stroke-width="1"/>
  <text x="518.7" y="269" text-anchor="middle" fill="#7d8590" font-size="9">32K</text>
  <line x1="581.0" y1="55" x2="581.0" y2="255" stroke="#21262d" stroke-width="1"/>
  <text x="581.0" y="269" text-anchor="middle" fill="#7d8590" font-size="9">128K</text>
  <line x1="380" y1="224.2" x2="600" y2="224.2" stroke="#21262d" stroke-width="1"/>
  <text x="372" y="224.2" text-anchor="end" dominant-baseline="middle" fill="#7d8590" font-size="9">200</text>
  <line x1="380" y1="193.4" x2="600" y2="193.4" stroke="#21262d" stroke-width="1"/>
  <text x="372" y="193.4" text-anchor="end" dominant-baseline="middle" fill="#7d8590" font-size="9">400</text>
  <line x1="380" y1="162.6" x2="600" y2="162.6" stroke="#21262d" stroke-width="1"/>
  <text x="372" y="162.6" text-anchor="end" dominant-baseline="middle" fill="#7d8590" font-size="9">600</text>
  <line x1="380" y1="131.8" x2="600" y2="131.8" stroke="#21262d" stroke-width="1"/>
  <text x="372" y="131.8" text-anchor="end" dominant-baseline="middle" fill="#7d8590" font-size="9">800</text>
  <line x1="380" y1="101.1" x2="600" y2="101.1" stroke="#21262d" stroke-width="1"/>
  <text x="372" y="101.1" text-anchor="end" dominant-baseline="middle" fill="#7d8590" font-size="9">1000</text>
  <line x1="380" y1="70.3" x2="600" y2="70.3" stroke="#21262d" stroke-width="1"/>
  <text x="372" y="70.3" text-anchor="end" dominant-baseline="middle" fill="#7d8590" font-size="9">1200</text>
  <path d="M394.0,174.3L456.3,108.8L518.7,111.8L581.0,128.4" fill="none" stroke="#60a5fa" stroke-width="1.5" stroke-opacity="1"/>
  <circle cx="394.0" cy="174.3" r="3" fill="#60a5fa" stroke="#0d1117" stroke-width="1" opacity="1"/>
  <circle cx="456.3" cy="108.8" r="3" fill="#60a5fa" stroke="#0d1117" stroke-width="1" opacity="1"/>
  <circle cx="518.7" cy="111.8" r="3" fill="#60a5fa" stroke="#0d1117" stroke-width="1" opacity="1"/>
  <circle cx="581.0" cy="128.4" r="3" fill="#60a5fa" stroke="#0d1117" stroke-width="1" opacity="1"/>
  <text x="587.0" y="131.4" text-anchor="start" fill="#60a5fa" font-size="8" font-weight="600">L1</text>
  <path d="M394.0,181.5L456.3,131.4L518.7,168.7L581.0,158.3" fill="none" stroke="#60a5fa" stroke-width="1.5" stroke-dasharray="8,4" stroke-opacity="1"/>
  <circle cx="394.0" cy="181.5" r="3" fill="#60a5fa" stroke="#0d1117" stroke-width="1" opacity="1"/>
  <circle cx="456.3" cy="131.4" r="3" fill="#60a5fa" stroke="#0d1117" stroke-width="1" opacity="1"/>
  <circle cx="518.7" cy="168.7" r="3" fill="#60a5fa" stroke="#0d1117" stroke-width="1" opacity="1"/>
  <circle cx="581.0" cy="158.3" r="3" fill="#60a5fa" stroke="#0d1117" stroke-width="1" opacity="1"/>
  <text x="587.0" y="161.3" text-anchor="start" fill="#60a5fa" font-size="8" font-weight="600">L3</text>
  <path d="M394.0,223.0L456.3,199.9L518.7,153.6L581.0,137.6" fill="none" stroke="#f87171" stroke-width="1.5" stroke-opacity="1"/>
  <circle cx="394.0" cy="223.0" r="3" fill="#f87171" stroke="#0d1117" stroke-width="1" opacity="1"/>
  <circle cx="456.3" cy="199.9" r="3" fill="#f87171" stroke="#0d1117" stroke-width="1" opacity="1"/>
  <circle cx="518.7" cy="153.6" r="3" fill="#f87171" stroke="#0d1117" stroke-width="1" opacity="1"/>
  <circle cx="581.0" cy="137.6" r="3" fill="#f87171" stroke="#0d1117" stroke-width="1" opacity="1"/>
  <text x="587.0" y="140.6" text-anchor="start" fill="#f87171" font-size="8" font-weight="600">L1</text>
  <path d="M394.0,207.5L456.3,194.4L518.7,171.7L581.0,178.5" fill="none" stroke="#f87171" stroke-width="1.5" stroke-dasharray="8,4" stroke-opacity="1"/>
  <circle cx="394.0" cy="207.5" r="3" fill="#f87171" stroke="#0d1117" stroke-width="1" opacity="1"/>
  <circle cx="456.3" cy="194.4" r="3" fill="#f87171" stroke="#0d1117" stroke-width="1" opacity="1"/>
  <circle cx="518.7" cy="171.7" r="3" fill="#f87171" stroke="#0d1117" stroke-width="1" opacity="1"/>
  <circle cx="581.0" cy="178.5" r="3" fill="#f87171" stroke="#0d1117" stroke-width="1" opacity="1"/>
  <text x="587.0" y="181.5" text-anchor="start" fill="#f87171" font-size="8" font-weight="600">L3</text>
  <path d="M394.0,212.3L456.3,154.4L518.7,89.9L581.0,81.1" fill="none" stroke="#60a5fa" stroke-width="1.5" stroke-dasharray="4,3" stroke-opacity="0.4"/>
  <circle cx="394.0" cy="212.3" r="2" fill="#60a5fa" stroke="#0d1117" stroke-width="1" opacity="0.4"/>
  <circle cx="456.3" cy="154.4" r="2" fill="#60a5fa" stroke="#0d1117" stroke-width="1" opacity="0.4"/>
  <circle cx="518.7" cy="89.9" r="2" fill="#60a5fa" stroke="#0d1117" stroke-width="1" opacity="0.4"/>
  <circle cx="581.0" cy="81.1" r="2" fill="#60a5fa" stroke="#0d1117" stroke-width="1" opacity="0.4"/>
  <path d="M394.0,219.2L456.3,171.8L518.7,127.8L581.0,128.7" fill="none" stroke="#60a5fa" stroke-width="1.5" stroke-dasharray="4,3" stroke-opacity="0.4"/>
  <circle cx="394.0" cy="219.2" r="2" fill="#60a5fa" stroke="#0d1117" stroke-width="1" opacity="0.4"/>
  <circle cx="456.3" cy="171.8" r="2" fill="#60a5fa" stroke="#0d1117" stroke-width="1" opacity="0.4"/>
  <circle cx="518.7" cy="127.8" r="2" fill="#60a5fa" stroke="#0d1117" stroke-width="1" opacity="0.4"/>
  <circle cx="581.0" cy="128.7" r="2" fill="#60a5fa" stroke="#0d1117" stroke-width="1" opacity="0.4"/>
  <path d="M394.0,224.5L456.3,198.6L518.7,149.0L581.0,133.0" fill="none" stroke="#f87171" stroke-width="1.5" stroke-dasharray="4,3" stroke-opacity="0.4"/>
  <circle cx="394.0" cy="224.5" r="2" fill="#f87171" stroke="#0d1117" stroke-width="1" opacity="0.4"/>
  <circle cx="456.3" cy="198.6" r="2" fill="#f87171" stroke="#0d1117" stroke-width="1" opacity="0.4"/>
  <circle cx="518.7" cy="149.0" r="2" fill="#f87171" stroke="#0d1117" stroke-width="1" opacity="0.4"/>
  <circle cx="581.0" cy="133.0" r="2" fill="#f87171" stroke="#0d1117" stroke-width="1" opacity="0.4"/>
  <path d="M394.0,227.8L456.3,204.8L518.7,172.6L581.0,164.1" fill="none" stroke="#f87171" stroke-width="1.5" stroke-dasharray="4,3" stroke-opacity="0.4"/>
  <circle cx="394.0" cy="227.8" r="2" fill="#f87171" stroke="#0d1117" stroke-width="1" opacity="0.4"/>
  <circle cx="456.3" cy="204.8" r="2" fill="#f87171" stroke="#0d1117" stroke-width="1" opacity="0.4"/>
  <circle cx="518.7" cy="172.6" r="2" fill="#f87171" stroke="#0d1117" stroke-width="1" opacity="0.4"/>
  <circle cx="581.0" cy="164.1" r="2" fill="#f87171" stroke="#0d1117" stroke-width="1" opacity="0.4"/>
  <rect x="670" y="55" width="220" height="200" fill="#161b22" rx="4"/>
  <text x="780.0" y="47" text-anchor="middle" fill="#e6edf3" font-size="12" font-weight="600">xml collection</text>
  <line x1="684.0" y1="55" x2="684.0" y2="255" stroke="#21262d" stroke-width="1"/>
  <text x="684.0" y="269" text-anchor="middle" fill="#7d8590" font-size="9">2K</text>
  <line x1="746.3" y1="55" x2="746.3" y2="255" stroke="#21262d" stroke-width="1"/>
  <text x="746.3" y="269" text-anchor="middle" fill="#7d8590" font-size="9">8K</text>
  <line x1="808.7" y1="55" x2="808.7" y2="255" stroke="#21262d" stroke-width="1"/>
  <text x="808.7" y="269" text-anchor="middle" fill="#7d8590" font-size="9">32K</text>
  <line x1="871.0" y1="55" x2="871.0" y2="255" stroke="#21262d" stroke-width="1"/>
  <text x="871.0" y="269" text-anchor="middle" fill="#7d8590" font-size="9">128K</text>
  <line x1="670" y1="220.9" x2="890" y2="220.9" stroke="#21262d" stroke-width="1"/>
  <text x="662" y="220.9" text-anchor="end" dominant-baseline="middle" fill="#7d8590" font-size="9">200</text>
  <line x1="670" y1="186.8" x2="890" y2="186.8" stroke="#21262d" stroke-width="1"/>
  <text x="662" y="186.8" text-anchor="end" dominant-baseline="middle" fill="#7d8590" font-size="9">400</text>
  <line x1="670" y1="152.7" x2="890" y2="152.7" stroke="#21262d" stroke-width="1"/>
  <text x="662" y="152.7" text-anchor="end" dominant-baseline="middle" fill="#7d8590" font-size="9">600</text>
  <line x1="670" y1="118.6" x2="890" y2="118.6" stroke="#21262d" stroke-width="1"/>
  <text x="662" y="118.6" text-anchor="end" dominant-baseline="middle" fill="#7d8590" font-size="9">800</text>
  <line x1="670" y1="84.5" x2="890" y2="84.5" stroke="#21262d" stroke-width="1"/>
  <text x="662" y="84.5" text-anchor="end" dominant-baseline="middle" fill="#7d8590" font-size="9">1000</text>
  <path d="M684.0,215.5L746.3,197.6L808.7,169.6L871.0,114.4" fill="none" stroke="#60a5fa" stroke-width="1.5" stroke-opacity="1"/>
  <circle cx="684.0" cy="215.5" r="3" fill="#60a5fa" stroke="#0d1117" stroke-width="1" opacity="1"/>
  <circle cx="746.3" cy="197.6" r="3" fill="#60a5fa" stroke="#0d1117" stroke-width="1" opacity="1"/>
  <circle cx="808.7" cy="169.6" r="3" fill="#60a5fa" stroke="#0d1117" stroke-width="1" opacity="1"/>
  <circle cx="871.0" cy="114.4" r="3" fill="#60a5fa" stroke="#0d1117" stroke-width="1" opacity="1"/>
  <text x="877.0" y="117.4" text-anchor="start" fill="#60a5fa" font-size="8" font-weight="600">L1</text>
  <path d="M684.0,221.1L746.3,205.7L808.7,187.8L871.0,131.7" fill="none" stroke="#60a5fa" stroke-width="1.5" stroke-dasharray="8,4" stroke-opacity="1"/>
  <circle cx="684.0" cy="221.1" r="3" fill="#60a5fa" stroke="#0d1117" stroke-width="1" opacity="1"/>
  <circle cx="746.3" cy="205.7" r="3" fill="#60a5fa" stroke="#0d1117" stroke-width="1" opacity="1"/>
  <circle cx="808.7" cy="187.8" r="3" fill="#60a5fa" stroke="#0d1117" stroke-width="1" opacity="1"/>
  <circle cx="871.0" cy="131.7" r="3" fill="#60a5fa" stroke="#0d1117" stroke-width="1" opacity="1"/>
  <text x="877.0" y="134.7" text-anchor="start" fill="#60a5fa" font-size="8" font-weight="600">L3</text>
  <path d="M684.0,235.0L746.3,221.2L808.7,192.6L871.0,146.1" fill="none" stroke="#f87171" stroke-width="1.5" stroke-opacity="1"/>
  <circle cx="684.0" cy="235.0" r="3" fill="#f87171" stroke="#0d1117" stroke-width="1" opacity="1"/>
  <circle cx="746.3" cy="221.2" r="3" fill="#f87171" stroke="#0d1117" stroke-width="1" opacity="1"/>
  <circle cx="808.7" cy="192.6" r="3" fill="#f87171" stroke="#0d1117" stroke-width="1" opacity="1"/>
  <circle cx="871.0" cy="146.1" r="3" fill="#f87171" stroke="#0d1117" stroke-width="1" opacity="1"/>
  <text x="877.0" y="149.1" text-anchor="start" fill="#f87171" font-size="8" font-weight="600">L1</text>
  <path d="M684.0,237.3L746.3,226.3L808.7,198.4L871.0,161.1" fill="none" stroke="#f87171" stroke-width="1.5" stroke-dasharray="8,4" stroke-opacity="1"/>
  <circle cx="684.0" cy="237.3" r="3" fill="#f87171" stroke="#0d1117" stroke-width="1" opacity="1"/>
  <circle cx="746.3" cy="226.3" r="3" fill="#f87171" stroke="#0d1117" stroke-width="1" opacity="1"/>
  <circle cx="808.7" cy="198.4" r="3" fill="#f87171" stroke="#0d1117" stroke-width="1" opacity="1"/>
  <circle cx="871.0" cy="161.1" r="3" fill="#f87171" stroke="#0d1117" stroke-width="1" opacity="1"/>
  <text x="877.0" y="164.1" text-anchor="start" fill="#f87171" font-size="8" font-weight="600">L3</text>
  <path d="M684.0,222.2L746.3,203.0L808.7,144.1L871.0,81.1" fill="none" stroke="#60a5fa" stroke-width="1.5" stroke-dasharray="4,3" stroke-opacity="0.4"/>
  <circle cx="684.0" cy="222.2" r="2" fill="#60a5fa" stroke="#0d1117" stroke-width="1" opacity="0.4"/>
  <circle cx="746.3" cy="203.0" r="2" fill="#60a5fa" stroke="#0d1117" stroke-width="1" opacity="0.4"/>
  <circle cx="808.7" cy="144.1" r="2" fill="#60a5fa" stroke="#0d1117" stroke-width="1" opacity="0.4"/>
  <circle cx="871.0" cy="81.1" r="2" fill="#60a5fa" stroke="#0d1117" stroke-width="1" opacity="0.4"/>
  <path d="M684.0,224.8L746.3,207.2L808.7,156.9L871.0,94.4" fill="none" stroke="#60a5fa" stroke-width="1.5" stroke-dasharray="4,3" stroke-opacity="0.4"/>
  <circle cx="684.0" cy="224.8" r="2" fill="#60a5fa" stroke="#0d1117" stroke-width="1" opacity="0.4"/>
  <circle cx="746.3" cy="207.2" r="2" fill="#60a5fa" stroke="#0d1117" stroke-width="1" opacity="0.4"/>
  <circle cx="808.7" cy="156.9" r="2" fill="#60a5fa" stroke="#0d1117" stroke-width="1" opacity="0.4"/>
  <circle cx="871.0" cy="94.4" r="2" fill="#60a5fa" stroke="#0d1117" stroke-width="1" opacity="0.4"/>
  <path d="M684.0,235.6L746.3,221.1L808.7,190.7L871.0,143.1" fill="none" stroke="#f87171" stroke-width="1.5" stroke-dasharray="4,3" stroke-opacity="0.4"/>
  <circle cx="684.0" cy="235.6" r="2" fill="#f87171" stroke="#0d1117" stroke-width="1" opacity="0.4"/>
  <circle cx="746.3" cy="221.1" r="2" fill="#f87171" stroke="#0d1117" stroke-width="1" opacity="0.4"/>
  <circle cx="808.7" cy="190.7" r="2" fill="#f87171" stroke="#0d1117" stroke-width="1" opacity="0.4"/>
  <circle cx="871.0" cy="143.1" r="2" fill="#f87171" stroke="#0d1117" stroke-width="1" opacity="0.4"/>
  <path d="M684.0,237.9L746.3,225.8L808.7,200.4L871.0,147.9" fill="none" stroke="#f87171" stroke-width="1.5" stroke-dasharray="4,3" stroke-opacity="0.4"/>
  <circle cx="684.0" cy="237.9" r="2" fill="#f87171" stroke="#0d1117" stroke-width="1" opacity="0.4"/>
  <circle cx="746.3" cy="225.8" r="2" fill="#f87171" stroke="#0d1117" stroke-width="1" opacity="0.4"/>
  <circle cx="808.7" cy="200.4" r="2" fill="#f87171" stroke="#0d1117" stroke-width="1" opacity="0.4"/>
  <circle cx="871.0" cy="147.9" r="2" fill="#f87171" stroke="#0d1117" stroke-width="1" opacity="0.4"/>
  <text x="20" y="435.0" text-anchor="middle" fill="#e6edf3" font-size="11" font-weight="600" transform="rotate(-90,20,435.0)">compression ratio</text>
  <rect x="90" y="335" width="220" height="200" fill="#161b22" rx="4"/>
  <line x1="104.0" y1="335" x2="104.0" y2="535" stroke="#21262d" stroke-width="1"/>
  <text x="104.0" y="549" text-anchor="middle" fill="#7d8590" font-size="9">2K</text>
  <line x1="166.3" y1="335" x2="166.3" y2="535" stroke="#21262d" stroke-width="1"/>
  <text x="166.3" y="549" text-anchor="middle" fill="#7d8590" font-size="9">8K</text>
  <line x1="228.7" y1="335" x2="228.7" y2="535" stroke="#21262d" stroke-width="1"/>
  <text x="228.7" y="549" text-anchor="middle" fill="#7d8590" font-size="9">32K</text>
  <line x1="291.0" y1="335" x2="291.0" y2="535" stroke="#21262d" stroke-width="1"/>
  <text x="291.0" y="549" text-anchor="middle" fill="#7d8590" font-size="9">128K</text>
  <line x1="90" y1="520.6" x2="310" y2="520.6" stroke="#21262d" stroke-width="1"/>
  <text x="82" y="520.6" text-anchor="end" dominant-baseline="middle" fill="#7d8590" font-size="9">1.50x</text>
  <line x1="90" y1="456.9" x2="310" y2="456.9" stroke="#21262d" stroke-width="1"/>
  <text x="82" y="456.9" text-anchor="end" dominant-baseline="middle" fill="#7d8590" font-size="9">2.00x</text>
  <line x1="90" y1="393.1" x2="310" y2="393.1" stroke="#21262d" stroke-width="1"/>
  <text x="82" y="393.1" text-anchor="end" dominant-baseline="middle" fill="#7d8590" font-size="9">2.50x</text>
  <path d="M104.0,457.1L166.3,450.0L228.7,421.0L291.0,412.0" fill="none" stroke="#60a5fa" stroke-width="1.5" stroke-opacity="1"/>
  <circle cx="104.0" cy="457.1" r="3" fill="#60a5fa" stroke="#0d1117" stroke-width="1" opacity="1"/>
  <circle cx="166.3" cy="450.0" r="3" fill="#60a5fa" stroke="#0d1117" stroke-width="1" opacity="1"/>
  <circle cx="228.7" cy="421.0" r="3" fill="#60a5fa" stroke="#0d1117" stroke-width="1" opacity="1"/>
  <circle cx="291.0" cy="412.0" r="3" fill="#60a5fa" stroke="#0d1117" stroke-width="1" opacity="1"/>
  <path d="M104.0,445.2L166.3,437.8L228.7,405.0L291.0,384.2" fill="none" stroke="#60a5fa" stroke-width="1.5" stroke-dasharray="8,4" stroke-opacity="1"/>
  <circle cx="104.0" cy="445.2" r="3" fill="#60a5fa" stroke="#0d1117" stroke-width="1" opacity="1"/>
  <circle cx="166.3" cy="437.8" r="3" fill="#60a5fa" stroke="#0d1117" stroke-width="1" opacity="1"/>
  <circle cx="228.7" cy="405.0" r="3" fill="#60a5fa" stroke="#0d1117" stroke-width="1" opacity="1"/>
  <circle cx="291.0" cy="384.2" r="3" fill="#60a5fa" stroke="#0d1117" stroke-width="1" opacity="1"/>
  <path d="M104.0,479.8L166.3,515.4L228.7,484.0L291.0,461.2" fill="none" stroke="#f87171" stroke-width="1.5" stroke-opacity="1"/>
  <circle cx="104.0" cy="479.8" r="3" fill="#f87171" stroke="#0d1117" stroke-width="1" opacity="1"/>
  <circle cx="166.3" cy="515.4" r="3" fill="#f87171" stroke="#0d1117" stroke-width="1" opacity="1"/>
  <circle cx="228.7" cy="484.0" r="3" fill="#f87171" stroke="#0d1117" stroke-width="1" opacity="1"/>
  <circle cx="291.0" cy="461.2" r="3" fill="#f87171" stroke="#0d1117" stroke-width="1" opacity="1"/>
  <path d="M104.0,476.4L166.3,446.9L228.7,454.4L291.0,425.8" fill="none" stroke="#f87171" stroke-width="1.5" stroke-dasharray="8,4" stroke-opacity="1"/>
  <circle cx="104.0" cy="476.4" r="3" fill="#f87171" stroke="#0d1117" stroke-width="1" opacity="1"/>
  <circle cx="166.3" cy="446.9" r="3" fill="#f87171" stroke="#0d1117" stroke-width="1" opacity="1"/>
  <circle cx="228.7" cy="454.4" r="3" fill="#f87171" stroke="#0d1117" stroke-width="1" opacity="1"/>
  <circle cx="291.0" cy="425.8" r="3" fill="#f87171" stroke="#0d1117" stroke-width="1" opacity="1"/>
  <path d="M104.0,471.2L166.3,453.2L228.7,428.5L291.0,414.3" fill="none" stroke="#60a5fa" stroke-width="1.5" stroke-dasharray="4,3" stroke-opacity="0.4"/>
  <circle cx="104.0" cy="471.2" r="2" fill="#60a5fa" stroke="#0d1117" stroke-width="1" opacity="0.4"/>
  <circle cx="166.3" cy="453.2" r="2" fill="#60a5fa" stroke="#0d1117" stroke-width="1" opacity="0.4"/>
  <circle cx="228.7" cy="428.5" r="2" fill="#60a5fa" stroke="#0d1117" stroke-width="1" opacity="0.4"/>
  <circle cx="291.0" cy="414.3" r="2" fill="#60a5fa" stroke="#0d1117" stroke-width="1" opacity="0.4"/>
  <path d="M104.0,468.7L166.3,448.3L228.7,416.4L291.0,389.5" fill="none" stroke="#60a5fa" stroke-width="1.5" stroke-dasharray="4,3" stroke-opacity="0.4"/>
  <circle cx="104.0" cy="468.7" r="2" fill="#60a5fa" stroke="#0d1117" stroke-width="1" opacity="0.4"/>
  <circle cx="166.3" cy="448.3" r="2" fill="#60a5fa" stroke="#0d1117" stroke-width="1" opacity="0.4"/>
  <circle cx="228.7" cy="416.4" r="2" fill="#60a5fa" stroke="#0d1117" stroke-width="1" opacity="0.4"/>
  <circle cx="291.0" cy="389.5" r="2" fill="#60a5fa" stroke="#0d1117" stroke-width="1" opacity="0.4"/>
  <path d="M104.0,478.9L166.3,515.2L228.7,484.0L291.0,461.2" fill="none" stroke="#f87171" stroke-width="1.5" stroke-dasharray="4,3" stroke-opacity="0.4"/>
  <circle cx="104.0" cy="478.9" r="2" fill="#f87171" stroke="#0d1117" stroke-width="1" opacity="0.4"/>
  <circle cx="166.3" cy="515.2" r="2" fill="#f87171" stroke="#0d1117" stroke-width="1" opacity="0.4"/>
  <circle cx="228.7" cy="484.0" r="2" fill="#f87171" stroke="#0d1117" stroke-width="1" opacity="0.4"/>
  <circle cx="291.0" cy="461.2" r="2" fill="#f87171" stroke="#0d1117" stroke-width="1" opacity="0.4"/>
  <path d="M104.0,477.3L166.3,504.0L228.7,468.1L291.0,437.0" fill="none" stroke="#f87171" stroke-width="1.5" stroke-dasharray="4,3" stroke-opacity="0.4"/>
  <circle cx="104.0" cy="477.3" r="2" fill="#f87171" stroke="#0d1117" stroke-width="1" opacity="0.4"/>
  <circle cx="166.3" cy="504.0" r="2" fill="#f87171" stroke="#0d1117" stroke-width="1" opacity="0.4"/>
  <circle cx="228.7" cy="468.1" r="2" fill="#f87171" stroke="#0d1117" stroke-width="1" opacity="0.4"/>
  <circle cx="291.0" cy="437.0" r="2" fill="#f87171" stroke="#0d1117" stroke-width="1" opacity="0.4"/>
  <rect x="380" y="335" width="220" height="200" fill="#161b22" rx="4"/>
  <line x1="394.0" y1="335" x2="394.0" y2="535" stroke="#21262d" stroke-width="1"/>
  <text x="394.0" y="549" text-anchor="middle" fill="#7d8590" font-size="9">2K</text>
  <line x1="456.3" y1="335" x2="456.3" y2="535" stroke="#21262d" stroke-width="1"/>
  <text x="456.3" y="549" text-anchor="middle" fill="#7d8590" font-size="9">8K</text>
  <line x1="518.7" y1="335" x2="518.7" y2="535" stroke="#21262d" stroke-width="1"/>
  <text x="518.7" y="549" text-anchor="middle" fill="#7d8590" font-size="9">32K</text>
  <line x1="581.0" y1="335" x2="581.0" y2="535" stroke="#21262d" stroke-width="1"/>
  <text x="581.0" y="549" text-anchor="middle" fill="#7d8590" font-size="9">128K</text>
  <line x1="380" y1="517.0" x2="600" y2="517.0" stroke="#21262d" stroke-width="1"/>
  <text x="372" y="517.0" text-anchor="end" dominant-baseline="middle" fill="#7d8590" font-size="9">5.00x</text>
  <line x1="380" y1="463.3" x2="600" y2="463.3" stroke="#21262d" stroke-width="1"/>
  <text x="372" y="463.3" text-anchor="end" dominant-baseline="middle" fill="#7d8590" font-size="9">10.00x</text>
  <line x1="380" y1="409.6" x2="600" y2="409.6" stroke="#21262d" stroke-width="1"/>
  <text x="372" y="409.6" text-anchor="end" dominant-baseline="middle" fill="#7d8590" font-size="9">15.00x</text>
  <line x1="380" y1="355.9" x2="600" y2="355.9" stroke="#21262d" stroke-width="1"/>
  <text x="372" y="355.9" text-anchor="end" dominant-baseline="middle" fill="#7d8590" font-size="9">20.00x</text>
  <path d="M394.0,449.8L456.3,395.1L518.7,377.2L581.0,365.7" fill="none" stroke="#60a5fa" stroke-width="1.5" stroke-opacity="1"/>
  <circle cx="394.0" cy="449.8" r="3" fill="#60a5fa" stroke="#0d1117" stroke-width="1" opacity="1"/>
  <circle cx="456.3" cy="395.1" r="3" fill="#60a5fa" stroke="#0d1117" stroke-width="1" opacity="1"/>
  <circle cx="518.7" cy="377.2" r="3" fill="#60a5fa" stroke="#0d1117" stroke-width="1" opacity="1"/>
  <circle cx="581.0" cy="365.7" r="3" fill="#60a5fa" stroke="#0d1117" stroke-width="1" opacity="1"/>
  <path d="M394.0,444.3L456.3,399.2L518.7,382.8L581.0,380.5" fill="none" stroke="#60a5fa" stroke-width="1.5" stroke-dasharray="8,4" stroke-opacity="1"/>
  <circle cx="394.0" cy="444.3" r="3" fill="#60a5fa" stroke="#0d1117" stroke-width="1" opacity="1"/>
  <circle cx="456.3" cy="399.2" r="3" fill="#60a5fa" stroke="#0d1117" stroke-width="1" opacity="1"/>
  <circle cx="518.7" cy="382.8" r="3" fill="#60a5fa" stroke="#0d1117" stroke-width="1" opacity="1"/>
  <circle cx="581.0" cy="380.5" r="3" fill="#60a5fa" stroke="#0d1117" stroke-width="1" opacity="1"/>
  <path d="M394.0,531.0L456.3,484.1L518.7,428.2L581.0,438.6" fill="none" stroke="#f87171" stroke-width="1.5" stroke-opacity="1"/>
  <circle cx="394.0" cy="531.0" r="3" fill="#f87171" stroke="#0d1117" stroke-width="1" opacity="1"/>
  <circle cx="456.3" cy="484.1" r="3" fill="#f87171" stroke="#0d1117" stroke-width="1" opacity="1"/>
  <circle cx="518.7" cy="428.2" r="3" fill="#f87171" stroke="#0d1117" stroke-width="1" opacity="1"/>
  <circle cx="581.0" cy="438.6" r="3" fill="#f87171" stroke="#0d1117" stroke-width="1" opacity="1"/>
  <path d="M394.0,495.9L456.3,437.2L518.7,397.1L581.0,382.5" fill="none" stroke="#f87171" stroke-width="1.5" stroke-dasharray="8,4" stroke-opacity="1"/>
  <circle cx="394.0" cy="495.9" r="3" fill="#f87171" stroke="#0d1117" stroke-width="1" opacity="1"/>
  <circle cx="456.3" cy="437.2" r="3" fill="#f87171" stroke="#0d1117" stroke-width="1" opacity="1"/>
  <circle cx="518.7" cy="397.1" r="3" fill="#f87171" stroke="#0d1117" stroke-width="1" opacity="1"/>
  <circle cx="581.0" cy="382.5" r="3" fill="#f87171" stroke="#0d1117" stroke-width="1" opacity="1"/>
  <path d="M394.0,529.1L456.3,481.5L518.7,426.2L581.0,393.9" fill="none" stroke="#60a5fa" stroke-width="1.5" stroke-dasharray="4,3" stroke-opacity="0.4"/>
  <circle cx="394.0" cy="529.1" r="2" fill="#60a5fa" stroke="#0d1117" stroke-width="1" opacity="0.4"/>
  <circle cx="456.3" cy="481.5" r="2" fill="#60a5fa" stroke="#0d1117" stroke-width="1" opacity="0.4"/>
  <circle cx="518.7" cy="426.2" r="2" fill="#60a5fa" stroke="#0d1117" stroke-width="1" opacity="0.4"/>
  <circle cx="581.0" cy="393.9" r="2" fill="#60a5fa" stroke="#0d1117" stroke-width="1" opacity="0.4"/>
  <path d="M394.0,528.6L456.3,481.4L518.7,426.8L581.0,399.3" fill="none" stroke="#60a5fa" stroke-width="1.5" stroke-dasharray="4,3" stroke-opacity="0.4"/>
  <circle cx="394.0" cy="528.6" r="2" fill="#60a5fa" stroke="#0d1117" stroke-width="1" opacity="0.4"/>
  <circle cx="456.3" cy="481.4" r="2" fill="#60a5fa" stroke="#0d1117" stroke-width="1" opacity="0.4"/>
  <circle cx="518.7" cy="426.8" r="2" fill="#60a5fa" stroke="#0d1117" stroke-width="1" opacity="0.4"/>
  <circle cx="581.0" cy="399.3" r="2" fill="#60a5fa" stroke="#0d1117" stroke-width="1" opacity="0.4"/>
  <path d="M394.0,530.8L456.3,483.7L518.7,427.9L581.0,438.5" fill="none" stroke="#f87171" stroke-width="1.5" stroke-dasharray="4,3" stroke-opacity="0.4"/>
  <circle cx="394.0" cy="530.8" r="2" fill="#f87171" stroke="#0d1117" stroke-width="1" opacity="0.4"/>
  <circle cx="456.3" cy="483.7" r="2" fill="#f87171" stroke="#0d1117" stroke-width="1" opacity="0.4"/>
  <circle cx="518.7" cy="427.9" r="2" fill="#f87171" stroke="#0d1117" stroke-width="1" opacity="0.4"/>
  <circle cx="581.0" cy="438.5" r="2" fill="#f87171" stroke="#0d1117" stroke-width="1" opacity="0.4"/>
  <path d="M394.0,530.8L456.3,484.0L518.7,430.4L581.0,440.0" fill="none" stroke="#f87171" stroke-width="1.5" stroke-dasharray="4,3" stroke-opacity="0.4"/>
  <circle cx="394.0" cy="530.8" r="2" fill="#f87171" stroke="#0d1117" stroke-width="1" opacity="0.4"/>
  <circle cx="456.3" cy="484.0" r="2" fill="#f87171" stroke="#0d1117" stroke-width="1" opacity="0.4"/>
  <circle cx="518.7" cy="430.4" r="2" fill="#f87171" stroke="#0d1117" stroke-width="1" opacity="0.4"/>
  <circle cx="581.0" cy="440.0" r="2" fill="#f87171" stroke="#0d1117" stroke-width="1" opacity="0.4"/>
  <rect x="670" y="335" width="220" height="200" fill="#161b22" rx="4"/>
  <line x1="684.0" y1="335" x2="684.0" y2="535" stroke="#21262d" stroke-width="1"/>
  <text x="684.0" y="549" text-anchor="middle" fill="#7d8590" font-size="9">2K</text>
  <line x1="746.3" y1="335" x2="746.3" y2="535" stroke="#21262d" stroke-width="1"/>
  <text x="746.3" y="549" text-anchor="middle" fill="#7d8590" font-size="9">8K</text>
  <line x1="808.7" y1="335" x2="808.7" y2="535" stroke="#21262d" stroke-width="1"/>
  <text x="808.7" y="549" text-anchor="middle" fill="#7d8590" font-size="9">32K</text>
  <line x1="871.0" y1="335" x2="871.0" y2="535" stroke="#21262d" stroke-width="1"/>
  <text x="871.0" y="549" text-anchor="middle" fill="#7d8590" font-size="9">128K</text>
  <line x1="670" y1="510.2" x2="890" y2="510.2" stroke="#21262d" stroke-width="1"/>
  <text x="662" y="510.2" text-anchor="end" dominant-baseline="middle" fill="#7d8590" font-size="9">5.00x</text>
  <line x1="670" y1="459.4" x2="890" y2="459.4" stroke="#21262d" stroke-width="1"/>
  <text x="662" y="459.4" text-anchor="end" dominant-baseline="middle" fill="#7d8590" font-size="9">10.00x</text>
  <line x1="670" y1="408.6" x2="890" y2="408.6" stroke="#21262d" stroke-width="1"/>
  <text x="662" y="408.6" text-anchor="end" dominant-baseline="middle" fill="#7d8590" font-size="9">15.00x</text>
  <line x1="670" y1="357.8" x2="890" y2="357.8" stroke="#21262d" stroke-width="1"/>
  <text x="662" y="357.8" text-anchor="end" dominant-baseline="middle" fill="#7d8590" font-size="9">20.00x</text>
  <path d="M684.0,532.1L746.3,520.4L808.7,472.9L871.0,400.1" fill="none" stroke="#60a5fa" stroke-width="1.5" stroke-opacity="1"/>
  <circle cx="684.0" cy="532.1" r="3" fill="#60a5fa" stroke="#0d1117" stroke-width="1" opacity="1"/>
  <circle cx="746.3" cy="520.4" r="3" fill="#60a5fa" stroke="#0d1117" stroke-width="1" opacity="1"/>
  <circle cx="808.7" cy="472.9" r="3" fill="#60a5fa" stroke="#0d1117" stroke-width="1" opacity="1"/>
  <circle cx="871.0" cy="400.1" r="3" fill="#60a5fa" stroke="#0d1117" stroke-width="1" opacity="1"/>
  <path d="M684.0,530.7L746.3,517.7L808.7,458.6L871.0,364.5" fill="none" stroke="#60a5fa" stroke-width="1.5" stroke-dasharray="8,4" stroke-opacity="1"/>
  <circle cx="684.0" cy="530.7" r="3" fill="#60a5fa" stroke="#0d1117" stroke-width="1" opacity="1"/>
  <circle cx="746.3" cy="517.7" r="3" fill="#60a5fa" stroke="#0d1117" stroke-width="1" opacity="1"/>
  <circle cx="808.7" cy="458.6" r="3" fill="#60a5fa" stroke="#0d1117" stroke-width="1" opacity="1"/>
  <circle cx="871.0" cy="364.5" r="3" fill="#60a5fa" stroke="#0d1117" stroke-width="1" opacity="1"/>
  <path d="M684.0,531.5L746.3,522.7L808.7,483.4L871.0,423.4" fill="none" stroke="#f87171" stroke-width="1.5" stroke-opacity="1"/>
  <circle cx="684.0" cy="531.5" r="3" fill="#f87171" stroke="#0d1117" stroke-width="1" opacity="1"/>
  <circle cx="746.3" cy="522.7" r="3" fill="#f87171" stroke="#0d1117" stroke-width="1" opacity="1"/>
  <circle cx="808.7" cy="483.4" r="3" fill="#f87171" stroke="#0d1117" stroke-width="1" opacity="1"/>
  <circle cx="871.0" cy="423.4" r="3" fill="#f87171" stroke="#0d1117" stroke-width="1" opacity="1"/>
  <path d="M684.0,531.0L746.3,520.3L808.7,463.2L871.0,371.4" fill="none" stroke="#f87171" stroke-width="1.5" stroke-dasharray="8,4" stroke-opacity="1"/>
  <circle cx="684.0" cy="531.0" r="3" fill="#f87171" stroke="#0d1117" stroke-width="1" opacity="1"/>
  <circle cx="746.3" cy="520.3" r="3" fill="#f87171" stroke="#0d1117" stroke-width="1" opacity="1"/>
  <circle cx="808.7" cy="463.2" r="3" fill="#f87171" stroke="#0d1117" stroke-width="1" opacity="1"/>
  <circle cx="871.0" cy="371.4" r="3" fill="#f87171" stroke="#0d1117" stroke-width="1" opacity="1"/>
  <path d="M684.0,530.6L746.3,522.3L808.7,479.5L871.0,406.3" fill="none" stroke="#60a5fa" stroke-width="1.5" stroke-dasharray="4,3" stroke-opacity="0.4"/>
  <circle cx="684.0" cy="530.6" r="2" fill="#60a5fa" stroke="#0d1117" stroke-width="1" opacity="0.4"/>
  <circle cx="746.3" cy="522.3" r="2" fill="#60a5fa" stroke="#0d1117" stroke-width="1" opacity="0.4"/>
  <circle cx="808.7" cy="479.5" r="2" fill="#60a5fa" stroke="#0d1117" stroke-width="1" opacity="0.4"/>
  <circle cx="871.0" cy="406.3" r="2" fill="#60a5fa" stroke="#0d1117" stroke-width="1" opacity="0.4"/>
  <path d="M684.0,529.5L746.3,520.1L808.7,467.1L871.0,377.8" fill="none" stroke="#60a5fa" stroke-width="1.5" stroke-dasharray="4,3" stroke-opacity="0.4"/>
  <circle cx="684.0" cy="529.5" r="2" fill="#60a5fa" stroke="#0d1117" stroke-width="1" opacity="0.4"/>
  <circle cx="746.3" cy="520.1" r="2" fill="#60a5fa" stroke="#0d1117" stroke-width="1" opacity="0.4"/>
  <circle cx="808.7" cy="467.1" r="2" fill="#60a5fa" stroke="#0d1117" stroke-width="1" opacity="0.4"/>
  <circle cx="871.0" cy="377.8" r="2" fill="#60a5fa" stroke="#0d1117" stroke-width="1" opacity="0.4"/>
  <path d="M684.0,531.4L746.3,522.7L808.7,483.3L871.0,423.4" fill="none" stroke="#f87171" stroke-width="1.5" stroke-dasharray="4,3" stroke-opacity="0.4"/>
  <circle cx="684.0" cy="531.4" r="2" fill="#f87171" stroke="#0d1117" stroke-width="1" opacity="0.4"/>
  <circle cx="746.3" cy="522.7" r="2" fill="#f87171" stroke="#0d1117" stroke-width="1" opacity="0.4"/>
  <circle cx="808.7" cy="483.3" r="2" fill="#f87171" stroke="#0d1117" stroke-width="1" opacity="0.4"/>
  <circle cx="871.0" cy="423.4" r="2" fill="#f87171" stroke="#0d1117" stroke-width="1" opacity="0.4"/>
  <path d="M684.0,530.8L746.3,521.2L808.7,469.7L871.0,379.6" fill="none" stroke="#f87171" stroke-width="1.5" stroke-dasharray="4,3" stroke-opacity="0.4"/>
  <circle cx="684.0" cy="530.8" r="2" fill="#f87171" stroke="#0d1117" stroke-width="1" opacity="0.4"/>
  <circle cx="746.3" cy="521.2" r="2" fill="#f87171" stroke="#0d1117" stroke-width="1" opacity="0.4"/>
  <circle cx="808.7" cy="469.7" r="2" fill="#f87171" stroke="#0d1117" stroke-width="1" opacity="0.4"/>
  <circle cx="871.0" cy="379.6" r="2" fill="#f87171" stroke="#0d1117" stroke-width="1" opacity="0.4"/>
  <circle cx="257" cy="575" r="4" fill="#60a5fa"/>
  <text x="265" y="578.5" fill="#e6edf3" font-size="10" font-weight="500">C zstd + dict</text>
  <circle cx="373" cy="575" r="4" fill="#f87171"/>
  <text x="381" y="578.5" fill="#e6edf3" font-size="10" font-weight="500">zrip + dict</text>
  <circle cx="477" cy="575" r="3" fill="#60a5fa" opacity="0.4"/>
  <text x="485" y="578.5" fill="#e6edf3" font-size="10" font-weight="500">C zstd (no dict)</text>
  <circle cx="613" cy="575" r="3" fill="#f87171" opacity="0.4"/>
  <text x="621" y="578.5" fill="#e6edf3" font-size="10" font-weight="500">zrip (no dict)</text>
</svg>
