<svg xmlns="http://www.w3.org/2000/svg" viewBox="0 0 850 950" font-family="system-ui, -apple-system, sans-serif">
  <rect width="850" height="950" fill="#0d1117"/>
  <text x="450.0" y="22" text-anchor="middle" fill="#e6edf3" font-size="14" font-weight="700">zstd Pipeline @100 MB/s: Aggregate across corpus (lower is better)</text>
  <text x="450.0" y="38" text-anchor="middle" fill="#7d8590" font-size="10">Intel Core i7-8700B @ 3.20GHz, performance governor, turbo off</text>
  <text x="22" y="445.0" text-anchor="middle" fill="#e6edf3" font-size="11" font-weight="600" transform="rotate(-90,22,445.0)">seconds / GB</text>
  <text x="450.0" y="64" text-anchor="middle" fill="#e6edf3" font-size="12" font-weight="600">High compressibility</text>
  <line x1="70" y1="227.6" x2="830" y2="227.6" stroke="#21262d" stroke-width="1"/>
  <text x="62" y="227.6" text-anchor="end" dominant-baseline="middle" fill="#7d8590" font-size="10">2.0</text>
  <line x1="70" y1="185.1" x2="830" y2="185.1" stroke="#21262d" stroke-width="1"/>
  <text x="62" y="185.1" text-anchor="end" dominant-baseline="middle" fill="#7d8590" font-size="10">4.0</text>
  <line x1="70" y1="142.7" x2="830" y2="142.7" stroke="#21262d" stroke-width="1"/>
  <text x="62" y="142.7" text-anchor="end" dominant-baseline="middle" fill="#7d8590" font-size="10">6.0</text>
  <line x1="70" y1="100.2" x2="830" y2="100.2" stroke="#21262d" stroke-width="1"/>
  <text x="62" y="100.2" text-anchor="end" dominant-baseline="middle" fill="#7d8590" font-size="10">8.0</text>
  <line x1="70" y1="270" x2="830" y2="270" stroke="#30363d" stroke-width="1.5"/>
  <rect x="95.3" y="230.8" width="50.0" height="39.2" fill="#60a5fa" rx="1"/>
  <rect x="95.3" y="195.5" width="50.0" height="35.3" fill="#4680c4" rx="1"/>
  <rect x="95.3" y="182.3" width="50.0" height="13.2" fill="#60a5fa" rx="1"/>
  <rect x="147.8" y="212.2" width="50.0" height="57.8" fill="#f87171" rx="1"/>
  <rect x="147.8" y="175.0" width="50.0" height="37.3" fill="#c45050" rx="1"/>
  <rect x="147.8" y="142.9" width="50.0" height="32.1" fill="#f87171" rx="1"/>
  <rect x="200.3" y="196.1" width="50.0" height="73.9" fill="#f59e0b" rx="1"/>
  <rect x="200.3" y="165.8" width="50.0" height="30.3" fill="#c47d08" rx="1"/>
  <rect x="200.3" y="136.6" width="50.0" height="29.2" fill="#f59e0b" rx="1"/>
  <text x="196.7" y="288" text-anchor="middle" fill="#e6edf3" font-size="11" font-weight="600">Level −1</text>
  <rect x="348.7" y="227.8" width="50.0" height="42.2" fill="#60a5fa" rx="1"/>
  <rect x="348.7" y="198.1" width="50.0" height="29.7" fill="#4680c4" rx="1"/>
  <rect x="348.7" y="184.2" width="50.0" height="14.0" fill="#60a5fa" rx="1"/>
  <rect x="401.2" y="211.0" width="50.0" height="59.0" fill="#f87171" rx="1"/>
  <rect x="401.2" y="177.0" width="50.0" height="34.0" fill="#c45050" rx="1"/>
  <rect x="401.2" y="144.0" width="50.0" height="33.0" fill="#f87171" rx="1"/>
  <rect x="453.7" y="194.7" width="50.0" height="75.3" fill="#f59e0b" rx="1"/>
  <rect x="453.7" y="165.0" width="50.0" height="29.7" fill="#c47d08" rx="1"/>
  <rect x="453.7" y="135.7" width="50.0" height="29.2" fill="#f59e0b" rx="1"/>
  <text x="450.0" y="288" text-anchor="middle" fill="#e6edf3" font-size="11" font-weight="600">Level 1</text>
  <rect x="602.0" y="213.5" width="50.0" height="56.5" fill="#60a5fa" rx="1"/>
  <rect x="602.0" y="185.7" width="50.0" height="27.8" fill="#4680c4" rx="1"/>
  <rect x="602.0" y="171.1" width="50.0" height="14.7" fill="#60a5fa" rx="1"/>
  <rect x="654.5" y="197.1" width="50.0" height="72.9" fill="#f87171" rx="1"/>
  <rect x="654.5" y="165.7" width="50.0" height="31.4" fill="#c45050" rx="1"/>
  <rect x="654.5" y="136.0" width="50.0" height="29.7" fill="#f87171" rx="1"/>
  <rect x="707.0" y="154.1" width="50.0" height="115.9" fill="#f59e0b" rx="1"/>
  <rect x="707.0" y="125.2" width="50.0" height="29.0" fill="#c47d08" rx="1"/>
  <rect x="707.0" y="96.1" width="50.0" height="29.1" fill="#f59e0b" rx="1"/>
  <text x="703.3" y="288" text-anchor="middle" fill="#e6edf3" font-size="11" font-weight="600">Level 3</text>
  <text x="450.0" y="339" text-anchor="middle" fill="#e6edf3" font-size="12" font-weight="600">Medium compressibility</text>
  <line x1="70" y1="496.8" x2="830" y2="496.8" stroke="#21262d" stroke-width="1"/>
  <text x="62" y="496.8" text-anchor="end" dominant-baseline="middle" fill="#7d8590" font-size="10">5.0</text>
  <line x1="70" y1="448.6" x2="830" y2="448.6" stroke="#21262d" stroke-width="1"/>
  <text x="62" y="448.6" text-anchor="end" dominant-baseline="middle" fill="#7d8590" font-size="10">10.0</text>
  <line x1="70" y1="400.4" x2="830" y2="400.4" stroke="#21262d" stroke-width="1"/>
  <text x="62" y="400.4" text-anchor="end" dominant-baseline="middle" fill="#7d8590" font-size="10">15.0</text>
  <line x1="70" y1="352.2" x2="830" y2="352.2" stroke="#21262d" stroke-width="1"/>
  <text x="62" y="352.2" text-anchor="end" dominant-baseline="middle" fill="#7d8590" font-size="10">20.0</text>
  <line x1="70" y1="545" x2="830" y2="545" stroke="#30363d" stroke-width="1.5"/>
  <rect x="95.3" y="511.1" width="50.0" height="33.9" fill="#60a5fa" rx="1"/>
  <rect x="95.3" y="468.6" width="50.0" height="42.5" fill="#4680c4" rx="1"/>
  <rect x="95.3" y="460.0" width="50.0" height="8.6" fill="#60a5fa" rx="1"/>
  <rect x="147.8" y="493.4" width="50.0" height="51.6" fill="#f87171" rx="1"/>
  <rect x="147.8" y="452.7" width="50.0" height="40.7" fill="#c45050" rx="1"/>
  <rect x="147.8" y="432.6" width="50.0" height="20.1" fill="#f87171" rx="1"/>
  <rect x="200.3" y="485.2" width="50.0" height="59.8" fill="#f59e0b" rx="1"/>
  <rect x="200.3" y="448.3" width="50.0" height="36.8" fill="#c47d08" rx="1"/>
  <rect x="200.3" y="427.9" width="50.0" height="20.5" fill="#f59e0b" rx="1"/>
  <text x="196.7" y="563" text-anchor="middle" fill="#e6edf3" font-size="11" font-weight="600">Level −1</text>
  <rect x="348.7" y="508.5" width="50.0" height="36.5" fill="#60a5fa" rx="1"/>
  <rect x="348.7" y="473.1" width="50.0" height="35.4" fill="#4680c4" rx="1"/>
  <rect x="348.7" y="463.1" width="50.0" height="10.0" fill="#60a5fa" rx="1"/>
  <rect x="401.2" y="491.5" width="50.0" height="53.5" fill="#f87171" rx="1"/>
  <rect x="401.2" y="453.5" width="50.0" height="38.0" fill="#c45050" rx="1"/>
  <rect x="401.2" y="432.3" width="50.0" height="21.2" fill="#f87171" rx="1"/>
  <rect x="453.7" y="484.0" width="50.0" height="61.0" fill="#f59e0b" rx="1"/>
  <rect x="453.7" y="448.4" width="50.0" height="35.6" fill="#c47d08" rx="1"/>
  <rect x="453.7" y="427.7" width="50.0" height="20.7" fill="#f59e0b" rx="1"/>
  <text x="450.0" y="563" text-anchor="middle" fill="#e6edf3" font-size="11" font-weight="600">Level 1</text>
  <rect x="602.0" y="483.1" width="50.0" height="61.9" fill="#60a5fa" rx="1"/>
  <rect x="602.0" y="451.1" width="50.0" height="32.0" fill="#4680c4" rx="1"/>
  <rect x="602.0" y="439.4" width="50.0" height="11.7" fill="#60a5fa" rx="1"/>
  <rect x="654.5" y="468.9" width="50.0" height="76.1" fill="#f87171" rx="1"/>
  <rect x="654.5" y="432.8" width="50.0" height="36.0" fill="#c45050" rx="1"/>
  <rect x="654.5" y="414.4" width="50.0" height="18.4" fill="#f87171" rx="1"/>
  <rect x="707.0" y="427.4" width="50.0" height="117.6" fill="#f59e0b" rx="1"/>
  <rect x="707.0" y="394.9" width="50.0" height="32.5" fill="#c47d08" rx="1"/>
  <rect x="707.0" y="371.1" width="50.0" height="23.8" fill="#f59e0b" rx="1"/>
  <text x="703.3" y="563" text-anchor="middle" fill="#e6edf3" font-size="11" font-weight="600">Level 3</text>
  <text x="450.0" y="614" text-anchor="middle" fill="#e6edf3" font-size="12" font-weight="600">Low compressibility</text>
  <line x1="70" y1="753.4" x2="830" y2="753.4" stroke="#21262d" stroke-width="1"/>
  <text x="62" y="753.4" text-anchor="end" dominant-baseline="middle" fill="#7d8590" font-size="10">10.0</text>
  <line x1="70" y1="686.9" x2="830" y2="686.9" stroke="#21262d" stroke-width="1"/>
  <text x="62" y="686.9" text-anchor="end" dominant-baseline="middle" fill="#7d8590" font-size="10">20.0</text>
  <line x1="70" y1="620.3" x2="830" y2="620.3" stroke="#21262d" stroke-width="1"/>
  <text x="62" y="620.3" text-anchor="end" dominant-baseline="middle" fill="#7d8590" font-size="10">30.0</text>
  <line x1="70" y1="820" x2="830" y2="820" stroke="#30363d" stroke-width="1.5"/>
  <rect x="95.3" y="808.5" width="50.0" height="11.5" fill="#60a5fa" rx="1"/>
  <rect x="95.3" y="744.9" width="50.0" height="63.5" fill="#4680c4" rx="1"/>
  <rect x="95.3" y="743.2" width="50.0" height="1.7" fill="#60a5fa" rx="1"/>
  <rect x="147.8" y="802.0" width="50.0" height="18.0" fill="#f87171" rx="1"/>
  <rect x="147.8" y="740.4" width="50.0" height="61.6" fill="#c45050" rx="1"/>
  <rect x="147.8" y="735.6" width="50.0" height="4.7" fill="#f87171" rx="1"/>
  <rect x="200.3" y="784.1" width="50.0" height="35.9" fill="#f59e0b" rx="1"/>
  <rect x="200.3" y="728.4" width="50.0" height="55.7" fill="#c47d08" rx="1"/>
  <rect x="200.3" y="719.5" width="50.0" height="8.8" fill="#f59e0b" rx="1"/>
  <text x="196.7" y="838" text-anchor="middle" fill="#e6edf3" font-size="11" font-weight="600">Level −1</text>
  <rect x="348.7" y="801.3" width="50.0" height="18.7" fill="#60a5fa" rx="1"/>
  <rect x="348.7" y="746.2" width="50.0" height="55.1" fill="#4680c4" rx="1"/>
  <rect x="348.7" y="739.5" width="50.0" height="6.7" fill="#60a5fa" rx="1"/>
  <rect x="401.2" y="790.6" width="50.0" height="29.4" fill="#f87171" rx="1"/>
  <rect x="401.2" y="731.9" width="50.0" height="58.7" fill="#c45050" rx="1"/>
  <rect x="401.2" y="725.2" width="50.0" height="6.7" fill="#f87171" rx="1"/>
  <rect x="453.7" y="782.3" width="50.0" height="37.7" fill="#f59e0b" rx="1"/>
  <rect x="453.7" y="727.2" width="50.0" height="55.1" fill="#c47d08" rx="1"/>
  <rect x="453.7" y="718.1" width="50.0" height="9.1" fill="#f59e0b" rx="1"/>
  <text x="450.0" y="838" text-anchor="middle" fill="#e6edf3" font-size="11" font-weight="600">Level 1</text>
  <rect x="602.0" y="752.0" width="50.0" height="68.0" fill="#60a5fa" rx="1"/>
  <rect x="602.0" y="702.9" width="50.0" height="49.1" fill="#4680c4" rx="1"/>
  <rect x="602.0" y="692.9" width="50.0" height="10.0" fill="#60a5fa" rx="1"/>
  <rect x="654.5" y="757.3" width="50.0" height="62.7" fill="#f87171" rx="1"/>
  <rect x="654.5" y="702.8" width="50.0" height="54.5" fill="#c45050" rx="1"/>
  <rect x="654.5" y="693.7" width="50.0" height="9.1" fill="#f87171" rx="1"/>
  <rect x="707.0" y="710.3" width="50.0" height="109.7" fill="#f59e0b" rx="1"/>
  <rect x="707.0" y="660.1" width="50.0" height="50.3" fill="#c47d08" rx="1"/>
  <rect x="707.0" y="646.1" width="50.0" height="14.0" fill="#f59e0b" rx="1"/>
  <text x="703.3" y="838" text-anchor="middle" fill="#e6edf3" font-size="11" font-weight="600">Level 3</text>
  <rect x="250" y="850" width="12" height="12" fill="#60a5fa" rx="2"/>
  <text x="268" y="860" fill="#e6edf3" font-size="10" font-weight="500">C zstd 1.5.7 (libzstd)</text>
  <rect x="250" y="868" width="12" height="12" fill="#f87171" rx="2"/>
  <text x="268" y="878" fill="#e6edf3" font-size="10" font-weight="500">zrip (safe Rust)</text>
  <rect x="460" y="850" width="12" height="12" fill="#f59e0b" rx="2"/>
  <text x="478" y="860" fill="#e6edf3" font-size="10" font-weight="500">structured-zstd 0.0.40 (unsafe Rust)</text>
  <rect x="460" y="868" width="12" height="12" fill="#c084fc" rx="2"/>
  <text x="478" y="878" fill="#e6edf3" font-size="10" font-weight="500">lz4rip 0.3.1 (safe Rust, LZ4)</text>
  <text x="240" y="903" fill="#e6edf3" font-size="9">bright = compress + decompress</text>
  <text x="480" y="903" fill="#7d8590" font-size="9">dim = transfer @100 MB/s</text>
</svg>
