<svg xmlns="http://www.w3.org/2000/svg" viewBox="0 0 850 950" font-family="system-ui, -apple-system, sans-serif">
  <rect width="850" height="950" fill="#0d1117"/>
  <text x="450.0" y="22" text-anchor="middle" fill="#e6edf3" font-size="14" font-weight="700">zstd Pipeline @100 MB/s: Aggregate across corpus (lower is better)</text>
  <text x="450.0" y="38" text-anchor="middle" fill="#7d8590" font-size="10">Intel Core i7-8700B @ 3.20GHz, performance governor, turbo off</text>
  <text x="22" y="445.0" text-anchor="middle" fill="#e6edf3" font-size="11" font-weight="600" transform="rotate(-90,22,445.0)">seconds / GB</text>
  <text x="450.0" y="64" text-anchor="middle" fill="#e6edf3" font-size="12" font-weight="600">High compressibility</text>
  <line x1="70" y1="230.2" x2="830" y2="230.2" stroke="#21262d" stroke-width="1"/>
  <text x="62" y="230.2" text-anchor="end" dominant-baseline="middle" fill="#7d8590" font-size="10">2.0</text>
  <line x1="70" y1="190.3" x2="830" y2="190.3" stroke="#21262d" stroke-width="1"/>
  <text x="62" y="190.3" text-anchor="end" dominant-baseline="middle" fill="#7d8590" font-size="10">4.0</text>
  <line x1="70" y1="150.5" x2="830" y2="150.5" stroke="#21262d" stroke-width="1"/>
  <text x="62" y="150.5" text-anchor="end" dominant-baseline="middle" fill="#7d8590" font-size="10">6.0</text>
  <line x1="70" y1="110.7" x2="830" y2="110.7" stroke="#21262d" stroke-width="1"/>
  <text x="62" y="110.7" text-anchor="end" dominant-baseline="middle" fill="#7d8590" font-size="10">8.0</text>
  <line x1="70" y1="70.8" x2="830" y2="70.8" stroke="#21262d" stroke-width="1"/>
  <text x="62" y="70.8" text-anchor="end" dominant-baseline="middle" fill="#7d8590" font-size="10">10.0</text>
  <line x1="70" y1="270" x2="830" y2="270" stroke="#30363d" stroke-width="1.5"/>
  <rect x="95.3" y="233.2" width="50.0" height="36.8" fill="#60a5fa" rx="1"/>
  <rect x="95.3" y="200.0" width="50.0" height="33.1" fill="#4680c4" rx="1"/>
  <rect x="95.3" y="187.6" width="50.0" height="12.4" fill="#60a5fa" rx="1"/>
  <rect x="147.8" y="220.3" width="50.0" height="49.7" fill="#f87171" rx="1"/>
  <rect x="147.8" y="185.3" width="50.0" height="35.0" fill="#c45050" rx="1"/>
  <rect x="147.8" y="157.1" width="50.0" height="28.2" fill="#f87171" rx="1"/>
  <rect x="200.3" y="196.5" width="50.0" height="73.5" fill="#f59e0b" rx="1"/>
  <rect x="200.3" y="165.7" width="50.0" height="30.8" fill="#c47d08" rx="1"/>
  <rect x="200.3" y="137.4" width="50.0" height="28.3" fill="#f59e0b" rx="1"/>
  <text x="196.7" y="288" text-anchor="middle" fill="#e6edf3" font-size="11" font-weight="600">Level −1</text>
  <rect x="348.7" y="230.3" width="50.0" height="39.7" fill="#60a5fa" rx="1"/>
  <rect x="348.7" y="202.4" width="50.0" height="27.8" fill="#4680c4" rx="1"/>
  <rect x="348.7" y="189.3" width="50.0" height="13.2" fill="#60a5fa" rx="1"/>
  <rect x="401.2" y="215.9" width="50.0" height="54.1" fill="#f87171" rx="1"/>
  <rect x="401.2" y="184.0" width="50.0" height="31.9" fill="#c45050" rx="1"/>
  <rect x="401.2" y="152.1" width="50.0" height="31.9" fill="#f87171" rx="1"/>
  <rect x="453.7" y="194.9" width="50.0" height="75.1" fill="#f59e0b" rx="1"/>
  <rect x="453.7" y="164.7" width="50.0" height="30.1" fill="#c47d08" rx="1"/>
  <rect x="453.7" y="136.4" width="50.0" height="28.4" fill="#f59e0b" rx="1"/>
  <text x="450.0" y="288" text-anchor="middle" fill="#e6edf3" font-size="11" font-weight="600">Level 1</text>
  <rect x="602.0" y="216.8" width="50.0" height="53.2" fill="#60a5fa" rx="1"/>
  <rect x="602.0" y="190.8" width="50.0" height="26.1" fill="#4680c4" rx="1"/>
  <rect x="602.0" y="177.0" width="50.0" height="13.8" fill="#60a5fa" rx="1"/>
  <rect x="654.5" y="205.7" width="50.0" height="64.3" fill="#f87171" rx="1"/>
  <rect x="654.5" y="175.9" width="50.0" height="29.7" fill="#c45050" rx="1"/>
  <rect x="654.5" y="148.4" width="50.0" height="27.5" fill="#f87171" rx="1"/>
  <rect x="707.0" y="153.4" width="50.0" height="116.6" fill="#f59e0b" rx="1"/>
  <rect x="707.0" y="124.2" width="50.0" height="29.3" fill="#c47d08" rx="1"/>
  <rect x="707.0" y="96.1" width="50.0" height="28.1" fill="#f59e0b" rx="1"/>
  <text x="703.3" y="288" text-anchor="middle" fill="#e6edf3" font-size="11" font-weight="600">Level 3</text>
  <text x="450.0" y="339" text-anchor="middle" fill="#e6edf3" font-size="12" font-weight="600">Medium compressibility</text>
  <line x1="70" y1="497.4" x2="830" y2="497.4" stroke="#21262d" stroke-width="1"/>
  <text x="62" y="497.4" text-anchor="end" dominant-baseline="middle" fill="#7d8590" font-size="10">5.0</text>
  <line x1="70" y1="449.8" x2="830" y2="449.8" stroke="#21262d" stroke-width="1"/>
  <text x="62" y="449.8" text-anchor="end" dominant-baseline="middle" fill="#7d8590" font-size="10">10.0</text>
  <line x1="70" y1="402.2" x2="830" y2="402.2" stroke="#21262d" stroke-width="1"/>
  <text x="62" y="402.2" text-anchor="end" dominant-baseline="middle" fill="#7d8590" font-size="10">15.0</text>
  <line x1="70" y1="354.6" x2="830" y2="354.6" stroke="#21262d" stroke-width="1"/>
  <text x="62" y="354.6" text-anchor="end" dominant-baseline="middle" fill="#7d8590" font-size="10">20.0</text>
  <line x1="70" y1="545" x2="830" y2="545" stroke="#30363d" stroke-width="1.5"/>
  <rect x="95.3" y="511.6" width="50.0" height="33.4" fill="#60a5fa" rx="1"/>
  <rect x="95.3" y="469.6" width="50.0" height="42.0" fill="#4680c4" rx="1"/>
  <rect x="95.3" y="461.2" width="50.0" height="8.5" fill="#60a5fa" rx="1"/>
  <rect x="147.8" y="499.8" width="50.0" height="45.2" fill="#f87171" rx="1"/>
  <rect x="147.8" y="457.9" width="50.0" height="41.9" fill="#c45050" rx="1"/>
  <rect x="147.8" y="441.1" width="50.0" height="16.8" fill="#f87171" rx="1"/>
  <rect x="200.3" y="485.6" width="50.0" height="59.4" fill="#f59e0b" rx="1"/>
  <rect x="200.3" y="449.0" width="50.0" height="36.6" fill="#c47d08" rx="1"/>
  <rect x="200.3" y="429.9" width="50.0" height="19.1" fill="#f59e0b" rx="1"/>
  <text x="196.7" y="563" text-anchor="middle" fill="#e6edf3" font-size="11" font-weight="600">Level −1</text>
  <rect x="348.7" y="508.9" width="50.0" height="36.1" fill="#60a5fa" rx="1"/>
  <rect x="348.7" y="473.9" width="50.0" height="35.0" fill="#4680c4" rx="1"/>
  <rect x="348.7" y="464.0" width="50.0" height="9.9" fill="#60a5fa" rx="1"/>
  <rect x="401.2" y="492.7" width="50.0" height="52.3" fill="#f87171" rx="1"/>
  <rect x="401.2" y="455.2" width="50.0" height="37.5" fill="#c45050" rx="1"/>
  <rect x="401.2" y="433.8" width="50.0" height="21.4" fill="#f87171" rx="1"/>
  <rect x="453.7" y="484.3" width="50.0" height="60.7" fill="#f59e0b" rx="1"/>
  <rect x="453.7" y="449.0" width="50.0" height="35.3" fill="#c47d08" rx="1"/>
  <rect x="453.7" y="429.7" width="50.0" height="19.3" fill="#f59e0b" rx="1"/>
  <text x="450.0" y="563" text-anchor="middle" fill="#e6edf3" font-size="11" font-weight="600">Level 1</text>
  <rect x="602.0" y="484.6" width="50.0" height="60.4" fill="#60a5fa" rx="1"/>
  <rect x="602.0" y="453.0" width="50.0" height="31.6" fill="#4680c4" rx="1"/>
  <rect x="602.0" y="441.5" width="50.0" height="11.5" fill="#60a5fa" rx="1"/>
  <rect x="654.5" y="476.9" width="50.0" height="68.1" fill="#f87171" rx="1"/>
  <rect x="654.5" y="441.2" width="50.0" height="35.7" fill="#c45050" rx="1"/>
  <rect x="654.5" y="424.2" width="50.0" height="17.0" fill="#f87171" rx="1"/>
  <rect x="707.0" y="425.9" width="50.0" height="119.1" fill="#f59e0b" rx="1"/>
  <rect x="707.0" y="393.6" width="50.0" height="32.3" fill="#c47d08" rx="1"/>
  <rect x="707.0" y="371.1" width="50.0" height="22.5" fill="#f59e0b" rx="1"/>
  <text x="703.3" y="563" text-anchor="middle" fill="#e6edf3" font-size="11" font-weight="600">Level 3</text>
  <text x="450.0" y="614" text-anchor="middle" fill="#e6edf3" font-size="12" font-weight="600">Low compressibility</text>
  <line x1="70" y1="753.8" x2="830" y2="753.8" stroke="#21262d" stroke-width="1"/>
  <text x="62" y="753.8" text-anchor="end" dominant-baseline="middle" fill="#7d8590" font-size="10">10.0</text>
  <line x1="70" y1="687.6" x2="830" y2="687.6" stroke="#21262d" stroke-width="1"/>
  <text x="62" y="687.6" text-anchor="end" dominant-baseline="middle" fill="#7d8590" font-size="10">20.0</text>
  <line x1="70" y1="621.4" x2="830" y2="621.4" stroke="#21262d" stroke-width="1"/>
  <text x="62" y="621.4" text-anchor="end" dominant-baseline="middle" fill="#7d8590" font-size="10">30.0</text>
  <line x1="70" y1="820" x2="830" y2="820" stroke="#30363d" stroke-width="1.5"/>
  <rect x="95.3" y="808.5" width="50.0" height="11.5" fill="#60a5fa" rx="1"/>
  <rect x="95.3" y="745.3" width="50.0" height="63.2" fill="#4680c4" rx="1"/>
  <rect x="95.3" y="743.6" width="50.0" height="1.7" fill="#60a5fa" rx="1"/>
  <rect x="147.8" y="808.4" width="50.0" height="11.6" fill="#f87171" rx="1"/>
  <rect x="147.8" y="744.9" width="50.0" height="63.5" fill="#c45050" rx="1"/>
  <rect x="147.8" y="741.9" width="50.0" height="3.0" fill="#f87171" rx="1"/>
  <rect x="200.3" y="782.9" width="50.0" height="37.1" fill="#f59e0b" rx="1"/>
  <rect x="200.3" y="727.4" width="50.0" height="55.5" fill="#c47d08" rx="1"/>
  <rect x="200.3" y="719.1" width="50.0" height="8.4" fill="#f59e0b" rx="1"/>
  <text x="196.7" y="838" text-anchor="middle" fill="#e6edf3" font-size="11" font-weight="600">Level −1</text>
  <rect x="348.7" y="801.4" width="50.0" height="18.6" fill="#60a5fa" rx="1"/>
  <rect x="348.7" y="746.5" width="50.0" height="54.8" fill="#4680c4" rx="1"/>
  <rect x="348.7" y="739.8" width="50.0" height="6.7" fill="#60a5fa" rx="1"/>
  <rect x="401.2" y="789.5" width="50.0" height="30.5" fill="#f87171" rx="1"/>
  <rect x="401.2" y="731.1" width="50.0" height="58.4" fill="#c45050" rx="1"/>
  <rect x="401.2" y="724.4" width="50.0" height="6.8" fill="#f87171" rx="1"/>
  <rect x="453.7" y="781.1" width="50.0" height="38.9" fill="#f59e0b" rx="1"/>
  <rect x="453.7" y="726.2" width="50.0" height="54.8" fill="#c47d08" rx="1"/>
  <rect x="453.7" y="717.6" width="50.0" height="8.6" fill="#f59e0b" rx="1"/>
  <text x="450.0" y="838" text-anchor="middle" fill="#e6edf3" font-size="11" font-weight="600">Level 1</text>
  <rect x="602.0" y="751.7" width="50.0" height="68.3" fill="#60a5fa" rx="1"/>
  <rect x="602.0" y="702.8" width="50.0" height="48.9" fill="#4680c4" rx="1"/>
  <rect x="602.0" y="693.0" width="50.0" height="9.9" fill="#60a5fa" rx="1"/>
  <rect x="654.5" y="766.3" width="50.0" height="53.7" fill="#f87171" rx="1"/>
  <rect x="654.5" y="711.0" width="50.0" height="55.3" fill="#c45050" rx="1"/>
  <rect x="654.5" y="703.6" width="50.0" height="7.4" fill="#f87171" rx="1"/>
  <rect x="707.0" y="709.2" width="50.0" height="110.8" fill="#f59e0b" rx="1"/>
  <rect x="707.0" y="659.2" width="50.0" height="50.0" fill="#c47d08" rx="1"/>
  <rect x="707.0" y="646.1" width="50.0" height="13.1" fill="#f59e0b" rx="1"/>
  <text x="703.3" y="838" text-anchor="middle" fill="#e6edf3" font-size="11" font-weight="600">Level 3</text>
  <rect x="250" y="850" width="12" height="12" fill="#60a5fa" rx="2"/>
  <text x="268" y="860" fill="#e6edf3" font-size="10" font-weight="500">C zstd 1.5.7 (libzstd)</text>
  <rect x="250" y="868" width="12" height="12" fill="#f87171" rx="2"/>
  <text x="268" y="878" fill="#e6edf3" font-size="10" font-weight="500">zrip (safe API, Rust)</text>
  <rect x="460" y="850" width="12" height="12" fill="#f59e0b" rx="2"/>
  <text x="478" y="860" fill="#e6edf3" font-size="10" font-weight="500">structured-zstd 0.0.41 (unsafe Rust)</text>
  <rect x="460" y="868" width="12" height="12" fill="#c084fc" rx="2"/>
  <text x="478" y="878" fill="#e6edf3" font-size="10" font-weight="500">lz4rip 0.3.1 (safe API, Rust, LZ4)</text>
  <text x="240" y="903" fill="#e6edf3" font-size="9">bright = compress + decompress</text>
  <text x="480" y="903" fill="#7d8590" font-size="9">dim = transfer @100 MB/s</text>
</svg>
