<svg xmlns="http://www.w3.org/2000/svg" viewBox="0 0 850 950" font-family="system-ui, -apple-system, sans-serif">
  <rect width="850" height="950" fill="#0d1117"/>
  <text x="450.0" y="22" text-anchor="middle" fill="#e6edf3" font-size="14" font-weight="700">zstd Pipeline @100 MB/s: Aggregate across corpus (lower is better)</text>
  <text x="450.0" y="38" text-anchor="middle" fill="#7d8590" font-size="10">Intel Core i7-8700B @ 3.20GHz, performance governor, turbo off</text>
  <text x="22" y="445.0" text-anchor="middle" fill="#e6edf3" font-size="11" font-weight="600" transform="rotate(-90,22,445.0)">seconds / GB</text>
  <text x="450.0" y="64" text-anchor="middle" fill="#e6edf3" font-size="12" font-weight="600">High compressibility</text>
  <line x1="70" y1="230.7" x2="830" y2="230.7" stroke="#21262d" stroke-width="1"/>
  <text x="62" y="230.7" text-anchor="end" dominant-baseline="middle" fill="#7d8590" font-size="10">2.0</text>
  <line x1="70" y1="191.4" x2="830" y2="191.4" stroke="#21262d" stroke-width="1"/>
  <text x="62" y="191.4" text-anchor="end" dominant-baseline="middle" fill="#7d8590" font-size="10">4.0</text>
  <line x1="70" y1="152.1" x2="830" y2="152.1" stroke="#21262d" stroke-width="1"/>
  <text x="62" y="152.1" text-anchor="end" dominant-baseline="middle" fill="#7d8590" font-size="10">6.0</text>
  <line x1="70" y1="112.8" x2="830" y2="112.8" stroke="#21262d" stroke-width="1"/>
  <text x="62" y="112.8" text-anchor="end" dominant-baseline="middle" fill="#7d8590" font-size="10">8.0</text>
  <line x1="70" y1="73.5" x2="830" y2="73.5" stroke="#21262d" stroke-width="1"/>
  <text x="62" y="73.5" text-anchor="end" dominant-baseline="middle" fill="#7d8590" font-size="10">10.0</text>
  <line x1="70" y1="270" x2="830" y2="270" stroke="#30363d" stroke-width="1.5"/>
  <rect x="95.3" y="233.1" width="44.3" height="36.9" fill="#60a5fa" rx="1"/>
  <rect x="95.3" y="200.5" width="44.3" height="32.7" fill="#4680c4" rx="1"/>
  <rect x="95.3" y="188.3" width="44.3" height="12.2" fill="#60a5fa" rx="1"/>
  <rect x="141.3" y="220.9" width="44.3" height="49.1" fill="#f87171" rx="1"/>
  <rect x="141.3" y="186.4" width="44.3" height="34.5" fill="#c45050" rx="1"/>
  <rect x="141.3" y="158.9" width="44.3" height="27.5" fill="#f87171" rx="1"/>
  <rect x="187.3" y="201.2" width="44.3" height="68.8" fill="#f59e0b" rx="1"/>
  <rect x="187.3" y="173.2" width="44.3" height="28.1" fill="#c47d08" rx="1"/>
  <rect x="187.3" y="149.5" width="44.3" height="23.7" fill="#f59e0b" rx="1"/>
  <rect x="233.3" y="188.7" width="44.3" height="81.3" fill="#f472b6" rx="1"/>
  <rect x="233.3" y="154.2" width="44.3" height="34.5" fill="#c05a92" rx="1"/>
  <rect x="233.3" y="112.2" width="44.3" height="42.0" fill="#f472b6" rx="1"/>
  <text x="196.7" y="288" text-anchor="middle" fill="#e6edf3" font-size="11" font-weight="600">Level −1</text>
  <rect x="348.7" y="230.4" width="44.3" height="39.6" fill="#60a5fa" rx="1"/>
  <rect x="348.7" y="202.9" width="44.3" height="27.5" fill="#4680c4" rx="1"/>
  <rect x="348.7" y="190.0" width="44.3" height="12.9" fill="#60a5fa" rx="1"/>
  <rect x="394.7" y="216.8" width="44.3" height="53.2" fill="#f87171" rx="1"/>
  <rect x="394.7" y="185.3" width="44.3" height="31.5" fill="#c45050" rx="1"/>
  <rect x="394.7" y="154.2" width="44.3" height="31.1" fill="#f87171" rx="1"/>
  <rect x="440.7" y="199.8" width="44.3" height="70.2" fill="#f59e0b" rx="1"/>
  <rect x="440.7" y="172.3" width="44.3" height="27.5" fill="#c47d08" rx="1"/>
  <rect x="440.7" y="148.6" width="44.3" height="23.8" fill="#f59e0b" rx="1"/>
  <rect x="486.7" y="180.1" width="44.3" height="89.9" fill="#f472b6" rx="1"/>
  <rect x="486.7" y="148.6" width="44.3" height="31.5" fill="#c05a92" rx="1"/>
  <rect x="486.7" y="99.3" width="44.3" height="49.3" fill="#f472b6" rx="1"/>
  <text x="450.0" y="288" text-anchor="middle" fill="#e6edf3" font-size="11" font-weight="600">Level 1</text>
  <rect x="602.0" y="217.4" width="44.3" height="52.6" fill="#60a5fa" rx="1"/>
  <rect x="602.0" y="191.7" width="44.3" height="25.7" fill="#4680c4" rx="1"/>
  <rect x="602.0" y="178.2" width="44.3" height="13.5" fill="#60a5fa" rx="1"/>
  <rect x="648.0" y="205.6" width="44.3" height="64.4" fill="#f87171" rx="1"/>
  <rect x="648.0" y="176.7" width="44.3" height="28.9" fill="#c45050" rx="1"/>
  <rect x="648.0" y="149.0" width="44.3" height="27.7" fill="#f87171" rx="1"/>
  <rect x="694.0" y="162.0" width="44.3" height="108.0" fill="#f59e0b" rx="1"/>
  <rect x="694.0" y="135.2" width="44.3" height="26.8" fill="#c47d08" rx="1"/>
  <rect x="694.0" y="110.6" width="44.3" height="24.5" fill="#f59e0b" rx="1"/>
  <rect x="740.0" y="168.6" width="44.3" height="101.4" fill="#f472b6" rx="1"/>
  <rect x="740.0" y="139.8" width="44.3" height="28.9" fill="#c05a92" rx="1"/>
  <rect x="740.0" y="96.1" width="44.3" height="43.7" fill="#f472b6" rx="1"/>
  <text x="703.3" y="288" text-anchor="middle" fill="#e6edf3" font-size="11" font-weight="600">Level 3</text>
  <text x="450.0" y="339" text-anchor="middle" fill="#e6edf3" font-size="12" font-weight="600">Medium compressibility</text>
  <line x1="70" y1="499.4" x2="830" y2="499.4" stroke="#21262d" stroke-width="1"/>
  <text x="62" y="499.4" text-anchor="end" dominant-baseline="middle" fill="#7d8590" font-size="10">5.0</text>
  <line x1="70" y1="453.7" x2="830" y2="453.7" stroke="#21262d" stroke-width="1"/>
  <text x="62" y="453.7" text-anchor="end" dominant-baseline="middle" fill="#7d8590" font-size="10">10.0</text>
  <line x1="70" y1="408.1" x2="830" y2="408.1" stroke="#21262d" stroke-width="1"/>
  <text x="62" y="408.1" text-anchor="end" dominant-baseline="middle" fill="#7d8590" font-size="10">15.0</text>
  <line x1="70" y1="362.5" x2="830" y2="362.5" stroke="#21262d" stroke-width="1"/>
  <text x="62" y="362.5" text-anchor="end" dominant-baseline="middle" fill="#7d8590" font-size="10">20.0</text>
  <line x1="70" y1="545" x2="830" y2="545" stroke="#30363d" stroke-width="1.5"/>
  <rect x="95.3" y="512.6" width="44.3" height="32.4" fill="#60a5fa" rx="1"/>
  <rect x="95.3" y="472.3" width="44.3" height="40.2" fill="#4680c4" rx="1"/>
  <rect x="95.3" y="464.3" width="44.3" height="8.1" fill="#60a5fa" rx="1"/>
  <rect x="141.3" y="501.9" width="44.3" height="43.1" fill="#f87171" rx="1"/>
  <rect x="141.3" y="461.7" width="44.3" height="40.2" fill="#c45050" rx="1"/>
  <rect x="141.3" y="445.7" width="44.3" height="16.0" fill="#f87171" rx="1"/>
  <rect x="187.3" y="488.8" width="44.3" height="56.2" fill="#f59e0b" rx="1"/>
  <rect x="187.3" y="453.9" width="44.3" height="34.9" fill="#c47d08" rx="1"/>
  <rect x="187.3" y="436.5" width="44.3" height="17.4" fill="#f59e0b" rx="1"/>
  <rect x="233.3" y="473.4" width="44.3" height="71.6" fill="#f472b6" rx="1"/>
  <rect x="233.3" y="433.2" width="44.3" height="40.2" fill="#c05a92" rx="1"/>
  <rect x="233.3" y="403.7" width="44.3" height="29.5" fill="#f472b6" rx="1"/>
  <text x="196.7" y="563" text-anchor="middle" fill="#e6edf3" font-size="11" font-weight="600">Level −1</text>
  <rect x="348.7" y="510.0" width="44.3" height="35.0" fill="#60a5fa" rx="1"/>
  <rect x="348.7" y="476.5" width="44.3" height="33.5" fill="#4680c4" rx="1"/>
  <rect x="348.7" y="467.1" width="44.3" height="9.4" fill="#60a5fa" rx="1"/>
  <rect x="394.7" y="495.7" width="44.3" height="49.3" fill="#f87171" rx="1"/>
  <rect x="394.7" y="459.7" width="44.3" height="36.0" fill="#c45050" rx="1"/>
  <rect x="394.7" y="439.3" width="44.3" height="20.4" fill="#f87171" rx="1"/>
  <rect x="440.7" y="487.3" width="44.3" height="57.7" fill="#f59e0b" rx="1"/>
  <rect x="440.7" y="453.7" width="44.3" height="33.7" fill="#c47d08" rx="1"/>
  <rect x="440.7" y="436.2" width="44.3" height="17.5" fill="#f59e0b" rx="1"/>
  <rect x="486.7" y="459.2" width="44.3" height="85.8" fill="#f472b6" rx="1"/>
  <rect x="486.7" y="423.2" width="44.3" height="36.0" fill="#c05a92" rx="1"/>
  <rect x="486.7" y="384.5" width="44.3" height="38.8" fill="#f472b6" rx="1"/>
  <text x="450.0" y="563" text-anchor="middle" fill="#e6edf3" font-size="11" font-weight="600">Level 1</text>
  <rect x="602.0" y="486.8" width="44.3" height="58.2" fill="#60a5fa" rx="1"/>
  <rect x="602.0" y="456.6" width="44.3" height="30.3" fill="#4680c4" rx="1"/>
  <rect x="602.0" y="445.6" width="44.3" height="11.0" fill="#60a5fa" rx="1"/>
  <rect x="648.0" y="474.6" width="44.3" height="70.4" fill="#f87171" rx="1"/>
  <rect x="648.0" y="441.0" width="44.3" height="33.6" fill="#c45050" rx="1"/>
  <rect x="648.0" y="423.7" width="44.3" height="17.4" fill="#f87171" rx="1"/>
  <rect x="694.0" y="433.6" width="44.3" height="111.4" fill="#f59e0b" rx="1"/>
  <rect x="694.0" y="402.7" width="44.3" height="30.9" fill="#c47d08" rx="1"/>
  <rect x="694.0" y="382.8" width="44.3" height="19.9" fill="#f59e0b" rx="1"/>
  <rect x="740.0" y="437.9" width="44.3" height="107.1" fill="#f472b6" rx="1"/>
  <rect x="740.0" y="404.3" width="44.3" height="33.6" fill="#c05a92" rx="1"/>
  <rect x="740.0" y="371.1" width="44.3" height="33.2" fill="#f472b6" rx="1"/>
  <text x="703.3" y="563" text-anchor="middle" fill="#e6edf3" font-size="11" font-weight="600">Level 3</text>
  <text x="450.0" y="614" text-anchor="middle" fill="#e6edf3" font-size="12" font-weight="600">Low compressibility</text>
  <line x1="70" y1="786.3" x2="830" y2="786.3" stroke="#21262d" stroke-width="1"/>
  <text x="62" y="786.3" text-anchor="end" dominant-baseline="middle" fill="#7d8590" font-size="10">5.0</text>
  <line x1="70" y1="752.7" x2="830" y2="752.7" stroke="#21262d" stroke-width="1"/>
  <text x="62" y="752.7" text-anchor="end" dominant-baseline="middle" fill="#7d8590" font-size="10">10.0</text>
  <line x1="70" y1="719.0" x2="830" y2="719.0" stroke="#21262d" stroke-width="1"/>
  <text x="62" y="719.0" text-anchor="end" dominant-baseline="middle" fill="#7d8590" font-size="10">15.0</text>
  <line x1="70" y1="685.3" x2="830" y2="685.3" stroke="#21262d" stroke-width="1"/>
  <text x="62" y="685.3" text-anchor="end" dominant-baseline="middle" fill="#7d8590" font-size="10">20.0</text>
  <line x1="70" y1="651.7" x2="830" y2="651.7" stroke="#21262d" stroke-width="1"/>
  <text x="62" y="651.7" text-anchor="end" dominant-baseline="middle" fill="#7d8590" font-size="10">25.0</text>
  <line x1="70" y1="820" x2="830" y2="820" stroke="#30363d" stroke-width="1.5"/>
  <rect x="95.3" y="808.4" width="44.3" height="11.6" fill="#60a5fa" rx="1"/>
  <rect x="95.3" y="744.1" width="44.3" height="64.3" fill="#4680c4" rx="1"/>
  <rect x="95.3" y="742.3" width="44.3" height="1.7" fill="#60a5fa" rx="1"/>
  <rect x="141.3" y="808.2" width="44.3" height="11.8" fill="#f87171" rx="1"/>
  <rect x="141.3" y="743.6" width="44.3" height="64.6" fill="#c45050" rx="1"/>
  <rect x="141.3" y="740.6" width="44.3" height="3.0" fill="#f87171" rx="1"/>
  <rect x="187.3" y="784.9" width="44.3" height="35.1" fill="#f59e0b" rx="1"/>
  <rect x="187.3" y="728.5" width="44.3" height="56.4" fill="#c47d08" rx="1"/>
  <rect x="187.3" y="719.6" width="44.3" height="8.9" fill="#f59e0b" rx="1"/>
  <rect x="233.3" y="802.7" width="44.3" height="17.3" fill="#f472b6" rx="1"/>
  <rect x="233.3" y="738.1" width="44.3" height="64.6" fill="#c05a92" rx="1"/>
  <rect x="233.3" y="733.7" width="44.3" height="4.4" fill="#f472b6" rx="1"/>
  <text x="196.7" y="838" text-anchor="middle" fill="#e6edf3" font-size="11" font-weight="600">Level −1</text>
  <rect x="348.7" y="801.1" width="44.3" height="18.9" fill="#60a5fa" rx="1"/>
  <rect x="348.7" y="745.3" width="44.3" height="55.8" fill="#4680c4" rx="1"/>
  <rect x="348.7" y="738.5" width="44.3" height="6.8" fill="#60a5fa" rx="1"/>
  <rect x="394.7" y="789.1" width="44.3" height="30.9" fill="#f87171" rx="1"/>
  <rect x="394.7" y="729.7" width="44.3" height="59.4" fill="#c45050" rx="1"/>
  <rect x="394.7" y="722.7" width="44.3" height="7.0" fill="#f87171" rx="1"/>
  <rect x="440.7" y="783.1" width="44.3" height="36.9" fill="#f59e0b" rx="1"/>
  <rect x="440.7" y="727.3" width="44.3" height="55.8" fill="#c47d08" rx="1"/>
  <rect x="440.7" y="718.2" width="44.3" height="9.1" fill="#f59e0b" rx="1"/>
  <rect x="486.7" y="770.0" width="44.3" height="50.0" fill="#f472b6" rx="1"/>
  <rect x="486.7" y="710.6" width="44.3" height="59.4" fill="#c05a92" rx="1"/>
  <rect x="486.7" y="697.2" width="44.3" height="13.4" fill="#f472b6" rx="1"/>
  <text x="450.0" y="838" text-anchor="middle" fill="#e6edf3" font-size="11" font-weight="600">Level 1</text>
  <rect x="602.0" y="749.3" width="44.3" height="70.7" fill="#60a5fa" rx="1"/>
  <rect x="602.0" y="699.6" width="44.3" height="49.7" fill="#4680c4" rx="1"/>
  <rect x="602.0" y="689.5" width="44.3" height="10.0" fill="#60a5fa" rx="1"/>
  <rect x="648.0" y="752.5" width="44.3" height="67.5" fill="#f87171" rx="1"/>
  <rect x="648.0" y="699.1" width="44.3" height="53.4" fill="#c45050" rx="1"/>
  <rect x="648.0" y="688.7" width="44.3" height="10.4" fill="#f87171" rx="1"/>
  <rect x="694.0" y="712.2" width="44.3" height="107.8" fill="#f59e0b" rx="1"/>
  <rect x="694.0" y="661.2" width="44.3" height="51.0" fill="#c47d08" rx="1"/>
  <rect x="694.0" y="648.6" width="44.3" height="12.7" fill="#f59e0b" rx="1"/>
  <rect x="740.0" y="720.1" width="44.3" height="99.9" fill="#f472b6" rx="1"/>
  <rect x="740.0" y="666.7" width="44.3" height="53.4" fill="#c05a92" rx="1"/>
  <rect x="740.0" y="646.1" width="44.3" height="20.6" fill="#f472b6" rx="1"/>
  <text x="703.3" y="838" text-anchor="middle" fill="#e6edf3" font-size="11" font-weight="600">Level 3</text>
  <rect x="250" y="850" width="12" height="12" fill="#60a5fa" rx="2"/>
  <text x="268" y="860" fill="#e6edf3" font-size="10" font-weight="500">C zstd 1.5.7 (libzstd)</text>
  <rect x="250" y="868" width="12" height="12" fill="#f87171" rx="2"/>
  <text x="268" y="878" fill="#e6edf3" font-size="10" font-weight="500">zrip (encapsulated unsafe, Rust)</text>
  <rect x="460" y="850" width="12" height="12" fill="#f59e0b" rx="2"/>
  <text x="478" y="860" fill="#e6edf3" font-size="10" font-weight="500">structured-zstd 0.0.44 (unsafe Rust)</text>
  <rect x="460" y="868" width="12" height="12" fill="#f472b6" rx="2"/>
  <text x="478" y="878" fill="#e6edf3" font-size="10" font-weight="500">zrip paranoid (safe Rust, no unsafe)</text>
  <text x="240" y="903" fill="#e6edf3" font-size="9">bright = compress + decompress</text>
  <text x="480" y="903" fill="#7d8590" font-size="9">dim = transfer @100 MB/s</text>
</svg>
