<svg xmlns="http://www.w3.org/2000/svg" viewBox="0 0 850 950" font-family="system-ui, -apple-system, sans-serif">
  <rect width="850" height="950" fill="#0d1117"/>
  <text x="450.0" y="22" text-anchor="middle" fill="#e6edf3" font-size="14" font-weight="700">zstd Pipeline @100 MB/s: Aggregate across corpus (lower is better)</text>
  <text x="450.0" y="38" text-anchor="middle" fill="#7d8590" font-size="10">Intel Core i7-8700B @ 3.20GHz, performance governor, turbo off</text>
  <text x="22" y="445.0" text-anchor="middle" fill="#e6edf3" font-size="11" font-weight="600" transform="rotate(-90,22,445.0)">seconds / GB</text>
  <text x="450.0" y="64" text-anchor="middle" fill="#e6edf3" font-size="12" font-weight="600">High compressibility</text>
  <line x1="70" y1="225.3" x2="830" y2="225.3" stroke="#21262d" stroke-width="1"/>
  <text x="62" y="225.3" text-anchor="end" dominant-baseline="middle" fill="#7d8590" font-size="10">2.0</text>
  <line x1="70" y1="180.6" x2="830" y2="180.6" stroke="#21262d" stroke-width="1"/>
  <text x="62" y="180.6" text-anchor="end" dominant-baseline="middle" fill="#7d8590" font-size="10">4.0</text>
  <line x1="70" y1="135.9" x2="830" y2="135.9" stroke="#21262d" stroke-width="1"/>
  <text x="62" y="135.9" text-anchor="end" dominant-baseline="middle" fill="#7d8590" font-size="10">6.0</text>
  <line x1="70" y1="91.3" x2="830" y2="91.3" stroke="#21262d" stroke-width="1"/>
  <text x="62" y="91.3" text-anchor="end" dominant-baseline="middle" fill="#7d8590" font-size="10">8.0</text>
  <line x1="70" y1="270" x2="830" y2="270" stroke="#30363d" stroke-width="1.5"/>
  <rect x="95.3" y="229.2" width="44.3" height="40.8" fill="#60a5fa" rx="1"/>
  <rect x="95.3" y="192.0" width="44.3" height="37.1" fill="#4680c4" rx="1"/>
  <rect x="95.3" y="178.6" width="44.3" height="13.5" fill="#60a5fa" rx="1"/>
  <rect x="141.3" y="209.2" width="44.3" height="60.8" fill="#f87171" rx="1"/>
  <rect x="141.3" y="171.6" width="44.3" height="37.6" fill="#c45050" rx="1"/>
  <rect x="141.3" y="145.6" width="44.3" height="25.9" fill="#f87171" rx="1"/>
  <rect x="187.3" y="197.0" width="44.3" height="73.0" fill="#f59e0b" rx="1"/>
  <rect x="187.3" y="159.8" width="44.3" height="37.2" fill="#c47d08" rx="1"/>
  <rect x="187.3" y="139.3" width="44.3" height="20.5" fill="#f59e0b" rx="1"/>
  <rect x="233.3" y="184.5" width="44.3" height="85.5" fill="#f472b6" rx="1"/>
  <rect x="233.3" y="146.9" width="44.3" height="37.6" fill="#c05a92" rx="1"/>
  <rect x="233.3" y="114.6" width="44.3" height="32.3" fill="#f472b6" rx="1"/>
  <text x="196.7" y="288" text-anchor="middle" fill="#e6edf3" font-size="11" font-weight="600">Level −1</text>
  <rect x="348.7" y="226.4" width="44.3" height="43.6" fill="#60a5fa" rx="1"/>
  <rect x="348.7" y="195.2" width="44.3" height="31.2" fill="#4680c4" rx="1"/>
  <rect x="348.7" y="180.8" width="44.3" height="14.3" fill="#60a5fa" rx="1"/>
  <rect x="394.7" y="205.0" width="44.3" height="65.0" fill="#f87171" rx="1"/>
  <rect x="394.7" y="169.1" width="44.3" height="35.8" fill="#c45050" rx="1"/>
  <rect x="394.7" y="139.9" width="44.3" height="29.3" fill="#f87171" rx="1"/>
  <rect x="440.7" y="193.4" width="44.3" height="76.6" fill="#f59e0b" rx="1"/>
  <rect x="440.7" y="162.0" width="44.3" height="31.3" fill="#c47d08" rx="1"/>
  <rect x="440.7" y="140.7" width="44.3" height="21.3" fill="#f59e0b" rx="1"/>
  <rect x="486.7" y="176.8" width="44.3" height="93.2" fill="#f472b6" rx="1"/>
  <rect x="486.7" y="141.0" width="44.3" height="35.8" fill="#c05a92" rx="1"/>
  <rect x="486.7" y="104.8" width="44.3" height="36.2" fill="#f472b6" rx="1"/>
  <text x="450.0" y="288" text-anchor="middle" fill="#e6edf3" font-size="11" font-weight="600">Level 1</text>
  <rect x="602.0" y="213.5" width="44.3" height="56.5" fill="#60a5fa" rx="1"/>
  <rect x="602.0" y="184.2" width="44.3" height="29.3" fill="#4680c4" rx="1"/>
  <rect x="602.0" y="169.3" width="44.3" height="14.9" fill="#60a5fa" rx="1"/>
  <rect x="648.0" y="194.4" width="44.3" height="75.6" fill="#f87171" rx="1"/>
  <rect x="648.0" y="161.5" width="44.3" height="32.8" fill="#c45050" rx="1"/>
  <rect x="648.0" y="135.5" width="44.3" height="26.0" fill="#f87171" rx="1"/>
  <rect x="694.0" y="153.7" width="44.3" height="116.3" fill="#f59e0b" rx="1"/>
  <rect x="694.0" y="124.4" width="44.3" height="29.3" fill="#c47d08" rx="1"/>
  <rect x="694.0" y="101.9" width="44.3" height="22.5" fill="#f59e0b" rx="1"/>
  <rect x="740.0" y="161.4" width="44.3" height="108.6" fill="#f472b6" rx="1"/>
  <rect x="740.0" y="128.6" width="44.3" height="32.8" fill="#c05a92" rx="1"/>
  <rect x="740.0" y="96.1" width="44.3" height="32.5" fill="#f472b6" rx="1"/>
  <text x="703.3" y="288" text-anchor="middle" fill="#e6edf3" font-size="11" font-weight="600">Level 3</text>
  <text x="450.0" y="339" text-anchor="middle" fill="#e6edf3" font-size="12" font-weight="600">Medium compressibility</text>
  <line x1="70" y1="495.2" x2="830" y2="495.2" stroke="#21262d" stroke-width="1"/>
  <text x="62" y="495.2" text-anchor="end" dominant-baseline="middle" fill="#7d8590" font-size="10">5.0</text>
  <line x1="70" y1="445.5" x2="830" y2="445.5" stroke="#21262d" stroke-width="1"/>
  <text x="62" y="445.5" text-anchor="end" dominant-baseline="middle" fill="#7d8590" font-size="10">10.0</text>
  <line x1="70" y1="395.7" x2="830" y2="395.7" stroke="#21262d" stroke-width="1"/>
  <text x="62" y="395.7" text-anchor="end" dominant-baseline="middle" fill="#7d8590" font-size="10">15.0</text>
  <line x1="70" y1="346.0" x2="830" y2="346.0" stroke="#21262d" stroke-width="1"/>
  <text x="62" y="346.0" text-anchor="end" dominant-baseline="middle" fill="#7d8590" font-size="10">20.0</text>
  <line x1="70" y1="545" x2="830" y2="545" stroke="#30363d" stroke-width="1.5"/>
  <rect x="95.3" y="511.5" width="44.3" height="33.5" fill="#60a5fa" rx="1"/>
  <rect x="95.3" y="467.6" width="44.3" height="43.9" fill="#4680c4" rx="1"/>
  <rect x="95.3" y="458.9" width="44.3" height="8.7" fill="#60a5fa" rx="1"/>
  <rect x="141.3" y="491.9" width="44.3" height="53.1" fill="#f87171" rx="1"/>
  <rect x="141.3" y="450.2" width="44.3" height="41.7" fill="#c45050" rx="1"/>
  <rect x="141.3" y="431.1" width="44.3" height="19.1" fill="#f87171" rx="1"/>
  <rect x="187.3" y="490.2" width="44.3" height="54.8" fill="#f59e0b" rx="1"/>
  <rect x="187.3" y="446.2" width="44.3" height="44.0" fill="#c47d08" rx="1"/>
  <rect x="187.3" y="432.6" width="44.3" height="13.6" fill="#f59e0b" rx="1"/>
  <rect x="233.3" y="472.2" width="44.3" height="72.8" fill="#f472b6" rx="1"/>
  <rect x="233.3" y="430.4" width="44.3" height="41.7" fill="#c05a92" rx="1"/>
  <rect x="233.3" y="405.4" width="44.3" height="25.0" fill="#f472b6" rx="1"/>
  <text x="196.7" y="563" text-anchor="middle" fill="#e6edf3" font-size="11" font-weight="600">Level −1</text>
  <rect x="348.7" y="508.8" width="44.3" height="36.2" fill="#60a5fa" rx="1"/>
  <rect x="348.7" y="472.2" width="44.3" height="36.6" fill="#4680c4" rx="1"/>
  <rect x="348.7" y="462.1" width="44.3" height="10.2" fill="#60a5fa" rx="1"/>
  <rect x="394.7" y="486.5" width="44.3" height="58.5" fill="#f87171" rx="1"/>
  <rect x="394.7" y="447.3" width="44.3" height="39.2" fill="#c45050" rx="1"/>
  <rect x="394.7" y="424.6" width="44.3" height="22.6" fill="#f87171" rx="1"/>
  <rect x="440.7" y="483.7" width="44.3" height="61.3" fill="#f59e0b" rx="1"/>
  <rect x="440.7" y="447.0" width="44.3" height="36.7" fill="#c47d08" rx="1"/>
  <rect x="440.7" y="431.6" width="44.3" height="15.4" fill="#f59e0b" rx="1"/>
  <rect x="486.7" y="460.7" width="44.3" height="84.3" fill="#f472b6" rx="1"/>
  <rect x="486.7" y="421.5" width="44.3" height="39.2" fill="#c05a92" rx="1"/>
  <rect x="486.7" y="391.3" width="44.3" height="30.1" fill="#f472b6" rx="1"/>
  <text x="450.0" y="563" text-anchor="middle" fill="#e6edf3" font-size="11" font-weight="600">Level 1</text>
  <rect x="602.0" y="485.4" width="44.3" height="59.6" fill="#60a5fa" rx="1"/>
  <rect x="602.0" y="452.3" width="44.3" height="33.0" fill="#4680c4" rx="1"/>
  <rect x="602.0" y="440.7" width="44.3" height="11.7" fill="#60a5fa" rx="1"/>
  <rect x="648.0" y="465.4" width="44.3" height="79.6" fill="#f87171" rx="1"/>
  <rect x="648.0" y="428.8" width="44.3" height="36.6" fill="#c45050" rx="1"/>
  <rect x="648.0" y="408.8" width="44.3" height="20.0" fill="#f87171" rx="1"/>
  <rect x="694.0" y="431.3" width="44.3" height="113.7" fill="#f59e0b" rx="1"/>
  <rect x="694.0" y="398.0" width="44.3" height="33.3" fill="#c47d08" rx="1"/>
  <rect x="694.0" y="380.1" width="44.3" height="17.8" fill="#f59e0b" rx="1"/>
  <rect x="740.0" y="434.7" width="44.3" height="110.3" fill="#f472b6" rx="1"/>
  <rect x="740.0" y="398.0" width="44.3" height="36.6" fill="#c05a92" rx="1"/>
  <rect x="740.0" y="371.1" width="44.3" height="26.9" fill="#f472b6" rx="1"/>
  <text x="703.3" y="563" text-anchor="middle" fill="#e6edf3" font-size="11" font-weight="600">Level 3</text>
  <text x="450.0" y="614" text-anchor="middle" fill="#e6edf3" font-size="12" font-weight="600">Low compressibility</text>
  <line x1="70" y1="758.6" x2="830" y2="758.6" stroke="#21262d" stroke-width="1"/>
  <text x="62" y="758.6" text-anchor="end" dominant-baseline="middle" fill="#7d8590" font-size="10">10.0</text>
  <line x1="70" y1="697.2" x2="830" y2="697.2" stroke="#21262d" stroke-width="1"/>
  <text x="62" y="697.2" text-anchor="end" dominant-baseline="middle" fill="#7d8590" font-size="10">20.0</text>
  <line x1="70" y1="635.7" x2="830" y2="635.7" stroke="#21262d" stroke-width="1"/>
  <text x="62" y="635.7" text-anchor="end" dominant-baseline="middle" fill="#7d8590" font-size="10">30.0</text>
  <line x1="70" y1="820" x2="830" y2="820" stroke="#30363d" stroke-width="1.5"/>
  <rect x="95.3" y="809.5" width="44.3" height="10.5" fill="#60a5fa" rx="1"/>
  <rect x="95.3" y="750.9" width="44.3" height="58.6" fill="#4680c4" rx="1"/>
  <rect x="95.3" y="749.4" width="44.3" height="1.5" fill="#60a5fa" rx="1"/>
  <rect x="141.3" y="804.3" width="44.3" height="15.7" fill="#f87171" rx="1"/>
  <rect x="141.3" y="746.8" width="44.3" height="57.6" fill="#c45050" rx="1"/>
  <rect x="141.3" y="743.0" width="44.3" height="3.8" fill="#f87171" rx="1"/>
  <rect x="187.3" y="805.5" width="44.3" height="14.5" fill="#f59e0b" rx="1"/>
  <rect x="187.3" y="746.8" width="44.3" height="58.6" fill="#c47d08" rx="1"/>
  <rect x="187.3" y="744.4" width="44.3" height="2.5" fill="#f59e0b" rx="1"/>
  <rect x="233.3" y="798.7" width="44.3" height="21.3" fill="#f472b6" rx="1"/>
  <rect x="233.3" y="741.1" width="44.3" height="57.6" fill="#c05a92" rx="1"/>
  <rect x="233.3" y="736.5" width="44.3" height="4.6" fill="#f472b6" rx="1"/>
  <text x="196.7" y="838" text-anchor="middle" fill="#e6edf3" font-size="11" font-weight="600">Level −1</text>
  <rect x="348.7" y="803.0" width="44.3" height="17.0" fill="#60a5fa" rx="1"/>
  <rect x="348.7" y="752.2" width="44.3" height="50.9" fill="#4680c4" rx="1"/>
  <rect x="348.7" y="746.1" width="44.3" height="6.1" fill="#60a5fa" rx="1"/>
  <rect x="394.7" y="790.6" width="44.3" height="29.4" fill="#f87171" rx="1"/>
  <rect x="394.7" y="736.4" width="44.3" height="54.2" fill="#c45050" rx="1"/>
  <rect x="394.7" y="728.3" width="44.3" height="8.1" fill="#f87171" rx="1"/>
  <rect x="440.7" y="785.2" width="44.3" height="34.8" fill="#f59e0b" rx="1"/>
  <rect x="440.7" y="734.4" width="44.3" height="50.9" fill="#c47d08" rx="1"/>
  <rect x="440.7" y="726.0" width="44.3" height="8.3" fill="#f59e0b" rx="1"/>
  <rect x="486.7" y="778.2" width="44.3" height="41.8" fill="#f472b6" rx="1"/>
  <rect x="486.7" y="724.0" width="44.3" height="54.2" fill="#c05a92" rx="1"/>
  <rect x="486.7" y="714.2" width="44.3" height="9.8" fill="#f472b6" rx="1"/>
  <text x="450.0" y="838" text-anchor="middle" fill="#e6edf3" font-size="11" font-weight="600">Level 1</text>
  <rect x="602.0" y="758.9" width="44.3" height="61.1" fill="#60a5fa" rx="1"/>
  <rect x="602.0" y="713.5" width="44.3" height="45.4" fill="#4680c4" rx="1"/>
  <rect x="602.0" y="704.5" width="44.3" height="9.0" fill="#60a5fa" rx="1"/>
  <rect x="648.0" y="756.7" width="44.3" height="63.3" fill="#f87171" rx="1"/>
  <rect x="648.0" y="708.0" width="44.3" height="48.7" fill="#c45050" rx="1"/>
  <rect x="648.0" y="696.4" width="44.3" height="11.6" fill="#f87171" rx="1"/>
  <rect x="694.0" y="704.7" width="44.3" height="115.3" fill="#f59e0b" rx="1"/>
  <rect x="694.0" y="658.6" width="44.3" height="46.1" fill="#c47d08" rx="1"/>
  <rect x="694.0" y="646.1" width="44.3" height="12.5" fill="#f59e0b" rx="1"/>
  <rect x="740.0" y="735.6" width="44.3" height="84.4" fill="#f472b6" rx="1"/>
  <rect x="740.0" y="686.9" width="44.3" height="48.7" fill="#c05a92" rx="1"/>
  <rect x="740.0" y="671.4" width="44.3" height="15.5" fill="#f472b6" rx="1"/>
  <text x="703.3" y="838" text-anchor="middle" fill="#e6edf3" font-size="11" font-weight="600">Level 3</text>
  <rect x="230" y="850" width="12" height="12" fill="#60a5fa" rx="2"/>
  <text x="248" y="860" fill="#e6edf3" font-size="10" font-weight="500">libzstd v1.5.7 (C)</text>
  <rect x="230" y="868" width="12" height="12" fill="#f87171" rx="2"/>
  <text x="248" y="878" fill="#e6edf3" font-size="10" font-weight="500">zrip (safe SIMD + encapsulated unsafe)</text>
  <rect x="480" y="850" width="12" height="12" fill="#f59e0b" rx="2"/>
  <text x="498" y="860" fill="#e6edf3" font-size="10" font-weight="500">structured-zstd v0.0.48 (unsafe)</text>
  <rect x="480" y="868" width="12" height="12" fill="#f472b6" rx="2"/>
  <text x="498" y="878" fill="#e6edf3" font-size="10" font-weight="500">zrip paranoid (safe SIMD, no unsafe)</text>
  <text x="240" y="903" fill="#e6edf3" font-size="9">bright = compress + decompress</text>
  <text x="480" y="903" fill="#7d8590" font-size="9">dim = transfer @100 MB/s</text>
</svg>
