<svg xmlns="http://www.w3.org/2000/svg" viewBox="0 0 850 950" font-family="system-ui, -apple-system, sans-serif">
  <rect width="850" height="950" fill="#0d1117"/>
  <text x="450.0" y="22" text-anchor="middle" fill="#e6edf3" font-size="14" font-weight="700">zstd Pipeline @100 MB/s: Aggregate across corpus (lower is better)</text>
  <text x="450.0" y="38" text-anchor="middle" fill="#7d8590" font-size="10">Intel Core i7-8700B @ 3.20GHz, performance governor, turbo off</text>
  <text x="22" y="445.0" text-anchor="middle" fill="#e6edf3" font-size="11" font-weight="600" transform="rotate(-90,22,445.0)">seconds / GB</text>
  <text x="450.0" y="64" text-anchor="middle" fill="#e6edf3" font-size="12" font-weight="600">High compressibility</text>
  <line x1="70" y1="223.6" x2="830" y2="223.6" stroke="#21262d" stroke-width="1"/>
  <text x="62" y="223.6" text-anchor="end" dominant-baseline="middle" fill="#7d8590" font-size="10">2.0</text>
  <line x1="70" y1="177.3" x2="830" y2="177.3" stroke="#21262d" stroke-width="1"/>
  <text x="62" y="177.3" text-anchor="end" dominant-baseline="middle" fill="#7d8590" font-size="10">4.0</text>
  <line x1="70" y1="130.9" x2="830" y2="130.9" stroke="#21262d" stroke-width="1"/>
  <text x="62" y="130.9" text-anchor="end" dominant-baseline="middle" fill="#7d8590" font-size="10">6.0</text>
  <line x1="70" y1="84.6" x2="830" y2="84.6" stroke="#21262d" stroke-width="1"/>
  <text x="62" y="84.6" text-anchor="end" dominant-baseline="middle" fill="#7d8590" font-size="10">8.0</text>
  <line x1="70" y1="270" x2="830" y2="270" stroke="#30363d" stroke-width="1.5"/>
  <rect x="95.3" y="227.5" width="44.3" height="42.5" fill="#60a5fa" rx="1"/>
  <rect x="95.3" y="188.9" width="44.3" height="38.5" fill="#4680c4" rx="1"/>
  <rect x="95.3" y="174.9" width="44.3" height="14.0" fill="#60a5fa" rx="1"/>
  <rect x="141.3" y="216.4" width="44.3" height="53.6" fill="#f87171" rx="1"/>
  <rect x="141.3" y="177.4" width="44.3" height="39.0" fill="#c45050" rx="1"/>
  <rect x="141.3" y="152.8" width="44.3" height="24.6" fill="#f87171" rx="1"/>
  <rect x="187.3" y="194.3" width="44.3" height="75.7" fill="#f59e0b" rx="1"/>
  <rect x="187.3" y="155.6" width="44.3" height="38.6" fill="#c47d08" rx="1"/>
  <rect x="187.3" y="134.4" width="44.3" height="21.2" fill="#f59e0b" rx="1"/>
  <rect x="233.3" y="183.6" width="44.3" height="86.4" fill="#f472b6" rx="1"/>
  <rect x="233.3" y="144.6" width="44.3" height="39.0" fill="#c05a92" rx="1"/>
  <rect x="233.3" y="113.0" width="44.3" height="31.6" fill="#f472b6" rx="1"/>
  <text x="196.7" y="288" text-anchor="middle" fill="#e6edf3" font-size="11" font-weight="600">Level −1</text>
  <rect x="348.7" y="224.6" width="44.3" height="45.4" fill="#60a5fa" rx="1"/>
  <rect x="348.7" y="192.2" width="44.3" height="32.4" fill="#4680c4" rx="1"/>
  <rect x="348.7" y="177.4" width="44.3" height="14.8" fill="#60a5fa" rx="1"/>
  <rect x="394.7" y="214.6" width="44.3" height="55.4" fill="#f87171" rx="1"/>
  <rect x="394.7" y="177.4" width="44.3" height="37.1" fill="#c45050" rx="1"/>
  <rect x="394.7" y="149.6" width="44.3" height="27.8" fill="#f87171" rx="1"/>
  <rect x="440.7" y="190.8" width="44.3" height="79.2" fill="#f59e0b" rx="1"/>
  <rect x="440.7" y="158.3" width="44.3" height="32.5" fill="#c47d08" rx="1"/>
  <rect x="440.7" y="136.2" width="44.3" height="22.1" fill="#f59e0b" rx="1"/>
  <rect x="486.7" y="178.5" width="44.3" height="91.5" fill="#f472b6" rx="1"/>
  <rect x="486.7" y="141.4" width="44.3" height="37.1" fill="#c05a92" rx="1"/>
  <rect x="486.7" y="106.8" width="44.3" height="34.6" fill="#f472b6" rx="1"/>
  <text x="450.0" y="288" text-anchor="middle" fill="#e6edf3" font-size="11" font-weight="600">Level 1</text>
  <rect x="602.0" y="211.8" width="44.3" height="58.2" fill="#60a5fa" rx="1"/>
  <rect x="602.0" y="181.5" width="44.3" height="30.3" fill="#4680c4" rx="1"/>
  <rect x="602.0" y="166.0" width="44.3" height="15.5" fill="#60a5fa" rx="1"/>
  <rect x="648.0" y="202.9" width="44.3" height="67.1" fill="#f87171" rx="1"/>
  <rect x="648.0" y="168.8" width="44.3" height="34.1" fill="#c45050" rx="1"/>
  <rect x="648.0" y="144.0" width="44.3" height="24.8" fill="#f87171" rx="1"/>
  <rect x="694.0" y="149.7" width="44.3" height="120.3" fill="#f59e0b" rx="1"/>
  <rect x="694.0" y="119.3" width="44.3" height="30.4" fill="#c47d08" rx="1"/>
  <rect x="694.0" y="96.1" width="44.3" height="23.2" fill="#f59e0b" rx="1"/>
  <rect x="740.0" y="163.0" width="44.3" height="107.0" fill="#f472b6" rx="1"/>
  <rect x="740.0" y="129.0" width="44.3" height="34.1" fill="#c05a92" rx="1"/>
  <rect x="740.0" y="98.3" width="44.3" height="30.7" fill="#f472b6" rx="1"/>
  <text x="703.3" y="288" text-anchor="middle" fill="#e6edf3" font-size="11" font-weight="600">Level 3</text>
  <text x="450.0" y="339" text-anchor="middle" fill="#e6edf3" font-size="12" font-weight="600">Medium compressibility</text>
  <line x1="70" y1="492.8" x2="830" y2="492.8" stroke="#21262d" stroke-width="1"/>
  <text x="62" y="492.8" text-anchor="end" dominant-baseline="middle" fill="#7d8590" font-size="10">5.0</text>
  <line x1="70" y1="440.5" x2="830" y2="440.5" stroke="#21262d" stroke-width="1"/>
  <text x="62" y="440.5" text-anchor="end" dominant-baseline="middle" fill="#7d8590" font-size="10">10.0</text>
  <line x1="70" y1="388.3" x2="830" y2="388.3" stroke="#21262d" stroke-width="1"/>
  <text x="62" y="388.3" text-anchor="end" dominant-baseline="middle" fill="#7d8590" font-size="10">15.0</text>
  <line x1="70" y1="545" x2="830" y2="545" stroke="#30363d" stroke-width="1.5"/>
  <rect x="95.3" y="509.8" width="44.3" height="35.2" fill="#60a5fa" rx="1"/>
  <rect x="95.3" y="463.7" width="44.3" height="46.1" fill="#4680c4" rx="1"/>
  <rect x="95.3" y="454.6" width="44.3" height="9.1" fill="#60a5fa" rx="1"/>
  <rect x="141.3" y="499.0" width="44.3" height="46.0" fill="#f87171" rx="1"/>
  <rect x="141.3" y="455.2" width="44.3" height="43.8" fill="#c45050" rx="1"/>
  <rect x="141.3" y="437.3" width="44.3" height="17.9" fill="#f87171" rx="1"/>
  <rect x="187.3" y="487.3" width="44.3" height="57.7" fill="#f59e0b" rx="1"/>
  <rect x="187.3" y="441.1" width="44.3" height="46.2" fill="#c47d08" rx="1"/>
  <rect x="187.3" y="426.9" width="44.3" height="14.2" fill="#f59e0b" rx="1"/>
  <rect x="233.3" y="470.2" width="44.3" height="74.8" fill="#f472b6" rx="1"/>
  <rect x="233.3" y="426.4" width="44.3" height="43.8" fill="#c05a92" rx="1"/>
  <rect x="233.3" y="402.4" width="44.3" height="24.1" fill="#f472b6" rx="1"/>
  <text x="196.7" y="563" text-anchor="middle" fill="#e6edf3" font-size="11" font-weight="600">Level −1</text>
  <rect x="348.7" y="507.1" width="44.3" height="37.9" fill="#60a5fa" rx="1"/>
  <rect x="348.7" y="468.7" width="44.3" height="38.4" fill="#4680c4" rx="1"/>
  <rect x="348.7" y="458.1" width="44.3" height="10.6" fill="#60a5fa" rx="1"/>
  <rect x="394.7" y="495.7" width="44.3" height="49.3" fill="#f87171" rx="1"/>
  <rect x="394.7" y="454.6" width="44.3" height="41.2" fill="#c45050" rx="1"/>
  <rect x="394.7" y="433.2" width="44.3" height="21.3" fill="#f87171" rx="1"/>
  <rect x="440.7" y="481.1" width="44.3" height="63.9" fill="#f59e0b" rx="1"/>
  <rect x="440.7" y="442.6" width="44.3" height="38.5" fill="#c47d08" rx="1"/>
  <rect x="440.7" y="426.4" width="44.3" height="16.1" fill="#f59e0b" rx="1"/>
  <rect x="486.7" y="460.0" width="44.3" height="85.0" fill="#f472b6" rx="1"/>
  <rect x="486.7" y="418.8" width="44.3" height="41.2" fill="#c05a92" rx="1"/>
  <rect x="486.7" y="390.9" width="44.3" height="27.9" fill="#f472b6" rx="1"/>
  <text x="450.0" y="563" text-anchor="middle" fill="#e6edf3" font-size="11" font-weight="600">Level 1</text>
  <rect x="602.0" y="482.8" width="44.3" height="62.2" fill="#60a5fa" rx="1"/>
  <rect x="602.0" y="448.1" width="44.3" height="34.7" fill="#4680c4" rx="1"/>
  <rect x="602.0" y="435.9" width="44.3" height="12.2" fill="#60a5fa" rx="1"/>
  <rect x="648.0" y="474.7" width="44.3" height="70.3" fill="#f87171" rx="1"/>
  <rect x="648.0" y="436.3" width="44.3" height="38.5" fill="#c45050" rx="1"/>
  <rect x="648.0" y="417.8" width="44.3" height="18.5" fill="#f87171" rx="1"/>
  <rect x="694.0" y="426.1" width="44.3" height="118.9" fill="#f59e0b" rx="1"/>
  <rect x="694.0" y="391.1" width="44.3" height="35.0" fill="#c47d08" rx="1"/>
  <rect x="694.0" y="372.5" width="44.3" height="18.6" fill="#f59e0b" rx="1"/>
  <rect x="740.0" y="434.7" width="44.3" height="110.3" fill="#f472b6" rx="1"/>
  <rect x="740.0" y="396.2" width="44.3" height="38.5" fill="#c05a92" rx="1"/>
  <rect x="740.0" y="371.1" width="44.3" height="25.1" fill="#f472b6" rx="1"/>
  <text x="703.3" y="563" text-anchor="middle" fill="#e6edf3" font-size="11" font-weight="600">Level 3</text>
  <text x="450.0" y="614" text-anchor="middle" fill="#e6edf3" font-size="12" font-weight="600">Low compressibility</text>
  <line x1="70" y1="758.1" x2="830" y2="758.1" stroke="#21262d" stroke-width="1"/>
  <text x="62" y="758.1" text-anchor="end" dominant-baseline="middle" fill="#7d8590" font-size="10">10.0</text>
  <line x1="70" y1="696.1" x2="830" y2="696.1" stroke="#21262d" stroke-width="1"/>
  <text x="62" y="696.1" text-anchor="end" dominant-baseline="middle" fill="#7d8590" font-size="10">20.0</text>
  <line x1="70" y1="634.2" x2="830" y2="634.2" stroke="#21262d" stroke-width="1"/>
  <text x="62" y="634.2" text-anchor="end" dominant-baseline="middle" fill="#7d8590" font-size="10">30.0</text>
  <line x1="70" y1="820" x2="830" y2="820" stroke="#30363d" stroke-width="1.5"/>
  <rect x="95.3" y="809.5" width="44.3" height="10.5" fill="#60a5fa" rx="1"/>
  <rect x="95.3" y="750.3" width="44.3" height="59.1" fill="#4680c4" rx="1"/>
  <rect x="95.3" y="748.8" width="44.3" height="1.5" fill="#60a5fa" rx="1"/>
  <rect x="141.3" y="806.0" width="44.3" height="14.0" fill="#f87171" rx="1"/>
  <rect x="141.3" y="748.0" width="44.3" height="58.0" fill="#c45050" rx="1"/>
  <rect x="141.3" y="744.5" width="44.3" height="3.5" fill="#f87171" rx="1"/>
  <rect x="187.3" y="805.3" width="44.3" height="14.7" fill="#f59e0b" rx="1"/>
  <rect x="187.3" y="746.2" width="44.3" height="59.1" fill="#c47d08" rx="1"/>
  <rect x="187.3" y="743.7" width="44.3" height="2.5" fill="#f59e0b" rx="1"/>
  <rect x="233.3" y="798.3" width="44.3" height="21.7" fill="#f472b6" rx="1"/>
  <rect x="233.3" y="740.3" width="44.3" height="58.0" fill="#c05a92" rx="1"/>
  <rect x="233.3" y="735.9" width="44.3" height="4.4" fill="#f472b6" rx="1"/>
  <text x="196.7" y="838" text-anchor="middle" fill="#e6edf3" font-size="11" font-weight="600">Level −1</text>
  <rect x="348.7" y="802.9" width="44.3" height="17.1" fill="#60a5fa" rx="1"/>
  <rect x="348.7" y="751.6" width="44.3" height="51.3" fill="#4680c4" rx="1"/>
  <rect x="348.7" y="745.5" width="44.3" height="6.1" fill="#60a5fa" rx="1"/>
  <rect x="394.7" y="794.6" width="44.3" height="25.4" fill="#f87171" rx="1"/>
  <rect x="394.7" y="740.0" width="44.3" height="54.6" fill="#c45050" rx="1"/>
  <rect x="394.7" y="732.7" width="44.3" height="7.3" fill="#f87171" rx="1"/>
  <rect x="440.7" y="785.1" width="44.3" height="34.9" fill="#f59e0b" rx="1"/>
  <rect x="440.7" y="733.8" width="44.3" height="51.3" fill="#c47d08" rx="1"/>
  <rect x="440.7" y="725.3" width="44.3" height="8.4" fill="#f59e0b" rx="1"/>
  <rect x="486.7" y="777.3" width="44.3" height="42.7" fill="#f472b6" rx="1"/>
  <rect x="486.7" y="722.7" width="44.3" height="54.6" fill="#c05a92" rx="1"/>
  <rect x="486.7" y="713.5" width="44.3" height="9.2" fill="#f472b6" rx="1"/>
  <text x="450.0" y="838" text-anchor="middle" fill="#e6edf3" font-size="11" font-weight="600">Level 1</text>
  <rect x="602.0" y="759.7" width="44.3" height="60.3" fill="#60a5fa" rx="1"/>
  <rect x="602.0" y="714.0" width="44.3" height="45.7" fill="#4680c4" rx="1"/>
  <rect x="602.0" y="704.9" width="44.3" height="9.1" fill="#60a5fa" rx="1"/>
  <rect x="648.0" y="765.9" width="44.3" height="54.1" fill="#f87171" rx="1"/>
  <rect x="648.0" y="716.8" width="44.3" height="49.1" fill="#c45050" rx="1"/>
  <rect x="648.0" y="706.5" width="44.3" height="10.3" fill="#f87171" rx="1"/>
  <rect x="694.0" y="705.2" width="44.3" height="114.8" fill="#f59e0b" rx="1"/>
  <rect x="694.0" y="658.7" width="44.3" height="46.5" fill="#c47d08" rx="1"/>
  <rect x="694.0" y="646.1" width="44.3" height="12.6" fill="#f59e0b" rx="1"/>
  <rect x="740.0" y="736.0" width="44.3" height="84.0" fill="#f472b6" rx="1"/>
  <rect x="740.0" y="686.9" width="44.3" height="49.1" fill="#c05a92" rx="1"/>
  <rect x="740.0" y="672.9" width="44.3" height="14.0" fill="#f472b6" rx="1"/>
  <text x="703.3" y="838" text-anchor="middle" fill="#e6edf3" font-size="11" font-weight="600">Level 3</text>
  <rect x="230" y="850" width="12" height="12" fill="#60a5fa" rx="2"/>
  <text x="248" y="860" fill="#e6edf3" font-size="10" font-weight="500">libzstd v1.5.7 (C)</text>
  <rect x="230" y="868" width="12" height="12" fill="#f87171" rx="2"/>
  <text x="248" y="878" fill="#e6edf3" font-size="10" font-weight="500">zrip (safe SIMD + encapsulated unsafe)</text>
  <rect x="480" y="850" width="12" height="12" fill="#f59e0b" rx="2"/>
  <text x="498" y="860" fill="#e6edf3" font-size="10" font-weight="500">structured-zstd v0.0.48 (unsafe)</text>
  <rect x="480" y="868" width="12" height="12" fill="#f472b6" rx="2"/>
  <text x="498" y="878" fill="#e6edf3" font-size="10" font-weight="500">zrip paranoid (safe SIMD, no unsafe)</text>
  <text x="240" y="903" fill="#e6edf3" font-size="9">bright = compress + decompress</text>
  <text x="480" y="903" fill="#7d8590" font-size="9">dim = transfer @100 MB/s</text>
</svg>
