<svg xmlns="http://www.w3.org/2000/svg" viewBox="0 0 850 950" font-family="system-ui, -apple-system, sans-serif">
  <rect width="850" height="950" fill="#0d1117"/>
  <text x="450.0" y="22" text-anchor="middle" fill="#e6edf3" font-size="14" font-weight="700">zstd Pipeline @100 MB/s: Aggregate across corpus (lower is better)</text>
  <text x="450.0" y="38" text-anchor="middle" fill="#7d8590" font-size="10">Intel Core i7-8700B @ 3.20GHz, performance governor, turbo off</text>
  <text x="22" y="445.0" text-anchor="middle" fill="#e6edf3" font-size="11" font-weight="600" transform="rotate(-90,22,445.0)">seconds / GB</text>
  <text x="450.0" y="64" text-anchor="middle" fill="#e6edf3" font-size="12" font-weight="600">High compressibility</text>
  <line x1="70" y1="227.6" x2="830" y2="227.6" stroke="#21262d" stroke-width="1"/>
  <text x="62" y="227.6" text-anchor="end" dominant-baseline="middle" fill="#7d8590" font-size="10">2.0</text>
  <line x1="70" y1="185.2" x2="830" y2="185.2" stroke="#21262d" stroke-width="1"/>
  <text x="62" y="185.2" text-anchor="end" dominant-baseline="middle" fill="#7d8590" font-size="10">4.0</text>
  <line x1="70" y1="142.8" x2="830" y2="142.8" stroke="#21262d" stroke-width="1"/>
  <text x="62" y="142.8" text-anchor="end" dominant-baseline="middle" fill="#7d8590" font-size="10">6.0</text>
  <line x1="70" y1="100.4" x2="830" y2="100.4" stroke="#21262d" stroke-width="1"/>
  <text x="62" y="100.4" text-anchor="end" dominant-baseline="middle" fill="#7d8590" font-size="10">8.0</text>
  <line x1="70" y1="270" x2="830" y2="270" stroke="#30363d" stroke-width="1.5"/>
  <rect x="95.3" y="230.9" width="50.0" height="39.1" fill="#60a5fa" rx="1"/>
  <rect x="95.3" y="195.6" width="50.0" height="35.2" fill="#4680c4" rx="1"/>
  <rect x="95.3" y="182.4" width="50.0" height="13.2" fill="#60a5fa" rx="1"/>
  <rect x="147.8" y="217.7" width="50.0" height="52.3" fill="#f87171" rx="1"/>
  <rect x="147.8" y="180.5" width="50.0" height="37.2" fill="#c45050" rx="1"/>
  <rect x="147.8" y="151.3" width="50.0" height="29.2" fill="#f87171" rx="1"/>
  <rect x="200.3" y="195.9" width="50.0" height="74.1" fill="#f59e0b" rx="1"/>
  <rect x="200.3" y="165.6" width="50.0" height="30.3" fill="#c47d08" rx="1"/>
  <rect x="200.3" y="136.5" width="50.0" height="29.1" fill="#f59e0b" rx="1"/>
  <text x="196.7" y="288" text-anchor="middle" fill="#e6edf3" font-size="11" font-weight="600">Level −1</text>
  <rect x="348.7" y="227.9" width="50.0" height="42.1" fill="#60a5fa" rx="1"/>
  <rect x="348.7" y="198.3" width="50.0" height="29.6" fill="#4680c4" rx="1"/>
  <rect x="348.7" y="184.3" width="50.0" height="14.0" fill="#60a5fa" rx="1"/>
  <rect x="401.2" y="214.2" width="50.0" height="55.8" fill="#f87171" rx="1"/>
  <rect x="401.2" y="180.2" width="50.0" height="34.0" fill="#c45050" rx="1"/>
  <rect x="401.2" y="147.4" width="50.0" height="32.9" fill="#f87171" rx="1"/>
  <rect x="453.7" y="194.4" width="50.0" height="75.6" fill="#f59e0b" rx="1"/>
  <rect x="453.7" y="164.7" width="50.0" height="29.7" fill="#c47d08" rx="1"/>
  <rect x="453.7" y="135.5" width="50.0" height="29.3" fill="#f59e0b" rx="1"/>
  <text x="450.0" y="288" text-anchor="middle" fill="#e6edf3" font-size="11" font-weight="600">Level 1</text>
  <rect x="602.0" y="213.5" width="50.0" height="56.5" fill="#60a5fa" rx="1"/>
  <rect x="602.0" y="185.8" width="50.0" height="27.8" fill="#4680c4" rx="1"/>
  <rect x="602.0" y="171.0" width="50.0" height="14.7" fill="#60a5fa" rx="1"/>
  <rect x="654.5" y="200.3" width="50.0" height="69.7" fill="#f87171" rx="1"/>
  <rect x="654.5" y="168.7" width="50.0" height="31.6" fill="#c45050" rx="1"/>
  <rect x="654.5" y="139.9" width="50.0" height="28.8" fill="#f87171" rx="1"/>
  <rect x="707.0" y="154.1" width="50.0" height="115.9" fill="#f59e0b" rx="1"/>
  <rect x="707.0" y="125.2" width="50.0" height="28.9" fill="#c47d08" rx="1"/>
  <rect x="707.0" y="96.1" width="50.0" height="29.1" fill="#f59e0b" rx="1"/>
  <text x="703.3" y="288" text-anchor="middle" fill="#e6edf3" font-size="11" font-weight="600">Level 3</text>
  <text x="450.0" y="339" text-anchor="middle" fill="#e6edf3" font-size="12" font-weight="600">Medium compressibility</text>
  <line x1="70" y1="497.0" x2="830" y2="497.0" stroke="#21262d" stroke-width="1"/>
  <text x="62" y="497.0" text-anchor="end" dominant-baseline="middle" fill="#7d8590" font-size="10">5.0</text>
  <line x1="70" y1="448.9" x2="830" y2="448.9" stroke="#21262d" stroke-width="1"/>
  <text x="62" y="448.9" text-anchor="end" dominant-baseline="middle" fill="#7d8590" font-size="10">10.0</text>
  <line x1="70" y1="400.9" x2="830" y2="400.9" stroke="#21262d" stroke-width="1"/>
  <text x="62" y="400.9" text-anchor="end" dominant-baseline="middle" fill="#7d8590" font-size="10">15.0</text>
  <line x1="70" y1="352.8" x2="830" y2="352.8" stroke="#21262d" stroke-width="1"/>
  <text x="62" y="352.8" text-anchor="end" dominant-baseline="middle" fill="#7d8590" font-size="10">20.0</text>
  <line x1="70" y1="545" x2="830" y2="545" stroke="#30363d" stroke-width="1.5"/>
  <rect x="95.3" y="511.3" width="50.0" height="33.7" fill="#60a5fa" rx="1"/>
  <rect x="95.3" y="469.0" width="50.0" height="42.4" fill="#4680c4" rx="1"/>
  <rect x="95.3" y="460.4" width="50.0" height="8.6" fill="#60a5fa" rx="1"/>
  <rect x="147.8" y="501.0" width="50.0" height="44.0" fill="#f87171" rx="1"/>
  <rect x="147.8" y="458.7" width="50.0" height="42.3" fill="#c45050" rx="1"/>
  <rect x="147.8" y="442.0" width="50.0" height="16.7" fill="#f87171" rx="1"/>
  <rect x="200.3" y="485.2" width="50.0" height="59.8" fill="#f59e0b" rx="1"/>
  <rect x="200.3" y="448.5" width="50.0" height="36.7" fill="#c47d08" rx="1"/>
  <rect x="200.3" y="428.1" width="50.0" height="20.4" fill="#f59e0b" rx="1"/>
  <text x="196.7" y="563" text-anchor="middle" fill="#e6edf3" font-size="11" font-weight="600">Level −1</text>
  <rect x="348.7" y="508.6" width="50.0" height="36.4" fill="#60a5fa" rx="1"/>
  <rect x="348.7" y="473.3" width="50.0" height="35.3" fill="#4680c4" rx="1"/>
  <rect x="348.7" y="463.3" width="50.0" height="10.0" fill="#60a5fa" rx="1"/>
  <rect x="401.2" y="494.8" width="50.0" height="50.2" fill="#f87171" rx="1"/>
  <rect x="401.2" y="456.9" width="50.0" height="37.9" fill="#c45050" rx="1"/>
  <rect x="401.2" y="435.8" width="50.0" height="21.1" fill="#f87171" rx="1"/>
  <rect x="453.7" y="483.9" width="50.0" height="61.1" fill="#f59e0b" rx="1"/>
  <rect x="453.7" y="448.5" width="50.0" height="35.4" fill="#c47d08" rx="1"/>
  <rect x="453.7" y="427.8" width="50.0" height="20.7" fill="#f59e0b" rx="1"/>
  <text x="450.0" y="563" text-anchor="middle" fill="#e6edf3" font-size="11" font-weight="600">Level 1</text>
  <rect x="602.0" y="483.4" width="50.0" height="61.6" fill="#60a5fa" rx="1"/>
  <rect x="602.0" y="451.6" width="50.0" height="31.9" fill="#4680c4" rx="1"/>
  <rect x="602.0" y="439.9" width="50.0" height="11.7" fill="#60a5fa" rx="1"/>
  <rect x="654.5" y="475.3" width="50.0" height="69.7" fill="#f87171" rx="1"/>
  <rect x="654.5" y="439.2" width="50.0" height="36.1" fill="#c45050" rx="1"/>
  <rect x="654.5" y="422.2" width="50.0" height="17.0" fill="#f87171" rx="1"/>
  <rect x="707.0" y="427.3" width="50.0" height="117.7" fill="#f59e0b" rx="1"/>
  <rect x="707.0" y="394.9" width="50.0" height="32.4" fill="#c47d08" rx="1"/>
  <rect x="707.0" y="371.1" width="50.0" height="23.8" fill="#f59e0b" rx="1"/>
  <text x="703.3" y="563" text-anchor="middle" fill="#e6edf3" font-size="11" font-weight="600">Level 3</text>
  <text x="450.0" y="614" text-anchor="middle" fill="#e6edf3" font-size="12" font-weight="600">Low compressibility</text>
  <line x1="70" y1="754.6" x2="830" y2="754.6" stroke="#21262d" stroke-width="1"/>
  <text x="62" y="754.6" text-anchor="end" dominant-baseline="middle" fill="#7d8590" font-size="10">10.0</text>
  <line x1="70" y1="689.2" x2="830" y2="689.2" stroke="#21262d" stroke-width="1"/>
  <text x="62" y="689.2" text-anchor="end" dominant-baseline="middle" fill="#7d8590" font-size="10">20.0</text>
  <line x1="70" y1="623.8" x2="830" y2="623.8" stroke="#21262d" stroke-width="1"/>
  <text x="62" y="623.8" text-anchor="end" dominant-baseline="middle" fill="#7d8590" font-size="10">30.0</text>
  <line x1="70" y1="820" x2="830" y2="820" stroke="#30363d" stroke-width="1.5"/>
  <rect x="95.3" y="808.6" width="50.0" height="11.4" fill="#60a5fa" rx="1"/>
  <rect x="95.3" y="746.2" width="50.0" height="62.4" fill="#4680c4" rx="1"/>
  <rect x="95.3" y="744.5" width="50.0" height="1.7" fill="#60a5fa" rx="1"/>
  <rect x="147.8" y="808.9" width="50.0" height="11.1" fill="#f87171" rx="1"/>
  <rect x="147.8" y="746.2" width="50.0" height="62.7" fill="#c45050" rx="1"/>
  <rect x="147.8" y="743.3" width="50.0" height="2.9" fill="#f87171" rx="1"/>
  <rect x="200.3" y="784.6" width="50.0" height="35.4" fill="#f59e0b" rx="1"/>
  <rect x="200.3" y="729.9" width="50.0" height="54.8" fill="#c47d08" rx="1"/>
  <rect x="200.3" y="721.2" width="50.0" height="8.6" fill="#f59e0b" rx="1"/>
  <text x="196.7" y="838" text-anchor="middle" fill="#e6edf3" font-size="11" font-weight="600">Level −1</text>
  <rect x="348.7" y="801.7" width="50.0" height="18.3" fill="#60a5fa" rx="1"/>
  <rect x="348.7" y="747.5" width="50.0" height="54.1" fill="#4680c4" rx="1"/>
  <rect x="348.7" y="740.9" width="50.0" height="6.6" fill="#60a5fa" rx="1"/>
  <rect x="401.2" y="791.1" width="50.0" height="28.9" fill="#f87171" rx="1"/>
  <rect x="401.2" y="733.4" width="50.0" height="57.7" fill="#c45050" rx="1"/>
  <rect x="401.2" y="727.1" width="50.0" height="6.3" fill="#f87171" rx="1"/>
  <rect x="453.7" y="782.8" width="50.0" height="37.2" fill="#f59e0b" rx="1"/>
  <rect x="453.7" y="728.7" width="50.0" height="54.2" fill="#c47d08" rx="1"/>
  <rect x="453.7" y="719.7" width="50.0" height="9.0" fill="#f59e0b" rx="1"/>
  <text x="450.0" y="838" text-anchor="middle" fill="#e6edf3" font-size="11" font-weight="600">Level 1</text>
  <rect x="602.0" y="750.2" width="50.0" height="69.8" fill="#60a5fa" rx="1"/>
  <rect x="602.0" y="701.9" width="50.0" height="48.3" fill="#4680c4" rx="1"/>
  <rect x="602.0" y="692.1" width="50.0" height="9.8" fill="#60a5fa" rx="1"/>
  <rect x="654.5" y="765.4" width="50.0" height="54.6" fill="#f87171" rx="1"/>
  <rect x="654.5" y="710.7" width="50.0" height="54.6" fill="#c45050" rx="1"/>
  <rect x="654.5" y="703.6" width="50.0" height="7.1" fill="#f87171" rx="1"/>
  <rect x="707.0" y="709.3" width="50.0" height="110.7" fill="#f59e0b" rx="1"/>
  <rect x="707.0" y="659.9" width="50.0" height="49.4" fill="#c47d08" rx="1"/>
  <rect x="707.0" y="646.1" width="50.0" height="13.8" fill="#f59e0b" rx="1"/>
  <text x="703.3" y="838" text-anchor="middle" fill="#e6edf3" font-size="11" font-weight="600">Level 3</text>
  <rect x="250" y="850" width="12" height="12" fill="#60a5fa" rx="2"/>
  <text x="268" y="860" fill="#e6edf3" font-size="10" font-weight="500">C zstd 1.5.7 (libzstd)</text>
  <rect x="250" y="868" width="12" height="12" fill="#f87171" rx="2"/>
  <text x="268" y="878" fill="#e6edf3" font-size="10" font-weight="500">zrip (safe Rust)</text>
  <rect x="460" y="850" width="12" height="12" fill="#f59e0b" rx="2"/>
  <text x="478" y="860" fill="#e6edf3" font-size="10" font-weight="500">structured-zstd 0.0.40 (unsafe Rust)</text>
  <rect x="460" y="868" width="12" height="12" fill="#c084fc" rx="2"/>
  <text x="478" y="878" fill="#e6edf3" font-size="10" font-weight="500">lz4rip 0.3.1 (safe Rust, LZ4)</text>
  <text x="240" y="903" fill="#e6edf3" font-size="9">bright = compress + decompress</text>
  <text x="480" y="903" fill="#7d8590" font-size="9">dim = transfer @100 MB/s</text>
</svg>
