<svg xmlns="http://www.w3.org/2000/svg" viewBox="0 0 850 950" font-family="system-ui, -apple-system, sans-serif">
  <rect width="850" height="950" fill="#0d1117"/>
  <text x="450.0" y="22" text-anchor="middle" fill="#e6edf3" font-size="14" font-weight="700">zstd Pipeline @100 MB/s: Aggregate across corpus (lower is better)</text>
  <text x="450.0" y="38" text-anchor="middle" fill="#7d8590" font-size="10">Intel Core i7-8700B @ 3.20GHz, performance governor, turbo off</text>
  <text x="22" y="445.0" text-anchor="middle" fill="#e6edf3" font-size="11" font-weight="600" transform="rotate(-90,22,445.0)">seconds / GB</text>
  <text x="450.0" y="64" text-anchor="middle" fill="#e6edf3" font-size="12" font-weight="600">High compressibility</text>
  <line x1="70" y1="187.6" x2="830" y2="187.6" stroke="#21262d" stroke-width="1"/>
  <text x="62" y="187.6" text-anchor="end" dominant-baseline="middle" fill="#7d8590" font-size="10">5.0</text>
  <line x1="70" y1="105.2" x2="830" y2="105.2" stroke="#21262d" stroke-width="1"/>
  <text x="62" y="105.2" text-anchor="end" dominant-baseline="middle" fill="#7d8590" font-size="10">10.0</text>
  <line x1="70" y1="270" x2="830" y2="270" stroke="#30363d" stroke-width="1.5"/>
  <rect x="95.3" y="239.1" width="44.3" height="30.9" fill="#60a5fa" rx="1"/>
  <rect x="95.3" y="211.7" width="44.3" height="27.4" fill="#4680c4" rx="1"/>
  <rect x="95.3" y="201.5" width="44.3" height="10.2" fill="#60a5fa" rx="1"/>
  <rect x="141.3" y="229.1" width="44.3" height="40.9" fill="#f87171" rx="1"/>
  <rect x="141.3" y="200.2" width="44.3" height="28.9" fill="#c45050" rx="1"/>
  <rect x="141.3" y="177.5" width="44.3" height="22.7" fill="#f87171" rx="1"/>
  <rect x="187.3" y="191.0" width="44.3" height="79.0" fill="#f59e0b" rx="1"/>
  <rect x="187.3" y="167.4" width="44.3" height="23.5" fill="#c47d08" rx="1"/>
  <rect x="187.3" y="142.5" width="44.3" height="24.9" fill="#f59e0b" rx="1"/>
  <rect x="233.3" y="201.6" width="44.3" height="68.4" fill="#f472b6" rx="1"/>
  <rect x="233.3" y="172.7" width="44.3" height="28.9" fill="#c05a92" rx="1"/>
  <rect x="233.3" y="137.1" width="44.3" height="35.5" fill="#f472b6" rx="1"/>
  <text x="196.7" y="288" text-anchor="middle" fill="#e6edf3" font-size="11" font-weight="600">Level −1</text>
  <rect x="348.7" y="236.8" width="44.3" height="33.2" fill="#60a5fa" rx="1"/>
  <rect x="348.7" y="213.8" width="44.3" height="23.0" fill="#4680c4" rx="1"/>
  <rect x="348.7" y="203.0" width="44.3" height="10.8" fill="#60a5fa" rx="1"/>
  <rect x="394.7" y="225.7" width="44.3" height="44.3" fill="#f87171" rx="1"/>
  <rect x="394.7" y="199.3" width="44.3" height="26.4" fill="#c45050" rx="1"/>
  <rect x="394.7" y="173.5" width="44.3" height="25.8" fill="#f87171" rx="1"/>
  <rect x="440.7" y="189.7" width="44.3" height="80.3" fill="#f59e0b" rx="1"/>
  <rect x="440.7" y="166.7" width="44.3" height="23.1" fill="#c47d08" rx="1"/>
  <rect x="440.7" y="141.4" width="44.3" height="25.2" fill="#f59e0b" rx="1"/>
  <rect x="486.7" y="195.1" width="44.3" height="74.9" fill="#f472b6" rx="1"/>
  <rect x="486.7" y="168.7" width="44.3" height="26.4" fill="#c05a92" rx="1"/>
  <rect x="486.7" y="127.0" width="44.3" height="41.6" fill="#f472b6" rx="1"/>
  <text x="450.0" y="288" text-anchor="middle" fill="#e6edf3" font-size="11" font-weight="600">Level 1</text>
  <rect x="602.0" y="225.9" width="44.3" height="44.1" fill="#60a5fa" rx="1"/>
  <rect x="602.0" y="204.4" width="44.3" height="21.6" fill="#4680c4" rx="1"/>
  <rect x="602.0" y="193.0" width="44.3" height="11.3" fill="#60a5fa" rx="1"/>
  <rect x="648.0" y="216.7" width="44.3" height="53.3" fill="#f87171" rx="1"/>
  <rect x="648.0" y="192.5" width="44.3" height="24.2" fill="#c45050" rx="1"/>
  <rect x="648.0" y="169.7" width="44.3" height="22.8" fill="#f87171" rx="1"/>
  <rect x="694.0" y="144.0" width="44.3" height="126.0" fill="#f59e0b" rx="1"/>
  <rect x="694.0" y="121.5" width="44.3" height="22.5" fill="#c47d08" rx="1"/>
  <rect x="694.0" y="96.1" width="44.3" height="25.4" fill="#f59e0b" rx="1"/>
  <rect x="740.0" y="185.1" width="44.3" height="84.9" fill="#f472b6" rx="1"/>
  <rect x="740.0" y="160.9" width="44.3" height="24.2" fill="#c05a92" rx="1"/>
  <rect x="740.0" y="124.2" width="44.3" height="36.7" fill="#f472b6" rx="1"/>
  <text x="703.3" y="288" text-anchor="middle" fill="#e6edf3" font-size="11" font-weight="600">Level 3</text>
  <text x="450.0" y="339" text-anchor="middle" fill="#e6edf3" font-size="12" font-weight="600">Medium compressibility</text>
  <line x1="70" y1="507.8" x2="830" y2="507.8" stroke="#21262d" stroke-width="1"/>
  <text x="62" y="507.8" text-anchor="end" dominant-baseline="middle" fill="#7d8590" font-size="10">5.0</text>
  <line x1="70" y1="470.5" x2="830" y2="470.5" stroke="#21262d" stroke-width="1"/>
  <text x="62" y="470.5" text-anchor="end" dominant-baseline="middle" fill="#7d8590" font-size="10">10.0</text>
  <line x1="70" y1="433.3" x2="830" y2="433.3" stroke="#21262d" stroke-width="1"/>
  <text x="62" y="433.3" text-anchor="end" dominant-baseline="middle" fill="#7d8590" font-size="10">15.0</text>
  <line x1="70" y1="396.0" x2="830" y2="396.0" stroke="#21262d" stroke-width="1"/>
  <text x="62" y="396.0" text-anchor="end" dominant-baseline="middle" fill="#7d8590" font-size="10">20.0</text>
  <line x1="70" y1="358.8" x2="830" y2="358.8" stroke="#21262d" stroke-width="1"/>
  <text x="62" y="358.8" text-anchor="end" dominant-baseline="middle" fill="#7d8590" font-size="10">25.0</text>
  <line x1="70" y1="545" x2="830" y2="545" stroke="#30363d" stroke-width="1.5"/>
  <rect x="95.3" y="518.5" width="44.3" height="26.5" fill="#60a5fa" rx="1"/>
  <rect x="95.3" y="485.7" width="44.3" height="32.9" fill="#4680c4" rx="1"/>
  <rect x="95.3" y="479.1" width="44.3" height="6.6" fill="#60a5fa" rx="1"/>
  <rect x="141.3" y="509.9" width="44.3" height="35.1" fill="#f87171" rx="1"/>
  <rect x="141.3" y="477.1" width="44.3" height="32.8" fill="#c45050" rx="1"/>
  <rect x="141.3" y="463.9" width="44.3" height="13.1" fill="#f87171" rx="1"/>
  <rect x="187.3" y="480.4" width="44.3" height="64.6" fill="#f59e0b" rx="1"/>
  <rect x="187.3" y="452.0" width="44.3" height="28.5" fill="#c47d08" rx="1"/>
  <rect x="187.3" y="434.5" width="44.3" height="17.4" fill="#f59e0b" rx="1"/>
  <rect x="233.3" y="486.2" width="44.3" height="58.8" fill="#f472b6" rx="1"/>
  <rect x="233.3" y="453.4" width="44.3" height="32.8" fill="#c05a92" rx="1"/>
  <rect x="233.3" y="428.9" width="44.3" height="24.5" fill="#f472b6" rx="1"/>
  <text x="196.7" y="563" text-anchor="middle" fill="#e6edf3" font-size="11" font-weight="600">Level −1</text>
  <rect x="348.7" y="516.5" width="44.3" height="28.5" fill="#60a5fa" rx="1"/>
  <rect x="348.7" y="489.1" width="44.3" height="27.4" fill="#4680c4" rx="1"/>
  <rect x="348.7" y="481.4" width="44.3" height="7.7" fill="#60a5fa" rx="1"/>
  <rect x="394.7" y="504.6" width="44.3" height="40.4" fill="#f87171" rx="1"/>
  <rect x="394.7" y="475.2" width="44.3" height="29.4" fill="#c45050" rx="1"/>
  <rect x="394.7" y="458.4" width="44.3" height="16.8" fill="#f87171" rx="1"/>
  <rect x="440.7" y="478.9" width="44.3" height="66.1" fill="#f59e0b" rx="1"/>
  <rect x="440.7" y="451.5" width="44.3" height="27.5" fill="#c47d08" rx="1"/>
  <rect x="440.7" y="432.8" width="44.3" height="18.7" fill="#f59e0b" rx="1"/>
  <rect x="486.7" y="475.4" width="44.3" height="69.6" fill="#f472b6" rx="1"/>
  <rect x="486.7" y="446.0" width="44.3" height="29.4" fill="#c05a92" rx="1"/>
  <rect x="486.7" y="413.9" width="44.3" height="32.1" fill="#f472b6" rx="1"/>
  <text x="450.0" y="563" text-anchor="middle" fill="#e6edf3" font-size="11" font-weight="600">Level 1</text>
  <rect x="602.0" y="497.5" width="44.3" height="47.5" fill="#60a5fa" rx="1"/>
  <rect x="602.0" y="472.8" width="44.3" height="24.7" fill="#4680c4" rx="1"/>
  <rect x="602.0" y="463.9" width="44.3" height="8.9" fill="#60a5fa" rx="1"/>
  <rect x="648.0" y="487.5" width="44.3" height="57.5" fill="#f87171" rx="1"/>
  <rect x="648.0" y="460.1" width="44.3" height="27.4" fill="#c45050" rx="1"/>
  <rect x="648.0" y="445.8" width="44.3" height="14.2" fill="#f87171" rx="1"/>
  <rect x="694.0" y="417.9" width="44.3" height="127.1" fill="#f59e0b" rx="1"/>
  <rect x="694.0" y="392.6" width="44.3" height="25.2" fill="#c47d08" rx="1"/>
  <rect x="694.0" y="371.1" width="44.3" height="21.5" fill="#f59e0b" rx="1"/>
  <rect x="740.0" y="457.5" width="44.3" height="87.5" fill="#f472b6" rx="1"/>
  <rect x="740.0" y="430.1" width="44.3" height="27.4" fill="#c05a92" rx="1"/>
  <rect x="740.0" y="402.7" width="44.3" height="27.3" fill="#f472b6" rx="1"/>
  <text x="703.3" y="563" text-anchor="middle" fill="#e6edf3" font-size="11" font-weight="600">Level 3</text>
  <text x="450.0" y="614" text-anchor="middle" fill="#e6edf3" font-size="12" font-weight="600">Low compressibility</text>
  <line x1="70" y1="766.8" x2="830" y2="766.8" stroke="#21262d" stroke-width="1"/>
  <text x="62" y="766.8" text-anchor="end" dominant-baseline="middle" fill="#7d8590" font-size="10">10.0</text>
  <line x1="70" y1="713.5" x2="830" y2="713.5" stroke="#21262d" stroke-width="1"/>
  <text x="62" y="713.5" text-anchor="end" dominant-baseline="middle" fill="#7d8590" font-size="10">20.0</text>
  <line x1="70" y1="660.3" x2="830" y2="660.3" stroke="#21262d" stroke-width="1"/>
  <text x="62" y="660.3" text-anchor="end" dominant-baseline="middle" fill="#7d8590" font-size="10">30.0</text>
  <line x1="70" y1="820" x2="830" y2="820" stroke="#30363d" stroke-width="1.5"/>
  <rect x="95.3" y="810.8" width="44.3" height="9.2" fill="#60a5fa" rx="1"/>
  <rect x="95.3" y="760.0" width="44.3" height="50.8" fill="#4680c4" rx="1"/>
  <rect x="95.3" y="758.6" width="44.3" height="1.4" fill="#60a5fa" rx="1"/>
  <rect x="141.3" y="810.8" width="44.3" height="9.2" fill="#f87171" rx="1"/>
  <rect x="141.3" y="759.7" width="44.3" height="51.1" fill="#c45050" rx="1"/>
  <rect x="141.3" y="757.4" width="44.3" height="2.3" fill="#f87171" rx="1"/>
  <rect x="187.3" y="776.9" width="44.3" height="43.1" fill="#f59e0b" rx="1"/>
  <rect x="187.3" y="732.3" width="44.3" height="44.6" fill="#c47d08" rx="1"/>
  <rect x="187.3" y="723.5" width="44.3" height="8.8" fill="#f59e0b" rx="1"/>
  <rect x="233.3" y="806.3" width="44.3" height="13.7" fill="#f472b6" rx="1"/>
  <rect x="233.3" y="755.2" width="44.3" height="51.1" fill="#c05a92" rx="1"/>
  <rect x="233.3" y="751.8" width="44.3" height="3.4" fill="#f472b6" rx="1"/>
  <text x="196.7" y="838" text-anchor="middle" fill="#e6edf3" font-size="11" font-weight="600">Level −1</text>
  <rect x="348.7" y="805.0" width="44.3" height="15.0" fill="#60a5fa" rx="1"/>
  <rect x="348.7" y="761.0" width="44.3" height="44.1" fill="#4680c4" rx="1"/>
  <rect x="348.7" y="755.6" width="44.3" height="5.4" fill="#60a5fa" rx="1"/>
  <rect x="394.7" y="795.5" width="44.3" height="24.5" fill="#f87171" rx="1"/>
  <rect x="394.7" y="748.6" width="44.3" height="47.0" fill="#c45050" rx="1"/>
  <rect x="394.7" y="743.2" width="44.3" height="5.4" fill="#f87171" rx="1"/>
  <rect x="440.7" y="774.1" width="44.3" height="45.9" fill="#f59e0b" rx="1"/>
  <rect x="440.7" y="730.0" width="44.3" height="44.1" fill="#c47d08" rx="1"/>
  <rect x="440.7" y="720.9" width="44.3" height="9.1" fill="#f59e0b" rx="1"/>
  <rect x="486.7" y="780.7" width="44.3" height="39.3" fill="#f472b6" rx="1"/>
  <rect x="486.7" y="733.8" width="44.3" height="47.0" fill="#c05a92" rx="1"/>
  <rect x="486.7" y="723.1" width="44.3" height="10.6" fill="#f472b6" rx="1"/>
  <text x="450.0" y="838" text-anchor="middle" fill="#e6edf3" font-size="11" font-weight="600">Level 1</text>
  <rect x="602.0" y="764.1" width="44.3" height="55.9" fill="#60a5fa" rx="1"/>
  <rect x="602.0" y="724.8" width="44.3" height="39.3" fill="#4680c4" rx="1"/>
  <rect x="602.0" y="716.8" width="44.3" height="7.9" fill="#60a5fa" rx="1"/>
  <rect x="648.0" y="766.4" width="44.3" height="53.6" fill="#f87171" rx="1"/>
  <rect x="648.0" y="724.2" width="44.3" height="42.2" fill="#c45050" rx="1"/>
  <rect x="648.0" y="716.0" width="44.3" height="8.2" fill="#f87171" rx="1"/>
  <rect x="694.0" y="700.9" width="44.3" height="119.1" fill="#f59e0b" rx="1"/>
  <rect x="694.0" y="660.6" width="44.3" height="40.3" fill="#c47d08" rx="1"/>
  <rect x="694.0" y="646.1" width="44.3" height="14.5" fill="#f59e0b" rx="1"/>
  <rect x="740.0" y="740.6" width="44.3" height="79.4" fill="#f472b6" rx="1"/>
  <rect x="740.0" y="698.3" width="44.3" height="42.2" fill="#c05a92" rx="1"/>
  <rect x="740.0" y="681.7" width="44.3" height="16.7" fill="#f472b6" rx="1"/>
  <text x="703.3" y="838" text-anchor="middle" fill="#e6edf3" font-size="11" font-weight="600">Level 3</text>
  <rect x="230" y="850" width="12" height="12" fill="#60a5fa" rx="2"/>
  <text x="248" y="860" fill="#e6edf3" font-size="10" font-weight="500">C zstd 1.5.7 (libzstd)</text>
  <rect x="230" y="868" width="12" height="12" fill="#f87171" rx="2"/>
  <text x="248" y="878" fill="#e6edf3" font-size="10" font-weight="500">zrip (encapsulated unsafe, Rust)</text>
  <rect x="480" y="850" width="12" height="12" fill="#f59e0b" rx="2"/>
  <text x="498" y="860" fill="#e6edf3" font-size="10" font-weight="500">structured-zstd 0.0.44 (unsafe Rust)</text>
  <rect x="480" y="868" width="12" height="12" fill="#f472b6" rx="2"/>
  <text x="498" y="878" fill="#e6edf3" font-size="10" font-weight="500">zrip paranoid (safe Rust, no unsafe)</text>
  <text x="240" y="903" fill="#e6edf3" font-size="9">bright = compress + decompress</text>
  <text x="480" y="903" fill="#7d8590" font-size="9">dim = transfer @100 MB/s</text>
</svg>
