<svg xmlns="http://www.w3.org/2000/svg" viewBox="0 0 850 950" font-family="system-ui, -apple-system, sans-serif">
  <rect width="850" height="950" fill="#0d1117"/>
  <text x="450.0" y="22" text-anchor="middle" fill="#e6edf3" font-size="14" font-weight="700">zstd Pipeline @100 MB/s: Aggregate across corpus (lower is better)</text>
  <text x="450.0" y="38" text-anchor="middle" fill="#7d8590" font-size="10">Intel Core i7-8700B @ 3.20GHz, performance governor, turbo off</text>
  <text x="22" y="445.0" text-anchor="middle" fill="#e6edf3" font-size="11" font-weight="600" transform="rotate(-90,22,445.0)">seconds / GB</text>
  <text x="450.0" y="64" text-anchor="middle" fill="#e6edf3" font-size="12" font-weight="600">High compressibility</text>
  <line x1="70" y1="226.2" x2="830" y2="226.2" stroke="#21262d" stroke-width="1"/>
  <text x="62" y="226.2" text-anchor="end" dominant-baseline="middle" fill="#7d8590" font-size="10">2.0</text>
  <line x1="70" y1="182.3" x2="830" y2="182.3" stroke="#21262d" stroke-width="1"/>
  <text x="62" y="182.3" text-anchor="end" dominant-baseline="middle" fill="#7d8590" font-size="10">4.0</text>
  <line x1="70" y1="138.5" x2="830" y2="138.5" stroke="#21262d" stroke-width="1"/>
  <text x="62" y="138.5" text-anchor="end" dominant-baseline="middle" fill="#7d8590" font-size="10">6.0</text>
  <line x1="70" y1="94.6" x2="830" y2="94.6" stroke="#21262d" stroke-width="1"/>
  <text x="62" y="94.6" text-anchor="end" dominant-baseline="middle" fill="#7d8590" font-size="10">8.0</text>
  <line x1="70" y1="270" x2="830" y2="270" stroke="#30363d" stroke-width="1.5"/>
  <rect x="95.3" y="229.1" width="44.3" height="40.9" fill="#60a5fa" rx="1"/>
  <rect x="95.3" y="192.7" width="44.3" height="36.4" fill="#4680c4" rx="1"/>
  <rect x="95.3" y="179.2" width="44.3" height="13.4" fill="#60a5fa" rx="1"/>
  <rect x="141.3" y="213.5" width="44.3" height="56.5" fill="#f87171" rx="1"/>
  <rect x="141.3" y="177.3" width="44.3" height="36.2" fill="#c45050" rx="1"/>
  <rect x="141.3" y="148.8" width="44.3" height="28.5" fill="#f87171" rx="1"/>
  <rect x="187.3" y="193.3" width="44.3" height="76.7" fill="#f59e0b" rx="1"/>
  <rect x="187.3" y="162.0" width="44.3" height="31.3" fill="#c47d08" rx="1"/>
  <rect x="187.3" y="134.9" width="44.3" height="27.0" fill="#f59e0b" rx="1"/>
  <rect x="233.3" y="177.7" width="44.3" height="92.3" fill="#f472b6" rx="1"/>
  <rect x="233.3" y="141.6" width="44.3" height="36.2" fill="#c05a92" rx="1"/>
  <rect x="233.3" y="110.2" width="44.3" height="31.4" fill="#f472b6" rx="1"/>
  <text x="196.7" y="288" text-anchor="middle" fill="#e6edf3" font-size="11" font-weight="600">Level −1</text>
  <rect x="348.7" y="226.1" width="44.3" height="43.9" fill="#60a5fa" rx="1"/>
  <rect x="348.7" y="195.5" width="44.3" height="30.6" fill="#4680c4" rx="1"/>
  <rect x="348.7" y="181.2" width="44.3" height="14.3" fill="#60a5fa" rx="1"/>
  <rect x="394.7" y="211.4" width="44.3" height="58.6" fill="#f87171" rx="1"/>
  <rect x="394.7" y="176.2" width="44.3" height="35.1" fill="#c45050" rx="1"/>
  <rect x="394.7" y="145.1" width="44.3" height="31.1" fill="#f87171" rx="1"/>
  <rect x="440.7" y="191.7" width="44.3" height="78.3" fill="#f59e0b" rx="1"/>
  <rect x="440.7" y="161.1" width="44.3" height="30.7" fill="#c47d08" rx="1"/>
  <rect x="440.7" y="134.0" width="44.3" height="27.1" fill="#f59e0b" rx="1"/>
  <rect x="486.7" y="173.1" width="44.3" height="96.9" fill="#f472b6" rx="1"/>
  <rect x="486.7" y="138.0" width="44.3" height="35.1" fill="#c05a92" rx="1"/>
  <rect x="486.7" y="103.8" width="44.3" height="34.1" fill="#f472b6" rx="1"/>
  <text x="450.0" y="288" text-anchor="middle" fill="#e6edf3" font-size="11" font-weight="600">Level 1</text>
  <rect x="602.0" y="211.6" width="44.3" height="58.4" fill="#60a5fa" rx="1"/>
  <rect x="602.0" y="182.9" width="44.3" height="28.7" fill="#4680c4" rx="1"/>
  <rect x="602.0" y="167.9" width="44.3" height="15.0" fill="#60a5fa" rx="1"/>
  <rect x="648.0" y="200.8" width="44.3" height="69.2" fill="#f87171" rx="1"/>
  <rect x="648.0" y="168.6" width="44.3" height="32.2" fill="#c45050" rx="1"/>
  <rect x="648.0" y="140.1" width="44.3" height="28.5" fill="#f87171" rx="1"/>
  <rect x="694.0" y="153.7" width="44.3" height="116.3" fill="#f59e0b" rx="1"/>
  <rect x="694.0" y="125.0" width="44.3" height="28.7" fill="#c47d08" rx="1"/>
  <rect x="694.0" y="96.7" width="44.3" height="28.3" fill="#f59e0b" rx="1"/>
  <rect x="740.0" y="159.8" width="44.3" height="110.2" fill="#f472b6" rx="1"/>
  <rect x="740.0" y="127.6" width="44.3" height="32.2" fill="#c05a92" rx="1"/>
  <rect x="740.0" y="96.1" width="44.3" height="31.5" fill="#f472b6" rx="1"/>
  <text x="703.3" y="288" text-anchor="middle" fill="#e6edf3" font-size="11" font-weight="600">Level 3</text>
  <text x="450.0" y="339" text-anchor="middle" fill="#e6edf3" font-size="12" font-weight="600">Medium compressibility</text>
  <line x1="70" y1="495.0" x2="830" y2="495.0" stroke="#21262d" stroke-width="1"/>
  <text x="62" y="495.0" text-anchor="end" dominant-baseline="middle" fill="#7d8590" font-size="10">5.0</text>
  <line x1="70" y1="445.0" x2="830" y2="445.0" stroke="#21262d" stroke-width="1"/>
  <text x="62" y="445.0" text-anchor="end" dominant-baseline="middle" fill="#7d8590" font-size="10">10.0</text>
  <line x1="70" y1="394.9" x2="830" y2="394.9" stroke="#21262d" stroke-width="1"/>
  <text x="62" y="394.9" text-anchor="end" dominant-baseline="middle" fill="#7d8590" font-size="10">15.0</text>
  <line x1="70" y1="545" x2="830" y2="545" stroke="#30363d" stroke-width="1.5"/>
  <rect x="95.3" y="509.6" width="44.3" height="35.4" fill="#60a5fa" rx="1"/>
  <rect x="95.3" y="465.4" width="44.3" height="44.1" fill="#4680c4" rx="1"/>
  <rect x="95.3" y="456.6" width="44.3" height="8.8" fill="#60a5fa" rx="1"/>
  <rect x="141.3" y="496.5" width="44.3" height="48.5" fill="#f87171" rx="1"/>
  <rect x="141.3" y="454.1" width="44.3" height="42.4" fill="#c45050" rx="1"/>
  <rect x="141.3" y="433.9" width="44.3" height="20.2" fill="#f87171" rx="1"/>
  <rect x="187.3" y="483.3" width="44.3" height="61.7" fill="#f59e0b" rx="1"/>
  <rect x="187.3" y="445.0" width="44.3" height="38.2" fill="#c47d08" rx="1"/>
  <rect x="187.3" y="425.3" width="44.3" height="19.7" fill="#f59e0b" rx="1"/>
  <rect x="233.3" y="464.2" width="44.3" height="80.8" fill="#f472b6" rx="1"/>
  <rect x="233.3" y="421.8" width="44.3" height="42.4" fill="#c05a92" rx="1"/>
  <rect x="233.3" y="398.6" width="44.3" height="23.2" fill="#f472b6" rx="1"/>
  <text x="196.7" y="563" text-anchor="middle" fill="#e6edf3" font-size="11" font-weight="600">Level −1</text>
  <rect x="348.7" y="506.8" width="44.3" height="38.2" fill="#60a5fa" rx="1"/>
  <rect x="348.7" y="470.0" width="44.3" height="36.7" fill="#4680c4" rx="1"/>
  <rect x="348.7" y="459.7" width="44.3" height="10.4" fill="#60a5fa" rx="1"/>
  <rect x="394.7" y="492.3" width="44.3" height="52.7" fill="#f87171" rx="1"/>
  <rect x="394.7" y="452.8" width="44.3" height="39.4" fill="#c45050" rx="1"/>
  <rect x="394.7" y="426.9" width="44.3" height="25.9" fill="#f87171" rx="1"/>
  <rect x="440.7" y="481.9" width="44.3" height="63.1" fill="#f59e0b" rx="1"/>
  <rect x="440.7" y="445.0" width="44.3" height="36.9" fill="#c47d08" rx="1"/>
  <rect x="440.7" y="425.2" width="44.3" height="19.8" fill="#f59e0b" rx="1"/>
  <rect x="486.7" y="454.5" width="44.3" height="90.5" fill="#f472b6" rx="1"/>
  <rect x="486.7" y="415.1" width="44.3" height="39.4" fill="#c05a92" rx="1"/>
  <rect x="486.7" y="387.7" width="44.3" height="27.4" fill="#f472b6" rx="1"/>
  <text x="450.0" y="563" text-anchor="middle" fill="#e6edf3" font-size="11" font-weight="600">Level 1</text>
  <rect x="602.0" y="480.4" width="44.3" height="64.6" fill="#60a5fa" rx="1"/>
  <rect x="602.0" y="447.2" width="44.3" height="33.2" fill="#4680c4" rx="1"/>
  <rect x="602.0" y="435.2" width="44.3" height="12.1" fill="#60a5fa" rx="1"/>
  <rect x="648.0" y="472.4" width="44.3" height="72.6" fill="#f87171" rx="1"/>
  <rect x="648.0" y="435.6" width="44.3" height="36.8" fill="#c45050" rx="1"/>
  <rect x="648.0" y="413.9" width="44.3" height="21.7" fill="#f87171" rx="1"/>
  <rect x="694.0" y="427.6" width="44.3" height="117.4" fill="#f59e0b" rx="1"/>
  <rect x="694.0" y="394.1" width="44.3" height="33.5" fill="#c47d08" rx="1"/>
  <rect x="694.0" y="371.6" width="44.3" height="22.5" fill="#f59e0b" rx="1"/>
  <rect x="740.0" y="432.4" width="44.3" height="112.6" fill="#f472b6" rx="1"/>
  <rect x="740.0" y="395.6" width="44.3" height="36.8" fill="#c05a92" rx="1"/>
  <rect x="740.0" y="371.1" width="44.3" height="24.5" fill="#f472b6" rx="1"/>
  <text x="703.3" y="563" text-anchor="middle" fill="#e6edf3" font-size="11" font-weight="600">Level 3</text>
  <text x="450.0" y="614" text-anchor="middle" fill="#e6edf3" font-size="12" font-weight="600">Low compressibility</text>
  <line x1="70" y1="758.5" x2="830" y2="758.5" stroke="#21262d" stroke-width="1"/>
  <text x="62" y="758.5" text-anchor="end" dominant-baseline="middle" fill="#7d8590" font-size="10">10.0</text>
  <line x1="70" y1="697.1" x2="830" y2="697.1" stroke="#21262d" stroke-width="1"/>
  <text x="62" y="697.1" text-anchor="end" dominant-baseline="middle" fill="#7d8590" font-size="10">20.0</text>
  <line x1="70" y1="635.6" x2="830" y2="635.6" stroke="#21262d" stroke-width="1"/>
  <text x="62" y="635.6" text-anchor="end" dominant-baseline="middle" fill="#7d8590" font-size="10">30.0</text>
  <line x1="70" y1="820" x2="830" y2="820" stroke="#30363d" stroke-width="1.5"/>
  <rect x="95.3" y="809.4" width="44.3" height="10.6" fill="#60a5fa" rx="1"/>
  <rect x="95.3" y="750.8" width="44.3" height="58.7" fill="#4680c4" rx="1"/>
  <rect x="95.3" y="749.2" width="44.3" height="1.6" fill="#60a5fa" rx="1"/>
  <rect x="141.3" y="806.4" width="44.3" height="13.6" fill="#f87171" rx="1"/>
  <rect x="141.3" y="747.8" width="44.3" height="58.5" fill="#c45050" rx="1"/>
  <rect x="141.3" y="744.5" width="44.3" height="3.3" fill="#f87171" rx="1"/>
  <rect x="187.3" y="788.0" width="44.3" height="32.0" fill="#f59e0b" rx="1"/>
  <rect x="187.3" y="736.5" width="44.3" height="51.5" fill="#c47d08" rx="1"/>
  <rect x="187.3" y="728.3" width="44.3" height="8.2" fill="#f59e0b" rx="1"/>
  <rect x="233.3" y="798.9" width="44.3" height="21.1" fill="#f472b6" rx="1"/>
  <rect x="233.3" y="740.4" width="44.3" height="58.5" fill="#c05a92" rx="1"/>
  <rect x="233.3" y="736.6" width="44.3" height="3.8" fill="#f472b6" rx="1"/>
  <text x="196.7" y="838" text-anchor="middle" fill="#e6edf3" font-size="11" font-weight="600">Level −1</text>
  <rect x="348.7" y="802.9" width="44.3" height="17.1" fill="#60a5fa" rx="1"/>
  <rect x="348.7" y="752.0" width="44.3" height="50.9" fill="#4680c4" rx="1"/>
  <rect x="348.7" y="745.9" width="44.3" height="6.1" fill="#60a5fa" rx="1"/>
  <rect x="394.7" y="792.2" width="44.3" height="27.8" fill="#f87171" rx="1"/>
  <rect x="394.7" y="738.0" width="44.3" height="54.2" fill="#c45050" rx="1"/>
  <rect x="394.7" y="729.6" width="44.3" height="8.4" fill="#f87171" rx="1"/>
  <rect x="440.7" y="786.3" width="44.3" height="33.7" fill="#f59e0b" rx="1"/>
  <rect x="440.7" y="735.4" width="44.3" height="50.9" fill="#c47d08" rx="1"/>
  <rect x="440.7" y="726.9" width="44.3" height="8.5" fill="#f59e0b" rx="1"/>
  <rect x="486.7" y="774.7" width="44.3" height="45.3" fill="#f472b6" rx="1"/>
  <rect x="486.7" y="720.5" width="44.3" height="54.2" fill="#c05a92" rx="1"/>
  <rect x="486.7" y="711.5" width="44.3" height="9.0" fill="#f472b6" rx="1"/>
  <text x="450.0" y="838" text-anchor="middle" fill="#e6edf3" font-size="11" font-weight="600">Level 1</text>
  <rect x="602.0" y="756.9" width="44.3" height="63.1" fill="#60a5fa" rx="1"/>
  <rect x="602.0" y="711.5" width="44.3" height="45.4" fill="#4680c4" rx="1"/>
  <rect x="602.0" y="702.4" width="44.3" height="9.1" fill="#60a5fa" rx="1"/>
  <rect x="648.0" y="762.4" width="44.3" height="57.6" fill="#f87171" rx="1"/>
  <rect x="648.0" y="713.7" width="44.3" height="48.7" fill="#c45050" rx="1"/>
  <rect x="648.0" y="700.6" width="44.3" height="13.0" fill="#f87171" rx="1"/>
  <rect x="694.0" y="705.1" width="44.3" height="114.9" fill="#f59e0b" rx="1"/>
  <rect x="694.0" y="659.0" width="44.3" height="46.1" fill="#c47d08" rx="1"/>
  <rect x="694.0" y="646.1" width="44.3" height="12.9" fill="#f59e0b" rx="1"/>
  <rect x="740.0" y="731.9" width="44.3" height="88.1" fill="#f472b6" rx="1"/>
  <rect x="740.0" y="683.2" width="44.3" height="48.7" fill="#c05a92" rx="1"/>
  <rect x="740.0" y="669.2" width="44.3" height="14.0" fill="#f472b6" rx="1"/>
  <text x="703.3" y="838" text-anchor="middle" fill="#e6edf3" font-size="11" font-weight="600">Level 3</text>
  <rect x="230" y="850" width="12" height="12" fill="#60a5fa" rx="2"/>
  <text x="248" y="860" fill="#e6edf3" font-size="10" font-weight="500">libzstd v1.5.7 (C)</text>
  <rect x="230" y="868" width="12" height="12" fill="#f87171" rx="2"/>
  <text x="248" y="878" fill="#e6edf3" font-size="10" font-weight="500">zrip (safe SIMD + encapsulated unsafe)</text>
  <rect x="480" y="850" width="12" height="12" fill="#f59e0b" rx="2"/>
  <text x="498" y="860" fill="#e6edf3" font-size="10" font-weight="500">structured-zstd v0.0.48 (unsafe)</text>
  <rect x="480" y="868" width="12" height="12" fill="#f472b6" rx="2"/>
  <text x="498" y="878" fill="#e6edf3" font-size="10" font-weight="500">zrip paranoid (safe SIMD, no unsafe)</text>
  <text x="240" y="903" fill="#e6edf3" font-size="9">bright = compress + decompress</text>
  <text x="480" y="903" fill="#7d8590" font-size="9">dim = transfer @100 MB/s</text>
</svg>
