<svg xmlns="http://www.w3.org/2000/svg" viewBox="0 0 850 950" font-family="system-ui, -apple-system, sans-serif">
  <rect width="850" height="950" fill="#0d1117"/>
  <text x="450.0" y="22" text-anchor="middle" fill="#e6edf3" font-size="14" font-weight="700">zstd Pipeline @100 MB/s: Aggregate across corpus (lower is better)</text>
  <text x="450.0" y="38" text-anchor="middle" fill="#7d8590" font-size="10">Intel Core i7-8700B @ 3.20GHz, performance governor, turbo off</text>
  <text x="22" y="445.0" text-anchor="middle" fill="#e6edf3" font-size="11" font-weight="600" transform="rotate(-90,22,445.0)">seconds / GB</text>
  <text x="450.0" y="64" text-anchor="middle" fill="#e6edf3" font-size="12" font-weight="600">High compressibility</text>
  <line x1="70" y1="229.9" x2="830" y2="229.9" stroke="#21262d" stroke-width="1"/>
  <text x="62" y="229.9" text-anchor="end" dominant-baseline="middle" fill="#7d8590" font-size="10">2.0</text>
  <line x1="70" y1="189.7" x2="830" y2="189.7" stroke="#21262d" stroke-width="1"/>
  <text x="62" y="189.7" text-anchor="end" dominant-baseline="middle" fill="#7d8590" font-size="10">4.0</text>
  <line x1="70" y1="149.6" x2="830" y2="149.6" stroke="#21262d" stroke-width="1"/>
  <text x="62" y="149.6" text-anchor="end" dominant-baseline="middle" fill="#7d8590" font-size="10">6.0</text>
  <line x1="70" y1="109.4" x2="830" y2="109.4" stroke="#21262d" stroke-width="1"/>
  <text x="62" y="109.4" text-anchor="end" dominant-baseline="middle" fill="#7d8590" font-size="10">8.0</text>
  <line x1="70" y1="270" x2="830" y2="270" stroke="#30363d" stroke-width="1.5"/>
  <rect x="95.3" y="232.9" width="50.0" height="37.1" fill="#60a5fa" rx="1"/>
  <rect x="95.3" y="199.5" width="50.0" height="33.4" fill="#4680c4" rx="1"/>
  <rect x="95.3" y="187.0" width="50.0" height="12.5" fill="#60a5fa" rx="1"/>
  <rect x="147.8" y="219.8" width="50.0" height="50.2" fill="#f87171" rx="1"/>
  <rect x="147.8" y="184.6" width="50.0" height="35.3" fill="#c45050" rx="1"/>
  <rect x="147.8" y="156.6" width="50.0" height="28.0" fill="#f87171" rx="1"/>
  <rect x="200.3" y="198.6" width="50.0" height="71.4" fill="#f59e0b" rx="1"/>
  <rect x="200.3" y="169.9" width="50.0" height="28.7" fill="#c47d08" rx="1"/>
  <rect x="200.3" y="142.1" width="50.0" height="27.8" fill="#f59e0b" rx="1"/>
  <text x="196.7" y="288" text-anchor="middle" fill="#e6edf3" font-size="11" font-weight="600">Level −1</text>
  <rect x="348.7" y="230.0" width="50.0" height="40.0" fill="#60a5fa" rx="1"/>
  <rect x="348.7" y="201.9" width="50.0" height="28.1" fill="#4680c4" rx="1"/>
  <rect x="348.7" y="188.6" width="50.0" height="13.3" fill="#60a5fa" rx="1"/>
  <rect x="401.2" y="214.9" width="50.0" height="55.1" fill="#f87171" rx="1"/>
  <rect x="401.2" y="182.7" width="50.0" height="32.2" fill="#c45050" rx="1"/>
  <rect x="401.2" y="151.1" width="50.0" height="31.6" fill="#f87171" rx="1"/>
  <rect x="453.7" y="195.8" width="50.0" height="74.2" fill="#f59e0b" rx="1"/>
  <rect x="453.7" y="167.7" width="50.0" height="28.1" fill="#c47d08" rx="1"/>
  <rect x="453.7" y="140.2" width="50.0" height="27.5" fill="#f59e0b" rx="1"/>
  <text x="450.0" y="288" text-anchor="middle" fill="#e6edf3" font-size="11" font-weight="600">Level 1</text>
  <rect x="602.0" y="216.4" width="50.0" height="53.6" fill="#60a5fa" rx="1"/>
  <rect x="602.0" y="190.1" width="50.0" height="26.3" fill="#4680c4" rx="1"/>
  <rect x="602.0" y="176.3" width="50.0" height="13.9" fill="#60a5fa" rx="1"/>
  <rect x="654.5" y="202.4" width="50.0" height="67.6" fill="#f87171" rx="1"/>
  <rect x="654.5" y="172.9" width="50.0" height="29.5" fill="#c45050" rx="1"/>
  <rect x="654.5" y="144.3" width="50.0" height="28.6" fill="#f87171" rx="1"/>
  <rect x="707.0" y="150.7" width="50.0" height="119.3" fill="#f59e0b" rx="1"/>
  <rect x="707.0" y="123.4" width="50.0" height="27.4" fill="#c47d08" rx="1"/>
  <rect x="707.0" y="96.1" width="50.0" height="27.3" fill="#f59e0b" rx="1"/>
  <text x="703.3" y="288" text-anchor="middle" fill="#e6edf3" font-size="11" font-weight="600">Level 3</text>
  <text x="450.0" y="339" text-anchor="middle" fill="#e6edf3" font-size="12" font-weight="600">Medium compressibility</text>
  <line x1="70" y1="497.7" x2="830" y2="497.7" stroke="#21262d" stroke-width="1"/>
  <text x="62" y="497.7" text-anchor="end" dominant-baseline="middle" fill="#7d8590" font-size="10">5.0</text>
  <line x1="70" y1="450.5" x2="830" y2="450.5" stroke="#21262d" stroke-width="1"/>
  <text x="62" y="450.5" text-anchor="end" dominant-baseline="middle" fill="#7d8590" font-size="10">10.0</text>
  <line x1="70" y1="403.2" x2="830" y2="403.2" stroke="#21262d" stroke-width="1"/>
  <text x="62" y="403.2" text-anchor="end" dominant-baseline="middle" fill="#7d8590" font-size="10">15.0</text>
  <line x1="70" y1="355.9" x2="830" y2="355.9" stroke="#21262d" stroke-width="1"/>
  <text x="62" y="355.9" text-anchor="end" dominant-baseline="middle" fill="#7d8590" font-size="10">20.0</text>
  <line x1="70" y1="545" x2="830" y2="545" stroke="#30363d" stroke-width="1.5"/>
  <rect x="95.3" y="511.9" width="50.0" height="33.1" fill="#60a5fa" rx="1"/>
  <rect x="95.3" y="470.2" width="50.0" height="41.7" fill="#4680c4" rx="1"/>
  <rect x="95.3" y="461.7" width="50.0" height="8.4" fill="#60a5fa" rx="1"/>
  <rect x="147.8" y="500.3" width="50.0" height="44.7" fill="#f87171" rx="1"/>
  <rect x="147.8" y="458.7" width="50.0" height="41.6" fill="#c45050" rx="1"/>
  <rect x="147.8" y="442.1" width="50.0" height="16.6" fill="#f87171" rx="1"/>
  <rect x="200.3" y="485.0" width="50.0" height="60.0" fill="#f59e0b" rx="1"/>
  <rect x="200.3" y="448.9" width="50.0" height="36.1" fill="#c47d08" rx="1"/>
  <rect x="200.3" y="429.4" width="50.0" height="19.5" fill="#f59e0b" rx="1"/>
  <text x="196.7" y="563" text-anchor="middle" fill="#e6edf3" font-size="11" font-weight="600">Level −1</text>
  <rect x="348.7" y="509.1" width="50.0" height="35.9" fill="#60a5fa" rx="1"/>
  <rect x="348.7" y="474.4" width="50.0" height="34.7" fill="#4680c4" rx="1"/>
  <rect x="348.7" y="464.6" width="50.0" height="9.8" fill="#60a5fa" rx="1"/>
  <rect x="401.2" y="492.5" width="50.0" height="52.5" fill="#f87171" rx="1"/>
  <rect x="401.2" y="455.3" width="50.0" height="37.3" fill="#c45050" rx="1"/>
  <rect x="401.2" y="434.2" width="50.0" height="21.0" fill="#f87171" rx="1"/>
  <rect x="453.7" y="483.2" width="50.0" height="61.8" fill="#f59e0b" rx="1"/>
  <rect x="453.7" y="448.3" width="50.0" height="34.9" fill="#c47d08" rx="1"/>
  <rect x="453.7" y="428.8" width="50.0" height="19.5" fill="#f59e0b" rx="1"/>
  <text x="450.0" y="563" text-anchor="middle" fill="#e6edf3" font-size="11" font-weight="600">Level 1</text>
  <rect x="602.0" y="485.0" width="50.0" height="60.0" fill="#60a5fa" rx="1"/>
  <rect x="602.0" y="453.7" width="50.0" height="31.4" fill="#4680c4" rx="1"/>
  <rect x="602.0" y="442.2" width="50.0" height="11.4" fill="#60a5fa" rx="1"/>
  <rect x="654.5" y="472.3" width="50.0" height="72.7" fill="#f87171" rx="1"/>
  <rect x="654.5" y="437.5" width="50.0" height="34.8" fill="#c45050" rx="1"/>
  <rect x="654.5" y="419.4" width="50.0" height="18.1" fill="#f87171" rx="1"/>
  <rect x="707.0" y="425.3" width="50.0" height="119.7" fill="#f59e0b" rx="1"/>
  <rect x="707.0" y="393.4" width="50.0" height="31.9" fill="#c47d08" rx="1"/>
  <rect x="707.0" y="371.1" width="50.0" height="22.3" fill="#f59e0b" rx="1"/>
  <text x="703.3" y="563" text-anchor="middle" fill="#e6edf3" font-size="11" font-weight="600">Level 3</text>
  <text x="450.0" y="614" text-anchor="middle" fill="#e6edf3" font-size="12" font-weight="600">Low compressibility</text>
  <line x1="70" y1="754.4" x2="830" y2="754.4" stroke="#21262d" stroke-width="1"/>
  <text x="62" y="754.4" text-anchor="end" dominant-baseline="middle" fill="#7d8590" font-size="10">10.0</text>
  <line x1="70" y1="688.8" x2="830" y2="688.8" stroke="#21262d" stroke-width="1"/>
  <text x="62" y="688.8" text-anchor="end" dominant-baseline="middle" fill="#7d8590" font-size="10">20.0</text>
  <line x1="70" y1="623.2" x2="830" y2="623.2" stroke="#21262d" stroke-width="1"/>
  <text x="62" y="623.2" text-anchor="end" dominant-baseline="middle" fill="#7d8590" font-size="10">30.0</text>
  <line x1="70" y1="820" x2="830" y2="820" stroke="#30363d" stroke-width="1.5"/>
  <rect x="95.3" y="808.6" width="50.0" height="11.4" fill="#60a5fa" rx="1"/>
  <rect x="95.3" y="746.0" width="50.0" height="62.6" fill="#4680c4" rx="1"/>
  <rect x="95.3" y="744.3" width="50.0" height="1.7" fill="#60a5fa" rx="1"/>
  <rect x="147.8" y="808.3" width="50.0" height="11.7" fill="#f87171" rx="1"/>
  <rect x="147.8" y="745.4" width="50.0" height="62.9" fill="#c45050" rx="1"/>
  <rect x="147.8" y="742.2" width="50.0" height="3.2" fill="#f87171" rx="1"/>
  <rect x="200.3" y="782.5" width="50.0" height="37.5" fill="#f59e0b" rx="1"/>
  <rect x="200.3" y="727.6" width="50.0" height="54.9" fill="#c47d08" rx="1"/>
  <rect x="200.3" y="719.1" width="50.0" height="8.5" fill="#f59e0b" rx="1"/>
  <text x="196.7" y="838" text-anchor="middle" fill="#e6edf3" font-size="11" font-weight="600">Level −1</text>
  <rect x="348.7" y="801.5" width="50.0" height="18.5" fill="#60a5fa" rx="1"/>
  <rect x="348.7" y="747.2" width="50.0" height="54.3" fill="#4680c4" rx="1"/>
  <rect x="348.7" y="740.6" width="50.0" height="6.7" fill="#60a5fa" rx="1"/>
  <rect x="401.2" y="788.9" width="50.0" height="31.1" fill="#f87171" rx="1"/>
  <rect x="401.2" y="731.1" width="50.0" height="57.8" fill="#c45050" rx="1"/>
  <rect x="401.2" y="724.0" width="50.0" height="7.0" fill="#f87171" rx="1"/>
  <rect x="453.7" y="781.0" width="50.0" height="39.0" fill="#f59e0b" rx="1"/>
  <rect x="453.7" y="726.7" width="50.0" height="54.3" fill="#c47d08" rx="1"/>
  <rect x="453.7" y="717.9" width="50.0" height="8.8" fill="#f59e0b" rx="1"/>
  <text x="450.0" y="838" text-anchor="middle" fill="#e6edf3" font-size="11" font-weight="600">Level 1</text>
  <rect x="602.0" y="752.3" width="50.0" height="67.7" fill="#60a5fa" rx="1"/>
  <rect x="602.0" y="703.9" width="50.0" height="48.4" fill="#4680c4" rx="1"/>
  <rect x="602.0" y="694.1" width="50.0" height="9.8" fill="#60a5fa" rx="1"/>
  <rect x="654.5" y="747.4" width="50.0" height="72.6" fill="#f87171" rx="1"/>
  <rect x="654.5" y="695.4" width="50.0" height="52.0" fill="#c45050" rx="1"/>
  <rect x="654.5" y="684.6" width="50.0" height="10.8" fill="#f87171" rx="1"/>
  <rect x="707.0" y="708.7" width="50.0" height="111.3" fill="#f59e0b" rx="1"/>
  <rect x="707.0" y="659.2" width="50.0" height="49.5" fill="#c47d08" rx="1"/>
  <rect x="707.0" y="646.1" width="50.0" height="13.1" fill="#f59e0b" rx="1"/>
  <text x="703.3" y="838" text-anchor="middle" fill="#e6edf3" font-size="11" font-weight="600">Level 3</text>
  <rect x="250" y="850" width="12" height="12" fill="#60a5fa" rx="2"/>
  <text x="268" y="860" fill="#e6edf3" font-size="10" font-weight="500">C zstd 1.5.7 (libzstd)</text>
  <rect x="250" y="868" width="12" height="12" fill="#f87171" rx="2"/>
  <text x="268" y="878" fill="#e6edf3" font-size="10" font-weight="500">zrip (encapsulated unsafe, Rust)</text>
  <rect x="460" y="850" width="12" height="12" fill="#f59e0b" rx="2"/>
  <text x="478" y="860" fill="#e6edf3" font-size="10" font-weight="500">structured-zstd 0.0.41 (unsafe Rust)</text>
  <rect x="460" y="868" width="12" height="12" fill="#c084fc" rx="2"/>
  <text x="478" y="878" fill="#e6edf3" font-size="10" font-weight="500">lz4rip 0.3.1 (encapsulated unsafe, Rust, LZ4)</text>
  <text x="240" y="903" fill="#e6edf3" font-size="9">bright = compress + decompress</text>
  <text x="480" y="903" fill="#7d8590" font-size="9">dim = transfer @100 MB/s</text>
</svg>
