<svg xmlns="http://www.w3.org/2000/svg" viewBox="0 0 850 950" font-family="system-ui, -apple-system, sans-serif">
  <rect width="850" height="950" fill="#0d1117"/>
  <text x="450.0" y="22" text-anchor="middle" fill="#e6edf3" font-size="14" font-weight="700">zstd Pipeline @100 MB/s: Aggregate across corpus (lower is better)</text>
  <text x="450.0" y="38" text-anchor="middle" fill="#7d8590" font-size="10">Intel Core i7-8700B @ 3.20GHz, performance governor, turbo off</text>
  <text x="22" y="445.0" text-anchor="middle" fill="#e6edf3" font-size="11" font-weight="600" transform="rotate(-90,22,445.0)">seconds / GB</text>
  <text x="450.0" y="64" text-anchor="middle" fill="#e6edf3" font-size="12" font-weight="600">High compressibility</text>
  <line x1="70" y1="229.1" x2="830" y2="229.1" stroke="#21262d" stroke-width="1"/>
  <text x="62" y="229.1" text-anchor="end" dominant-baseline="middle" fill="#7d8590" font-size="10">2.0</text>
  <line x1="70" y1="188.2" x2="830" y2="188.2" stroke="#21262d" stroke-width="1"/>
  <text x="62" y="188.2" text-anchor="end" dominant-baseline="middle" fill="#7d8590" font-size="10">4.0</text>
  <line x1="70" y1="147.4" x2="830" y2="147.4" stroke="#21262d" stroke-width="1"/>
  <text x="62" y="147.4" text-anchor="end" dominant-baseline="middle" fill="#7d8590" font-size="10">6.0</text>
  <line x1="70" y1="106.5" x2="830" y2="106.5" stroke="#21262d" stroke-width="1"/>
  <text x="62" y="106.5" text-anchor="end" dominant-baseline="middle" fill="#7d8590" font-size="10">8.0</text>
  <line x1="70" y1="270" x2="830" y2="270" stroke="#30363d" stroke-width="1.5"/>
  <rect x="95.3" y="231.7" width="44.3" height="38.3" fill="#60a5fa" rx="1"/>
  <rect x="95.3" y="197.7" width="44.3" height="34.0" fill="#4680c4" rx="1"/>
  <rect x="95.3" y="184.8" width="44.3" height="12.9" fill="#60a5fa" rx="1"/>
  <rect x="141.3" y="218.8" width="44.3" height="51.2" fill="#f87171" rx="1"/>
  <rect x="141.3" y="182.9" width="44.3" height="35.9" fill="#c45050" rx="1"/>
  <rect x="141.3" y="149.5" width="44.3" height="33.4" fill="#f87171" rx="1"/>
  <rect x="187.3" y="198.5" width="44.3" height="71.5" fill="#f59e0b" rx="1"/>
  <rect x="187.3" y="169.3" width="44.3" height="29.2" fill="#c47d08" rx="1"/>
  <rect x="187.3" y="143.7" width="44.3" height="25.6" fill="#f59e0b" rx="1"/>
  <rect x="233.3" y="185.2" width="44.3" height="84.8" fill="#f472b6" rx="1"/>
  <rect x="233.3" y="149.3" width="44.3" height="35.9" fill="#c05a92" rx="1"/>
  <rect x="233.3" y="111.4" width="44.3" height="37.9" fill="#f472b6" rx="1"/>
  <text x="196.7" y="288" text-anchor="middle" fill="#e6edf3" font-size="11" font-weight="600">Level −1</text>
  <rect x="348.7" y="228.7" width="44.3" height="41.3" fill="#60a5fa" rx="1"/>
  <rect x="348.7" y="200.2" width="44.3" height="28.6" fill="#4680c4" rx="1"/>
  <rect x="348.7" y="186.6" width="44.3" height="13.5" fill="#60a5fa" rx="1"/>
  <rect x="394.7" y="214.6" width="44.3" height="55.4" fill="#f87171" rx="1"/>
  <rect x="394.7" y="181.8" width="44.3" height="32.8" fill="#c45050" rx="1"/>
  <rect x="394.7" y="145.0" width="44.3" height="36.9" fill="#f87171" rx="1"/>
  <rect x="440.7" y="197.1" width="44.3" height="72.9" fill="#f59e0b" rx="1"/>
  <rect x="440.7" y="168.5" width="44.3" height="28.6" fill="#c47d08" rx="1"/>
  <rect x="440.7" y="142.9" width="44.3" height="25.6" fill="#f59e0b" rx="1"/>
  <rect x="486.7" y="176.8" width="44.3" height="93.2" fill="#f472b6" rx="1"/>
  <rect x="486.7" y="144.1" width="44.3" height="32.8" fill="#c05a92" rx="1"/>
  <rect x="486.7" y="102.0" width="44.3" height="42.1" fill="#f472b6" rx="1"/>
  <text x="450.0" y="288" text-anchor="middle" fill="#e6edf3" font-size="11" font-weight="600">Level 1</text>
  <rect x="602.0" y="214.3" width="44.3" height="55.7" fill="#60a5fa" rx="1"/>
  <rect x="602.0" y="187.5" width="44.3" height="26.8" fill="#4680c4" rx="1"/>
  <rect x="602.0" y="173.3" width="44.3" height="14.2" fill="#60a5fa" rx="1"/>
  <rect x="648.0" y="203.8" width="44.3" height="66.2" fill="#f87171" rx="1"/>
  <rect x="648.0" y="173.8" width="44.3" height="30.0" fill="#c45050" rx="1"/>
  <rect x="648.0" y="139.1" width="44.3" height="34.6" fill="#f87171" rx="1"/>
  <rect x="694.0" y="152.4" width="44.3" height="117.6" fill="#f59e0b" rx="1"/>
  <rect x="694.0" y="125.6" width="44.3" height="26.8" fill="#c47d08" rx="1"/>
  <rect x="694.0" y="97.7" width="44.3" height="27.9" fill="#f59e0b" rx="1"/>
  <rect x="740.0" y="164.6" width="44.3" height="105.4" fill="#f472b6" rx="1"/>
  <rect x="740.0" y="134.5" width="44.3" height="30.0" fill="#c05a92" rx="1"/>
  <rect x="740.0" y="96.1" width="44.3" height="38.4" fill="#f472b6" rx="1"/>
  <text x="703.3" y="288" text-anchor="middle" fill="#e6edf3" font-size="11" font-weight="600">Level 3</text>
  <text x="450.0" y="339" text-anchor="middle" fill="#e6edf3" font-size="12" font-weight="600">Medium compressibility</text>
  <line x1="70" y1="497.6" x2="830" y2="497.6" stroke="#21262d" stroke-width="1"/>
  <text x="62" y="497.6" text-anchor="end" dominant-baseline="middle" fill="#7d8590" font-size="10">5.0</text>
  <line x1="70" y1="450.3" x2="830" y2="450.3" stroke="#21262d" stroke-width="1"/>
  <text x="62" y="450.3" text-anchor="end" dominant-baseline="middle" fill="#7d8590" font-size="10">10.0</text>
  <line x1="70" y1="402.9" x2="830" y2="402.9" stroke="#21262d" stroke-width="1"/>
  <text x="62" y="402.9" text-anchor="end" dominant-baseline="middle" fill="#7d8590" font-size="10">15.0</text>
  <line x1="70" y1="355.5" x2="830" y2="355.5" stroke="#21262d" stroke-width="1"/>
  <text x="62" y="355.5" text-anchor="end" dominant-baseline="middle" fill="#7d8590" font-size="10">20.0</text>
  <line x1="70" y1="545" x2="830" y2="545" stroke="#30363d" stroke-width="1.5"/>
  <rect x="95.3" y="511.4" width="44.3" height="33.6" fill="#60a5fa" rx="1"/>
  <rect x="95.3" y="469.6" width="44.3" height="41.8" fill="#4680c4" rx="1"/>
  <rect x="95.3" y="461.2" width="44.3" height="8.5" fill="#60a5fa" rx="1"/>
  <rect x="141.3" y="499.9" width="44.3" height="45.1" fill="#f87171" rx="1"/>
  <rect x="141.3" y="458.2" width="44.3" height="41.7" fill="#c45050" rx="1"/>
  <rect x="141.3" y="436.8" width="44.3" height="21.4" fill="#f87171" rx="1"/>
  <rect x="187.3" y="486.6" width="44.3" height="58.4" fill="#f59e0b" rx="1"/>
  <rect x="187.3" y="450.4" width="44.3" height="36.2" fill="#c47d08" rx="1"/>
  <rect x="187.3" y="431.5" width="44.3" height="18.9" fill="#f59e0b" rx="1"/>
  <rect x="233.3" y="470.2" width="44.3" height="74.8" fill="#f472b6" rx="1"/>
  <rect x="233.3" y="428.4" width="44.3" height="41.7" fill="#c05a92" rx="1"/>
  <rect x="233.3" y="402.8" width="44.3" height="25.7" fill="#f472b6" rx="1"/>
  <text x="196.7" y="563" text-anchor="middle" fill="#e6edf3" font-size="11" font-weight="600">Level −1</text>
  <rect x="348.7" y="508.7" width="44.3" height="36.3" fill="#60a5fa" rx="1"/>
  <rect x="348.7" y="473.9" width="44.3" height="34.8" fill="#4680c4" rx="1"/>
  <rect x="348.7" y="464.1" width="44.3" height="9.9" fill="#60a5fa" rx="1"/>
  <rect x="394.7" y="493.4" width="44.3" height="51.6" fill="#f87171" rx="1"/>
  <rect x="394.7" y="456.0" width="44.3" height="37.4" fill="#c45050" rx="1"/>
  <rect x="394.7" y="430.7" width="44.3" height="25.3" fill="#f87171" rx="1"/>
  <rect x="440.7" y="485.1" width="44.3" height="59.9" fill="#f59e0b" rx="1"/>
  <rect x="440.7" y="450.2" width="44.3" height="34.9" fill="#c47d08" rx="1"/>
  <rect x="440.7" y="431.2" width="44.3" height="19.0" fill="#f59e0b" rx="1"/>
  <rect x="486.7" y="456.4" width="44.3" height="88.6" fill="#f472b6" rx="1"/>
  <rect x="486.7" y="419.0" width="44.3" height="37.4" fill="#c05a92" rx="1"/>
  <rect x="486.7" y="388.4" width="44.3" height="30.6" fill="#f472b6" rx="1"/>
  <text x="450.0" y="563" text-anchor="middle" fill="#e6edf3" font-size="11" font-weight="600">Level 1</text>
  <rect x="602.0" y="484.1" width="44.3" height="60.9" fill="#60a5fa" rx="1"/>
  <rect x="602.0" y="452.6" width="44.3" height="31.4" fill="#4680c4" rx="1"/>
  <rect x="602.0" y="441.1" width="44.3" height="11.5" fill="#60a5fa" rx="1"/>
  <rect x="648.0" y="473.1" width="44.3" height="71.9" fill="#f87171" rx="1"/>
  <rect x="648.0" y="438.3" width="44.3" height="34.9" fill="#c45050" rx="1"/>
  <rect x="648.0" y="414.7" width="44.3" height="23.6" fill="#f87171" rx="1"/>
  <rect x="694.0" y="433.6" width="44.3" height="111.4" fill="#f59e0b" rx="1"/>
  <rect x="694.0" y="401.9" width="44.3" height="31.7" fill="#c47d08" rx="1"/>
  <rect x="694.0" y="380.3" width="44.3" height="21.6" fill="#f59e0b" rx="1"/>
  <rect x="740.0" y="434.0" width="44.3" height="111.0" fill="#f472b6" rx="1"/>
  <rect x="740.0" y="399.1" width="44.3" height="34.9" fill="#c05a92" rx="1"/>
  <rect x="740.0" y="371.1" width="44.3" height="28.0" fill="#f472b6" rx="1"/>
  <text x="703.3" y="563" text-anchor="middle" fill="#e6edf3" font-size="11" font-weight="600">Level 3</text>
  <text x="450.0" y="614" text-anchor="middle" fill="#e6edf3" font-size="12" font-weight="600">Low compressibility</text>
  <line x1="70" y1="758.9" x2="830" y2="758.9" stroke="#21262d" stroke-width="1"/>
  <text x="62" y="758.9" text-anchor="end" dominant-baseline="middle" fill="#7d8590" font-size="10">10.0</text>
  <line x1="70" y1="697.9" x2="830" y2="697.9" stroke="#21262d" stroke-width="1"/>
  <text x="62" y="697.9" text-anchor="end" dominant-baseline="middle" fill="#7d8590" font-size="10">20.0</text>
  <line x1="70" y1="636.8" x2="830" y2="636.8" stroke="#21262d" stroke-width="1"/>
  <text x="62" y="636.8" text-anchor="end" dominant-baseline="middle" fill="#7d8590" font-size="10">30.0</text>
  <line x1="70" y1="820" x2="830" y2="820" stroke="#30363d" stroke-width="1.5"/>
  <rect x="95.3" y="809.4" width="44.3" height="10.6" fill="#60a5fa" rx="1"/>
  <rect x="95.3" y="751.1" width="44.3" height="58.3" fill="#4680c4" rx="1"/>
  <rect x="95.3" y="749.5" width="44.3" height="1.6" fill="#60a5fa" rx="1"/>
  <rect x="141.3" y="809.3" width="44.3" height="10.7" fill="#f87171" rx="1"/>
  <rect x="141.3" y="750.7" width="44.3" height="58.6" fill="#c45050" rx="1"/>
  <rect x="141.3" y="747.6" width="44.3" height="3.1" fill="#f87171" rx="1"/>
  <rect x="187.3" y="788.1" width="44.3" height="31.9" fill="#f59e0b" rx="1"/>
  <rect x="187.3" y="736.9" width="44.3" height="51.1" fill="#c47d08" rx="1"/>
  <rect x="187.3" y="728.6" width="44.3" height="8.4" fill="#f59e0b" rx="1"/>
  <rect x="233.3" y="804.3" width="44.3" height="15.7" fill="#f472b6" rx="1"/>
  <rect x="233.3" y="745.7" width="44.3" height="58.6" fill="#c05a92" rx="1"/>
  <rect x="233.3" y="742.2" width="44.3" height="3.5" fill="#f472b6" rx="1"/>
  <text x="196.7" y="838" text-anchor="middle" fill="#e6edf3" font-size="11" font-weight="600">Level −1</text>
  <rect x="348.7" y="802.9" width="44.3" height="17.1" fill="#60a5fa" rx="1"/>
  <rect x="348.7" y="752.4" width="44.3" height="50.6" fill="#4680c4" rx="1"/>
  <rect x="348.7" y="746.2" width="44.3" height="6.2" fill="#60a5fa" rx="1"/>
  <rect x="394.7" y="791.9" width="44.3" height="28.1" fill="#f87171" rx="1"/>
  <rect x="394.7" y="738.0" width="44.3" height="53.8" fill="#c45050" rx="1"/>
  <rect x="394.7" y="729.6" width="44.3" height="8.4" fill="#f87171" rx="1"/>
  <rect x="440.7" y="786.4" width="44.3" height="33.6" fill="#f59e0b" rx="1"/>
  <rect x="440.7" y="735.8" width="44.3" height="50.6" fill="#c47d08" rx="1"/>
  <rect x="440.7" y="727.3" width="44.3" height="8.6" fill="#f59e0b" rx="1"/>
  <rect x="486.7" y="774.9" width="44.3" height="45.1" fill="#f472b6" rx="1"/>
  <rect x="486.7" y="721.1" width="44.3" height="53.8" fill="#c05a92" rx="1"/>
  <rect x="486.7" y="711.5" width="44.3" height="9.5" fill="#f472b6" rx="1"/>
  <text x="450.0" y="838" text-anchor="middle" fill="#e6edf3" font-size="11" font-weight="600">Level 1</text>
  <rect x="602.0" y="756.2" width="44.3" height="63.8" fill="#60a5fa" rx="1"/>
  <rect x="602.0" y="711.1" width="44.3" height="45.1" fill="#4680c4" rx="1"/>
  <rect x="602.0" y="701.9" width="44.3" height="9.2" fill="#60a5fa" rx="1"/>
  <rect x="648.0" y="758.7" width="44.3" height="61.3" fill="#f87171" rx="1"/>
  <rect x="648.0" y="710.3" width="44.3" height="48.4" fill="#c45050" rx="1"/>
  <rect x="648.0" y="697.2" width="44.3" height="13.0" fill="#f87171" rx="1"/>
  <rect x="694.0" y="704.9" width="44.3" height="115.1" fill="#f59e0b" rx="1"/>
  <rect x="694.0" y="659.1" width="44.3" height="45.8" fill="#c47d08" rx="1"/>
  <rect x="694.0" y="646.1" width="44.3" height="13.0" fill="#f59e0b" rx="1"/>
  <rect x="740.0" y="727.6" width="44.3" height="92.4" fill="#f472b6" rx="1"/>
  <rect x="740.0" y="679.2" width="44.3" height="48.4" fill="#c05a92" rx="1"/>
  <rect x="740.0" y="664.0" width="44.3" height="15.2" fill="#f472b6" rx="1"/>
  <text x="703.3" y="838" text-anchor="middle" fill="#e6edf3" font-size="11" font-weight="600">Level 3</text>
  <rect x="230" y="850" width="12" height="12" fill="#60a5fa" rx="2"/>
  <text x="248" y="860" fill="#e6edf3" font-size="10" font-weight="500">libzstd v1.5.7 (C)</text>
  <rect x="230" y="868" width="12" height="12" fill="#f87171" rx="2"/>
  <text x="248" y="878" fill="#e6edf3" font-size="10" font-weight="500">zrip (safe SIMD + encapsulated unsafe)</text>
  <rect x="480" y="850" width="12" height="12" fill="#f59e0b" rx="2"/>
  <text x="498" y="860" fill="#e6edf3" font-size="10" font-weight="500">structured-zstd v0.0.45 (unsafe)</text>
  <rect x="480" y="868" width="12" height="12" fill="#f472b6" rx="2"/>
  <text x="498" y="878" fill="#e6edf3" font-size="10" font-weight="500">zrip paranoid (safe SIMD, no unsafe)</text>
  <text x="240" y="903" fill="#e6edf3" font-size="9">bright = compress + decompress</text>
  <text x="480" y="903" fill="#7d8590" font-size="9">dim = transfer @100 MB/s</text>
</svg>
