<svg xmlns="http://www.w3.org/2000/svg" viewBox="0 0 850 950" font-family="system-ui, -apple-system, sans-serif">
  <rect width="850" height="950" fill="#0d1117"/>
  <text x="450.0" y="22" text-anchor="middle" fill="#e6edf3" font-size="14" font-weight="700">zstd Pipeline @100 MB/s: Aggregate across corpus (lower is better)</text>
  <text x="450.0" y="38" text-anchor="middle" fill="#7d8590" font-size="10">Intel Core i7-8700B @ 3.20GHz, performance governor, turbo off</text>
  <text x="22" y="445.0" text-anchor="middle" fill="#e6edf3" font-size="11" font-weight="600" transform="rotate(-90,22,445.0)">seconds / GB</text>
  <text x="450.0" y="64" text-anchor="middle" fill="#e6edf3" font-size="12" font-weight="600">High compressibility</text>
  <line x1="70" y1="225.3" x2="830" y2="225.3" stroke="#21262d" stroke-width="1"/>
  <text x="62" y="225.3" text-anchor="end" dominant-baseline="middle" fill="#7d8590" font-size="10">2.0</text>
  <line x1="70" y1="180.6" x2="830" y2="180.6" stroke="#21262d" stroke-width="1"/>
  <text x="62" y="180.6" text-anchor="end" dominant-baseline="middle" fill="#7d8590" font-size="10">4.0</text>
  <line x1="70" y1="135.9" x2="830" y2="135.9" stroke="#21262d" stroke-width="1"/>
  <text x="62" y="135.9" text-anchor="end" dominant-baseline="middle" fill="#7d8590" font-size="10">6.0</text>
  <line x1="70" y1="91.2" x2="830" y2="91.2" stroke="#21262d" stroke-width="1"/>
  <text x="62" y="91.2" text-anchor="end" dominant-baseline="middle" fill="#7d8590" font-size="10">8.0</text>
  <line x1="70" y1="270" x2="830" y2="270" stroke="#30363d" stroke-width="1.5"/>
  <rect x="95.3" y="229.3" width="44.3" height="40.7" fill="#60a5fa" rx="1"/>
  <rect x="95.3" y="192.1" width="44.3" height="37.2" fill="#4680c4" rx="1"/>
  <rect x="95.3" y="178.6" width="44.3" height="13.5" fill="#60a5fa" rx="1"/>
  <rect x="141.3" y="212.6" width="44.3" height="57.4" fill="#f87171" rx="1"/>
  <rect x="141.3" y="175.7" width="44.3" height="36.9" fill="#c45050" rx="1"/>
  <rect x="141.3" y="148.2" width="44.3" height="27.5" fill="#f87171" rx="1"/>
  <rect x="187.3" y="196.7" width="44.3" height="73.3" fill="#f59e0b" rx="1"/>
  <rect x="187.3" y="159.4" width="44.3" height="37.2" fill="#c47d08" rx="1"/>
  <rect x="187.3" y="139.0" width="44.3" height="20.5" fill="#f59e0b" rx="1"/>
  <rect x="233.3" y="176.6" width="44.3" height="93.4" fill="#f472b6" rx="1"/>
  <rect x="233.3" y="139.8" width="44.3" height="36.9" fill="#c05a92" rx="1"/>
  <rect x="233.3" y="107.7" width="44.3" height="32.0" fill="#f472b6" rx="1"/>
  <text x="196.7" y="288" text-anchor="middle" fill="#e6edf3" font-size="11" font-weight="600">Level −1</text>
  <rect x="348.7" y="226.4" width="44.3" height="43.6" fill="#60a5fa" rx="1"/>
  <rect x="348.7" y="195.2" width="44.3" height="31.2" fill="#4680c4" rx="1"/>
  <rect x="348.7" y="180.9" width="44.3" height="14.3" fill="#60a5fa" rx="1"/>
  <rect x="394.7" y="211.0" width="44.3" height="59.0" fill="#f87171" rx="1"/>
  <rect x="394.7" y="175.2" width="44.3" height="35.8" fill="#c45050" rx="1"/>
  <rect x="394.7" y="145.1" width="44.3" height="30.1" fill="#f87171" rx="1"/>
  <rect x="440.7" y="193.5" width="44.3" height="76.5" fill="#f59e0b" rx="1"/>
  <rect x="440.7" y="162.2" width="44.3" height="31.3" fill="#c47d08" rx="1"/>
  <rect x="440.7" y="140.9" width="44.3" height="21.3" fill="#f59e0b" rx="1"/>
  <rect x="486.7" y="171.8" width="44.3" height="98.2" fill="#f472b6" rx="1"/>
  <rect x="486.7" y="136.0" width="44.3" height="35.8" fill="#c05a92" rx="1"/>
  <rect x="486.7" y="101.1" width="44.3" height="34.9" fill="#f472b6" rx="1"/>
  <text x="450.0" y="288" text-anchor="middle" fill="#e6edf3" font-size="11" font-weight="600">Level 1</text>
  <rect x="602.0" y="214.0" width="44.3" height="56.0" fill="#60a5fa" rx="1"/>
  <rect x="602.0" y="184.7" width="44.3" height="29.3" fill="#4680c4" rx="1"/>
  <rect x="602.0" y="169.8" width="44.3" height="14.9" fill="#60a5fa" rx="1"/>
  <rect x="648.0" y="198.8" width="44.3" height="71.2" fill="#f87171" rx="1"/>
  <rect x="648.0" y="166.0" width="44.3" height="32.8" fill="#c45050" rx="1"/>
  <rect x="648.0" y="138.9" width="44.3" height="27.1" fill="#f87171" rx="1"/>
  <rect x="694.0" y="154.3" width="44.3" height="115.7" fill="#f59e0b" rx="1"/>
  <rect x="694.0" y="125.0" width="44.3" height="29.3" fill="#c47d08" rx="1"/>
  <rect x="694.0" y="102.6" width="44.3" height="22.4" fill="#f59e0b" rx="1"/>
  <rect x="740.0" y="160.3" width="44.3" height="109.7" fill="#f472b6" rx="1"/>
  <rect x="740.0" y="127.5" width="44.3" height="32.8" fill="#c05a92" rx="1"/>
  <rect x="740.0" y="96.1" width="44.3" height="31.4" fill="#f472b6" rx="1"/>
  <text x="703.3" y="288" text-anchor="middle" fill="#e6edf3" font-size="11" font-weight="600">Level 3</text>
  <text x="450.0" y="339" text-anchor="middle" fill="#e6edf3" font-size="12" font-weight="600">Medium compressibility</text>
  <line x1="70" y1="494.3" x2="830" y2="494.3" stroke="#21262d" stroke-width="1"/>
  <text x="62" y="494.3" text-anchor="end" dominant-baseline="middle" fill="#7d8590" font-size="10">5.0</text>
  <line x1="70" y1="443.6" x2="830" y2="443.6" stroke="#21262d" stroke-width="1"/>
  <text x="62" y="443.6" text-anchor="end" dominant-baseline="middle" fill="#7d8590" font-size="10">10.0</text>
  <line x1="70" y1="392.9" x2="830" y2="392.9" stroke="#21262d" stroke-width="1"/>
  <text x="62" y="392.9" text-anchor="end" dominant-baseline="middle" fill="#7d8590" font-size="10">15.0</text>
  <line x1="70" y1="545" x2="830" y2="545" stroke="#30363d" stroke-width="1.5"/>
  <rect x="95.3" y="510.9" width="44.3" height="34.1" fill="#60a5fa" rx="1"/>
  <rect x="95.3" y="466.1" width="44.3" height="44.7" fill="#4680c4" rx="1"/>
  <rect x="95.3" y="457.3" width="44.3" height="8.8" fill="#60a5fa" rx="1"/>
  <rect x="141.3" y="495.0" width="44.3" height="50.0" fill="#f87171" rx="1"/>
  <rect x="141.3" y="452.0" width="44.3" height="43.0" fill="#c45050" rx="1"/>
  <rect x="141.3" y="432.8" width="44.3" height="19.2" fill="#f87171" rx="1"/>
  <rect x="187.3" y="489.1" width="44.3" height="55.9" fill="#f59e0b" rx="1"/>
  <rect x="187.3" y="444.2" width="44.3" height="44.9" fill="#c47d08" rx="1"/>
  <rect x="187.3" y="430.4" width="44.3" height="13.8" fill="#f59e0b" rx="1"/>
  <rect x="233.3" y="463.5" width="44.3" height="81.5" fill="#f472b6" rx="1"/>
  <rect x="233.3" y="420.6" width="44.3" height="43.0" fill="#c05a92" rx="1"/>
  <rect x="233.3" y="396.8" width="44.3" height="23.8" fill="#f472b6" rx="1"/>
  <text x="196.7" y="563" text-anchor="middle" fill="#e6edf3" font-size="11" font-weight="600">Level −1</text>
  <rect x="348.7" y="508.3" width="44.3" height="36.7" fill="#60a5fa" rx="1"/>
  <rect x="348.7" y="471.0" width="44.3" height="37.3" fill="#4680c4" rx="1"/>
  <rect x="348.7" y="460.7" width="44.3" height="10.3" fill="#60a5fa" rx="1"/>
  <rect x="394.7" y="492.1" width="44.3" height="52.9" fill="#f87171" rx="1"/>
  <rect x="394.7" y="452.1" width="44.3" height="40.0" fill="#c45050" rx="1"/>
  <rect x="394.7" y="429.8" width="44.3" height="22.4" fill="#f87171" rx="1"/>
  <rect x="440.7" y="482.7" width="44.3" height="62.3" fill="#f59e0b" rx="1"/>
  <rect x="440.7" y="445.3" width="44.3" height="37.4" fill="#c47d08" rx="1"/>
  <rect x="440.7" y="429.5" width="44.3" height="15.7" fill="#f59e0b" rx="1"/>
  <rect x="486.7" y="454.1" width="44.3" height="90.9" fill="#f472b6" rx="1"/>
  <rect x="486.7" y="414.1" width="44.3" height="40.0" fill="#c05a92" rx="1"/>
  <rect x="486.7" y="386.5" width="44.3" height="27.6" fill="#f472b6" rx="1"/>
  <text x="450.0" y="563" text-anchor="middle" fill="#e6edf3" font-size="11" font-weight="600">Level 1</text>
  <rect x="602.0" y="485.6" width="44.3" height="59.4" fill="#60a5fa" rx="1"/>
  <rect x="602.0" y="451.9" width="44.3" height="33.6" fill="#4680c4" rx="1"/>
  <rect x="602.0" y="440.1" width="44.3" height="11.8" fill="#60a5fa" rx="1"/>
  <rect x="648.0" y="470.4" width="44.3" height="74.6" fill="#f87171" rx="1"/>
  <rect x="648.0" y="433.0" width="44.3" height="37.3" fill="#c45050" rx="1"/>
  <rect x="648.0" y="413.4" width="44.3" height="19.6" fill="#f87171" rx="1"/>
  <rect x="694.0" y="430.3" width="44.3" height="114.7" fill="#f59e0b" rx="1"/>
  <rect x="694.0" y="396.3" width="44.3" height="34.0" fill="#c47d08" rx="1"/>
  <rect x="694.0" y="378.1" width="44.3" height="18.2" fill="#f59e0b" rx="1"/>
  <rect x="740.0" y="433.4" width="44.3" height="111.6" fill="#f472b6" rx="1"/>
  <rect x="740.0" y="396.0" width="44.3" height="37.3" fill="#c05a92" rx="1"/>
  <rect x="740.0" y="371.1" width="44.3" height="24.9" fill="#f472b6" rx="1"/>
  <text x="703.3" y="563" text-anchor="middle" fill="#e6edf3" font-size="11" font-weight="600">Level 3</text>
  <text x="450.0" y="614" text-anchor="middle" fill="#e6edf3" font-size="12" font-weight="600">Low compressibility</text>
  <line x1="70" y1="758.3" x2="830" y2="758.3" stroke="#21262d" stroke-width="1"/>
  <text x="62" y="758.3" text-anchor="end" dominant-baseline="middle" fill="#7d8590" font-size="10">10.0</text>
  <line x1="70" y1="696.5" x2="830" y2="696.5" stroke="#21262d" stroke-width="1"/>
  <text x="62" y="696.5" text-anchor="end" dominant-baseline="middle" fill="#7d8590" font-size="10">20.0</text>
  <line x1="70" y1="634.8" x2="830" y2="634.8" stroke="#21262d" stroke-width="1"/>
  <text x="62" y="634.8" text-anchor="end" dominant-baseline="middle" fill="#7d8590" font-size="10">30.0</text>
  <line x1="70" y1="820" x2="830" y2="820" stroke="#30363d" stroke-width="1.5"/>
  <rect x="95.3" y="809.4" width="44.3" height="10.6" fill="#60a5fa" rx="1"/>
  <rect x="95.3" y="750.5" width="44.3" height="58.9" fill="#4680c4" rx="1"/>
  <rect x="95.3" y="748.9" width="44.3" height="1.5" fill="#60a5fa" rx="1"/>
  <rect x="141.3" y="806.0" width="44.3" height="14.0" fill="#f87171" rx="1"/>
  <rect x="141.3" y="747.2" width="44.3" height="58.8" fill="#c45050" rx="1"/>
  <rect x="141.3" y="744.1" width="44.3" height="3.1" fill="#f87171" rx="1"/>
  <rect x="187.3" y="805.3" width="44.3" height="14.7" fill="#f59e0b" rx="1"/>
  <rect x="187.3" y="746.4" width="44.3" height="58.9" fill="#c47d08" rx="1"/>
  <rect x="187.3" y="743.8" width="44.3" height="2.5" fill="#f59e0b" rx="1"/>
  <rect x="233.3" y="799.0" width="44.3" height="21.0" fill="#f472b6" rx="1"/>
  <rect x="233.3" y="740.2" width="44.3" height="58.8" fill="#c05a92" rx="1"/>
  <rect x="233.3" y="736.6" width="44.3" height="3.6" fill="#f472b6" rx="1"/>
  <text x="196.7" y="838" text-anchor="middle" fill="#e6edf3" font-size="11" font-weight="600">Level −1</text>
  <rect x="348.7" y="803.0" width="44.3" height="17.0" fill="#60a5fa" rx="1"/>
  <rect x="348.7" y="751.9" width="44.3" height="51.1" fill="#4680c4" rx="1"/>
  <rect x="348.7" y="745.7" width="44.3" height="6.2" fill="#60a5fa" rx="1"/>
  <rect x="394.7" y="793.4" width="44.3" height="26.6" fill="#f87171" rx="1"/>
  <rect x="394.7" y="738.9" width="44.3" height="54.4" fill="#c45050" rx="1"/>
  <rect x="394.7" y="731.2" width="44.3" height="7.7" fill="#f87171" rx="1"/>
  <rect x="440.7" y="785.0" width="44.3" height="35.0" fill="#f59e0b" rx="1"/>
  <rect x="440.7" y="733.9" width="44.3" height="51.1" fill="#c47d08" rx="1"/>
  <rect x="440.7" y="725.5" width="44.3" height="8.4" fill="#f59e0b" rx="1"/>
  <rect x="486.7" y="774.9" width="44.3" height="45.1" fill="#f472b6" rx="1"/>
  <rect x="486.7" y="720.5" width="44.3" height="54.4" fill="#c05a92" rx="1"/>
  <rect x="486.7" y="711.2" width="44.3" height="9.3" fill="#f472b6" rx="1"/>
  <text x="450.0" y="838" text-anchor="middle" fill="#e6edf3" font-size="11" font-weight="600">Level 1</text>
  <rect x="602.0" y="759.5" width="44.3" height="60.5" fill="#60a5fa" rx="1"/>
  <rect x="602.0" y="713.9" width="44.3" height="45.6" fill="#4680c4" rx="1"/>
  <rect x="602.0" y="704.8" width="44.3" height="9.1" fill="#60a5fa" rx="1"/>
  <rect x="648.0" y="757.7" width="44.3" height="62.3" fill="#f87171" rx="1"/>
  <rect x="648.0" y="708.7" width="44.3" height="49.0" fill="#c45050" rx="1"/>
  <rect x="648.0" y="697.2" width="44.3" height="11.5" fill="#f87171" rx="1"/>
  <rect x="694.0" y="705.0" width="44.3" height="115.0" fill="#f59e0b" rx="1"/>
  <rect x="694.0" y="658.7" width="44.3" height="46.3" fill="#c47d08" rx="1"/>
  <rect x="694.0" y="646.1" width="44.3" height="12.6" fill="#f59e0b" rx="1"/>
  <rect x="740.0" y="732.6" width="44.3" height="87.4" fill="#f472b6" rx="1"/>
  <rect x="740.0" y="683.6" width="44.3" height="49.0" fill="#c05a92" rx="1"/>
  <rect x="740.0" y="669.3" width="44.3" height="14.3" fill="#f472b6" rx="1"/>
  <text x="703.3" y="838" text-anchor="middle" fill="#e6edf3" font-size="11" font-weight="600">Level 3</text>
  <rect x="230" y="850" width="12" height="12" fill="#60a5fa" rx="2"/>
  <text x="248" y="860" fill="#e6edf3" font-size="10" font-weight="500">libzstd v1.5.7 (C)</text>
  <rect x="230" y="868" width="12" height="12" fill="#f87171" rx="2"/>
  <text x="248" y="878" fill="#e6edf3" font-size="10" font-weight="500">zrip (safe SIMD + encapsulated unsafe)</text>
  <rect x="480" y="850" width="12" height="12" fill="#f59e0b" rx="2"/>
  <text x="498" y="860" fill="#e6edf3" font-size="10" font-weight="500">structured-zstd v0.0.48 (unsafe)</text>
  <rect x="480" y="868" width="12" height="12" fill="#f472b6" rx="2"/>
  <text x="498" y="878" fill="#e6edf3" font-size="10" font-weight="500">zrip paranoid (safe SIMD, no unsafe)</text>
  <text x="240" y="903" fill="#e6edf3" font-size="9">bright = compress + decompress</text>
  <text x="480" y="903" fill="#7d8590" font-size="9">dim = transfer @100 MB/s</text>
</svg>
