<svg xmlns="http://www.w3.org/2000/svg" viewBox="0 0 850 950" font-family="system-ui, -apple-system, sans-serif">
  <rect width="850" height="950" fill="#0d1117"/>
  <text x="450.0" y="22" text-anchor="middle" fill="#e6edf3" font-size="14" font-weight="700">zstd Pipeline @100 MB/s: Aggregate across corpus (lower is better)</text>
  <text x="450.0" y="38" text-anchor="middle" fill="#7d8590" font-size="10">Intel Core i7-8700B @ 3.20GHz, performance governor, turbo off</text>
  <text x="22" y="445.0" text-anchor="middle" fill="#e6edf3" font-size="11" font-weight="600" transform="rotate(-90,22,445.0)">seconds / GB</text>
  <text x="450.0" y="64" text-anchor="middle" fill="#e6edf3" font-size="12" font-weight="600">High compressibility</text>
  <line x1="70" y1="223.8" x2="830" y2="223.8" stroke="#21262d" stroke-width="1"/>
  <text x="62" y="223.8" text-anchor="end" dominant-baseline="middle" fill="#7d8590" font-size="10">2.0</text>
  <line x1="70" y1="177.5" x2="830" y2="177.5" stroke="#21262d" stroke-width="1"/>
  <text x="62" y="177.5" text-anchor="end" dominant-baseline="middle" fill="#7d8590" font-size="10">4.0</text>
  <line x1="70" y1="131.3" x2="830" y2="131.3" stroke="#21262d" stroke-width="1"/>
  <text x="62" y="131.3" text-anchor="end" dominant-baseline="middle" fill="#7d8590" font-size="10">6.0</text>
  <line x1="70" y1="85.0" x2="830" y2="85.0" stroke="#21262d" stroke-width="1"/>
  <text x="62" y="85.0" text-anchor="end" dominant-baseline="middle" fill="#7d8590" font-size="10">8.0</text>
  <line x1="70" y1="270" x2="830" y2="270" stroke="#30363d" stroke-width="1.5"/>
  <rect x="95.3" y="227.7" width="44.3" height="42.3" fill="#60a5fa" rx="1"/>
  <rect x="95.3" y="189.3" width="44.3" height="38.4" fill="#4680c4" rx="1"/>
  <rect x="95.3" y="175.4" width="44.3" height="13.9" fill="#60a5fa" rx="1"/>
  <rect x="141.3" y="207.8" width="44.3" height="62.2" fill="#f87171" rx="1"/>
  <rect x="141.3" y="168.9" width="44.3" height="38.9" fill="#c45050" rx="1"/>
  <rect x="141.3" y="142.1" width="44.3" height="26.8" fill="#f87171" rx="1"/>
  <rect x="187.3" y="194.5" width="44.3" height="75.5" fill="#f59e0b" rx="1"/>
  <rect x="187.3" y="155.9" width="44.3" height="38.5" fill="#c47d08" rx="1"/>
  <rect x="187.3" y="134.8" width="44.3" height="21.2" fill="#f59e0b" rx="1"/>
  <rect x="233.3" y="186.1" width="44.3" height="83.9" fill="#f472b6" rx="1"/>
  <rect x="233.3" y="147.2" width="44.3" height="38.9" fill="#c05a92" rx="1"/>
  <rect x="233.3" y="114.3" width="44.3" height="32.8" fill="#f472b6" rx="1"/>
  <text x="196.7" y="288" text-anchor="middle" fill="#e6edf3" font-size="11" font-weight="600">Level −1</text>
  <rect x="348.7" y="224.9" width="44.3" height="45.1" fill="#60a5fa" rx="1"/>
  <rect x="348.7" y="192.6" width="44.3" height="32.3" fill="#4680c4" rx="1"/>
  <rect x="348.7" y="177.7" width="44.3" height="14.8" fill="#60a5fa" rx="1"/>
  <rect x="394.7" y="203.2" width="44.3" height="66.8" fill="#f87171" rx="1"/>
  <rect x="394.7" y="166.1" width="44.3" height="37.1" fill="#c45050" rx="1"/>
  <rect x="394.7" y="135.8" width="44.3" height="30.3" fill="#f87171" rx="1"/>
  <rect x="440.7" y="190.7" width="44.3" height="79.3" fill="#f59e0b" rx="1"/>
  <rect x="440.7" y="158.3" width="44.3" height="32.4" fill="#c47d08" rx="1"/>
  <rect x="440.7" y="136.2" width="44.3" height="22.1" fill="#f59e0b" rx="1"/>
  <rect x="486.7" y="178.6" width="44.3" height="91.4" fill="#f472b6" rx="1"/>
  <rect x="486.7" y="141.5" width="44.3" height="37.1" fill="#c05a92" rx="1"/>
  <rect x="486.7" y="104.5" width="44.3" height="37.1" fill="#f472b6" rx="1"/>
  <text x="450.0" y="288" text-anchor="middle" fill="#e6edf3" font-size="11" font-weight="600">Level 1</text>
  <rect x="602.0" y="211.5" width="44.3" height="58.5" fill="#60a5fa" rx="1"/>
  <rect x="602.0" y="181.2" width="44.3" height="30.3" fill="#4680c4" rx="1"/>
  <rect x="602.0" y="165.8" width="44.3" height="15.5" fill="#60a5fa" rx="1"/>
  <rect x="648.0" y="194.1" width="44.3" height="75.9" fill="#f87171" rx="1"/>
  <rect x="648.0" y="160.1" width="44.3" height="34.0" fill="#c45050" rx="1"/>
  <rect x="648.0" y="133.2" width="44.3" height="26.9" fill="#f87171" rx="1"/>
  <rect x="694.0" y="149.7" width="44.3" height="120.3" fill="#f59e0b" rx="1"/>
  <rect x="694.0" y="119.4" width="44.3" height="30.3" fill="#c47d08" rx="1"/>
  <rect x="694.0" y="96.1" width="44.3" height="23.3" fill="#f59e0b" rx="1"/>
  <rect x="740.0" y="168.1" width="44.3" height="101.9" fill="#f472b6" rx="1"/>
  <rect x="740.0" y="134.1" width="44.3" height="34.0" fill="#c05a92" rx="1"/>
  <rect x="740.0" y="100.9" width="44.3" height="33.2" fill="#f472b6" rx="1"/>
  <text x="703.3" y="288" text-anchor="middle" fill="#e6edf3" font-size="11" font-weight="600">Level 3</text>
  <text x="450.0" y="339" text-anchor="middle" fill="#e6edf3" font-size="12" font-weight="600">Medium compressibility</text>
  <line x1="70" y1="492.5" x2="830" y2="492.5" stroke="#21262d" stroke-width="1"/>
  <text x="62" y="492.5" text-anchor="end" dominant-baseline="middle" fill="#7d8590" font-size="10">5.0</text>
  <line x1="70" y1="440.0" x2="830" y2="440.0" stroke="#21262d" stroke-width="1"/>
  <text x="62" y="440.0" text-anchor="end" dominant-baseline="middle" fill="#7d8590" font-size="10">10.0</text>
  <line x1="70" y1="387.5" x2="830" y2="387.5" stroke="#21262d" stroke-width="1"/>
  <text x="62" y="387.5" text-anchor="end" dominant-baseline="middle" fill="#7d8590" font-size="10">15.0</text>
  <line x1="70" y1="545" x2="830" y2="545" stroke="#30363d" stroke-width="1.5"/>
  <rect x="95.3" y="509.6" width="44.3" height="35.4" fill="#60a5fa" rx="1"/>
  <rect x="95.3" y="463.3" width="44.3" height="46.3" fill="#4680c4" rx="1"/>
  <rect x="95.3" y="454.2" width="44.3" height="9.1" fill="#60a5fa" rx="1"/>
  <rect x="141.3" y="489.5" width="44.3" height="55.5" fill="#f87171" rx="1"/>
  <rect x="141.3" y="445.5" width="44.3" height="44.0" fill="#c45050" rx="1"/>
  <rect x="141.3" y="425.5" width="44.3" height="20.0" fill="#f87171" rx="1"/>
  <rect x="187.3" y="487.2" width="44.3" height="57.8" fill="#f59e0b" rx="1"/>
  <rect x="187.3" y="440.7" width="44.3" height="46.5" fill="#c47d08" rx="1"/>
  <rect x="187.3" y="426.4" width="44.3" height="14.3" fill="#f59e0b" rx="1"/>
  <rect x="233.3" y="472.3" width="44.3" height="72.7" fill="#f472b6" rx="1"/>
  <rect x="233.3" y="428.3" width="44.3" height="44.0" fill="#c05a92" rx="1"/>
  <rect x="233.3" y="402.7" width="44.3" height="25.6" fill="#f472b6" rx="1"/>
  <text x="196.7" y="563" text-anchor="middle" fill="#e6edf3" font-size="11" font-weight="600">Level −1</text>
  <rect x="348.7" y="506.8" width="44.3" height="38.2" fill="#60a5fa" rx="1"/>
  <rect x="348.7" y="468.2" width="44.3" height="38.6" fill="#4680c4" rx="1"/>
  <rect x="348.7" y="457.5" width="44.3" height="10.7" fill="#60a5fa" rx="1"/>
  <rect x="394.7" y="483.1" width="44.3" height="61.9" fill="#f87171" rx="1"/>
  <rect x="394.7" y="441.7" width="44.3" height="41.4" fill="#c45050" rx="1"/>
  <rect x="394.7" y="417.8" width="44.3" height="23.9" fill="#f87171" rx="1"/>
  <rect x="440.7" y="480.4" width="44.3" height="64.6" fill="#f59e0b" rx="1"/>
  <rect x="440.7" y="441.6" width="44.3" height="38.7" fill="#c47d08" rx="1"/>
  <rect x="440.7" y="425.4" width="44.3" height="16.3" fill="#f59e0b" rx="1"/>
  <rect x="486.7" y="460.9" width="44.3" height="84.1" fill="#f472b6" rx="1"/>
  <rect x="486.7" y="419.5" width="44.3" height="41.4" fill="#c05a92" rx="1"/>
  <rect x="486.7" y="389.1" width="44.3" height="30.4" fill="#f472b6" rx="1"/>
  <text x="450.0" y="563" text-anchor="middle" fill="#e6edf3" font-size="11" font-weight="600">Level 1</text>
  <rect x="602.0" y="482.1" width="44.3" height="62.9" fill="#60a5fa" rx="1"/>
  <rect x="602.0" y="447.3" width="44.3" height="34.8" fill="#4680c4" rx="1"/>
  <rect x="602.0" y="434.9" width="44.3" height="12.3" fill="#60a5fa" rx="1"/>
  <rect x="648.0" y="464.5" width="44.3" height="80.5" fill="#f87171" rx="1"/>
  <rect x="648.0" y="425.8" width="44.3" height="38.7" fill="#c45050" rx="1"/>
  <rect x="648.0" y="405.2" width="44.3" height="20.7" fill="#f87171" rx="1"/>
  <rect x="694.0" y="425.1" width="44.3" height="119.9" fill="#f59e0b" rx="1"/>
  <rect x="694.0" y="389.9" width="44.3" height="35.2" fill="#c47d08" rx="1"/>
  <rect x="694.0" y="371.1" width="44.3" height="18.8" fill="#f59e0b" rx="1"/>
  <rect x="740.0" y="440.4" width="44.3" height="104.6" fill="#f472b6" rx="1"/>
  <rect x="740.0" y="401.8" width="44.3" height="38.7" fill="#c05a92" rx="1"/>
  <rect x="740.0" y="374.2" width="44.3" height="27.5" fill="#f472b6" rx="1"/>
  <text x="703.3" y="563" text-anchor="middle" fill="#e6edf3" font-size="11" font-weight="600">Level 3</text>
  <text x="450.0" y="614" text-anchor="middle" fill="#e6edf3" font-size="12" font-weight="600">Low compressibility</text>
  <line x1="70" y1="758.6" x2="830" y2="758.6" stroke="#21262d" stroke-width="1"/>
  <text x="62" y="758.6" text-anchor="end" dominant-baseline="middle" fill="#7d8590" font-size="10">10.0</text>
  <line x1="70" y1="697.2" x2="830" y2="697.2" stroke="#21262d" stroke-width="1"/>
  <text x="62" y="697.2" text-anchor="end" dominant-baseline="middle" fill="#7d8590" font-size="10">20.0</text>
  <line x1="70" y1="635.7" x2="830" y2="635.7" stroke="#21262d" stroke-width="1"/>
  <text x="62" y="635.7" text-anchor="end" dominant-baseline="middle" fill="#7d8590" font-size="10">30.0</text>
  <line x1="70" y1="820" x2="830" y2="820" stroke="#30363d" stroke-width="1.5"/>
  <rect x="95.3" y="809.5" width="44.3" height="10.5" fill="#60a5fa" rx="1"/>
  <rect x="95.3" y="750.9" width="44.3" height="58.6" fill="#4680c4" rx="1"/>
  <rect x="95.3" y="749.4" width="44.3" height="1.5" fill="#60a5fa" rx="1"/>
  <rect x="141.3" y="804.3" width="44.3" height="15.7" fill="#f87171" rx="1"/>
  <rect x="141.3" y="746.7" width="44.3" height="57.6" fill="#c45050" rx="1"/>
  <rect x="141.3" y="742.9" width="44.3" height="3.8" fill="#f87171" rx="1"/>
  <rect x="187.3" y="805.5" width="44.3" height="14.5" fill="#f59e0b" rx="1"/>
  <rect x="187.3" y="746.8" width="44.3" height="58.6" fill="#c47d08" rx="1"/>
  <rect x="187.3" y="744.4" width="44.3" height="2.5" fill="#f59e0b" rx="1"/>
  <rect x="233.3" y="799.8" width="44.3" height="20.2" fill="#f472b6" rx="1"/>
  <rect x="233.3" y="742.2" width="44.3" height="57.6" fill="#c05a92" rx="1"/>
  <rect x="233.3" y="737.6" width="44.3" height="4.6" fill="#f472b6" rx="1"/>
  <text x="196.7" y="838" text-anchor="middle" fill="#e6edf3" font-size="11" font-weight="600">Level −1</text>
  <rect x="348.7" y="803.0" width="44.3" height="17.0" fill="#60a5fa" rx="1"/>
  <rect x="348.7" y="752.2" width="44.3" height="50.9" fill="#4680c4" rx="1"/>
  <rect x="348.7" y="746.1" width="44.3" height="6.1" fill="#60a5fa" rx="1"/>
  <rect x="394.7" y="790.6" width="44.3" height="29.4" fill="#f87171" rx="1"/>
  <rect x="394.7" y="736.4" width="44.3" height="54.2" fill="#c45050" rx="1"/>
  <rect x="394.7" y="728.3" width="44.3" height="8.1" fill="#f87171" rx="1"/>
  <rect x="440.7" y="785.2" width="44.3" height="34.8" fill="#f59e0b" rx="1"/>
  <rect x="440.7" y="734.4" width="44.3" height="50.9" fill="#c47d08" rx="1"/>
  <rect x="440.7" y="726.0" width="44.3" height="8.3" fill="#f59e0b" rx="1"/>
  <rect x="486.7" y="779.5" width="44.3" height="40.5" fill="#f472b6" rx="1"/>
  <rect x="486.7" y="725.3" width="44.3" height="54.2" fill="#c05a92" rx="1"/>
  <rect x="486.7" y="715.5" width="44.3" height="9.8" fill="#f472b6" rx="1"/>
  <text x="450.0" y="838" text-anchor="middle" fill="#e6edf3" font-size="11" font-weight="600">Level 1</text>
  <rect x="602.0" y="758.9" width="44.3" height="61.1" fill="#60a5fa" rx="1"/>
  <rect x="602.0" y="713.5" width="44.3" height="45.4" fill="#4680c4" rx="1"/>
  <rect x="602.0" y="704.5" width="44.3" height="9.0" fill="#60a5fa" rx="1"/>
  <rect x="648.0" y="759.8" width="44.3" height="60.2" fill="#f87171" rx="1"/>
  <rect x="648.0" y="711.1" width="44.3" height="48.7" fill="#c45050" rx="1"/>
  <rect x="648.0" y="699.5" width="44.3" height="11.6" fill="#f87171" rx="1"/>
  <rect x="694.0" y="704.7" width="44.3" height="115.3" fill="#f59e0b" rx="1"/>
  <rect x="694.0" y="658.6" width="44.3" height="46.1" fill="#c47d08" rx="1"/>
  <rect x="694.0" y="646.1" width="44.3" height="12.5" fill="#f59e0b" rx="1"/>
  <rect x="740.0" y="741.4" width="44.3" height="78.6" fill="#f472b6" rx="1"/>
  <rect x="740.0" y="692.7" width="44.3" height="48.7" fill="#c05a92" rx="1"/>
  <rect x="740.0" y="677.4" width="44.3" height="15.3" fill="#f472b6" rx="1"/>
  <text x="703.3" y="838" text-anchor="middle" fill="#e6edf3" font-size="11" font-weight="600">Level 3</text>
  <rect x="230" y="850" width="12" height="12" fill="#60a5fa" rx="2"/>
  <text x="248" y="860" fill="#e6edf3" font-size="10" font-weight="500">libzstd v1.5.7 (C)</text>
  <rect x="230" y="868" width="12" height="12" fill="#f87171" rx="2"/>
  <text x="248" y="878" fill="#e6edf3" font-size="10" font-weight="500">zrip (safe SIMD + encapsulated unsafe)</text>
  <rect x="480" y="850" width="12" height="12" fill="#f59e0b" rx="2"/>
  <text x="498" y="860" fill="#e6edf3" font-size="10" font-weight="500">structured-zstd v0.0.48 (unsafe)</text>
  <rect x="480" y="868" width="12" height="12" fill="#f472b6" rx="2"/>
  <text x="498" y="878" fill="#e6edf3" font-size="10" font-weight="500">zrip paranoid (safe SIMD, no unsafe)</text>
  <text x="240" y="903" fill="#e6edf3" font-size="9">bright = compress + decompress</text>
  <text x="480" y="903" fill="#7d8590" font-size="9">dim = transfer @100 MB/s</text>
</svg>
