<svg xmlns="http://www.w3.org/2000/svg" viewBox="0 0 850 950" font-family="system-ui, -apple-system, sans-serif">
  <rect width="850" height="950" fill="#0d1117"/>
  <text x="450.0" y="22" text-anchor="middle" fill="#e6edf3" font-size="14" font-weight="700">zstd Pipeline @100 MB/s: Aggregate across corpus (lower is better)</text>
  <text x="450.0" y="38" text-anchor="middle" fill="#7d8590" font-size="10">Intel Core i7-8700B @ 3.20GHz, performance governor, turbo off</text>
  <text x="22" y="445.0" text-anchor="middle" fill="#e6edf3" font-size="11" font-weight="600" transform="rotate(-90,22,445.0)">seconds / GB</text>
  <text x="450.0" y="64" text-anchor="middle" fill="#e6edf3" font-size="12" font-weight="600">High compressibility</text>
  <line x1="70" y1="227.8" x2="830" y2="227.8" stroke="#21262d" stroke-width="1"/>
  <text x="62" y="227.8" text-anchor="end" dominant-baseline="middle" fill="#7d8590" font-size="10">2.0</text>
  <line x1="70" y1="185.6" x2="830" y2="185.6" stroke="#21262d" stroke-width="1"/>
  <text x="62" y="185.6" text-anchor="end" dominant-baseline="middle" fill="#7d8590" font-size="10">4.0</text>
  <line x1="70" y1="143.4" x2="830" y2="143.4" stroke="#21262d" stroke-width="1"/>
  <text x="62" y="143.4" text-anchor="end" dominant-baseline="middle" fill="#7d8590" font-size="10">6.0</text>
  <line x1="70" y1="101.2" x2="830" y2="101.2" stroke="#21262d" stroke-width="1"/>
  <text x="62" y="101.2" text-anchor="end" dominant-baseline="middle" fill="#7d8590" font-size="10">8.0</text>
  <line x1="70" y1="270" x2="830" y2="270" stroke="#30363d" stroke-width="1.5"/>
  <rect x="95.3" y="231.6" width="44.3" height="38.4" fill="#60a5fa" rx="1"/>
  <rect x="95.3" y="196.5" width="44.3" height="35.1" fill="#4680c4" rx="1"/>
  <rect x="95.3" y="183.8" width="44.3" height="12.7" fill="#60a5fa" rx="1"/>
  <rect x="141.3" y="215.0" width="44.3" height="55.0" fill="#f87171" rx="1"/>
  <rect x="141.3" y="180.2" width="44.3" height="34.8" fill="#c45050" rx="1"/>
  <rect x="141.3" y="145.4" width="44.3" height="34.8" fill="#f87171" rx="1"/>
  <rect x="187.3" y="200.7" width="44.3" height="69.3" fill="#f59e0b" rx="1"/>
  <rect x="187.3" y="165.5" width="44.3" height="35.2" fill="#c47d08" rx="1"/>
  <rect x="187.3" y="141.5" width="44.3" height="24.0" fill="#f59e0b" rx="1"/>
  <rect x="233.3" y="181.4" width="44.3" height="88.6" fill="#f472b6" rx="1"/>
  <rect x="233.3" y="146.6" width="44.3" height="34.8" fill="#c05a92" rx="1"/>
  <rect x="233.3" y="106.4" width="44.3" height="40.2" fill="#f472b6" rx="1"/>
  <text x="196.7" y="288" text-anchor="middle" fill="#e6edf3" font-size="11" font-weight="600">Level −1</text>
  <rect x="348.7" y="228.9" width="44.3" height="41.1" fill="#60a5fa" rx="1"/>
  <rect x="348.7" y="199.4" width="44.3" height="29.5" fill="#4680c4" rx="1"/>
  <rect x="348.7" y="185.9" width="44.3" height="13.5" fill="#60a5fa" rx="1"/>
  <rect x="394.7" y="213.7" width="44.3" height="56.3" fill="#f87171" rx="1"/>
  <rect x="394.7" y="179.9" width="44.3" height="33.8" fill="#c45050" rx="1"/>
  <rect x="394.7" y="142.7" width="44.3" height="37.2" fill="#f87171" rx="1"/>
  <rect x="440.7" y="197.1" width="44.3" height="72.9" fill="#f59e0b" rx="1"/>
  <rect x="440.7" y="167.5" width="44.3" height="29.6" fill="#c47d08" rx="1"/>
  <rect x="440.7" y="142.6" width="44.3" height="24.9" fill="#f59e0b" rx="1"/>
  <rect x="486.7" y="176.7" width="44.3" height="93.3" fill="#f472b6" rx="1"/>
  <rect x="486.7" y="142.9" width="44.3" height="33.8" fill="#c05a92" rx="1"/>
  <rect x="486.7" y="99.7" width="44.3" height="43.1" fill="#f472b6" rx="1"/>
  <text x="450.0" y="288" text-anchor="middle" fill="#e6edf3" font-size="11" font-weight="600">Level 1</text>
  <rect x="602.0" y="217.1" width="44.3" height="52.9" fill="#60a5fa" rx="1"/>
  <rect x="602.0" y="189.5" width="44.3" height="27.6" fill="#4680c4" rx="1"/>
  <rect x="602.0" y="175.4" width="44.3" height="14.1" fill="#60a5fa" rx="1"/>
  <rect x="648.0" y="203.0" width="44.3" height="67.0" fill="#f87171" rx="1"/>
  <rect x="648.0" y="172.0" width="44.3" height="31.0" fill="#c45050" rx="1"/>
  <rect x="648.0" y="137.7" width="44.3" height="34.3" fill="#f87171" rx="1"/>
  <rect x="694.0" y="158.0" width="44.3" height="112.0" fill="#f59e0b" rx="1"/>
  <rect x="694.0" y="130.4" width="44.3" height="27.6" fill="#c47d08" rx="1"/>
  <rect x="694.0" y="104.1" width="44.3" height="26.3" fill="#f59e0b" rx="1"/>
  <rect x="740.0" y="166.0" width="44.3" height="104.0" fill="#f472b6" rx="1"/>
  <rect x="740.0" y="135.0" width="44.3" height="31.0" fill="#c05a92" rx="1"/>
  <rect x="740.0" y="96.1" width="44.3" height="38.9" fill="#f472b6" rx="1"/>
  <text x="703.3" y="288" text-anchor="middle" fill="#e6edf3" font-size="11" font-weight="600">Level 3</text>
  <text x="450.0" y="339" text-anchor="middle" fill="#e6edf3" font-size="12" font-weight="600">Medium compressibility</text>
  <line x1="70" y1="496.5" x2="830" y2="496.5" stroke="#21262d" stroke-width="1"/>
  <text x="62" y="496.5" text-anchor="end" dominant-baseline="middle" fill="#7d8590" font-size="10">5.0</text>
  <line x1="70" y1="448.0" x2="830" y2="448.0" stroke="#21262d" stroke-width="1"/>
  <text x="62" y="448.0" text-anchor="end" dominant-baseline="middle" fill="#7d8590" font-size="10">10.0</text>
  <line x1="70" y1="399.6" x2="830" y2="399.6" stroke="#21262d" stroke-width="1"/>
  <text x="62" y="399.6" text-anchor="end" dominant-baseline="middle" fill="#7d8590" font-size="10">15.0</text>
  <line x1="70" y1="351.1" x2="830" y2="351.1" stroke="#21262d" stroke-width="1"/>
  <text x="62" y="351.1" text-anchor="end" dominant-baseline="middle" fill="#7d8590" font-size="10">20.0</text>
  <line x1="70" y1="545" x2="830" y2="545" stroke="#30363d" stroke-width="1.5"/>
  <rect x="95.3" y="512.4" width="44.3" height="32.6" fill="#60a5fa" rx="1"/>
  <rect x="95.3" y="469.6" width="44.3" height="42.8" fill="#4680c4" rx="1"/>
  <rect x="95.3" y="461.2" width="44.3" height="8.4" fill="#60a5fa" rx="1"/>
  <rect x="141.3" y="496.2" width="44.3" height="48.8" fill="#f87171" rx="1"/>
  <rect x="141.3" y="455.1" width="44.3" height="41.1" fill="#c45050" rx="1"/>
  <rect x="141.3" y="432.7" width="44.3" height="22.4" fill="#f87171" rx="1"/>
  <rect x="187.3" y="491.4" width="44.3" height="53.6" fill="#f59e0b" rx="1"/>
  <rect x="187.3" y="448.5" width="44.3" height="42.9" fill="#c47d08" rx="1"/>
  <rect x="187.3" y="431.8" width="44.3" height="16.7" fill="#f59e0b" rx="1"/>
  <rect x="233.3" y="465.4" width="44.3" height="79.6" fill="#f472b6" rx="1"/>
  <rect x="233.3" y="424.3" width="44.3" height="41.1" fill="#c05a92" rx="1"/>
  <rect x="233.3" y="397.7" width="44.3" height="26.6" fill="#f472b6" rx="1"/>
  <text x="196.7" y="563" text-anchor="middle" fill="#e6edf3" font-size="11" font-weight="600">Level −1</text>
  <rect x="348.7" y="509.9" width="44.3" height="35.1" fill="#60a5fa" rx="1"/>
  <rect x="348.7" y="474.3" width="44.3" height="35.6" fill="#4680c4" rx="1"/>
  <rect x="348.7" y="464.4" width="44.3" height="9.9" fill="#60a5fa" rx="1"/>
  <rect x="394.7" y="493.3" width="44.3" height="51.7" fill="#f87171" rx="1"/>
  <rect x="394.7" y="455.1" width="44.3" height="38.2" fill="#c45050" rx="1"/>
  <rect x="394.7" y="429.6" width="44.3" height="25.5" fill="#f87171" rx="1"/>
  <rect x="440.7" y="484.9" width="44.3" height="60.1" fill="#f59e0b" rx="1"/>
  <rect x="440.7" y="449.2" width="44.3" height="35.8" fill="#c47d08" rx="1"/>
  <rect x="440.7" y="430.6" width="44.3" height="18.6" fill="#f59e0b" rx="1"/>
  <rect x="486.7" y="456.5" width="44.3" height="88.5" fill="#f472b6" rx="1"/>
  <rect x="486.7" y="418.3" width="44.3" height="38.2" fill="#c05a92" rx="1"/>
  <rect x="486.7" y="387.5" width="44.3" height="30.8" fill="#f472b6" rx="1"/>
  <text x="450.0" y="563" text-anchor="middle" fill="#e6edf3" font-size="11" font-weight="600">Level 1</text>
  <rect x="602.0" y="488.2" width="44.3" height="56.8" fill="#60a5fa" rx="1"/>
  <rect x="602.0" y="456.0" width="44.3" height="32.2" fill="#4680c4" rx="1"/>
  <rect x="602.0" y="444.7" width="44.3" height="11.3" fill="#60a5fa" rx="1"/>
  <rect x="648.0" y="471.8" width="44.3" height="73.2" fill="#f87171" rx="1"/>
  <rect x="648.0" y="436.1" width="44.3" height="35.7" fill="#c45050" rx="1"/>
  <rect x="648.0" y="413.4" width="44.3" height="22.7" fill="#f87171" rx="1"/>
  <rect x="694.0" y="432.3" width="44.3" height="112.7" fill="#f59e0b" rx="1"/>
  <rect x="694.0" y="399.9" width="44.3" height="32.5" fill="#c47d08" rx="1"/>
  <rect x="694.0" y="378.7" width="44.3" height="21.1" fill="#f59e0b" rx="1"/>
  <rect x="740.0" y="434.8" width="44.3" height="110.2" fill="#f472b6" rx="1"/>
  <rect x="740.0" y="399.1" width="44.3" height="35.7" fill="#c05a92" rx="1"/>
  <rect x="740.0" y="371.1" width="44.3" height="28.1" fill="#f472b6" rx="1"/>
  <text x="703.3" y="563" text-anchor="middle" fill="#e6edf3" font-size="11" font-weight="600">Level 3</text>
  <text x="450.0" y="614" text-anchor="middle" fill="#e6edf3" font-size="12" font-weight="600">Low compressibility</text>
  <line x1="70" y1="759.3" x2="830" y2="759.3" stroke="#21262d" stroke-width="1"/>
  <text x="62" y="759.3" text-anchor="end" dominant-baseline="middle" fill="#7d8590" font-size="10">10.0</text>
  <line x1="70" y1="698.6" x2="830" y2="698.6" stroke="#21262d" stroke-width="1"/>
  <text x="62" y="698.6" text-anchor="end" dominant-baseline="middle" fill="#7d8590" font-size="10">20.0</text>
  <line x1="70" y1="637.9" x2="830" y2="637.9" stroke="#21262d" stroke-width="1"/>
  <text x="62" y="637.9" text-anchor="end" dominant-baseline="middle" fill="#7d8590" font-size="10">30.0</text>
  <line x1="70" y1="820" x2="830" y2="820" stroke="#30363d" stroke-width="1.5"/>
  <rect x="95.3" y="809.6" width="44.3" height="10.4" fill="#60a5fa" rx="1"/>
  <rect x="95.3" y="751.6" width="44.3" height="58.0" fill="#4680c4" rx="1"/>
  <rect x="95.3" y="750.1" width="44.3" height="1.5" fill="#60a5fa" rx="1"/>
  <rect x="141.3" y="806.3" width="44.3" height="13.7" fill="#f87171" rx="1"/>
  <rect x="141.3" y="748.5" width="44.3" height="57.8" fill="#c45050" rx="1"/>
  <rect x="141.3" y="745.2" width="44.3" height="3.3" fill="#f87171" rx="1"/>
  <rect x="187.3" y="805.5" width="44.3" height="14.5" fill="#f59e0b" rx="1"/>
  <rect x="187.3" y="747.6" width="44.3" height="57.9" fill="#c47d08" rx="1"/>
  <rect x="187.3" y="745.0" width="44.3" height="2.6" fill="#f59e0b" rx="1"/>
  <rect x="233.3" y="799.4" width="44.3" height="20.6" fill="#f472b6" rx="1"/>
  <rect x="233.3" y="741.6" width="44.3" height="57.8" fill="#c05a92" rx="1"/>
  <rect x="233.3" y="738.0" width="44.3" height="3.6" fill="#f472b6" rx="1"/>
  <text x="196.7" y="838" text-anchor="middle" fill="#e6edf3" font-size="11" font-weight="600">Level −1</text>
  <rect x="348.7" y="803.3" width="44.3" height="16.7" fill="#60a5fa" rx="1"/>
  <rect x="348.7" y="753.0" width="44.3" height="50.3" fill="#4680c4" rx="1"/>
  <rect x="348.7" y="747.0" width="44.3" height="6.1" fill="#60a5fa" rx="1"/>
  <rect x="394.7" y="794.1" width="44.3" height="25.9" fill="#f87171" rx="1"/>
  <rect x="394.7" y="740.5" width="44.3" height="53.5" fill="#c45050" rx="1"/>
  <rect x="394.7" y="732.3" width="44.3" height="8.2" fill="#f87171" rx="1"/>
  <rect x="440.7" y="785.3" width="44.3" height="34.7" fill="#f59e0b" rx="1"/>
  <rect x="440.7" y="735.0" width="44.3" height="50.3" fill="#c47d08" rx="1"/>
  <rect x="440.7" y="726.7" width="44.3" height="8.3" fill="#f59e0b" rx="1"/>
  <rect x="486.7" y="775.8" width="44.3" height="44.2" fill="#f472b6" rx="1"/>
  <rect x="486.7" y="722.2" width="44.3" height="53.5" fill="#c05a92" rx="1"/>
  <rect x="486.7" y="712.9" width="44.3" height="9.3" fill="#f472b6" rx="1"/>
  <text x="450.0" y="838" text-anchor="middle" fill="#e6edf3" font-size="11" font-weight="600">Level 1</text>
  <rect x="602.0" y="760.5" width="44.3" height="59.5" fill="#60a5fa" rx="1"/>
  <rect x="602.0" y="715.7" width="44.3" height="44.8" fill="#4680c4" rx="1"/>
  <rect x="602.0" y="706.7" width="44.3" height="9.0" fill="#60a5fa" rx="1"/>
  <rect x="648.0" y="763.7" width="44.3" height="56.3" fill="#f87171" rx="1"/>
  <rect x="648.0" y="715.5" width="44.3" height="48.1" fill="#c45050" rx="1"/>
  <rect x="648.0" y="703.7" width="44.3" height="11.8" fill="#f87171" rx="1"/>
  <rect x="694.0" y="704.1" width="44.3" height="115.9" fill="#f59e0b" rx="1"/>
  <rect x="694.0" y="658.5" width="44.3" height="45.6" fill="#c47d08" rx="1"/>
  <rect x="694.0" y="646.1" width="44.3" height="12.4" fill="#f59e0b" rx="1"/>
  <rect x="740.0" y="733.0" width="44.3" height="87.0" fill="#f472b6" rx="1"/>
  <rect x="740.0" y="684.9" width="44.3" height="48.1" fill="#c05a92" rx="1"/>
  <rect x="740.0" y="670.5" width="44.3" height="14.4" fill="#f472b6" rx="1"/>
  <text x="703.3" y="838" text-anchor="middle" fill="#e6edf3" font-size="11" font-weight="600">Level 3</text>
  <rect x="230" y="850" width="12" height="12" fill="#60a5fa" rx="2"/>
  <text x="248" y="860" fill="#e6edf3" font-size="10" font-weight="500">libzstd v1.5.7 (C)</text>
  <rect x="230" y="868" width="12" height="12" fill="#f87171" rx="2"/>
  <text x="248" y="878" fill="#e6edf3" font-size="10" font-weight="500">zrip (safe SIMD + encapsulated unsafe)</text>
  <rect x="480" y="850" width="12" height="12" fill="#f59e0b" rx="2"/>
  <text x="498" y="860" fill="#e6edf3" font-size="10" font-weight="500">structured-zstd v0.0.48 (unsafe)</text>
  <rect x="480" y="868" width="12" height="12" fill="#f472b6" rx="2"/>
  <text x="498" y="878" fill="#e6edf3" font-size="10" font-weight="500">zrip paranoid (safe SIMD, no unsafe)</text>
  <text x="240" y="903" fill="#e6edf3" font-size="9">bright = compress + decompress</text>
  <text x="480" y="903" fill="#7d8590" font-size="9">dim = transfer @100 MB/s</text>
</svg>
