<svg xmlns="http://www.w3.org/2000/svg" viewBox="0 0 850 950" font-family="system-ui, -apple-system, sans-serif">
  <rect width="850" height="950" fill="#0d1117"/>
  <text x="450.0" y="22" text-anchor="middle" fill="#e6edf3" font-size="14" font-weight="700">zstd Pipeline @100 MB/s: Aggregate across corpus (lower is better)</text>
  <text x="450.0" y="38" text-anchor="middle" fill="#7d8590" font-size="10">Intel Core i7-8700B @ 3.20GHz, performance governor, turbo off</text>
  <text x="22" y="445.0" text-anchor="middle" fill="#e6edf3" font-size="11" font-weight="600" transform="rotate(-90,22,445.0)">seconds / GB</text>
  <text x="450.0" y="64" text-anchor="middle" fill="#e6edf3" font-size="12" font-weight="600">High compressibility</text>
  <line x1="70" y1="228.7" x2="830" y2="228.7" stroke="#21262d" stroke-width="1"/>
  <text x="62" y="228.7" text-anchor="end" dominant-baseline="middle" fill="#7d8590" font-size="10">2.0</text>
  <line x1="70" y1="187.5" x2="830" y2="187.5" stroke="#21262d" stroke-width="1"/>
  <text x="62" y="187.5" text-anchor="end" dominant-baseline="middle" fill="#7d8590" font-size="10">4.0</text>
  <line x1="70" y1="146.2" x2="830" y2="146.2" stroke="#21262d" stroke-width="1"/>
  <text x="62" y="146.2" text-anchor="end" dominant-baseline="middle" fill="#7d8590" font-size="10">6.0</text>
  <line x1="70" y1="105.0" x2="830" y2="105.0" stroke="#21262d" stroke-width="1"/>
  <text x="62" y="105.0" text-anchor="end" dominant-baseline="middle" fill="#7d8590" font-size="10">8.0</text>
  <line x1="70" y1="270" x2="830" y2="270" stroke="#30363d" stroke-width="1.5"/>
  <rect x="95.3" y="231.5" width="44.3" height="38.5" fill="#60a5fa" rx="1"/>
  <rect x="95.3" y="197.2" width="44.3" height="34.3" fill="#4680c4" rx="1"/>
  <rect x="95.3" y="184.6" width="44.3" height="12.6" fill="#60a5fa" rx="1"/>
  <rect x="141.3" y="215.9" width="44.3" height="54.1" fill="#f87171" rx="1"/>
  <rect x="141.3" y="181.8" width="44.3" height="34.0" fill="#c45050" rx="1"/>
  <rect x="141.3" y="146.1" width="44.3" height="35.7" fill="#f87171" rx="1"/>
  <rect x="187.3" y="197.8" width="44.3" height="72.2" fill="#f59e0b" rx="1"/>
  <rect x="187.3" y="168.3" width="44.3" height="29.5" fill="#c47d08" rx="1"/>
  <rect x="187.3" y="142.9" width="44.3" height="25.5" fill="#f59e0b" rx="1"/>
  <rect x="233.3" y="181.4" width="44.3" height="88.6" fill="#f472b6" rx="1"/>
  <rect x="233.3" y="147.4" width="44.3" height="34.0" fill="#c05a92" rx="1"/>
  <rect x="233.3" y="109.1" width="44.3" height="38.3" fill="#f472b6" rx="1"/>
  <text x="196.7" y="288" text-anchor="middle" fill="#e6edf3" font-size="11" font-weight="600">Level −1</text>
  <rect x="348.7" y="228.7" width="44.3" height="41.3" fill="#60a5fa" rx="1"/>
  <rect x="348.7" y="199.9" width="44.3" height="28.8" fill="#4680c4" rx="1"/>
  <rect x="348.7" y="186.4" width="44.3" height="13.4" fill="#60a5fa" rx="1"/>
  <rect x="394.7" y="213.5" width="44.3" height="56.5" fill="#f87171" rx="1"/>
  <rect x="394.7" y="180.4" width="44.3" height="33.1" fill="#c45050" rx="1"/>
  <rect x="394.7" y="142.0" width="44.3" height="38.5" fill="#f87171" rx="1"/>
  <rect x="440.7" y="196.3" width="44.3" height="73.7" fill="#f59e0b" rx="1"/>
  <rect x="440.7" y="167.5" width="44.3" height="28.9" fill="#c47d08" rx="1"/>
  <rect x="440.7" y="142.0" width="44.3" height="25.5" fill="#f59e0b" rx="1"/>
  <rect x="486.7" y="176.9" width="44.3" height="93.1" fill="#f472b6" rx="1"/>
  <rect x="486.7" y="143.8" width="44.3" height="33.1" fill="#c05a92" rx="1"/>
  <rect x="486.7" y="102.9" width="44.3" height="40.9" fill="#f472b6" rx="1"/>
  <text x="450.0" y="288" text-anchor="middle" fill="#e6edf3" font-size="11" font-weight="600">Level 1</text>
  <rect x="602.0" y="215.0" width="44.3" height="55.0" fill="#60a5fa" rx="1"/>
  <rect x="602.0" y="188.0" width="44.3" height="27.0" fill="#4680c4" rx="1"/>
  <rect x="602.0" y="173.9" width="44.3" height="14.1" fill="#60a5fa" rx="1"/>
  <rect x="648.0" y="202.3" width="44.3" height="67.7" fill="#f87171" rx="1"/>
  <rect x="648.0" y="172.0" width="44.3" height="30.3" fill="#c45050" rx="1"/>
  <rect x="648.0" y="135.7" width="44.3" height="36.3" fill="#f87171" rx="1"/>
  <rect x="694.0" y="160.6" width="44.3" height="109.4" fill="#f59e0b" rx="1"/>
  <rect x="694.0" y="133.5" width="44.3" height="27.0" fill="#c47d08" rx="1"/>
  <rect x="694.0" y="106.9" width="44.3" height="26.7" fill="#f59e0b" rx="1"/>
  <rect x="740.0" y="164.2" width="44.3" height="105.8" fill="#f472b6" rx="1"/>
  <rect x="740.0" y="133.9" width="44.3" height="30.3" fill="#c05a92" rx="1"/>
  <rect x="740.0" y="96.1" width="44.3" height="37.8" fill="#f472b6" rx="1"/>
  <text x="703.3" y="288" text-anchor="middle" fill="#e6edf3" font-size="11" font-weight="600">Level 3</text>
  <text x="450.0" y="339" text-anchor="middle" fill="#e6edf3" font-size="12" font-weight="600">Medium compressibility</text>
  <line x1="70" y1="497.0" x2="830" y2="497.0" stroke="#21262d" stroke-width="1"/>
  <text x="62" y="497.0" text-anchor="end" dominant-baseline="middle" fill="#7d8590" font-size="10">5.0</text>
  <line x1="70" y1="448.9" x2="830" y2="448.9" stroke="#21262d" stroke-width="1"/>
  <text x="62" y="448.9" text-anchor="end" dominant-baseline="middle" fill="#7d8590" font-size="10">10.0</text>
  <line x1="70" y1="400.9" x2="830" y2="400.9" stroke="#21262d" stroke-width="1"/>
  <text x="62" y="400.9" text-anchor="end" dominant-baseline="middle" fill="#7d8590" font-size="10">15.0</text>
  <line x1="70" y1="352.9" x2="830" y2="352.9" stroke="#21262d" stroke-width="1"/>
  <text x="62" y="352.9" text-anchor="end" dominant-baseline="middle" fill="#7d8590" font-size="10">20.0</text>
  <line x1="70" y1="545" x2="830" y2="545" stroke="#30363d" stroke-width="1.5"/>
  <rect x="95.3" y="511.0" width="44.3" height="34.0" fill="#60a5fa" rx="1"/>
  <rect x="95.3" y="468.6" width="44.3" height="42.4" fill="#4680c4" rx="1"/>
  <rect x="95.3" y="460.1" width="44.3" height="8.5" fill="#60a5fa" rx="1"/>
  <rect x="141.3" y="496.9" width="44.3" height="48.1" fill="#f87171" rx="1"/>
  <rect x="141.3" y="456.2" width="44.3" height="40.7" fill="#c45050" rx="1"/>
  <rect x="141.3" y="433.3" width="44.3" height="22.9" fill="#f87171" rx="1"/>
  <rect x="187.3" y="485.7" width="44.3" height="59.3" fill="#f59e0b" rx="1"/>
  <rect x="187.3" y="449.0" width="44.3" height="36.7" fill="#c47d08" rx="1"/>
  <rect x="187.3" y="430.1" width="44.3" height="18.9" fill="#f59e0b" rx="1"/>
  <rect x="233.3" y="465.6" width="44.3" height="79.4" fill="#f472b6" rx="1"/>
  <rect x="233.3" y="424.8" width="44.3" height="40.7" fill="#c05a92" rx="1"/>
  <rect x="233.3" y="399.2" width="44.3" height="25.6" fill="#f472b6" rx="1"/>
  <text x="196.7" y="563" text-anchor="middle" fill="#e6edf3" font-size="11" font-weight="600">Level −1</text>
  <rect x="348.7" y="508.3" width="44.3" height="36.7" fill="#60a5fa" rx="1"/>
  <rect x="348.7" y="473.0" width="44.3" height="35.3" fill="#4680c4" rx="1"/>
  <rect x="348.7" y="463.0" width="44.3" height="9.9" fill="#60a5fa" rx="1"/>
  <rect x="394.7" y="492.6" width="44.3" height="52.4" fill="#f87171" rx="1"/>
  <rect x="394.7" y="454.7" width="44.3" height="37.9" fill="#c45050" rx="1"/>
  <rect x="394.7" y="428.3" width="44.3" height="26.4" fill="#f87171" rx="1"/>
  <rect x="440.7" y="484.4" width="44.3" height="60.6" fill="#f59e0b" rx="1"/>
  <rect x="440.7" y="449.0" width="44.3" height="35.4" fill="#c47d08" rx="1"/>
  <rect x="440.7" y="429.9" width="44.3" height="19.0" fill="#f59e0b" rx="1"/>
  <rect x="486.7" y="456.6" width="44.3" height="88.4" fill="#f472b6" rx="1"/>
  <rect x="486.7" y="418.7" width="44.3" height="37.9" fill="#c05a92" rx="1"/>
  <rect x="486.7" y="389.4" width="44.3" height="29.3" fill="#f472b6" rx="1"/>
  <text x="450.0" y="563" text-anchor="middle" fill="#e6edf3" font-size="11" font-weight="600">Level 1</text>
  <rect x="602.0" y="483.0" width="44.3" height="62.0" fill="#60a5fa" rx="1"/>
  <rect x="602.0" y="451.1" width="44.3" height="31.9" fill="#4680c4" rx="1"/>
  <rect x="602.0" y="439.5" width="44.3" height="11.6" fill="#60a5fa" rx="1"/>
  <rect x="648.0" y="471.4" width="44.3" height="73.6" fill="#f87171" rx="1"/>
  <rect x="648.0" y="436.0" width="44.3" height="35.4" fill="#c45050" rx="1"/>
  <rect x="648.0" y="411.5" width="44.3" height="24.5" fill="#f87171" rx="1"/>
  <rect x="694.0" y="432.2" width="44.3" height="112.8" fill="#f59e0b" rx="1"/>
  <rect x="694.0" y="400.0" width="44.3" height="32.2" fill="#c47d08" rx="1"/>
  <rect x="694.0" y="378.4" width="44.3" height="21.6" fill="#f59e0b" rx="1"/>
  <rect x="740.0" y="433.5" width="44.3" height="111.5" fill="#f472b6" rx="1"/>
  <rect x="740.0" y="398.1" width="44.3" height="35.4" fill="#c05a92" rx="1"/>
  <rect x="740.0" y="371.1" width="44.3" height="27.0" fill="#f472b6" rx="1"/>
  <text x="703.3" y="563" text-anchor="middle" fill="#e6edf3" font-size="11" font-weight="600">Level 3</text>
  <text x="450.0" y="614" text-anchor="middle" fill="#e6edf3" font-size="12" font-weight="600">Low compressibility</text>
  <line x1="70" y1="758.5" x2="830" y2="758.5" stroke="#21262d" stroke-width="1"/>
  <text x="62" y="758.5" text-anchor="end" dominant-baseline="middle" fill="#7d8590" font-size="10">10.0</text>
  <line x1="70" y1="697.1" x2="830" y2="697.1" stroke="#21262d" stroke-width="1"/>
  <text x="62" y="697.1" text-anchor="end" dominant-baseline="middle" fill="#7d8590" font-size="10">20.0</text>
  <line x1="70" y1="635.6" x2="830" y2="635.6" stroke="#21262d" stroke-width="1"/>
  <text x="62" y="635.6" text-anchor="end" dominant-baseline="middle" fill="#7d8590" font-size="10">30.0</text>
  <line x1="70" y1="820" x2="830" y2="820" stroke="#30363d" stroke-width="1.5"/>
  <rect x="95.3" y="809.4" width="44.3" height="10.6" fill="#60a5fa" rx="1"/>
  <rect x="95.3" y="750.8" width="44.3" height="58.7" fill="#4680c4" rx="1"/>
  <rect x="95.3" y="749.2" width="44.3" height="1.6" fill="#60a5fa" rx="1"/>
  <rect x="141.3" y="806.2" width="44.3" height="13.8" fill="#f87171" rx="1"/>
  <rect x="141.3" y="747.7" width="44.3" height="58.5" fill="#c45050" rx="1"/>
  <rect x="141.3" y="744.2" width="44.3" height="3.5" fill="#f87171" rx="1"/>
  <rect x="187.3" y="788.0" width="44.3" height="32.0" fill="#f59e0b" rx="1"/>
  <rect x="187.3" y="736.5" width="44.3" height="51.5" fill="#c47d08" rx="1"/>
  <rect x="187.3" y="728.3" width="44.3" height="8.2" fill="#f59e0b" rx="1"/>
  <rect x="233.3" y="799.3" width="44.3" height="20.7" fill="#f472b6" rx="1"/>
  <rect x="233.3" y="740.7" width="44.3" height="58.5" fill="#c05a92" rx="1"/>
  <rect x="233.3" y="736.9" width="44.3" height="3.9" fill="#f472b6" rx="1"/>
  <text x="196.7" y="838" text-anchor="middle" fill="#e6edf3" font-size="11" font-weight="600">Level −1</text>
  <rect x="348.7" y="802.9" width="44.3" height="17.1" fill="#60a5fa" rx="1"/>
  <rect x="348.7" y="752.0" width="44.3" height="50.9" fill="#4680c4" rx="1"/>
  <rect x="348.7" y="745.9" width="44.3" height="6.1" fill="#60a5fa" rx="1"/>
  <rect x="394.7" y="791.3" width="44.3" height="28.7" fill="#f87171" rx="1"/>
  <rect x="394.7" y="737.1" width="44.3" height="54.2" fill="#c45050" rx="1"/>
  <rect x="394.7" y="728.4" width="44.3" height="8.8" fill="#f87171" rx="1"/>
  <rect x="440.7" y="786.3" width="44.3" height="33.7" fill="#f59e0b" rx="1"/>
  <rect x="440.7" y="735.4" width="44.3" height="50.9" fill="#c47d08" rx="1"/>
  <rect x="440.7" y="726.9" width="44.3" height="8.5" fill="#f59e0b" rx="1"/>
  <rect x="486.7" y="774.9" width="44.3" height="45.1" fill="#f472b6" rx="1"/>
  <rect x="486.7" y="720.7" width="44.3" height="54.2" fill="#c05a92" rx="1"/>
  <rect x="486.7" y="711.5" width="44.3" height="9.3" fill="#f472b6" rx="1"/>
  <text x="450.0" y="838" text-anchor="middle" fill="#e6edf3" font-size="11" font-weight="600">Level 1</text>
  <rect x="602.0" y="756.9" width="44.3" height="63.1" fill="#60a5fa" rx="1"/>
  <rect x="602.0" y="711.5" width="44.3" height="45.4" fill="#4680c4" rx="1"/>
  <rect x="602.0" y="702.4" width="44.3" height="9.1" fill="#60a5fa" rx="1"/>
  <rect x="648.0" y="760.4" width="44.3" height="59.6" fill="#f87171" rx="1"/>
  <rect x="648.0" y="711.6" width="44.3" height="48.7" fill="#c45050" rx="1"/>
  <rect x="648.0" y="698.5" width="44.3" height="13.1" fill="#f87171" rx="1"/>
  <rect x="694.0" y="705.1" width="44.3" height="114.9" fill="#f59e0b" rx="1"/>
  <rect x="694.0" y="659.0" width="44.3" height="46.1" fill="#c47d08" rx="1"/>
  <rect x="694.0" y="646.1" width="44.3" height="12.9" fill="#f59e0b" rx="1"/>
  <rect x="740.0" y="728.4" width="44.3" height="91.6" fill="#f472b6" rx="1"/>
  <rect x="740.0" y="679.6" width="44.3" height="48.7" fill="#c05a92" rx="1"/>
  <rect x="740.0" y="665.7" width="44.3" height="14.0" fill="#f472b6" rx="1"/>
  <text x="703.3" y="838" text-anchor="middle" fill="#e6edf3" font-size="11" font-weight="600">Level 3</text>
  <rect x="230" y="850" width="12" height="12" fill="#60a5fa" rx="2"/>
  <text x="248" y="860" fill="#e6edf3" font-size="10" font-weight="500">libzstd v1.5.7 (C)</text>
  <rect x="230" y="868" width="12" height="12" fill="#f87171" rx="2"/>
  <text x="248" y="878" fill="#e6edf3" font-size="10" font-weight="500">zrip (safe SIMD + encapsulated unsafe)</text>
  <rect x="480" y="850" width="12" height="12" fill="#f59e0b" rx="2"/>
  <text x="498" y="860" fill="#e6edf3" font-size="10" font-weight="500">structured-zstd v0.0.45 (unsafe)</text>
  <rect x="480" y="868" width="12" height="12" fill="#f472b6" rx="2"/>
  <text x="498" y="878" fill="#e6edf3" font-size="10" font-weight="500">zrip paranoid (safe SIMD, no unsafe)</text>
  <text x="240" y="903" fill="#e6edf3" font-size="9">bright = compress + decompress</text>
  <text x="480" y="903" fill="#7d8590" font-size="9">dim = transfer @100 MB/s</text>
</svg>
