<svg xmlns="http://www.w3.org/2000/svg" viewBox="0 0 850 950" font-family="system-ui, -apple-system, sans-serif">
  <rect width="850" height="950" fill="#0d1117"/>
  <text x="450.0" y="22" text-anchor="middle" fill="#e6edf3" font-size="14" font-weight="700">zstd Pipeline @100 MB/s: Aggregate across corpus (lower is better)</text>
  <text x="450.0" y="38" text-anchor="middle" fill="#7d8590" font-size="10">Intel Core i7-8700B @ 3.20GHz, performance governor, turbo off</text>
  <text x="22" y="445.0" text-anchor="middle" fill="#e6edf3" font-size="11" font-weight="600" transform="rotate(-90,22,445.0)">seconds / GB</text>
  <text x="450.0" y="64" text-anchor="middle" fill="#e6edf3" font-size="12" font-weight="600">High compressibility</text>
  <line x1="70" y1="227.8" x2="830" y2="227.8" stroke="#21262d" stroke-width="1"/>
  <text x="62" y="227.8" text-anchor="end" dominant-baseline="middle" fill="#7d8590" font-size="10">2.0</text>
  <line x1="70" y1="185.7" x2="830" y2="185.7" stroke="#21262d" stroke-width="1"/>
  <text x="62" y="185.7" text-anchor="end" dominant-baseline="middle" fill="#7d8590" font-size="10">4.0</text>
  <line x1="70" y1="143.5" x2="830" y2="143.5" stroke="#21262d" stroke-width="1"/>
  <text x="62" y="143.5" text-anchor="end" dominant-baseline="middle" fill="#7d8590" font-size="10">6.0</text>
  <line x1="70" y1="101.3" x2="830" y2="101.3" stroke="#21262d" stroke-width="1"/>
  <text x="62" y="101.3" text-anchor="end" dominant-baseline="middle" fill="#7d8590" font-size="10">8.0</text>
  <line x1="70" y1="270" x2="830" y2="270" stroke="#30363d" stroke-width="1.5"/>
  <rect x="95.3" y="231.0" width="50.0" height="39.0" fill="#60a5fa" rx="1"/>
  <rect x="95.3" y="195.9" width="50.0" height="35.1" fill="#4680c4" rx="1"/>
  <rect x="95.3" y="182.8" width="50.0" height="13.1" fill="#60a5fa" rx="1"/>
  <rect x="147.8" y="216.9" width="50.0" height="53.1" fill="#f87171" rx="1"/>
  <rect x="147.8" y="179.8" width="50.0" height="37.0" fill="#c45050" rx="1"/>
  <rect x="147.8" y="151.1" width="50.0" height="28.7" fill="#f87171" rx="1"/>
  <rect x="200.3" y="196.1" width="50.0" height="73.9" fill="#f59e0b" rx="1"/>
  <rect x="200.3" y="166.0" width="50.0" height="30.1" fill="#c47d08" rx="1"/>
  <rect x="200.3" y="137.7" width="50.0" height="28.3" fill="#f59e0b" rx="1"/>
  <text x="196.7" y="288" text-anchor="middle" fill="#e6edf3" font-size="11" font-weight="600">Level −1</text>
  <rect x="348.7" y="227.9" width="50.0" height="42.1" fill="#60a5fa" rx="1"/>
  <rect x="348.7" y="198.5" width="50.0" height="29.5" fill="#4680c4" rx="1"/>
  <rect x="348.7" y="184.5" width="50.0" height="13.9" fill="#60a5fa" rx="1"/>
  <rect x="401.2" y="212.7" width="50.0" height="57.3" fill="#f87171" rx="1"/>
  <rect x="401.2" y="178.9" width="50.0" height="33.8" fill="#c45050" rx="1"/>
  <rect x="401.2" y="146.3" width="50.0" height="32.6" fill="#f87171" rx="1"/>
  <rect x="453.7" y="194.8" width="50.0" height="75.2" fill="#f59e0b" rx="1"/>
  <rect x="453.7" y="165.3" width="50.0" height="29.5" fill="#c47d08" rx="1"/>
  <rect x="453.7" y="136.9" width="50.0" height="28.4" fill="#f59e0b" rx="1"/>
  <text x="450.0" y="288" text-anchor="middle" fill="#e6edf3" font-size="11" font-weight="600">Level 1</text>
  <rect x="602.0" y="213.7" width="50.0" height="56.3" fill="#60a5fa" rx="1"/>
  <rect x="602.0" y="186.1" width="50.0" height="27.6" fill="#4680c4" rx="1"/>
  <rect x="602.0" y="171.5" width="50.0" height="14.6" fill="#60a5fa" rx="1"/>
  <rect x="654.5" y="200.9" width="50.0" height="69.1" fill="#f87171" rx="1"/>
  <rect x="654.5" y="169.9" width="50.0" height="31.0" fill="#c45050" rx="1"/>
  <rect x="654.5" y="140.7" width="50.0" height="29.2" fill="#f87171" rx="1"/>
  <rect x="707.0" y="153.3" width="50.0" height="116.7" fill="#f59e0b" rx="1"/>
  <rect x="707.0" y="124.5" width="50.0" height="28.8" fill="#c47d08" rx="1"/>
  <rect x="707.0" y="96.1" width="50.0" height="28.4" fill="#f59e0b" rx="1"/>
  <text x="703.3" y="288" text-anchor="middle" fill="#e6edf3" font-size="11" font-weight="600">Level 3</text>
  <text x="450.0" y="339" text-anchor="middle" fill="#e6edf3" font-size="12" font-weight="600">Medium compressibility</text>
  <line x1="70" y1="497.0" x2="830" y2="497.0" stroke="#21262d" stroke-width="1"/>
  <text x="62" y="497.0" text-anchor="end" dominant-baseline="middle" fill="#7d8590" font-size="10">5.0</text>
  <line x1="70" y1="449.0" x2="830" y2="449.0" stroke="#21262d" stroke-width="1"/>
  <text x="62" y="449.0" text-anchor="end" dominant-baseline="middle" fill="#7d8590" font-size="10">10.0</text>
  <line x1="70" y1="401.1" x2="830" y2="401.1" stroke="#21262d" stroke-width="1"/>
  <text x="62" y="401.1" text-anchor="end" dominant-baseline="middle" fill="#7d8590" font-size="10">15.0</text>
  <line x1="70" y1="353.1" x2="830" y2="353.1" stroke="#21262d" stroke-width="1"/>
  <text x="62" y="353.1" text-anchor="end" dominant-baseline="middle" fill="#7d8590" font-size="10">20.0</text>
  <line x1="70" y1="545" x2="830" y2="545" stroke="#30363d" stroke-width="1.5"/>
  <rect x="95.3" y="511.4" width="50.0" height="33.6" fill="#60a5fa" rx="1"/>
  <rect x="95.3" y="469.0" width="50.0" height="42.3" fill="#4680c4" rx="1"/>
  <rect x="95.3" y="460.5" width="50.0" height="8.6" fill="#60a5fa" rx="1"/>
  <rect x="147.8" y="499.2" width="50.0" height="45.8" fill="#f87171" rx="1"/>
  <rect x="147.8" y="457.0" width="50.0" height="42.2" fill="#c45050" rx="1"/>
  <rect x="147.8" y="440.5" width="50.0" height="16.5" fill="#f87171" rx="1"/>
  <rect x="200.3" y="485.4" width="50.0" height="59.6" fill="#f59e0b" rx="1"/>
  <rect x="200.3" y="448.8" width="50.0" height="36.7" fill="#c47d08" rx="1"/>
  <rect x="200.3" y="429.3" width="50.0" height="19.5" fill="#f59e0b" rx="1"/>
  <text x="196.7" y="563" text-anchor="middle" fill="#e6edf3" font-size="11" font-weight="600">Level −1</text>
  <rect x="348.7" y="508.6" width="50.0" height="36.4" fill="#60a5fa" rx="1"/>
  <rect x="348.7" y="473.4" width="50.0" height="35.2" fill="#4680c4" rx="1"/>
  <rect x="348.7" y="463.4" width="50.0" height="10.0" fill="#60a5fa" rx="1"/>
  <rect x="401.2" y="492.4" width="50.0" height="52.6" fill="#f87171" rx="1"/>
  <rect x="401.2" y="454.5" width="50.0" height="37.8" fill="#c45050" rx="1"/>
  <rect x="401.2" y="433.5" width="50.0" height="21.0" fill="#f87171" rx="1"/>
  <rect x="453.7" y="484.3" width="50.0" height="60.7" fill="#f59e0b" rx="1"/>
  <rect x="453.7" y="448.9" width="50.0" height="35.4" fill="#c47d08" rx="1"/>
  <rect x="453.7" y="429.1" width="50.0" height="19.7" fill="#f59e0b" rx="1"/>
  <text x="450.0" y="563" text-anchor="middle" fill="#e6edf3" font-size="11" font-weight="600">Level 1</text>
  <rect x="602.0" y="484.1" width="50.0" height="60.9" fill="#60a5fa" rx="1"/>
  <rect x="602.0" y="452.3" width="50.0" height="31.8" fill="#4680c4" rx="1"/>
  <rect x="602.0" y="440.7" width="50.0" height="11.6" fill="#60a5fa" rx="1"/>
  <rect x="654.5" y="470.7" width="50.0" height="74.3" fill="#f87171" rx="1"/>
  <rect x="654.5" y="435.4" width="50.0" height="35.3" fill="#c45050" rx="1"/>
  <rect x="654.5" y="417.3" width="50.0" height="18.1" fill="#f87171" rx="1"/>
  <rect x="707.0" y="426.5" width="50.0" height="118.5" fill="#f59e0b" rx="1"/>
  <rect x="707.0" y="394.2" width="50.0" height="32.4" fill="#c47d08" rx="1"/>
  <rect x="707.0" y="371.1" width="50.0" height="23.1" fill="#f59e0b" rx="1"/>
  <text x="703.3" y="563" text-anchor="middle" fill="#e6edf3" font-size="11" font-weight="600">Level 3</text>
  <text x="450.0" y="614" text-anchor="middle" fill="#e6edf3" font-size="12" font-weight="600">Low compressibility</text>
  <line x1="70" y1="753.9" x2="830" y2="753.9" stroke="#21262d" stroke-width="1"/>
  <text x="62" y="753.9" text-anchor="end" dominant-baseline="middle" fill="#7d8590" font-size="10">10.0</text>
  <line x1="70" y1="687.8" x2="830" y2="687.8" stroke="#21262d" stroke-width="1"/>
  <text x="62" y="687.8" text-anchor="end" dominant-baseline="middle" fill="#7d8590" font-size="10">20.0</text>
  <line x1="70" y1="621.7" x2="830" y2="621.7" stroke="#21262d" stroke-width="1"/>
  <text x="62" y="621.7" text-anchor="end" dominant-baseline="middle" fill="#7d8590" font-size="10">30.0</text>
  <line x1="70" y1="820" x2="830" y2="820" stroke="#30363d" stroke-width="1.5"/>
  <rect x="95.3" y="808.6" width="50.0" height="11.4" fill="#60a5fa" rx="1"/>
  <rect x="95.3" y="745.4" width="50.0" height="63.1" fill="#4680c4" rx="1"/>
  <rect x="95.3" y="743.7" width="50.0" height="1.7" fill="#60a5fa" rx="1"/>
  <rect x="147.8" y="808.5" width="50.0" height="11.5" fill="#f87171" rx="1"/>
  <rect x="147.8" y="745.1" width="50.0" height="63.4" fill="#c45050" rx="1"/>
  <rect x="147.8" y="742.3" width="50.0" height="2.8" fill="#f87171" rx="1"/>
  <rect x="200.3" y="785.5" width="50.0" height="34.5" fill="#f59e0b" rx="1"/>
  <rect x="200.3" y="730.2" width="50.0" height="55.4" fill="#c47d08" rx="1"/>
  <rect x="200.3" y="721.8" width="50.0" height="8.3" fill="#f59e0b" rx="1"/>
  <text x="196.7" y="838" text-anchor="middle" fill="#e6edf3" font-size="11" font-weight="600">Level −1</text>
  <rect x="348.7" y="801.4" width="50.0" height="18.6" fill="#60a5fa" rx="1"/>
  <rect x="348.7" y="746.7" width="50.0" height="54.7" fill="#4680c4" rx="1"/>
  <rect x="348.7" y="740.0" width="50.0" height="6.7" fill="#60a5fa" rx="1"/>
  <rect x="401.2" y="789.6" width="50.0" height="30.4" fill="#f87171" rx="1"/>
  <rect x="401.2" y="731.3" width="50.0" height="58.3" fill="#c45050" rx="1"/>
  <rect x="401.2" y="724.8" width="50.0" height="6.5" fill="#f87171" rx="1"/>
  <rect x="453.7" y="783.8" width="50.0" height="36.2" fill="#f59e0b" rx="1"/>
  <rect x="453.7" y="729.1" width="50.0" height="54.7" fill="#c47d08" rx="1"/>
  <rect x="453.7" y="720.5" width="50.0" height="8.6" fill="#f59e0b" rx="1"/>
  <text x="450.0" y="838" text-anchor="middle" fill="#e6edf3" font-size="11" font-weight="600">Level 1</text>
  <rect x="602.0" y="751.8" width="50.0" height="68.2" fill="#60a5fa" rx="1"/>
  <rect x="602.0" y="703.0" width="50.0" height="48.8" fill="#4680c4" rx="1"/>
  <rect x="602.0" y="693.2" width="50.0" height="9.8" fill="#60a5fa" rx="1"/>
  <rect x="654.5" y="753.9" width="50.0" height="66.1" fill="#f87171" rx="1"/>
  <rect x="654.5" y="701.5" width="50.0" height="52.4" fill="#c45050" rx="1"/>
  <rect x="654.5" y="691.2" width="50.0" height="10.3" fill="#f87171" rx="1"/>
  <rect x="707.0" y="709.4" width="50.0" height="110.6" fill="#f59e0b" rx="1"/>
  <rect x="707.0" y="659.5" width="50.0" height="49.9" fill="#c47d08" rx="1"/>
  <rect x="707.0" y="646.1" width="50.0" height="13.4" fill="#f59e0b" rx="1"/>
  <text x="703.3" y="838" text-anchor="middle" fill="#e6edf3" font-size="11" font-weight="600">Level 3</text>
  <rect x="250" y="850" width="12" height="12" fill="#60a5fa" rx="2"/>
  <text x="268" y="860" fill="#e6edf3" font-size="10" font-weight="500">C zstd 1.5.7 (libzstd)</text>
  <rect x="250" y="868" width="12" height="12" fill="#f87171" rx="2"/>
  <text x="268" y="878" fill="#e6edf3" font-size="10" font-weight="500">zrip (encapsulated unsafe, Rust)</text>
  <rect x="460" y="850" width="12" height="12" fill="#f59e0b" rx="2"/>
  <text x="478" y="860" fill="#e6edf3" font-size="10" font-weight="500">structured-zstd 0.0.42 (unsafe Rust)</text>
  <rect x="460" y="868" width="12" height="12" fill="#c084fc" rx="2"/>
  <text x="478" y="878" fill="#e6edf3" font-size="10" font-weight="500">lz4rip 0.3.1 (encapsulated unsafe, Rust, LZ4)</text>
  <text x="240" y="903" fill="#e6edf3" font-size="9">bright = compress + decompress</text>
  <text x="480" y="903" fill="#7d8590" font-size="9">dim = transfer @100 MB/s</text>
</svg>
