<svg xmlns="http://www.w3.org/2000/svg" viewBox="0 0 850 950" font-family="system-ui, -apple-system, sans-serif">
  <rect width="850" height="950" fill="#0d1117"/>
  <text x="450.0" y="22" text-anchor="middle" fill="#e6edf3" font-size="14" font-weight="700">zstd Pipeline @100 MB/s: Aggregate across corpus (lower is better)</text>
  <text x="450.0" y="38" text-anchor="middle" fill="#7d8590" font-size="10">Intel Core i7-8700B @ 3.20GHz, performance governor, turbo off</text>
  <text x="22" y="445.0" text-anchor="middle" fill="#e6edf3" font-size="11" font-weight="600" transform="rotate(-90,22,445.0)">seconds / GB</text>
  <text x="450.0" y="64" text-anchor="middle" fill="#e6edf3" font-size="12" font-weight="600">High compressibility</text>
  <line x1="70" y1="223.8" x2="830" y2="223.8" stroke="#21262d" stroke-width="1"/>
  <text x="62" y="223.8" text-anchor="end" dominant-baseline="middle" fill="#7d8590" font-size="10">2.0</text>
  <line x1="70" y1="177.6" x2="830" y2="177.6" stroke="#21262d" stroke-width="1"/>
  <text x="62" y="177.6" text-anchor="end" dominant-baseline="middle" fill="#7d8590" font-size="10">4.0</text>
  <line x1="70" y1="131.3" x2="830" y2="131.3" stroke="#21262d" stroke-width="1"/>
  <text x="62" y="131.3" text-anchor="end" dominant-baseline="middle" fill="#7d8590" font-size="10">6.0</text>
  <line x1="70" y1="85.1" x2="830" y2="85.1" stroke="#21262d" stroke-width="1"/>
  <text x="62" y="85.1" text-anchor="end" dominant-baseline="middle" fill="#7d8590" font-size="10">8.0</text>
  <line x1="70" y1="270" x2="830" y2="270" stroke="#30363d" stroke-width="1.5"/>
  <rect x="95.3" y="227.8" width="44.3" height="42.2" fill="#60a5fa" rx="1"/>
  <rect x="95.3" y="189.3" width="44.3" height="38.4" fill="#4680c4" rx="1"/>
  <rect x="95.3" y="175.4" width="44.3" height="13.9" fill="#60a5fa" rx="1"/>
  <rect x="141.3" y="205.2" width="44.3" height="64.8" fill="#f87171" rx="1"/>
  <rect x="141.3" y="166.3" width="44.3" height="38.9" fill="#c45050" rx="1"/>
  <rect x="141.3" y="138.7" width="44.3" height="27.5" fill="#f87171" rx="1"/>
  <rect x="187.3" y="194.5" width="44.3" height="75.5" fill="#f59e0b" rx="1"/>
  <rect x="187.3" y="156.0" width="44.3" height="38.5" fill="#c47d08" rx="1"/>
  <rect x="187.3" y="134.8" width="44.3" height="21.2" fill="#f59e0b" rx="1"/>
  <rect x="233.3" y="183.8" width="44.3" height="86.2" fill="#f472b6" rx="1"/>
  <rect x="233.3" y="144.9" width="44.3" height="38.9" fill="#c05a92" rx="1"/>
  <rect x="233.3" y="111.8" width="44.3" height="33.1" fill="#f472b6" rx="1"/>
  <text x="196.7" y="288" text-anchor="middle" fill="#e6edf3" font-size="11" font-weight="600">Level −1</text>
  <rect x="348.7" y="224.9" width="44.3" height="45.1" fill="#60a5fa" rx="1"/>
  <rect x="348.7" y="192.6" width="44.3" height="32.3" fill="#4680c4" rx="1"/>
  <rect x="348.7" y="177.8" width="44.3" height="14.8" fill="#60a5fa" rx="1"/>
  <rect x="394.7" y="200.9" width="44.3" height="69.1" fill="#f87171" rx="1"/>
  <rect x="394.7" y="163.9" width="44.3" height="37.0" fill="#c45050" rx="1"/>
  <rect x="394.7" y="132.7" width="44.3" height="31.2" fill="#f87171" rx="1"/>
  <rect x="440.7" y="190.7" width="44.3" height="79.3" fill="#f59e0b" rx="1"/>
  <rect x="440.7" y="158.3" width="44.3" height="32.4" fill="#c47d08" rx="1"/>
  <rect x="440.7" y="136.3" width="44.3" height="22.1" fill="#f59e0b" rx="1"/>
  <rect x="486.7" y="176.3" width="44.3" height="93.7" fill="#f472b6" rx="1"/>
  <rect x="486.7" y="139.3" width="44.3" height="37.0" fill="#c05a92" rx="1"/>
  <rect x="486.7" y="102.0" width="44.3" height="37.3" fill="#f472b6" rx="1"/>
  <text x="450.0" y="288" text-anchor="middle" fill="#e6edf3" font-size="11" font-weight="600">Level 1</text>
  <rect x="602.0" y="211.5" width="44.3" height="58.5" fill="#60a5fa" rx="1"/>
  <rect x="602.0" y="181.3" width="44.3" height="30.3" fill="#4680c4" rx="1"/>
  <rect x="602.0" y="165.8" width="44.3" height="15.4" fill="#60a5fa" rx="1"/>
  <rect x="648.0" y="189.3" width="44.3" height="80.7" fill="#f87171" rx="1"/>
  <rect x="648.0" y="155.4" width="44.3" height="34.0" fill="#c45050" rx="1"/>
  <rect x="648.0" y="127.7" width="44.3" height="27.7" fill="#f87171" rx="1"/>
  <rect x="694.0" y="149.7" width="44.3" height="120.3" fill="#f59e0b" rx="1"/>
  <rect x="694.0" y="119.4" width="44.3" height="30.3" fill="#c47d08" rx="1"/>
  <rect x="694.0" y="96.2" width="44.3" height="23.3" fill="#f59e0b" rx="1"/>
  <rect x="740.0" y="163.5" width="44.3" height="106.5" fill="#f472b6" rx="1"/>
  <rect x="740.0" y="129.5" width="44.3" height="34.0" fill="#c05a92" rx="1"/>
  <rect x="740.0" y="96.1" width="44.3" height="33.4" fill="#f472b6" rx="1"/>
  <text x="703.3" y="288" text-anchor="middle" fill="#e6edf3" font-size="11" font-weight="600">Level 3</text>
  <text x="450.0" y="339" text-anchor="middle" fill="#e6edf3" font-size="12" font-weight="600">Medium compressibility</text>
  <line x1="70" y1="493.5" x2="830" y2="493.5" stroke="#21262d" stroke-width="1"/>
  <text x="62" y="493.5" text-anchor="end" dominant-baseline="middle" fill="#7d8590" font-size="10">5.0</text>
  <line x1="70" y1="442.0" x2="830" y2="442.0" stroke="#21262d" stroke-width="1"/>
  <text x="62" y="442.0" text-anchor="end" dominant-baseline="middle" fill="#7d8590" font-size="10">10.0</text>
  <line x1="70" y1="390.6" x2="830" y2="390.6" stroke="#21262d" stroke-width="1"/>
  <text x="62" y="390.6" text-anchor="end" dominant-baseline="middle" fill="#7d8590" font-size="10">15.0</text>
  <line x1="70" y1="545" x2="830" y2="545" stroke="#30363d" stroke-width="1.5"/>
  <rect x="95.3" y="510.3" width="44.3" height="34.7" fill="#60a5fa" rx="1"/>
  <rect x="95.3" y="464.9" width="44.3" height="45.4" fill="#4680c4" rx="1"/>
  <rect x="95.3" y="455.9" width="44.3" height="9.0" fill="#60a5fa" rx="1"/>
  <rect x="141.3" y="487.6" width="44.3" height="57.4" fill="#f87171" rx="1"/>
  <rect x="141.3" y="444.5" width="44.3" height="43.2" fill="#c45050" rx="1"/>
  <rect x="141.3" y="424.4" width="44.3" height="20.0" fill="#f87171" rx="1"/>
  <rect x="187.3" y="488.3" width="44.3" height="56.7" fill="#f59e0b" rx="1"/>
  <rect x="187.3" y="442.7" width="44.3" height="45.6" fill="#c47d08" rx="1"/>
  <rect x="187.3" y="428.7" width="44.3" height="14.0" fill="#f59e0b" rx="1"/>
  <rect x="233.3" y="470.3" width="44.3" height="74.7" fill="#f472b6" rx="1"/>
  <rect x="233.3" y="427.1" width="44.3" height="43.2" fill="#c05a92" rx="1"/>
  <rect x="233.3" y="401.8" width="44.3" height="25.3" fill="#f472b6" rx="1"/>
  <text x="196.7" y="563" text-anchor="middle" fill="#e6edf3" font-size="11" font-weight="600">Level −1</text>
  <rect x="348.7" y="507.5" width="44.3" height="37.5" fill="#60a5fa" rx="1"/>
  <rect x="348.7" y="469.7" width="44.3" height="37.8" fill="#4680c4" rx="1"/>
  <rect x="348.7" y="459.2" width="44.3" height="10.5" fill="#60a5fa" rx="1"/>
  <rect x="394.7" y="482.2" width="44.3" height="62.8" fill="#f87171" rx="1"/>
  <rect x="394.7" y="441.6" width="44.3" height="40.6" fill="#c45050" rx="1"/>
  <rect x="394.7" y="417.6" width="44.3" height="24.0" fill="#f87171" rx="1"/>
  <rect x="440.7" y="481.6" width="44.3" height="63.4" fill="#f59e0b" rx="1"/>
  <rect x="440.7" y="443.6" width="44.3" height="38.0" fill="#c47d08" rx="1"/>
  <rect x="440.7" y="427.7" width="44.3" height="15.9" fill="#f59e0b" rx="1"/>
  <rect x="486.7" y="459.4" width="44.3" height="85.6" fill="#f472b6" rx="1"/>
  <rect x="486.7" y="418.8" width="44.3" height="40.6" fill="#c05a92" rx="1"/>
  <rect x="486.7" y="388.8" width="44.3" height="30.0" fill="#f472b6" rx="1"/>
  <text x="450.0" y="563" text-anchor="middle" fill="#e6edf3" font-size="11" font-weight="600">Level 1</text>
  <rect x="602.0" y="483.3" width="44.3" height="61.7" fill="#60a5fa" rx="1"/>
  <rect x="602.0" y="449.1" width="44.3" height="34.2" fill="#4680c4" rx="1"/>
  <rect x="602.0" y="437.1" width="44.3" height="12.1" fill="#60a5fa" rx="1"/>
  <rect x="648.0" y="461.1" width="44.3" height="83.9" fill="#f87171" rx="1"/>
  <rect x="648.0" y="423.2" width="44.3" height="37.9" fill="#c45050" rx="1"/>
  <rect x="648.0" y="402.5" width="44.3" height="20.7" fill="#f87171" rx="1"/>
  <rect x="694.0" y="427.4" width="44.3" height="117.6" fill="#f59e0b" rx="1"/>
  <rect x="694.0" y="392.9" width="44.3" height="34.5" fill="#c47d08" rx="1"/>
  <rect x="694.0" y="374.4" width="44.3" height="18.4" fill="#f59e0b" rx="1"/>
  <rect x="740.0" y="436.1" width="44.3" height="108.9" fill="#f472b6" rx="1"/>
  <rect x="740.0" y="398.2" width="44.3" height="37.9" fill="#c05a92" rx="1"/>
  <rect x="740.0" y="371.1" width="44.3" height="27.1" fill="#f472b6" rx="1"/>
  <text x="703.3" y="563" text-anchor="middle" fill="#e6edf3" font-size="11" font-weight="600">Level 3</text>
  <text x="450.0" y="614" text-anchor="middle" fill="#e6edf3" font-size="12" font-weight="600">Low compressibility</text>
  <line x1="70" y1="758.6" x2="830" y2="758.6" stroke="#21262d" stroke-width="1"/>
  <text x="62" y="758.6" text-anchor="end" dominant-baseline="middle" fill="#7d8590" font-size="10">10.0</text>
  <line x1="70" y1="697.2" x2="830" y2="697.2" stroke="#21262d" stroke-width="1"/>
  <text x="62" y="697.2" text-anchor="end" dominant-baseline="middle" fill="#7d8590" font-size="10">20.0</text>
  <line x1="70" y1="635.7" x2="830" y2="635.7" stroke="#21262d" stroke-width="1"/>
  <text x="62" y="635.7" text-anchor="end" dominant-baseline="middle" fill="#7d8590" font-size="10">30.0</text>
  <line x1="70" y1="820" x2="830" y2="820" stroke="#30363d" stroke-width="1.5"/>
  <rect x="95.3" y="809.5" width="44.3" height="10.5" fill="#60a5fa" rx="1"/>
  <rect x="95.3" y="750.9" width="44.3" height="58.6" fill="#4680c4" rx="1"/>
  <rect x="95.3" y="749.4" width="44.3" height="1.5" fill="#60a5fa" rx="1"/>
  <rect x="141.3" y="804.1" width="44.3" height="15.9" fill="#f87171" rx="1"/>
  <rect x="141.3" y="746.6" width="44.3" height="57.6" fill="#c45050" rx="1"/>
  <rect x="141.3" y="742.6" width="44.3" height="4.0" fill="#f87171" rx="1"/>
  <rect x="187.3" y="805.5" width="44.3" height="14.5" fill="#f59e0b" rx="1"/>
  <rect x="187.3" y="746.8" width="44.3" height="58.6" fill="#c47d08" rx="1"/>
  <rect x="187.3" y="744.4" width="44.3" height="2.5" fill="#f59e0b" rx="1"/>
  <rect x="233.3" y="799.2" width="44.3" height="20.8" fill="#f472b6" rx="1"/>
  <rect x="233.3" y="741.7" width="44.3" height="57.6" fill="#c05a92" rx="1"/>
  <rect x="233.3" y="736.9" width="44.3" height="4.7" fill="#f472b6" rx="1"/>
  <text x="196.7" y="838" text-anchor="middle" fill="#e6edf3" font-size="11" font-weight="600">Level −1</text>
  <rect x="348.7" y="803.0" width="44.3" height="17.0" fill="#60a5fa" rx="1"/>
  <rect x="348.7" y="752.2" width="44.3" height="50.9" fill="#4680c4" rx="1"/>
  <rect x="348.7" y="746.1" width="44.3" height="6.1" fill="#60a5fa" rx="1"/>
  <rect x="394.7" y="790.3" width="44.3" height="29.7" fill="#f87171" rx="1"/>
  <rect x="394.7" y="736.1" width="44.3" height="54.2" fill="#c45050" rx="1"/>
  <rect x="394.7" y="727.9" width="44.3" height="8.2" fill="#f87171" rx="1"/>
  <rect x="440.7" y="785.2" width="44.3" height="34.8" fill="#f59e0b" rx="1"/>
  <rect x="440.7" y="734.4" width="44.3" height="50.9" fill="#c47d08" rx="1"/>
  <rect x="440.7" y="726.0" width="44.3" height="8.3" fill="#f59e0b" rx="1"/>
  <rect x="486.7" y="778.3" width="44.3" height="41.7" fill="#f472b6" rx="1"/>
  <rect x="486.7" y="724.1" width="44.3" height="54.2" fill="#c05a92" rx="1"/>
  <rect x="486.7" y="714.3" width="44.3" height="9.8" fill="#f472b6" rx="1"/>
  <text x="450.0" y="838" text-anchor="middle" fill="#e6edf3" font-size="11" font-weight="600">Level 1</text>
  <rect x="602.0" y="758.9" width="44.3" height="61.1" fill="#60a5fa" rx="1"/>
  <rect x="602.0" y="713.5" width="44.3" height="45.4" fill="#4680c4" rx="1"/>
  <rect x="602.0" y="704.5" width="44.3" height="9.0" fill="#60a5fa" rx="1"/>
  <rect x="648.0" y="756.0" width="44.3" height="64.0" fill="#f87171" rx="1"/>
  <rect x="648.0" y="707.3" width="44.3" height="48.7" fill="#c45050" rx="1"/>
  <rect x="648.0" y="695.5" width="44.3" height="11.9" fill="#f87171" rx="1"/>
  <rect x="694.0" y="704.7" width="44.3" height="115.3" fill="#f59e0b" rx="1"/>
  <rect x="694.0" y="658.6" width="44.3" height="46.1" fill="#c47d08" rx="1"/>
  <rect x="694.0" y="646.1" width="44.3" height="12.5" fill="#f59e0b" rx="1"/>
  <rect x="740.0" y="737.2" width="44.3" height="82.8" fill="#f472b6" rx="1"/>
  <rect x="740.0" y="688.5" width="44.3" height="48.7" fill="#c05a92" rx="1"/>
  <rect x="740.0" y="673.1" width="44.3" height="15.4" fill="#f472b6" rx="1"/>
  <text x="703.3" y="838" text-anchor="middle" fill="#e6edf3" font-size="11" font-weight="600">Level 3</text>
  <rect x="230" y="850" width="12" height="12" fill="#60a5fa" rx="2"/>
  <text x="248" y="860" fill="#e6edf3" font-size="10" font-weight="500">libzstd v1.5.7 (C)</text>
  <rect x="230" y="868" width="12" height="12" fill="#f87171" rx="2"/>
  <text x="248" y="878" fill="#e6edf3" font-size="10" font-weight="500">zrip (safe SIMD + encapsulated unsafe)</text>
  <rect x="480" y="850" width="12" height="12" fill="#f59e0b" rx="2"/>
  <text x="498" y="860" fill="#e6edf3" font-size="10" font-weight="500">structured-zstd v0.0.48 (unsafe)</text>
  <rect x="480" y="868" width="12" height="12" fill="#f472b6" rx="2"/>
  <text x="498" y="878" fill="#e6edf3" font-size="10" font-weight="500">zrip paranoid (safe SIMD, no unsafe)</text>
  <text x="240" y="903" fill="#e6edf3" font-size="9">bright = compress + decompress</text>
  <text x="480" y="903" fill="#7d8590" font-size="9">dim = transfer @100 MB/s</text>
</svg>
