<svg xmlns="http://www.w3.org/2000/svg" viewBox="0 0 850 950" font-family="system-ui, -apple-system, sans-serif">
  <rect width="850" height="950" fill="#0d1117"/>
  <text x="450.0" y="22" text-anchor="middle" fill="#e6edf3" font-size="14" font-weight="700">zstd Pipeline @100 MB/s: Aggregate across corpus (lower is better)</text>
  <text x="450.0" y="38" text-anchor="middle" fill="#7d8590" font-size="10">Intel Core i7-8700B @ 3.20GHz, performance governor, turbo off</text>
  <text x="22" y="445.0" text-anchor="middle" fill="#e6edf3" font-size="11" font-weight="600" transform="rotate(-90,22,445.0)">seconds / GB</text>
  <text x="450.0" y="64" text-anchor="middle" fill="#e6edf3" font-size="12" font-weight="600">High compressibility</text>
  <line x1="70" y1="230.6" x2="830" y2="230.6" stroke="#21262d" stroke-width="1"/>
  <text x="62" y="230.6" text-anchor="end" dominant-baseline="middle" fill="#7d8590" font-size="10">2.0</text>
  <line x1="70" y1="191.2" x2="830" y2="191.2" stroke="#21262d" stroke-width="1"/>
  <text x="62" y="191.2" text-anchor="end" dominant-baseline="middle" fill="#7d8590" font-size="10">4.0</text>
  <line x1="70" y1="151.8" x2="830" y2="151.8" stroke="#21262d" stroke-width="1"/>
  <text x="62" y="151.8" text-anchor="end" dominant-baseline="middle" fill="#7d8590" font-size="10">6.0</text>
  <line x1="70" y1="112.4" x2="830" y2="112.4" stroke="#21262d" stroke-width="1"/>
  <text x="62" y="112.4" text-anchor="end" dominant-baseline="middle" fill="#7d8590" font-size="10">8.0</text>
  <line x1="70" y1="73.0" x2="830" y2="73.0" stroke="#21262d" stroke-width="1"/>
  <text x="62" y="73.0" text-anchor="end" dominant-baseline="middle" fill="#7d8590" font-size="10">10.0</text>
  <line x1="70" y1="270" x2="830" y2="270" stroke="#30363d" stroke-width="1.5"/>
  <rect x="95.3" y="233.1" width="44.3" height="36.9" fill="#60a5fa" rx="1"/>
  <rect x="95.3" y="200.3" width="44.3" height="32.7" fill="#4680c4" rx="1"/>
  <rect x="95.3" y="188.1" width="44.3" height="12.2" fill="#60a5fa" rx="1"/>
  <rect x="141.3" y="221.0" width="44.3" height="49.0" fill="#f87171" rx="1"/>
  <rect x="141.3" y="186.4" width="44.3" height="34.6" fill="#c45050" rx="1"/>
  <rect x="141.3" y="163.2" width="44.3" height="23.2" fill="#f87171" rx="1"/>
  <rect x="187.3" y="201.5" width="44.3" height="68.5" fill="#f59e0b" rx="1"/>
  <rect x="187.3" y="173.3" width="44.3" height="28.1" fill="#c47d08" rx="1"/>
  <rect x="187.3" y="146.8" width="44.3" height="26.5" fill="#f59e0b" rx="1"/>
  <rect x="233.3" y="187.7" width="44.3" height="82.3" fill="#f472b6" rx="1"/>
  <rect x="233.3" y="153.1" width="44.3" height="34.6" fill="#c05a92" rx="1"/>
  <rect x="233.3" y="111.8" width="44.3" height="41.3" fill="#f472b6" rx="1"/>
  <text x="196.7" y="288" text-anchor="middle" fill="#e6edf3" font-size="11" font-weight="600">Level −1</text>
  <rect x="348.7" y="230.3" width="44.3" height="39.7" fill="#60a5fa" rx="1"/>
  <rect x="348.7" y="202.8" width="44.3" height="27.5" fill="#4680c4" rx="1"/>
  <rect x="348.7" y="189.9" width="44.3" height="12.9" fill="#60a5fa" rx="1"/>
  <rect x="394.7" y="217.1" width="44.3" height="52.9" fill="#f87171" rx="1"/>
  <rect x="394.7" y="185.5" width="44.3" height="31.6" fill="#c45050" rx="1"/>
  <rect x="394.7" y="158.7" width="44.3" height="26.9" fill="#f87171" rx="1"/>
  <rect x="440.7" y="200.0" width="44.3" height="70.0" fill="#f59e0b" rx="1"/>
  <rect x="440.7" y="172.5" width="44.3" height="27.6" fill="#c47d08" rx="1"/>
  <rect x="440.7" y="145.8" width="44.3" height="26.6" fill="#f59e0b" rx="1"/>
  <rect x="486.7" y="178.7" width="44.3" height="91.3" fill="#f472b6" rx="1"/>
  <rect x="486.7" y="147.1" width="44.3" height="31.6" fill="#c05a92" rx="1"/>
  <rect x="486.7" y="98.8" width="44.3" height="48.4" fill="#f472b6" rx="1"/>
  <text x="450.0" y="288" text-anchor="middle" fill="#e6edf3" font-size="11" font-weight="600">Level 1</text>
  <rect x="602.0" y="217.3" width="44.3" height="52.7" fill="#60a5fa" rx="1"/>
  <rect x="602.0" y="191.5" width="44.3" height="25.8" fill="#4680c4" rx="1"/>
  <rect x="602.0" y="178.0" width="44.3" height="13.5" fill="#60a5fa" rx="1"/>
  <rect x="648.0" y="206.6" width="44.3" height="63.4" fill="#f87171" rx="1"/>
  <rect x="648.0" y="177.7" width="44.3" height="28.9" fill="#c45050" rx="1"/>
  <rect x="648.0" y="154.2" width="44.3" height="23.4" fill="#f87171" rx="1"/>
  <rect x="694.0" y="162.3" width="44.3" height="107.7" fill="#f59e0b" rx="1"/>
  <rect x="694.0" y="135.5" width="44.3" height="26.9" fill="#c47d08" rx="1"/>
  <rect x="694.0" y="108.8" width="44.3" height="26.7" fill="#f59e0b" rx="1"/>
  <rect x="740.0" y="168.0" width="44.3" height="102.0" fill="#f472b6" rx="1"/>
  <rect x="740.0" y="139.1" width="44.3" height="28.9" fill="#c05a92" rx="1"/>
  <rect x="740.0" y="96.1" width="44.3" height="43.0" fill="#f472b6" rx="1"/>
  <text x="703.3" y="288" text-anchor="middle" fill="#e6edf3" font-size="11" font-weight="600">Level 3</text>
  <text x="450.0" y="339" text-anchor="middle" fill="#e6edf3" font-size="12" font-weight="600">Medium compressibility</text>
  <line x1="70" y1="499.2" x2="830" y2="499.2" stroke="#21262d" stroke-width="1"/>
  <text x="62" y="499.2" text-anchor="end" dominant-baseline="middle" fill="#7d8590" font-size="10">5.0</text>
  <line x1="70" y1="453.3" x2="830" y2="453.3" stroke="#21262d" stroke-width="1"/>
  <text x="62" y="453.3" text-anchor="end" dominant-baseline="middle" fill="#7d8590" font-size="10">10.0</text>
  <line x1="70" y1="407.5" x2="830" y2="407.5" stroke="#21262d" stroke-width="1"/>
  <text x="62" y="407.5" text-anchor="end" dominant-baseline="middle" fill="#7d8590" font-size="10">15.0</text>
  <line x1="70" y1="361.6" x2="830" y2="361.6" stroke="#21262d" stroke-width="1"/>
  <text x="62" y="361.6" text-anchor="end" dominant-baseline="middle" fill="#7d8590" font-size="10">20.0</text>
  <line x1="70" y1="545" x2="830" y2="545" stroke="#30363d" stroke-width="1.5"/>
  <rect x="95.3" y="512.4" width="44.3" height="32.6" fill="#60a5fa" rx="1"/>
  <rect x="95.3" y="472.0" width="44.3" height="40.4" fill="#4680c4" rx="1"/>
  <rect x="95.3" y="463.9" width="44.3" height="8.1" fill="#60a5fa" rx="1"/>
  <rect x="141.3" y="501.8" width="44.3" height="43.2" fill="#f87171" rx="1"/>
  <rect x="141.3" y="461.4" width="44.3" height="40.4" fill="#c45050" rx="1"/>
  <rect x="141.3" y="445.6" width="44.3" height="15.8" fill="#f87171" rx="1"/>
  <rect x="187.3" y="488.6" width="44.3" height="56.4" fill="#f59e0b" rx="1"/>
  <rect x="187.3" y="453.6" width="44.3" height="35.0" fill="#c47d08" rx="1"/>
  <rect x="187.3" y="434.8" width="44.3" height="18.7" fill="#f59e0b" rx="1"/>
  <rect x="233.3" y="471.9" width="44.3" height="73.1" fill="#f472b6" rx="1"/>
  <rect x="233.3" y="431.5" width="44.3" height="40.4" fill="#c05a92" rx="1"/>
  <rect x="233.3" y="402.7" width="44.3" height="28.9" fill="#f472b6" rx="1"/>
  <text x="196.7" y="563" text-anchor="middle" fill="#e6edf3" font-size="11" font-weight="600">Level −1</text>
  <rect x="348.7" y="509.9" width="44.3" height="35.1" fill="#60a5fa" rx="1"/>
  <rect x="348.7" y="476.2" width="44.3" height="33.7" fill="#4680c4" rx="1"/>
  <rect x="348.7" y="466.7" width="44.3" height="9.5" fill="#60a5fa" rx="1"/>
  <rect x="394.7" y="496.4" width="44.3" height="48.6" fill="#f87171" rx="1"/>
  <rect x="394.7" y="460.3" width="44.3" height="36.2" fill="#c45050" rx="1"/>
  <rect x="394.7" y="439.6" width="44.3" height="20.7" fill="#f87171" rx="1"/>
  <rect x="440.7" y="487.3" width="44.3" height="57.7" fill="#f59e0b" rx="1"/>
  <rect x="440.7" y="453.5" width="44.3" height="33.8" fill="#c47d08" rx="1"/>
  <rect x="440.7" y="434.5" width="44.3" height="19.0" fill="#f59e0b" rx="1"/>
  <rect x="486.7" y="457.4" width="44.3" height="87.6" fill="#f472b6" rx="1"/>
  <rect x="486.7" y="421.2" width="44.3" height="36.2" fill="#c05a92" rx="1"/>
  <rect x="486.7" y="383.5" width="44.3" height="37.7" fill="#f472b6" rx="1"/>
  <text x="450.0" y="563" text-anchor="middle" fill="#e6edf3" font-size="11" font-weight="600">Level 1</text>
  <rect x="602.0" y="486.6" width="44.3" height="58.4" fill="#60a5fa" rx="1"/>
  <rect x="602.0" y="456.2" width="44.3" height="30.4" fill="#4680c4" rx="1"/>
  <rect x="602.0" y="445.2" width="44.3" height="11.0" fill="#60a5fa" rx="1"/>
  <rect x="648.0" y="475.6" width="44.3" height="69.4" fill="#f87171" rx="1"/>
  <rect x="648.0" y="441.9" width="44.3" height="33.8" fill="#c45050" rx="1"/>
  <rect x="648.0" y="424.6" width="44.3" height="17.3" fill="#f87171" rx="1"/>
  <rect x="694.0" y="433.2" width="44.3" height="111.8" fill="#f59e0b" rx="1"/>
  <rect x="694.0" y="402.3" width="44.3" height="30.9" fill="#c47d08" rx="1"/>
  <rect x="694.0" y="380.2" width="44.3" height="22.1" fill="#f59e0b" rx="1"/>
  <rect x="740.0" y="437.4" width="44.3" height="107.6" fill="#f472b6" rx="1"/>
  <rect x="740.0" y="403.6" width="44.3" height="33.8" fill="#c05a92" rx="1"/>
  <rect x="740.0" y="371.1" width="44.3" height="32.5" fill="#f472b6" rx="1"/>
  <text x="703.3" y="563" text-anchor="middle" fill="#e6edf3" font-size="11" font-weight="600">Level 3</text>
  <text x="450.0" y="614" text-anchor="middle" fill="#e6edf3" font-size="12" font-weight="600">Low compressibility</text>
  <line x1="70" y1="786.6" x2="830" y2="786.6" stroke="#21262d" stroke-width="1"/>
  <text x="62" y="786.6" text-anchor="end" dominant-baseline="middle" fill="#7d8590" font-size="10">5.0</text>
  <line x1="70" y1="753.2" x2="830" y2="753.2" stroke="#21262d" stroke-width="1"/>
  <text x="62" y="753.2" text-anchor="end" dominant-baseline="middle" fill="#7d8590" font-size="10">10.0</text>
  <line x1="70" y1="719.8" x2="830" y2="719.8" stroke="#21262d" stroke-width="1"/>
  <text x="62" y="719.8" text-anchor="end" dominant-baseline="middle" fill="#7d8590" font-size="10">15.0</text>
  <line x1="70" y1="686.4" x2="830" y2="686.4" stroke="#21262d" stroke-width="1"/>
  <text x="62" y="686.4" text-anchor="end" dominant-baseline="middle" fill="#7d8590" font-size="10">20.0</text>
  <line x1="70" y1="653.0" x2="830" y2="653.0" stroke="#21262d" stroke-width="1"/>
  <text x="62" y="653.0" text-anchor="end" dominant-baseline="middle" fill="#7d8590" font-size="10">25.0</text>
  <line x1="70" y1="820" x2="830" y2="820" stroke="#30363d" stroke-width="1.5"/>
  <rect x="95.3" y="808.5" width="44.3" height="11.5" fill="#60a5fa" rx="1"/>
  <rect x="95.3" y="744.7" width="44.3" height="63.8" fill="#4680c4" rx="1"/>
  <rect x="95.3" y="743.0" width="44.3" height="1.7" fill="#60a5fa" rx="1"/>
  <rect x="141.3" y="808.4" width="44.3" height="11.6" fill="#f87171" rx="1"/>
  <rect x="141.3" y="744.3" width="44.3" height="64.1" fill="#c45050" rx="1"/>
  <rect x="141.3" y="741.4" width="44.3" height="2.9" fill="#f87171" rx="1"/>
  <rect x="187.3" y="785.2" width="44.3" height="34.8" fill="#f59e0b" rx="1"/>
  <rect x="187.3" y="729.2" width="44.3" height="55.9" fill="#c47d08" rx="1"/>
  <rect x="187.3" y="720.7" width="44.3" height="8.5" fill="#f59e0b" rx="1"/>
  <rect x="233.3" y="802.4" width="44.3" height="17.6" fill="#f472b6" rx="1"/>
  <rect x="233.3" y="738.3" width="44.3" height="64.1" fill="#c05a92" rx="1"/>
  <rect x="233.3" y="734.0" width="44.3" height="4.3" fill="#f472b6" rx="1"/>
  <text x="196.7" y="838" text-anchor="middle" fill="#e6edf3" font-size="11" font-weight="600">Level −1</text>
  <rect x="348.7" y="801.2" width="44.3" height="18.8" fill="#60a5fa" rx="1"/>
  <rect x="348.7" y="745.9" width="44.3" height="55.3" fill="#4680c4" rx="1"/>
  <rect x="348.7" y="739.2" width="44.3" height="6.7" fill="#60a5fa" rx="1"/>
  <rect x="394.7" y="789.6" width="44.3" height="30.4" fill="#f87171" rx="1"/>
  <rect x="394.7" y="730.7" width="44.3" height="58.9" fill="#c45050" rx="1"/>
  <rect x="394.7" y="724.0" width="44.3" height="6.7" fill="#f87171" rx="1"/>
  <rect x="440.7" y="783.0" width="44.3" height="37.0" fill="#f59e0b" rx="1"/>
  <rect x="440.7" y="727.7" width="44.3" height="55.3" fill="#c47d08" rx="1"/>
  <rect x="440.7" y="719.0" width="44.3" height="8.8" fill="#f59e0b" rx="1"/>
  <rect x="486.7" y="770.0" width="44.3" height="50.0" fill="#f472b6" rx="1"/>
  <rect x="486.7" y="711.1" width="44.3" height="58.9" fill="#c05a92" rx="1"/>
  <rect x="486.7" y="698.2" width="44.3" height="12.8" fill="#f472b6" rx="1"/>
  <text x="450.0" y="838" text-anchor="middle" fill="#e6edf3" font-size="11" font-weight="600">Level 1</text>
  <rect x="602.0" y="749.9" width="44.3" height="70.1" fill="#60a5fa" rx="1"/>
  <rect x="602.0" y="700.5" width="44.3" height="49.3" fill="#4680c4" rx="1"/>
  <rect x="602.0" y="690.6" width="44.3" height="10.0" fill="#60a5fa" rx="1"/>
  <rect x="648.0" y="753.9" width="44.3" height="66.1" fill="#f87171" rx="1"/>
  <rect x="648.0" y="700.9" width="44.3" height="53.0" fill="#c45050" rx="1"/>
  <rect x="648.0" y="690.5" width="44.3" height="10.4" fill="#f87171" rx="1"/>
  <rect x="694.0" y="710.1" width="44.3" height="109.9" fill="#f59e0b" rx="1"/>
  <rect x="694.0" y="659.7" width="44.3" height="50.4" fill="#c47d08" rx="1"/>
  <rect x="694.0" y="646.1" width="44.3" height="13.6" fill="#f59e0b" rx="1"/>
  <rect x="740.0" y="721.3" width="44.3" height="98.7" fill="#f472b6" rx="1"/>
  <rect x="740.0" y="668.3" width="44.3" height="53.0" fill="#c05a92" rx="1"/>
  <rect x="740.0" y="648.3" width="44.3" height="20.0" fill="#f472b6" rx="1"/>
  <text x="703.3" y="838" text-anchor="middle" fill="#e6edf3" font-size="11" font-weight="600">Level 3</text>
  <rect x="250" y="850" width="12" height="12" fill="#60a5fa" rx="2"/>
  <text x="268" y="860" fill="#e6edf3" font-size="10" font-weight="500">C zstd 1.5.7 (libzstd)</text>
  <rect x="250" y="868" width="12" height="12" fill="#f87171" rx="2"/>
  <text x="268" y="878" fill="#e6edf3" font-size="10" font-weight="500">zrip (encapsulated unsafe, Rust)</text>
  <rect x="460" y="850" width="12" height="12" fill="#f59e0b" rx="2"/>
  <text x="478" y="860" fill="#e6edf3" font-size="10" font-weight="500">structured-zstd 0.0.42 (unsafe Rust)</text>
  <rect x="460" y="868" width="12" height="12" fill="#f472b6" rx="2"/>
  <text x="478" y="878" fill="#e6edf3" font-size="10" font-weight="500">zrip paranoid (safe Rust, no unsafe)</text>
  <text x="240" y="903" fill="#e6edf3" font-size="9">bright = compress + decompress</text>
  <text x="480" y="903" fill="#7d8590" font-size="9">dim = transfer @100 MB/s</text>
</svg>
