<svg xmlns="http://www.w3.org/2000/svg" viewBox="0 0 850 950" font-family="system-ui, -apple-system, sans-serif">
  <rect width="850" height="950" fill="#0d1117"/>
  <text x="450.0" y="22" text-anchor="middle" fill="#e6edf3" font-size="14" font-weight="700">zstd Pipeline @100 MB/s: Aggregate across corpus (lower is better)</text>
  <text x="450.0" y="38" text-anchor="middle" fill="#7d8590" font-size="10">Intel Core i7-8700B @ 3.20GHz, performance governor, turbo off</text>
  <text x="22" y="445.0" text-anchor="middle" fill="#e6edf3" font-size="11" font-weight="600" transform="rotate(-90,22,445.0)">seconds / GB</text>
  <text x="450.0" y="64" text-anchor="middle" fill="#e6edf3" font-size="12" font-weight="600">High compressibility</text>
  <line x1="70" y1="230.3" x2="830" y2="230.3" stroke="#21262d" stroke-width="1"/>
  <text x="62" y="230.3" text-anchor="end" dominant-baseline="middle" fill="#7d8590" font-size="10">2.0</text>
  <line x1="70" y1="190.6" x2="830" y2="190.6" stroke="#21262d" stroke-width="1"/>
  <text x="62" y="190.6" text-anchor="end" dominant-baseline="middle" fill="#7d8590" font-size="10">4.0</text>
  <line x1="70" y1="151.0" x2="830" y2="151.0" stroke="#21262d" stroke-width="1"/>
  <text x="62" y="151.0" text-anchor="end" dominant-baseline="middle" fill="#7d8590" font-size="10">6.0</text>
  <line x1="70" y1="111.3" x2="830" y2="111.3" stroke="#21262d" stroke-width="1"/>
  <text x="62" y="111.3" text-anchor="end" dominant-baseline="middle" fill="#7d8590" font-size="10">8.0</text>
  <line x1="70" y1="71.6" x2="830" y2="71.6" stroke="#21262d" stroke-width="1"/>
  <text x="62" y="71.6" text-anchor="end" dominant-baseline="middle" fill="#7d8590" font-size="10">10.0</text>
  <line x1="70" y1="270" x2="830" y2="270" stroke="#30363d" stroke-width="1.5"/>
  <rect x="95.3" y="232.6" width="44.3" height="37.4" fill="#60a5fa" rx="1"/>
  <rect x="95.3" y="199.6" width="44.3" height="33.0" fill="#4680c4" rx="1"/>
  <rect x="95.3" y="187.2" width="44.3" height="12.4" fill="#60a5fa" rx="1"/>
  <rect x="141.3" y="220.4" width="44.3" height="49.6" fill="#f87171" rx="1"/>
  <rect x="141.3" y="185.6" width="44.3" height="34.8" fill="#c45050" rx="1"/>
  <rect x="141.3" y="155.3" width="44.3" height="30.3" fill="#f87171" rx="1"/>
  <rect x="187.3" y="200.4" width="44.3" height="69.6" fill="#f59e0b" rx="1"/>
  <rect x="187.3" y="172.1" width="44.3" height="28.3" fill="#c47d08" rx="1"/>
  <rect x="187.3" y="148.2" width="44.3" height="23.9" fill="#f59e0b" rx="1"/>
  <rect x="233.3" y="187.7" width="44.3" height="82.3" fill="#f472b6" rx="1"/>
  <rect x="233.3" y="152.9" width="44.3" height="34.8" fill="#c05a92" rx="1"/>
  <rect x="233.3" y="111.0" width="44.3" height="41.9" fill="#f472b6" rx="1"/>
  <text x="196.7" y="288" text-anchor="middle" fill="#e6edf3" font-size="11" font-weight="600">Level −1</text>
  <rect x="348.7" y="229.9" width="44.3" height="40.1" fill="#60a5fa" rx="1"/>
  <rect x="348.7" y="202.2" width="44.3" height="27.7" fill="#4680c4" rx="1"/>
  <rect x="348.7" y="189.0" width="44.3" height="13.1" fill="#60a5fa" rx="1"/>
  <rect x="394.7" y="216.4" width="44.3" height="53.6" fill="#f87171" rx="1"/>
  <rect x="394.7" y="184.6" width="44.3" height="31.8" fill="#c45050" rx="1"/>
  <rect x="394.7" y="150.3" width="44.3" height="34.4" fill="#f87171" rx="1"/>
  <rect x="440.7" y="198.9" width="44.3" height="71.1" fill="#f59e0b" rx="1"/>
  <rect x="440.7" y="171.1" width="44.3" height="27.8" fill="#c47d08" rx="1"/>
  <rect x="440.7" y="147.1" width="44.3" height="24.0" fill="#f59e0b" rx="1"/>
  <rect x="486.7" y="179.7" width="44.3" height="90.3" fill="#f472b6" rx="1"/>
  <rect x="486.7" y="148.0" width="44.3" height="31.8" fill="#c05a92" rx="1"/>
  <rect x="486.7" y="99.3" width="44.3" height="48.7" fill="#f472b6" rx="1"/>
  <text x="450.0" y="288" text-anchor="middle" fill="#e6edf3" font-size="11" font-weight="600">Level 1</text>
  <rect x="602.0" y="216.4" width="44.3" height="53.6" fill="#60a5fa" rx="1"/>
  <rect x="602.0" y="190.4" width="44.3" height="26.0" fill="#4680c4" rx="1"/>
  <rect x="602.0" y="176.6" width="44.3" height="13.7" fill="#60a5fa" rx="1"/>
  <rect x="648.0" y="205.7" width="44.3" height="64.3" fill="#f87171" rx="1"/>
  <rect x="648.0" y="176.6" width="44.3" height="29.2" fill="#c45050" rx="1"/>
  <rect x="648.0" y="146.0" width="44.3" height="30.5" fill="#f87171" rx="1"/>
  <rect x="694.0" y="160.2" width="44.3" height="109.8" fill="#f59e0b" rx="1"/>
  <rect x="694.0" y="133.2" width="44.3" height="27.1" fill="#c47d08" rx="1"/>
  <rect x="694.0" y="108.4" width="44.3" height="24.8" fill="#f59e0b" rx="1"/>
  <rect x="740.0" y="168.1" width="44.3" height="101.9" fill="#f472b6" rx="1"/>
  <rect x="740.0" y="139.0" width="44.3" height="29.2" fill="#c05a92" rx="1"/>
  <rect x="740.0" y="96.1" width="44.3" height="42.9" fill="#f472b6" rx="1"/>
  <text x="703.3" y="288" text-anchor="middle" fill="#e6edf3" font-size="11" font-weight="600">Level 3</text>
  <text x="450.0" y="339" text-anchor="middle" fill="#e6edf3" font-size="12" font-weight="600">Medium compressibility</text>
  <line x1="70" y1="499.2" x2="830" y2="499.2" stroke="#21262d" stroke-width="1"/>
  <text x="62" y="499.2" text-anchor="end" dominant-baseline="middle" fill="#7d8590" font-size="10">5.0</text>
  <line x1="70" y1="453.4" x2="830" y2="453.4" stroke="#21262d" stroke-width="1"/>
  <text x="62" y="453.4" text-anchor="end" dominant-baseline="middle" fill="#7d8590" font-size="10">10.0</text>
  <line x1="70" y1="407.5" x2="830" y2="407.5" stroke="#21262d" stroke-width="1"/>
  <text x="62" y="407.5" text-anchor="end" dominant-baseline="middle" fill="#7d8590" font-size="10">15.0</text>
  <line x1="70" y1="361.7" x2="830" y2="361.7" stroke="#21262d" stroke-width="1"/>
  <text x="62" y="361.7" text-anchor="end" dominant-baseline="middle" fill="#7d8590" font-size="10">20.0</text>
  <line x1="70" y1="545" x2="830" y2="545" stroke="#30363d" stroke-width="1.5"/>
  <rect x="95.3" y="512.3" width="44.3" height="32.7" fill="#60a5fa" rx="1"/>
  <rect x="95.3" y="471.9" width="44.3" height="40.4" fill="#4680c4" rx="1"/>
  <rect x="95.3" y="463.7" width="44.3" height="8.2" fill="#60a5fa" rx="1"/>
  <rect x="141.3" y="501.7" width="44.3" height="43.3" fill="#f87171" rx="1"/>
  <rect x="141.3" y="461.4" width="44.3" height="40.3" fill="#c45050" rx="1"/>
  <rect x="141.3" y="443.6" width="44.3" height="17.8" fill="#f87171" rx="1"/>
  <rect x="187.3" y="488.5" width="44.3" height="56.5" fill="#f59e0b" rx="1"/>
  <rect x="187.3" y="453.5" width="44.3" height="35.0" fill="#c47d08" rx="1"/>
  <rect x="187.3" y="436.1" width="44.3" height="17.5" fill="#f59e0b" rx="1"/>
  <rect x="233.3" y="472.6" width="44.3" height="72.4" fill="#f472b6" rx="1"/>
  <rect x="233.3" y="432.3" width="44.3" height="40.3" fill="#c05a92" rx="1"/>
  <rect x="233.3" y="402.5" width="44.3" height="29.8" fill="#f472b6" rx="1"/>
  <text x="196.7" y="563" text-anchor="middle" fill="#e6edf3" font-size="11" font-weight="600">Level −1</text>
  <rect x="348.7" y="509.8" width="44.3" height="35.2" fill="#60a5fa" rx="1"/>
  <rect x="348.7" y="476.2" width="44.3" height="33.7" fill="#4680c4" rx="1"/>
  <rect x="348.7" y="466.6" width="44.3" height="9.5" fill="#60a5fa" rx="1"/>
  <rect x="394.7" y="495.5" width="44.3" height="49.5" fill="#f87171" rx="1"/>
  <rect x="394.7" y="459.4" width="44.3" height="36.1" fill="#c45050" rx="1"/>
  <rect x="394.7" y="436.9" width="44.3" height="22.5" fill="#f87171" rx="1"/>
  <rect x="440.7" y="487.0" width="44.3" height="58.0" fill="#f59e0b" rx="1"/>
  <rect x="440.7" y="453.2" width="44.3" height="33.8" fill="#c47d08" rx="1"/>
  <rect x="440.7" y="435.7" width="44.3" height="17.5" fill="#f59e0b" rx="1"/>
  <rect x="486.7" y="459.4" width="44.3" height="85.6" fill="#f472b6" rx="1"/>
  <rect x="486.7" y="423.3" width="44.3" height="36.1" fill="#c05a92" rx="1"/>
  <rect x="486.7" y="384.1" width="44.3" height="39.2" fill="#f472b6" rx="1"/>
  <text x="450.0" y="563" text-anchor="middle" fill="#e6edf3" font-size="11" font-weight="600">Level 1</text>
  <rect x="602.0" y="486.1" width="44.3" height="58.9" fill="#60a5fa" rx="1"/>
  <rect x="602.0" y="455.7" width="44.3" height="30.4" fill="#4680c4" rx="1"/>
  <rect x="602.0" y="444.6" width="44.3" height="11.1" fill="#60a5fa" rx="1"/>
  <rect x="648.0" y="475.2" width="44.3" height="69.8" fill="#f87171" rx="1"/>
  <rect x="648.0" y="441.4" width="44.3" height="33.7" fill="#c45050" rx="1"/>
  <rect x="648.0" y="422.4" width="44.3" height="19.0" fill="#f87171" rx="1"/>
  <rect x="694.0" y="432.9" width="44.3" height="112.1" fill="#f59e0b" rx="1"/>
  <rect x="694.0" y="401.8" width="44.3" height="31.1" fill="#c47d08" rx="1"/>
  <rect x="694.0" y="381.8" width="44.3" height="20.0" fill="#f59e0b" rx="1"/>
  <rect x="740.0" y="438.2" width="44.3" height="106.8" fill="#f472b6" rx="1"/>
  <rect x="740.0" y="404.5" width="44.3" height="33.7" fill="#c05a92" rx="1"/>
  <rect x="740.0" y="371.1" width="44.3" height="33.4" fill="#f472b6" rx="1"/>
  <text x="703.3" y="563" text-anchor="middle" fill="#e6edf3" font-size="11" font-weight="600">Level 3</text>
  <text x="450.0" y="614" text-anchor="middle" fill="#e6edf3" font-size="12" font-weight="600">Low compressibility</text>
  <line x1="70" y1="786.4" x2="830" y2="786.4" stroke="#21262d" stroke-width="1"/>
  <text x="62" y="786.4" text-anchor="end" dominant-baseline="middle" fill="#7d8590" font-size="10">5.0</text>
  <line x1="70" y1="752.8" x2="830" y2="752.8" stroke="#21262d" stroke-width="1"/>
  <text x="62" y="752.8" text-anchor="end" dominant-baseline="middle" fill="#7d8590" font-size="10">10.0</text>
  <line x1="70" y1="719.2" x2="830" y2="719.2" stroke="#21262d" stroke-width="1"/>
  <text x="62" y="719.2" text-anchor="end" dominant-baseline="middle" fill="#7d8590" font-size="10">15.0</text>
  <line x1="70" y1="685.6" x2="830" y2="685.6" stroke="#21262d" stroke-width="1"/>
  <text x="62" y="685.6" text-anchor="end" dominant-baseline="middle" fill="#7d8590" font-size="10">20.0</text>
  <line x1="70" y1="652.0" x2="830" y2="652.0" stroke="#21262d" stroke-width="1"/>
  <text x="62" y="652.0" text-anchor="end" dominant-baseline="middle" fill="#7d8590" font-size="10">25.0</text>
  <line x1="70" y1="820" x2="830" y2="820" stroke="#30363d" stroke-width="1.5"/>
  <rect x="95.3" y="808.3" width="44.3" height="11.7" fill="#60a5fa" rx="1"/>
  <rect x="95.3" y="744.1" width="44.3" height="64.2" fill="#4680c4" rx="1"/>
  <rect x="95.3" y="742.4" width="44.3" height="1.8" fill="#60a5fa" rx="1"/>
  <rect x="141.3" y="808.2" width="44.3" height="11.8" fill="#f87171" rx="1"/>
  <rect x="141.3" y="743.7" width="44.3" height="64.5" fill="#c45050" rx="1"/>
  <rect x="141.3" y="740.3" width="44.3" height="3.4" fill="#f87171" rx="1"/>
  <rect x="187.3" y="784.9" width="44.3" height="35.1" fill="#f59e0b" rx="1"/>
  <rect x="187.3" y="728.6" width="44.3" height="56.3" fill="#c47d08" rx="1"/>
  <rect x="187.3" y="719.8" width="44.3" height="8.7" fill="#f59e0b" rx="1"/>
  <rect x="233.3" y="802.8" width="44.3" height="17.2" fill="#f472b6" rx="1"/>
  <rect x="233.3" y="738.3" width="44.3" height="64.5" fill="#c05a92" rx="1"/>
  <rect x="233.3" y="733.9" width="44.3" height="4.4" fill="#f472b6" rx="1"/>
  <text x="196.7" y="838" text-anchor="middle" fill="#e6edf3" font-size="11" font-weight="600">Level −1</text>
  <rect x="348.7" y="800.9" width="44.3" height="19.1" fill="#60a5fa" rx="1"/>
  <rect x="348.7" y="745.3" width="44.3" height="55.6" fill="#4680c4" rx="1"/>
  <rect x="348.7" y="738.5" width="44.3" height="6.8" fill="#60a5fa" rx="1"/>
  <rect x="394.7" y="789.3" width="44.3" height="30.7" fill="#f87171" rx="1"/>
  <rect x="394.7" y="730.1" width="44.3" height="59.3" fill="#c45050" rx="1"/>
  <rect x="394.7" y="722.3" width="44.3" height="7.8" fill="#f87171" rx="1"/>
  <rect x="440.7" y="782.9" width="44.3" height="37.1" fill="#f59e0b" rx="1"/>
  <rect x="440.7" y="727.3" width="44.3" height="55.7" fill="#c47d08" rx="1"/>
  <rect x="440.7" y="718.2" width="44.3" height="9.0" fill="#f59e0b" rx="1"/>
  <rect x="486.7" y="770.4" width="44.3" height="49.6" fill="#f472b6" rx="1"/>
  <rect x="486.7" y="711.2" width="44.3" height="59.3" fill="#c05a92" rx="1"/>
  <rect x="486.7" y="697.7" width="44.3" height="13.5" fill="#f472b6" rx="1"/>
  <text x="450.0" y="838" text-anchor="middle" fill="#e6edf3" font-size="11" font-weight="600">Level 1</text>
  <rect x="602.0" y="748.9" width="44.3" height="71.1" fill="#60a5fa" rx="1"/>
  <rect x="602.0" y="699.3" width="44.3" height="49.6" fill="#4680c4" rx="1"/>
  <rect x="602.0" y="689.3" width="44.3" height="10.0" fill="#60a5fa" rx="1"/>
  <rect x="648.0" y="754.7" width="44.3" height="65.3" fill="#f87171" rx="1"/>
  <rect x="648.0" y="701.4" width="44.3" height="53.3" fill="#c45050" rx="1"/>
  <rect x="648.0" y="690.1" width="44.3" height="11.3" fill="#f87171" rx="1"/>
  <rect x="694.0" y="711.4" width="44.3" height="108.6" fill="#f59e0b" rx="1"/>
  <rect x="694.0" y="660.5" width="44.3" height="50.9" fill="#c47d08" rx="1"/>
  <rect x="694.0" y="647.8" width="44.3" height="12.7" fill="#f59e0b" rx="1"/>
  <rect x="740.0" y="720.7" width="44.3" height="99.3" fill="#f472b6" rx="1"/>
  <rect x="740.0" y="667.4" width="44.3" height="53.3" fill="#c05a92" rx="1"/>
  <rect x="740.0" y="646.1" width="44.3" height="21.4" fill="#f472b6" rx="1"/>
  <text x="703.3" y="838" text-anchor="middle" fill="#e6edf3" font-size="11" font-weight="600">Level 3</text>
  <rect x="230" y="850" width="12" height="12" fill="#60a5fa" rx="2"/>
  <text x="248" y="860" fill="#e6edf3" font-size="10" font-weight="500">C zstd 1.5.7 (libzstd)</text>
  <rect x="230" y="868" width="12" height="12" fill="#f87171" rx="2"/>
  <text x="248" y="878" fill="#e6edf3" font-size="10" font-weight="500">zrip (encapsulated unsafe, Rust)</text>
  <rect x="480" y="850" width="12" height="12" fill="#f59e0b" rx="2"/>
  <text x="498" y="860" fill="#e6edf3" font-size="10" font-weight="500">structured-zstd 0.0.44 (unsafe Rust)</text>
  <rect x="480" y="868" width="12" height="12" fill="#f472b6" rx="2"/>
  <text x="498" y="878" fill="#e6edf3" font-size="10" font-weight="500">zrip paranoid (safe Rust, no unsafe)</text>
  <text x="240" y="903" fill="#e6edf3" font-size="9">bright = compress + decompress</text>
  <text x="480" y="903" fill="#7d8590" font-size="9">dim = transfer @100 MB/s</text>
</svg>
