<svg viewBox="0 0 850 968" xmlns="http://www.w3.org/2000/svg" font-family="system-ui, -apple-system, sans-serif">
<rect x="0" y="0" width="850" height="968" opacity="1" fill="#0D1117" stroke="none"/>
<text x="425" y="22" dy="0.5ex" text-anchor="middle" font-family="sans-serif" font-size="12.096774193548388" opacity="1" fill="#E6EDF3" font-weight="bold">
12-file Silesia: Pipeline @100 MB/s by compressibility (lower is better)
</text>
<text x="425" y="40" dy="0.5ex" text-anchor="middle" font-family="sans-serif" font-size="8.870967741935484" opacity="1" fill="#7D8590">
Linux VM on a 2018 Mac Mini, Intel Core i7-8700B @ 3.20GHz, performance governor, turbo off
</text>
<text x="22" y="461" dy="0.5ex" text-anchor="middle" font-family="sans-serif" font-size="9.67741935483871" opacity="1" fill="#E6EDF3" font-weight="bold" transform="rotate(270, 22, 461)">
seconds / GB
</text>
<text x="450" y="74" dy="0.5ex" text-anchor="middle" font-family="sans-serif" font-size="10.483870967741936" opacity="1" fill="#E6EDF3" font-weight="bold">
High compressibility
</text>
<polyline fill="none" opacity="1" stroke="#21262D" stroke-width="1" points="70,239 830,239 "/>
<text x="62" y="239" dy="0.5ex" text-anchor="end" font-family="sans-serif" font-size="8.870967741935484" opacity="1" fill="#7D8590">
2.0
</text>
<polyline fill="none" opacity="1" stroke="#21262D" stroke-width="1" points="70,195 830,195 "/>
<text x="62" y="195" dy="0.5ex" text-anchor="end" font-family="sans-serif" font-size="8.870967741935484" opacity="1" fill="#7D8590">
4.0
</text>
<polyline fill="none" opacity="1" stroke="#21262D" stroke-width="1" points="70,150 830,150 "/>
<text x="62" y="150" dy="0.5ex" text-anchor="end" font-family="sans-serif" font-size="8.870967741935484" opacity="1" fill="#7D8590">
6.0
</text>
<polyline fill="none" opacity="1" stroke="#21262D" stroke-width="1" points="70,106 830,106 "/>
<text x="62" y="106" dy="0.5ex" text-anchor="end" font-family="sans-serif" font-size="8.870967741935484" opacity="1" fill="#7D8590">
8.0
</text>
<polyline fill="none" opacity="1" stroke="#30363D" stroke-width="2" points="70,284 830,284 "/>
<rect x="95" y="241" width="45" height="43" opacity="1" fill="#60A5FA" stroke="none"/>
<rect x="95" y="202" width="45" height="39" opacity="1" fill="#4680C4" stroke="none"/>
<rect x="95" y="187" width="45" height="15" opacity="1" fill="#60A5FA" stroke="none"/>
<rect x="141" y="221" width="45" height="63" opacity="1" fill="#F87171" stroke="none"/>
<rect x="141" y="181" width="45" height="40" opacity="1" fill="#C45050" stroke="none"/>
<rect x="141" y="153" width="45" height="28" opacity="1" fill="#F87171" stroke="none"/>
<rect x="187" y="208" width="45" height="76" opacity="1" fill="#F59E0B" stroke="none"/>
<rect x="187" y="168" width="45" height="40" opacity="1" fill="#C47D08" stroke="none"/>
<rect x="187" y="148" width="45" height="20" opacity="1" fill="#F59E0B" stroke="none"/>
<rect x="233" y="199" width="45" height="85" opacity="1" fill="#F472B6" stroke="none"/>
<rect x="233" y="159" width="45" height="40" opacity="1" fill="#C05A92" stroke="none"/>
<rect x="233" y="125" width="45" height="34" opacity="1" fill="#F472B6" stroke="none"/>
<text x="197" y="302" dy="0.5ex" text-anchor="middle" font-family="sans-serif" font-size="9.67741935483871" opacity="1" fill="#E6EDF3" font-weight="bold">
Level -1
</text>
<rect x="349" y="238" width="44" height="46" opacity="1" fill="#60A5FA" stroke="none"/>
<rect x="349" y="205" width="44" height="33" opacity="1" fill="#4680C4" stroke="none"/>
<rect x="349" y="190" width="44" height="15" opacity="1" fill="#60A5FA" stroke="none"/>
<rect x="395" y="216" width="44" height="68" opacity="1" fill="#F87171" stroke="none"/>
<rect x="395" y="178" width="44" height="38" opacity="1" fill="#C45050" stroke="none"/>
<rect x="395" y="147" width="44" height="31" opacity="1" fill="#F87171" stroke="none"/>
<rect x="441" y="205" width="44" height="79" opacity="1" fill="#F59E0B" stroke="none"/>
<rect x="441" y="171" width="44" height="34" opacity="1" fill="#C47D08" stroke="none"/>
<rect x="441" y="150" width="44" height="21" opacity="1" fill="#F59E0B" stroke="none"/>
<rect x="487" y="192" width="44" height="92" opacity="1" fill="#F472B6" stroke="none"/>
<rect x="487" y="153" width="44" height="39" opacity="1" fill="#C05A92" stroke="none"/>
<rect x="487" y="115" width="44" height="38" opacity="1" fill="#F472B6" stroke="none"/>
<text x="450" y="302" dy="0.5ex" text-anchor="middle" font-family="sans-serif" font-size="9.67741935483871" opacity="1" fill="#E6EDF3" font-weight="bold">
Level 1
</text>
<rect x="602" y="223" width="44" height="61" opacity="1" fill="#60A5FA" stroke="none"/>
<rect x="602" y="192" width="44" height="31" opacity="1" fill="#4680C4" stroke="none"/>
<rect x="602" y="176" width="44" height="16" opacity="1" fill="#60A5FA" stroke="none"/>
<rect x="648" y="206" width="44" height="78" opacity="1" fill="#F87171" stroke="none"/>
<rect x="648" y="172" width="44" height="34" opacity="1" fill="#C45050" stroke="none"/>
<rect x="648" y="144" width="44" height="28" opacity="1" fill="#F87171" stroke="none"/>
<rect x="694" y="164" width="44" height="120" opacity="1" fill="#F59E0B" stroke="none"/>
<rect x="694" y="133" width="44" height="31" opacity="1" fill="#C47D08" stroke="none"/>
<rect x="694" y="110" width="44" height="23" opacity="1" fill="#F59E0B" stroke="none"/>
<rect x="740" y="179" width="44" height="105" opacity="1" fill="#F472B6" stroke="none"/>
<rect x="740" y="144" width="44" height="35" opacity="1" fill="#C05A92" stroke="none"/>
<rect x="740" y="110" width="44" height="34" opacity="1" fill="#F472B6" stroke="none"/>
<text x="703" y="302" dy="0.5ex" text-anchor="middle" font-family="sans-serif" font-size="9.67741935483871" opacity="1" fill="#E6EDF3" font-weight="bold">
Level 3
</text>
<text x="450" y="351" dy="0.5ex" text-anchor="middle" font-family="sans-serif" font-size="10.483870967741936" opacity="1" fill="#E6EDF3" font-weight="bold">
Medium compressibility
</text>
<polyline fill="none" opacity="1" stroke="#21262D" stroke-width="1" points="70,510 830,510 "/>
<text x="62" y="510" dy="0.5ex" text-anchor="end" font-family="sans-serif" font-size="8.870967741935484" opacity="1" fill="#7D8590">
5.0
</text>
<polyline fill="none" opacity="1" stroke="#21262D" stroke-width="1" points="70,459 830,459 "/>
<text x="62" y="459" dy="0.5ex" text-anchor="end" font-family="sans-serif" font-size="8.870967741935484" opacity="1" fill="#7D8590">
10.0
</text>
<polyline fill="none" opacity="1" stroke="#21262D" stroke-width="1" points="70,408 830,408 "/>
<text x="62" y="408" dy="0.5ex" text-anchor="end" font-family="sans-serif" font-size="8.870967741935484" opacity="1" fill="#7D8590">
15.0
</text>
<polyline fill="none" opacity="1" stroke="#30363D" stroke-width="2" points="70,561 830,561 "/>
<rect x="95" y="527" width="45" height="34" opacity="1" fill="#60A5FA" stroke="none"/>
<rect x="95" y="481" width="45" height="46" opacity="1" fill="#4680C4" stroke="none"/>
<rect x="95" y="472" width="45" height="9" opacity="1" fill="#60A5FA" stroke="none"/>
<rect x="141" y="508" width="45" height="53" opacity="1" fill="#F87171" stroke="none"/>
<rect x="141" y="464" width="45" height="44" opacity="1" fill="#C45050" stroke="none"/>
<rect x="141" y="444" width="45" height="20" opacity="1" fill="#F87171" stroke="none"/>
<rect x="187" y="505" width="45" height="56" opacity="1" fill="#F59E0B" stroke="none"/>
<rect x="187" y="459" width="45" height="46" opacity="1" fill="#C47D08" stroke="none"/>
<rect x="187" y="445" width="45" height="14" opacity="1" fill="#F59E0B" stroke="none"/>
<rect x="233" y="490" width="45" height="71" opacity="1" fill="#F472B6" stroke="none"/>
<rect x="233" y="446" width="45" height="44" opacity="1" fill="#C05A92" stroke="none"/>
<rect x="233" y="421" width="45" height="25" opacity="1" fill="#F472B6" stroke="none"/>
<text x="197" y="579" dy="0.5ex" text-anchor="middle" font-family="sans-serif" font-size="9.67741935483871" opacity="1" fill="#E6EDF3" font-weight="bold">
Level -1
</text>
<rect x="349" y="524" width="44" height="37" opacity="1" fill="#60A5FA" stroke="none"/>
<rect x="349" y="485" width="44" height="39" opacity="1" fill="#4680C4" stroke="none"/>
<rect x="349" y="475" width="44" height="10" opacity="1" fill="#60A5FA" stroke="none"/>
<rect x="395" y="501" width="44" height="60" opacity="1" fill="#F87171" stroke="none"/>
<rect x="395" y="460" width="44" height="41" opacity="1" fill="#C45050" stroke="none"/>
<rect x="395" y="436" width="44" height="24" opacity="1" fill="#F87171" stroke="none"/>
<rect x="441" y="499" width="44" height="62" opacity="1" fill="#F59E0B" stroke="none"/>
<rect x="441" y="460" width="44" height="39" opacity="1" fill="#C47D08" stroke="none"/>
<rect x="441" y="444" width="44" height="16" opacity="1" fill="#F59E0B" stroke="none"/>
<rect x="487" y="478" width="44" height="83" opacity="1" fill="#F472B6" stroke="none"/>
<rect x="487" y="437" width="44" height="41" opacity="1" fill="#C05A92" stroke="none"/>
<rect x="487" y="407" width="44" height="30" opacity="1" fill="#F472B6" stroke="none"/>
<text x="450" y="579" dy="0.5ex" text-anchor="middle" font-family="sans-serif" font-size="9.67741935483871" opacity="1" fill="#E6EDF3" font-weight="bold">
Level 1
</text>
<rect x="602" y="498" width="44" height="63" opacity="1" fill="#60A5FA" stroke="none"/>
<rect x="602" y="463" width="44" height="35" opacity="1" fill="#4680C4" stroke="none"/>
<rect x="602" y="451" width="44" height="12" opacity="1" fill="#60A5FA" stroke="none"/>
<rect x="648" y="481" width="44" height="80" opacity="1" fill="#F87171" stroke="none"/>
<rect x="648" y="443" width="44" height="38" opacity="1" fill="#C45050" stroke="none"/>
<rect x="648" y="422" width="44" height="21" opacity="1" fill="#F87171" stroke="none"/>
<rect x="694" y="445" width="44" height="116" opacity="1" fill="#F59E0B" stroke="none"/>
<rect x="694" y="410" width="44" height="35" opacity="1" fill="#C47D08" stroke="none"/>
<rect x="694" y="391" width="44" height="19" opacity="1" fill="#F59E0B" stroke="none"/>
<rect x="740" y="453" width="44" height="108" opacity="1" fill="#F472B6" stroke="none"/>
<rect x="740" y="415" width="44" height="38" opacity="1" fill="#C05A92" stroke="none"/>
<rect x="740" y="387" width="44" height="28" opacity="1" fill="#F472B6" stroke="none"/>
<text x="703" y="579" dy="0.5ex" text-anchor="middle" font-family="sans-serif" font-size="9.67741935483871" opacity="1" fill="#E6EDF3" font-weight="bold">
Level 3
</text>
<text x="450" y="628" dy="0.5ex" text-anchor="middle" font-family="sans-serif" font-size="10.483870967741936" opacity="1" fill="#E6EDF3" font-weight="bold">
Low compressibility
</text>
<polyline fill="none" opacity="1" stroke="#21262D" stroke-width="1" points="70,775 830,775 "/>
<text x="62" y="775" dy="0.5ex" text-anchor="end" font-family="sans-serif" font-size="8.870967741935484" opacity="1" fill="#7D8590">
10.0
</text>
<polyline fill="none" opacity="1" stroke="#21262D" stroke-width="1" points="70,713 830,713 "/>
<text x="62" y="713" dy="0.5ex" text-anchor="end" font-family="sans-serif" font-size="8.870967741935484" opacity="1" fill="#7D8590">
20.0
</text>
<polyline fill="none" opacity="1" stroke="#21262D" stroke-width="1" points="70,650 830,650 "/>
<text x="62" y="650" dy="0.5ex" text-anchor="end" font-family="sans-serif" font-size="8.870967741935484" opacity="1" fill="#7D8590">
30.0
</text>
<polyline fill="none" opacity="1" stroke="#30363D" stroke-width="2" points="70,838 830,838 "/>
<rect x="95" y="827" width="45" height="11" opacity="1" fill="#60A5FA" stroke="none"/>
<rect x="95" y="768" width="45" height="59" opacity="1" fill="#4680C4" stroke="none"/>
<rect x="95" y="766" width="45" height="2" opacity="1" fill="#60A5FA" stroke="none"/>
<rect x="141" y="822" width="45" height="16" opacity="1" fill="#F87171" stroke="none"/>
<rect x="141" y="764" width="45" height="58" opacity="1" fill="#C45050" stroke="none"/>
<rect x="141" y="760" width="45" height="4" opacity="1" fill="#F87171" stroke="none"/>
<rect x="187" y="823" width="45" height="15" opacity="1" fill="#F59E0B" stroke="none"/>
<rect x="187" y="763" width="45" height="60" opacity="1" fill="#C47D08" stroke="none"/>
<rect x="187" y="761" width="45" height="2" opacity="1" fill="#F59E0B" stroke="none"/>
<rect x="233" y="817" width="45" height="21" opacity="1" fill="#F472B6" stroke="none"/>
<rect x="233" y="759" width="45" height="58" opacity="1" fill="#C05A92" stroke="none"/>
<rect x="233" y="754" width="45" height="5" opacity="1" fill="#F472B6" stroke="none"/>
<text x="197" y="856" dy="0.5ex" text-anchor="middle" font-family="sans-serif" font-size="9.67741935483871" opacity="1" fill="#E6EDF3" font-weight="bold">
Level -1
</text>
<rect x="349" y="821" width="44" height="17" opacity="1" fill="#60A5FA" stroke="none"/>
<rect x="349" y="769" width="44" height="52" opacity="1" fill="#4680C4" stroke="none"/>
<rect x="349" y="763" width="44" height="6" opacity="1" fill="#60A5FA" stroke="none"/>
<rect x="395" y="808" width="44" height="30" opacity="1" fill="#F87171" stroke="none"/>
<rect x="395" y="753" width="44" height="55" opacity="1" fill="#C45050" stroke="none"/>
<rect x="395" y="745" width="44" height="8" opacity="1" fill="#F87171" stroke="none"/>
<rect x="441" y="803" width="44" height="35" opacity="1" fill="#F59E0B" stroke="none"/>
<rect x="441" y="751" width="44" height="52" opacity="1" fill="#C47D08" stroke="none"/>
<rect x="441" y="742" width="44" height="9" opacity="1" fill="#F59E0B" stroke="none"/>
<rect x="487" y="797" width="44" height="41" opacity="1" fill="#F472B6" stroke="none"/>
<rect x="487" y="742" width="44" height="55" opacity="1" fill="#C05A92" stroke="none"/>
<rect x="487" y="731" width="44" height="11" opacity="1" fill="#F472B6" stroke="none"/>
<text x="450" y="856" dy="0.5ex" text-anchor="middle" font-family="sans-serif" font-size="9.67741935483871" opacity="1" fill="#E6EDF3" font-weight="bold">
Level 1
</text>
<rect x="602" y="775" width="44" height="63" opacity="1" fill="#60A5FA" stroke="none"/>
<rect x="602" y="729" width="44" height="46" opacity="1" fill="#4680C4" stroke="none"/>
<rect x="602" y="720" width="44" height="9" opacity="1" fill="#60A5FA" stroke="none"/>
<rect x="648" y="777" width="44" height="61" opacity="1" fill="#F87171" stroke="none"/>
<rect x="648" y="727" width="44" height="50" opacity="1" fill="#C45050" stroke="none"/>
<rect x="648" y="714" width="44" height="13" opacity="1" fill="#F87171" stroke="none"/>
<rect x="694" y="724" width="44" height="114" opacity="1" fill="#F59E0B" stroke="none"/>
<rect x="694" y="677" width="44" height="47" opacity="1" fill="#C47D08" stroke="none"/>
<rect x="694" y="664" width="44" height="13" opacity="1" fill="#F59E0B" stroke="none"/>
<rect x="740" y="754" width="44" height="84" opacity="1" fill="#F472B6" stroke="none"/>
<rect x="740" y="704" width="44" height="50" opacity="1" fill="#C05A92" stroke="none"/>
<rect x="740" y="688" width="44" height="16" opacity="1" fill="#F472B6" stroke="none"/>
<text x="703" y="856" dy="0.5ex" text-anchor="middle" font-family="sans-serif" font-size="9.67741935483871" opacity="1" fill="#E6EDF3" font-weight="bold">
Level 3
</text>
<rect x="190" y="880" width="12" height="12" opacity="1" fill="#60A5FA" stroke="none"/>
<text x="208" y="886" dy="0.5ex" text-anchor="start" font-family="sans-serif" font-size="8.870967741935484" opacity="1" fill="#E6EDF3">
libzstd v1.5.7 (C)
</text>
<rect x="190" y="900" width="12" height="12" opacity="1" fill="#F87171" stroke="none"/>
<text x="208" y="906" dy="0.5ex" text-anchor="start" font-family="sans-serif" font-size="8.870967741935484" opacity="1" fill="#E6EDF3">
zrip (safe SIMD + encapsulated unsafe)
</text>
<rect x="460" y="880" width="12" height="12" opacity="1" fill="#F59E0B" stroke="none"/>
<text x="478" y="886" dy="0.5ex" text-anchor="start" font-family="sans-serif" font-size="8.870967741935484" opacity="1" fill="#E6EDF3">
structured-zstd v0.0.49 (unsafe)
</text>
<rect x="460" y="900" width="12" height="12" opacity="1" fill="#F472B6" stroke="none"/>
<text x="478" y="906" dy="0.5ex" text-anchor="start" font-family="sans-serif" font-size="8.870967741935484" opacity="1" fill="#E6EDF3">
zrip paranoid (safe SIMD, no unsafe)
</text>
<text x="215" y="942" dy="0.5ex" text-anchor="start" font-family="sans-serif" font-size="8.064516129032258" opacity="1" fill="#E6EDF3">
bright = compress + decompress
</text>
<text x="455" y="942" dy="0.5ex" text-anchor="start" font-family="sans-serif" font-size="8.064516129032258" opacity="1" fill="#7D8590">
dim = transfer @100 MB/s
</text>
</svg>
