<svg xmlns="http://www.w3.org/2000/svg" viewBox="0 0 850 950" font-family="system-ui, -apple-system, sans-serif">
  <rect width="850" height="950" fill="#0d1117"/>
  <text x="450.0" y="22" text-anchor="middle" fill="#e6edf3" font-size="14" font-weight="700">zstd Pipeline @100 MB/s: Aggregate across corpus (lower is better)</text>
  <text x="450.0" y="38" text-anchor="middle" fill="#7d8590" font-size="10">Intel Core i7-8700B @ 3.20GHz, performance governor, turbo off</text>
  <text x="22" y="445.0" text-anchor="middle" fill="#e6edf3" font-size="11" font-weight="600" transform="rotate(-90,22,445.0)">seconds / GB</text>
  <text x="450.0" y="64" text-anchor="middle" fill="#e6edf3" font-size="12" font-weight="600">High compressibility</text>
  <line x1="70" y1="225.6" x2="830" y2="225.6" stroke="#21262d" stroke-width="1"/>
  <text x="62" y="225.6" text-anchor="end" dominant-baseline="middle" fill="#7d8590" font-size="10">2.0</text>
  <line x1="70" y1="181.2" x2="830" y2="181.2" stroke="#21262d" stroke-width="1"/>
  <text x="62" y="181.2" text-anchor="end" dominant-baseline="middle" fill="#7d8590" font-size="10">4.0</text>
  <line x1="70" y1="136.8" x2="830" y2="136.8" stroke="#21262d" stroke-width="1"/>
  <text x="62" y="136.8" text-anchor="end" dominant-baseline="middle" fill="#7d8590" font-size="10">6.0</text>
  <line x1="70" y1="92.4" x2="830" y2="92.4" stroke="#21262d" stroke-width="1"/>
  <text x="62" y="92.4" text-anchor="end" dominant-baseline="middle" fill="#7d8590" font-size="10">8.0</text>
  <line x1="70" y1="270" x2="830" y2="270" stroke="#30363d" stroke-width="1.5"/>
  <rect x="95.3" y="229.7" width="44.3" height="40.3" fill="#60a5fa" rx="1"/>
  <rect x="95.3" y="192.7" width="44.3" height="36.9" fill="#4680c4" rx="1"/>
  <rect x="95.3" y="179.4" width="44.3" height="13.4" fill="#60a5fa" rx="1"/>
  <rect x="141.3" y="213.4" width="44.3" height="56.6" fill="#f87171" rx="1"/>
  <rect x="141.3" y="176.8" width="44.3" height="36.6" fill="#c45050" rx="1"/>
  <rect x="141.3" y="147.5" width="44.3" height="29.3" fill="#f87171" rx="1"/>
  <rect x="187.3" y="197.4" width="44.3" height="72.6" fill="#f59e0b" rx="1"/>
  <rect x="187.3" y="160.4" width="44.3" height="37.0" fill="#c47d08" rx="1"/>
  <rect x="187.3" y="140.2" width="44.3" height="20.3" fill="#f59e0b" rx="1"/>
  <rect x="233.3" y="176.4" width="44.3" height="93.6" fill="#f472b6" rx="1"/>
  <rect x="233.3" y="139.8" width="44.3" height="36.6" fill="#c05a92" rx="1"/>
  <rect x="233.3" y="107.8" width="44.3" height="32.0" fill="#f472b6" rx="1"/>
  <text x="196.7" y="288" text-anchor="middle" fill="#e6edf3" font-size="11" font-weight="600">Level −1</text>
  <rect x="348.7" y="226.9" width="44.3" height="43.1" fill="#60a5fa" rx="1"/>
  <rect x="348.7" y="195.8" width="44.3" height="31.0" fill="#4680c4" rx="1"/>
  <rect x="348.7" y="181.6" width="44.3" height="14.2" fill="#60a5fa" rx="1"/>
  <rect x="394.7" y="210.8" width="44.3" height="59.2" fill="#f87171" rx="1"/>
  <rect x="394.7" y="175.3" width="44.3" height="35.6" fill="#c45050" rx="1"/>
  <rect x="394.7" y="143.3" width="44.3" height="32.0" fill="#f87171" rx="1"/>
  <rect x="440.7" y="193.8" width="44.3" height="76.2" fill="#f59e0b" rx="1"/>
  <rect x="440.7" y="162.6" width="44.3" height="31.1" fill="#c47d08" rx="1"/>
  <rect x="440.7" y="141.5" width="44.3" height="21.2" fill="#f59e0b" rx="1"/>
  <rect x="486.7" y="171.7" width="44.3" height="98.3" fill="#f472b6" rx="1"/>
  <rect x="486.7" y="136.1" width="44.3" height="35.6" fill="#c05a92" rx="1"/>
  <rect x="486.7" y="101.4" width="44.3" height="34.7" fill="#f472b6" rx="1"/>
  <text x="450.0" y="288" text-anchor="middle" fill="#e6edf3" font-size="11" font-weight="600">Level 1</text>
  <rect x="602.0" y="214.2" width="44.3" height="55.8" fill="#60a5fa" rx="1"/>
  <rect x="602.0" y="185.2" width="44.3" height="29.1" fill="#4680c4" rx="1"/>
  <rect x="602.0" y="170.3" width="44.3" height="14.8" fill="#60a5fa" rx="1"/>
  <rect x="648.0" y="201.1" width="44.3" height="68.9" fill="#f87171" rx="1"/>
  <rect x="648.0" y="168.5" width="44.3" height="32.6" fill="#c45050" rx="1"/>
  <rect x="648.0" y="139.3" width="44.3" height="29.2" fill="#f87171" rx="1"/>
  <rect x="694.0" y="154.4" width="44.3" height="115.6" fill="#f59e0b" rx="1"/>
  <rect x="694.0" y="125.3" width="44.3" height="29.1" fill="#c47d08" rx="1"/>
  <rect x="694.0" y="103.0" width="44.3" height="22.3" fill="#f59e0b" rx="1"/>
  <rect x="740.0" y="159.9" width="44.3" height="110.1" fill="#f472b6" rx="1"/>
  <rect x="740.0" y="127.3" width="44.3" height="32.6" fill="#c05a92" rx="1"/>
  <rect x="740.0" y="96.1" width="44.3" height="31.2" fill="#f472b6" rx="1"/>
  <text x="703.3" y="288" text-anchor="middle" fill="#e6edf3" font-size="11" font-weight="600">Level 3</text>
  <text x="450.0" y="339" text-anchor="middle" fill="#e6edf3" font-size="12" font-weight="600">Medium compressibility</text>
  <line x1="70" y1="495.8" x2="830" y2="495.8" stroke="#21262d" stroke-width="1"/>
  <text x="62" y="495.8" text-anchor="end" dominant-baseline="middle" fill="#7d8590" font-size="10">5.0</text>
  <line x1="70" y1="446.5" x2="830" y2="446.5" stroke="#21262d" stroke-width="1"/>
  <text x="62" y="446.5" text-anchor="end" dominant-baseline="middle" fill="#7d8590" font-size="10">10.0</text>
  <line x1="70" y1="397.3" x2="830" y2="397.3" stroke="#21262d" stroke-width="1"/>
  <text x="62" y="397.3" text-anchor="end" dominant-baseline="middle" fill="#7d8590" font-size="10">15.0</text>
  <line x1="70" y1="348.1" x2="830" y2="348.1" stroke="#21262d" stroke-width="1"/>
  <text x="62" y="348.1" text-anchor="end" dominant-baseline="middle" fill="#7d8590" font-size="10">20.0</text>
  <line x1="70" y1="545" x2="830" y2="545" stroke="#30363d" stroke-width="1.5"/>
  <rect x="95.3" y="511.8" width="44.3" height="33.2" fill="#60a5fa" rx="1"/>
  <rect x="95.3" y="468.4" width="44.3" height="43.4" fill="#4680c4" rx="1"/>
  <rect x="95.3" y="459.8" width="44.3" height="8.6" fill="#60a5fa" rx="1"/>
  <rect x="141.3" y="498.0" width="44.3" height="47.0" fill="#f87171" rx="1"/>
  <rect x="141.3" y="456.2" width="44.3" height="41.7" fill="#c45050" rx="1"/>
  <rect x="141.3" y="435.7" width="44.3" height="20.6" fill="#f87171" rx="1"/>
  <rect x="187.3" y="490.7" width="44.3" height="54.3" fill="#f59e0b" rx="1"/>
  <rect x="187.3" y="447.2" width="44.3" height="43.6" fill="#c47d08" rx="1"/>
  <rect x="187.3" y="433.7" width="44.3" height="13.4" fill="#f59e0b" rx="1"/>
  <rect x="233.3" y="465.3" width="44.3" height="79.7" fill="#f472b6" rx="1"/>
  <rect x="233.3" y="423.6" width="44.3" height="41.7" fill="#c05a92" rx="1"/>
  <rect x="233.3" y="399.5" width="44.3" height="24.1" fill="#f472b6" rx="1"/>
  <text x="196.7" y="563" text-anchor="middle" fill="#e6edf3" font-size="11" font-weight="600">Level −1</text>
  <rect x="348.7" y="509.4" width="44.3" height="35.6" fill="#60a5fa" rx="1"/>
  <rect x="348.7" y="473.2" width="44.3" height="36.2" fill="#4680c4" rx="1"/>
  <rect x="348.7" y="463.2" width="44.3" height="10.0" fill="#60a5fa" rx="1"/>
  <rect x="394.7" y="493.8" width="44.3" height="51.2" fill="#f87171" rx="1"/>
  <rect x="394.7" y="455.0" width="44.3" height="38.8" fill="#c45050" rx="1"/>
  <rect x="394.7" y="430.4" width="44.3" height="24.6" fill="#f87171" rx="1"/>
  <rect x="440.7" y="484.5" width="44.3" height="60.5" fill="#f59e0b" rx="1"/>
  <rect x="440.7" y="448.2" width="44.3" height="36.3" fill="#c47d08" rx="1"/>
  <rect x="440.7" y="432.8" width="44.3" height="15.4" fill="#f59e0b" rx="1"/>
  <rect x="486.7" y="455.8" width="44.3" height="89.2" fill="#f472b6" rx="1"/>
  <rect x="486.7" y="416.9" width="44.3" height="38.8" fill="#c05a92" rx="1"/>
  <rect x="486.7" y="390.4" width="44.3" height="26.5" fill="#f472b6" rx="1"/>
  <text x="450.0" y="563" text-anchor="middle" fill="#e6edf3" font-size="11" font-weight="600">Level 1</text>
  <rect x="602.0" y="486.8" width="44.3" height="58.2" fill="#60a5fa" rx="1"/>
  <rect x="602.0" y="454.1" width="44.3" height="32.7" fill="#4680c4" rx="1"/>
  <rect x="602.0" y="442.6" width="44.3" height="11.6" fill="#60a5fa" rx="1"/>
  <rect x="648.0" y="474.6" width="44.3" height="70.4" fill="#f87171" rx="1"/>
  <rect x="648.0" y="438.3" width="44.3" height="36.3" fill="#c45050" rx="1"/>
  <rect x="648.0" y="416.5" width="44.3" height="21.9" fill="#f87171" rx="1"/>
  <rect x="694.0" y="433.7" width="44.3" height="111.3" fill="#f59e0b" rx="1"/>
  <rect x="694.0" y="400.8" width="44.3" height="33.0" fill="#c47d08" rx="1"/>
  <rect x="694.0" y="383.1" width="44.3" height="17.7" fill="#f59e0b" rx="1"/>
  <rect x="740.0" y="431.8" width="44.3" height="113.2" fill="#f472b6" rx="1"/>
  <rect x="740.0" y="395.5" width="44.3" height="36.3" fill="#c05a92" rx="1"/>
  <rect x="740.0" y="371.1" width="44.3" height="24.4" fill="#f472b6" rx="1"/>
  <text x="703.3" y="563" text-anchor="middle" fill="#e6edf3" font-size="11" font-weight="600">Level 3</text>
  <text x="450.0" y="614" text-anchor="middle" fill="#e6edf3" font-size="12" font-weight="600">Low compressibility</text>
  <line x1="70" y1="758.1" x2="830" y2="758.1" stroke="#21262d" stroke-width="1"/>
  <text x="62" y="758.1" text-anchor="end" dominant-baseline="middle" fill="#7d8590" font-size="10">10.0</text>
  <line x1="70" y1="696.1" x2="830" y2="696.1" stroke="#21262d" stroke-width="1"/>
  <text x="62" y="696.1" text-anchor="end" dominant-baseline="middle" fill="#7d8590" font-size="10">20.0</text>
  <line x1="70" y1="634.2" x2="830" y2="634.2" stroke="#21262d" stroke-width="1"/>
  <text x="62" y="634.2" text-anchor="end" dominant-baseline="middle" fill="#7d8590" font-size="10">30.0</text>
  <line x1="70" y1="820" x2="830" y2="820" stroke="#30363d" stroke-width="1.5"/>
  <rect x="95.3" y="809.4" width="44.3" height="10.6" fill="#60a5fa" rx="1"/>
  <rect x="95.3" y="750.2" width="44.3" height="59.1" fill="#4680c4" rx="1"/>
  <rect x="95.3" y="748.7" width="44.3" height="1.5" fill="#60a5fa" rx="1"/>
  <rect x="141.3" y="806.3" width="44.3" height="13.7" fill="#f87171" rx="1"/>
  <rect x="141.3" y="747.3" width="44.3" height="59.0" fill="#c45050" rx="1"/>
  <rect x="141.3" y="744.0" width="44.3" height="3.4" fill="#f87171" rx="1"/>
  <rect x="187.3" y="805.2" width="44.3" height="14.8" fill="#f59e0b" rx="1"/>
  <rect x="187.3" y="746.1" width="44.3" height="59.1" fill="#c47d08" rx="1"/>
  <rect x="187.3" y="743.6" width="44.3" height="2.5" fill="#f59e0b" rx="1"/>
  <rect x="233.3" y="799.0" width="44.3" height="21.0" fill="#f472b6" rx="1"/>
  <rect x="233.3" y="740.0" width="44.3" height="59.0" fill="#c05a92" rx="1"/>
  <rect x="233.3" y="736.4" width="44.3" height="3.6" fill="#f472b6" rx="1"/>
  <text x="196.7" y="838" text-anchor="middle" fill="#e6edf3" font-size="11" font-weight="600">Level −1</text>
  <rect x="348.7" y="802.8" width="44.3" height="17.2" fill="#60a5fa" rx="1"/>
  <rect x="348.7" y="751.5" width="44.3" height="51.3" fill="#4680c4" rx="1"/>
  <rect x="348.7" y="745.4" width="44.3" height="6.2" fill="#60a5fa" rx="1"/>
  <rect x="394.7" y="791.8" width="44.3" height="28.2" fill="#f87171" rx="1"/>
  <rect x="394.7" y="737.2" width="44.3" height="54.6" fill="#c45050" rx="1"/>
  <rect x="394.7" y="728.6" width="44.3" height="8.6" fill="#f87171" rx="1"/>
  <rect x="440.7" y="784.8" width="44.3" height="35.2" fill="#f59e0b" rx="1"/>
  <rect x="440.7" y="733.5" width="44.3" height="51.3" fill="#c47d08" rx="1"/>
  <rect x="440.7" y="725.0" width="44.3" height="8.5" fill="#f59e0b" rx="1"/>
  <rect x="486.7" y="774.6" width="44.3" height="45.4" fill="#f472b6" rx="1"/>
  <rect x="486.7" y="720.0" width="44.3" height="54.6" fill="#c05a92" rx="1"/>
  <rect x="486.7" y="710.9" width="44.3" height="9.0" fill="#f472b6" rx="1"/>
  <text x="450.0" y="838" text-anchor="middle" fill="#e6edf3" font-size="11" font-weight="600">Level 1</text>
  <rect x="602.0" y="759.0" width="44.3" height="61.0" fill="#60a5fa" rx="1"/>
  <rect x="602.0" y="713.3" width="44.3" height="45.7" fill="#4680c4" rx="1"/>
  <rect x="602.0" y="704.2" width="44.3" height="9.1" fill="#60a5fa" rx="1"/>
  <rect x="648.0" y="760.8" width="44.3" height="59.2" fill="#f87171" rx="1"/>
  <rect x="648.0" y="711.6" width="44.3" height="49.1" fill="#c45050" rx="1"/>
  <rect x="648.0" y="698.4" width="44.3" height="13.3" fill="#f87171" rx="1"/>
  <rect x="694.0" y="705.2" width="44.3" height="114.8" fill="#f59e0b" rx="1"/>
  <rect x="694.0" y="658.7" width="44.3" height="46.5" fill="#c47d08" rx="1"/>
  <rect x="694.0" y="646.1" width="44.3" height="12.6" fill="#f59e0b" rx="1"/>
  <rect x="740.0" y="732.0" width="44.3" height="88.0" fill="#f472b6" rx="1"/>
  <rect x="740.0" y="682.9" width="44.3" height="49.1" fill="#c05a92" rx="1"/>
  <rect x="740.0" y="668.7" width="44.3" height="14.1" fill="#f472b6" rx="1"/>
  <text x="703.3" y="838" text-anchor="middle" fill="#e6edf3" font-size="11" font-weight="600">Level 3</text>
  <rect x="230" y="850" width="12" height="12" fill="#60a5fa" rx="2"/>
  <text x="248" y="860" fill="#e6edf3" font-size="10" font-weight="500">libzstd v1.5.7 (C)</text>
  <rect x="230" y="868" width="12" height="12" fill="#f87171" rx="2"/>
  <text x="248" y="878" fill="#e6edf3" font-size="10" font-weight="500">zrip (safe SIMD + encapsulated unsafe)</text>
  <rect x="480" y="850" width="12" height="12" fill="#f59e0b" rx="2"/>
  <text x="498" y="860" fill="#e6edf3" font-size="10" font-weight="500">structured-zstd v0.0.48 (unsafe)</text>
  <rect x="480" y="868" width="12" height="12" fill="#f472b6" rx="2"/>
  <text x="498" y="878" fill="#e6edf3" font-size="10" font-weight="500">zrip paranoid (safe SIMD, no unsafe)</text>
  <text x="240" y="903" fill="#e6edf3" font-size="9">bright = compress + decompress</text>
  <text x="480" y="903" fill="#7d8590" font-size="9">dim = transfer @100 MB/s</text>
</svg>
