<svg xmlns="http://www.w3.org/2000/svg" viewBox="0 0 850 720" font-family="system-ui, -apple-system, sans-serif">
  <rect width="850" height="720" fill="#0d1117"/>
  <text x="442.5" y="22" text-anchor="middle" fill="#e6edf3" font-size="14" font-weight="700">zstd Pipeline @100 MB/s: Per-file, Level 1 (lower is better)</text>
  <text x="442.5" y="38" text-anchor="middle" fill="#7d8590" font-size="10">Intel Core i7-8700B @ 3.20GHz, performance governor, turbo off</text>
  <line x1="55" y1="238.2" x2="830" y2="238.2" stroke="#21262d" stroke-width="1"/>
  <text x="47" y="238.2" text-anchor="end" dominant-baseline="middle" fill="#7d8590" font-size="10">10</text>
  <line x1="55" y1="186.4" x2="830" y2="186.4" stroke="#21262d" stroke-width="1"/>
  <text x="47" y="186.4" text-anchor="end" dominant-baseline="middle" fill="#7d8590" font-size="10">20</text>
  <line x1="55" y1="134.5" x2="830" y2="134.5" stroke="#21262d" stroke-width="1"/>
  <text x="47" y="134.5" text-anchor="end" dominant-baseline="middle" fill="#7d8590" font-size="10">30</text>
  <line x1="55" y1="82.7" x2="830" y2="82.7" stroke="#21262d" stroke-width="1"/>
  <text x="47" y="82.7" text-anchor="end" dominant-baseline="middle" fill="#7d8590" font-size="10">40</text>
  <line x1="55" y1="290" x2="830" y2="290" stroke="#30363d" stroke-width="1.5"/>
  <text x="22" y="325.0" text-anchor="middle" fill="#e6edf3" font-size="11" font-weight="600" transform="rotate(-90,22,325.0)">seconds / GB</text>
  <rect x="71.1" y="265.8" width="19.4" height="24.2" fill="#60a5fa" rx="1"/>
  <rect x="71.1" y="244.1" width="19.4" height="21.7" fill="#4680c4" rx="1"/>
  <rect x="71.1" y="238.8" width="19.4" height="5.3" fill="#60a5fa" rx="1"/>
  <rect x="90.5" y="253.5" width="19.4" height="36.5" fill="#f87171" rx="1"/>
  <rect x="90.5" y="230.3" width="19.4" height="23.2" fill="#c45050" rx="1"/>
  <rect x="90.5" y="216.7" width="19.4" height="13.6" fill="#f87171" rx="1"/>
  <rect x="109.9" y="251.5" width="19.4" height="38.5" fill="#f59e0b" rx="1"/>
  <rect x="109.9" y="229.8" width="19.4" height="21.7" fill="#c47d08" rx="1"/>
  <rect x="109.9" y="220.8" width="19.4" height="9.0" fill="#f59e0b" rx="1"/>
  <rect x="129.3" y="224.3" width="19.4" height="65.7" fill="#f472b6" rx="1"/>
  <rect x="129.3" y="201.2" width="19.4" height="23.2" fill="#c05a92" rx="1"/>
  <rect x="129.3" y="172.4" width="19.4" height="28.7" fill="#f472b6" rx="1"/>
  <rect x="148.6" y="171.2" width="19.4" height="118.8" fill="#4ade80" rx="1"/>
  <rect x="148.6" y="145.9" width="19.4" height="25.4" fill="#3aaf60" rx="1"/>
  <rect x="148.6" y="107.0" width="19.4" height="38.9" fill="#4ade80" rx="1"/>
  <text x="119.6" y="306" text-anchor="middle" fill="#e6edf3" font-size="10" font-weight="600">dickens</text>
  <text x="119.6" y="318" text-anchor="middle" fill="#7d8590" font-size="9">10.2 MB</text>
  <rect x="200.3" y="284.6" width="19.4" height="5.4" fill="#60a5fa" rx="1"/>
  <rect x="200.3" y="282.0" width="19.4" height="2.6" fill="#4680c4" rx="1"/>
  <rect x="200.3" y="280.0" width="19.4" height="2.0" fill="#60a5fa" rx="1"/>
  <rect x="219.7" y="282.5" width="19.4" height="7.5" fill="#f87171" rx="1"/>
  <rect x="219.7" y="279.5" width="19.4" height="3.0" fill="#c45050" rx="1"/>
  <rect x="219.7" y="276.2" width="19.4" height="3.2" fill="#f87171" rx="1"/>
  <rect x="239.1" y="279.2" width="19.4" height="10.8" fill="#f59e0b" rx="1"/>
  <rect x="239.1" y="276.6" width="19.4" height="2.6" fill="#c47d08" rx="1"/>
  <rect x="239.1" y="273.6" width="19.4" height="3.0" fill="#f59e0b" rx="1"/>
  <rect x="258.4" y="277.4" width="19.4" height="12.6" fill="#f472b6" rx="1"/>
  <rect x="258.4" y="274.4" width="19.4" height="3.0" fill="#c05a92" rx="1"/>
  <rect x="258.4" y="268.8" width="19.4" height="5.6" fill="#f472b6" rx="1"/>
  <rect x="277.8" y="240.9" width="19.4" height="49.1" fill="#4ade80" rx="1"/>
  <rect x="277.8" y="235.9" width="19.4" height="4.9" fill="#3aaf60" rx="1"/>
  <rect x="277.8" y="226.9" width="19.4" height="9.0" fill="#4ade80" rx="1"/>
  <text x="248.8" y="306" text-anchor="middle" fill="#e6edf3" font-size="10" font-weight="600">hdfs.json</text>
  <text x="248.8" y="318" text-anchor="middle" fill="#7d8590" font-size="9">7.0 MB</text>
  <rect x="329.5" y="272.3" width="19.4" height="17.7" fill="#60a5fa" rx="1"/>
  <rect x="329.5" y="252.1" width="19.4" height="20.2" fill="#4680c4" rx="1"/>
  <rect x="329.5" y="246.4" width="19.4" height="5.7" fill="#60a5fa" rx="1"/>
  <rect x="348.9" y="266.0" width="19.4" height="24.0" fill="#f87171" rx="1"/>
  <rect x="348.9" y="244.8" width="19.4" height="21.3" fill="#c45050" rx="1"/>
  <rect x="348.9" y="233.9" width="19.4" height="10.9" fill="#f87171" rx="1"/>
  <rect x="368.2" y="259.3" width="19.4" height="30.7" fill="#f59e0b" rx="1"/>
  <rect x="368.2" y="238.9" width="19.4" height="20.4" fill="#c47d08" rx="1"/>
  <rect x="368.2" y="227.9" width="19.4" height="11.0" fill="#f59e0b" rx="1"/>
  <rect x="387.6" y="248.8" width="19.4" height="41.2" fill="#f472b6" rx="1"/>
  <rect x="387.6" y="227.5" width="19.4" height="21.3" fill="#c05a92" rx="1"/>
  <rect x="387.6" y="208.1" width="19.4" height="19.5" fill="#f472b6" rx="1"/>
  <rect x="407.0" y="183.5" width="19.4" height="106.5" fill="#4ade80" rx="1"/>
  <rect x="407.0" y="157.1" width="19.4" height="26.4" fill="#3aaf60" rx="1"/>
  <rect x="407.0" y="132.1" width="19.4" height="25.0" fill="#4ade80" rx="1"/>
  <text x="377.9" y="306" text-anchor="middle" fill="#e6edf3" font-size="10" font-weight="600">mozilla</text>
  <text x="377.9" y="318" text-anchor="middle" fill="#7d8590" font-size="9">51.2 MB</text>
  <rect x="458.6" y="272.1" width="19.4" height="17.9" fill="#60a5fa" rx="1"/>
  <rect x="458.6" y="252.3" width="19.4" height="19.8" fill="#4680c4" rx="1"/>
  <rect x="458.6" y="247.5" width="19.4" height="4.8" fill="#60a5fa" rx="1"/>
  <rect x="478.0" y="260.7" width="19.4" height="29.3" fill="#f87171" rx="1"/>
  <rect x="478.0" y="239.5" width="19.4" height="21.2" fill="#c45050" rx="1"/>
  <rect x="478.0" y="227.8" width="19.4" height="11.7" fill="#f87171" rx="1"/>
  <rect x="497.4" y="258.1" width="19.4" height="31.9" fill="#f59e0b" rx="1"/>
  <rect x="497.4" y="238.3" width="19.4" height="19.8" fill="#c47d08" rx="1"/>
  <rect x="497.4" y="230.9" width="19.4" height="7.4" fill="#f59e0b" rx="1"/>
  <rect x="516.8" y="236.7" width="19.4" height="53.3" fill="#f472b6" rx="1"/>
  <rect x="516.8" y="215.5" width="19.4" height="21.2" fill="#c05a92" rx="1"/>
  <rect x="516.8" y="193.2" width="19.4" height="22.4" fill="#f472b6" rx="1"/>
  <rect x="536.1" y="190.5" width="19.4" height="99.5" fill="#4ade80" rx="1"/>
  <rect x="536.1" y="164.9" width="19.4" height="25.6" fill="#3aaf60" rx="1"/>
  <rect x="536.1" y="137.8" width="19.4" height="27.1" fill="#4ade80" rx="1"/>
  <text x="507.1" y="306" text-anchor="middle" fill="#e6edf3" font-size="10" font-weight="600">mr</text>
  <text x="507.1" y="318" text-anchor="middle" fill="#7d8590" font-size="9">10.0 MB</text>
  <rect x="587.8" y="281.0" width="19.4" height="9.0" fill="#60a5fa" rx="1"/>
  <rect x="587.8" y="276.6" width="19.4" height="4.4" fill="#4680c4" rx="1"/>
  <rect x="587.8" y="273.3" width="19.4" height="3.3" fill="#60a5fa" rx="1"/>
  <rect x="607.2" y="277.5" width="19.4" height="12.5" fill="#f87171" rx="1"/>
  <rect x="607.2" y="272.2" width="19.4" height="5.2" fill="#c45050" rx="1"/>
  <rect x="607.2" y="264.0" width="19.4" height="8.2" fill="#f87171" rx="1"/>
  <rect x="626.6" y="273.3" width="19.4" height="16.7" fill="#f59e0b" rx="1"/>
  <rect x="626.6" y="268.9" width="19.4" height="4.4" fill="#c47d08" rx="1"/>
  <rect x="626.6" y="261.5" width="19.4" height="7.4" fill="#f59e0b" rx="1"/>
  <rect x="645.9" y="269.4" width="19.4" height="20.6" fill="#f472b6" rx="1"/>
  <rect x="645.9" y="264.1" width="19.4" height="5.2" fill="#c05a92" rx="1"/>
  <rect x="645.9" y="252.1" width="19.4" height="12.0" fill="#f472b6" rx="1"/>
  <rect x="665.3" y="231.5" width="19.4" height="58.5" fill="#4ade80" rx="1"/>
  <rect x="665.3" y="223.8" width="19.4" height="7.6" fill="#3aaf60" rx="1"/>
  <rect x="665.3" y="207.1" width="19.4" height="16.7" fill="#4ade80" rx="1"/>
  <text x="636.2" y="306" text-anchor="middle" fill="#e6edf3" font-size="10" font-weight="600">nci</text>
  <text x="636.2" y="318" text-anchor="middle" fill="#7d8590" font-size="9">33.6 MB</text>
  <rect x="717.0" y="273.2" width="19.4" height="16.8" fill="#60a5fa" rx="1"/>
  <rect x="717.0" y="254.1" width="19.4" height="19.2" fill="#4680c4" rx="1"/>
  <rect x="717.0" y="249.5" width="19.4" height="4.6" fill="#60a5fa" rx="1"/>
  <rect x="736.4" y="268.4" width="19.4" height="21.6" fill="#f87171" rx="1"/>
  <rect x="736.4" y="248.1" width="19.4" height="20.4" fill="#c45050" rx="1"/>
  <rect x="736.4" y="241.6" width="19.4" height="6.5" fill="#f87171" rx="1"/>
  <rect x="755.7" y="261.7" width="19.4" height="28.3" fill="#f59e0b" rx="1"/>
  <rect x="755.7" y="242.5" width="19.4" height="19.2" fill="#c47d08" rx="1"/>
  <rect x="755.7" y="236.3" width="19.4" height="6.3" fill="#f59e0b" rx="1"/>
  <rect x="775.1" y="254.3" width="19.4" height="35.7" fill="#f472b6" rx="1"/>
  <rect x="775.1" y="233.9" width="19.4" height="20.4" fill="#c05a92" rx="1"/>
  <rect x="775.1" y="221.8" width="19.4" height="12.1" fill="#f472b6" rx="1"/>
  <rect x="794.5" y="198.5" width="19.4" height="91.5" fill="#4ade80" rx="1"/>
  <rect x="794.5" y="175.8" width="19.4" height="22.6" fill="#3aaf60" rx="1"/>
  <rect x="794.5" y="160.1" width="19.4" height="15.7" fill="#4ade80" rx="1"/>
  <text x="765.4" y="306" text-anchor="middle" fill="#e6edf3" font-size="10" font-weight="600">osdb</text>
  <text x="765.4" y="318" text-anchor="middle" fill="#7d8590" font-size="9">10.1 MB</text>
  <line x1="55" y1="548.2" x2="830" y2="548.2" stroke="#21262d" stroke-width="1"/>
  <text x="47" y="548.2" text-anchor="end" dominant-baseline="middle" fill="#7d8590" font-size="10">10</text>
  <line x1="55" y1="496.4" x2="830" y2="496.4" stroke="#21262d" stroke-width="1"/>
  <text x="47" y="496.4" text-anchor="end" dominant-baseline="middle" fill="#7d8590" font-size="10">20</text>
  <line x1="55" y1="444.5" x2="830" y2="444.5" stroke="#21262d" stroke-width="1"/>
  <text x="47" y="444.5" text-anchor="end" dominant-baseline="middle" fill="#7d8590" font-size="10">30</text>
  <line x1="55" y1="392.7" x2="830" y2="392.7" stroke="#21262d" stroke-width="1"/>
  <text x="47" y="392.7" text-anchor="end" dominant-baseline="middle" fill="#7d8590" font-size="10">40</text>
  <line x1="55" y1="600" x2="830" y2="600" stroke="#30363d" stroke-width="1.5"/>
  <rect x="71.1" y="576.6" width="19.4" height="23.4" fill="#60a5fa" rx="1"/>
  <rect x="71.1" y="559.8" width="19.4" height="16.8" fill="#4680c4" rx="1"/>
  <rect x="71.1" y="554.3" width="19.4" height="5.5" fill="#60a5fa" rx="1"/>
  <rect x="90.5" y="570.5" width="19.4" height="29.5" fill="#f87171" rx="1"/>
  <rect x="90.5" y="552.0" width="19.4" height="18.5" fill="#c45050" rx="1"/>
  <rect x="90.5" y="539.1" width="19.4" height="12.9" fill="#f87171" rx="1"/>
  <rect x="109.9" y="561.4" width="19.4" height="38.6" fill="#f59e0b" rx="1"/>
  <rect x="109.9" y="544.6" width="19.4" height="16.8" fill="#c47d08" rx="1"/>
  <rect x="109.9" y="535.7" width="19.4" height="8.9" fill="#f59e0b" rx="1"/>
  <rect x="129.3" y="544.8" width="19.4" height="55.2" fill="#f472b6" rx="1"/>
  <rect x="129.3" y="526.3" width="19.4" height="18.5" fill="#c05a92" rx="1"/>
  <rect x="129.3" y="500.8" width="19.4" height="25.5" fill="#f472b6" rx="1"/>
  <rect x="148.6" y="496.7" width="19.4" height="103.3" fill="#4ade80" rx="1"/>
  <rect x="148.6" y="475.1" width="19.4" height="21.5" fill="#3aaf60" rx="1"/>
  <rect x="148.6" y="441.5" width="19.4" height="33.7" fill="#4ade80" rx="1"/>
  <text x="119.6" y="616" text-anchor="middle" fill="#e6edf3" font-size="10" font-weight="600">reymont.pdf</text>
  <text x="119.6" y="628" text-anchor="middle" fill="#7d8590" font-size="9">6.6 MB</text>
  <rect x="200.3" y="585.8" width="19.4" height="14.2" fill="#60a5fa" rx="1"/>
  <rect x="200.3" y="572.7" width="19.4" height="13.2" fill="#4680c4" rx="1"/>
  <rect x="200.3" y="568.6" width="19.4" height="4.1" fill="#60a5fa" rx="1"/>
  <rect x="219.7" y="581.6" width="19.4" height="18.4" fill="#f87171" rx="1"/>
  <rect x="219.7" y="566.8" width="19.4" height="14.8" fill="#c45050" rx="1"/>
  <rect x="219.7" y="556.4" width="19.4" height="10.4" fill="#f87171" rx="1"/>
  <rect x="239.1" y="576.4" width="19.4" height="23.6" fill="#f59e0b" rx="1"/>
  <rect x="239.1" y="563.1" width="19.4" height="13.2" fill="#c47d08" rx="1"/>
  <rect x="239.1" y="557.2" width="19.4" height="6.0" fill="#f59e0b" rx="1"/>
  <rect x="258.4" y="568.3" width="19.4" height="31.7" fill="#f472b6" rx="1"/>
  <rect x="258.4" y="553.5" width="19.4" height="14.8" fill="#c05a92" rx="1"/>
  <rect x="258.4" y="536.0" width="19.4" height="17.5" fill="#f472b6" rx="1"/>
  <rect x="277.8" y="512.5" width="19.4" height="87.5" fill="#4ade80" rx="1"/>
  <rect x="277.8" y="495.0" width="19.4" height="17.5" fill="#3aaf60" rx="1"/>
  <rect x="277.8" y="473.1" width="19.4" height="21.8" fill="#4ade80" rx="1"/>
  <text x="248.8" y="616" text-anchor="middle" fill="#e6edf3" font-size="10" font-weight="600">samba</text>
  <text x="248.8" y="628" text-anchor="middle" fill="#7d8590" font-size="9">21.6 MB</text>
  <rect x="329.5" y="578.4" width="19.4" height="21.6" fill="#60a5fa" rx="1"/>
  <rect x="329.5" y="533.8" width="19.4" height="44.7" fill="#4680c4" rx="1"/>
  <rect x="329.5" y="528.0" width="19.4" height="5.7" fill="#60a5fa" rx="1"/>
  <rect x="348.9" y="579.3" width="19.4" height="20.7" fill="#f87171" rx="1"/>
  <rect x="348.9" y="534.3" width="19.4" height="45.0" fill="#c45050" rx="1"/>
  <rect x="348.9" y="529.3" width="19.4" height="5.0" fill="#f87171" rx="1"/>
  <rect x="368.2" y="564.4" width="19.4" height="35.6" fill="#f59e0b" rx="1"/>
  <rect x="368.2" y="519.8" width="19.4" height="44.7" fill="#c47d08" rx="1"/>
  <rect x="368.2" y="511.9" width="19.4" height="7.9" fill="#f59e0b" rx="1"/>
  <rect x="387.6" y="566.2" width="19.4" height="33.8" fill="#f472b6" rx="1"/>
  <rect x="387.6" y="521.2" width="19.4" height="45.0" fill="#c05a92" rx="1"/>
  <rect x="387.6" y="511.2" width="19.4" height="10.0" fill="#f472b6" rx="1"/>
  <rect x="407.0" y="449.1" width="19.4" height="150.9" fill="#4ade80" rx="1"/>
  <rect x="407.0" y="406.1" width="19.4" height="42.9" fill="#3aaf60" rx="1"/>
  <rect x="407.0" y="387.4" width="19.4" height="18.7" fill="#4ade80" rx="1"/>
  <text x="377.9" y="616" text-anchor="middle" fill="#e6edf3" font-size="10" font-weight="600">sao</text>
  <text x="377.9" y="628" text-anchor="middle" fill="#7d8590" font-size="9">7.3 MB</text>
  <rect x="458.6" y="577.9" width="19.4" height="22.1" fill="#60a5fa" rx="1"/>
  <rect x="458.6" y="560.8" width="19.4" height="17.1" fill="#4680c4" rx="1"/>
  <rect x="458.6" y="555.6" width="19.4" height="5.2" fill="#60a5fa" rx="1"/>
  <rect x="478.0" y="568.1" width="19.4" height="31.9" fill="#f87171" rx="1"/>
  <rect x="478.0" y="549.2" width="19.4" height="18.9" fill="#c45050" rx="1"/>
  <rect x="478.0" y="536.2" width="19.4" height="13.0" fill="#f87171" rx="1"/>
  <rect x="497.4" y="565.8" width="19.4" height="34.2" fill="#f59e0b" rx="1"/>
  <rect x="497.4" y="548.7" width="19.4" height="17.1" fill="#c47d08" rx="1"/>
  <rect x="497.4" y="538.2" width="19.4" height="10.5" fill="#f59e0b" rx="1"/>
  <rect x="516.8" y="545.1" width="19.4" height="54.9" fill="#f472b6" rx="1"/>
  <rect x="516.8" y="526.3" width="19.4" height="18.9" fill="#c05a92" rx="1"/>
  <rect x="516.8" y="501.0" width="19.4" height="25.3" fill="#f472b6" rx="1"/>
  <rect x="536.1" y="492.4" width="19.4" height="107.6" fill="#4ade80" rx="1"/>
  <rect x="536.1" y="471.6" width="19.4" height="20.8" fill="#3aaf60" rx="1"/>
  <rect x="536.1" y="440.3" width="19.4" height="31.3" fill="#4ade80" rx="1"/>
  <text x="507.1" y="616" text-anchor="middle" fill="#e6edf3" font-size="10" font-weight="600">webster</text>
  <text x="507.1" y="628" text-anchor="middle" fill="#7d8590" font-size="9">41.5 MB</text>
  <rect x="587.8" y="591.5" width="19.4" height="8.5" fill="#60a5fa" rx="1"/>
  <rect x="587.8" y="550.0" width="19.4" height="41.4" fill="#4680c4" rx="1"/>
  <rect x="587.8" y="545.2" width="19.4" height="4.8" fill="#60a5fa" rx="1"/>
  <rect x="607.2" y="573.5" width="19.4" height="26.5" fill="#f87171" rx="1"/>
  <rect x="607.2" y="527.3" width="19.4" height="46.3" fill="#c45050" rx="1"/>
  <rect x="607.2" y="521.6" width="19.4" height="5.7" fill="#f87171" rx="1"/>
  <rect x="626.6" y="577.7" width="19.4" height="22.3" fill="#f59e0b" rx="1"/>
  <rect x="626.6" y="536.3" width="19.4" height="41.4" fill="#c47d08" rx="1"/>
  <rect x="626.6" y="530.0" width="19.4" height="6.2" fill="#f59e0b" rx="1"/>
  <rect x="645.9" y="557.5" width="19.4" height="42.5" fill="#f472b6" rx="1"/>
  <rect x="645.9" y="511.2" width="19.4" height="46.3" fill="#c05a92" rx="1"/>
  <rect x="645.9" y="500.7" width="19.4" height="10.5" fill="#f472b6" rx="1"/>
  <rect x="665.3" y="445.4" width="19.4" height="154.6" fill="#4ade80" rx="1"/>
  <rect x="665.3" y="399.9" width="19.4" height="45.5" fill="#3aaf60" rx="1"/>
  <rect x="665.3" y="381.8" width="19.4" height="18.1" fill="#4ade80" rx="1"/>
  <text x="636.2" y="616" text-anchor="middle" fill="#e6edf3" font-size="10" font-weight="600">x-ray</text>
  <text x="636.2" y="628" text-anchor="middle" fill="#7d8590" font-size="9">8.5 MB</text>
  <rect x="717.0" y="589.2" width="19.4" height="10.8" fill="#60a5fa" rx="1"/>
  <rect x="717.0" y="581.9" width="19.4" height="7.3" fill="#4680c4" rx="1"/>
  <rect x="717.0" y="578.5" width="19.4" height="3.4" fill="#60a5fa" rx="1"/>
  <rect x="736.4" y="585.5" width="19.4" height="14.5" fill="#f87171" rx="1"/>
  <rect x="736.4" y="577.2" width="19.4" height="8.3" fill="#c45050" rx="1"/>
  <rect x="736.4" y="571.4" width="19.4" height="5.8" fill="#f87171" rx="1"/>
  <rect x="755.7" y="580.9" width="19.4" height="19.1" fill="#f59e0b" rx="1"/>
  <rect x="755.7" y="573.6" width="19.4" height="7.3" fill="#c47d08" rx="1"/>
  <rect x="755.7" y="568.8" width="19.4" height="4.8" fill="#f59e0b" rx="1"/>
  <rect x="775.1" y="574.9" width="19.4" height="25.1" fill="#f472b6" rx="1"/>
  <rect x="775.1" y="566.6" width="19.4" height="8.3" fill="#c05a92" rx="1"/>
  <rect x="775.1" y="555.5" width="19.4" height="11.1" fill="#f472b6" rx="1"/>
  <rect x="794.5" y="529.9" width="19.4" height="70.1" fill="#4ade80" rx="1"/>
  <rect x="794.5" y="518.3" width="19.4" height="11.6" fill="#3aaf60" rx="1"/>
  <rect x="794.5" y="500.0" width="19.4" height="18.3" fill="#4ade80" rx="1"/>
  <text x="765.4" y="616" text-anchor="middle" fill="#e6edf3" font-size="10" font-weight="600">xml_collection.xml</text>
  <text x="765.4" y="628" text-anchor="middle" fill="#7d8590" font-size="9">5.3 MB</text>
  <rect x="242" y="645" width="12" height="12" fill="#60a5fa" rx="2"/>
  <text x="260" y="655" fill="#e6edf3" font-size="10" font-weight="500">C zstd 1.5.7 (libzstd)</text>
  <rect x="242" y="663" width="12" height="12" fill="#f87171" rx="2"/>
  <text x="260" y="673" fill="#e6edf3" font-size="10" font-weight="500">zrip (encapsulated unsafe, Rust)</text>
  <rect x="452" y="645" width="12" height="12" fill="#f59e0b" rx="2"/>
  <text x="470" y="655" fill="#e6edf3" font-size="10" font-weight="500">structured-zstd 0.0.44 (unsafe Rust)</text>
  <rect x="452" y="663" width="12" height="12" fill="#f472b6" rx="2"/>
  <text x="470" y="673" fill="#e6edf3" font-size="10" font-weight="500">zrip paranoid (safe Rust, no unsafe)</text>
  <text x="232" y="698" fill="#e6edf3" font-size="9">bright = compress + decompress</text>
  <text x="472" y="698" fill="#7d8590" font-size="9">dim = transfer @100 MB/s</text>
</svg>
