<svg xmlns="http://www.w3.org/2000/svg" viewBox="0 0 850 720" font-family="system-ui, -apple-system, sans-serif">
  <rect width="850" height="720" fill="#0d1117"/>
  <text x="442.5" y="22" text-anchor="middle" fill="#e6edf3" font-size="14" font-weight="700">zstd Pipeline @100 MB/s: Per-file, Level 1 (lower is better)</text>
  <text x="442.5" y="38" text-anchor="middle" fill="#7d8590" font-size="10">Intel Core i7-8700B @ 3.20GHz, performance governor, turbo off</text>
  <line x1="55" y1="238.0" x2="830" y2="238.0" stroke="#21262d" stroke-width="1"/>
  <text x="47" y="238.0" text-anchor="end" dominant-baseline="middle" fill="#7d8590" font-size="10">10</text>
  <line x1="55" y1="186.1" x2="830" y2="186.1" stroke="#21262d" stroke-width="1"/>
  <text x="47" y="186.1" text-anchor="end" dominant-baseline="middle" fill="#7d8590" font-size="10">20</text>
  <line x1="55" y1="134.1" x2="830" y2="134.1" stroke="#21262d" stroke-width="1"/>
  <text x="47" y="134.1" text-anchor="end" dominant-baseline="middle" fill="#7d8590" font-size="10">30</text>
  <line x1="55" y1="82.2" x2="830" y2="82.2" stroke="#21262d" stroke-width="1"/>
  <text x="47" y="82.2" text-anchor="end" dominant-baseline="middle" fill="#7d8590" font-size="10">40</text>
  <line x1="55" y1="290" x2="830" y2="290" stroke="#30363d" stroke-width="1.5"/>
  <text x="22" y="325.0" text-anchor="middle" fill="#e6edf3" font-size="11" font-weight="600" transform="rotate(-90,22,325.0)">seconds / GB</text>
  <rect x="71.1" y="265.7" width="19.4" height="24.3" fill="#60a5fa" rx="1"/>
  <rect x="71.1" y="244.0" width="19.4" height="21.7" fill="#4680c4" rx="1"/>
  <rect x="71.1" y="238.6" width="19.4" height="5.4" fill="#60a5fa" rx="1"/>
  <rect x="90.5" y="253.4" width="19.4" height="36.6" fill="#f87171" rx="1"/>
  <rect x="90.5" y="230.2" width="19.4" height="23.2" fill="#c45050" rx="1"/>
  <rect x="90.5" y="215.1" width="19.4" height="15.1" fill="#f87171" rx="1"/>
  <rect x="109.9" y="251.2" width="19.4" height="38.8" fill="#f59e0b" rx="1"/>
  <rect x="109.9" y="229.5" width="19.4" height="21.7" fill="#c47d08" rx="1"/>
  <rect x="109.9" y="220.5" width="19.4" height="9.0" fill="#f59e0b" rx="1"/>
  <rect x="129.3" y="224.8" width="19.4" height="65.2" fill="#f472b6" rx="1"/>
  <rect x="129.3" y="201.6" width="19.4" height="23.2" fill="#c05a92" rx="1"/>
  <rect x="129.3" y="172.2" width="19.4" height="29.3" fill="#f472b6" rx="1"/>
  <rect x="148.6" y="171.3" width="19.4" height="118.7" fill="#4ade80" rx="1"/>
  <rect x="148.6" y="145.9" width="19.4" height="25.4" fill="#3aaf60" rx="1"/>
  <rect x="148.6" y="106.7" width="19.4" height="39.1" fill="#4ade80" rx="1"/>
  <text x="119.6" y="306" text-anchor="middle" fill="#e6edf3" font-size="10" font-weight="600">dickens</text>
  <text x="119.6" y="318" text-anchor="middle" fill="#7d8590" font-size="9">10.2 MB</text>
  <rect x="200.3" y="284.5" width="19.4" height="5.5" fill="#60a5fa" rx="1"/>
  <rect x="200.3" y="281.9" width="19.4" height="2.6" fill="#4680c4" rx="1"/>
  <rect x="200.3" y="279.9" width="19.4" height="2.0" fill="#60a5fa" rx="1"/>
  <rect x="219.7" y="282.4" width="19.4" height="7.6" fill="#f87171" rx="1"/>
  <rect x="219.7" y="279.4" width="19.4" height="3.0" fill="#c45050" rx="1"/>
  <rect x="219.7" y="275.6" width="19.4" height="3.8" fill="#f87171" rx="1"/>
  <rect x="239.1" y="279.2" width="19.4" height="10.8" fill="#f59e0b" rx="1"/>
  <rect x="239.1" y="276.6" width="19.4" height="2.6" fill="#c47d08" rx="1"/>
  <rect x="239.1" y="273.6" width="19.4" height="3.0" fill="#f59e0b" rx="1"/>
  <rect x="258.4" y="277.4" width="19.4" height="12.6" fill="#f472b6" rx="1"/>
  <rect x="258.4" y="274.4" width="19.4" height="3.0" fill="#c05a92" rx="1"/>
  <rect x="258.4" y="269.1" width="19.4" height="5.3" fill="#f472b6" rx="1"/>
  <rect x="277.8" y="240.8" width="19.4" height="49.2" fill="#4ade80" rx="1"/>
  <rect x="277.8" y="235.8" width="19.4" height="5.0" fill="#3aaf60" rx="1"/>
  <rect x="277.8" y="226.7" width="19.4" height="9.1" fill="#4ade80" rx="1"/>
  <text x="248.8" y="306" text-anchor="middle" fill="#e6edf3" font-size="10" font-weight="600">hdfs.json</text>
  <text x="248.8" y="318" text-anchor="middle" fill="#7d8590" font-size="9">7.0 MB</text>
  <rect x="329.5" y="272.2" width="19.4" height="17.8" fill="#60a5fa" rx="1"/>
  <rect x="329.5" y="252.0" width="19.4" height="20.3" fill="#4680c4" rx="1"/>
  <rect x="329.5" y="246.2" width="19.4" height="5.8" fill="#60a5fa" rx="1"/>
  <rect x="348.9" y="266.1" width="19.4" height="23.9" fill="#f87171" rx="1"/>
  <rect x="348.9" y="244.7" width="19.4" height="21.3" fill="#c45050" rx="1"/>
  <rect x="348.9" y="233.1" width="19.4" height="11.7" fill="#f87171" rx="1"/>
  <rect x="368.2" y="259.1" width="19.4" height="30.9" fill="#f59e0b" rx="1"/>
  <rect x="368.2" y="238.6" width="19.4" height="20.5" fill="#c47d08" rx="1"/>
  <rect x="368.2" y="227.5" width="19.4" height="11.0" fill="#f59e0b" rx="1"/>
  <rect x="387.6" y="248.9" width="19.4" height="41.1" fill="#f472b6" rx="1"/>
  <rect x="387.6" y="227.6" width="19.4" height="21.3" fill="#c05a92" rx="1"/>
  <rect x="387.6" y="208.1" width="19.4" height="19.5" fill="#f472b6" rx="1"/>
  <rect x="407.0" y="183.0" width="19.4" height="107.0" fill="#4ade80" rx="1"/>
  <rect x="407.0" y="156.5" width="19.4" height="26.5" fill="#3aaf60" rx="1"/>
  <rect x="407.0" y="131.6" width="19.4" height="24.9" fill="#4ade80" rx="1"/>
  <text x="377.9" y="306" text-anchor="middle" fill="#e6edf3" font-size="10" font-weight="600">mozilla</text>
  <text x="377.9" y="318" text-anchor="middle" fill="#7d8590" font-size="9">51.2 MB</text>
  <rect x="458.6" y="272.0" width="19.4" height="18.0" fill="#60a5fa" rx="1"/>
  <rect x="458.6" y="252.1" width="19.4" height="19.9" fill="#4680c4" rx="1"/>
  <rect x="458.6" y="247.3" width="19.4" height="4.8" fill="#60a5fa" rx="1"/>
  <rect x="478.0" y="260.7" width="19.4" height="29.3" fill="#f87171" rx="1"/>
  <rect x="478.0" y="239.4" width="19.4" height="21.2" fill="#c45050" rx="1"/>
  <rect x="478.0" y="226.7" width="19.4" height="12.7" fill="#f87171" rx="1"/>
  <rect x="497.4" y="258.3" width="19.4" height="31.7" fill="#f59e0b" rx="1"/>
  <rect x="497.4" y="238.4" width="19.4" height="19.9" fill="#c47d08" rx="1"/>
  <rect x="497.4" y="231.0" width="19.4" height="7.4" fill="#f59e0b" rx="1"/>
  <rect x="516.8" y="236.9" width="19.4" height="53.1" fill="#f472b6" rx="1"/>
  <rect x="516.8" y="215.7" width="19.4" height="21.2" fill="#c05a92" rx="1"/>
  <rect x="516.8" y="193.0" width="19.4" height="22.6" fill="#f472b6" rx="1"/>
  <rect x="536.1" y="189.8" width="19.4" height="100.2" fill="#4ade80" rx="1"/>
  <rect x="536.1" y="164.1" width="19.4" height="25.7" fill="#3aaf60" rx="1"/>
  <rect x="536.1" y="137.2" width="19.4" height="26.9" fill="#4ade80" rx="1"/>
  <text x="507.1" y="306" text-anchor="middle" fill="#e6edf3" font-size="10" font-weight="600">mr</text>
  <text x="507.1" y="318" text-anchor="middle" fill="#7d8590" font-size="9">10.0 MB</text>
  <rect x="587.8" y="280.9" width="19.4" height="9.1" fill="#60a5fa" rx="1"/>
  <rect x="587.8" y="276.5" width="19.4" height="4.4" fill="#4680c4" rx="1"/>
  <rect x="587.8" y="273.2" width="19.4" height="3.3" fill="#60a5fa" rx="1"/>
  <rect x="607.2" y="277.5" width="19.4" height="12.5" fill="#f87171" rx="1"/>
  <rect x="607.2" y="272.3" width="19.4" height="5.3" fill="#c45050" rx="1"/>
  <rect x="607.2" y="263.3" width="19.4" height="8.9" fill="#f87171" rx="1"/>
  <rect x="626.6" y="273.2" width="19.4" height="16.8" fill="#f59e0b" rx="1"/>
  <rect x="626.6" y="268.8" width="19.4" height="4.4" fill="#c47d08" rx="1"/>
  <rect x="626.6" y="261.4" width="19.4" height="7.4" fill="#f59e0b" rx="1"/>
  <rect x="645.9" y="269.3" width="19.4" height="20.7" fill="#f472b6" rx="1"/>
  <rect x="645.9" y="264.1" width="19.4" height="5.3" fill="#c05a92" rx="1"/>
  <rect x="645.9" y="252.5" width="19.4" height="11.6" fill="#f472b6" rx="1"/>
  <rect x="665.3" y="231.0" width="19.4" height="59.0" fill="#4ade80" rx="1"/>
  <rect x="665.3" y="223.4" width="19.4" height="7.6" fill="#3aaf60" rx="1"/>
  <rect x="665.3" y="206.6" width="19.4" height="16.8" fill="#4ade80" rx="1"/>
  <text x="636.2" y="306" text-anchor="middle" fill="#e6edf3" font-size="10" font-weight="600">nci</text>
  <text x="636.2" y="318" text-anchor="middle" fill="#7d8590" font-size="9">33.6 MB</text>
  <rect x="717.0" y="273.2" width="19.4" height="16.8" fill="#60a5fa" rx="1"/>
  <rect x="717.0" y="254.0" width="19.4" height="19.2" fill="#4680c4" rx="1"/>
  <rect x="717.0" y="249.3" width="19.4" height="4.7" fill="#60a5fa" rx="1"/>
  <rect x="736.4" y="268.5" width="19.4" height="21.5" fill="#f87171" rx="1"/>
  <rect x="736.4" y="248.1" width="19.4" height="20.4" fill="#c45050" rx="1"/>
  <rect x="736.4" y="240.3" width="19.4" height="7.8" fill="#f87171" rx="1"/>
  <rect x="755.7" y="261.8" width="19.4" height="28.2" fill="#f59e0b" rx="1"/>
  <rect x="755.7" y="242.6" width="19.4" height="19.2" fill="#c47d08" rx="1"/>
  <rect x="755.7" y="236.3" width="19.4" height="6.3" fill="#f59e0b" rx="1"/>
  <rect x="775.1" y="254.7" width="19.4" height="35.3" fill="#f472b6" rx="1"/>
  <rect x="775.1" y="234.3" width="19.4" height="20.4" fill="#c05a92" rx="1"/>
  <rect x="775.1" y="222.3" width="19.4" height="12.1" fill="#f472b6" rx="1"/>
  <rect x="794.5" y="198.3" width="19.4" height="91.7" fill="#4ade80" rx="1"/>
  <rect x="794.5" y="175.6" width="19.4" height="22.7" fill="#3aaf60" rx="1"/>
  <rect x="794.5" y="159.9" width="19.4" height="15.7" fill="#4ade80" rx="1"/>
  <text x="765.4" y="306" text-anchor="middle" fill="#e6edf3" font-size="10" font-weight="600">osdb</text>
  <text x="765.4" y="318" text-anchor="middle" fill="#7d8590" font-size="9">10.1 MB</text>
  <line x1="55" y1="548.0" x2="830" y2="548.0" stroke="#21262d" stroke-width="1"/>
  <text x="47" y="548.0" text-anchor="end" dominant-baseline="middle" fill="#7d8590" font-size="10">10</text>
  <line x1="55" y1="496.1" x2="830" y2="496.1" stroke="#21262d" stroke-width="1"/>
  <text x="47" y="496.1" text-anchor="end" dominant-baseline="middle" fill="#7d8590" font-size="10">20</text>
  <line x1="55" y1="444.1" x2="830" y2="444.1" stroke="#21262d" stroke-width="1"/>
  <text x="47" y="444.1" text-anchor="end" dominant-baseline="middle" fill="#7d8590" font-size="10">30</text>
  <line x1="55" y1="392.2" x2="830" y2="392.2" stroke="#21262d" stroke-width="1"/>
  <text x="47" y="392.2" text-anchor="end" dominant-baseline="middle" fill="#7d8590" font-size="10">40</text>
  <line x1="55" y1="600" x2="830" y2="600" stroke="#30363d" stroke-width="1.5"/>
  <rect x="71.1" y="575.9" width="19.4" height="24.1" fill="#60a5fa" rx="1"/>
  <rect x="71.1" y="559.1" width="19.4" height="16.8" fill="#4680c4" rx="1"/>
  <rect x="71.1" y="553.6" width="19.4" height="5.5" fill="#60a5fa" rx="1"/>
  <rect x="90.5" y="570.6" width="19.4" height="29.4" fill="#f87171" rx="1"/>
  <rect x="90.5" y="552.0" width="19.4" height="18.6" fill="#c45050" rx="1"/>
  <rect x="90.5" y="538.0" width="19.4" height="14.1" fill="#f87171" rx="1"/>
  <rect x="109.9" y="561.2" width="19.4" height="38.8" fill="#f59e0b" rx="1"/>
  <rect x="109.9" y="544.4" width="19.4" height="16.8" fill="#c47d08" rx="1"/>
  <rect x="109.9" y="535.4" width="19.4" height="9.0" fill="#f59e0b" rx="1"/>
  <rect x="129.3" y="544.8" width="19.4" height="55.2" fill="#f472b6" rx="1"/>
  <rect x="129.3" y="526.3" width="19.4" height="18.6" fill="#c05a92" rx="1"/>
  <rect x="129.3" y="500.6" width="19.4" height="25.7" fill="#f472b6" rx="1"/>
  <rect x="148.6" y="496.4" width="19.4" height="103.6" fill="#4ade80" rx="1"/>
  <rect x="148.6" y="474.9" width="19.4" height="21.6" fill="#3aaf60" rx="1"/>
  <rect x="148.6" y="441.2" width="19.4" height="33.7" fill="#4ade80" rx="1"/>
  <text x="119.6" y="616" text-anchor="middle" fill="#e6edf3" font-size="10" font-weight="600">reymont.pdf</text>
  <text x="119.6" y="628" text-anchor="middle" fill="#7d8590" font-size="9">6.6 MB</text>
  <rect x="200.3" y="585.8" width="19.4" height="14.2" fill="#60a5fa" rx="1"/>
  <rect x="200.3" y="572.6" width="19.4" height="13.2" fill="#4680c4" rx="1"/>
  <rect x="200.3" y="568.5" width="19.4" height="4.1" fill="#60a5fa" rx="1"/>
  <rect x="219.7" y="581.6" width="19.4" height="18.4" fill="#f87171" rx="1"/>
  <rect x="219.7" y="566.8" width="19.4" height="14.8" fill="#c45050" rx="1"/>
  <rect x="219.7" y="555.4" width="19.4" height="11.4" fill="#f87171" rx="1"/>
  <rect x="239.1" y="576.1" width="19.4" height="23.9" fill="#f59e0b" rx="1"/>
  <rect x="239.1" y="562.8" width="19.4" height="13.3" fill="#c47d08" rx="1"/>
  <rect x="239.1" y="556.9" width="19.4" height="6.0" fill="#f59e0b" rx="1"/>
  <rect x="258.4" y="568.5" width="19.4" height="31.5" fill="#f472b6" rx="1"/>
  <rect x="258.4" y="553.7" width="19.4" height="14.8" fill="#c05a92" rx="1"/>
  <rect x="258.4" y="536.3" width="19.4" height="17.4" fill="#f472b6" rx="1"/>
  <rect x="277.8" y="511.8" width="19.4" height="88.2" fill="#4ade80" rx="1"/>
  <rect x="277.8" y="494.2" width="19.4" height="17.6" fill="#3aaf60" rx="1"/>
  <rect x="277.8" y="472.3" width="19.4" height="22.0" fill="#4ade80" rx="1"/>
  <text x="248.8" y="616" text-anchor="middle" fill="#e6edf3" font-size="10" font-weight="600">samba</text>
  <text x="248.8" y="628" text-anchor="middle" fill="#7d8590" font-size="9">21.6 MB</text>
  <rect x="329.5" y="578.1" width="19.4" height="21.9" fill="#60a5fa" rx="1"/>
  <rect x="329.5" y="533.3" width="19.4" height="44.8" fill="#4680c4" rx="1"/>
  <rect x="329.5" y="527.6" width="19.4" height="5.7" fill="#60a5fa" rx="1"/>
  <rect x="348.9" y="579.5" width="19.4" height="20.5" fill="#f87171" rx="1"/>
  <rect x="348.9" y="534.4" width="19.4" height="45.1" fill="#c45050" rx="1"/>
  <rect x="348.9" y="528.7" width="19.4" height="5.6" fill="#f87171" rx="1"/>
  <rect x="368.2" y="564.1" width="19.4" height="35.9" fill="#f59e0b" rx="1"/>
  <rect x="368.2" y="519.3" width="19.4" height="44.8" fill="#c47d08" rx="1"/>
  <rect x="368.2" y="511.3" width="19.4" height="7.9" fill="#f59e0b" rx="1"/>
  <rect x="387.6" y="566.4" width="19.4" height="33.6" fill="#f472b6" rx="1"/>
  <rect x="387.6" y="521.3" width="19.4" height="45.1" fill="#c05a92" rx="1"/>
  <rect x="387.6" y="511.1" width="19.4" height="10.1" fill="#f472b6" rx="1"/>
  <rect x="407.0" y="448.3" width="19.4" height="151.7" fill="#4ade80" rx="1"/>
  <rect x="407.0" y="405.3" width="19.4" height="43.1" fill="#3aaf60" rx="1"/>
  <rect x="407.0" y="386.7" width="19.4" height="18.6" fill="#4ade80" rx="1"/>
  <text x="377.9" y="616" text-anchor="middle" fill="#e6edf3" font-size="10" font-weight="600">sao</text>
  <text x="377.9" y="628" text-anchor="middle" fill="#7d8590" font-size="9">7.3 MB</text>
  <rect x="458.6" y="577.9" width="19.4" height="22.1" fill="#60a5fa" rx="1"/>
  <rect x="458.6" y="560.8" width="19.4" height="17.1" fill="#4680c4" rx="1"/>
  <rect x="458.6" y="555.5" width="19.4" height="5.3" fill="#60a5fa" rx="1"/>
  <rect x="478.0" y="567.9" width="19.4" height="32.1" fill="#f87171" rx="1"/>
  <rect x="478.0" y="549.0" width="19.4" height="18.9" fill="#c45050" rx="1"/>
  <rect x="478.0" y="534.5" width="19.4" height="14.5" fill="#f87171" rx="1"/>
  <rect x="497.4" y="565.8" width="19.4" height="34.2" fill="#f59e0b" rx="1"/>
  <rect x="497.4" y="548.7" width="19.4" height="17.1" fill="#c47d08" rx="1"/>
  <rect x="497.4" y="538.2" width="19.4" height="10.5" fill="#f59e0b" rx="1"/>
  <rect x="516.8" y="545.4" width="19.4" height="54.6" fill="#f472b6" rx="1"/>
  <rect x="516.8" y="526.5" width="19.4" height="18.9" fill="#c05a92" rx="1"/>
  <rect x="516.8" y="500.7" width="19.4" height="25.8" fill="#f472b6" rx="1"/>
  <rect x="536.1" y="493.1" width="19.4" height="106.9" fill="#4ade80" rx="1"/>
  <rect x="536.1" y="472.2" width="19.4" height="20.9" fill="#3aaf60" rx="1"/>
  <rect x="536.1" y="440.7" width="19.4" height="31.5" fill="#4ade80" rx="1"/>
  <text x="507.1" y="616" text-anchor="middle" fill="#e6edf3" font-size="10" font-weight="600">webster</text>
  <text x="507.1" y="628" text-anchor="middle" fill="#7d8590" font-size="9">41.5 MB</text>
  <rect x="587.8" y="591.4" width="19.4" height="8.6" fill="#60a5fa" rx="1"/>
  <rect x="587.8" y="549.8" width="19.4" height="41.5" fill="#4680c4" rx="1"/>
  <rect x="587.8" y="545.0" width="19.4" height="4.8" fill="#60a5fa" rx="1"/>
  <rect x="607.2" y="573.6" width="19.4" height="26.4" fill="#f87171" rx="1"/>
  <rect x="607.2" y="527.1" width="19.4" height="46.4" fill="#c45050" rx="1"/>
  <rect x="607.2" y="520.8" width="19.4" height="6.4" fill="#f87171" rx="1"/>
  <rect x="626.6" y="577.6" width="19.4" height="22.4" fill="#f59e0b" rx="1"/>
  <rect x="626.6" y="536.0" width="19.4" height="41.5" fill="#c47d08" rx="1"/>
  <rect x="626.6" y="529.9" width="19.4" height="6.2" fill="#f59e0b" rx="1"/>
  <rect x="645.9" y="557.7" width="19.4" height="42.3" fill="#f472b6" rx="1"/>
  <rect x="645.9" y="511.2" width="19.4" height="46.4" fill="#c05a92" rx="1"/>
  <rect x="645.9" y="500.6" width="19.4" height="10.6" fill="#f472b6" rx="1"/>
  <rect x="665.3" y="445.3" width="19.4" height="154.7" fill="#4ade80" rx="1"/>
  <rect x="665.3" y="399.7" width="19.4" height="45.7" fill="#3aaf60" rx="1"/>
  <rect x="665.3" y="381.8" width="19.4" height="17.9" fill="#4ade80" rx="1"/>
  <text x="636.2" y="616" text-anchor="middle" fill="#e6edf3" font-size="10" font-weight="600">x-ray</text>
  <text x="636.2" y="628" text-anchor="middle" fill="#7d8590" font-size="9">8.5 MB</text>
  <rect x="717.0" y="589.1" width="19.4" height="10.9" fill="#60a5fa" rx="1"/>
  <rect x="717.0" y="581.8" width="19.4" height="7.3" fill="#4680c4" rx="1"/>
  <rect x="717.0" y="578.4" width="19.4" height="3.4" fill="#60a5fa" rx="1"/>
  <rect x="736.4" y="585.4" width="19.4" height="14.6" fill="#f87171" rx="1"/>
  <rect x="736.4" y="577.1" width="19.4" height="8.3" fill="#c45050" rx="1"/>
  <rect x="736.4" y="570.3" width="19.4" height="6.8" fill="#f87171" rx="1"/>
  <rect x="755.7" y="580.9" width="19.4" height="19.1" fill="#f59e0b" rx="1"/>
  <rect x="755.7" y="573.6" width="19.4" height="7.3" fill="#c47d08" rx="1"/>
  <rect x="755.7" y="568.7" width="19.4" height="4.9" fill="#f59e0b" rx="1"/>
  <rect x="775.1" y="574.9" width="19.4" height="25.1" fill="#f472b6" rx="1"/>
  <rect x="775.1" y="566.6" width="19.4" height="8.3" fill="#c05a92" rx="1"/>
  <rect x="775.1" y="555.6" width="19.4" height="11.0" fill="#f472b6" rx="1"/>
  <rect x="794.5" y="529.9" width="19.4" height="70.1" fill="#4ade80" rx="1"/>
  <rect x="794.5" y="518.3" width="19.4" height="11.6" fill="#3aaf60" rx="1"/>
  <rect x="794.5" y="500.0" width="19.4" height="18.3" fill="#4ade80" rx="1"/>
  <text x="765.4" y="616" text-anchor="middle" fill="#e6edf3" font-size="10" font-weight="600">xml_collection.xml</text>
  <text x="765.4" y="628" text-anchor="middle" fill="#7d8590" font-size="9">5.3 MB</text>
  <rect x="222" y="645" width="12" height="12" fill="#60a5fa" rx="2"/>
  <text x="240" y="655" fill="#e6edf3" font-size="10" font-weight="500">C zstd 1.5.7 (libzstd)</text>
  <rect x="222" y="663" width="12" height="12" fill="#f87171" rx="2"/>
  <text x="240" y="673" fill="#e6edf3" font-size="10" font-weight="500">zrip (encapsulated unsafe, Rust)</text>
  <rect x="222" y="681" width="12" height="12" fill="#f59e0b" rx="2"/>
  <text x="240" y="691" fill="#e6edf3" font-size="10" font-weight="500">structured-zstd 0.0.44 (unsafe Rust)</text>
  <rect x="472" y="645" width="12" height="12" fill="#f472b6" rx="2"/>
  <text x="490" y="655" fill="#e6edf3" font-size="10" font-weight="500">zrip paranoid (safe Rust, no unsafe)</text>
  <rect x="472" y="663" width="12" height="12" fill="#4ade80" rx="2"/>
  <text x="490" y="673" fill="#e6edf3" font-size="10" font-weight="500">ruzstd 0.8.2 (safe Rust)</text>
  <text x="232" y="716" fill="#e6edf3" font-size="9">bright = compress + decompress</text>
  <text x="472" y="716" fill="#7d8590" font-size="9">dim = transfer @100 MB/s</text>
</svg>
