<svg xmlns="http://www.w3.org/2000/svg" viewBox="0 0 850 720" font-family="system-ui, -apple-system, sans-serif">
  <rect width="850" height="720" fill="#0d1117"/>
  <text x="442.5" y="22" text-anchor="middle" fill="#e6edf3" font-size="14" font-weight="700">zstd Pipeline @100 MB/s: Per-file, Level 1 (lower is better)</text>
  <text x="442.5" y="38" text-anchor="middle" fill="#7d8590" font-size="10">Intel Core i7-8700B @ 3.20GHz, performance governor, turbo off</text>
  <line x1="55" y1="237.9" x2="830" y2="237.9" stroke="#21262d" stroke-width="1"/>
  <text x="47" y="237.9" text-anchor="end" dominant-baseline="middle" fill="#7d8590" font-size="10">10</text>
  <line x1="55" y1="185.7" x2="830" y2="185.7" stroke="#21262d" stroke-width="1"/>
  <text x="47" y="185.7" text-anchor="end" dominant-baseline="middle" fill="#7d8590" font-size="10">20</text>
  <line x1="55" y1="133.6" x2="830" y2="133.6" stroke="#21262d" stroke-width="1"/>
  <text x="47" y="133.6" text-anchor="end" dominant-baseline="middle" fill="#7d8590" font-size="10">30</text>
  <line x1="55" y1="81.5" x2="830" y2="81.5" stroke="#21262d" stroke-width="1"/>
  <text x="47" y="81.5" text-anchor="end" dominant-baseline="middle" fill="#7d8590" font-size="10">40</text>
  <line x1="55" y1="290" x2="830" y2="290" stroke="#30363d" stroke-width="1.5"/>
  <text x="22" y="325.0" text-anchor="middle" fill="#e6edf3" font-size="11" font-weight="600" transform="rotate(-90,22,325.0)">seconds / GB</text>
  <rect x="71.1" y="265.4" width="19.4" height="24.6" fill="#60a5fa" rx="1"/>
  <rect x="71.1" y="243.6" width="19.4" height="21.8" fill="#4680c4" rx="1"/>
  <rect x="71.1" y="238.2" width="19.4" height="5.4" fill="#60a5fa" rx="1"/>
  <rect x="90.5" y="252.8" width="19.4" height="37.2" fill="#f87171" rx="1"/>
  <rect x="90.5" y="229.5" width="19.4" height="23.3" fill="#c45050" rx="1"/>
  <rect x="90.5" y="213.8" width="19.4" height="15.7" fill="#f87171" rx="1"/>
  <rect x="109.9" y="250.9" width="19.4" height="39.1" fill="#f59e0b" rx="1"/>
  <rect x="109.9" y="229.1" width="19.4" height="21.8" fill="#c47d08" rx="1"/>
  <rect x="109.9" y="219.5" width="19.4" height="9.6" fill="#f59e0b" rx="1"/>
  <rect x="129.3" y="224.4" width="19.4" height="65.6" fill="#f472b6" rx="1"/>
  <rect x="129.3" y="201.1" width="19.4" height="23.3" fill="#c05a92" rx="1"/>
  <rect x="129.3" y="181.2" width="19.4" height="19.9" fill="#f472b6" rx="1"/>
  <rect x="148.6" y="171.5" width="19.4" height="118.5" fill="#4ade80" rx="1"/>
  <rect x="148.6" y="146.0" width="19.4" height="25.5" fill="#3aaf60" rx="1"/>
  <rect x="148.6" y="106.6" width="19.4" height="39.3" fill="#4ade80" rx="1"/>
  <text x="119.6" y="306" text-anchor="middle" fill="#e6edf3" font-size="10" font-weight="600">dickens</text>
  <text x="119.6" y="318" text-anchor="middle" fill="#7d8590" font-size="9">10.2 MB</text>
  <rect x="200.3" y="284.5" width="19.4" height="5.5" fill="#60a5fa" rx="1"/>
  <rect x="200.3" y="281.9" width="19.4" height="2.6" fill="#4680c4" rx="1"/>
  <rect x="200.3" y="279.9" width="19.4" height="2.0" fill="#60a5fa" rx="1"/>
  <rect x="219.7" y="282.4" width="19.4" height="7.6" fill="#f87171" rx="1"/>
  <rect x="219.7" y="279.4" width="19.4" height="3.0" fill="#c45050" rx="1"/>
  <rect x="219.7" y="275.3" width="19.4" height="4.1" fill="#f87171" rx="1"/>
  <rect x="239.1" y="279.3" width="19.4" height="10.7" fill="#f59e0b" rx="1"/>
  <rect x="239.1" y="276.7" width="19.4" height="2.6" fill="#c47d08" rx="1"/>
  <rect x="239.1" y="273.6" width="19.4" height="3.1" fill="#f59e0b" rx="1"/>
  <rect x="258.4" y="277.3" width="19.4" height="12.7" fill="#f472b6" rx="1"/>
  <rect x="258.4" y="274.3" width="19.4" height="3.0" fill="#c05a92" rx="1"/>
  <rect x="258.4" y="269.6" width="19.4" height="4.6" fill="#f472b6" rx="1"/>
  <rect x="277.8" y="240.7" width="19.4" height="49.3" fill="#4ade80" rx="1"/>
  <rect x="277.8" y="235.7" width="19.4" height="5.0" fill="#3aaf60" rx="1"/>
  <rect x="277.8" y="226.6" width="19.4" height="9.1" fill="#4ade80" rx="1"/>
  <text x="248.8" y="306" text-anchor="middle" fill="#e6edf3" font-size="10" font-weight="600">hdfs.json</text>
  <text x="248.8" y="318" text-anchor="middle" fill="#7d8590" font-size="9">7.0 MB</text>
  <rect x="329.5" y="272.2" width="19.4" height="17.8" fill="#60a5fa" rx="1"/>
  <rect x="329.5" y="251.9" width="19.4" height="20.3" fill="#4680c4" rx="1"/>
  <rect x="329.5" y="246.1" width="19.4" height="5.8" fill="#60a5fa" rx="1"/>
  <rect x="348.9" y="265.8" width="19.4" height="24.2" fill="#f87171" rx="1"/>
  <rect x="348.9" y="244.4" width="19.4" height="21.4" fill="#c45050" rx="1"/>
  <rect x="348.9" y="230.8" width="19.4" height="13.6" fill="#f87171" rx="1"/>
  <rect x="368.2" y="259.0" width="19.4" height="31.0" fill="#f59e0b" rx="1"/>
  <rect x="368.2" y="238.4" width="19.4" height="20.5" fill="#c47d08" rx="1"/>
  <rect x="368.2" y="226.9" width="19.4" height="11.5" fill="#f59e0b" rx="1"/>
  <rect x="387.6" y="248.7" width="19.4" height="41.3" fill="#f472b6" rx="1"/>
  <rect x="387.6" y="227.3" width="19.4" height="21.4" fill="#c05a92" rx="1"/>
  <rect x="387.6" y="211.5" width="19.4" height="15.8" fill="#f472b6" rx="1"/>
  <rect x="407.0" y="183.7" width="19.4" height="106.3" fill="#4ade80" rx="1"/>
  <rect x="407.0" y="157.1" width="19.4" height="26.5" fill="#3aaf60" rx="1"/>
  <rect x="407.0" y="135.1" width="19.4" height="22.0" fill="#4ade80" rx="1"/>
  <text x="377.9" y="306" text-anchor="middle" fill="#e6edf3" font-size="10" font-weight="600">mozilla</text>
  <text x="377.9" y="318" text-anchor="middle" fill="#7d8590" font-size="9">51.2 MB</text>
  <rect x="458.6" y="271.9" width="19.4" height="18.1" fill="#60a5fa" rx="1"/>
  <rect x="458.6" y="251.9" width="19.4" height="19.9" fill="#4680c4" rx="1"/>
  <rect x="458.6" y="247.1" width="19.4" height="4.8" fill="#60a5fa" rx="1"/>
  <rect x="478.0" y="260.3" width="19.4" height="29.7" fill="#f87171" rx="1"/>
  <rect x="478.0" y="238.9" width="19.4" height="21.3" fill="#c45050" rx="1"/>
  <rect x="478.0" y="225.8" width="19.4" height="13.2" fill="#f87171" rx="1"/>
  <rect x="497.4" y="258.0" width="19.4" height="32.0" fill="#f59e0b" rx="1"/>
  <rect x="497.4" y="238.1" width="19.4" height="19.9" fill="#c47d08" rx="1"/>
  <rect x="497.4" y="230.3" width="19.4" height="7.8" fill="#f59e0b" rx="1"/>
  <rect x="516.8" y="236.6" width="19.4" height="53.4" fill="#f472b6" rx="1"/>
  <rect x="516.8" y="215.3" width="19.4" height="21.3" fill="#c05a92" rx="1"/>
  <rect x="516.8" y="199.7" width="19.4" height="15.6" fill="#f472b6" rx="1"/>
  <rect x="536.1" y="190.0" width="19.4" height="100.0" fill="#4ade80" rx="1"/>
  <rect x="536.1" y="164.2" width="19.4" height="25.8" fill="#3aaf60" rx="1"/>
  <rect x="536.1" y="136.8" width="19.4" height="27.4" fill="#4ade80" rx="1"/>
  <text x="507.1" y="306" text-anchor="middle" fill="#e6edf3" font-size="10" font-weight="600">mr</text>
  <text x="507.1" y="318" text-anchor="middle" fill="#7d8590" font-size="9">10.0 MB</text>
  <rect x="587.8" y="280.8" width="19.4" height="9.2" fill="#60a5fa" rx="1"/>
  <rect x="587.8" y="276.4" width="19.4" height="4.4" fill="#4680c4" rx="1"/>
  <rect x="587.8" y="273.1" width="19.4" height="3.3" fill="#60a5fa" rx="1"/>
  <rect x="607.2" y="277.5" width="19.4" height="12.5" fill="#f87171" rx="1"/>
  <rect x="607.2" y="272.2" width="19.4" height="5.3" fill="#c45050" rx="1"/>
  <rect x="607.2" y="262.9" width="19.4" height="9.3" fill="#f87171" rx="1"/>
  <rect x="626.6" y="273.2" width="19.4" height="16.8" fill="#f59e0b" rx="1"/>
  <rect x="626.6" y="268.8" width="19.4" height="4.4" fill="#c47d08" rx="1"/>
  <rect x="626.6" y="261.1" width="19.4" height="7.7" fill="#f59e0b" rx="1"/>
  <rect x="645.9" y="269.2" width="19.4" height="20.8" fill="#f472b6" rx="1"/>
  <rect x="645.9" y="264.0" width="19.4" height="5.3" fill="#c05a92" rx="1"/>
  <rect x="645.9" y="253.7" width="19.4" height="10.2" fill="#f472b6" rx="1"/>
  <rect x="665.3" y="231.0" width="19.4" height="59.0" fill="#4ade80" rx="1"/>
  <rect x="665.3" y="223.3" width="19.4" height="7.7" fill="#3aaf60" rx="1"/>
  <rect x="665.3" y="206.4" width="19.4" height="17.0" fill="#4ade80" rx="1"/>
  <text x="636.2" y="306" text-anchor="middle" fill="#e6edf3" font-size="10" font-weight="600">nci</text>
  <text x="636.2" y="318" text-anchor="middle" fill="#7d8590" font-size="9">33.6 MB</text>
  <rect x="717.0" y="273.1" width="19.4" height="16.9" fill="#60a5fa" rx="1"/>
  <rect x="717.0" y="253.8" width="19.4" height="19.3" fill="#4680c4" rx="1"/>
  <rect x="717.0" y="249.1" width="19.4" height="4.7" fill="#60a5fa" rx="1"/>
  <rect x="736.4" y="268.3" width="19.4" height="21.7" fill="#f87171" rx="1"/>
  <rect x="736.4" y="247.8" width="19.4" height="20.5" fill="#c45050" rx="1"/>
  <rect x="736.4" y="240.1" width="19.4" height="7.7" fill="#f87171" rx="1"/>
  <rect x="755.7" y="261.7" width="19.4" height="28.3" fill="#f59e0b" rx="1"/>
  <rect x="755.7" y="242.4" width="19.4" height="19.3" fill="#c47d08" rx="1"/>
  <rect x="755.7" y="235.7" width="19.4" height="6.7" fill="#f59e0b" rx="1"/>
  <rect x="775.1" y="254.5" width="19.4" height="35.5" fill="#f472b6" rx="1"/>
  <rect x="775.1" y="234.0" width="19.4" height="20.5" fill="#c05a92" rx="1"/>
  <rect x="775.1" y="224.7" width="19.4" height="9.3" fill="#f472b6" rx="1"/>
  <rect x="794.5" y="198.2" width="19.4" height="91.8" fill="#4ade80" rx="1"/>
  <rect x="794.5" y="175.4" width="19.4" height="22.8" fill="#3aaf60" rx="1"/>
  <rect x="794.5" y="159.6" width="19.4" height="15.8" fill="#4ade80" rx="1"/>
  <text x="765.4" y="306" text-anchor="middle" fill="#e6edf3" font-size="10" font-weight="600">osdb</text>
  <text x="765.4" y="318" text-anchor="middle" fill="#7d8590" font-size="9">10.1 MB</text>
  <line x1="55" y1="547.9" x2="830" y2="547.9" stroke="#21262d" stroke-width="1"/>
  <text x="47" y="547.9" text-anchor="end" dominant-baseline="middle" fill="#7d8590" font-size="10">10</text>
  <line x1="55" y1="495.7" x2="830" y2="495.7" stroke="#21262d" stroke-width="1"/>
  <text x="47" y="495.7" text-anchor="end" dominant-baseline="middle" fill="#7d8590" font-size="10">20</text>
  <line x1="55" y1="443.6" x2="830" y2="443.6" stroke="#21262d" stroke-width="1"/>
  <text x="47" y="443.6" text-anchor="end" dominant-baseline="middle" fill="#7d8590" font-size="10">30</text>
  <line x1="55" y1="391.5" x2="830" y2="391.5" stroke="#21262d" stroke-width="1"/>
  <text x="47" y="391.5" text-anchor="end" dominant-baseline="middle" fill="#7d8590" font-size="10">40</text>
  <line x1="55" y1="600" x2="830" y2="600" stroke="#30363d" stroke-width="1.5"/>
  <rect x="71.1" y="576.2" width="19.4" height="23.8" fill="#60a5fa" rx="1"/>
  <rect x="71.1" y="559.3" width="19.4" height="16.9" fill="#4680c4" rx="1"/>
  <rect x="71.1" y="553.7" width="19.4" height="5.5" fill="#60a5fa" rx="1"/>
  <rect x="90.5" y="570.1" width="19.4" height="29.9" fill="#f87171" rx="1"/>
  <rect x="90.5" y="551.4" width="19.4" height="18.6" fill="#c45050" rx="1"/>
  <rect x="90.5" y="537.6" width="19.4" height="13.9" fill="#f87171" rx="1"/>
  <rect x="109.9" y="561.3" width="19.4" height="38.7" fill="#f59e0b" rx="1"/>
  <rect x="109.9" y="544.4" width="19.4" height="16.9" fill="#c47d08" rx="1"/>
  <rect x="109.9" y="535.0" width="19.4" height="9.4" fill="#f59e0b" rx="1"/>
  <rect x="129.3" y="544.6" width="19.4" height="55.4" fill="#f472b6" rx="1"/>
  <rect x="129.3" y="526.0" width="19.4" height="18.6" fill="#c05a92" rx="1"/>
  <rect x="129.3" y="508.3" width="19.4" height="17.7" fill="#f472b6" rx="1"/>
  <rect x="148.6" y="497.5" width="19.4" height="102.5" fill="#4ade80" rx="1"/>
  <rect x="148.6" y="475.9" width="19.4" height="21.6" fill="#3aaf60" rx="1"/>
  <rect x="148.6" y="441.9" width="19.4" height="33.9" fill="#4ade80" rx="1"/>
  <text x="119.6" y="616" text-anchor="middle" fill="#e6edf3" font-size="10" font-weight="600">reymont.pdf</text>
  <text x="119.6" y="628" text-anchor="middle" fill="#7d8590" font-size="9">6.6 MB</text>
  <rect x="200.3" y="585.8" width="19.4" height="14.2" fill="#60a5fa" rx="1"/>
  <rect x="200.3" y="572.6" width="19.4" height="13.2" fill="#4680c4" rx="1"/>
  <rect x="200.3" y="568.4" width="19.4" height="4.1" fill="#60a5fa" rx="1"/>
  <rect x="219.7" y="581.4" width="19.4" height="18.6" fill="#f87171" rx="1"/>
  <rect x="219.7" y="566.5" width="19.4" height="14.9" fill="#c45050" rx="1"/>
  <rect x="219.7" y="554.7" width="19.4" height="11.9" fill="#f87171" rx="1"/>
  <rect x="239.1" y="576.2" width="19.4" height="23.8" fill="#f59e0b" rx="1"/>
  <rect x="239.1" y="562.9" width="19.4" height="13.3" fill="#c47d08" rx="1"/>
  <rect x="239.1" y="556.7" width="19.4" height="6.2" fill="#f59e0b" rx="1"/>
  <rect x="258.4" y="568.3" width="19.4" height="31.7" fill="#f472b6" rx="1"/>
  <rect x="258.4" y="553.4" width="19.4" height="14.9" fill="#c05a92" rx="1"/>
  <rect x="258.4" y="539.4" width="19.4" height="14.0" fill="#f472b6" rx="1"/>
  <rect x="277.8" y="512.2" width="19.4" height="87.8" fill="#4ade80" rx="1"/>
  <rect x="277.8" y="494.6" width="19.4" height="17.6" fill="#3aaf60" rx="1"/>
  <rect x="277.8" y="472.5" width="19.4" height="22.0" fill="#4ade80" rx="1"/>
  <text x="248.8" y="616" text-anchor="middle" fill="#e6edf3" font-size="10" font-weight="600">samba</text>
  <text x="248.8" y="628" text-anchor="middle" fill="#7d8590" font-size="9">21.6 MB</text>
  <rect x="329.5" y="578.5" width="19.4" height="21.5" fill="#60a5fa" rx="1"/>
  <rect x="329.5" y="533.6" width="19.4" height="44.9" fill="#4680c4" rx="1"/>
  <rect x="329.5" y="527.8" width="19.4" height="5.8" fill="#60a5fa" rx="1"/>
  <rect x="348.9" y="579.2" width="19.4" height="20.8" fill="#f87171" rx="1"/>
  <rect x="348.9" y="533.9" width="19.4" height="45.3" fill="#c45050" rx="1"/>
  <rect x="348.9" y="527.6" width="19.4" height="6.3" fill="#f87171" rx="1"/>
  <rect x="368.2" y="563.9" width="19.4" height="36.1" fill="#f59e0b" rx="1"/>
  <rect x="368.2" y="519.0" width="19.4" height="44.9" fill="#c47d08" rx="1"/>
  <rect x="368.2" y="510.7" width="19.4" height="8.3" fill="#f59e0b" rx="1"/>
  <rect x="387.6" y="566.2" width="19.4" height="33.8" fill="#f472b6" rx="1"/>
  <rect x="387.6" y="520.9" width="19.4" height="45.3" fill="#c05a92" rx="1"/>
  <rect x="387.6" y="513.5" width="19.4" height="7.5" fill="#f472b6" rx="1"/>
  <rect x="407.0" y="448.1" width="19.4" height="151.9" fill="#4ade80" rx="1"/>
  <rect x="407.0" y="404.9" width="19.4" height="43.2" fill="#3aaf60" rx="1"/>
  <rect x="407.0" y="386.0" width="19.4" height="18.9" fill="#4ade80" rx="1"/>
  <text x="377.9" y="616" text-anchor="middle" fill="#e6edf3" font-size="10" font-weight="600">sao</text>
  <text x="377.9" y="628" text-anchor="middle" fill="#7d8590" font-size="9">7.3 MB</text>
  <rect x="458.6" y="578.0" width="19.4" height="22.0" fill="#60a5fa" rx="1"/>
  <rect x="458.6" y="560.8" width="19.4" height="17.2" fill="#4680c4" rx="1"/>
  <rect x="458.6" y="555.5" width="19.4" height="5.3" fill="#60a5fa" rx="1"/>
  <rect x="478.0" y="567.5" width="19.4" height="32.5" fill="#f87171" rx="1"/>
  <rect x="478.0" y="548.5" width="19.4" height="19.0" fill="#c45050" rx="1"/>
  <rect x="478.0" y="532.9" width="19.4" height="15.6" fill="#f87171" rx="1"/>
  <rect x="497.4" y="565.8" width="19.4" height="34.2" fill="#f59e0b" rx="1"/>
  <rect x="497.4" y="548.6" width="19.4" height="17.2" fill="#c47d08" rx="1"/>
  <rect x="497.4" y="537.5" width="19.4" height="11.1" fill="#f59e0b" rx="1"/>
  <rect x="516.8" y="545.1" width="19.4" height="54.9" fill="#f472b6" rx="1"/>
  <rect x="516.8" y="526.1" width="19.4" height="19.0" fill="#c05a92" rx="1"/>
  <rect x="516.8" y="506.7" width="19.4" height="19.4" fill="#f472b6" rx="1"/>
  <rect x="536.1" y="493.2" width="19.4" height="106.8" fill="#4ade80" rx="1"/>
  <rect x="536.1" y="472.2" width="19.4" height="20.9" fill="#3aaf60" rx="1"/>
  <rect x="536.1" y="440.7" width="19.4" height="31.5" fill="#4ade80" rx="1"/>
  <text x="507.1" y="616" text-anchor="middle" fill="#e6edf3" font-size="10" font-weight="600">webster</text>
  <text x="507.1" y="628" text-anchor="middle" fill="#7d8590" font-size="9">41.5 MB</text>
  <rect x="587.8" y="591.3" width="19.4" height="8.7" fill="#60a5fa" rx="1"/>
  <rect x="587.8" y="549.7" width="19.4" height="41.7" fill="#4680c4" rx="1"/>
  <rect x="587.8" y="544.8" width="19.4" height="4.8" fill="#60a5fa" rx="1"/>
  <rect x="607.2" y="573.3" width="19.4" height="26.7" fill="#f87171" rx="1"/>
  <rect x="607.2" y="526.7" width="19.4" height="46.6" fill="#c45050" rx="1"/>
  <rect x="607.2" y="518.8" width="19.4" height="7.9" fill="#f87171" rx="1"/>
  <rect x="626.6" y="577.6" width="19.4" height="22.4" fill="#f59e0b" rx="1"/>
  <rect x="626.6" y="535.9" width="19.4" height="41.7" fill="#c47d08" rx="1"/>
  <rect x="626.6" y="529.5" width="19.4" height="6.4" fill="#f59e0b" rx="1"/>
  <rect x="645.9" y="557.5" width="19.4" height="42.5" fill="#f472b6" rx="1"/>
  <rect x="645.9" y="510.9" width="19.4" height="46.6" fill="#c05a92" rx="1"/>
  <rect x="645.9" y="502.2" width="19.4" height="8.7" fill="#f472b6" rx="1"/>
  <rect x="665.3" y="445.9" width="19.4" height="154.1" fill="#4ade80" rx="1"/>
  <rect x="665.3" y="400.1" width="19.4" height="45.8" fill="#3aaf60" rx="1"/>
  <rect x="665.3" y="381.8" width="19.4" height="18.3" fill="#4ade80" rx="1"/>
  <text x="636.2" y="616" text-anchor="middle" fill="#e6edf3" font-size="10" font-weight="600">x-ray</text>
  <text x="636.2" y="628" text-anchor="middle" fill="#7d8590" font-size="9">8.5 MB</text>
  <rect x="717.0" y="589.2" width="19.4" height="10.8" fill="#60a5fa" rx="1"/>
  <rect x="717.0" y="581.9" width="19.4" height="7.3" fill="#4680c4" rx="1"/>
  <rect x="717.0" y="578.4" width="19.4" height="3.5" fill="#60a5fa" rx="1"/>
  <rect x="736.4" y="585.2" width="19.4" height="14.8" fill="#f87171" rx="1"/>
  <rect x="736.4" y="576.9" width="19.4" height="8.3" fill="#c45050" rx="1"/>
  <rect x="736.4" y="569.7" width="19.4" height="7.1" fill="#f87171" rx="1"/>
  <rect x="755.7" y="580.9" width="19.4" height="19.1" fill="#f59e0b" rx="1"/>
  <rect x="755.7" y="573.6" width="19.4" height="7.3" fill="#c47d08" rx="1"/>
  <rect x="755.7" y="568.5" width="19.4" height="5.1" fill="#f59e0b" rx="1"/>
  <rect x="775.1" y="574.7" width="19.4" height="25.3" fill="#f472b6" rx="1"/>
  <rect x="775.1" y="566.4" width="19.4" height="8.3" fill="#c05a92" rx="1"/>
  <rect x="775.1" y="557.8" width="19.4" height="8.6" fill="#f472b6" rx="1"/>
  <rect x="794.5" y="530.2" width="19.4" height="69.8" fill="#4ade80" rx="1"/>
  <rect x="794.5" y="518.5" width="19.4" height="11.7" fill="#3aaf60" rx="1"/>
  <rect x="794.5" y="500.0" width="19.4" height="18.5" fill="#4ade80" rx="1"/>
  <text x="765.4" y="616" text-anchor="middle" fill="#e6edf3" font-size="10" font-weight="600">xml_collection.xml</text>
  <text x="765.4" y="628" text-anchor="middle" fill="#7d8590" font-size="9">5.3 MB</text>
  <rect x="222" y="645" width="12" height="12" fill="#60a5fa" rx="2"/>
  <text x="240" y="655" fill="#e6edf3" font-size="10" font-weight="500">libzstd v1.5.7 (C)</text>
  <rect x="222" y="663" width="12" height="12" fill="#f87171" rx="2"/>
  <text x="240" y="673" fill="#e6edf3" font-size="10" font-weight="500">zrip (safe SIMD + encapsulated unsafe)</text>
  <rect x="222" y="681" width="12" height="12" fill="#f59e0b" rx="2"/>
  <text x="240" y="691" fill="#e6edf3" font-size="10" font-weight="500">structured-zstd v0.0.45 (unsafe)</text>
  <rect x="472" y="645" width="12" height="12" fill="#f472b6" rx="2"/>
  <text x="490" y="655" fill="#e6edf3" font-size="10" font-weight="500">zrip paranoid (safe SIMD, no unsafe)</text>
  <rect x="472" y="663" width="12" height="12" fill="#4ade80" rx="2"/>
  <text x="490" y="673" fill="#e6edf3" font-size="10" font-weight="500">ruzstd v0.8.3 (safe)</text>
  <text x="232" y="716" fill="#e6edf3" font-size="9">bright = compress + decompress</text>
  <text x="472" y="716" fill="#7d8590" font-size="9">dim = transfer @100 MB/s</text>
</svg>
