<svg viewBox="0 0 850 787" xmlns="http://www.w3.org/2000/svg" font-family="system-ui, -apple-system, sans-serif">
<rect x="0" y="0" width="850" height="787" opacity="1" fill="#0D1117" stroke="none"/>
<text x="425" y="22" dy="0.5ex" text-anchor="middle" font-family="sans-serif" font-size="12.096774193548388" opacity="1" fill="#E6EDF3" font-weight="bold">
12-file Silesia: Per-file pipeline @100 MB/s, Level 1 (lower is better)
</text>
<text x="425" y="40" dy="0.5ex" text-anchor="middle" font-family="sans-serif" font-size="8.870967741935484" opacity="1" fill="#7D8590">
Linux VM on a 2018 Mac Mini, Intel Core i7-8700B @ 3.20GHz, 6 cores, performance governor, turbo off
</text>
<text x="22" y="337" dy="0.5ex" text-anchor="middle" font-family="sans-serif" font-size="9.67741935483871" opacity="1" fill="#E6EDF3" font-weight="bold" transform="rotate(270, 22, 337)">
seconds / GB
</text>
<polyline fill="none" opacity="1" stroke="#21262D" stroke-width="1" points="55,249 830,249 "/>
<text x="47" y="249" dy="0.5ex" text-anchor="end" font-family="sans-serif" font-size="8.870967741935484" opacity="1" fill="#7D8590">
10
</text>
<polyline fill="none" opacity="1" stroke="#21262D" stroke-width="1" points="55,197 830,197 "/>
<text x="47" y="197" dy="0.5ex" text-anchor="end" font-family="sans-serif" font-size="8.870967741935484" opacity="1" fill="#7D8590">
20
</text>
<polyline fill="none" opacity="1" stroke="#21262D" stroke-width="1" points="55,144 830,144 "/>
<text x="47" y="144" dy="0.5ex" text-anchor="end" font-family="sans-serif" font-size="8.870967741935484" opacity="1" fill="#7D8590">
30
</text>
<polyline fill="none" opacity="1" stroke="#21262D" stroke-width="1" points="55,92 830,92 "/>
<text x="47" y="92" dy="0.5ex" text-anchor="end" font-family="sans-serif" font-size="8.870967741935484" opacity="1" fill="#7D8590">
40
</text>
<polyline fill="none" opacity="1" stroke="#30363D" stroke-width="2" points="55,302 830,302 "/>
<rect x="71" y="278" width="20" height="24" opacity="1" fill="#60A5FA" stroke="none"/>
<rect x="71" y="256" width="20" height="22" opacity="1" fill="#4680C4" stroke="none"/>
<rect x="71" y="250" width="20" height="6" opacity="1" fill="#60A5FA" stroke="none"/>
<rect x="91" y="261" width="19" height="41" opacity="1" fill="#F87171" stroke="none"/>
<rect x="91" y="238" width="19" height="23" opacity="1" fill="#C45050" stroke="none"/>
<rect x="91" y="223" width="19" height="15" opacity="1" fill="#F87171" stroke="none"/>
<rect x="110" y="264" width="19" height="38" opacity="1" fill="#F59E0B" stroke="none"/>
<rect x="110" y="243" width="19" height="21" opacity="1" fill="#C47D08" stroke="none"/>
<rect x="110" y="233" width="19" height="10" opacity="1" fill="#F59E0B" stroke="none"/>
<rect x="129" y="245" width="20" height="57" opacity="1" fill="#F472B6" stroke="none"/>
<rect x="129" y="221" width="20" height="24" opacity="1" fill="#C05A92" stroke="none"/>
<rect x="129" y="202" width="20" height="19" opacity="1" fill="#F472B6" stroke="none"/>
<rect x="149" y="185" width="19" height="117" opacity="1" fill="#4ADE80" stroke="none"/>
<rect x="149" y="159" width="19" height="26" opacity="1" fill="#3AAF60" stroke="none"/>
<rect x="149" y="120" width="19" height="39" opacity="1" fill="#4ADE80" stroke="none"/>
<text x="120" y="319" dy="0.5ex" text-anchor="middle" font-family="sans-serif" font-size="8.870967741935484" opacity="1" fill="#E6EDF3" font-weight="bold">
dickens
</text>
<text x="120" y="334" dy="0.5ex" text-anchor="middle" font-family="sans-serif" font-size="8.064516129032258" opacity="1" fill="#7D8590">
10.2 MB
</text>
<rect x="200" y="285" width="20" height="17" opacity="1" fill="#60A5FA" stroke="none"/>
<rect x="200" y="265" width="20" height="20" opacity="1" fill="#4680C4" stroke="none"/>
<rect x="200" y="259" width="20" height="6" opacity="1" fill="#60A5FA" stroke="none"/>
<rect x="220" y="275" width="19" height="27" opacity="1" fill="#F87171" stroke="none"/>
<rect x="220" y="253" width="19" height="22" opacity="1" fill="#C45050" stroke="none"/>
<rect x="220" y="241" width="19" height="12" opacity="1" fill="#F87171" stroke="none"/>
<rect x="239" y="271" width="19" height="31" opacity="1" fill="#F59E0B" stroke="none"/>
<rect x="239" y="251" width="19" height="20" opacity="1" fill="#C47D08" stroke="none"/>
<rect x="239" y="240" width="19" height="11" opacity="1" fill="#F59E0B" stroke="none"/>
<rect x="258" y="265" width="20" height="37" opacity="1" fill="#F472B6" stroke="none"/>
<rect x="258" y="243" width="20" height="22" opacity="1" fill="#C05A92" stroke="none"/>
<rect x="258" y="229" width="20" height="14" opacity="1" fill="#F472B6" stroke="none"/>
<rect x="278" y="194" width="19" height="108" opacity="1" fill="#4ADE80" stroke="none"/>
<rect x="278" y="168" width="19" height="26" opacity="1" fill="#3AAF60" stroke="none"/>
<rect x="278" y="146" width="19" height="22" opacity="1" fill="#4ADE80" stroke="none"/>
<text x="249" y="319" dy="0.5ex" text-anchor="middle" font-family="sans-serif" font-size="8.870967741935484" opacity="1" fill="#E6EDF3" font-weight="bold">
mozilla
</text>
<text x="249" y="334" dy="0.5ex" text-anchor="middle" font-family="sans-serif" font-size="8.064516129032258" opacity="1" fill="#7D8590">
51.2 MB
</text>
<rect x="329" y="284" width="20" height="18" opacity="1" fill="#60A5FA" stroke="none"/>
<rect x="329" y="264" width="20" height="20" opacity="1" fill="#4680C4" stroke="none"/>
<rect x="329" y="259" width="20" height="5" opacity="1" fill="#60A5FA" stroke="none"/>
<rect x="349" y="269" width="19" height="33" opacity="1" fill="#F87171" stroke="none"/>
<rect x="349" y="247" width="19" height="22" opacity="1" fill="#C45050" stroke="none"/>
<rect x="349" y="234" width="19" height="13" opacity="1" fill="#F87171" stroke="none"/>
<rect x="368" y="271" width="20" height="31" opacity="1" fill="#F59E0B" stroke="none"/>
<rect x="368" y="251" width="20" height="20" opacity="1" fill="#C47D08" stroke="none"/>
<rect x="368" y="243" width="20" height="8" opacity="1" fill="#F59E0B" stroke="none"/>
<rect x="388" y="255" width="19" height="47" opacity="1" fill="#F472B6" stroke="none"/>
<rect x="388" y="234" width="19" height="21" opacity="1" fill="#C05A92" stroke="none"/>
<rect x="388" y="218" width="19" height="16" opacity="1" fill="#F472B6" stroke="none"/>
<rect x="407" y="201" width="19" height="101" opacity="1" fill="#4ADE80" stroke="none"/>
<rect x="407" y="175" width="19" height="26" opacity="1" fill="#3AAF60" stroke="none"/>
<rect x="407" y="148" width="19" height="27" opacity="1" fill="#4ADE80" stroke="none"/>
<text x="378" y="319" dy="0.5ex" text-anchor="middle" font-family="sans-serif" font-size="8.870967741935484" opacity="1" fill="#E6EDF3" font-weight="bold">
mr
</text>
<text x="378" y="334" dy="0.5ex" text-anchor="middle" font-family="sans-serif" font-size="8.064516129032258" opacity="1" fill="#7D8590">
10.0 MB
</text>
<rect x="459" y="293" width="19" height="9" opacity="1" fill="#60A5FA" stroke="none"/>
<rect x="459" y="289" width="19" height="4" opacity="1" fill="#4680C4" stroke="none"/>
<rect x="459" y="286" width="19" height="3" opacity="1" fill="#60A5FA" stroke="none"/>
<rect x="478" y="288" width="19" height="14" opacity="1" fill="#F87171" stroke="none"/>
<rect x="478" y="283" width="19" height="5" opacity="1" fill="#C45050" stroke="none"/>
<rect x="478" y="276" width="19" height="7" opacity="1" fill="#F87171" stroke="none"/>
<rect x="497" y="286" width="20" height="16" opacity="1" fill="#F59E0B" stroke="none"/>
<rect x="497" y="281" width="20" height="5" opacity="1" fill="#C47D08" stroke="none"/>
<rect x="497" y="274" width="20" height="7" opacity="1" fill="#F59E0B" stroke="none"/>
<rect x="517" y="283" width="19" height="19" opacity="1" fill="#F472B6" stroke="none"/>
<rect x="517" y="278" width="19" height="5" opacity="1" fill="#C05A92" stroke="none"/>
<rect x="517" y="270" width="19" height="8" opacity="1" fill="#F472B6" stroke="none"/>
<rect x="536" y="244" width="20" height="58" opacity="1" fill="#4ADE80" stroke="none"/>
<rect x="536" y="236" width="20" height="8" opacity="1" fill="#3AAF60" stroke="none"/>
<rect x="536" y="222" width="20" height="14" opacity="1" fill="#4ADE80" stroke="none"/>
<text x="507" y="319" dy="0.5ex" text-anchor="middle" font-family="sans-serif" font-size="8.870967741935484" opacity="1" fill="#E6EDF3" font-weight="bold">
nci
</text>
<text x="507" y="334" dy="0.5ex" text-anchor="middle" font-family="sans-serif" font-size="8.064516129032258" opacity="1" fill="#7D8590">
33.6 MB
</text>
<rect x="588" y="282" width="19" height="20" opacity="1" fill="#60A5FA" stroke="none"/>
<rect x="588" y="251" width="19" height="31" opacity="1" fill="#4680C4" stroke="none"/>
<rect x="588" y="245" width="19" height="6" opacity="1" fill="#60A5FA" stroke="none"/>
<rect x="607" y="264" width="20" height="38" opacity="1" fill="#F87171" stroke="none"/>
<rect x="607" y="235" width="20" height="29" opacity="1" fill="#C45050" stroke="none"/>
<rect x="607" y="220" width="20" height="15" opacity="1" fill="#F87171" stroke="none"/>
<rect x="627" y="266" width="19" height="36" opacity="1" fill="#F59E0B" stroke="none"/>
<rect x="627" y="235" width="19" height="31" opacity="1" fill="#C47D08" stroke="none"/>
<rect x="627" y="226" width="19" height="9" opacity="1" fill="#F59E0B" stroke="none"/>
<rect x="646" y="251" width="19" height="51" opacity="1" fill="#F472B6" stroke="none"/>
<rect x="646" y="221" width="19" height="30" opacity="1" fill="#C05A92" stroke="none"/>
<rect x="646" y="204" width="19" height="17" opacity="1" fill="#F472B6" stroke="none"/>
<rect x="665" y="172" width="20" height="130" opacity="1" fill="#4ADE80" stroke="none"/>
<rect x="665" y="137" width="20" height="35" opacity="1" fill="#3AAF60" stroke="none"/>
<rect x="665" y="114" width="20" height="23" opacity="1" fill="#4ADE80" stroke="none"/>
<text x="636" y="319" dy="0.5ex" text-anchor="middle" font-family="sans-serif" font-size="8.870967741935484" opacity="1" fill="#E6EDF3" font-weight="bold">
ooffice
</text>
<text x="636" y="334" dy="0.5ex" text-anchor="middle" font-family="sans-serif" font-size="8.064516129032258" opacity="1" fill="#7D8590">
6.2 MB
</text>
<rect x="717" y="285" width="19" height="17" opacity="1" fill="#60A5FA" stroke="none"/>
<rect x="717" y="266" width="19" height="19" opacity="1" fill="#4680C4" stroke="none"/>
<rect x="717" y="261" width="19" height="5" opacity="1" fill="#60A5FA" stroke="none"/>
<rect x="736" y="279" width="20" height="23" opacity="1" fill="#F87171" stroke="none"/>
<rect x="736" y="259" width="20" height="20" opacity="1" fill="#C45050" stroke="none"/>
<rect x="736" y="251" width="20" height="8" opacity="1" fill="#F87171" stroke="none"/>
<rect x="756" y="274" width="19" height="28" opacity="1" fill="#F59E0B" stroke="none"/>
<rect x="756" y="254" width="19" height="20" opacity="1" fill="#C47D08" stroke="none"/>
<rect x="756" y="248" width="19" height="6" opacity="1" fill="#F59E0B" stroke="none"/>
<rect x="775" y="270" width="19" height="32" opacity="1" fill="#F472B6" stroke="none"/>
<rect x="775" y="249" width="19" height="21" opacity="1" fill="#C05A92" stroke="none"/>
<rect x="775" y="240" width="19" height="9" opacity="1" fill="#F472B6" stroke="none"/>
<rect x="794" y="213" width="20" height="89" opacity="1" fill="#4ADE80" stroke="none"/>
<rect x="794" y="190" width="20" height="23" opacity="1" fill="#3AAF60" stroke="none"/>
<rect x="794" y="174" width="20" height="16" opacity="1" fill="#4ADE80" stroke="none"/>
<text x="765" y="319" dy="0.5ex" text-anchor="middle" font-family="sans-serif" font-size="8.870967741935484" opacity="1" fill="#E6EDF3" font-weight="bold">
osdb
</text>
<text x="765" y="334" dy="0.5ex" text-anchor="middle" font-family="sans-serif" font-size="8.064516129032258" opacity="1" fill="#7D8590">
10.1 MB
</text>
<polyline fill="none" opacity="1" stroke="#21262D" stroke-width="1" points="55,559 830,559 "/>
<text x="47" y="559" dy="0.5ex" text-anchor="end" font-family="sans-serif" font-size="8.870967741935484" opacity="1" fill="#7D8590">
10
</text>
<polyline fill="none" opacity="1" stroke="#21262D" stroke-width="1" points="55,507 830,507 "/>
<text x="47" y="507" dy="0.5ex" text-anchor="end" font-family="sans-serif" font-size="8.870967741935484" opacity="1" fill="#7D8590">
20
</text>
<polyline fill="none" opacity="1" stroke="#21262D" stroke-width="1" points="55,454 830,454 "/>
<text x="47" y="454" dy="0.5ex" text-anchor="end" font-family="sans-serif" font-size="8.870967741935484" opacity="1" fill="#7D8590">
30
</text>
<polyline fill="none" opacity="1" stroke="#21262D" stroke-width="1" points="55,402 830,402 "/>
<text x="47" y="402" dy="0.5ex" text-anchor="end" font-family="sans-serif" font-size="8.870967741935484" opacity="1" fill="#7D8590">
40
</text>
<polyline fill="none" opacity="1" stroke="#30363D" stroke-width="2" points="55,612 830,612 "/>
<rect x="71" y="589" width="20" height="23" opacity="1" fill="#60A5FA" stroke="none"/>
<rect x="71" y="572" width="20" height="17" opacity="1" fill="#4680C4" stroke="none"/>
<rect x="71" y="566" width="20" height="6" opacity="1" fill="#60A5FA" stroke="none"/>
<rect x="91" y="579" width="19" height="33" opacity="1" fill="#F87171" stroke="none"/>
<rect x="91" y="560" width="19" height="19" opacity="1" fill="#C45050" stroke="none"/>
<rect x="91" y="547" width="19" height="13" opacity="1" fill="#F87171" stroke="none"/>
<rect x="110" y="575" width="19" height="37" opacity="1" fill="#F59E0B" stroke="none"/>
<rect x="110" y="558" width="19" height="17" opacity="1" fill="#C47D08" stroke="none"/>
<rect x="110" y="549" width="19" height="9" opacity="1" fill="#F59E0B" stroke="none"/>
<rect x="129" y="564" width="20" height="48" opacity="1" fill="#F472B6" stroke="none"/>
<rect x="129" y="546" width="20" height="18" opacity="1" fill="#C05A92" stroke="none"/>
<rect x="129" y="528" width="20" height="18" opacity="1" fill="#F472B6" stroke="none"/>
<rect x="149" y="510" width="19" height="102" opacity="1" fill="#4ADE80" stroke="none"/>
<rect x="149" y="489" width="19" height="21" opacity="1" fill="#3AAF60" stroke="none"/>
<rect x="149" y="455" width="19" height="34" opacity="1" fill="#4ADE80" stroke="none"/>
<text x="120" y="629" dy="0.5ex" text-anchor="middle" font-family="sans-serif" font-size="8.870967741935484" opacity="1" fill="#E6EDF3" font-weight="bold">
reymont
</text>
<text x="120" y="644" dy="0.5ex" text-anchor="middle" font-family="sans-serif" font-size="8.064516129032258" opacity="1" fill="#7D8590">
6.6 MB
</text>
<rect x="200" y="598" width="20" height="14" opacity="1" fill="#60A5FA" stroke="none"/>
<rect x="200" y="585" width="20" height="13" opacity="1" fill="#4680C4" stroke="none"/>
<rect x="200" y="581" width="20" height="4" opacity="1" fill="#60A5FA" stroke="none"/>
<rect x="220" y="592" width="19" height="20" opacity="1" fill="#F87171" stroke="none"/>
<rect x="220" y="577" width="19" height="15" opacity="1" fill="#C45050" stroke="none"/>
<rect x="220" y="568" width="19" height="9" opacity="1" fill="#F87171" stroke="none"/>
<rect x="239" y="589" width="19" height="23" opacity="1" fill="#F59E0B" stroke="none"/>
<rect x="239" y="576" width="19" height="13" opacity="1" fill="#C47D08" stroke="none"/>
<rect x="239" y="570" width="19" height="6" opacity="1" fill="#F59E0B" stroke="none"/>
<rect x="258" y="584" width="20" height="28" opacity="1" fill="#F472B6" stroke="none"/>
<rect x="258" y="569" width="20" height="15" opacity="1" fill="#C05A92" stroke="none"/>
<rect x="258" y="558" width="20" height="11" opacity="1" fill="#F472B6" stroke="none"/>
<rect x="278" y="526" width="19" height="86" opacity="1" fill="#4ADE80" stroke="none"/>
<rect x="278" y="509" width="19" height="17" opacity="1" fill="#3AAF60" stroke="none"/>
<rect x="278" y="487" width="19" height="22" opacity="1" fill="#4ADE80" stroke="none"/>
<text x="249" y="629" dy="0.5ex" text-anchor="middle" font-family="sans-serif" font-size="8.870967741935484" opacity="1" fill="#E6EDF3" font-weight="bold">
samba
</text>
<text x="249" y="644" dy="0.5ex" text-anchor="middle" font-family="sans-serif" font-size="8.064516129032258" opacity="1" fill="#7D8590">
21.6 MB
</text>
<rect x="329" y="591" width="20" height="21" opacity="1" fill="#60A5FA" stroke="none"/>
<rect x="329" y="545" width="20" height="46" opacity="1" fill="#4680C4" stroke="none"/>
<rect x="329" y="540" width="20" height="5" opacity="1" fill="#60A5FA" stroke="none"/>
<rect x="349" y="590" width="19" height="22" opacity="1" fill="#F87171" stroke="none"/>
<rect x="349" y="544" width="19" height="46" opacity="1" fill="#C45050" stroke="none"/>
<rect x="349" y="538" width="19" height="6" opacity="1" fill="#F87171" stroke="none"/>
<rect x="368" y="575" width="20" height="37" opacity="1" fill="#F59E0B" stroke="none"/>
<rect x="368" y="529" width="20" height="46" opacity="1" fill="#C47D08" stroke="none"/>
<rect x="368" y="521" width="20" height="8" opacity="1" fill="#F59E0B" stroke="none"/>
<rect x="388" y="581" width="19" height="31" opacity="1" fill="#F472B6" stroke="none"/>
<rect x="388" y="535" width="19" height="46" opacity="1" fill="#C05A92" stroke="none"/>
<rect x="388" y="527" width="19" height="8" opacity="1" fill="#F472B6" stroke="none"/>
<rect x="407" y="460" width="19" height="152" opacity="1" fill="#4ADE80" stroke="none"/>
<rect x="407" y="416" width="19" height="44" opacity="1" fill="#3AAF60" stroke="none"/>
<rect x="407" y="398" width="19" height="18" opacity="1" fill="#4ADE80" stroke="none"/>
<text x="378" y="629" dy="0.5ex" text-anchor="middle" font-family="sans-serif" font-size="8.870967741935484" opacity="1" fill="#E6EDF3" font-weight="bold">
sao
</text>
<text x="378" y="644" dy="0.5ex" text-anchor="middle" font-family="sans-serif" font-size="8.064516129032258" opacity="1" fill="#7D8590">
7.3 MB
</text>
<rect x="459" y="591" width="19" height="21" opacity="1" fill="#60A5FA" stroke="none"/>
<rect x="459" y="574" width="19" height="17" opacity="1" fill="#4680C4" stroke="none"/>
<rect x="459" y="569" width="19" height="5" opacity="1" fill="#60A5FA" stroke="none"/>
<rect x="478" y="576" width="19" height="36" opacity="1" fill="#F87171" stroke="none"/>
<rect x="478" y="557" width="19" height="19" opacity="1" fill="#C45050" stroke="none"/>
<rect x="478" y="544" width="19" height="13" opacity="1" fill="#F87171" stroke="none"/>
<rect x="497" y="579" width="20" height="33" opacity="1" fill="#F59E0B" stroke="none"/>
<rect x="497" y="561" width="20" height="18" opacity="1" fill="#C47D08" stroke="none"/>
<rect x="497" y="550" width="20" height="11" opacity="1" fill="#F59E0B" stroke="none"/>
<rect x="517" y="563" width="19" height="49" opacity="1" fill="#F472B6" stroke="none"/>
<rect x="517" y="544" width="19" height="19" opacity="1" fill="#C05A92" stroke="none"/>
<rect x="517" y="527" width="19" height="17" opacity="1" fill="#F472B6" stroke="none"/>
<rect x="536" y="507" width="20" height="105" opacity="1" fill="#4ADE80" stroke="none"/>
<rect x="536" y="486" width="20" height="21" opacity="1" fill="#3AAF60" stroke="none"/>
<rect x="536" y="454" width="20" height="32" opacity="1" fill="#4ADE80" stroke="none"/>
<text x="507" y="629" dy="0.5ex" text-anchor="middle" font-family="sans-serif" font-size="8.870967741935484" opacity="1" fill="#E6EDF3" font-weight="bold">
webster
</text>
<text x="507" y="644" dy="0.5ex" text-anchor="middle" font-family="sans-serif" font-size="8.064516129032258" opacity="1" fill="#7D8590">
41.5 MB
</text>
<rect x="588" y="603" width="19" height="9" opacity="1" fill="#60A5FA" stroke="none"/>
<rect x="588" y="561" width="19" height="42" opacity="1" fill="#4680C4" stroke="none"/>
<rect x="588" y="557" width="19" height="4" opacity="1" fill="#60A5FA" stroke="none"/>
<rect x="607" y="584" width="20" height="28" opacity="1" fill="#F87171" stroke="none"/>
<rect x="607" y="537" width="20" height="47" opacity="1" fill="#C45050" stroke="none"/>
<rect x="607" y="530" width="20" height="7" opacity="1" fill="#F87171" stroke="none"/>
<rect x="627" y="588" width="19" height="24" opacity="1" fill="#F59E0B" stroke="none"/>
<rect x="627" y="546" width="19" height="42" opacity="1" fill="#C47D08" stroke="none"/>
<rect x="627" y="540" width="19" height="6" opacity="1" fill="#F59E0B" stroke="none"/>
<rect x="646" y="572" width="19" height="40" opacity="1" fill="#F472B6" stroke="none"/>
<rect x="646" y="525" width="19" height="47" opacity="1" fill="#C05A92" stroke="none"/>
<rect x="646" y="516" width="19" height="9" opacity="1" fill="#F472B6" stroke="none"/>
<rect x="665" y="458" width="20" height="154" opacity="1" fill="#4ADE80" stroke="none"/>
<rect x="665" y="412" width="20" height="46" opacity="1" fill="#3AAF60" stroke="none"/>
<rect x="665" y="394" width="20" height="18" opacity="1" fill="#4ADE80" stroke="none"/>
<text x="636" y="629" dy="0.5ex" text-anchor="middle" font-family="sans-serif" font-size="8.870967741935484" opacity="1" fill="#E6EDF3" font-weight="bold">
x-ray
</text>
<text x="636" y="644" dy="0.5ex" text-anchor="middle" font-family="sans-serif" font-size="8.064516129032258" opacity="1" fill="#7D8590">
8.5 MB
</text>
<rect x="717" y="602" width="19" height="10" opacity="1" fill="#60A5FA" stroke="none"/>
<rect x="717" y="595" width="19" height="7" opacity="1" fill="#4680C4" stroke="none"/>
<rect x="717" y="592" width="19" height="3" opacity="1" fill="#60A5FA" stroke="none"/>
<rect x="736" y="596" width="20" height="16" opacity="1" fill="#F87171" stroke="none"/>
<rect x="736" y="588" width="20" height="8" opacity="1" fill="#C45050" stroke="none"/>
<rect x="736" y="582" width="20" height="6" opacity="1" fill="#F87171" stroke="none"/>
<rect x="756" y="594" width="19" height="18" opacity="1" fill="#F59E0B" stroke="none"/>
<rect x="756" y="588" width="19" height="6" opacity="1" fill="#C47D08" stroke="none"/>
<rect x="756" y="583" width="19" height="5" opacity="1" fill="#F59E0B" stroke="none"/>
<rect x="775" y="590" width="19" height="22" opacity="1" fill="#F472B6" stroke="none"/>
<rect x="775" y="582" width="19" height="8" opacity="1" fill="#C05A92" stroke="none"/>
<rect x="775" y="574" width="19" height="8" opacity="1" fill="#F472B6" stroke="none"/>
<rect x="794" y="543" width="20" height="69" opacity="1" fill="#4ADE80" stroke="none"/>
<rect x="794" y="531" width="20" height="12" opacity="1" fill="#3AAF60" stroke="none"/>
<rect x="794" y="513" width="20" height="18" opacity="1" fill="#4ADE80" stroke="none"/>
<text x="765" y="629" dy="0.5ex" text-anchor="middle" font-family="sans-serif" font-size="8.870967741935484" opacity="1" fill="#E6EDF3" font-weight="bold">
xml
</text>
<text x="765" y="644" dy="0.5ex" text-anchor="middle" font-family="sans-serif" font-size="8.064516129032258" opacity="1" fill="#7D8590">
5.3 MB
</text>
<rect x="190" y="668" width="12" height="12" opacity="1" fill="#60A5FA" stroke="none"/>
<text x="208" y="674" dy="0.5ex" text-anchor="start" font-family="sans-serif" font-size="8.870967741935484" opacity="1" fill="#E6EDF3">
libzstd v1.5.7 (C)
</text>
<rect x="190" y="688" width="12" height="12" opacity="1" fill="#F87171" stroke="none"/>
<text x="208" y="694" dy="0.5ex" text-anchor="start" font-family="sans-serif" font-size="8.870967741935484" opacity="1" fill="#E6EDF3">
zrip (safe SIMD + encapsulated unsafe)
</text>
<rect x="190" y="708" width="12" height="12" opacity="1" fill="#F59E0B" stroke="none"/>
<text x="208" y="714" dy="0.5ex" text-anchor="start" font-family="sans-serif" font-size="8.870967741935484" opacity="1" fill="#E6EDF3">
structured-zstd v0.0.49 (unsafe)
</text>
<rect x="460" y="668" width="12" height="12" opacity="1" fill="#F472B6" stroke="none"/>
<text x="478" y="674" dy="0.5ex" text-anchor="start" font-family="sans-serif" font-size="8.870967741935484" opacity="1" fill="#E6EDF3">
zrip paranoid (safe SIMD, no unsafe)
</text>
<rect x="460" y="688" width="12" height="12" opacity="1" fill="#4ADE80" stroke="none"/>
<text x="478" y="694" dy="0.5ex" text-anchor="start" font-family="sans-serif" font-size="8.870967741935484" opacity="1" fill="#E6EDF3">
ruzstd v0.8.3 (safe)
</text>
<text x="215" y="750" dy="0.5ex" text-anchor="start" font-family="sans-serif" font-size="8.064516129032258" opacity="1" fill="#E6EDF3">
bright = compress + decompress
</text>
<text x="455" y="750" dy="0.5ex" text-anchor="start" font-family="sans-serif" font-size="8.064516129032258" opacity="1" fill="#7D8590">
dim = transfer @100 MB/s
</text>
</svg>
