<svg xmlns="http://www.w3.org/2000/svg" viewBox="0 0 850 720" font-family="system-ui, -apple-system, sans-serif">
  <rect width="850" height="720" fill="#0d1117"/>
  <text x="442.5" y="22" text-anchor="middle" fill="#e6edf3" font-size="14" font-weight="700">zstd Pipeline @100 MB/s: Per-file, Level 1 (lower is better)</text>
  <text x="442.5" y="38" text-anchor="middle" fill="#7d8590" font-size="10">Intel Core i7-8700B @ 3.20GHz, performance governor, turbo off</text>
  <line x1="55" y1="237.0" x2="830" y2="237.0" stroke="#21262d" stroke-width="1"/>
  <text x="47" y="237.0" text-anchor="end" dominant-baseline="middle" fill="#7d8590" font-size="10">10</text>
  <line x1="55" y1="184.1" x2="830" y2="184.1" stroke="#21262d" stroke-width="1"/>
  <text x="47" y="184.1" text-anchor="end" dominant-baseline="middle" fill="#7d8590" font-size="10">20</text>
  <line x1="55" y1="131.1" x2="830" y2="131.1" stroke="#21262d" stroke-width="1"/>
  <text x="47" y="131.1" text-anchor="end" dominant-baseline="middle" fill="#7d8590" font-size="10">30</text>
  <line x1="55" y1="78.1" x2="830" y2="78.1" stroke="#21262d" stroke-width="1"/>
  <text x="47" y="78.1" text-anchor="end" dominant-baseline="middle" fill="#7d8590" font-size="10">40</text>
  <line x1="55" y1="290" x2="830" y2="290" stroke="#30363d" stroke-width="1.5"/>
  <text x="22" y="325.0" text-anchor="middle" fill="#e6edf3" font-size="11" font-weight="600" transform="rotate(-90,22,325.0)">seconds / GB</text>
  <rect x="71.1" y="265.6" width="19.4" height="24.4" fill="#60a5fa" rx="1"/>
  <rect x="71.1" y="243.5" width="19.4" height="22.1" fill="#4680c4" rx="1"/>
  <rect x="71.1" y="238.1" width="19.4" height="5.4" fill="#60a5fa" rx="1"/>
  <rect x="90.5" y="252.8" width="19.4" height="37.2" fill="#f87171" rx="1"/>
  <rect x="90.5" y="229.1" width="19.4" height="23.7" fill="#c45050" rx="1"/>
  <rect x="90.5" y="212.8" width="19.4" height="16.3" fill="#f87171" rx="1"/>
  <rect x="109.9" y="251.6" width="19.4" height="38.4" fill="#f59e0b" rx="1"/>
  <rect x="109.9" y="229.5" width="19.4" height="22.1" fill="#c47d08" rx="1"/>
  <rect x="109.9" y="220.2" width="19.4" height="9.3" fill="#f59e0b" rx="1"/>
  <rect x="129.3" y="224.4" width="19.4" height="65.6" fill="#f472b6" rx="1"/>
  <rect x="129.3" y="200.7" width="19.4" height="23.7" fill="#c05a92" rx="1"/>
  <rect x="129.3" y="182.4" width="19.4" height="18.3" fill="#f472b6" rx="1"/>
  <rect x="148.6" y="170.1" width="19.4" height="119.9" fill="#4ade80" rx="1"/>
  <rect x="148.6" y="144.2" width="19.4" height="25.9" fill="#3aaf60" rx="1"/>
  <rect x="148.6" y="104.4" width="19.4" height="39.7" fill="#4ade80" rx="1"/>
  <text x="119.6" y="306" text-anchor="middle" fill="#e6edf3" font-size="10" font-weight="600">dickens</text>
  <text x="119.6" y="318" text-anchor="middle" fill="#7d8590" font-size="9">10.2 MB</text>
  <rect x="200.3" y="284.5" width="19.4" height="5.5" fill="#60a5fa" rx="1"/>
  <rect x="200.3" y="281.9" width="19.4" height="2.7" fill="#4680c4" rx="1"/>
  <rect x="200.3" y="279.9" width="19.4" height="2.0" fill="#60a5fa" rx="1"/>
  <rect x="219.7" y="282.3" width="19.4" height="7.7" fill="#f87171" rx="1"/>
  <rect x="219.7" y="279.2" width="19.4" height="3.1" fill="#c45050" rx="1"/>
  <rect x="219.7" y="274.9" width="19.4" height="4.3" fill="#f87171" rx="1"/>
  <rect x="239.1" y="279.4" width="19.4" height="10.6" fill="#f59e0b" rx="1"/>
  <rect x="239.1" y="276.8" width="19.4" height="2.6" fill="#c47d08" rx="1"/>
  <rect x="239.1" y="273.8" width="19.4" height="3.0" fill="#f59e0b" rx="1"/>
  <rect x="258.4" y="277.3" width="19.4" height="12.7" fill="#f472b6" rx="1"/>
  <rect x="258.4" y="274.2" width="19.4" height="3.1" fill="#c05a92" rx="1"/>
  <rect x="258.4" y="269.7" width="19.4" height="4.5" fill="#f472b6" rx="1"/>
  <rect x="277.8" y="241.3" width="19.4" height="48.7" fill="#4ade80" rx="1"/>
  <rect x="277.8" y="236.2" width="19.4" height="5.1" fill="#3aaf60" rx="1"/>
  <rect x="277.8" y="227.1" width="19.4" height="9.1" fill="#4ade80" rx="1"/>
  <text x="248.8" y="306" text-anchor="middle" fill="#e6edf3" font-size="10" font-weight="600">hdfs.json</text>
  <text x="248.8" y="318" text-anchor="middle" fill="#7d8590" font-size="9">7.0 MB</text>
  <rect x="329.5" y="273.3" width="19.4" height="16.7" fill="#60a5fa" rx="1"/>
  <rect x="329.5" y="252.7" width="19.4" height="20.6" fill="#4680c4" rx="1"/>
  <rect x="329.5" y="246.9" width="19.4" height="5.8" fill="#60a5fa" rx="1"/>
  <rect x="348.9" y="267.1" width="19.4" height="22.9" fill="#f87171" rx="1"/>
  <rect x="348.9" y="245.3" width="19.4" height="21.7" fill="#c45050" rx="1"/>
  <rect x="348.9" y="232.7" width="19.4" height="12.6" fill="#f87171" rx="1"/>
  <rect x="368.2" y="259.0" width="19.4" height="31.0" fill="#f59e0b" rx="1"/>
  <rect x="368.2" y="238.2" width="19.4" height="20.9" fill="#c47d08" rx="1"/>
  <rect x="368.2" y="229.4" width="19.4" height="8.7" fill="#f59e0b" rx="1"/>
  <rect x="387.6" y="249.9" width="19.4" height="40.1" fill="#f472b6" rx="1"/>
  <rect x="387.6" y="228.1" width="19.4" height="21.7" fill="#c05a92" rx="1"/>
  <rect x="387.6" y="215.2" width="19.4" height="13.0" fill="#f472b6" rx="1"/>
  <rect x="407.0" y="182.1" width="19.4" height="107.9" fill="#4ade80" rx="1"/>
  <rect x="407.0" y="155.1" width="19.4" height="27.0" fill="#3aaf60" rx="1"/>
  <rect x="407.0" y="132.9" width="19.4" height="22.3" fill="#4ade80" rx="1"/>
  <text x="377.9" y="306" text-anchor="middle" fill="#e6edf3" font-size="10" font-weight="600">mozilla</text>
  <text x="377.9" y="318" text-anchor="middle" fill="#7d8590" font-size="9">51.2 MB</text>
  <rect x="458.6" y="272.1" width="19.4" height="17.9" fill="#60a5fa" rx="1"/>
  <rect x="458.6" y="251.8" width="19.4" height="20.3" fill="#4680c4" rx="1"/>
  <rect x="458.6" y="247.0" width="19.4" height="4.8" fill="#60a5fa" rx="1"/>
  <rect x="478.0" y="260.1" width="19.4" height="29.9" fill="#f87171" rx="1"/>
  <rect x="478.0" y="238.4" width="19.4" height="21.7" fill="#c45050" rx="1"/>
  <rect x="478.0" y="224.8" width="19.4" height="13.7" fill="#f87171" rx="1"/>
  <rect x="497.4" y="258.3" width="19.4" height="31.7" fill="#f59e0b" rx="1"/>
  <rect x="497.4" y="238.1" width="19.4" height="20.3" fill="#c47d08" rx="1"/>
  <rect x="497.4" y="230.5" width="19.4" height="7.6" fill="#f59e0b" rx="1"/>
  <rect x="516.8" y="236.8" width="19.4" height="53.2" fill="#f472b6" rx="1"/>
  <rect x="516.8" y="215.1" width="19.4" height="21.7" fill="#c05a92" rx="1"/>
  <rect x="516.8" y="200.4" width="19.4" height="14.6" fill="#f472b6" rx="1"/>
  <rect x="536.1" y="190.1" width="19.4" height="99.9" fill="#4ade80" rx="1"/>
  <rect x="536.1" y="163.9" width="19.4" height="26.2" fill="#3aaf60" rx="1"/>
  <rect x="536.1" y="136.3" width="19.4" height="27.6" fill="#4ade80" rx="1"/>
  <text x="507.1" y="306" text-anchor="middle" fill="#e6edf3" font-size="10" font-weight="600">mr</text>
  <text x="507.1" y="318" text-anchor="middle" fill="#7d8590" font-size="9">10.0 MB</text>
  <rect x="587.8" y="281.2" width="19.4" height="8.8" fill="#60a5fa" rx="1"/>
  <rect x="587.8" y="276.7" width="19.4" height="4.5" fill="#4680c4" rx="1"/>
  <rect x="587.8" y="273.5" width="19.4" height="3.2" fill="#60a5fa" rx="1"/>
  <rect x="607.2" y="277.7" width="19.4" height="12.3" fill="#f87171" rx="1"/>
  <rect x="607.2" y="272.4" width="19.4" height="5.4" fill="#c45050" rx="1"/>
  <rect x="607.2" y="265.3" width="19.4" height="7.1" fill="#f87171" rx="1"/>
  <rect x="626.6" y="273.6" width="19.4" height="16.4" fill="#f59e0b" rx="1"/>
  <rect x="626.6" y="269.1" width="19.4" height="4.5" fill="#c47d08" rx="1"/>
  <rect x="626.6" y="264.1" width="19.4" height="4.9" fill="#f59e0b" rx="1"/>
  <rect x="645.9" y="269.8" width="19.4" height="20.2" fill="#f472b6" rx="1"/>
  <rect x="645.9" y="264.5" width="19.4" height="5.4" fill="#c05a92" rx="1"/>
  <rect x="645.9" y="257.1" width="19.4" height="7.4" fill="#f472b6" rx="1"/>
  <rect x="665.3" y="231.4" width="19.4" height="58.6" fill="#4ade80" rx="1"/>
  <rect x="665.3" y="223.6" width="19.4" height="7.8" fill="#3aaf60" rx="1"/>
  <rect x="665.3" y="209.2" width="19.4" height="14.4" fill="#4ade80" rx="1"/>
  <text x="636.2" y="306" text-anchor="middle" fill="#e6edf3" font-size="10" font-weight="600">nci</text>
  <text x="636.2" y="318" text-anchor="middle" fill="#7d8590" font-size="9">33.6 MB</text>
  <rect x="717.0" y="273.4" width="19.4" height="16.6" fill="#60a5fa" rx="1"/>
  <rect x="717.0" y="253.8" width="19.4" height="19.6" fill="#4680c4" rx="1"/>
  <rect x="717.0" y="249.2" width="19.4" height="4.7" fill="#60a5fa" rx="1"/>
  <rect x="736.4" y="268.3" width="19.4" height="21.7" fill="#f87171" rx="1"/>
  <rect x="736.4" y="247.4" width="19.4" height="20.8" fill="#c45050" rx="1"/>
  <rect x="736.4" y="239.6" width="19.4" height="7.8" fill="#f87171" rx="1"/>
  <rect x="755.7" y="261.8" width="19.4" height="28.2" fill="#f59e0b" rx="1"/>
  <rect x="755.7" y="242.2" width="19.4" height="19.6" fill="#c47d08" rx="1"/>
  <rect x="755.7" y="235.9" width="19.4" height="6.4" fill="#f59e0b" rx="1"/>
  <rect x="775.1" y="254.3" width="19.4" height="35.7" fill="#f472b6" rx="1"/>
  <rect x="775.1" y="233.5" width="19.4" height="20.8" fill="#c05a92" rx="1"/>
  <rect x="775.1" y="224.8" width="19.4" height="8.7" fill="#f472b6" rx="1"/>
  <rect x="794.5" y="200.8" width="19.4" height="89.2" fill="#4ade80" rx="1"/>
  <rect x="794.5" y="177.6" width="19.4" height="23.1" fill="#3aaf60" rx="1"/>
  <rect x="794.5" y="161.8" width="19.4" height="15.8" fill="#4ade80" rx="1"/>
  <text x="765.4" y="306" text-anchor="middle" fill="#e6edf3" font-size="10" font-weight="600">osdb</text>
  <text x="765.4" y="318" text-anchor="middle" fill="#7d8590" font-size="9">10.1 MB</text>
  <line x1="55" y1="547.0" x2="830" y2="547.0" stroke="#21262d" stroke-width="1"/>
  <text x="47" y="547.0" text-anchor="end" dominant-baseline="middle" fill="#7d8590" font-size="10">10</text>
  <line x1="55" y1="494.1" x2="830" y2="494.1" stroke="#21262d" stroke-width="1"/>
  <text x="47" y="494.1" text-anchor="end" dominant-baseline="middle" fill="#7d8590" font-size="10">20</text>
  <line x1="55" y1="441.1" x2="830" y2="441.1" stroke="#21262d" stroke-width="1"/>
  <text x="47" y="441.1" text-anchor="end" dominant-baseline="middle" fill="#7d8590" font-size="10">30</text>
  <line x1="55" y1="388.1" x2="830" y2="388.1" stroke="#21262d" stroke-width="1"/>
  <text x="47" y="388.1" text-anchor="end" dominant-baseline="middle" fill="#7d8590" font-size="10">40</text>
  <line x1="55" y1="600" x2="830" y2="600" stroke="#30363d" stroke-width="1.5"/>
  <rect x="71.1" y="576.4" width="19.4" height="23.6" fill="#60a5fa" rx="1"/>
  <rect x="71.1" y="559.3" width="19.4" height="17.2" fill="#4680c4" rx="1"/>
  <rect x="71.1" y="553.7" width="19.4" height="5.5" fill="#60a5fa" rx="1"/>
  <rect x="90.5" y="570.0" width="19.4" height="30.0" fill="#f87171" rx="1"/>
  <rect x="90.5" y="551.0" width="19.4" height="18.9" fill="#c45050" rx="1"/>
  <rect x="90.5" y="536.7" width="19.4" height="14.4" fill="#f87171" rx="1"/>
  <rect x="109.9" y="562.3" width="19.4" height="37.7" fill="#f59e0b" rx="1"/>
  <rect x="109.9" y="545.1" width="19.4" height="17.2" fill="#c47d08" rx="1"/>
  <rect x="109.9" y="536.0" width="19.4" height="9.2" fill="#f59e0b" rx="1"/>
  <rect x="129.3" y="545.1" width="19.4" height="54.9" fill="#f472b6" rx="1"/>
  <rect x="129.3" y="526.1" width="19.4" height="18.9" fill="#c05a92" rx="1"/>
  <rect x="129.3" y="509.8" width="19.4" height="16.3" fill="#f472b6" rx="1"/>
  <rect x="148.6" y="498.8" width="19.4" height="101.2" fill="#4ade80" rx="1"/>
  <rect x="148.6" y="476.8" width="19.4" height="22.0" fill="#3aaf60" rx="1"/>
  <rect x="148.6" y="442.4" width="19.4" height="34.4" fill="#4ade80" rx="1"/>
  <text x="119.6" y="616" text-anchor="middle" fill="#e6edf3" font-size="10" font-weight="600">reymont.pdf</text>
  <text x="119.6" y="628" text-anchor="middle" fill="#7d8590" font-size="9">6.6 MB</text>
  <rect x="200.3" y="586.0" width="19.4" height="14.0" fill="#60a5fa" rx="1"/>
  <rect x="200.3" y="572.5" width="19.4" height="13.5" fill="#4680c4" rx="1"/>
  <rect x="200.3" y="568.5" width="19.4" height="4.1" fill="#60a5fa" rx="1"/>
  <rect x="219.7" y="581.3" width="19.4" height="18.7" fill="#f87171" rx="1"/>
  <rect x="219.7" y="566.2" width="19.4" height="15.1" fill="#c45050" rx="1"/>
  <rect x="219.7" y="556.5" width="19.4" height="9.6" fill="#f87171" rx="1"/>
  <rect x="239.1" y="576.8" width="19.4" height="23.2" fill="#f59e0b" rx="1"/>
  <rect x="239.1" y="563.3" width="19.4" height="13.5" fill="#c47d08" rx="1"/>
  <rect x="239.1" y="557.3" width="19.4" height="5.9" fill="#f59e0b" rx="1"/>
  <rect x="258.4" y="568.4" width="19.4" height="31.6" fill="#f472b6" rx="1"/>
  <rect x="258.4" y="553.3" width="19.4" height="15.1" fill="#c05a92" rx="1"/>
  <rect x="258.4" y="542.5" width="19.4" height="10.8" fill="#f472b6" rx="1"/>
  <rect x="277.8" y="513.6" width="19.4" height="86.4" fill="#4ade80" rx="1"/>
  <rect x="277.8" y="495.7" width="19.4" height="17.9" fill="#3aaf60" rx="1"/>
  <rect x="277.8" y="473.5" width="19.4" height="22.2" fill="#4ade80" rx="1"/>
  <text x="248.8" y="616" text-anchor="middle" fill="#e6edf3" font-size="10" font-weight="600">samba</text>
  <text x="248.8" y="628" text-anchor="middle" fill="#7d8590" font-size="9">21.6 MB</text>
  <rect x="329.5" y="578.4" width="19.4" height="21.6" fill="#60a5fa" rx="1"/>
  <rect x="329.5" y="532.8" width="19.4" height="45.6" fill="#4680c4" rx="1"/>
  <rect x="329.5" y="527.0" width="19.4" height="5.8" fill="#60a5fa" rx="1"/>
  <rect x="348.9" y="579.0" width="19.4" height="21.0" fill="#f87171" rx="1"/>
  <rect x="348.9" y="533.0" width="19.4" height="46.0" fill="#c45050" rx="1"/>
  <rect x="348.9" y="526.5" width="19.4" height="6.6" fill="#f87171" rx="1"/>
  <rect x="368.2" y="562.5" width="19.4" height="37.5" fill="#f59e0b" rx="1"/>
  <rect x="368.2" y="516.8" width="19.4" height="45.6" fill="#c47d08" rx="1"/>
  <rect x="368.2" y="508.7" width="19.4" height="8.1" fill="#f59e0b" rx="1"/>
  <rect x="387.6" y="566.1" width="19.4" height="33.9" fill="#f472b6" rx="1"/>
  <rect x="387.6" y="520.1" width="19.4" height="46.0" fill="#c05a92" rx="1"/>
  <rect x="387.6" y="513.1" width="19.4" height="7.1" fill="#f472b6" rx="1"/>
  <rect x="407.0" y="453.4" width="19.4" height="146.6" fill="#4ade80" rx="1"/>
  <rect x="407.0" y="409.5" width="19.4" height="43.9" fill="#3aaf60" rx="1"/>
  <rect x="407.0" y="390.6" width="19.4" height="18.9" fill="#4ade80" rx="1"/>
  <text x="377.9" y="616" text-anchor="middle" fill="#e6edf3" font-size="10" font-weight="600">sao</text>
  <text x="377.9" y="628" text-anchor="middle" fill="#7d8590" font-size="9">7.3 MB</text>
  <rect x="458.6" y="578.8" width="19.4" height="21.2" fill="#60a5fa" rx="1"/>
  <rect x="458.6" y="561.4" width="19.4" height="17.5" fill="#4680c4" rx="1"/>
  <rect x="458.6" y="556.2" width="19.4" height="5.2" fill="#60a5fa" rx="1"/>
  <rect x="478.0" y="568.8" width="19.4" height="31.2" fill="#f87171" rx="1"/>
  <rect x="478.0" y="549.5" width="19.4" height="19.3" fill="#c45050" rx="1"/>
  <rect x="478.0" y="535.2" width="19.4" height="14.2" fill="#f87171" rx="1"/>
  <rect x="497.4" y="566.6" width="19.4" height="33.4" fill="#f59e0b" rx="1"/>
  <rect x="497.4" y="549.1" width="19.4" height="17.4" fill="#c47d08" rx="1"/>
  <rect x="497.4" y="541.2" width="19.4" height="8.0" fill="#f59e0b" rx="1"/>
  <rect x="516.8" y="546.0" width="19.4" height="54.0" fill="#f472b6" rx="1"/>
  <rect x="516.8" y="526.7" width="19.4" height="19.3" fill="#c05a92" rx="1"/>
  <rect x="516.8" y="510.8" width="19.4" height="15.8" fill="#f472b6" rx="1"/>
  <rect x="536.1" y="494.4" width="19.4" height="105.6" fill="#4ade80" rx="1"/>
  <rect x="536.1" y="473.1" width="19.4" height="21.3" fill="#3aaf60" rx="1"/>
  <rect x="536.1" y="440.5" width="19.4" height="32.6" fill="#4ade80" rx="1"/>
  <text x="507.1" y="616" text-anchor="middle" fill="#e6edf3" font-size="10" font-weight="600">webster</text>
  <text x="507.1" y="628" text-anchor="middle" fill="#7d8590" font-size="9">41.5 MB</text>
  <rect x="587.8" y="591.2" width="19.4" height="8.8" fill="#60a5fa" rx="1"/>
  <rect x="587.8" y="548.9" width="19.4" height="42.3" fill="#4680c4" rx="1"/>
  <rect x="587.8" y="544.0" width="19.4" height="4.8" fill="#60a5fa" rx="1"/>
  <rect x="607.2" y="573.2" width="19.4" height="26.8" fill="#f87171" rx="1"/>
  <rect x="607.2" y="525.9" width="19.4" height="47.3" fill="#c45050" rx="1"/>
  <rect x="607.2" y="517.9" width="19.4" height="8.0" fill="#f87171" rx="1"/>
  <rect x="626.6" y="576.2" width="19.4" height="23.8" fill="#f59e0b" rx="1"/>
  <rect x="626.6" y="533.9" width="19.4" height="42.3" fill="#c47d08" rx="1"/>
  <rect x="626.6" y="527.4" width="19.4" height="6.5" fill="#f59e0b" rx="1"/>
  <rect x="645.9" y="556.9" width="19.4" height="43.1" fill="#f472b6" rx="1"/>
  <rect x="645.9" y="509.6" width="19.4" height="47.3" fill="#c05a92" rx="1"/>
  <rect x="645.9" y="501.3" width="19.4" height="8.3" fill="#f472b6" rx="1"/>
  <rect x="665.3" y="446.7" width="19.4" height="153.3" fill="#4ade80" rx="1"/>
  <rect x="665.3" y="400.2" width="19.4" height="46.5" fill="#3aaf60" rx="1"/>
  <rect x="665.3" y="381.8" width="19.4" height="18.4" fill="#4ade80" rx="1"/>
  <text x="636.2" y="616" text-anchor="middle" fill="#e6edf3" font-size="10" font-weight="600">x-ray</text>
  <text x="636.2" y="628" text-anchor="middle" fill="#7d8590" font-size="9">8.5 MB</text>
  <rect x="717.0" y="589.1" width="19.4" height="10.9" fill="#60a5fa" rx="1"/>
  <rect x="717.0" y="581.7" width="19.4" height="7.5" fill="#4680c4" rx="1"/>
  <rect x="717.0" y="578.2" width="19.4" height="3.5" fill="#60a5fa" rx="1"/>
  <rect x="736.4" y="584.7" width="19.4" height="15.3" fill="#f87171" rx="1"/>
  <rect x="736.4" y="576.2" width="19.4" height="8.5" fill="#c45050" rx="1"/>
  <rect x="736.4" y="568.9" width="19.4" height="7.3" fill="#f87171" rx="1"/>
  <rect x="755.7" y="581.2" width="19.4" height="18.8" fill="#f59e0b" rx="1"/>
  <rect x="755.7" y="573.8" width="19.4" height="7.5" fill="#c47d08" rx="1"/>
  <rect x="755.7" y="568.9" width="19.4" height="4.9" fill="#f59e0b" rx="1"/>
  <rect x="775.1" y="574.7" width="19.4" height="25.3" fill="#f472b6" rx="1"/>
  <rect x="775.1" y="566.2" width="19.4" height="8.5" fill="#c05a92" rx="1"/>
  <rect x="775.1" y="558.0" width="19.4" height="8.2" fill="#f472b6" rx="1"/>
  <rect x="794.5" y="530.9" width="19.4" height="69.1" fill="#4ade80" rx="1"/>
  <rect x="794.5" y="519.0" width="19.4" height="11.9" fill="#3aaf60" rx="1"/>
  <rect x="794.5" y="500.3" width="19.4" height="18.7" fill="#4ade80" rx="1"/>
  <text x="765.4" y="616" text-anchor="middle" fill="#e6edf3" font-size="10" font-weight="600">xml_collection.xml</text>
  <text x="765.4" y="628" text-anchor="middle" fill="#7d8590" font-size="9">5.3 MB</text>
  <rect x="222" y="645" width="12" height="12" fill="#60a5fa" rx="2"/>
  <text x="240" y="655" fill="#e6edf3" font-size="10" font-weight="500">libzstd v1.5.7 (C)</text>
  <rect x="222" y="663" width="12" height="12" fill="#f87171" rx="2"/>
  <text x="240" y="673" fill="#e6edf3" font-size="10" font-weight="500">zrip (safe SIMD + encapsulated unsafe)</text>
  <rect x="222" y="681" width="12" height="12" fill="#f59e0b" rx="2"/>
  <text x="240" y="691" fill="#e6edf3" font-size="10" font-weight="500">structured-zstd v0.0.48 (unsafe)</text>
  <rect x="472" y="645" width="12" height="12" fill="#f472b6" rx="2"/>
  <text x="490" y="655" fill="#e6edf3" font-size="10" font-weight="500">zrip paranoid (safe SIMD, no unsafe)</text>
  <rect x="472" y="663" width="12" height="12" fill="#4ade80" rx="2"/>
  <text x="490" y="673" fill="#e6edf3" font-size="10" font-weight="500">ruzstd v0.8.3 (safe)</text>
  <text x="232" y="716" fill="#e6edf3" font-size="9">bright = compress + decompress</text>
  <text x="472" y="716" fill="#7d8590" font-size="9">dim = transfer @100 MB/s</text>
</svg>
