<svg xmlns="http://www.w3.org/2000/svg" viewBox="0 0 850 720" font-family="system-ui, -apple-system, sans-serif">
  <rect width="850" height="720" fill="#0d1117"/>
  <text x="442.5" y="22" text-anchor="middle" fill="#e6edf3" font-size="14" font-weight="700">zstd Pipeline @100 MB/s: Per-file, Level 1 (lower is better)</text>
  <text x="442.5" y="38" text-anchor="middle" fill="#7d8590" font-size="10">Intel Core i7-8700B @ 3.20GHz, performance governor, turbo off</text>
  <line x1="55" y1="237.4" x2="830" y2="237.4" stroke="#21262d" stroke-width="1"/>
  <text x="47" y="237.4" text-anchor="end" dominant-baseline="middle" fill="#7d8590" font-size="10">10</text>
  <line x1="55" y1="184.8" x2="830" y2="184.8" stroke="#21262d" stroke-width="1"/>
  <text x="47" y="184.8" text-anchor="end" dominant-baseline="middle" fill="#7d8590" font-size="10">20</text>
  <line x1="55" y1="132.2" x2="830" y2="132.2" stroke="#21262d" stroke-width="1"/>
  <text x="47" y="132.2" text-anchor="end" dominant-baseline="middle" fill="#7d8590" font-size="10">30</text>
  <line x1="55" y1="79.6" x2="830" y2="79.6" stroke="#21262d" stroke-width="1"/>
  <text x="47" y="79.6" text-anchor="end" dominant-baseline="middle" fill="#7d8590" font-size="10">40</text>
  <line x1="55" y1="290" x2="830" y2="290" stroke="#30363d" stroke-width="1.5"/>
  <text x="22" y="325.0" text-anchor="middle" fill="#e6edf3" font-size="11" font-weight="600" transform="rotate(-90,22,325.0)">seconds / GB</text>
  <rect x="71.1" y="265.8" width="19.4" height="24.2" fill="#60a5fa" rx="1"/>
  <rect x="71.1" y="243.8" width="19.4" height="22.0" fill="#4680c4" rx="1"/>
  <rect x="71.1" y="238.4" width="19.4" height="5.4" fill="#60a5fa" rx="1"/>
  <rect x="90.5" y="252.4" width="19.4" height="37.6" fill="#f87171" rx="1"/>
  <rect x="90.5" y="228.9" width="19.4" height="23.5" fill="#c45050" rx="1"/>
  <rect x="90.5" y="214.1" width="19.4" height="14.8" fill="#f87171" rx="1"/>
  <rect x="109.9" y="251.7" width="19.4" height="38.3" fill="#f59e0b" rx="1"/>
  <rect x="109.9" y="229.7" width="19.4" height="22.0" fill="#c47d08" rx="1"/>
  <rect x="109.9" y="220.6" width="19.4" height="9.2" fill="#f59e0b" rx="1"/>
  <rect x="129.3" y="225.5" width="19.4" height="64.5" fill="#f472b6" rx="1"/>
  <rect x="129.3" y="202.0" width="19.4" height="23.5" fill="#c05a92" rx="1"/>
  <rect x="129.3" y="183.5" width="19.4" height="18.5" fill="#f472b6" rx="1"/>
  <rect x="148.6" y="170.2" width="19.4" height="119.8" fill="#4ade80" rx="1"/>
  <rect x="148.6" y="144.4" width="19.4" height="25.7" fill="#3aaf60" rx="1"/>
  <rect x="148.6" y="105.0" width="19.4" height="39.4" fill="#4ade80" rx="1"/>
  <text x="119.6" y="306" text-anchor="middle" fill="#e6edf3" font-size="10" font-weight="600">dickens</text>
  <text x="119.6" y="318" text-anchor="middle" fill="#7d8590" font-size="9">10.2 MB</text>
  <rect x="200.3" y="284.5" width="19.4" height="5.5" fill="#60a5fa" rx="1"/>
  <rect x="200.3" y="281.9" width="19.4" height="2.6" fill="#4680c4" rx="1"/>
  <rect x="200.3" y="279.9" width="19.4" height="2.0" fill="#60a5fa" rx="1"/>
  <rect x="219.7" y="282.4" width="19.4" height="7.6" fill="#f87171" rx="1"/>
  <rect x="219.7" y="279.3" width="19.4" height="3.1" fill="#c45050" rx="1"/>
  <rect x="219.7" y="275.3" width="19.4" height="4.1" fill="#f87171" rx="1"/>
  <rect x="239.1" y="279.4" width="19.4" height="10.6" fill="#f59e0b" rx="1"/>
  <rect x="239.1" y="276.8" width="19.4" height="2.6" fill="#c47d08" rx="1"/>
  <rect x="239.1" y="273.9" width="19.4" height="2.9" fill="#f59e0b" rx="1"/>
  <rect x="258.4" y="277.5" width="19.4" height="12.5" fill="#f472b6" rx="1"/>
  <rect x="258.4" y="274.5" width="19.4" height="3.1" fill="#c05a92" rx="1"/>
  <rect x="258.4" y="270.0" width="19.4" height="4.5" fill="#f472b6" rx="1"/>
  <rect x="277.8" y="241.5" width="19.4" height="48.5" fill="#4ade80" rx="1"/>
  <rect x="277.8" y="236.5" width="19.4" height="5.0" fill="#3aaf60" rx="1"/>
  <rect x="277.8" y="227.5" width="19.4" height="9.0" fill="#4ade80" rx="1"/>
  <text x="248.8" y="306" text-anchor="middle" fill="#e6edf3" font-size="10" font-weight="600">hdfs.json</text>
  <text x="248.8" y="318" text-anchor="middle" fill="#7d8590" font-size="9">7.0 MB</text>
  <rect x="329.5" y="273.4" width="19.4" height="16.6" fill="#60a5fa" rx="1"/>
  <rect x="329.5" y="252.9" width="19.4" height="20.5" fill="#4680c4" rx="1"/>
  <rect x="329.5" y="247.2" width="19.4" height="5.7" fill="#60a5fa" rx="1"/>
  <rect x="348.9" y="267.5" width="19.4" height="22.5" fill="#f87171" rx="1"/>
  <rect x="348.9" y="245.9" width="19.4" height="21.6" fill="#c45050" rx="1"/>
  <rect x="348.9" y="235.3" width="19.4" height="10.6" fill="#f87171" rx="1"/>
  <rect x="368.2" y="259.5" width="19.4" height="30.5" fill="#f59e0b" rx="1"/>
  <rect x="368.2" y="238.7" width="19.4" height="20.7" fill="#c47d08" rx="1"/>
  <rect x="368.2" y="230.1" width="19.4" height="8.6" fill="#f59e0b" rx="1"/>
  <rect x="387.6" y="250.7" width="19.4" height="39.3" fill="#f472b6" rx="1"/>
  <rect x="387.6" y="229.1" width="19.4" height="21.6" fill="#c05a92" rx="1"/>
  <rect x="387.6" y="216.0" width="19.4" height="13.1" fill="#f472b6" rx="1"/>
  <rect x="407.0" y="185.1" width="19.4" height="104.9" fill="#4ade80" rx="1"/>
  <rect x="407.0" y="158.3" width="19.4" height="26.8" fill="#3aaf60" rx="1"/>
  <rect x="407.0" y="135.5" width="19.4" height="22.8" fill="#4ade80" rx="1"/>
  <text x="377.9" y="306" text-anchor="middle" fill="#e6edf3" font-size="10" font-weight="600">mozilla</text>
  <text x="377.9" y="318" text-anchor="middle" fill="#7d8590" font-size="9">51.2 MB</text>
  <rect x="458.6" y="272.0" width="19.4" height="18.0" fill="#60a5fa" rx="1"/>
  <rect x="458.6" y="251.9" width="19.4" height="20.1" fill="#4680c4" rx="1"/>
  <rect x="458.6" y="247.1" width="19.4" height="4.8" fill="#60a5fa" rx="1"/>
  <rect x="478.0" y="260.5" width="19.4" height="29.5" fill="#f87171" rx="1"/>
  <rect x="478.0" y="239.0" width="19.4" height="21.5" fill="#c45050" rx="1"/>
  <rect x="478.0" y="226.5" width="19.4" height="12.5" fill="#f87171" rx="1"/>
  <rect x="497.4" y="258.8" width="19.4" height="31.2" fill="#f59e0b" rx="1"/>
  <rect x="497.4" y="238.7" width="19.4" height="20.1" fill="#c47d08" rx="1"/>
  <rect x="497.4" y="231.2" width="19.4" height="7.5" fill="#f59e0b" rx="1"/>
  <rect x="516.8" y="237.5" width="19.4" height="52.5" fill="#f472b6" rx="1"/>
  <rect x="516.8" y="216.0" width="19.4" height="21.5" fill="#c05a92" rx="1"/>
  <rect x="516.8" y="201.2" width="19.4" height="14.8" fill="#f472b6" rx="1"/>
  <rect x="536.1" y="190.5" width="19.4" height="99.5" fill="#4ade80" rx="1"/>
  <rect x="536.1" y="164.5" width="19.4" height="26.0" fill="#3aaf60" rx="1"/>
  <rect x="536.1" y="137.2" width="19.4" height="27.3" fill="#4ade80" rx="1"/>
  <text x="507.1" y="306" text-anchor="middle" fill="#e6edf3" font-size="10" font-weight="600">mr</text>
  <text x="507.1" y="318" text-anchor="middle" fill="#7d8590" font-size="9">10.0 MB</text>
  <rect x="587.8" y="281.2" width="19.4" height="8.8" fill="#60a5fa" rx="1"/>
  <rect x="587.8" y="276.8" width="19.4" height="4.5" fill="#4680c4" rx="1"/>
  <rect x="587.8" y="273.5" width="19.4" height="3.2" fill="#60a5fa" rx="1"/>
  <rect x="607.2" y="277.9" width="19.4" height="12.1" fill="#f87171" rx="1"/>
  <rect x="607.2" y="272.6" width="19.4" height="5.3" fill="#c45050" rx="1"/>
  <rect x="607.2" y="266.0" width="19.4" height="6.5" fill="#f87171" rx="1"/>
  <rect x="626.6" y="273.7" width="19.4" height="16.3" fill="#f59e0b" rx="1"/>
  <rect x="626.6" y="269.3" width="19.4" height="4.5" fill="#c47d08" rx="1"/>
  <rect x="626.6" y="264.4" width="19.4" height="4.9" fill="#f59e0b" rx="1"/>
  <rect x="645.9" y="270.2" width="19.4" height="19.8" fill="#f472b6" rx="1"/>
  <rect x="645.9" y="264.8" width="19.4" height="5.3" fill="#c05a92" rx="1"/>
  <rect x="645.9" y="257.4" width="19.4" height="7.4" fill="#f472b6" rx="1"/>
  <rect x="665.3" y="231.7" width="19.4" height="58.3" fill="#4ade80" rx="1"/>
  <rect x="665.3" y="224.0" width="19.4" height="7.7" fill="#3aaf60" rx="1"/>
  <rect x="665.3" y="209.7" width="19.4" height="14.3" fill="#4ade80" rx="1"/>
  <text x="636.2" y="306" text-anchor="middle" fill="#e6edf3" font-size="10" font-weight="600">nci</text>
  <text x="636.2" y="318" text-anchor="middle" fill="#7d8590" font-size="9">33.6 MB</text>
  <rect x="717.0" y="273.5" width="19.4" height="16.5" fill="#60a5fa" rx="1"/>
  <rect x="717.0" y="254.1" width="19.4" height="19.5" fill="#4680c4" rx="1"/>
  <rect x="717.0" y="249.4" width="19.4" height="4.6" fill="#60a5fa" rx="1"/>
  <rect x="736.4" y="269.0" width="19.4" height="21.0" fill="#f87171" rx="1"/>
  <rect x="736.4" y="248.3" width="19.4" height="20.7" fill="#c45050" rx="1"/>
  <rect x="736.4" y="241.0" width="19.4" height="7.3" fill="#f87171" rx="1"/>
  <rect x="755.7" y="261.8" width="19.4" height="28.2" fill="#f59e0b" rx="1"/>
  <rect x="755.7" y="242.4" width="19.4" height="19.4" fill="#c47d08" rx="1"/>
  <rect x="755.7" y="236.1" width="19.4" height="6.3" fill="#f59e0b" rx="1"/>
  <rect x="775.1" y="254.8" width="19.4" height="35.2" fill="#f472b6" rx="1"/>
  <rect x="775.1" y="234.1" width="19.4" height="20.7" fill="#c05a92" rx="1"/>
  <rect x="775.1" y="225.9" width="19.4" height="8.2" fill="#f472b6" rx="1"/>
  <rect x="794.5" y="198.0" width="19.4" height="92.0" fill="#4ade80" rx="1"/>
  <rect x="794.5" y="175.0" width="19.4" height="23.0" fill="#3aaf60" rx="1"/>
  <rect x="794.5" y="159.3" width="19.4" height="15.8" fill="#4ade80" rx="1"/>
  <text x="765.4" y="306" text-anchor="middle" fill="#e6edf3" font-size="10" font-weight="600">osdb</text>
  <text x="765.4" y="318" text-anchor="middle" fill="#7d8590" font-size="9">10.1 MB</text>
  <line x1="55" y1="547.4" x2="830" y2="547.4" stroke="#21262d" stroke-width="1"/>
  <text x="47" y="547.4" text-anchor="end" dominant-baseline="middle" fill="#7d8590" font-size="10">10</text>
  <line x1="55" y1="494.8" x2="830" y2="494.8" stroke="#21262d" stroke-width="1"/>
  <text x="47" y="494.8" text-anchor="end" dominant-baseline="middle" fill="#7d8590" font-size="10">20</text>
  <line x1="55" y1="442.2" x2="830" y2="442.2" stroke="#21262d" stroke-width="1"/>
  <text x="47" y="442.2" text-anchor="end" dominant-baseline="middle" fill="#7d8590" font-size="10">30</text>
  <line x1="55" y1="389.6" x2="830" y2="389.6" stroke="#21262d" stroke-width="1"/>
  <text x="47" y="389.6" text-anchor="end" dominant-baseline="middle" fill="#7d8590" font-size="10">40</text>
  <line x1="55" y1="600" x2="830" y2="600" stroke="#30363d" stroke-width="1.5"/>
  <rect x="71.1" y="576.5" width="19.4" height="23.5" fill="#60a5fa" rx="1"/>
  <rect x="71.1" y="559.5" width="19.4" height="17.1" fill="#4680c4" rx="1"/>
  <rect x="71.1" y="554.0" width="19.4" height="5.5" fill="#60a5fa" rx="1"/>
  <rect x="90.5" y="569.6" width="19.4" height="30.4" fill="#f87171" rx="1"/>
  <rect x="90.5" y="550.8" width="19.4" height="18.8" fill="#c45050" rx="1"/>
  <rect x="90.5" y="537.5" width="19.4" height="13.3" fill="#f87171" rx="1"/>
  <rect x="109.9" y="562.1" width="19.4" height="37.9" fill="#f59e0b" rx="1"/>
  <rect x="109.9" y="545.0" width="19.4" height="17.1" fill="#c47d08" rx="1"/>
  <rect x="109.9" y="536.0" width="19.4" height="9.1" fill="#f59e0b" rx="1"/>
  <rect x="129.3" y="545.9" width="19.4" height="54.1" fill="#f472b6" rx="1"/>
  <rect x="129.3" y="527.1" width="19.4" height="18.8" fill="#c05a92" rx="1"/>
  <rect x="129.3" y="510.8" width="19.4" height="16.4" fill="#f472b6" rx="1"/>
  <rect x="148.6" y="499.0" width="19.4" height="101.0" fill="#4ade80" rx="1"/>
  <rect x="148.6" y="477.2" width="19.4" height="21.8" fill="#3aaf60" rx="1"/>
  <rect x="148.6" y="443.1" width="19.4" height="34.1" fill="#4ade80" rx="1"/>
  <text x="119.6" y="616" text-anchor="middle" fill="#e6edf3" font-size="10" font-weight="600">reymont.pdf</text>
  <text x="119.6" y="628" text-anchor="middle" fill="#7d8590" font-size="9">6.6 MB</text>
  <rect x="200.3" y="586.1" width="19.4" height="13.9" fill="#60a5fa" rx="1"/>
  <rect x="200.3" y="572.7" width="19.4" height="13.4" fill="#4680c4" rx="1"/>
  <rect x="200.3" y="568.7" width="19.4" height="4.0" fill="#60a5fa" rx="1"/>
  <rect x="219.7" y="581.6" width="19.4" height="18.4" fill="#f87171" rx="1"/>
  <rect x="219.7" y="566.6" width="19.4" height="15.0" fill="#c45050" rx="1"/>
  <rect x="219.7" y="557.6" width="19.4" height="9.0" fill="#f87171" rx="1"/>
  <rect x="239.1" y="577.0" width="19.4" height="23.0" fill="#f59e0b" rx="1"/>
  <rect x="239.1" y="563.6" width="19.4" height="13.4" fill="#c47d08" rx="1"/>
  <rect x="239.1" y="557.7" width="19.4" height="5.9" fill="#f59e0b" rx="1"/>
  <rect x="258.4" y="568.8" width="19.4" height="31.2" fill="#f472b6" rx="1"/>
  <rect x="258.4" y="553.8" width="19.4" height="15.0" fill="#c05a92" rx="1"/>
  <rect x="258.4" y="543.0" width="19.4" height="10.7" fill="#f472b6" rx="1"/>
  <rect x="277.8" y="514.3" width="19.4" height="85.7" fill="#4ade80" rx="1"/>
  <rect x="277.8" y="496.5" width="19.4" height="17.8" fill="#3aaf60" rx="1"/>
  <rect x="277.8" y="474.5" width="19.4" height="22.0" fill="#4ade80" rx="1"/>
  <text x="248.8" y="616" text-anchor="middle" fill="#e6edf3" font-size="10" font-weight="600">samba</text>
  <text x="248.8" y="628" text-anchor="middle" fill="#7d8590" font-size="9">21.6 MB</text>
  <rect x="329.5" y="578.6" width="19.4" height="21.4" fill="#60a5fa" rx="1"/>
  <rect x="329.5" y="533.3" width="19.4" height="45.3" fill="#4680c4" rx="1"/>
  <rect x="329.5" y="527.5" width="19.4" height="5.7" fill="#60a5fa" rx="1"/>
  <rect x="348.9" y="580.0" width="19.4" height="20.0" fill="#f87171" rx="1"/>
  <rect x="348.9" y="534.3" width="19.4" height="45.7" fill="#c45050" rx="1"/>
  <rect x="348.9" y="528.4" width="19.4" height="5.9" fill="#f87171" rx="1"/>
  <rect x="368.2" y="562.8" width="19.4" height="37.2" fill="#f59e0b" rx="1"/>
  <rect x="368.2" y="517.5" width="19.4" height="45.3" fill="#c47d08" rx="1"/>
  <rect x="368.2" y="509.5" width="19.4" height="8.1" fill="#f59e0b" rx="1"/>
  <rect x="387.6" y="566.5" width="19.4" height="33.5" fill="#f472b6" rx="1"/>
  <rect x="387.6" y="520.8" width="19.4" height="45.7" fill="#c05a92" rx="1"/>
  <rect x="387.6" y="513.6" width="19.4" height="7.2" fill="#f472b6" rx="1"/>
  <rect x="407.0" y="453.7" width="19.4" height="146.3" fill="#4ade80" rx="1"/>
  <rect x="407.0" y="410.1" width="19.4" height="43.6" fill="#3aaf60" rx="1"/>
  <rect x="407.0" y="391.3" width="19.4" height="18.9" fill="#4ade80" rx="1"/>
  <text x="377.9" y="616" text-anchor="middle" fill="#e6edf3" font-size="10" font-weight="600">sao</text>
  <text x="377.9" y="628" text-anchor="middle" fill="#7d8590" font-size="9">7.3 MB</text>
  <rect x="458.6" y="579.0" width="19.4" height="21.0" fill="#60a5fa" rx="1"/>
  <rect x="458.6" y="561.7" width="19.4" height="17.3" fill="#4680c4" rx="1"/>
  <rect x="458.6" y="556.5" width="19.4" height="5.2" fill="#60a5fa" rx="1"/>
  <rect x="478.0" y="568.4" width="19.4" height="31.6" fill="#f87171" rx="1"/>
  <rect x="478.0" y="549.3" width="19.4" height="19.1" fill="#c45050" rx="1"/>
  <rect x="478.0" y="536.7" width="19.4" height="12.6" fill="#f87171" rx="1"/>
  <rect x="497.4" y="566.6" width="19.4" height="33.4" fill="#f59e0b" rx="1"/>
  <rect x="497.4" y="549.3" width="19.4" height="17.3" fill="#c47d08" rx="1"/>
  <rect x="497.4" y="541.5" width="19.4" height="7.8" fill="#f59e0b" rx="1"/>
  <rect x="516.8" y="546.9" width="19.4" height="53.1" fill="#f472b6" rx="1"/>
  <rect x="516.8" y="527.8" width="19.4" height="19.1" fill="#c05a92" rx="1"/>
  <rect x="516.8" y="512.0" width="19.4" height="15.8" fill="#f472b6" rx="1"/>
  <rect x="536.1" y="495.4" width="19.4" height="104.6" fill="#4ade80" rx="1"/>
  <rect x="536.1" y="474.3" width="19.4" height="21.1" fill="#3aaf60" rx="1"/>
  <rect x="536.1" y="442.0" width="19.4" height="32.3" fill="#4ade80" rx="1"/>
  <text x="507.1" y="616" text-anchor="middle" fill="#e6edf3" font-size="10" font-weight="600">webster</text>
  <text x="507.1" y="628" text-anchor="middle" fill="#7d8590" font-size="9">41.5 MB</text>
  <rect x="587.8" y="591.4" width="19.4" height="8.6" fill="#60a5fa" rx="1"/>
  <rect x="587.8" y="549.4" width="19.4" height="42.0" fill="#4680c4" rx="1"/>
  <rect x="587.8" y="544.6" width="19.4" height="4.8" fill="#60a5fa" rx="1"/>
  <rect x="607.2" y="575.0" width="19.4" height="25.0" fill="#f87171" rx="1"/>
  <rect x="607.2" y="528.1" width="19.4" height="47.0" fill="#c45050" rx="1"/>
  <rect x="607.2" y="520.9" width="19.4" height="7.2" fill="#f87171" rx="1"/>
  <rect x="626.6" y="576.4" width="19.4" height="23.6" fill="#f59e0b" rx="1"/>
  <rect x="626.6" y="534.4" width="19.4" height="42.0" fill="#c47d08" rx="1"/>
  <rect x="626.6" y="528.0" width="19.4" height="6.4" fill="#f59e0b" rx="1"/>
  <rect x="645.9" y="557.5" width="19.4" height="42.5" fill="#f472b6" rx="1"/>
  <rect x="645.9" y="510.5" width="19.4" height="47.0" fill="#c05a92" rx="1"/>
  <rect x="645.9" y="502.0" width="19.4" height="8.5" fill="#f472b6" rx="1"/>
  <rect x="665.3" y="446.2" width="19.4" height="153.8" fill="#4ade80" rx="1"/>
  <rect x="665.3" y="400.0" width="19.4" height="46.2" fill="#3aaf60" rx="1"/>
  <rect x="665.3" y="381.8" width="19.4" height="18.2" fill="#4ade80" rx="1"/>
  <text x="636.2" y="616" text-anchor="middle" fill="#e6edf3" font-size="10" font-weight="600">x-ray</text>
  <text x="636.2" y="628" text-anchor="middle" fill="#7d8590" font-size="9">8.5 MB</text>
  <rect x="717.0" y="589.1" width="19.4" height="10.9" fill="#60a5fa" rx="1"/>
  <rect x="717.0" y="581.7" width="19.4" height="7.4" fill="#4680c4" rx="1"/>
  <rect x="717.0" y="578.2" width="19.4" height="3.4" fill="#60a5fa" rx="1"/>
  <rect x="736.4" y="585.1" width="19.4" height="14.9" fill="#f87171" rx="1"/>
  <rect x="736.4" y="576.7" width="19.4" height="8.4" fill="#c45050" rx="1"/>
  <rect x="736.4" y="569.9" width="19.4" height="6.8" fill="#f87171" rx="1"/>
  <rect x="755.7" y="581.4" width="19.4" height="18.6" fill="#f59e0b" rx="1"/>
  <rect x="755.7" y="574.0" width="19.4" height="7.4" fill="#c47d08" rx="1"/>
  <rect x="755.7" y="569.2" width="19.4" height="4.8" fill="#f59e0b" rx="1"/>
  <rect x="775.1" y="575.1" width="19.4" height="24.9" fill="#f472b6" rx="1"/>
  <rect x="775.1" y="566.7" width="19.4" height="8.4" fill="#c05a92" rx="1"/>
  <rect x="775.1" y="558.9" width="19.4" height="7.8" fill="#f472b6" rx="1"/>
  <rect x="794.5" y="531.1" width="19.4" height="68.9" fill="#4ade80" rx="1"/>
  <rect x="794.5" y="519.4" width="19.4" height="11.8" fill="#3aaf60" rx="1"/>
  <rect x="794.5" y="500.8" width="19.4" height="18.5" fill="#4ade80" rx="1"/>
  <text x="765.4" y="616" text-anchor="middle" fill="#e6edf3" font-size="10" font-weight="600">xml_collection.xml</text>
  <text x="765.4" y="628" text-anchor="middle" fill="#7d8590" font-size="9">5.3 MB</text>
  <rect x="222" y="645" width="12" height="12" fill="#60a5fa" rx="2"/>
  <text x="240" y="655" fill="#e6edf3" font-size="10" font-weight="500">libzstd v1.5.7 (C)</text>
  <rect x="222" y="663" width="12" height="12" fill="#f87171" rx="2"/>
  <text x="240" y="673" fill="#e6edf3" font-size="10" font-weight="500">zrip (safe SIMD + encapsulated unsafe)</text>
  <rect x="222" y="681" width="12" height="12" fill="#f59e0b" rx="2"/>
  <text x="240" y="691" fill="#e6edf3" font-size="10" font-weight="500">structured-zstd v0.0.48 (unsafe)</text>
  <rect x="472" y="645" width="12" height="12" fill="#f472b6" rx="2"/>
  <text x="490" y="655" fill="#e6edf3" font-size="10" font-weight="500">zrip paranoid (safe SIMD, no unsafe)</text>
  <rect x="472" y="663" width="12" height="12" fill="#4ade80" rx="2"/>
  <text x="490" y="673" fill="#e6edf3" font-size="10" font-weight="500">ruzstd v0.8.3 (safe)</text>
  <text x="232" y="716" fill="#e6edf3" font-size="9">bright = compress + decompress</text>
  <text x="472" y="716" fill="#7d8590" font-size="9">dim = transfer @100 MB/s</text>
</svg>
