<svg xmlns="http://www.w3.org/2000/svg" viewBox="0 0 850 720" font-family="system-ui, -apple-system, sans-serif">
  <rect width="850" height="720" fill="#0d1117"/>
  <text x="442.5" y="22" text-anchor="middle" fill="#e6edf3" font-size="14" font-weight="700">zstd Pipeline @100 MB/s: Per-file, Level 1 (lower is better)</text>
  <text x="442.5" y="38" text-anchor="middle" fill="#7d8590" font-size="10">Intel Core i7-8700B @ 3.20GHz, performance governor, turbo off</text>
  <line x1="55" y1="237.5" x2="830" y2="237.5" stroke="#21262d" stroke-width="1"/>
  <text x="47" y="237.5" text-anchor="end" dominant-baseline="middle" fill="#7d8590" font-size="10">10</text>
  <line x1="55" y1="185.0" x2="830" y2="185.0" stroke="#21262d" stroke-width="1"/>
  <text x="47" y="185.0" text-anchor="end" dominant-baseline="middle" fill="#7d8590" font-size="10">20</text>
  <line x1="55" y1="132.5" x2="830" y2="132.5" stroke="#21262d" stroke-width="1"/>
  <text x="47" y="132.5" text-anchor="end" dominant-baseline="middle" fill="#7d8590" font-size="10">30</text>
  <line x1="55" y1="80.0" x2="830" y2="80.0" stroke="#21262d" stroke-width="1"/>
  <text x="47" y="80.0" text-anchor="end" dominant-baseline="middle" fill="#7d8590" font-size="10">40</text>
  <line x1="55" y1="290" x2="830" y2="290" stroke="#30363d" stroke-width="1.5"/>
  <text x="22" y="325.0" text-anchor="middle" fill="#e6edf3" font-size="11" font-weight="600" transform="rotate(-90,22,325.0)">seconds / GB</text>
  <rect x="71.1" y="265.5" width="19.4" height="24.5" fill="#60a5fa" rx="1"/>
  <rect x="71.1" y="243.5" width="19.4" height="22.0" fill="#4680c4" rx="1"/>
  <rect x="71.1" y="238.2" width="19.4" height="5.3" fill="#60a5fa" rx="1"/>
  <rect x="90.5" y="248.3" width="19.4" height="41.7" fill="#f87171" rx="1"/>
  <rect x="90.5" y="224.9" width="19.4" height="23.5" fill="#c45050" rx="1"/>
  <rect x="90.5" y="209.5" width="19.4" height="15.4" fill="#f87171" rx="1"/>
  <rect x="109.9" y="252.1" width="19.4" height="37.9" fill="#f59e0b" rx="1"/>
  <rect x="109.9" y="230.1" width="19.4" height="21.9" fill="#c47d08" rx="1"/>
  <rect x="109.9" y="221.0" width="19.4" height="9.1" fill="#f59e0b" rx="1"/>
  <rect x="129.3" y="232.4" width="19.4" height="57.6" fill="#f472b6" rx="1"/>
  <rect x="129.3" y="208.9" width="19.4" height="23.5" fill="#c05a92" rx="1"/>
  <rect x="129.3" y="189.2" width="19.4" height="19.7" fill="#f472b6" rx="1"/>
  <rect x="148.6" y="171.6" width="19.4" height="118.4" fill="#4ade80" rx="1"/>
  <rect x="148.6" y="145.9" width="19.4" height="25.7" fill="#3aaf60" rx="1"/>
  <rect x="148.6" y="106.7" width="19.4" height="39.2" fill="#4ade80" rx="1"/>
  <text x="119.6" y="306" text-anchor="middle" fill="#e6edf3" font-size="10" font-weight="600">dickens</text>
  <text x="119.6" y="318" text-anchor="middle" fill="#7d8590" font-size="9">10.2 MB</text>
  <rect x="200.3" y="284.5" width="19.4" height="5.5" fill="#60a5fa" rx="1"/>
  <rect x="200.3" y="281.9" width="19.4" height="2.6" fill="#4680c4" rx="1"/>
  <rect x="200.3" y="279.9" width="19.4" height="2.0" fill="#60a5fa" rx="1"/>
  <rect x="219.7" y="281.5" width="19.4" height="8.5" fill="#f87171" rx="1"/>
  <rect x="219.7" y="278.5" width="19.4" height="3.0" fill="#c45050" rx="1"/>
  <rect x="219.7" y="274.1" width="19.4" height="4.3" fill="#f87171" rx="1"/>
  <rect x="239.1" y="279.5" width="19.4" height="10.5" fill="#f59e0b" rx="1"/>
  <rect x="239.1" y="276.8" width="19.4" height="2.6" fill="#c47d08" rx="1"/>
  <rect x="239.1" y="273.9" width="19.4" height="2.9" fill="#f59e0b" rx="1"/>
  <rect x="258.4" y="278.6" width="19.4" height="11.4" fill="#f472b6" rx="1"/>
  <rect x="258.4" y="275.6" width="19.4" height="3.0" fill="#c05a92" rx="1"/>
  <rect x="258.4" y="270.6" width="19.4" height="5.0" fill="#f472b6" rx="1"/>
  <rect x="277.8" y="240.8" width="19.4" height="49.2" fill="#4ade80" rx="1"/>
  <rect x="277.8" y="235.7" width="19.4" height="5.0" fill="#3aaf60" rx="1"/>
  <rect x="277.8" y="226.7" width="19.4" height="9.0" fill="#4ade80" rx="1"/>
  <text x="248.8" y="306" text-anchor="middle" fill="#e6edf3" font-size="10" font-weight="600">hdfs.json</text>
  <text x="248.8" y="318" text-anchor="middle" fill="#7d8590" font-size="9">7.0 MB</text>
  <rect x="329.5" y="273.4" width="19.4" height="16.6" fill="#60a5fa" rx="1"/>
  <rect x="329.5" y="252.9" width="19.4" height="20.5" fill="#4680c4" rx="1"/>
  <rect x="329.5" y="247.2" width="19.4" height="5.7" fill="#60a5fa" rx="1"/>
  <rect x="348.9" y="262.1" width="19.4" height="27.9" fill="#f87171" rx="1"/>
  <rect x="348.9" y="240.5" width="19.4" height="21.6" fill="#c45050" rx="1"/>
  <rect x="348.9" y="228.9" width="19.4" height="11.6" fill="#f87171" rx="1"/>
  <rect x="368.2" y="259.4" width="19.4" height="30.6" fill="#f59e0b" rx="1"/>
  <rect x="368.2" y="238.7" width="19.4" height="20.7" fill="#c47d08" rx="1"/>
  <rect x="368.2" y="230.2" width="19.4" height="8.5" fill="#f59e0b" rx="1"/>
  <rect x="387.6" y="252.5" width="19.4" height="37.5" fill="#f472b6" rx="1"/>
  <rect x="387.6" y="231.0" width="19.4" height="21.6" fill="#c05a92" rx="1"/>
  <rect x="387.6" y="216.9" width="19.4" height="14.1" fill="#f472b6" rx="1"/>
  <rect x="407.0" y="182.4" width="19.4" height="107.6" fill="#4ade80" rx="1"/>
  <rect x="407.0" y="155.7" width="19.4" height="26.7" fill="#3aaf60" rx="1"/>
  <rect x="407.0" y="133.9" width="19.4" height="21.8" fill="#4ade80" rx="1"/>
  <text x="377.9" y="306" text-anchor="middle" fill="#e6edf3" font-size="10" font-weight="600">mozilla</text>
  <text x="377.9" y="318" text-anchor="middle" fill="#7d8590" font-size="9">51.2 MB</text>
  <rect x="458.6" y="272.0" width="19.4" height="18.0" fill="#60a5fa" rx="1"/>
  <rect x="458.6" y="251.9" width="19.4" height="20.1" fill="#4680c4" rx="1"/>
  <rect x="458.6" y="247.1" width="19.4" height="4.8" fill="#60a5fa" rx="1"/>
  <rect x="478.0" y="256.8" width="19.4" height="33.2" fill="#f87171" rx="1"/>
  <rect x="478.0" y="235.3" width="19.4" height="21.5" fill="#c45050" rx="1"/>
  <rect x="478.0" y="222.1" width="19.4" height="13.1" fill="#f87171" rx="1"/>
  <rect x="497.4" y="258.7" width="19.4" height="31.3" fill="#f59e0b" rx="1"/>
  <rect x="497.4" y="238.7" width="19.4" height="20.1" fill="#c47d08" rx="1"/>
  <rect x="497.4" y="231.2" width="19.4" height="7.5" fill="#f59e0b" rx="1"/>
  <rect x="516.8" y="243.2" width="19.4" height="46.8" fill="#f472b6" rx="1"/>
  <rect x="516.8" y="221.7" width="19.4" height="21.5" fill="#c05a92" rx="1"/>
  <rect x="516.8" y="205.8" width="19.4" height="15.9" fill="#f472b6" rx="1"/>
  <rect x="536.1" y="188.7" width="19.4" height="101.3" fill="#4ade80" rx="1"/>
  <rect x="536.1" y="162.7" width="19.4" height="26.0" fill="#3aaf60" rx="1"/>
  <rect x="536.1" y="135.9" width="19.4" height="26.8" fill="#4ade80" rx="1"/>
  <text x="507.1" y="306" text-anchor="middle" fill="#e6edf3" font-size="10" font-weight="600">mr</text>
  <text x="507.1" y="318" text-anchor="middle" fill="#7d8590" font-size="9">10.0 MB</text>
  <rect x="587.8" y="281.2" width="19.4" height="8.8" fill="#60a5fa" rx="1"/>
  <rect x="587.8" y="276.7" width="19.4" height="4.5" fill="#4680c4" rx="1"/>
  <rect x="587.8" y="273.5" width="19.4" height="3.2" fill="#60a5fa" rx="1"/>
  <rect x="607.2" y="276.2" width="19.4" height="13.8" fill="#f87171" rx="1"/>
  <rect x="607.2" y="270.9" width="19.4" height="5.3" fill="#c45050" rx="1"/>
  <rect x="607.2" y="264.2" width="19.4" height="6.7" fill="#f87171" rx="1"/>
  <rect x="626.6" y="273.7" width="19.4" height="16.3" fill="#f59e0b" rx="1"/>
  <rect x="626.6" y="269.2" width="19.4" height="4.5" fill="#c47d08" rx="1"/>
  <rect x="626.6" y="264.3" width="19.4" height="4.9" fill="#f59e0b" rx="1"/>
  <rect x="645.9" y="271.3" width="19.4" height="18.7" fill="#f472b6" rx="1"/>
  <rect x="645.9" y="265.9" width="19.4" height="5.3" fill="#c05a92" rx="1"/>
  <rect x="645.9" y="258.2" width="19.4" height="7.7" fill="#f472b6" rx="1"/>
  <rect x="665.3" y="231.8" width="19.4" height="58.2" fill="#4ade80" rx="1"/>
  <rect x="665.3" y="224.0" width="19.4" height="7.7" fill="#3aaf60" rx="1"/>
  <rect x="665.3" y="209.8" width="19.4" height="14.3" fill="#4ade80" rx="1"/>
  <text x="636.2" y="306" text-anchor="middle" fill="#e6edf3" font-size="10" font-weight="600">nci</text>
  <text x="636.2" y="318" text-anchor="middle" fill="#7d8590" font-size="9">33.6 MB</text>
  <rect x="717.0" y="273.4" width="19.4" height="16.6" fill="#60a5fa" rx="1"/>
  <rect x="717.0" y="254.0" width="19.4" height="19.4" fill="#4680c4" rx="1"/>
  <rect x="717.0" y="249.4" width="19.4" height="4.7" fill="#60a5fa" rx="1"/>
  <rect x="736.4" y="266.8" width="19.4" height="23.2" fill="#f87171" rx="1"/>
  <rect x="736.4" y="246.2" width="19.4" height="20.6" fill="#c45050" rx="1"/>
  <rect x="736.4" y="238.6" width="19.4" height="7.6" fill="#f87171" rx="1"/>
  <rect x="755.7" y="262.0" width="19.4" height="28.0" fill="#f59e0b" rx="1"/>
  <rect x="755.7" y="242.6" width="19.4" height="19.4" fill="#c47d08" rx="1"/>
  <rect x="755.7" y="236.2" width="19.4" height="6.4" fill="#f59e0b" rx="1"/>
  <rect x="775.1" y="258.0" width="19.4" height="32.0" fill="#f472b6" rx="1"/>
  <rect x="775.1" y="237.4" width="19.4" height="20.6" fill="#c05a92" rx="1"/>
  <rect x="775.1" y="228.2" width="19.4" height="9.2" fill="#f472b6" rx="1"/>
  <rect x="794.5" y="200.6" width="19.4" height="89.4" fill="#4ade80" rx="1"/>
  <rect x="794.5" y="177.7" width="19.4" height="22.9" fill="#3aaf60" rx="1"/>
  <rect x="794.5" y="162.1" width="19.4" height="15.6" fill="#4ade80" rx="1"/>
  <text x="765.4" y="306" text-anchor="middle" fill="#e6edf3" font-size="10" font-weight="600">osdb</text>
  <text x="765.4" y="318" text-anchor="middle" fill="#7d8590" font-size="9">10.1 MB</text>
  <line x1="55" y1="547.5" x2="830" y2="547.5" stroke="#21262d" stroke-width="1"/>
  <text x="47" y="547.5" text-anchor="end" dominant-baseline="middle" fill="#7d8590" font-size="10">10</text>
  <line x1="55" y1="495.0" x2="830" y2="495.0" stroke="#21262d" stroke-width="1"/>
  <text x="47" y="495.0" text-anchor="end" dominant-baseline="middle" fill="#7d8590" font-size="10">20</text>
  <line x1="55" y1="442.5" x2="830" y2="442.5" stroke="#21262d" stroke-width="1"/>
  <text x="47" y="442.5" text-anchor="end" dominant-baseline="middle" fill="#7d8590" font-size="10">30</text>
  <line x1="55" y1="390.0" x2="830" y2="390.0" stroke="#21262d" stroke-width="1"/>
  <text x="47" y="390.0" text-anchor="end" dominant-baseline="middle" fill="#7d8590" font-size="10">40</text>
  <line x1="55" y1="600" x2="830" y2="600" stroke="#30363d" stroke-width="1.5"/>
  <rect x="71.1" y="576.2" width="19.4" height="23.8" fill="#60a5fa" rx="1"/>
  <rect x="71.1" y="559.2" width="19.4" height="17.0" fill="#4680c4" rx="1"/>
  <rect x="71.1" y="553.7" width="19.4" height="5.5" fill="#60a5fa" rx="1"/>
  <rect x="90.5" y="566.5" width="19.4" height="33.5" fill="#f87171" rx="1"/>
  <rect x="90.5" y="547.8" width="19.4" height="18.8" fill="#c45050" rx="1"/>
  <rect x="90.5" y="534.0" width="19.4" height="13.8" fill="#f87171" rx="1"/>
  <rect x="109.9" y="561.8" width="19.4" height="38.2" fill="#f59e0b" rx="1"/>
  <rect x="109.9" y="544.8" width="19.4" height="17.0" fill="#c47d08" rx="1"/>
  <rect x="109.9" y="535.8" width="19.4" height="9.0" fill="#f59e0b" rx="1"/>
  <rect x="129.3" y="552.0" width="19.4" height="48.0" fill="#f472b6" rx="1"/>
  <rect x="129.3" y="533.2" width="19.4" height="18.8" fill="#c05a92" rx="1"/>
  <rect x="129.3" y="515.6" width="19.4" height="17.6" fill="#f472b6" rx="1"/>
  <rect x="148.6" y="496.9" width="19.4" height="103.1" fill="#4ade80" rx="1"/>
  <rect x="148.6" y="475.1" width="19.4" height="21.8" fill="#3aaf60" rx="1"/>
  <rect x="148.6" y="441.4" width="19.4" height="33.7" fill="#4ade80" rx="1"/>
  <text x="119.6" y="616" text-anchor="middle" fill="#e6edf3" font-size="10" font-weight="600">reymont.pdf</text>
  <text x="119.6" y="628" text-anchor="middle" fill="#7d8590" font-size="9">6.6 MB</text>
  <rect x="200.3" y="586.1" width="19.4" height="13.9" fill="#60a5fa" rx="1"/>
  <rect x="200.3" y="572.8" width="19.4" height="13.3" fill="#4680c4" rx="1"/>
  <rect x="200.3" y="568.8" width="19.4" height="4.0" fill="#60a5fa" rx="1"/>
  <rect x="219.7" y="579.2" width="19.4" height="20.8" fill="#f87171" rx="1"/>
  <rect x="219.7" y="564.2" width="19.4" height="15.0" fill="#c45050" rx="1"/>
  <rect x="219.7" y="555.6" width="19.4" height="8.6" fill="#f87171" rx="1"/>
  <rect x="239.1" y="577.1" width="19.4" height="22.9" fill="#f59e0b" rx="1"/>
  <rect x="239.1" y="563.7" width="19.4" height="13.4" fill="#c47d08" rx="1"/>
  <rect x="239.1" y="557.8" width="19.4" height="5.9" fill="#f59e0b" rx="1"/>
  <rect x="258.4" y="571.9" width="19.4" height="28.1" fill="#f472b6" rx="1"/>
  <rect x="258.4" y="556.9" width="19.4" height="15.0" fill="#c05a92" rx="1"/>
  <rect x="258.4" y="546.1" width="19.4" height="10.7" fill="#f472b6" rx="1"/>
  <rect x="277.8" y="514.4" width="19.4" height="85.6" fill="#4ade80" rx="1"/>
  <rect x="277.8" y="496.7" width="19.4" height="17.8" fill="#3aaf60" rx="1"/>
  <rect x="277.8" y="474.8" width="19.4" height="21.9" fill="#4ade80" rx="1"/>
  <text x="248.8" y="616" text-anchor="middle" fill="#e6edf3" font-size="10" font-weight="600">samba</text>
  <text x="248.8" y="628" text-anchor="middle" fill="#7d8590" font-size="9">21.6 MB</text>
  <rect x="329.5" y="578.6" width="19.4" height="21.4" fill="#60a5fa" rx="1"/>
  <rect x="329.5" y="533.4" width="19.4" height="45.2" fill="#4680c4" rx="1"/>
  <rect x="329.5" y="527.7" width="19.4" height="5.7" fill="#60a5fa" rx="1"/>
  <rect x="348.9" y="577.7" width="19.4" height="22.3" fill="#f87171" rx="1"/>
  <rect x="348.9" y="532.1" width="19.4" height="45.6" fill="#c45050" rx="1"/>
  <rect x="348.9" y="525.5" width="19.4" height="6.5" fill="#f87171" rx="1"/>
  <rect x="368.2" y="563.0" width="19.4" height="37.0" fill="#f59e0b" rx="1"/>
  <rect x="368.2" y="517.8" width="19.4" height="45.2" fill="#c47d08" rx="1"/>
  <rect x="368.2" y="509.7" width="19.4" height="8.1" fill="#f59e0b" rx="1"/>
  <rect x="387.6" y="569.1" width="19.4" height="30.9" fill="#f472b6" rx="1"/>
  <rect x="387.6" y="523.5" width="19.4" height="45.6" fill="#c05a92" rx="1"/>
  <rect x="387.6" y="515.5" width="19.4" height="8.0" fill="#f472b6" rx="1"/>
  <rect x="407.0" y="447.8" width="19.4" height="152.2" fill="#4ade80" rx="1"/>
  <rect x="407.0" y="404.3" width="19.4" height="43.5" fill="#3aaf60" rx="1"/>
  <rect x="407.0" y="385.9" width="19.4" height="18.4" fill="#4ade80" rx="1"/>
  <text x="377.9" y="616" text-anchor="middle" fill="#e6edf3" font-size="10" font-weight="600">sao</text>
  <text x="377.9" y="628" text-anchor="middle" fill="#7d8590" font-size="9">7.3 MB</text>
  <rect x="458.6" y="579.0" width="19.4" height="21.0" fill="#60a5fa" rx="1"/>
  <rect x="458.6" y="561.7" width="19.4" height="17.3" fill="#4680c4" rx="1"/>
  <rect x="458.6" y="556.5" width="19.4" height="5.2" fill="#60a5fa" rx="1"/>
  <rect x="478.0" y="563.7" width="19.4" height="36.3" fill="#f87171" rx="1"/>
  <rect x="478.0" y="544.6" width="19.4" height="19.1" fill="#c45050" rx="1"/>
  <rect x="478.0" y="531.7" width="19.4" height="12.9" fill="#f87171" rx="1"/>
  <rect x="497.4" y="566.6" width="19.4" height="33.4" fill="#f59e0b" rx="1"/>
  <rect x="497.4" y="549.3" width="19.4" height="17.3" fill="#c47d08" rx="1"/>
  <rect x="497.4" y="541.5" width="19.4" height="7.8" fill="#f59e0b" rx="1"/>
  <rect x="516.8" y="550.7" width="19.4" height="49.3" fill="#f472b6" rx="1"/>
  <rect x="516.8" y="531.6" width="19.4" height="19.1" fill="#c05a92" rx="1"/>
  <rect x="516.8" y="515.0" width="19.4" height="16.6" fill="#f472b6" rx="1"/>
  <rect x="536.1" y="494.8" width="19.4" height="105.2" fill="#4ade80" rx="1"/>
  <rect x="536.1" y="473.7" width="19.4" height="21.1" fill="#3aaf60" rx="1"/>
  <rect x="536.1" y="441.5" width="19.4" height="32.2" fill="#4ade80" rx="1"/>
  <text x="507.1" y="616" text-anchor="middle" fill="#e6edf3" font-size="10" font-weight="600">webster</text>
  <text x="507.1" y="628" text-anchor="middle" fill="#7d8590" font-size="9">41.5 MB</text>
  <rect x="587.8" y="591.4" width="19.4" height="8.6" fill="#60a5fa" rx="1"/>
  <rect x="587.8" y="549.4" width="19.4" height="42.0" fill="#4680c4" rx="1"/>
  <rect x="587.8" y="544.6" width="19.4" height="4.8" fill="#60a5fa" rx="1"/>
  <rect x="607.2" y="571.9" width="19.4" height="28.1" fill="#f87171" rx="1"/>
  <rect x="607.2" y="525.0" width="19.4" height="46.9" fill="#c45050" rx="1"/>
  <rect x="607.2" y="517.6" width="19.4" height="7.5" fill="#f87171" rx="1"/>
  <rect x="626.6" y="576.5" width="19.4" height="23.5" fill="#f59e0b" rx="1"/>
  <rect x="626.6" y="534.5" width="19.4" height="42.0" fill="#c47d08" rx="1"/>
  <rect x="626.6" y="528.2" width="19.4" height="6.3" fill="#f59e0b" rx="1"/>
  <rect x="645.9" y="560.3" width="19.4" height="39.7" fill="#f472b6" rx="1"/>
  <rect x="645.9" y="513.4" width="19.4" height="46.9" fill="#c05a92" rx="1"/>
  <rect x="645.9" y="504.7" width="19.4" height="8.7" fill="#f472b6" rx="1"/>
  <rect x="665.3" y="445.8" width="19.4" height="154.2" fill="#4ade80" rx="1"/>
  <rect x="665.3" y="399.6" width="19.4" height="46.1" fill="#3aaf60" rx="1"/>
  <rect x="665.3" y="381.8" width="19.4" height="17.8" fill="#4ade80" rx="1"/>
  <text x="636.2" y="616" text-anchor="middle" fill="#e6edf3" font-size="10" font-weight="600">x-ray</text>
  <text x="636.2" y="628" text-anchor="middle" fill="#7d8590" font-size="9">8.5 MB</text>
  <rect x="717.0" y="589.1" width="19.4" height="10.9" fill="#60a5fa" rx="1"/>
  <rect x="717.0" y="581.7" width="19.4" height="7.4" fill="#4680c4" rx="1"/>
  <rect x="717.0" y="578.3" width="19.4" height="3.5" fill="#60a5fa" rx="1"/>
  <rect x="736.4" y="583.6" width="19.4" height="16.4" fill="#f87171" rx="1"/>
  <rect x="736.4" y="575.2" width="19.4" height="8.4" fill="#c45050" rx="1"/>
  <rect x="736.4" y="568.2" width="19.4" height="7.0" fill="#f87171" rx="1"/>
  <rect x="755.7" y="581.3" width="19.4" height="18.7" fill="#f59e0b" rx="1"/>
  <rect x="755.7" y="573.9" width="19.4" height="7.4" fill="#c47d08" rx="1"/>
  <rect x="755.7" y="569.1" width="19.4" height="4.9" fill="#f59e0b" rx="1"/>
  <rect x="775.1" y="577.6" width="19.4" height="22.4" fill="#f472b6" rx="1"/>
  <rect x="775.1" y="569.2" width="19.4" height="8.4" fill="#c05a92" rx="1"/>
  <rect x="775.1" y="560.6" width="19.4" height="8.6" fill="#f472b6" rx="1"/>
  <rect x="794.5" y="529.9" width="19.4" height="70.1" fill="#4ade80" rx="1"/>
  <rect x="794.5" y="518.1" width="19.4" height="11.8" fill="#3aaf60" rx="1"/>
  <rect x="794.5" y="499.6" width="19.4" height="18.5" fill="#4ade80" rx="1"/>
  <text x="765.4" y="616" text-anchor="middle" fill="#e6edf3" font-size="10" font-weight="600">xml_collection.xml</text>
  <text x="765.4" y="628" text-anchor="middle" fill="#7d8590" font-size="9">5.3 MB</text>
  <rect x="222" y="645" width="12" height="12" fill="#60a5fa" rx="2"/>
  <text x="240" y="655" fill="#e6edf3" font-size="10" font-weight="500">libzstd v1.5.7 (C)</text>
  <rect x="222" y="663" width="12" height="12" fill="#f87171" rx="2"/>
  <text x="240" y="673" fill="#e6edf3" font-size="10" font-weight="500">zrip (safe SIMD + encapsulated unsafe)</text>
  <rect x="222" y="681" width="12" height="12" fill="#f59e0b" rx="2"/>
  <text x="240" y="691" fill="#e6edf3" font-size="10" font-weight="500">structured-zstd v0.0.48 (unsafe)</text>
  <rect x="472" y="645" width="12" height="12" fill="#f472b6" rx="2"/>
  <text x="490" y="655" fill="#e6edf3" font-size="10" font-weight="500">zrip paranoid (safe SIMD, no unsafe)</text>
  <rect x="472" y="663" width="12" height="12" fill="#4ade80" rx="2"/>
  <text x="490" y="673" fill="#e6edf3" font-size="10" font-weight="500">ruzstd v0.8.3 (safe)</text>
  <text x="232" y="716" fill="#e6edf3" font-size="9">bright = compress + decompress</text>
  <text x="472" y="716" fill="#7d8590" font-size="9">dim = transfer @100 MB/s</text>
</svg>
