<svg xmlns="http://www.w3.org/2000/svg" viewBox="0 0 850 720" font-family="system-ui, -apple-system, sans-serif">
  <rect width="850" height="720" fill="#0d1117"/>
  <text x="442.5" y="22" text-anchor="middle" fill="#e6edf3" font-size="14" font-weight="700">zstd Pipeline @100 MB/s: Per-file, Level 1 (lower is better)</text>
  <text x="442.5" y="38" text-anchor="middle" fill="#7d8590" font-size="10">Intel Core i7-8700B @ 3.20GHz, performance governor, turbo off</text>
  <line x1="55" y1="236.5" x2="830" y2="236.5" stroke="#21262d" stroke-width="1"/>
  <text x="47" y="236.5" text-anchor="end" dominant-baseline="middle" fill="#7d8590" font-size="10">10</text>
  <line x1="55" y1="182.9" x2="830" y2="182.9" stroke="#21262d" stroke-width="1"/>
  <text x="47" y="182.9" text-anchor="end" dominant-baseline="middle" fill="#7d8590" font-size="10">20</text>
  <line x1="55" y1="129.4" x2="830" y2="129.4" stroke="#21262d" stroke-width="1"/>
  <text x="47" y="129.4" text-anchor="end" dominant-baseline="middle" fill="#7d8590" font-size="10">30</text>
  <line x1="55" y1="75.8" x2="830" y2="75.8" stroke="#21262d" stroke-width="1"/>
  <text x="47" y="75.8" text-anchor="end" dominant-baseline="middle" fill="#7d8590" font-size="10">40</text>
  <line x1="55" y1="290" x2="830" y2="290" stroke="#30363d" stroke-width="1.5"/>
  <text x="22" y="325.0" text-anchor="middle" fill="#e6edf3" font-size="11" font-weight="600" transform="rotate(-90,22,325.0)">seconds / GB</text>
  <rect x="71.1" y="265.4" width="19.4" height="24.6" fill="#60a5fa" rx="1"/>
  <rect x="71.1" y="243.0" width="19.4" height="22.4" fill="#4680c4" rx="1"/>
  <rect x="71.1" y="237.6" width="19.4" height="5.4" fill="#60a5fa" rx="1"/>
  <rect x="90.5" y="255.8" width="19.4" height="34.2" fill="#f87171" rx="1"/>
  <rect x="90.5" y="231.9" width="19.4" height="23.9" fill="#c45050" rx="1"/>
  <rect x="90.5" y="218.4" width="19.4" height="13.4" fill="#f87171" rx="1"/>
  <rect x="109.9" y="250.9" width="19.4" height="39.1" fill="#f59e0b" rx="1"/>
  <rect x="109.9" y="228.5" width="19.4" height="22.4" fill="#c47d08" rx="1"/>
  <rect x="109.9" y="219.2" width="19.4" height="9.3" fill="#f59e0b" rx="1"/>
  <rect x="129.3" y="231.4" width="19.4" height="58.6" fill="#f472b6" rx="1"/>
  <rect x="129.3" y="207.4" width="19.4" height="23.9" fill="#c05a92" rx="1"/>
  <rect x="129.3" y="189.7" width="19.4" height="17.8" fill="#f472b6" rx="1"/>
  <rect x="148.6" y="167.9" width="19.4" height="122.1" fill="#4ade80" rx="1"/>
  <rect x="148.6" y="141.7" width="19.4" height="26.2" fill="#3aaf60" rx="1"/>
  <rect x="148.6" y="101.9" width="19.4" height="39.9" fill="#4ade80" rx="1"/>
  <text x="119.6" y="306" text-anchor="middle" fill="#e6edf3" font-size="10" font-weight="600">dickens</text>
  <text x="119.6" y="318" text-anchor="middle" fill="#7d8590" font-size="9">10.2 MB</text>
  <rect x="200.3" y="284.4" width="19.4" height="5.6" fill="#60a5fa" rx="1"/>
  <rect x="200.3" y="281.7" width="19.4" height="2.7" fill="#4680c4" rx="1"/>
  <rect x="200.3" y="279.7" width="19.4" height="2.0" fill="#60a5fa" rx="1"/>
  <rect x="219.7" y="283.0" width="19.4" height="7.0" fill="#f87171" rx="1"/>
  <rect x="219.7" y="279.9" width="19.4" height="3.1" fill="#c45050" rx="1"/>
  <rect x="219.7" y="275.9" width="19.4" height="4.0" fill="#f87171" rx="1"/>
  <rect x="239.1" y="279.3" width="19.4" height="10.7" fill="#f59e0b" rx="1"/>
  <rect x="239.1" y="276.6" width="19.4" height="2.7" fill="#c47d08" rx="1"/>
  <rect x="239.1" y="273.6" width="19.4" height="3.0" fill="#f59e0b" rx="1"/>
  <rect x="258.4" y="278.5" width="19.4" height="11.5" fill="#f472b6" rx="1"/>
  <rect x="258.4" y="275.4" width="19.4" height="3.1" fill="#c05a92" rx="1"/>
  <rect x="258.4" y="270.6" width="19.4" height="4.8" fill="#f472b6" rx="1"/>
  <rect x="277.8" y="239.4" width="19.4" height="50.6" fill="#4ade80" rx="1"/>
  <rect x="277.8" y="234.3" width="19.4" height="5.1" fill="#3aaf60" rx="1"/>
  <rect x="277.8" y="225.1" width="19.4" height="9.2" fill="#4ade80" rx="1"/>
  <text x="248.8" y="306" text-anchor="middle" fill="#e6edf3" font-size="10" font-weight="600">hdfs.json</text>
  <text x="248.8" y="318" text-anchor="middle" fill="#7d8590" font-size="9">7.0 MB</text>
  <rect x="329.5" y="273.1" width="19.4" height="16.9" fill="#60a5fa" rx="1"/>
  <rect x="329.5" y="252.2" width="19.4" height="20.9" fill="#4680c4" rx="1"/>
  <rect x="329.5" y="246.3" width="19.4" height="5.8" fill="#60a5fa" rx="1"/>
  <rect x="348.9" y="268.9" width="19.4" height="21.1" fill="#f87171" rx="1"/>
  <rect x="348.9" y="247.0" width="19.4" height="22.0" fill="#c45050" rx="1"/>
  <rect x="348.9" y="236.4" width="19.4" height="10.5" fill="#f87171" rx="1"/>
  <rect x="368.2" y="258.9" width="19.4" height="31.1" fill="#f59e0b" rx="1"/>
  <rect x="368.2" y="237.8" width="19.4" height="21.1" fill="#c47d08" rx="1"/>
  <rect x="368.2" y="229.1" width="19.4" height="8.7" fill="#f59e0b" rx="1"/>
  <rect x="387.6" y="252.9" width="19.4" height="37.1" fill="#f472b6" rx="1"/>
  <rect x="387.6" y="230.9" width="19.4" height="22.0" fill="#c05a92" rx="1"/>
  <rect x="387.6" y="217.4" width="19.4" height="13.5" fill="#f472b6" rx="1"/>
  <rect x="407.0" y="181.4" width="19.4" height="108.6" fill="#4ade80" rx="1"/>
  <rect x="407.0" y="154.1" width="19.4" height="27.3" fill="#3aaf60" rx="1"/>
  <rect x="407.0" y="132.1" width="19.4" height="22.1" fill="#4ade80" rx="1"/>
  <text x="377.9" y="306" text-anchor="middle" fill="#e6edf3" font-size="10" font-weight="600">mozilla</text>
  <text x="377.9" y="318" text-anchor="middle" fill="#7d8590" font-size="9">51.2 MB</text>
  <rect x="458.6" y="271.8" width="19.4" height="18.2" fill="#60a5fa" rx="1"/>
  <rect x="458.6" y="251.3" width="19.4" height="20.5" fill="#4680c4" rx="1"/>
  <rect x="458.6" y="246.4" width="19.4" height="4.9" fill="#60a5fa" rx="1"/>
  <rect x="478.0" y="262.5" width="19.4" height="27.5" fill="#f87171" rx="1"/>
  <rect x="478.0" y="240.6" width="19.4" height="21.9" fill="#c45050" rx="1"/>
  <rect x="478.0" y="229.0" width="19.4" height="11.6" fill="#f87171" rx="1"/>
  <rect x="497.4" y="258.4" width="19.4" height="31.6" fill="#f59e0b" rx="1"/>
  <rect x="497.4" y="237.9" width="19.4" height="20.5" fill="#c47d08" rx="1"/>
  <rect x="497.4" y="230.3" width="19.4" height="7.6" fill="#f59e0b" rx="1"/>
  <rect x="516.8" y="242.0" width="19.4" height="48.0" fill="#f472b6" rx="1"/>
  <rect x="516.8" y="220.1" width="19.4" height="21.9" fill="#c05a92" rx="1"/>
  <rect x="516.8" y="205.4" width="19.4" height="14.7" fill="#f472b6" rx="1"/>
  <rect x="536.1" y="191.0" width="19.4" height="99.0" fill="#4ade80" rx="1"/>
  <rect x="536.1" y="164.5" width="19.4" height="26.5" fill="#3aaf60" rx="1"/>
  <rect x="536.1" y="137.2" width="19.4" height="27.3" fill="#4ade80" rx="1"/>
  <text x="507.1" y="306" text-anchor="middle" fill="#e6edf3" font-size="10" font-weight="600">mr</text>
  <text x="507.1" y="318" text-anchor="middle" fill="#7d8590" font-size="9">10.0 MB</text>
  <rect x="587.8" y="281.0" width="19.4" height="9.0" fill="#60a5fa" rx="1"/>
  <rect x="587.8" y="276.4" width="19.4" height="4.5" fill="#4680c4" rx="1"/>
  <rect x="587.8" y="273.1" width="19.4" height="3.3" fill="#60a5fa" rx="1"/>
  <rect x="607.2" y="278.8" width="19.4" height="11.2" fill="#f87171" rx="1"/>
  <rect x="607.2" y="273.4" width="19.4" height="5.4" fill="#c45050" rx="1"/>
  <rect x="607.2" y="267.2" width="19.4" height="6.1" fill="#f87171" rx="1"/>
  <rect x="626.6" y="273.4" width="19.4" height="16.6" fill="#f59e0b" rx="1"/>
  <rect x="626.6" y="268.9" width="19.4" height="4.5" fill="#c47d08" rx="1"/>
  <rect x="626.6" y="263.9" width="19.4" height="5.0" fill="#f59e0b" rx="1"/>
  <rect x="645.9" y="271.9" width="19.4" height="18.1" fill="#f472b6" rx="1"/>
  <rect x="645.9" y="266.5" width="19.4" height="5.4" fill="#c05a92" rx="1"/>
  <rect x="645.9" y="259.1" width="19.4" height="7.4" fill="#f472b6" rx="1"/>
  <rect x="665.3" y="230.5" width="19.4" height="59.5" fill="#4ade80" rx="1"/>
  <rect x="665.3" y="222.6" width="19.4" height="7.9" fill="#3aaf60" rx="1"/>
  <rect x="665.3" y="208.1" width="19.4" height="14.5" fill="#4ade80" rx="1"/>
  <text x="636.2" y="306" text-anchor="middle" fill="#e6edf3" font-size="10" font-weight="600">nci</text>
  <text x="636.2" y="318" text-anchor="middle" fill="#7d8590" font-size="9">33.6 MB</text>
  <rect x="717.0" y="273.2" width="19.4" height="16.8" fill="#60a5fa" rx="1"/>
  <rect x="717.0" y="253.4" width="19.4" height="19.8" fill="#4680c4" rx="1"/>
  <rect x="717.0" y="248.6" width="19.4" height="4.7" fill="#60a5fa" rx="1"/>
  <rect x="736.4" y="270.4" width="19.4" height="19.6" fill="#f87171" rx="1"/>
  <rect x="736.4" y="249.4" width="19.4" height="21.0" fill="#c45050" rx="1"/>
  <rect x="736.4" y="242.7" width="19.4" height="6.7" fill="#f87171" rx="1"/>
  <rect x="755.7" y="261.8" width="19.4" height="28.2" fill="#f59e0b" rx="1"/>
  <rect x="755.7" y="242.0" width="19.4" height="19.8" fill="#c47d08" rx="1"/>
  <rect x="755.7" y="235.5" width="19.4" height="6.5" fill="#f59e0b" rx="1"/>
  <rect x="775.1" y="257.2" width="19.4" height="32.8" fill="#f472b6" rx="1"/>
  <rect x="775.1" y="236.2" width="19.4" height="21.0" fill="#c05a92" rx="1"/>
  <rect x="775.1" y="227.6" width="19.4" height="8.6" fill="#f472b6" rx="1"/>
  <rect x="794.5" y="200.1" width="19.4" height="89.9" fill="#4ade80" rx="1"/>
  <rect x="794.5" y="176.7" width="19.4" height="23.4" fill="#3aaf60" rx="1"/>
  <rect x="794.5" y="160.9" width="19.4" height="15.8" fill="#4ade80" rx="1"/>
  <text x="765.4" y="306" text-anchor="middle" fill="#e6edf3" font-size="10" font-weight="600">osdb</text>
  <text x="765.4" y="318" text-anchor="middle" fill="#7d8590" font-size="9">10.1 MB</text>
  <line x1="55" y1="546.5" x2="830" y2="546.5" stroke="#21262d" stroke-width="1"/>
  <text x="47" y="546.5" text-anchor="end" dominant-baseline="middle" fill="#7d8590" font-size="10">10</text>
  <line x1="55" y1="492.9" x2="830" y2="492.9" stroke="#21262d" stroke-width="1"/>
  <text x="47" y="492.9" text-anchor="end" dominant-baseline="middle" fill="#7d8590" font-size="10">20</text>
  <line x1="55" y1="439.4" x2="830" y2="439.4" stroke="#21262d" stroke-width="1"/>
  <text x="47" y="439.4" text-anchor="end" dominant-baseline="middle" fill="#7d8590" font-size="10">30</text>
  <line x1="55" y1="385.8" x2="830" y2="385.8" stroke="#21262d" stroke-width="1"/>
  <text x="47" y="385.8" text-anchor="end" dominant-baseline="middle" fill="#7d8590" font-size="10">40</text>
  <line x1="55" y1="600" x2="830" y2="600" stroke="#30363d" stroke-width="1.5"/>
  <rect x="71.1" y="576.0" width="19.4" height="24.0" fill="#60a5fa" rx="1"/>
  <rect x="71.1" y="558.6" width="19.4" height="17.4" fill="#4680c4" rx="1"/>
  <rect x="71.1" y="553.0" width="19.4" height="5.6" fill="#60a5fa" rx="1"/>
  <rect x="90.5" y="572.6" width="19.4" height="27.4" fill="#f87171" rx="1"/>
  <rect x="90.5" y="553.4" width="19.4" height="19.1" fill="#c45050" rx="1"/>
  <rect x="90.5" y="541.3" width="19.4" height="12.1" fill="#f87171" rx="1"/>
  <rect x="109.9" y="561.3" width="19.4" height="38.7" fill="#f59e0b" rx="1"/>
  <rect x="109.9" y="543.9" width="19.4" height="17.4" fill="#c47d08" rx="1"/>
  <rect x="109.9" y="534.7" width="19.4" height="9.2" fill="#f59e0b" rx="1"/>
  <rect x="129.3" y="551.8" width="19.4" height="48.2" fill="#f472b6" rx="1"/>
  <rect x="129.3" y="532.7" width="19.4" height="19.1" fill="#c05a92" rx="1"/>
  <rect x="129.3" y="516.8" width="19.4" height="15.9" fill="#f472b6" rx="1"/>
  <rect x="148.6" y="494.2" width="19.4" height="105.8" fill="#4ade80" rx="1"/>
  <rect x="148.6" y="472.0" width="19.4" height="22.2" fill="#3aaf60" rx="1"/>
  <rect x="148.6" y="437.7" width="19.4" height="34.3" fill="#4ade80" rx="1"/>
  <text x="119.6" y="616" text-anchor="middle" fill="#e6edf3" font-size="10" font-weight="600">reymont.pdf</text>
  <text x="119.6" y="628" text-anchor="middle" fill="#7d8590" font-size="9">6.6 MB</text>
  <rect x="200.3" y="585.8" width="19.4" height="14.2" fill="#60a5fa" rx="1"/>
  <rect x="200.3" y="572.2" width="19.4" height="13.6" fill="#4680c4" rx="1"/>
  <rect x="200.3" y="568.1" width="19.4" height="4.1" fill="#60a5fa" rx="1"/>
  <rect x="219.7" y="583.1" width="19.4" height="16.9" fill="#f87171" rx="1"/>
  <rect x="219.7" y="567.8" width="19.4" height="15.3" fill="#c45050" rx="1"/>
  <rect x="219.7" y="560.1" width="19.4" height="7.7" fill="#f87171" rx="1"/>
  <rect x="239.1" y="576.7" width="19.4" height="23.3" fill="#f59e0b" rx="1"/>
  <rect x="239.1" y="563.0" width="19.4" height="13.7" fill="#c47d08" rx="1"/>
  <rect x="239.1" y="557.1" width="19.4" height="6.0" fill="#f59e0b" rx="1"/>
  <rect x="258.4" y="571.5" width="19.4" height="28.5" fill="#f472b6" rx="1"/>
  <rect x="258.4" y="556.2" width="19.4" height="15.3" fill="#c05a92" rx="1"/>
  <rect x="258.4" y="546.2" width="19.4" height="10.0" fill="#f472b6" rx="1"/>
  <rect x="277.8" y="513.6" width="19.4" height="86.4" fill="#4ade80" rx="1"/>
  <rect x="277.8" y="495.4" width="19.4" height="18.1" fill="#3aaf60" rx="1"/>
  <rect x="277.8" y="473.1" width="19.4" height="22.3" fill="#4ade80" rx="1"/>
  <text x="248.8" y="616" text-anchor="middle" fill="#e6edf3" font-size="10" font-weight="600">samba</text>
  <text x="248.8" y="628" text-anchor="middle" fill="#7d8590" font-size="9">21.6 MB</text>
  <rect x="329.5" y="578.2" width="19.4" height="21.8" fill="#60a5fa" rx="1"/>
  <rect x="329.5" y="532.0" width="19.4" height="46.2" fill="#4680c4" rx="1"/>
  <rect x="329.5" y="526.2" width="19.4" height="5.8" fill="#60a5fa" rx="1"/>
  <rect x="348.9" y="580.8" width="19.4" height="19.2" fill="#f87171" rx="1"/>
  <rect x="348.9" y="534.3" width="19.4" height="46.5" fill="#c45050" rx="1"/>
  <rect x="348.9" y="528.5" width="19.4" height="5.8" fill="#f87171" rx="1"/>
  <rect x="368.2" y="562.3" width="19.4" height="37.7" fill="#f59e0b" rx="1"/>
  <rect x="368.2" y="516.2" width="19.4" height="46.1" fill="#c47d08" rx="1"/>
  <rect x="368.2" y="508.0" width="19.4" height="8.2" fill="#f59e0b" rx="1"/>
  <rect x="387.6" y="568.0" width="19.4" height="32.0" fill="#f472b6" rx="1"/>
  <rect x="387.6" y="521.5" width="19.4" height="46.5" fill="#c05a92" rx="1"/>
  <rect x="387.6" y="514.0" width="19.4" height="7.5" fill="#f472b6" rx="1"/>
  <rect x="407.0" y="449.6" width="19.4" height="150.4" fill="#4ade80" rx="1"/>
  <rect x="407.0" y="405.3" width="19.4" height="44.4" fill="#3aaf60" rx="1"/>
  <rect x="407.0" y="386.4" width="19.4" height="18.8" fill="#4ade80" rx="1"/>
  <text x="377.9" y="616" text-anchor="middle" fill="#e6edf3" font-size="10" font-weight="600">sao</text>
  <text x="377.9" y="628" text-anchor="middle" fill="#7d8590" font-size="9">7.3 MB</text>
  <rect x="458.6" y="578.6" width="19.4" height="21.4" fill="#60a5fa" rx="1"/>
  <rect x="458.6" y="561.0" width="19.4" height="17.6" fill="#4680c4" rx="1"/>
  <rect x="458.6" y="555.7" width="19.4" height="5.3" fill="#60a5fa" rx="1"/>
  <rect x="478.0" y="571.3" width="19.4" height="28.7" fill="#f87171" rx="1"/>
  <rect x="478.0" y="551.8" width="19.4" height="19.5" fill="#c45050" rx="1"/>
  <rect x="478.0" y="540.3" width="19.4" height="11.5" fill="#f87171" rx="1"/>
  <rect x="497.4" y="566.3" width="19.4" height="33.7" fill="#f59e0b" rx="1"/>
  <rect x="497.4" y="548.7" width="19.4" height="17.6" fill="#c47d08" rx="1"/>
  <rect x="497.4" y="540.8" width="19.4" height="7.9" fill="#f59e0b" rx="1"/>
  <rect x="516.8" y="551.3" width="19.4" height="48.7" fill="#f472b6" rx="1"/>
  <rect x="516.8" y="531.8" width="19.4" height="19.5" fill="#c05a92" rx="1"/>
  <rect x="516.8" y="516.4" width="19.4" height="15.4" fill="#f472b6" rx="1"/>
  <rect x="536.1" y="493.1" width="19.4" height="106.9" fill="#4ade80" rx="1"/>
  <rect x="536.1" y="471.6" width="19.4" height="21.5" fill="#3aaf60" rx="1"/>
  <rect x="536.1" y="438.9" width="19.4" height="32.8" fill="#4ade80" rx="1"/>
  <text x="507.1" y="616" text-anchor="middle" fill="#e6edf3" font-size="10" font-weight="600">webster</text>
  <text x="507.1" y="628" text-anchor="middle" fill="#7d8590" font-size="9">41.5 MB</text>
  <rect x="587.8" y="591.3" width="19.4" height="8.7" fill="#60a5fa" rx="1"/>
  <rect x="587.8" y="548.5" width="19.4" height="42.8" fill="#4680c4" rx="1"/>
  <rect x="587.8" y="543.7" width="19.4" height="4.8" fill="#60a5fa" rx="1"/>
  <rect x="607.2" y="575.8" width="19.4" height="24.2" fill="#f87171" rx="1"/>
  <rect x="607.2" y="527.9" width="19.4" height="47.8" fill="#c45050" rx="1"/>
  <rect x="607.2" y="521.2" width="19.4" height="6.7" fill="#f87171" rx="1"/>
  <rect x="626.6" y="576.2" width="19.4" height="23.8" fill="#f59e0b" rx="1"/>
  <rect x="626.6" y="533.4" width="19.4" height="42.8" fill="#c47d08" rx="1"/>
  <rect x="626.6" y="526.9" width="19.4" height="6.5" fill="#f59e0b" rx="1"/>
  <rect x="645.9" y="558.9" width="19.4" height="41.1" fill="#f472b6" rx="1"/>
  <rect x="645.9" y="511.0" width="19.4" height="47.8" fill="#c05a92" rx="1"/>
  <rect x="645.9" y="502.7" width="19.4" height="8.3" fill="#f472b6" rx="1"/>
  <rect x="665.3" y="446.9" width="19.4" height="153.1" fill="#4ade80" rx="1"/>
  <rect x="665.3" y="399.8" width="19.4" height="47.1" fill="#3aaf60" rx="1"/>
  <rect x="665.3" y="381.8" width="19.4" height="18.0" fill="#4ade80" rx="1"/>
  <text x="636.2" y="616" text-anchor="middle" fill="#e6edf3" font-size="10" font-weight="600">x-ray</text>
  <text x="636.2" y="628" text-anchor="middle" fill="#7d8590" font-size="9">8.5 MB</text>
  <rect x="717.0" y="589.0" width="19.4" height="11.0" fill="#60a5fa" rx="1"/>
  <rect x="717.0" y="581.5" width="19.4" height="7.5" fill="#4680c4" rx="1"/>
  <rect x="717.0" y="577.9" width="19.4" height="3.5" fill="#60a5fa" rx="1"/>
  <rect x="736.4" y="586.3" width="19.4" height="13.7" fill="#f87171" rx="1"/>
  <rect x="736.4" y="577.8" width="19.4" height="8.5" fill="#c45050" rx="1"/>
  <rect x="736.4" y="571.4" width="19.4" height="6.4" fill="#f87171" rx="1"/>
  <rect x="755.7" y="581.1" width="19.4" height="18.9" fill="#f59e0b" rx="1"/>
  <rect x="755.7" y="573.5" width="19.4" height="7.5" fill="#c47d08" rx="1"/>
  <rect x="755.7" y="568.6" width="19.4" height="4.9" fill="#f59e0b" rx="1"/>
  <rect x="775.1" y="577.2" width="19.4" height="22.8" fill="#f472b6" rx="1"/>
  <rect x="775.1" y="568.7" width="19.4" height="8.5" fill="#c05a92" rx="1"/>
  <rect x="775.1" y="560.5" width="19.4" height="8.1" fill="#f472b6" rx="1"/>
  <rect x="794.5" y="528.3" width="19.4" height="71.7" fill="#4ade80" rx="1"/>
  <rect x="794.5" y="516.3" width="19.4" height="12.0" fill="#3aaf60" rx="1"/>
  <rect x="794.5" y="497.6" width="19.4" height="18.7" fill="#4ade80" rx="1"/>
  <text x="765.4" y="616" text-anchor="middle" fill="#e6edf3" font-size="10" font-weight="600">xml_collection.xml</text>
  <text x="765.4" y="628" text-anchor="middle" fill="#7d8590" font-size="9">5.3 MB</text>
  <rect x="222" y="645" width="12" height="12" fill="#60a5fa" rx="2"/>
  <text x="240" y="655" fill="#e6edf3" font-size="10" font-weight="500">libzstd v1.5.7 (C)</text>
  <rect x="222" y="663" width="12" height="12" fill="#f87171" rx="2"/>
  <text x="240" y="673" fill="#e6edf3" font-size="10" font-weight="500">zrip (safe SIMD + encapsulated unsafe)</text>
  <rect x="222" y="681" width="12" height="12" fill="#f59e0b" rx="2"/>
  <text x="240" y="691" fill="#e6edf3" font-size="10" font-weight="500">structured-zstd v0.0.48 (unsafe)</text>
  <rect x="472" y="645" width="12" height="12" fill="#f472b6" rx="2"/>
  <text x="490" y="655" fill="#e6edf3" font-size="10" font-weight="500">zrip paranoid (safe SIMD, no unsafe)</text>
  <rect x="472" y="663" width="12" height="12" fill="#4ade80" rx="2"/>
  <text x="490" y="673" fill="#e6edf3" font-size="10" font-weight="500">ruzstd v0.8.3 (safe)</text>
  <text x="232" y="716" fill="#e6edf3" font-size="9">bright = compress + decompress</text>
  <text x="472" y="716" fill="#7d8590" font-size="9">dim = transfer @100 MB/s</text>
</svg>
