<svg xmlns="http://www.w3.org/2000/svg" viewBox="0 0 850 1015" font-family="system-ui, -apple-system, sans-serif">
  <rect width="850" height="1015" fill="#0d1117"/>
  <text x="425.0" y="18" text-anchor="middle" fill="#e6edf3" font-size="14" font-weight="700">Encode Speed vs Compression Ratio (geomean across corpus)</text>
  <text x="425.0" y="34" text-anchor="middle" fill="#7d8590" font-size="10">Intel Core i7-8700B @ 3.20GHz, performance governor, turbo off</text>
  <rect x="70" y="55" width="760" height="250" fill="#161b22" rx="4"/>
  <text x="450.0" y="47" text-anchor="middle" fill="#e6edf3" font-size="12" font-weight="600">High compressibility</text>
  <line x1="70" y1="255.0" x2="830" y2="255.0" stroke="#21262d" stroke-width="1"/>
  <text x="64" y="255.0" text-anchor="end" dominant-baseline="middle" fill="#7d8590" font-size="9">4.00x</text>
  <line x1="70" y1="188.3" x2="830" y2="188.3" stroke="#21262d" stroke-width="1"/>
  <text x="64" y="188.3" text-anchor="end" dominant-baseline="middle" fill="#7d8590" font-size="9">6.00x</text>
  <line x1="70" y1="121.7" x2="830" y2="121.7" stroke="#21262d" stroke-width="1"/>
  <text x="64" y="121.7" text-anchor="end" dominant-baseline="middle" fill="#7d8590" font-size="9">8.00x</text>
  <line x1="149.4" y1="55" x2="149.4" y2="305" stroke="#21262d" stroke-width="1"/>
  <text x="149.4" y="319" text-anchor="middle" fill="#7d8590" font-size="9">50</text>
  <line x1="257.0" y1="55" x2="257.0" y2="305" stroke="#21262d" stroke-width="1"/>
  <text x="257.0" y="319" text-anchor="middle" fill="#7d8590" font-size="9">100</text>
  <line x1="364.7" y1="55" x2="364.7" y2="305" stroke="#21262d" stroke-width="1"/>
  <text x="364.7" y="319" text-anchor="middle" fill="#7d8590" font-size="9">200</text>
  <line x1="507.0" y1="55" x2="507.0" y2="305" stroke="#21262d" stroke-width="1"/>
  <text x="507.0" y="319" text-anchor="middle" fill="#7d8590" font-size="9">500</text>
  <line x1="614.7" y1="55" x2="614.7" y2="305" stroke="#21262d" stroke-width="1"/>
  <text x="614.7" y="319" text-anchor="middle" fill="#7d8590" font-size="9">1000</text>
  <line x1="722.4" y1="55" x2="722.4" y2="305" stroke="#21262d" stroke-width="1"/>
  <text x="722.4" y="319" text-anchor="middle" fill="#7d8590" font-size="9">2000</text>
  <text x="450.0" y="333" text-anchor="middle" fill="#7d8590" font-size="10">encode MB/s (log scale)</text>
  <path d="M566.9,236.2L558.1,225.1L555.1,214.9L550.6,200.9L546.7,184.4L541.7,166.5L533.8,153.6L524.0,104.0L509.4,100.7L482.7,93.7L479.9,93.7" fill="none" stroke="#60a5fa" stroke-width="1.5" stroke-opacity="0.6"/>
  <circle cx="566.9" cy="236.2" r="3.5" fill="#60a5fa" stroke="#0d1117" stroke-width="1"/>
  <text x="572.9" y="236.2" text-anchor="start" fill="#60a5fa" font-size="8" font-weight="600">-7</text>
  <circle cx="558.1" cy="225.1" r="3.5" fill="#60a5fa" stroke="#0d1117" stroke-width="1"/>
  <circle cx="555.1" cy="214.9" r="3.5" fill="#60a5fa" stroke="#0d1117" stroke-width="1"/>
  <circle cx="550.6" cy="200.9" r="3.5" fill="#60a5fa" stroke="#0d1117" stroke-width="1"/>
  <text x="556.6" y="200.9" text-anchor="start" fill="#60a5fa" font-size="8" font-weight="600">-4</text>
  <circle cx="546.7" cy="184.4" r="3.5" fill="#60a5fa" stroke="#0d1117" stroke-width="1"/>
  <circle cx="541.7" cy="166.5" r="3.5" fill="#60a5fa" stroke="#0d1117" stroke-width="1"/>
  <circle cx="533.8" cy="153.6" r="3.5" fill="#60a5fa" stroke="#0d1117" stroke-width="1"/>
  <text x="539.8" y="153.6" text-anchor="start" fill="#60a5fa" font-size="8" font-weight="600">-1</text>
  <circle cx="524.0" cy="104.0" r="3.5" fill="#60a5fa" stroke="#0d1117" stroke-width="1"/>
  <circle cx="509.4" cy="100.7" r="3.5" fill="#60a5fa" stroke="#0d1117" stroke-width="1"/>
  <circle cx="482.7" cy="93.7" r="3.5" fill="#60a5fa" stroke="#0d1117" stroke-width="1"/>
  <text x="488.7" y="93.7" text-anchor="start" fill="#60a5fa" font-size="8" font-weight="600">3</text>
  <circle cx="479.9" cy="93.7" r="3.5" fill="#60a5fa" stroke="#0d1117" stroke-width="1"/>
  <text x="473.9" y="93.7" text-anchor="end" fill="#60a5fa" font-size="8" font-weight="600">4</text>
  <path d="M541.6,256.7L510.7,233.7L503.2,223.3L500.2,212.7L496.0,199.3L493.0,179.6L489.8,160.5L475.0,140.9L471.4,138.6L441.5,124.9L441.7,124.1" fill="none" stroke="#f87171" stroke-width="1.5" stroke-opacity="0.6"/>
  <circle cx="541.6" cy="256.7" r="3.5" fill="#f87171" stroke="#0d1117" stroke-width="1"/>
  <text x="547.6" y="256.7" text-anchor="start" fill="#f87171" font-size="8" font-weight="600">-7</text>
  <circle cx="510.7" cy="233.7" r="3.5" fill="#f87171" stroke="#0d1117" stroke-width="1"/>
  <circle cx="503.2" cy="223.3" r="3.5" fill="#f87171" stroke="#0d1117" stroke-width="1"/>
  <circle cx="500.2" cy="212.7" r="3.5" fill="#f87171" stroke="#0d1117" stroke-width="1"/>
  <text x="506.2" y="212.7" text-anchor="start" fill="#f87171" font-size="8" font-weight="600">-4</text>
  <circle cx="496.0" cy="199.3" r="3.5" fill="#f87171" stroke="#0d1117" stroke-width="1"/>
  <circle cx="493.0" cy="179.6" r="3.5" fill="#f87171" stroke="#0d1117" stroke-width="1"/>
  <circle cx="489.8" cy="160.5" r="3.5" fill="#f87171" stroke="#0d1117" stroke-width="1"/>
  <text x="495.8" y="160.5" text-anchor="start" fill="#f87171" font-size="8" font-weight="600">-1</text>
  <circle cx="475.0" cy="140.9" r="3.5" fill="#f87171" stroke="#0d1117" stroke-width="1"/>
  <circle cx="471.4" cy="138.6" r="3.5" fill="#f87171" stroke="#0d1117" stroke-width="1"/>
  <circle cx="441.5" cy="124.9" r="3.5" fill="#f87171" stroke="#0d1117" stroke-width="1"/>
  <text x="447.5" y="124.9" text-anchor="start" fill="#f87171" font-size="8" font-weight="600">3</text>
  <circle cx="441.7" cy="124.1" r="3.5" fill="#f87171" stroke="#0d1117" stroke-width="1"/>
  <text x="435.7" y="124.1" text-anchor="end" fill="#f87171" font-size="8" font-weight="600">4</text>
  <path d="M441.8,175.3L438.8,166.2L438.4,155.4L436.4,142.2L433.5,127.5L430.5,114.3L424.0,107.6L421.8,104.1L412.3,99.8L358.6,105.8L358.3,105.1" fill="none" stroke="#f59e0b" stroke-width="1.5" stroke-opacity="0.6"/>
  <circle cx="441.8" cy="175.3" r="3.5" fill="#f59e0b" stroke="#0d1117" stroke-width="1"/>
  <text x="447.8" y="175.3" text-anchor="start" fill="#f59e0b" font-size="8" font-weight="600">-7</text>
  <circle cx="438.8" cy="166.2" r="3.5" fill="#f59e0b" stroke="#0d1117" stroke-width="1"/>
  <circle cx="438.4" cy="155.4" r="3.5" fill="#f59e0b" stroke="#0d1117" stroke-width="1"/>
  <circle cx="436.4" cy="142.2" r="3.5" fill="#f59e0b" stroke="#0d1117" stroke-width="1"/>
  <text x="442.4" y="142.2" text-anchor="start" fill="#f59e0b" font-size="8" font-weight="600">-4</text>
  <circle cx="433.5" cy="127.5" r="3.5" fill="#f59e0b" stroke="#0d1117" stroke-width="1"/>
  <circle cx="430.5" cy="114.3" r="3.5" fill="#f59e0b" stroke="#0d1117" stroke-width="1"/>
  <circle cx="424.0" cy="107.6" r="3.5" fill="#f59e0b" stroke="#0d1117" stroke-width="1"/>
  <text x="430.0" y="107.6" text-anchor="start" fill="#f59e0b" font-size="8" font-weight="600">-1</text>
  <circle cx="421.8" cy="104.1" r="3.5" fill="#f59e0b" stroke="#0d1117" stroke-width="1"/>
  <circle cx="412.3" cy="99.8" r="3.5" fill="#f59e0b" stroke="#0d1117" stroke-width="1"/>
  <circle cx="358.6" cy="105.8" r="3.5" fill="#f59e0b" stroke="#0d1117" stroke-width="1"/>
  <text x="364.6" y="105.8" text-anchor="start" fill="#f59e0b" font-size="8" font-weight="600">3</text>
  <circle cx="358.3" cy="105.1" r="3.5" fill="#f59e0b" stroke="#0d1117" stroke-width="1"/>
  <text x="352.3" y="105.1" text-anchor="end" fill="#f59e0b" font-size="8" font-weight="600">4</text>
  <circle cx="211.3" cy="212.6" r="3.5" fill="#4ade80" stroke="#0d1117" stroke-width="1"/>
  <text x="217.3" y="212.6" text-anchor="start" fill="#4ade80" font-size="8" font-weight="600">L1</text>
  <circle cx="563.2" cy="225.3" r="3.5" fill="#c084fc" stroke="#0d1117" stroke-width="1"/>
  <text x="569.2" y="225.3" text-anchor="start" fill="#c084fc" font-size="8" font-weight="600">LZ4</text>
  <rect x="70" y="370" width="760" height="250" fill="#161b22" rx="4"/>
  <text x="450.0" y="362" text-anchor="middle" fill="#e6edf3" font-size="12" font-weight="600">Medium compressibility</text>
  <line x1="70" y1="606.1" x2="830" y2="606.1" stroke="#21262d" stroke-width="1"/>
  <text x="64" y="606.1" text-anchor="end" dominant-baseline="middle" fill="#7d8590" font-size="9">1.50x</text>
  <line x1="70" y1="536.7" x2="830" y2="536.7" stroke="#21262d" stroke-width="1"/>
  <text x="64" y="536.7" text-anchor="end" dominant-baseline="middle" fill="#7d8590" font-size="9">2.00x</text>
  <line x1="70" y1="467.2" x2="830" y2="467.2" stroke="#21262d" stroke-width="1"/>
  <text x="64" y="467.2" text-anchor="end" dominant-baseline="middle" fill="#7d8590" font-size="9">2.50x</text>
  <line x1="70" y1="397.8" x2="830" y2="397.8" stroke="#21262d" stroke-width="1"/>
  <text x="64" y="397.8" text-anchor="end" dominant-baseline="middle" fill="#7d8590" font-size="9">3.00x</text>
  <line x1="149.4" y1="370" x2="149.4" y2="620" stroke="#21262d" stroke-width="1"/>
  <text x="149.4" y="634" text-anchor="middle" fill="#7d8590" font-size="9">50</text>
  <line x1="257.0" y1="370" x2="257.0" y2="620" stroke="#21262d" stroke-width="1"/>
  <text x="257.0" y="634" text-anchor="middle" fill="#7d8590" font-size="9">100</text>
  <line x1="364.7" y1="370" x2="364.7" y2="620" stroke="#21262d" stroke-width="1"/>
  <text x="364.7" y="634" text-anchor="middle" fill="#7d8590" font-size="9">200</text>
  <line x1="507.0" y1="370" x2="507.0" y2="620" stroke="#21262d" stroke-width="1"/>
  <text x="507.0" y="634" text-anchor="middle" fill="#7d8590" font-size="9">500</text>
  <line x1="614.7" y1="370" x2="614.7" y2="620" stroke="#21262d" stroke-width="1"/>
  <text x="614.7" y="634" text-anchor="middle" fill="#7d8590" font-size="9">1000</text>
  <line x1="722.4" y1="370" x2="722.4" y2="620" stroke="#21262d" stroke-width="1"/>
  <text x="722.4" y="634" text-anchor="middle" fill="#7d8590" font-size="9">2000</text>
  <text x="450.0" y="648" text-anchor="middle" fill="#7d8590" font-size="10">encode MB/s (log scale)</text>
  <path d="M458.6,572.9L452.3,567.4L445.3,559.7L436.8,548.8L428.8,537.0L419.6,525.6L408.2,513.6L399.4,445.1L368.0,425.5L324.3,410.9L318.8,407.3" fill="none" stroke="#60a5fa" stroke-width="1.5" stroke-opacity="0.6"/>
  <circle cx="458.6" cy="572.9" r="3.5" fill="#60a5fa" stroke="#0d1117" stroke-width="1"/>
  <text x="464.6" y="572.9" text-anchor="start" fill="#60a5fa" font-size="8" font-weight="600">-7</text>
  <circle cx="452.3" cy="567.4" r="3.5" fill="#60a5fa" stroke="#0d1117" stroke-width="1"/>
  <circle cx="445.3" cy="559.7" r="3.5" fill="#60a5fa" stroke="#0d1117" stroke-width="1"/>
  <circle cx="436.8" cy="548.8" r="3.5" fill="#60a5fa" stroke="#0d1117" stroke-width="1"/>
  <text x="442.8" y="548.8" text-anchor="start" fill="#60a5fa" font-size="8" font-weight="600">-4</text>
  <circle cx="428.8" cy="537.0" r="3.5" fill="#60a5fa" stroke="#0d1117" stroke-width="1"/>
  <circle cx="419.6" cy="525.6" r="3.5" fill="#60a5fa" stroke="#0d1117" stroke-width="1"/>
  <circle cx="408.2" cy="513.6" r="3.5" fill="#60a5fa" stroke="#0d1117" stroke-width="1"/>
  <text x="414.2" y="513.6" text-anchor="start" fill="#60a5fa" font-size="8" font-weight="600">-1</text>
  <circle cx="399.4" cy="445.1" r="3.5" fill="#60a5fa" stroke="#0d1117" stroke-width="1"/>
  <circle cx="368.0" cy="425.5" r="3.5" fill="#60a5fa" stroke="#0d1117" stroke-width="1"/>
  <circle cx="324.3" cy="410.9" r="3.5" fill="#60a5fa" stroke="#0d1117" stroke-width="1"/>
  <text x="330.3" y="410.9" text-anchor="start" fill="#60a5fa" font-size="8" font-weight="600">3</text>
  <circle cx="318.8" cy="407.3" r="3.5" fill="#60a5fa" stroke="#0d1117" stroke-width="1"/>
  <text x="312.8" y="407.3" text-anchor="end" fill="#60a5fa" font-size="8" font-weight="600">4</text>
  <path d="M413.9,580.5L390.6,556.0L386.2,550.6L382.0,542.7L375.3,530.1L370.0,519.2L363.3,507.3L346.7,474.7L333.2,463.7L296.3,464.7L295.6,460.9" fill="none" stroke="#f87171" stroke-width="1.5" stroke-opacity="0.6"/>
  <circle cx="413.9" cy="580.5" r="3.5" fill="#f87171" stroke="#0d1117" stroke-width="1"/>
  <text x="419.9" y="580.5" text-anchor="start" fill="#f87171" font-size="8" font-weight="600">-7</text>
  <circle cx="390.6" cy="556.0" r="3.5" fill="#f87171" stroke="#0d1117" stroke-width="1"/>
  <circle cx="386.2" cy="550.6" r="3.5" fill="#f87171" stroke="#0d1117" stroke-width="1"/>
  <circle cx="382.0" cy="542.7" r="3.5" fill="#f87171" stroke="#0d1117" stroke-width="1"/>
  <text x="388.0" y="542.7" text-anchor="start" fill="#f87171" font-size="8" font-weight="600">-4</text>
  <circle cx="375.3" cy="530.1" r="3.5" fill="#f87171" stroke="#0d1117" stroke-width="1"/>
  <circle cx="370.0" cy="519.2" r="3.5" fill="#f87171" stroke="#0d1117" stroke-width="1"/>
  <circle cx="363.3" cy="507.3" r="3.5" fill="#f87171" stroke="#0d1117" stroke-width="1"/>
  <text x="369.3" y="507.3" text-anchor="start" fill="#f87171" font-size="8" font-weight="600">-1</text>
  <circle cx="346.7" cy="474.7" r="3.5" fill="#f87171" stroke="#0d1117" stroke-width="1"/>
  <circle cx="333.2" cy="463.7" r="3.5" fill="#f87171" stroke="#0d1117" stroke-width="1"/>
  <circle cx="296.3" cy="464.7" r="3.5" fill="#f87171" stroke="#0d1117" stroke-width="1"/>
  <text x="302.3" y="464.7" text-anchor="start" fill="#f87171" font-size="8" font-weight="600">3</text>
  <circle cx="295.6" cy="460.9" r="3.5" fill="#f87171" stroke="#0d1117" stroke-width="1"/>
  <text x="289.6" y="460.9" text-anchor="end" fill="#f87171" font-size="8" font-weight="600">4</text>
  <path d="M347.5,503.4L344.7,498.1L339.3,492.1L335.3,484.9L329.6,476.3L323.9,467.3L315.7,459.2L310.7,446.1L288.3,425.9L215.0,412.8L213.7,408.2" fill="none" stroke="#f59e0b" stroke-width="1.5" stroke-opacity="0.6"/>
  <circle cx="347.5" cy="503.4" r="3.5" fill="#f59e0b" stroke="#0d1117" stroke-width="1"/>
  <text x="353.5" y="503.4" text-anchor="start" fill="#f59e0b" font-size="8" font-weight="600">-7</text>
  <circle cx="344.7" cy="498.1" r="3.5" fill="#f59e0b" stroke="#0d1117" stroke-width="1"/>
  <circle cx="339.3" cy="492.1" r="3.5" fill="#f59e0b" stroke="#0d1117" stroke-width="1"/>
  <circle cx="335.3" cy="484.9" r="3.5" fill="#f59e0b" stroke="#0d1117" stroke-width="1"/>
  <text x="341.3" y="484.9" text-anchor="start" fill="#f59e0b" font-size="8" font-weight="600">-4</text>
  <circle cx="329.6" cy="476.3" r="3.5" fill="#f59e0b" stroke="#0d1117" stroke-width="1"/>
  <circle cx="323.9" cy="467.3" r="3.5" fill="#f59e0b" stroke="#0d1117" stroke-width="1"/>
  <circle cx="315.7" cy="459.2" r="3.5" fill="#f59e0b" stroke="#0d1117" stroke-width="1"/>
  <text x="321.7" y="459.2" text-anchor="start" fill="#f59e0b" font-size="8" font-weight="600">-1</text>
  <circle cx="310.7" cy="446.1" r="3.5" fill="#f59e0b" stroke="#0d1117" stroke-width="1"/>
  <circle cx="288.3" cy="425.9" r="3.5" fill="#f59e0b" stroke="#0d1117" stroke-width="1"/>
  <circle cx="215.0" cy="412.8" r="3.5" fill="#f59e0b" stroke="#0d1117" stroke-width="1"/>
  <text x="221.0" y="412.8" text-anchor="start" fill="#f59e0b" font-size="8" font-weight="600">3</text>
  <circle cx="213.7" cy="408.2" r="3.5" fill="#f59e0b" stroke="#0d1117" stroke-width="1"/>
  <text x="207.7" y="408.2" text-anchor="end" fill="#f59e0b" font-size="8" font-weight="600">4</text>
  <circle cx="140.8" cy="512.1" r="3.5" fill="#4ade80" stroke="#0d1117" stroke-width="1"/>
  <text x="146.8" y="512.1" text-anchor="start" fill="#4ade80" font-size="8" font-weight="600">L1</text>
  <circle cx="460.0" cy="560.9" r="3.5" fill="#c084fc" stroke="#0d1117" stroke-width="1"/>
  <text x="466.0" y="560.9" text-anchor="start" fill="#c084fc" font-size="8" font-weight="600">LZ4</text>
  <rect x="70" y="685" width="760" height="250" fill="#161b22" rx="4"/>
  <text x="450.0" y="677" text-anchor="middle" fill="#e6edf3" font-size="12" font-weight="600">Low compressibility</text>
  <line x1="70" y1="910.0" x2="830" y2="910.0" stroke="#21262d" stroke-width="1"/>
  <text x="64" y="910.0" text-anchor="end" dominant-baseline="middle" fill="#7d8590" font-size="9">1.00x</text>
  <line x1="70" y1="860.0" x2="830" y2="860.0" stroke="#21262d" stroke-width="1"/>
  <text x="64" y="860.0" text-anchor="end" dominant-baseline="middle" fill="#7d8590" font-size="9">1.10x</text>
  <line x1="70" y1="810.0" x2="830" y2="810.0" stroke="#21262d" stroke-width="1"/>
  <text x="64" y="810.0" text-anchor="end" dominant-baseline="middle" fill="#7d8590" font-size="9">1.20x</text>
  <line x1="70" y1="760.0" x2="830" y2="760.0" stroke="#21262d" stroke-width="1"/>
  <text x="64" y="760.0" text-anchor="end" dominant-baseline="middle" fill="#7d8590" font-size="9">1.30x</text>
  <line x1="70" y1="710.0" x2="830" y2="710.0" stroke="#21262d" stroke-width="1"/>
  <text x="64" y="710.0" text-anchor="end" dominant-baseline="middle" fill="#7d8590" font-size="9">1.40x</text>
  <line x1="149.4" y1="685" x2="149.4" y2="935" stroke="#21262d" stroke-width="1"/>
  <text x="149.4" y="949" text-anchor="middle" fill="#7d8590" font-size="9">50</text>
  <line x1="257.0" y1="685" x2="257.0" y2="935" stroke="#21262d" stroke-width="1"/>
  <text x="257.0" y="949" text-anchor="middle" fill="#7d8590" font-size="9">100</text>
  <line x1="364.7" y1="685" x2="364.7" y2="935" stroke="#21262d" stroke-width="1"/>
  <text x="364.7" y="949" text-anchor="middle" fill="#7d8590" font-size="9">200</text>
  <line x1="507.0" y1="685" x2="507.0" y2="935" stroke="#21262d" stroke-width="1"/>
  <text x="507.0" y="949" text-anchor="middle" fill="#7d8590" font-size="9">500</text>
  <line x1="614.7" y1="685" x2="614.7" y2="935" stroke="#21262d" stroke-width="1"/>
  <text x="614.7" y="949" text-anchor="middle" fill="#7d8590" font-size="9">1000</text>
  <line x1="722.4" y1="685" x2="722.4" y2="935" stroke="#21262d" stroke-width="1"/>
  <text x="722.4" y="949" text-anchor="middle" fill="#7d8590" font-size="9">2000</text>
  <text x="450.0" y="963" text-anchor="middle" fill="#7d8590" font-size="10">encode MB/s (log scale)</text>
  <path d="M678.7,898.6L666.1,894.1L661.7,895.2L648.3,892.2L633.8,889.9L616.2,886.6L586.8,883.6L464.6,807.5L381.8,780.5L252.4,734.2L239.3,703.9" fill="none" stroke="#60a5fa" stroke-width="1.5" stroke-opacity="0.6"/>
  <circle cx="678.7" cy="898.6" r="3.5" fill="#60a5fa" stroke="#0d1117" stroke-width="1"/>
  <text x="684.7" y="898.6" text-anchor="start" fill="#60a5fa" font-size="8" font-weight="600">-7</text>
  <circle cx="666.1" cy="894.1" r="3.5" fill="#60a5fa" stroke="#0d1117" stroke-width="1"/>
  <circle cx="661.7" cy="895.2" r="3.5" fill="#60a5fa" stroke="#0d1117" stroke-width="1"/>
  <circle cx="648.3" cy="892.2" r="3.5" fill="#60a5fa" stroke="#0d1117" stroke-width="1"/>
  <text x="654.3" y="892.2" text-anchor="start" fill="#60a5fa" font-size="8" font-weight="600">-4</text>
  <circle cx="633.8" cy="889.9" r="3.5" fill="#60a5fa" stroke="#0d1117" stroke-width="1"/>
  <circle cx="616.2" cy="886.6" r="3.5" fill="#60a5fa" stroke="#0d1117" stroke-width="1"/>
  <circle cx="586.8" cy="883.6" r="3.5" fill="#60a5fa" stroke="#0d1117" stroke-width="1"/>
  <text x="592.8" y="883.6" text-anchor="start" fill="#60a5fa" font-size="8" font-weight="600">-1</text>
  <circle cx="464.6" cy="807.5" r="3.5" fill="#60a5fa" stroke="#0d1117" stroke-width="1"/>
  <circle cx="381.8" cy="780.5" r="3.5" fill="#60a5fa" stroke="#0d1117" stroke-width="1"/>
  <circle cx="252.4" cy="734.2" r="3.5" fill="#60a5fa" stroke="#0d1117" stroke-width="1"/>
  <text x="258.4" y="734.2" text-anchor="start" fill="#60a5fa" font-size="8" font-weight="600">3</text>
  <circle cx="239.3" cy="703.9" r="3.5" fill="#60a5fa" stroke="#0d1117" stroke-width="1"/>
  <text x="245.3" y="703.9" text-anchor="start" fill="#60a5fa" font-size="8" font-weight="600">4</text>
  <path d="M710.0,907.4L716.3,908.2L668.3,903.7L624.7,896.6L604.4,893.4L597.6,894.8L541.0,887.0L390.6,842.3L326.0,808.8L294.1,812.8L281.7,792.6" fill="none" stroke="#f87171" stroke-width="1.5" stroke-opacity="0.6"/>
  <circle cx="710.0" cy="907.4" r="3.5" fill="#f87171" stroke="#0d1117" stroke-width="1"/>
  <text x="716.0" y="907.4" text-anchor="start" fill="#f87171" font-size="8" font-weight="600">-7</text>
  <circle cx="716.3" cy="908.2" r="3.5" fill="#f87171" stroke="#0d1117" stroke-width="1"/>
  <circle cx="668.3" cy="903.7" r="3.5" fill="#f87171" stroke="#0d1117" stroke-width="1"/>
  <circle cx="624.7" cy="896.6" r="3.5" fill="#f87171" stroke="#0d1117" stroke-width="1"/>
  <text x="630.7" y="896.6" text-anchor="start" fill="#f87171" font-size="8" font-weight="600">-4</text>
  <circle cx="604.4" cy="893.4" r="3.5" fill="#f87171" stroke="#0d1117" stroke-width="1"/>
  <circle cx="597.6" cy="894.8" r="3.5" fill="#f87171" stroke="#0d1117" stroke-width="1"/>
  <circle cx="541.0" cy="887.0" r="3.5" fill="#f87171" stroke="#0d1117" stroke-width="1"/>
  <text x="547.0" y="887.0" text-anchor="start" fill="#f87171" font-size="8" font-weight="600">-1</text>
  <circle cx="390.6" cy="842.3" r="3.5" fill="#f87171" stroke="#0d1117" stroke-width="1"/>
  <circle cx="326.0" cy="808.8" r="3.5" fill="#f87171" stroke="#0d1117" stroke-width="1"/>
  <circle cx="294.1" cy="812.8" r="3.5" fill="#f87171" stroke="#0d1117" stroke-width="1"/>
  <text x="300.1" y="812.8" text-anchor="start" fill="#f87171" font-size="8" font-weight="600">3</text>
  <circle cx="281.7" cy="792.6" r="3.5" fill="#f87171" stroke="#0d1117" stroke-width="1"/>
  <text x="287.7" y="792.6" text-anchor="start" fill="#f87171" font-size="8" font-weight="600">4</text>
  <path d="M381.8,824.5L380.9,825.4L377.6,823.1L374.4,821.3L368.1,817.3L364.4,817.7L353.4,814.5L345.7,807.6L292.5,780.6L179.0,748.4L143.9,716.5" fill="none" stroke="#f59e0b" stroke-width="1.5" stroke-opacity="0.6"/>
  <circle cx="381.8" cy="824.5" r="3.5" fill="#f59e0b" stroke="#0d1117" stroke-width="1"/>
  <text x="387.8" y="824.5" text-anchor="start" fill="#f59e0b" font-size="8" font-weight="600">-7</text>
  <circle cx="380.9" cy="825.4" r="3.5" fill="#f59e0b" stroke="#0d1117" stroke-width="1"/>
  <circle cx="377.6" cy="823.1" r="3.5" fill="#f59e0b" stroke="#0d1117" stroke-width="1"/>
  <circle cx="374.4" cy="821.3" r="3.5" fill="#f59e0b" stroke="#0d1117" stroke-width="1"/>
  <text x="368.4" y="821.3" text-anchor="end" fill="#f59e0b" font-size="8" font-weight="600">-4</text>
  <circle cx="368.1" cy="817.3" r="3.5" fill="#f59e0b" stroke="#0d1117" stroke-width="1"/>
  <circle cx="364.4" cy="817.7" r="3.5" fill="#f59e0b" stroke="#0d1117" stroke-width="1"/>
  <circle cx="353.4" cy="814.5" r="3.5" fill="#f59e0b" stroke="#0d1117" stroke-width="1"/>
  <text x="347.4" y="814.5" text-anchor="end" fill="#f59e0b" font-size="8" font-weight="600">-1</text>
  <circle cx="345.7" cy="807.6" r="3.5" fill="#f59e0b" stroke="#0d1117" stroke-width="1"/>
  <circle cx="292.5" cy="780.6" r="3.5" fill="#f59e0b" stroke="#0d1117" stroke-width="1"/>
  <circle cx="179.0" cy="748.4" r="3.5" fill="#f59e0b" stroke="#0d1117" stroke-width="1"/>
  <text x="185.0" y="748.4" text-anchor="start" fill="#f59e0b" font-size="8" font-weight="600">3</text>
  <circle cx="143.9" cy="716.5" r="3.5" fill="#f59e0b" stroke="#0d1117" stroke-width="1"/>
  <text x="149.9" y="716.5" text-anchor="start" fill="#f59e0b" font-size="8" font-weight="600">4</text>
  <circle cx="88.6" cy="824.0" r="3.5" fill="#4ade80" stroke="#0d1117" stroke-width="1"/>
  <text x="94.6" y="824.0" text-anchor="start" fill="#4ade80" font-size="8" font-weight="600">L1</text>
  <circle cx="733.8" cy="902.2" r="3.5" fill="#c084fc" stroke="#0d1117" stroke-width="1"/>
  <text x="739.8" y="902.2" text-anchor="start" fill="#c084fc" font-size="8" font-weight="600">LZ4</text>
  <text x="16" y="495.0" text-anchor="middle" fill="#e6edf3" font-size="11" font-weight="600" transform="rotate(-90,16,495.0)">compression ratio</text>
  <circle cx="153" cy="975" r="4" fill="#60a5fa"/>
  <text x="161" y="978.5" fill="#e6edf3" font-size="10" font-weight="500">C zstd 1.5.7 (libzstd)</text>
  <circle cx="325" cy="975" r="4" fill="#f87171"/>
  <text x="333" y="978.5" fill="#e6edf3" font-size="10" font-weight="500">zrip (safe Rust)</text>
  <circle cx="460" cy="975" r="4" fill="#f59e0b"/>
  <text x="468" y="978.5" fill="#e6edf3" font-size="10" font-weight="500">structured-zstd 0.0.40 (unsafe Rust)</text>
  <circle cx="236" cy="993" r="4" fill="#4ade80"/>
  <text x="244" y="996.5" fill="#e6edf3" font-size="10" font-weight="500">ruzstd 0.8.2 (safe Rust)</text>
  <circle cx="420" cy="993" r="4" fill="#c084fc"/>
  <text x="428" y="996.5" fill="#e6edf3" font-size="10" font-weight="500">lz4rip 0.3.1 (safe Rust, LZ4)</text>
</svg>
