<svg xmlns="http://www.w3.org/2000/svg" viewBox="0 0 850 770" font-family="system-ui, -apple-system, sans-serif">
  <rect width="850" height="770" fill="#0d1117"/>
  <text x="425.0" y="18" text-anchor="middle" fill="#e6edf3" font-size="14" font-weight="700">Encode Speed vs Compression Ratio (geomean across corpus)</text>
  <text x="425.0" y="34" text-anchor="middle" fill="#7d8590" font-size="10">Intel Core i7-8700B @ 3.20GHz, performance governor, turbo off</text>
  <rect x="70" y="55" width="760" height="300" fill="#161b22" rx="4"/>
  <text x="450.0" y="47" text-anchor="middle" fill="#e6edf3" font-size="12" font-weight="600">Compressible</text>
  <line x1="70" y1="330.7" x2="830" y2="330.7" stroke="#21262d" stroke-width="1"/>
  <text x="64" y="330.7" text-anchor="end" dominant-baseline="middle" fill="#7d8590" font-size="9">2.50x</text>
  <line x1="70" y1="274.7" x2="830" y2="274.7" stroke="#21262d" stroke-width="1"/>
  <text x="64" y="274.7" text-anchor="end" dominant-baseline="middle" fill="#7d8590" font-size="9">3.00x</text>
  <line x1="70" y1="218.7" x2="830" y2="218.7" stroke="#21262d" stroke-width="1"/>
  <text x="64" y="218.7" text-anchor="end" dominant-baseline="middle" fill="#7d8590" font-size="9">3.50x</text>
  <line x1="70" y1="162.8" x2="830" y2="162.8" stroke="#21262d" stroke-width="1"/>
  <text x="64" y="162.8" text-anchor="end" dominant-baseline="middle" fill="#7d8590" font-size="9">4.00x</text>
  <line x1="70" y1="106.8" x2="830" y2="106.8" stroke="#21262d" stroke-width="1"/>
  <text x="64" y="106.8" text-anchor="end" dominant-baseline="middle" fill="#7d8590" font-size="9">4.50x</text>
  <line x1="152.4" y1="55" x2="152.4" y2="355" stroke="#21262d" stroke-width="1"/>
  <text x="152.4" y="369" text-anchor="middle" fill="#7d8590" font-size="9">50</text>
  <line x1="288.1" y1="55" x2="288.1" y2="355" stroke="#21262d" stroke-width="1"/>
  <text x="288.1" y="369" text-anchor="middle" fill="#7d8590" font-size="9">100</text>
  <line x1="423.8" y1="55" x2="423.8" y2="355" stroke="#21262d" stroke-width="1"/>
  <text x="423.8" y="369" text-anchor="middle" fill="#7d8590" font-size="9">200</text>
  <line x1="603.1" y1="55" x2="603.1" y2="355" stroke="#21262d" stroke-width="1"/>
  <text x="603.1" y="369" text-anchor="middle" fill="#7d8590" font-size="9">500</text>
  <line x1="738.8" y1="55" x2="738.8" y2="355" stroke="#21262d" stroke-width="1"/>
  <text x="738.8" y="369" text-anchor="middle" fill="#7d8590" font-size="9">1000</text>
  <text x="450.0" y="383" text-anchor="middle" fill="#7d8590" font-size="10">encode MB/s</text>
  <path d="M594.5,320.4L585.0,307.4L578.0,293.6L569.5,274.1L561.6,252.5L552.3,230.0L540.6,211.0L531.0,126.0L500.7,109.1L456.3,92.0L451.3,89.6" fill="none" stroke="#60a5fa" stroke-width="1.5" stroke-opacity="0.6"/>
  <circle cx="594.5" cy="320.4" r="3.5" fill="#60a5fa" stroke="#0d1117" stroke-width="1"/>
  <text x="600.5" y="320.4" text-anchor="start" fill="#60a5fa" font-size="8" font-weight="600">-7</text>
  <circle cx="585.0" cy="307.4" r="3.5" fill="#60a5fa" stroke="#0d1117" stroke-width="1"/>
  <circle cx="578.0" cy="293.6" r="3.5" fill="#60a5fa" stroke="#0d1117" stroke-width="1"/>
  <circle cx="569.5" cy="274.1" r="3.5" fill="#60a5fa" stroke="#0d1117" stroke-width="1"/>
  <text x="575.5" y="274.1" text-anchor="start" fill="#60a5fa" font-size="8" font-weight="600">-4</text>
  <circle cx="561.6" cy="252.5" r="3.5" fill="#60a5fa" stroke="#0d1117" stroke-width="1"/>
  <circle cx="552.3" cy="230.0" r="3.5" fill="#60a5fa" stroke="#0d1117" stroke-width="1"/>
  <circle cx="540.6" cy="211.0" r="3.5" fill="#60a5fa" stroke="#0d1117" stroke-width="1"/>
  <text x="546.6" y="211.0" text-anchor="start" fill="#60a5fa" font-size="8" font-weight="600">-1</text>
  <circle cx="531.0" cy="126.0" r="3.5" fill="#60a5fa" stroke="#0d1117" stroke-width="1"/>
  <circle cx="500.7" cy="109.1" r="3.5" fill="#60a5fa" stroke="#0d1117" stroke-width="1"/>
  <circle cx="456.3" cy="92.0" r="3.5" fill="#60a5fa" stroke="#0d1117" stroke-width="1"/>
  <text x="462.3" y="92.0" text-anchor="start" fill="#60a5fa" font-size="8" font-weight="600">3</text>
  <circle cx="451.3" cy="89.6" r="3.5" fill="#60a5fa" stroke="#0d1117" stroke-width="1"/>
  <text x="445.3" y="89.6" text-anchor="end" fill="#60a5fa" font-size="8" font-weight="600">4</text>
  <path d="M485.6,300.8L482.4,288.8L476.3,277.8L474.4,264.1L468.7,246.8L465.1,227.0L460.9,205.3L457.7,175.6L447.5,166.7L403.7,158.6L402.8,154.8" fill="none" stroke="#f87171" stroke-width="1.5" stroke-opacity="0.6"/>
  <circle cx="485.6" cy="300.8" r="3.5" fill="#f87171" stroke="#0d1117" stroke-width="1"/>
  <text x="491.6" y="300.8" text-anchor="start" fill="#f87171" font-size="8" font-weight="600">-7</text>
  <circle cx="482.4" cy="288.8" r="3.5" fill="#f87171" stroke="#0d1117" stroke-width="1"/>
  <circle cx="476.3" cy="277.8" r="3.5" fill="#f87171" stroke="#0d1117" stroke-width="1"/>
  <circle cx="474.4" cy="264.1" r="3.5" fill="#f87171" stroke="#0d1117" stroke-width="1"/>
  <text x="480.4" y="264.1" text-anchor="start" fill="#f87171" font-size="8" font-weight="600">-4</text>
  <circle cx="468.7" cy="246.8" r="3.5" fill="#f87171" stroke="#0d1117" stroke-width="1"/>
  <circle cx="465.1" cy="227.0" r="3.5" fill="#f87171" stroke="#0d1117" stroke-width="1"/>
  <circle cx="460.9" cy="205.3" r="3.5" fill="#f87171" stroke="#0d1117" stroke-width="1"/>
  <text x="466.9" y="205.3" text-anchor="start" fill="#f87171" font-size="8" font-weight="600">-1</text>
  <circle cx="457.7" cy="175.6" r="3.5" fill="#f87171" stroke="#0d1117" stroke-width="1"/>
  <circle cx="447.5" cy="166.7" r="3.5" fill="#f87171" stroke="#0d1117" stroke-width="1"/>
  <circle cx="403.7" cy="158.6" r="3.5" fill="#f87171" stroke="#0d1117" stroke-width="1"/>
  <text x="409.7" y="158.6" text-anchor="start" fill="#f87171" font-size="8" font-weight="600">3</text>
  <circle cx="402.8" cy="154.8" r="3.5" fill="#f87171" stroke="#0d1117" stroke-width="1"/>
  <text x="396.8" y="154.8" text-anchor="end" fill="#f87171" font-size="8" font-weight="600">4</text>
  <path d="M449.9,225.8L446.4,214.7L441.9,201.8L437.7,186.3L431.8,168.5L426.5,151.7L416.7,140.3L412.7,126.9L393.7,108.8L284.1,102.5L281.3,99.2" fill="none" stroke="#f59e0b" stroke-width="1.5" stroke-opacity="0.6"/>
  <circle cx="449.9" cy="225.8" r="3.5" fill="#f59e0b" stroke="#0d1117" stroke-width="1"/>
  <text x="455.9" y="225.8" text-anchor="start" fill="#f59e0b" font-size="8" font-weight="600">-7</text>
  <circle cx="446.4" cy="214.7" r="3.5" fill="#f59e0b" stroke="#0d1117" stroke-width="1"/>
  <circle cx="441.9" cy="201.8" r="3.5" fill="#f59e0b" stroke="#0d1117" stroke-width="1"/>
  <circle cx="437.7" cy="186.3" r="3.5" fill="#f59e0b" stroke="#0d1117" stroke-width="1"/>
  <text x="443.7" y="186.3" text-anchor="start" fill="#f59e0b" font-size="8" font-weight="600">-4</text>
  <circle cx="431.8" cy="168.5" r="3.5" fill="#f59e0b" stroke="#0d1117" stroke-width="1"/>
  <circle cx="426.5" cy="151.7" r="3.5" fill="#f59e0b" stroke="#0d1117" stroke-width="1"/>
  <circle cx="416.7" cy="140.3" r="3.5" fill="#f59e0b" stroke="#0d1117" stroke-width="1"/>
  <text x="422.7" y="140.3" text-anchor="start" fill="#f59e0b" font-size="8" font-weight="600">-1</text>
  <circle cx="412.7" cy="126.9" r="3.5" fill="#f59e0b" stroke="#0d1117" stroke-width="1"/>
  <circle cx="393.7" cy="108.8" r="3.5" fill="#f59e0b" stroke="#0d1117" stroke-width="1"/>
  <circle cx="284.1" cy="102.5" r="3.5" fill="#f59e0b" stroke="#0d1117" stroke-width="1"/>
  <text x="290.1" y="102.5" text-anchor="start" fill="#f59e0b" font-size="8" font-weight="600">3</text>
  <circle cx="281.3" cy="99.2" r="3.5" fill="#f59e0b" stroke="#0d1117" stroke-width="1"/>
  <text x="275.3" y="99.2" text-anchor="end" fill="#f59e0b" font-size="8" font-weight="600">4</text>
  <circle cx="177.4" cy="256.1" r="3.5" fill="#4ade80" stroke="#0d1117" stroke-width="1"/>
  <text x="183.4" y="256.1" text-anchor="start" fill="#4ade80" font-size="8" font-weight="600">L1</text>
  <circle cx="590.6" cy="301.9" r="3.5" fill="#c084fc" stroke="#0d1117" stroke-width="1"/>
  <text x="596.6" y="301.9" text-anchor="start" fill="#c084fc" font-size="8" font-weight="600">LZ4</text>
  <rect x="70" y="410" width="760" height="300" fill="#161b22" rx="4"/>
  <text x="450.0" y="402" text-anchor="middle" fill="#e6edf3" font-size="12" font-weight="600">Incompressible</text>
  <line x1="70" y1="686.1" x2="830" y2="686.1" stroke="#21262d" stroke-width="1"/>
  <text x="64" y="686.1" text-anchor="end" dominant-baseline="middle" fill="#7d8590" font-size="9">1.20x</text>
  <line x1="70" y1="603.7" x2="830" y2="603.7" stroke="#21262d" stroke-width="1"/>
  <text x="64" y="603.7" text-anchor="end" dominant-baseline="middle" fill="#7d8590" font-size="9">1.40x</text>
  <line x1="70" y1="521.4" x2="830" y2="521.4" stroke="#21262d" stroke-width="1"/>
  <text x="64" y="521.4" text-anchor="end" dominant-baseline="middle" fill="#7d8590" font-size="9">1.60x</text>
  <line x1="70" y1="439.1" x2="830" y2="439.1" stroke="#21262d" stroke-width="1"/>
  <text x="64" y="439.1" text-anchor="end" dominant-baseline="middle" fill="#7d8590" font-size="9">1.80x</text>
  <line x1="152.4" y1="410" x2="152.4" y2="710" stroke="#21262d" stroke-width="1"/>
  <text x="152.4" y="724" text-anchor="middle" fill="#7d8590" font-size="9">50</text>
  <line x1="288.1" y1="410" x2="288.1" y2="710" stroke="#21262d" stroke-width="1"/>
  <text x="288.1" y="724" text-anchor="middle" fill="#7d8590" font-size="9">100</text>
  <line x1="423.8" y1="410" x2="423.8" y2="710" stroke="#21262d" stroke-width="1"/>
  <text x="423.8" y="724" text-anchor="middle" fill="#7d8590" font-size="9">200</text>
  <line x1="603.1" y1="410" x2="603.1" y2="710" stroke="#21262d" stroke-width="1"/>
  <text x="603.1" y="724" text-anchor="middle" fill="#7d8590" font-size="9">500</text>
  <line x1="738.8" y1="410" x2="738.8" y2="710" stroke="#21262d" stroke-width="1"/>
  <text x="738.8" y="724" text-anchor="middle" fill="#7d8590" font-size="9">1000</text>
  <text x="450.0" y="738" text-anchor="middle" fill="#7d8590" font-size="10">encode MB/s</text>
  <path d="M747.1,671.7L734.7,667.9L728.6,665.8L714.1,662.5L697.5,657.2L677.7,652.8L644.9,646.7L531.3,537.9L440.9,505.5L306.1,469.8L293.6,444.6" fill="none" stroke="#60a5fa" stroke-width="1.5" stroke-opacity="0.6"/>
  <circle cx="747.1" cy="671.7" r="3.5" fill="#60a5fa" stroke="#0d1117" stroke-width="1"/>
  <text x="753.1" y="671.7" text-anchor="start" fill="#60a5fa" font-size="8" font-weight="600">-7</text>
  <circle cx="734.7" cy="667.9" r="3.5" fill="#60a5fa" stroke="#0d1117" stroke-width="1"/>
  <circle cx="728.6" cy="665.8" r="3.5" fill="#60a5fa" stroke="#0d1117" stroke-width="1"/>
  <circle cx="714.1" cy="662.5" r="3.5" fill="#60a5fa" stroke="#0d1117" stroke-width="1"/>
  <text x="720.1" y="662.5" text-anchor="start" fill="#60a5fa" font-size="8" font-weight="600">-4</text>
  <circle cx="697.5" cy="657.2" r="3.5" fill="#60a5fa" stroke="#0d1117" stroke-width="1"/>
  <circle cx="677.7" cy="652.8" r="3.5" fill="#60a5fa" stroke="#0d1117" stroke-width="1"/>
  <circle cx="644.9" cy="646.7" r="3.5" fill="#60a5fa" stroke="#0d1117" stroke-width="1"/>
  <text x="650.9" y="646.7" text-anchor="start" fill="#60a5fa" font-size="8" font-weight="600">-1</text>
  <circle cx="531.3" cy="537.9" r="3.5" fill="#60a5fa" stroke="#0d1117" stroke-width="1"/>
  <circle cx="440.9" cy="505.5" r="3.5" fill="#60a5fa" stroke="#0d1117" stroke-width="1"/>
  <circle cx="306.1" cy="469.8" r="3.5" fill="#60a5fa" stroke="#0d1117" stroke-width="1"/>
  <text x="312.1" y="469.8" text-anchor="start" fill="#60a5fa" font-size="8" font-weight="600">3</text>
  <circle cx="293.6" cy="444.6" r="3.5" fill="#60a5fa" stroke="#0d1117" stroke-width="1"/>
  <text x="299.6" y="444.6" text-anchor="start" fill="#60a5fa" font-size="8" font-weight="600">4</text>
  <path d="M611.9,632.1L595.0,624.1L579.0,622.1L562.7,622.2L534.4,615.6L512.3,609.8L485.0,604.7L419.8,576.5L360.8,540.7L319.9,521.9L318.3,505.7" fill="none" stroke="#f87171" stroke-width="1.5" stroke-opacity="0.6"/>
  <circle cx="611.9" cy="632.1" r="3.5" fill="#f87171" stroke="#0d1117" stroke-width="1"/>
  <text x="617.9" y="632.1" text-anchor="start" fill="#f87171" font-size="8" font-weight="600">-7</text>
  <circle cx="595.0" cy="624.1" r="3.5" fill="#f87171" stroke="#0d1117" stroke-width="1"/>
  <circle cx="579.0" cy="622.1" r="3.5" fill="#f87171" stroke="#0d1117" stroke-width="1"/>
  <circle cx="562.7" cy="622.2" r="3.5" fill="#f87171" stroke="#0d1117" stroke-width="1"/>
  <text x="568.7" y="622.2" text-anchor="start" fill="#f87171" font-size="8" font-weight="600">-4</text>
  <circle cx="534.4" cy="615.6" r="3.5" fill="#f87171" stroke="#0d1117" stroke-width="1"/>
  <circle cx="512.3" cy="609.8" r="3.5" fill="#f87171" stroke="#0d1117" stroke-width="1"/>
  <circle cx="485.0" cy="604.7" r="3.5" fill="#f87171" stroke="#0d1117" stroke-width="1"/>
  <text x="491.0" y="604.7" text-anchor="start" fill="#f87171" font-size="8" font-weight="600">-1</text>
  <circle cx="419.8" cy="576.5" r="3.5" fill="#f87171" stroke="#0d1117" stroke-width="1"/>
  <circle cx="360.8" cy="540.7" r="3.5" fill="#f87171" stroke="#0d1117" stroke-width="1"/>
  <circle cx="319.9" cy="521.9" r="3.5" fill="#f87171" stroke="#0d1117" stroke-width="1"/>
  <text x="325.9" y="521.9" text-anchor="start" fill="#f87171" font-size="8" font-weight="600">3</text>
  <circle cx="318.3" cy="505.7" r="3.5" fill="#f87171" stroke="#0d1117" stroke-width="1"/>
  <text x="324.3" y="505.7" text-anchor="start" fill="#f87171" font-size="8" font-weight="600">4</text>
  <path d="M439.4,560.8L438.8,560.6L434.4,558.6L430.0,556.2L422.8,552.4L416.1,550.7L403.1,546.3L392.8,537.8L333.6,505.5L190.8,480.8L158.8,452.4" fill="none" stroke="#f59e0b" stroke-width="1.5" stroke-opacity="0.6"/>
  <circle cx="439.4" cy="560.8" r="3.5" fill="#f59e0b" stroke="#0d1117" stroke-width="1"/>
  <text x="445.4" y="560.8" text-anchor="start" fill="#f59e0b" font-size="8" font-weight="600">-7</text>
  <circle cx="438.8" cy="560.6" r="3.5" fill="#f59e0b" stroke="#0d1117" stroke-width="1"/>
  <circle cx="434.4" cy="558.6" r="3.5" fill="#f59e0b" stroke="#0d1117" stroke-width="1"/>
  <circle cx="430.0" cy="556.2" r="3.5" fill="#f59e0b" stroke="#0d1117" stroke-width="1"/>
  <text x="424.0" y="556.2" text-anchor="end" fill="#f59e0b" font-size="8" font-weight="600">-4</text>
  <circle cx="422.8" cy="552.4" r="3.5" fill="#f59e0b" stroke="#0d1117" stroke-width="1"/>
  <circle cx="416.1" cy="550.7" r="3.5" fill="#f59e0b" stroke="#0d1117" stroke-width="1"/>
  <circle cx="403.1" cy="546.3" r="3.5" fill="#f59e0b" stroke="#0d1117" stroke-width="1"/>
  <text x="397.1" y="546.3" text-anchor="end" fill="#f59e0b" font-size="8" font-weight="600">-1</text>
  <circle cx="392.8" cy="537.8" r="3.5" fill="#f59e0b" stroke="#0d1117" stroke-width="1"/>
  <circle cx="333.6" cy="505.5" r="3.5" fill="#f59e0b" stroke="#0d1117" stroke-width="1"/>
  <circle cx="190.8" cy="480.8" r="3.5" fill="#f59e0b" stroke="#0d1117" stroke-width="1"/>
  <text x="196.8" y="480.8" text-anchor="start" fill="#f59e0b" font-size="8" font-weight="600">3</text>
  <circle cx="158.8" cy="452.4" r="3.5" fill="#f59e0b" stroke="#0d1117" stroke-width="1"/>
  <text x="164.8" y="452.4" text-anchor="start" fill="#f59e0b" font-size="8" font-weight="600">4</text>
  <circle cx="101.8" cy="601.5" r="3.5" fill="#4ade80" stroke="#0d1117" stroke-width="1"/>
  <text x="107.8" y="601.5" text-anchor="start" fill="#4ade80" font-size="8" font-weight="600">L1</text>
  <circle cx="802.1" cy="675.4" r="3.5" fill="#c084fc" stroke="#0d1117" stroke-width="1"/>
  <text x="808.1" y="675.4" text-anchor="start" fill="#c084fc" font-size="8" font-weight="600">LZ4</text>
  <text x="16" y="382.5" text-anchor="middle" fill="#e6edf3" font-size="11" font-weight="600" transform="rotate(-90,16,382.5)">compression ratio</text>
  <circle cx="-48" cy="750" r="4" fill="#60a5fa"/>
  <text x="-40" y="753.5" fill="#e6edf3" font-size="10" font-weight="500">C zstd 1.5.7 (libzstd)</text>
  <circle cx="125" cy="750" r="4" fill="#f87171"/>
  <text x="133" y="753.5" fill="#e6edf3" font-size="10" font-weight="500">zrip (safe Rust)</text>
  <circle cx="260" cy="750" r="4" fill="#f59e0b"/>
  <text x="268" y="753.5" fill="#e6edf3" font-size="10" font-weight="500">structured-zstd 0.0.37 (unsafe Rust)</text>
  <circle cx="519" cy="750" r="4" fill="#4ade80"/>
  <text x="527" y="753.5" fill="#e6edf3" font-size="10" font-weight="500">ruzstd 0.8.2 (safe Rust)</text>
  <circle cx="704" cy="750" r="4" fill="#c084fc"/>
  <text x="712" y="753.5" fill="#e6edf3" font-size="10" font-weight="500">lz4rip 0.3.1 (safe Rust, LZ4)</text>
</svg>
