<svg xmlns="http://www.w3.org/2000/svg" viewBox="0 0 850 770" font-family="system-ui, -apple-system, sans-serif">
  <rect width="850" height="770" fill="#0d1117"/>
  <text x="425.0" y="18" text-anchor="middle" fill="#e6edf3" font-size="14" font-weight="700">Encode Speed vs Compression Ratio (geomean across corpus)</text>
  <text x="425.0" y="34" text-anchor="middle" fill="#7d8590" font-size="10">Intel Core i7-8700B @ 3.20GHz, performance governor, turbo off</text>
  <rect x="70" y="55" width="760" height="300" fill="#161b22" rx="4"/>
  <text x="450.0" y="47" text-anchor="middle" fill="#e6edf3" font-size="12" font-weight="600">Compressible</text>
  <line x1="70" y1="320.3" x2="830" y2="320.3" stroke="#21262d" stroke-width="1"/>
  <text x="64" y="320.3" text-anchor="end" dominant-baseline="middle" fill="#7d8590" font-size="9">2.50x</text>
  <line x1="70" y1="266.2" x2="830" y2="266.2" stroke="#21262d" stroke-width="1"/>
  <text x="64" y="266.2" text-anchor="end" dominant-baseline="middle" fill="#7d8590" font-size="9">3.00x</text>
  <line x1="70" y1="212.1" x2="830" y2="212.1" stroke="#21262d" stroke-width="1"/>
  <text x="64" y="212.1" text-anchor="end" dominant-baseline="middle" fill="#7d8590" font-size="9">3.50x</text>
  <line x1="70" y1="158.0" x2="830" y2="158.0" stroke="#21262d" stroke-width="1"/>
  <text x="64" y="158.0" text-anchor="end" dominant-baseline="middle" fill="#7d8590" font-size="9">4.00x</text>
  <line x1="70" y1="103.9" x2="830" y2="103.9" stroke="#21262d" stroke-width="1"/>
  <text x="64" y="103.9" text-anchor="end" dominant-baseline="middle" fill="#7d8590" font-size="9">4.50x</text>
  <line x1="213.3" y1="55" x2="213.3" y2="355" stroke="#21262d" stroke-width="1"/>
  <text x="213.3" y="369" text-anchor="middle" fill="#7d8590" font-size="9">100</text>
  <line x1="367.7" y1="55" x2="367.7" y2="355" stroke="#21262d" stroke-width="1"/>
  <text x="367.7" y="369" text-anchor="middle" fill="#7d8590" font-size="9">200</text>
  <line x1="571.8" y1="55" x2="571.8" y2="355" stroke="#21262d" stroke-width="1"/>
  <text x="571.8" y="369" text-anchor="middle" fill="#7d8590" font-size="9">500</text>
  <line x1="726.3" y1="55" x2="726.3" y2="355" stroke="#21262d" stroke-width="1"/>
  <text x="726.3" y="369" text-anchor="middle" fill="#7d8590" font-size="9">1000</text>
  <text x="450.0" y="383" text-anchor="middle" fill="#7d8590" font-size="10">encode MB/s</text>
  <path d="M500.3,204.6L489.8,122.4L404.7,89.6" fill="none" stroke="#60a5fa" stroke-width="1.5" stroke-opacity="0.6"/>
  <circle cx="500.3" cy="204.6" r="3.5" fill="#60a5fa" stroke="#0d1117" stroke-width="1"/>
  <text x="506.3" y="204.6" text-anchor="start" fill="#60a5fa" font-size="8" font-weight="600">-1</text>
  <circle cx="489.8" cy="122.4" r="3.5" fill="#60a5fa" stroke="#0d1117" stroke-width="1"/>
  <text x="495.8" y="122.4" text-anchor="start" fill="#60a5fa" font-size="8" font-weight="600">1</text>
  <circle cx="404.7" cy="89.6" r="3.5" fill="#60a5fa" stroke="#0d1117" stroke-width="1"/>
  <text x="410.7" y="89.6" text-anchor="start" fill="#60a5fa" font-size="8" font-weight="600">3</text>
  <path d="M436.6,320.4L432.4,306.5L425.2,296.5L421.1,283.2L413.7,267.9L407.6,248.9L400.3,229.6L405.7,170.4L393.2,161.8L343.0,154.0L341.7,150.3" fill="none" stroke="#f87171" stroke-width="1.5" stroke-opacity="0.6"/>
  <circle cx="436.6" cy="320.4" r="3.5" fill="#f87171" stroke="#0d1117" stroke-width="1"/>
  <text x="442.6" y="320.4" text-anchor="start" fill="#f87171" font-size="8" font-weight="600">-7</text>
  <circle cx="432.4" cy="306.5" r="3.5" fill="#f87171" stroke="#0d1117" stroke-width="1"/>
  <circle cx="425.2" cy="296.5" r="3.5" fill="#f87171" stroke="#0d1117" stroke-width="1"/>
  <circle cx="421.1" cy="283.2" r="3.5" fill="#f87171" stroke="#0d1117" stroke-width="1"/>
  <text x="427.1" y="283.2" text-anchor="start" fill="#f87171" font-size="8" font-weight="600">-4</text>
  <circle cx="413.7" cy="267.9" r="3.5" fill="#f87171" stroke="#0d1117" stroke-width="1"/>
  <circle cx="407.6" cy="248.9" r="3.5" fill="#f87171" stroke="#0d1117" stroke-width="1"/>
  <circle cx="400.3" cy="229.6" r="3.5" fill="#f87171" stroke="#0d1117" stroke-width="1"/>
  <text x="406.3" y="229.6" text-anchor="start" fill="#f87171" font-size="8" font-weight="600">-1</text>
  <circle cx="405.7" cy="170.4" r="3.5" fill="#f87171" stroke="#0d1117" stroke-width="1"/>
  <circle cx="393.2" cy="161.8" r="3.5" fill="#f87171" stroke="#0d1117" stroke-width="1"/>
  <circle cx="343.0" cy="154.0" r="3.5" fill="#f87171" stroke="#0d1117" stroke-width="1"/>
  <text x="349.0" y="154.0" text-anchor="start" fill="#f87171" font-size="8" font-weight="600">3</text>
  <circle cx="341.7" cy="150.3" r="3.5" fill="#f87171" stroke="#0d1117" stroke-width="1"/>
  <text x="335.7" y="150.3" text-anchor="end" fill="#f87171" font-size="8" font-weight="600">4</text>
  <path d="M352.1,136.3L352.1,123.4L198.7,99.7" fill="none" stroke="#f59e0b" stroke-width="1.5" stroke-opacity="0.6"/>
  <circle cx="352.1" cy="136.3" r="3.5" fill="#f59e0b" stroke="#0d1117" stroke-width="1"/>
  <text x="358.1" y="136.3" text-anchor="start" fill="#f59e0b" font-size="8" font-weight="600">-1</text>
  <circle cx="352.1" cy="123.4" r="3.5" fill="#f59e0b" stroke="#0d1117" stroke-width="1"/>
  <text x="358.1" y="123.4" text-anchor="start" fill="#f59e0b" font-size="8" font-weight="600">1</text>
  <circle cx="198.7" cy="99.7" r="3.5" fill="#f59e0b" stroke="#0d1117" stroke-width="1"/>
  <text x="204.7" y="99.7" text-anchor="start" fill="#f59e0b" font-size="8" font-weight="600">3</text>
  <circle cx="557.6" cy="292.5" r="3.5" fill="#c084fc" stroke="#0d1117" stroke-width="1"/>
  <text x="563.6" y="292.5" text-anchor="start" fill="#c084fc" font-size="8" font-weight="600">-1</text>
  <rect x="70" y="410" width="760" height="300" fill="#161b22" rx="4"/>
  <text x="450.0" y="402" text-anchor="middle" fill="#e6edf3" font-size="12" font-weight="600">Incompressible</text>
  <line x1="70" y1="687.4" x2="830" y2="687.4" stroke="#21262d" stroke-width="1"/>
  <text x="64" y="687.4" text-anchor="end" dominant-baseline="middle" fill="#7d8590" font-size="9">1.20x</text>
  <line x1="70" y1="641.1" x2="830" y2="641.1" stroke="#21262d" stroke-width="1"/>
  <text x="64" y="641.1" text-anchor="end" dominant-baseline="middle" fill="#7d8590" font-size="9">1.30x</text>
  <line x1="70" y1="594.9" x2="830" y2="594.9" stroke="#21262d" stroke-width="1"/>
  <text x="64" y="594.9" text-anchor="end" dominant-baseline="middle" fill="#7d8590" font-size="9">1.40x</text>
  <line x1="70" y1="548.7" x2="830" y2="548.7" stroke="#21262d" stroke-width="1"/>
  <text x="64" y="548.7" text-anchor="end" dominant-baseline="middle" fill="#7d8590" font-size="9">1.50x</text>
  <line x1="70" y1="502.5" x2="830" y2="502.5" stroke="#21262d" stroke-width="1"/>
  <text x="64" y="502.5" text-anchor="end" dominant-baseline="middle" fill="#7d8590" font-size="9">1.60x</text>
  <line x1="70" y1="456.3" x2="830" y2="456.3" stroke="#21262d" stroke-width="1"/>
  <text x="64" y="456.3" text-anchor="end" dominant-baseline="middle" fill="#7d8590" font-size="9">1.70x</text>
  <line x1="213.3" y1="410" x2="213.3" y2="710" stroke="#21262d" stroke-width="1"/>
  <text x="213.3" y="724" text-anchor="middle" fill="#7d8590" font-size="9">100</text>
  <line x1="367.7" y1="410" x2="367.7" y2="710" stroke="#21262d" stroke-width="1"/>
  <text x="367.7" y="724" text-anchor="middle" fill="#7d8590" font-size="9">200</text>
  <line x1="571.8" y1="410" x2="571.8" y2="710" stroke="#21262d" stroke-width="1"/>
  <text x="571.8" y="724" text-anchor="middle" fill="#7d8590" font-size="9">500</text>
  <line x1="726.3" y1="410" x2="726.3" y2="710" stroke="#21262d" stroke-width="1"/>
  <text x="726.3" y="724" text-anchor="middle" fill="#7d8590" font-size="9">1000</text>
  <text x="450.0" y="738" text-anchor="middle" fill="#7d8590" font-size="10">encode MB/s</text>
  <path d="M618.7,643.1L490.7,521.0L234.1,444.6" fill="none" stroke="#60a5fa" stroke-width="1.5" stroke-opacity="0.6"/>
  <circle cx="618.7" cy="643.1" r="3.5" fill="#60a5fa" stroke="#0d1117" stroke-width="1"/>
  <text x="624.7" y="643.1" text-anchor="start" fill="#60a5fa" font-size="8" font-weight="600">-1</text>
  <circle cx="490.7" cy="521.0" r="3.5" fill="#60a5fa" stroke="#0d1117" stroke-width="1"/>
  <text x="496.7" y="521.0" text-anchor="start" fill="#60a5fa" font-size="8" font-weight="600">1</text>
  <circle cx="234.1" cy="444.6" r="3.5" fill="#60a5fa" stroke="#0d1117" stroke-width="1"/>
  <text x="240.1" y="444.6" text-anchor="start" fill="#60a5fa" font-size="8" font-weight="600">3</text>
  <path d="M623.9,639.1L605.4,627.8L589.5,625.2L574.7,624.5L553.4,617.9L490.7,609.2L415.1,600.8L363.0,564.3L294.2,524.1L248.5,503.1L245.2,484.9" fill="none" stroke="#f87171" stroke-width="1.5" stroke-opacity="0.6"/>
  <circle cx="623.9" cy="639.1" r="3.5" fill="#f87171" stroke="#0d1117" stroke-width="1"/>
  <text x="629.9" y="639.1" text-anchor="start" fill="#f87171" font-size="8" font-weight="600">-7</text>
  <circle cx="605.4" cy="627.8" r="3.5" fill="#f87171" stroke="#0d1117" stroke-width="1"/>
  <circle cx="589.5" cy="625.2" r="3.5" fill="#f87171" stroke="#0d1117" stroke-width="1"/>
  <circle cx="574.7" cy="624.5" r="3.5" fill="#f87171" stroke="#0d1117" stroke-width="1"/>
  <text x="580.7" y="624.5" text-anchor="start" fill="#f87171" font-size="8" font-weight="600">-4</text>
  <circle cx="553.4" cy="617.9" r="3.5" fill="#f87171" stroke="#0d1117" stroke-width="1"/>
  <circle cx="490.7" cy="609.2" r="3.5" fill="#f87171" stroke="#0d1117" stroke-width="1"/>
  <circle cx="415.1" cy="600.8" r="3.5" fill="#f87171" stroke="#0d1117" stroke-width="1"/>
  <text x="421.1" y="600.8" text-anchor="start" fill="#f87171" font-size="8" font-weight="600">-1</text>
  <circle cx="363.0" cy="564.3" r="3.5" fill="#f87171" stroke="#0d1117" stroke-width="1"/>
  <circle cx="294.2" cy="524.1" r="3.5" fill="#f87171" stroke="#0d1117" stroke-width="1"/>
  <circle cx="248.5" cy="503.1" r="3.5" fill="#f87171" stroke="#0d1117" stroke-width="1"/>
  <text x="254.5" y="503.1" text-anchor="start" fill="#f87171" font-size="8" font-weight="600">3</text>
  <circle cx="245.2" cy="484.9" r="3.5" fill="#f87171" stroke="#0d1117" stroke-width="1"/>
  <text x="251.2" y="484.9" text-anchor="start" fill="#f87171" font-size="8" font-weight="600">4</text>
  <path d="M344.1,530.5L333.1,521.0L106.2,457.0" fill="none" stroke="#f59e0b" stroke-width="1.5" stroke-opacity="0.6"/>
  <circle cx="344.1" cy="530.5" r="3.5" fill="#f59e0b" stroke="#0d1117" stroke-width="1"/>
  <text x="350.1" y="530.5" text-anchor="start" fill="#f59e0b" font-size="8" font-weight="600">-1</text>
  <circle cx="333.1" cy="521.0" r="3.5" fill="#f59e0b" stroke="#0d1117" stroke-width="1"/>
  <text x="339.1" y="521.0" text-anchor="start" fill="#f59e0b" font-size="8" font-weight="600">1</text>
  <circle cx="106.2" cy="457.0" r="3.5" fill="#f59e0b" stroke="#0d1117" stroke-width="1"/>
  <text x="112.2" y="457.0" text-anchor="start" fill="#f59e0b" font-size="8" font-weight="600">3</text>
  <circle cx="798.2" cy="675.4" r="3.5" fill="#c084fc" stroke="#0d1117" stroke-width="1"/>
  <text x="804.2" y="675.4" text-anchor="start" fill="#c084fc" font-size="8" font-weight="600">-1</text>
  <text x="16" y="382.5" text-anchor="middle" fill="#e6edf3" font-size="11" font-weight="600" transform="rotate(-90,16,382.5)">compression ratio</text>
  <circle cx="45" cy="750" r="4" fill="#60a5fa"/>
  <text x="53" y="753.5" fill="#e6edf3" font-size="10" font-weight="500">C zstd 1.5.7 (libzstd)</text>
  <circle cx="217" cy="750" r="4" fill="#f87171"/>
  <text x="225" y="753.5" fill="#e6edf3" font-size="10" font-weight="500">zrip (safe Rust)</text>
  <circle cx="352" cy="750" r="4" fill="#f59e0b"/>
  <text x="360" y="753.5" fill="#e6edf3" font-size="10" font-weight="500">structured-zstd 0.0.37 (unsafe Rust)</text>
  <circle cx="612" cy="750" r="4" fill="#c084fc"/>
  <text x="620" y="753.5" fill="#e6edf3" font-size="10" font-weight="500">lz4rip 0.3.1 (safe Rust, LZ4)</text>
</svg>
