<svg xmlns="http://www.w3.org/2000/svg" viewBox="0 0 850 1015" font-family="system-ui, -apple-system, sans-serif">
  <rect width="850" height="1015" fill="#0d1117"/>
  <text x="425.0" y="18" text-anchor="middle" fill="#e6edf3" font-size="14" font-weight="700">Encode Speed vs Compression Ratio (geomean across corpus)</text>
  <text x="425.0" y="34" text-anchor="middle" fill="#7d8590" font-size="10">Intel Core i7-8700B @ 3.20GHz, performance governor, turbo off</text>
  <rect x="70" y="55" width="760" height="250" fill="#161b22" rx="4"/>
  <text x="450.0" y="47" text-anchor="middle" fill="#e6edf3" font-size="12" font-weight="600">High compressibility</text>
  <line x1="70" y1="255.0" x2="830" y2="255.0" stroke="#21262d" stroke-width="1"/>
  <text x="64" y="255.0" text-anchor="end" dominant-baseline="middle" fill="#7d8590" font-size="9">4.00x</text>
  <line x1="70" y1="188.3" x2="830" y2="188.3" stroke="#21262d" stroke-width="1"/>
  <text x="64" y="188.3" text-anchor="end" dominant-baseline="middle" fill="#7d8590" font-size="9">6.00x</text>
  <line x1="70" y1="121.7" x2="830" y2="121.7" stroke="#21262d" stroke-width="1"/>
  <text x="64" y="121.7" text-anchor="end" dominant-baseline="middle" fill="#7d8590" font-size="9">8.00x</text>
  <line x1="139.5" y1="55" x2="139.5" y2="305" stroke="#21262d" stroke-width="1"/>
  <text x="139.5" y="319" text-anchor="middle" fill="#7d8590" font-size="9">50</text>
  <line x1="233.8" y1="55" x2="233.8" y2="305" stroke="#21262d" stroke-width="1"/>
  <text x="233.8" y="319" text-anchor="middle" fill="#7d8590" font-size="9">100</text>
  <line x1="328.1" y1="55" x2="328.1" y2="305" stroke="#21262d" stroke-width="1"/>
  <text x="328.1" y="319" text-anchor="middle" fill="#7d8590" font-size="9">200</text>
  <line x1="452.8" y1="55" x2="452.8" y2="305" stroke="#21262d" stroke-width="1"/>
  <text x="452.8" y="319" text-anchor="middle" fill="#7d8590" font-size="9">500</text>
  <line x1="547.1" y1="55" x2="547.1" y2="305" stroke="#21262d" stroke-width="1"/>
  <text x="547.1" y="319" text-anchor="middle" fill="#7d8590" font-size="9">1000</text>
  <line x1="641.4" y1="55" x2="641.4" y2="305" stroke="#21262d" stroke-width="1"/>
  <text x="641.4" y="319" text-anchor="middle" fill="#7d8590" font-size="9">2000</text>
  <line x1="766.1" y1="55" x2="766.1" y2="305" stroke="#21262d" stroke-width="1"/>
  <text x="766.1" y="319" text-anchor="middle" fill="#7d8590" font-size="9">5000</text>
  <text x="450.0" y="333" text-anchor="middle" fill="#7d8590" font-size="10">encode MB/s (log scale)</text>
  <path d="M506.3,236.2L498.2,225.1L495.4,214.9L491.1,200.9L487.1,184.4L482.5,166.5L475.4,153.6L468.4,104.0L456.5,100.7L434.3,93.7L432.6,93.7" fill="none" stroke="#60a5fa" stroke-width="1.5" stroke-opacity="0.6"/>
  <circle cx="506.3" cy="236.2" r="3.5" fill="#60a5fa" stroke="#0d1117" stroke-width="1"/>
  <text x="512.3" y="236.2" text-anchor="start" fill="#60a5fa" font-size="8" font-weight="600">-7</text>
  <circle cx="498.2" cy="225.1" r="3.5" fill="#60a5fa" stroke="#0d1117" stroke-width="1"/>
  <circle cx="495.4" cy="214.9" r="3.5" fill="#60a5fa" stroke="#0d1117" stroke-width="1"/>
  <circle cx="491.1" cy="200.9" r="3.5" fill="#60a5fa" stroke="#0d1117" stroke-width="1"/>
  <text x="497.1" y="200.9" text-anchor="start" fill="#60a5fa" font-size="8" font-weight="600">-4</text>
  <circle cx="487.1" cy="184.4" r="3.5" fill="#60a5fa" stroke="#0d1117" stroke-width="1"/>
  <circle cx="482.5" cy="166.5" r="3.5" fill="#60a5fa" stroke="#0d1117" stroke-width="1"/>
  <circle cx="475.4" cy="153.6" r="3.5" fill="#60a5fa" stroke="#0d1117" stroke-width="1"/>
  <text x="481.4" y="153.6" text-anchor="start" fill="#60a5fa" font-size="8" font-weight="600">-1</text>
  <circle cx="468.4" cy="104.0" r="3.5" fill="#60a5fa" stroke="#0d1117" stroke-width="1"/>
  <circle cx="456.5" cy="100.7" r="3.5" fill="#60a5fa" stroke="#0d1117" stroke-width="1"/>
  <circle cx="434.3" cy="93.7" r="3.5" fill="#60a5fa" stroke="#0d1117" stroke-width="1"/>
  <text x="440.3" y="93.7" text-anchor="start" fill="#60a5fa" font-size="8" font-weight="600">3</text>
  <circle cx="432.6" cy="93.7" r="3.5" fill="#60a5fa" stroke="#0d1117" stroke-width="1"/>
  <text x="426.6" y="93.7" text-anchor="end" fill="#60a5fa" font-size="8" font-weight="600">4</text>
  <path d="M461.8,249.7L446.5,247.0L441.3,228.1L436.3,216.8L433.7,206.9L429.6,193.4L425.8,175.1L423.7,151.6L411.8,140.9L408.9,137.5L388.0,122.1L379.8,117.0" fill="none" stroke="#f87171" stroke-width="1.5" stroke-opacity="0.6"/>
  <circle cx="461.8" cy="249.7" r="3.5" fill="#f87171" stroke="#0d1117" stroke-width="1"/>
  <text x="467.8" y="249.7" text-anchor="start" fill="#f87171" font-size="8" font-weight="600">-8</text>
  <circle cx="446.5" cy="247.0" r="3.5" fill="#f87171" stroke="#0d1117" stroke-width="1"/>
  <circle cx="441.3" cy="228.1" r="3.5" fill="#f87171" stroke="#0d1117" stroke-width="1"/>
  <circle cx="436.3" cy="216.8" r="3.5" fill="#f87171" stroke="#0d1117" stroke-width="1"/>
  <text x="442.3" y="216.8" text-anchor="start" fill="#f87171" font-size="8" font-weight="600">-5</text>
  <circle cx="433.7" cy="206.9" r="3.5" fill="#f87171" stroke="#0d1117" stroke-width="1"/>
  <circle cx="429.6" cy="193.4" r="3.5" fill="#f87171" stroke="#0d1117" stroke-width="1"/>
  <circle cx="425.8" cy="175.1" r="3.5" fill="#f87171" stroke="#0d1117" stroke-width="1"/>
  <text x="431.8" y="175.1" text-anchor="start" fill="#f87171" font-size="8" font-weight="600">-2</text>
  <circle cx="423.7" cy="151.6" r="3.5" fill="#f87171" stroke="#0d1117" stroke-width="1"/>
  <circle cx="411.8" cy="140.9" r="3.5" fill="#f87171" stroke="#0d1117" stroke-width="1"/>
  <circle cx="408.9" cy="137.5" r="3.5" fill="#f87171" stroke="#0d1117" stroke-width="1"/>
  <text x="414.9" y="137.5" text-anchor="start" fill="#f87171" font-size="8" font-weight="600">2</text>
  <circle cx="388.0" cy="122.1" r="3.5" fill="#f87171" stroke="#0d1117" stroke-width="1"/>
  <circle cx="379.8" cy="117.0" r="3.5" fill="#f87171" stroke="#0d1117" stroke-width="1"/>
  <text x="385.8" y="117.0" text-anchor="start" fill="#f87171" font-size="8" font-weight="600">4</text>
  <path d="M418.4,236.1L412.9,225.0L409.9,214.8L407.2,200.7L402.4,184.3L398.3,166.6L392.0,153.7L384.3,104.0L376.5,100.7L329.7,93.2L328.5,92.8" fill="none" stroke="#f59e0b" stroke-width="1.5" stroke-opacity="0.6"/>
  <circle cx="418.4" cy="236.1" r="3.5" fill="#f59e0b" stroke="#0d1117" stroke-width="1"/>
  <text x="424.4" y="236.1" text-anchor="start" fill="#f59e0b" font-size="8" font-weight="600">-7</text>
  <circle cx="412.9" cy="225.0" r="3.5" fill="#f59e0b" stroke="#0d1117" stroke-width="1"/>
  <circle cx="409.9" cy="214.8" r="3.5" fill="#f59e0b" stroke="#0d1117" stroke-width="1"/>
  <circle cx="407.2" cy="200.7" r="3.5" fill="#f59e0b" stroke="#0d1117" stroke-width="1"/>
  <text x="413.2" y="200.7" text-anchor="start" fill="#f59e0b" font-size="8" font-weight="600">-4</text>
  <circle cx="402.4" cy="184.3" r="3.5" fill="#f59e0b" stroke="#0d1117" stroke-width="1"/>
  <circle cx="398.3" cy="166.6" r="3.5" fill="#f59e0b" stroke="#0d1117" stroke-width="1"/>
  <circle cx="392.0" cy="153.7" r="3.5" fill="#f59e0b" stroke="#0d1117" stroke-width="1"/>
  <text x="398.0" y="153.7" text-anchor="start" fill="#f59e0b" font-size="8" font-weight="600">-1</text>
  <circle cx="384.3" cy="104.0" r="3.5" fill="#f59e0b" stroke="#0d1117" stroke-width="1"/>
  <circle cx="376.5" cy="100.7" r="3.5" fill="#f59e0b" stroke="#0d1117" stroke-width="1"/>
  <circle cx="329.7" cy="93.2" r="3.5" fill="#f59e0b" stroke="#0d1117" stroke-width="1"/>
  <text x="335.7" y="93.2" text-anchor="start" fill="#f59e0b" font-size="8" font-weight="600">3</text>
  <circle cx="328.5" cy="92.8" r="3.5" fill="#f59e0b" stroke="#0d1117" stroke-width="1"/>
  <text x="322.5" y="92.8" text-anchor="end" fill="#f59e0b" font-size="8" font-weight="600">4</text>
  <path d="M411.5,249.7L399.2,247.0L394.3,228.1L388.3,216.8L386.5,206.9L383.0,193.4L378.6,175.1L377.5,151.6L364.1,140.9L362.4,137.5L340.5,122.1L325.2,117.0" fill="none" stroke="#f472b6" stroke-width="1.5" stroke-opacity="0.6"/>
  <circle cx="411.5" cy="249.7" r="3.5" fill="#f472b6" stroke="#0d1117" stroke-width="1"/>
  <text x="417.5" y="249.7" text-anchor="start" fill="#f472b6" font-size="8" font-weight="600">-8</text>
  <circle cx="399.2" cy="247.0" r="3.5" fill="#f472b6" stroke="#0d1117" stroke-width="1"/>
  <circle cx="394.3" cy="228.1" r="3.5" fill="#f472b6" stroke="#0d1117" stroke-width="1"/>
  <circle cx="388.3" cy="216.8" r="3.5" fill="#f472b6" stroke="#0d1117" stroke-width="1"/>
  <text x="394.3" y="216.8" text-anchor="start" fill="#f472b6" font-size="8" font-weight="600">-5</text>
  <circle cx="386.5" cy="206.9" r="3.5" fill="#f472b6" stroke="#0d1117" stroke-width="1"/>
  <circle cx="383.0" cy="193.4" r="3.5" fill="#f472b6" stroke="#0d1117" stroke-width="1"/>
  <circle cx="378.6" cy="175.1" r="3.5" fill="#f472b6" stroke="#0d1117" stroke-width="1"/>
  <text x="384.6" y="175.1" text-anchor="start" fill="#f472b6" font-size="8" font-weight="600">-2</text>
  <circle cx="377.5" cy="151.6" r="3.5" fill="#f472b6" stroke="#0d1117" stroke-width="1"/>
  <circle cx="364.1" cy="140.9" r="3.5" fill="#f472b6" stroke="#0d1117" stroke-width="1"/>
  <circle cx="362.4" cy="137.5" r="3.5" fill="#f472b6" stroke="#0d1117" stroke-width="1"/>
  <text x="368.4" y="137.5" text-anchor="start" fill="#f472b6" font-size="8" font-weight="600">2</text>
  <circle cx="340.5" cy="122.1" r="3.5" fill="#f472b6" stroke="#0d1117" stroke-width="1"/>
  <circle cx="325.2" cy="117.0" r="3.5" fill="#f472b6" stroke="#0d1117" stroke-width="1"/>
  <text x="331.2" y="117.0" text-anchor="start" fill="#f472b6" font-size="8" font-weight="600">4</text>
  <circle cx="202.6" cy="212.6" r="3.5" fill="#4ade80" stroke="#0d1117" stroke-width="1"/>
  <text x="208.6" y="212.6" text-anchor="start" fill="#4ade80" font-size="8" font-weight="600">L1</text>
  <circle cx="509.3" cy="230.7" r="3.5" fill="#c084fc" stroke="#0d1117" stroke-width="1"/>
  <text x="515.3" y="230.7" text-anchor="start" fill="#c084fc" font-size="8" font-weight="600">LZ4</text>
  <rect x="70" y="370" width="760" height="250" fill="#161b22" rx="4"/>
  <text x="450.0" y="362" text-anchor="middle" fill="#e6edf3" font-size="12" font-weight="600">Medium compressibility</text>
  <line x1="70" y1="606.1" x2="830" y2="606.1" stroke="#21262d" stroke-width="1"/>
  <text x="64" y="606.1" text-anchor="end" dominant-baseline="middle" fill="#7d8590" font-size="9">1.50x</text>
  <line x1="70" y1="536.7" x2="830" y2="536.7" stroke="#21262d" stroke-width="1"/>
  <text x="64" y="536.7" text-anchor="end" dominant-baseline="middle" fill="#7d8590" font-size="9">2.00x</text>
  <line x1="70" y1="467.2" x2="830" y2="467.2" stroke="#21262d" stroke-width="1"/>
  <text x="64" y="467.2" text-anchor="end" dominant-baseline="middle" fill="#7d8590" font-size="9">2.50x</text>
  <line x1="70" y1="397.8" x2="830" y2="397.8" stroke="#21262d" stroke-width="1"/>
  <text x="64" y="397.8" text-anchor="end" dominant-baseline="middle" fill="#7d8590" font-size="9">3.00x</text>
  <line x1="139.5" y1="370" x2="139.5" y2="620" stroke="#21262d" stroke-width="1"/>
  <text x="139.5" y="634" text-anchor="middle" fill="#7d8590" font-size="9">50</text>
  <line x1="233.8" y1="370" x2="233.8" y2="620" stroke="#21262d" stroke-width="1"/>
  <text x="233.8" y="634" text-anchor="middle" fill="#7d8590" font-size="9">100</text>
  <line x1="328.1" y1="370" x2="328.1" y2="620" stroke="#21262d" stroke-width="1"/>
  <text x="328.1" y="634" text-anchor="middle" fill="#7d8590" font-size="9">200</text>
  <line x1="452.8" y1="370" x2="452.8" y2="620" stroke="#21262d" stroke-width="1"/>
  <text x="452.8" y="634" text-anchor="middle" fill="#7d8590" font-size="9">500</text>
  <line x1="547.1" y1="370" x2="547.1" y2="620" stroke="#21262d" stroke-width="1"/>
  <text x="547.1" y="634" text-anchor="middle" fill="#7d8590" font-size="9">1000</text>
  <line x1="641.4" y1="370" x2="641.4" y2="620" stroke="#21262d" stroke-width="1"/>
  <text x="641.4" y="634" text-anchor="middle" fill="#7d8590" font-size="9">2000</text>
  <line x1="766.1" y1="370" x2="766.1" y2="620" stroke="#21262d" stroke-width="1"/>
  <text x="766.1" y="634" text-anchor="middle" fill="#7d8590" font-size="9">5000</text>
  <text x="450.0" y="648" text-anchor="middle" fill="#7d8590" font-size="10">encode MB/s (log scale)</text>
  <path d="M413.5,572.9L407.8,567.4L401.2,559.7L393.4,548.8L385.8,537.0L377.5,525.6L367.0,513.6L360.2,445.1L333.8,425.5L296.8,410.9L293.3,407.3" fill="none" stroke="#60a5fa" stroke-width="1.5" stroke-opacity="0.6"/>
  <circle cx="413.5" cy="572.9" r="3.5" fill="#60a5fa" stroke="#0d1117" stroke-width="1"/>
  <text x="419.5" y="572.9" text-anchor="start" fill="#60a5fa" font-size="8" font-weight="600">-7</text>
  <circle cx="407.8" cy="567.4" r="3.5" fill="#60a5fa" stroke="#0d1117" stroke-width="1"/>
  <circle cx="401.2" cy="559.7" r="3.5" fill="#60a5fa" stroke="#0d1117" stroke-width="1"/>
  <circle cx="393.4" cy="548.8" r="3.5" fill="#60a5fa" stroke="#0d1117" stroke-width="1"/>
  <text x="399.4" y="548.8" text-anchor="start" fill="#60a5fa" font-size="8" font-weight="600">-4</text>
  <circle cx="385.8" cy="537.0" r="3.5" fill="#60a5fa" stroke="#0d1117" stroke-width="1"/>
  <circle cx="377.5" cy="525.6" r="3.5" fill="#60a5fa" stroke="#0d1117" stroke-width="1"/>
  <circle cx="367.0" cy="513.6" r="3.5" fill="#60a5fa" stroke="#0d1117" stroke-width="1"/>
  <text x="373.0" y="513.6" text-anchor="start" fill="#60a5fa" font-size="8" font-weight="600">-1</text>
  <circle cx="360.2" cy="445.1" r="3.5" fill="#60a5fa" stroke="#0d1117" stroke-width="1"/>
  <circle cx="333.8" cy="425.5" r="3.5" fill="#60a5fa" stroke="#0d1117" stroke-width="1"/>
  <circle cx="296.8" cy="410.9" r="3.5" fill="#60a5fa" stroke="#0d1117" stroke-width="1"/>
  <text x="302.8" y="410.9" text-anchor="start" fill="#60a5fa" font-size="8" font-weight="600">3</text>
  <circle cx="293.3" cy="407.3" r="3.5" fill="#60a5fa" stroke="#0d1117" stroke-width="1"/>
  <text x="287.3" y="407.3" text-anchor="end" fill="#60a5fa" font-size="8" font-weight="600">4</text>
  <path d="M355.6,576.2L341.9,551.5L333.0,539.7L329.6,533.7L326.1,525.8L320.3,513.4L315.3,502.9L310.2,491.8L297.4,474.7L282.2,461.7L254.5,456.2L236.1,448.2" fill="none" stroke="#f87171" stroke-width="1.5" stroke-opacity="0.6"/>
  <circle cx="355.6" cy="576.2" r="3.5" fill="#f87171" stroke="#0d1117" stroke-width="1"/>
  <text x="361.6" y="576.2" text-anchor="start" fill="#f87171" font-size="8" font-weight="600">-8</text>
  <circle cx="341.9" cy="551.5" r="3.5" fill="#f87171" stroke="#0d1117" stroke-width="1"/>
  <circle cx="333.0" cy="539.7" r="3.5" fill="#f87171" stroke="#0d1117" stroke-width="1"/>
  <circle cx="329.6" cy="533.7" r="3.5" fill="#f87171" stroke="#0d1117" stroke-width="1"/>
  <text x="335.6" y="533.7" text-anchor="start" fill="#f87171" font-size="8" font-weight="600">-5</text>
  <circle cx="326.1" cy="525.8" r="3.5" fill="#f87171" stroke="#0d1117" stroke-width="1"/>
  <circle cx="320.3" cy="513.4" r="3.5" fill="#f87171" stroke="#0d1117" stroke-width="1"/>
  <circle cx="315.3" cy="502.9" r="3.5" fill="#f87171" stroke="#0d1117" stroke-width="1"/>
  <text x="321.3" y="502.9" text-anchor="start" fill="#f87171" font-size="8" font-weight="600">-2</text>
  <circle cx="310.2" cy="491.8" r="3.5" fill="#f87171" stroke="#0d1117" stroke-width="1"/>
  <circle cx="297.4" cy="474.7" r="3.5" fill="#f87171" stroke="#0d1117" stroke-width="1"/>
  <circle cx="282.2" cy="461.7" r="3.5" fill="#f87171" stroke="#0d1117" stroke-width="1"/>
  <text x="288.2" y="461.7" text-anchor="start" fill="#f87171" font-size="8" font-weight="600">2</text>
  <circle cx="254.5" cy="456.2" r="3.5" fill="#f87171" stroke="#0d1117" stroke-width="1"/>
  <circle cx="236.1" cy="448.2" r="3.5" fill="#f87171" stroke="#0d1117" stroke-width="1"/>
  <text x="242.1" y="448.2" text-anchor="start" fill="#f87171" font-size="8" font-weight="600">4</text>
  <path d="M338.2,573.0L335.0,567.5L328.8,559.8L322.6,548.8L315.2,537.2L308.7,525.9L300.2,513.9L286.2,445.5L265.7,426.1L202.3,412.4L201.6,407.6" fill="none" stroke="#f59e0b" stroke-width="1.5" stroke-opacity="0.6"/>
  <circle cx="338.2" cy="573.0" r="3.5" fill="#f59e0b" stroke="#0d1117" stroke-width="1"/>
  <text x="344.2" y="573.0" text-anchor="start" fill="#f59e0b" font-size="8" font-weight="600">-7</text>
  <circle cx="335.0" cy="567.5" r="3.5" fill="#f59e0b" stroke="#0d1117" stroke-width="1"/>
  <circle cx="328.8" cy="559.8" r="3.5" fill="#f59e0b" stroke="#0d1117" stroke-width="1"/>
  <circle cx="322.6" cy="548.8" r="3.5" fill="#f59e0b" stroke="#0d1117" stroke-width="1"/>
  <text x="328.6" y="548.8" text-anchor="start" fill="#f59e0b" font-size="8" font-weight="600">-4</text>
  <circle cx="315.2" cy="537.2" r="3.5" fill="#f59e0b" stroke="#0d1117" stroke-width="1"/>
  <circle cx="308.7" cy="525.9" r="3.5" fill="#f59e0b" stroke="#0d1117" stroke-width="1"/>
  <circle cx="300.2" cy="513.9" r="3.5" fill="#f59e0b" stroke="#0d1117" stroke-width="1"/>
  <text x="306.2" y="513.9" text-anchor="start" fill="#f59e0b" font-size="8" font-weight="600">-1</text>
  <circle cx="286.2" cy="445.5" r="3.5" fill="#f59e0b" stroke="#0d1117" stroke-width="1"/>
  <circle cx="265.7" cy="426.1" r="3.5" fill="#f59e0b" stroke="#0d1117" stroke-width="1"/>
  <circle cx="202.3" cy="412.4" r="3.5" fill="#f59e0b" stroke="#0d1117" stroke-width="1"/>
  <text x="208.3" y="412.4" text-anchor="start" fill="#f59e0b" font-size="8" font-weight="600">3</text>
  <circle cx="201.6" cy="407.6" r="3.5" fill="#f59e0b" stroke="#0d1117" stroke-width="1"/>
  <text x="195.6" y="407.6" text-anchor="end" fill="#f59e0b" font-size="8" font-weight="600">4</text>
  <path d="M308.6,576.2L300.7,551.5L291.5,539.7L287.9,533.7L284.3,525.8L278.5,513.4L273.9,502.9L268.4,491.8L247.4,474.7L238.0,461.7L211.0,456.2L178.1,448.2" fill="none" stroke="#f472b6" stroke-width="1.5" stroke-opacity="0.6"/>
  <circle cx="308.6" cy="576.2" r="3.5" fill="#f472b6" stroke="#0d1117" stroke-width="1"/>
  <text x="314.6" y="576.2" text-anchor="start" fill="#f472b6" font-size="8" font-weight="600">-8</text>
  <circle cx="300.7" cy="551.5" r="3.5" fill="#f472b6" stroke="#0d1117" stroke-width="1"/>
  <circle cx="291.5" cy="539.7" r="3.5" fill="#f472b6" stroke="#0d1117" stroke-width="1"/>
  <circle cx="287.9" cy="533.7" r="3.5" fill="#f472b6" stroke="#0d1117" stroke-width="1"/>
  <text x="293.9" y="533.7" text-anchor="start" fill="#f472b6" font-size="8" font-weight="600">-5</text>
  <circle cx="284.3" cy="525.8" r="3.5" fill="#f472b6" stroke="#0d1117" stroke-width="1"/>
  <circle cx="278.5" cy="513.4" r="3.5" fill="#f472b6" stroke="#0d1117" stroke-width="1"/>
  <circle cx="273.9" cy="502.9" r="3.5" fill="#f472b6" stroke="#0d1117" stroke-width="1"/>
  <text x="279.9" y="502.9" text-anchor="start" fill="#f472b6" font-size="8" font-weight="600">-2</text>
  <circle cx="268.4" cy="491.8" r="3.5" fill="#f472b6" stroke="#0d1117" stroke-width="1"/>
  <circle cx="247.4" cy="474.7" r="3.5" fill="#f472b6" stroke="#0d1117" stroke-width="1"/>
  <circle cx="238.0" cy="461.7" r="3.5" fill="#f472b6" stroke="#0d1117" stroke-width="1"/>
  <text x="244.0" y="461.7" text-anchor="start" fill="#f472b6" font-size="8" font-weight="600">2</text>
  <circle cx="211.0" cy="456.2" r="3.5" fill="#f472b6" stroke="#0d1117" stroke-width="1"/>
  <circle cx="178.1" cy="448.2" r="3.5" fill="#f472b6" stroke="#0d1117" stroke-width="1"/>
  <text x="184.1" y="448.2" text-anchor="start" fill="#f472b6" font-size="8" font-weight="600">4</text>
  <circle cx="135.3" cy="512.1" r="3.5" fill="#4ade80" stroke="#0d1117" stroke-width="1"/>
  <text x="141.3" y="512.1" text-anchor="start" fill="#4ade80" font-size="8" font-weight="600">L1</text>
  <circle cx="426.9" cy="579.3" r="3.5" fill="#c084fc" stroke="#0d1117" stroke-width="1"/>
  <text x="432.9" y="579.3" text-anchor="start" fill="#c084fc" font-size="8" font-weight="600">LZ4</text>
  <rect x="70" y="685" width="760" height="250" fill="#161b22" rx="4"/>
  <text x="450.0" y="677" text-anchor="middle" fill="#e6edf3" font-size="12" font-weight="600">Low compressibility</text>
  <line x1="70" y1="914.2" x2="830" y2="914.2" stroke="#21262d" stroke-width="1"/>
  <text x="64" y="914.2" text-anchor="end" dominant-baseline="middle" fill="#7d8590" font-size="9">1.00x</text>
  <line x1="70" y1="872.5" x2="830" y2="872.5" stroke="#21262d" stroke-width="1"/>
  <text x="64" y="872.5" text-anchor="end" dominant-baseline="middle" fill="#7d8590" font-size="9">1.10x</text>
  <line x1="70" y1="830.8" x2="830" y2="830.8" stroke="#21262d" stroke-width="1"/>
  <text x="64" y="830.8" text-anchor="end" dominant-baseline="middle" fill="#7d8590" font-size="9">1.20x</text>
  <line x1="70" y1="789.2" x2="830" y2="789.2" stroke="#21262d" stroke-width="1"/>
  <text x="64" y="789.2" text-anchor="end" dominant-baseline="middle" fill="#7d8590" font-size="9">1.30x</text>
  <line x1="70" y1="747.5" x2="830" y2="747.5" stroke="#21262d" stroke-width="1"/>
  <text x="64" y="747.5" text-anchor="end" dominant-baseline="middle" fill="#7d8590" font-size="9">1.40x</text>
  <line x1="70" y1="705.8" x2="830" y2="705.8" stroke="#21262d" stroke-width="1"/>
  <text x="64" y="705.8" text-anchor="end" dominant-baseline="middle" fill="#7d8590" font-size="9">1.50x</text>
  <line x1="139.5" y1="685" x2="139.5" y2="935" stroke="#21262d" stroke-width="1"/>
  <text x="139.5" y="949" text-anchor="middle" fill="#7d8590" font-size="9">50</text>
  <line x1="233.8" y1="685" x2="233.8" y2="935" stroke="#21262d" stroke-width="1"/>
  <text x="233.8" y="949" text-anchor="middle" fill="#7d8590" font-size="9">100</text>
  <line x1="328.1" y1="685" x2="328.1" y2="935" stroke="#21262d" stroke-width="1"/>
  <text x="328.1" y="949" text-anchor="middle" fill="#7d8590" font-size="9">200</text>
  <line x1="452.8" y1="685" x2="452.8" y2="935" stroke="#21262d" stroke-width="1"/>
  <text x="452.8" y="949" text-anchor="middle" fill="#7d8590" font-size="9">500</text>
  <line x1="547.1" y1="685" x2="547.1" y2="935" stroke="#21262d" stroke-width="1"/>
  <text x="547.1" y="949" text-anchor="middle" fill="#7d8590" font-size="9">1000</text>
  <line x1="641.4" y1="685" x2="641.4" y2="935" stroke="#21262d" stroke-width="1"/>
  <text x="641.4" y="949" text-anchor="middle" fill="#7d8590" font-size="9">2000</text>
  <line x1="766.1" y1="685" x2="766.1" y2="935" stroke="#21262d" stroke-width="1"/>
  <text x="766.1" y="949" text-anchor="middle" fill="#7d8590" font-size="9">5000</text>
  <text x="450.0" y="963" text-anchor="middle" fill="#7d8590" font-size="10">encode MB/s (log scale)</text>
  <path d="M611.1,904.6L598.8,900.9L595.1,901.8L583.0,899.4L569.3,897.4L553.5,894.7L526.8,892.1L417.9,828.8L347.8,806.3L235.3,767.6L224.1,742.4" fill="none" stroke="#60a5fa" stroke-width="1.5" stroke-opacity="0.6"/>
  <circle cx="611.1" cy="904.6" r="3.5" fill="#60a5fa" stroke="#0d1117" stroke-width="1"/>
  <text x="617.1" y="904.6" text-anchor="start" fill="#60a5fa" font-size="8" font-weight="600">-7</text>
  <circle cx="598.8" cy="900.9" r="3.5" fill="#60a5fa" stroke="#0d1117" stroke-width="1"/>
  <circle cx="595.1" cy="901.8" r="3.5" fill="#60a5fa" stroke="#0d1117" stroke-width="1"/>
  <circle cx="583.0" cy="899.4" r="3.5" fill="#60a5fa" stroke="#0d1117" stroke-width="1"/>
  <text x="589.0" y="899.4" text-anchor="start" fill="#60a5fa" font-size="8" font-weight="600">-4</text>
  <circle cx="569.3" cy="897.4" r="3.5" fill="#60a5fa" stroke="#0d1117" stroke-width="1"/>
  <circle cx="553.5" cy="894.7" r="3.5" fill="#60a5fa" stroke="#0d1117" stroke-width="1"/>
  <circle cx="526.8" cy="892.1" r="3.5" fill="#60a5fa" stroke="#0d1117" stroke-width="1"/>
  <text x="532.8" y="892.1" text-anchor="start" fill="#60a5fa" font-size="8" font-weight="600">-1</text>
  <circle cx="417.9" cy="828.8" r="3.5" fill="#60a5fa" stroke="#0d1117" stroke-width="1"/>
  <circle cx="347.8" cy="806.3" r="3.5" fill="#60a5fa" stroke="#0d1117" stroke-width="1"/>
  <circle cx="235.3" cy="767.6" r="3.5" fill="#60a5fa" stroke="#0d1117" stroke-width="1"/>
  <text x="241.3" y="767.6" text-anchor="start" fill="#60a5fa" font-size="8" font-weight="600">3</text>
  <circle cx="224.1" cy="742.4" r="3.5" fill="#60a5fa" stroke="#0d1117" stroke-width="1"/>
  <text x="230.1" y="742.4" text-anchor="start" fill="#60a5fa" font-size="8" font-weight="600">4</text>
  <path d="M652.0,913.3L595.1,909.7L548.2,902.9L533.1,899.3L515.5,897.3L495.2,895.2L451.0,891.5L420.6,884.7L336.1,857.8L263.4,817.1L239.8,807.1L205.2,782.7" fill="none" stroke="#f87171" stroke-width="1.5" stroke-opacity="0.6"/>
  <circle cx="652.0" cy="913.3" r="3.5" fill="#f87171" stroke="#0d1117" stroke-width="1"/>
  <text x="658.0" y="913.3" text-anchor="start" fill="#f87171" font-size="8" font-weight="600">-8</text>
  <circle cx="595.1" cy="909.7" r="3.5" fill="#f87171" stroke="#0d1117" stroke-width="1"/>
  <circle cx="548.2" cy="902.9" r="3.5" fill="#f87171" stroke="#0d1117" stroke-width="1"/>
  <circle cx="533.1" cy="899.3" r="3.5" fill="#f87171" stroke="#0d1117" stroke-width="1"/>
  <text x="539.1" y="899.3" text-anchor="start" fill="#f87171" font-size="8" font-weight="600">-5</text>
  <circle cx="515.5" cy="897.3" r="3.5" fill="#f87171" stroke="#0d1117" stroke-width="1"/>
  <circle cx="495.2" cy="895.2" r="3.5" fill="#f87171" stroke="#0d1117" stroke-width="1"/>
  <circle cx="451.0" cy="891.5" r="3.5" fill="#f87171" stroke="#0d1117" stroke-width="1"/>
  <text x="457.0" y="891.5" text-anchor="start" fill="#f87171" font-size="8" font-weight="600">-2</text>
  <circle cx="420.6" cy="884.7" r="3.5" fill="#f87171" stroke="#0d1117" stroke-width="1"/>
  <circle cx="336.1" cy="857.8" r="3.5" fill="#f87171" stroke="#0d1117" stroke-width="1"/>
  <circle cx="263.4" cy="817.1" r="3.5" fill="#f87171" stroke="#0d1117" stroke-width="1"/>
  <text x="269.4" y="817.1" text-anchor="start" fill="#f87171" font-size="8" font-weight="600">2</text>
  <circle cx="239.8" cy="807.1" r="3.5" fill="#f87171" stroke="#0d1117" stroke-width="1"/>
  <circle cx="205.2" cy="782.7" r="3.5" fill="#f87171" stroke="#0d1117" stroke-width="1"/>
  <text x="211.2" y="782.7" text-anchor="start" fill="#f87171" font-size="8" font-weight="600">4</text>
  <path d="M553.1,904.5L540.8,900.9L531.4,901.7L524.9,899.3L509.1,897.2L491.8,894.5L473.4,892.0L312.3,828.8L269.4,806.3L148.6,776.3L139.6,752.6" fill="none" stroke="#f59e0b" stroke-width="1.5" stroke-opacity="0.6"/>
  <circle cx="553.1" cy="904.5" r="3.5" fill="#f59e0b" stroke="#0d1117" stroke-width="1"/>
  <text x="559.1" y="904.5" text-anchor="start" fill="#f59e0b" font-size="8" font-weight="600">-7</text>
  <circle cx="540.8" cy="900.9" r="3.5" fill="#f59e0b" stroke="#0d1117" stroke-width="1"/>
  <circle cx="531.4" cy="901.7" r="3.5" fill="#f59e0b" stroke="#0d1117" stroke-width="1"/>
  <circle cx="524.9" cy="899.3" r="3.5" fill="#f59e0b" stroke="#0d1117" stroke-width="1"/>
  <text x="530.9" y="899.3" text-anchor="start" fill="#f59e0b" font-size="8" font-weight="600">-4</text>
  <circle cx="509.1" cy="897.2" r="3.5" fill="#f59e0b" stroke="#0d1117" stroke-width="1"/>
  <circle cx="491.8" cy="894.5" r="3.5" fill="#f59e0b" stroke="#0d1117" stroke-width="1"/>
  <circle cx="473.4" cy="892.0" r="3.5" fill="#f59e0b" stroke="#0d1117" stroke-width="1"/>
  <text x="479.4" y="892.0" text-anchor="start" fill="#f59e0b" font-size="8" font-weight="600">-1</text>
  <circle cx="312.3" cy="828.8" r="3.5" fill="#f59e0b" stroke="#0d1117" stroke-width="1"/>
  <circle cx="269.4" cy="806.3" r="3.5" fill="#f59e0b" stroke="#0d1117" stroke-width="1"/>
  <circle cx="148.6" cy="776.3" r="3.5" fill="#f59e0b" stroke="#0d1117" stroke-width="1"/>
  <text x="154.6" y="776.3" text-anchor="start" fill="#f59e0b" font-size="8" font-weight="600">3</text>
  <circle cx="139.6" cy="752.6" r="3.5" fill="#f59e0b" stroke="#0d1117" stroke-width="1"/>
  <text x="145.6" y="752.6" text-anchor="start" fill="#f59e0b" font-size="8" font-weight="600">4</text>
  <path d="M618.6,913.3L562.5,909.7L514.9,902.9L499.7,899.3L478.7,897.3L457.6,895.2L411.0,891.5L378.4,884.7L288.4,857.8L227.8,817.1L201.4,807.1L155.4,782.7" fill="none" stroke="#f472b6" stroke-width="1.5" stroke-opacity="0.6"/>
  <circle cx="618.6" cy="913.3" r="3.5" fill="#f472b6" stroke="#0d1117" stroke-width="1"/>
  <text x="624.6" y="913.3" text-anchor="start" fill="#f472b6" font-size="8" font-weight="600">-8</text>
  <circle cx="562.5" cy="909.7" r="3.5" fill="#f472b6" stroke="#0d1117" stroke-width="1"/>
  <circle cx="514.9" cy="902.9" r="3.5" fill="#f472b6" stroke="#0d1117" stroke-width="1"/>
  <circle cx="499.7" cy="899.3" r="3.5" fill="#f472b6" stroke="#0d1117" stroke-width="1"/>
  <text x="505.7" y="899.3" text-anchor="start" fill="#f472b6" font-size="8" font-weight="600">-5</text>
  <circle cx="478.7" cy="897.3" r="3.5" fill="#f472b6" stroke="#0d1117" stroke-width="1"/>
  <circle cx="457.6" cy="895.2" r="3.5" fill="#f472b6" stroke="#0d1117" stroke-width="1"/>
  <circle cx="411.0" cy="891.5" r="3.5" fill="#f472b6" stroke="#0d1117" stroke-width="1"/>
  <text x="417.0" y="891.5" text-anchor="start" fill="#f472b6" font-size="8" font-weight="600">-2</text>
  <circle cx="378.4" cy="884.7" r="3.5" fill="#f472b6" stroke="#0d1117" stroke-width="1"/>
  <circle cx="288.4" cy="857.8" r="3.5" fill="#f472b6" stroke="#0d1117" stroke-width="1"/>
  <circle cx="227.8" cy="817.1" r="3.5" fill="#f472b6" stroke="#0d1117" stroke-width="1"/>
  <text x="233.8" y="817.1" text-anchor="start" fill="#f472b6" font-size="8" font-weight="600">2</text>
  <circle cx="201.4" cy="807.1" r="3.5" fill="#f472b6" stroke="#0d1117" stroke-width="1"/>
  <circle cx="155.4" cy="782.7" r="3.5" fill="#f472b6" stroke="#0d1117" stroke-width="1"/>
  <text x="161.4" y="782.7" text-anchor="start" fill="#f472b6" font-size="8" font-weight="600">4</text>
  <circle cx="88.1" cy="842.5" r="3.5" fill="#4ade80" stroke="#0d1117" stroke-width="1"/>
  <text x="94.1" y="842.5" text-anchor="start" fill="#4ade80" font-size="8" font-weight="600">L1</text>
  <circle cx="712.6" cy="911.7" r="3.5" fill="#c084fc" stroke="#0d1117" stroke-width="1"/>
  <text x="718.6" y="911.7" text-anchor="start" fill="#c084fc" font-size="8" font-weight="600">LZ4</text>
  <text x="16" y="495.0" text-anchor="middle" fill="#e6edf3" font-size="11" font-weight="600" transform="rotate(-90,16,495.0)">compression ratio</text>
  <circle cx="101" cy="975" r="4" fill="#60a5fa"/>
  <text x="109" y="978.5" fill="#e6edf3" font-size="10" font-weight="500">libzstd v1.5.7 (C)</text>
  <circle cx="257" cy="975" r="4" fill="#f87171"/>
  <text x="265" y="978.5" fill="#e6edf3" font-size="10" font-weight="500">zrip (safe SIMD + encapsulated unsafe)</text>
  <circle cx="536" cy="975" r="4" fill="#f59e0b"/>
  <text x="544" y="978.5" fill="#e6edf3" font-size="10" font-weight="500">structured-zstd v0.0.48 (unsafe)</text>
  <circle cx="61" cy="993" r="4" fill="#f472b6"/>
  <text x="69" y="996.5" fill="#e6edf3" font-size="10" font-weight="500">zrip paranoid (safe SIMD, no unsafe)</text>
  <circle cx="328" cy="993" r="4" fill="#4ade80"/>
  <text x="336" y="996.5" fill="#e6edf3" font-size="10" font-weight="500">ruzstd v0.8.3 (safe)</text>
  <circle cx="496" cy="993" r="4" fill="#c084fc"/>
  <text x="504" y="996.5" fill="#e6edf3" font-size="10" font-weight="500">lz4rip 0.8.5 (encapsulated unsafe, Rust, LZ4)</text>
</svg>
