<svg xmlns="http://www.w3.org/2000/svg" viewBox="0 0 850 1015" font-family="system-ui, -apple-system, sans-serif">
  <rect width="850" height="1015" fill="#0d1117"/>
  <text x="425.0" y="18" text-anchor="middle" fill="#e6edf3" font-size="14" font-weight="700">Encode Speed vs Compression Ratio (geomean across corpus)</text>
  <text x="425.0" y="34" text-anchor="middle" fill="#7d8590" font-size="10">Intel Core i7-8700B @ 3.20GHz, performance governor, turbo off</text>
  <rect x="70" y="55" width="760" height="250" fill="#161b22" rx="4"/>
  <text x="450.0" y="47" text-anchor="middle" fill="#e6edf3" font-size="12" font-weight="600">High compressibility</text>
  <line x1="70" y1="255.0" x2="830" y2="255.0" stroke="#21262d" stroke-width="1"/>
  <text x="64" y="255.0" text-anchor="end" dominant-baseline="middle" fill="#7d8590" font-size="9">4.00x</text>
  <line x1="70" y1="188.3" x2="830" y2="188.3" stroke="#21262d" stroke-width="1"/>
  <text x="64" y="188.3" text-anchor="end" dominant-baseline="middle" fill="#7d8590" font-size="9">6.00x</text>
  <line x1="70" y1="121.7" x2="830" y2="121.7" stroke="#21262d" stroke-width="1"/>
  <text x="64" y="121.7" text-anchor="end" dominant-baseline="middle" fill="#7d8590" font-size="9">8.00x</text>
  <line x1="149.4" y1="55" x2="149.4" y2="305" stroke="#21262d" stroke-width="1"/>
  <text x="149.4" y="319" text-anchor="middle" fill="#7d8590" font-size="9">50</text>
  <line x1="257.0" y1="55" x2="257.0" y2="305" stroke="#21262d" stroke-width="1"/>
  <text x="257.0" y="319" text-anchor="middle" fill="#7d8590" font-size="9">100</text>
  <line x1="364.7" y1="55" x2="364.7" y2="305" stroke="#21262d" stroke-width="1"/>
  <text x="364.7" y="319" text-anchor="middle" fill="#7d8590" font-size="9">200</text>
  <line x1="507.0" y1="55" x2="507.0" y2="305" stroke="#21262d" stroke-width="1"/>
  <text x="507.0" y="319" text-anchor="middle" fill="#7d8590" font-size="9">500</text>
  <line x1="614.7" y1="55" x2="614.7" y2="305" stroke="#21262d" stroke-width="1"/>
  <text x="614.7" y="319" text-anchor="middle" fill="#7d8590" font-size="9">1000</text>
  <line x1="722.4" y1="55" x2="722.4" y2="305" stroke="#21262d" stroke-width="1"/>
  <text x="722.4" y="319" text-anchor="middle" fill="#7d8590" font-size="9">2000</text>
  <text x="450.0" y="333" text-anchor="middle" fill="#7d8590" font-size="10">encode MB/s (log scale)</text>
  <path d="M567.3,236.2L558.2,225.1L555.5,214.9L551.0,200.9L547.0,184.4L542.1,166.5L534.3,153.6L525.5,104.0L509.9,100.7L483.1,93.7L480.1,93.7" fill="none" stroke="#60a5fa" stroke-width="1.5" stroke-opacity="0.6"/>
  <circle cx="567.3" cy="236.2" r="3.5" fill="#60a5fa" stroke="#0d1117" stroke-width="1"/>
  <text x="573.3" y="236.2" text-anchor="start" fill="#60a5fa" font-size="8" font-weight="600">-7</text>
  <circle cx="558.2" cy="225.1" r="3.5" fill="#60a5fa" stroke="#0d1117" stroke-width="1"/>
  <circle cx="555.5" cy="214.9" r="3.5" fill="#60a5fa" stroke="#0d1117" stroke-width="1"/>
  <circle cx="551.0" cy="200.9" r="3.5" fill="#60a5fa" stroke="#0d1117" stroke-width="1"/>
  <text x="557.0" y="200.9" text-anchor="start" fill="#60a5fa" font-size="8" font-weight="600">-4</text>
  <circle cx="547.0" cy="184.4" r="3.5" fill="#60a5fa" stroke="#0d1117" stroke-width="1"/>
  <circle cx="542.1" cy="166.5" r="3.5" fill="#60a5fa" stroke="#0d1117" stroke-width="1"/>
  <circle cx="534.3" cy="153.6" r="3.5" fill="#60a5fa" stroke="#0d1117" stroke-width="1"/>
  <text x="540.3" y="153.6" text-anchor="start" fill="#60a5fa" font-size="8" font-weight="600">-1</text>
  <circle cx="525.5" cy="104.0" r="3.5" fill="#60a5fa" stroke="#0d1117" stroke-width="1"/>
  <circle cx="509.9" cy="100.7" r="3.5" fill="#60a5fa" stroke="#0d1117" stroke-width="1"/>
  <circle cx="483.1" cy="93.7" r="3.5" fill="#60a5fa" stroke="#0d1117" stroke-width="1"/>
  <text x="489.1" y="93.7" text-anchor="start" fill="#60a5fa" font-size="8" font-weight="600">3</text>
  <circle cx="480.1" cy="93.7" r="3.5" fill="#60a5fa" stroke="#0d1117" stroke-width="1"/>
  <text x="474.1" y="93.7" text-anchor="end" fill="#60a5fa" font-size="8" font-weight="600">4</text>
  <path d="M542.2,256.7L511.7,233.7L504.1,223.3L500.7,212.7L496.7,199.3L493.4,179.6L490.0,160.4L478.0,140.9L472.1,138.6L442.1,124.9L442.2,124.1" fill="none" stroke="#f87171" stroke-width="1.5" stroke-opacity="0.6"/>
  <circle cx="542.2" cy="256.7" r="3.5" fill="#f87171" stroke="#0d1117" stroke-width="1"/>
  <text x="548.2" y="256.7" text-anchor="start" fill="#f87171" font-size="8" font-weight="600">-7</text>
  <circle cx="511.7" cy="233.7" r="3.5" fill="#f87171" stroke="#0d1117" stroke-width="1"/>
  <circle cx="504.1" cy="223.3" r="3.5" fill="#f87171" stroke="#0d1117" stroke-width="1"/>
  <circle cx="500.7" cy="212.7" r="3.5" fill="#f87171" stroke="#0d1117" stroke-width="1"/>
  <text x="506.7" y="212.7" text-anchor="start" fill="#f87171" font-size="8" font-weight="600">-4</text>
  <circle cx="496.7" cy="199.3" r="3.5" fill="#f87171" stroke="#0d1117" stroke-width="1"/>
  <circle cx="493.4" cy="179.6" r="3.5" fill="#f87171" stroke="#0d1117" stroke-width="1"/>
  <circle cx="490.0" cy="160.4" r="3.5" fill="#f87171" stroke="#0d1117" stroke-width="1"/>
  <text x="496.0" y="160.4" text-anchor="start" fill="#f87171" font-size="8" font-weight="600">-1</text>
  <circle cx="478.0" cy="140.9" r="3.5" fill="#f87171" stroke="#0d1117" stroke-width="1"/>
  <circle cx="472.1" cy="138.6" r="3.5" fill="#f87171" stroke="#0d1117" stroke-width="1"/>
  <circle cx="442.1" cy="124.9" r="3.5" fill="#f87171" stroke="#0d1117" stroke-width="1"/>
  <text x="448.1" y="124.9" text-anchor="start" fill="#f87171" font-size="8" font-weight="600">3</text>
  <circle cx="442.2" cy="124.1" r="3.5" fill="#f87171" stroke="#0d1117" stroke-width="1"/>
  <text x="436.2" y="124.1" text-anchor="end" fill="#f87171" font-size="8" font-weight="600">4</text>
  <path d="M441.9,175.3L439.1,166.2L438.5,155.4L436.6,142.2L433.8,127.5L430.8,114.3L424.3,107.6L422.4,104.1L412.4,99.8L358.9,105.8L359.1,105.1" fill="none" stroke="#f59e0b" stroke-width="1.5" stroke-opacity="0.6"/>
  <circle cx="441.9" cy="175.3" r="3.5" fill="#f59e0b" stroke="#0d1117" stroke-width="1"/>
  <text x="447.9" y="175.3" text-anchor="start" fill="#f59e0b" font-size="8" font-weight="600">-7</text>
  <circle cx="439.1" cy="166.2" r="3.5" fill="#f59e0b" stroke="#0d1117" stroke-width="1"/>
  <circle cx="438.5" cy="155.4" r="3.5" fill="#f59e0b" stroke="#0d1117" stroke-width="1"/>
  <circle cx="436.6" cy="142.2" r="3.5" fill="#f59e0b" stroke="#0d1117" stroke-width="1"/>
  <text x="442.6" y="142.2" text-anchor="start" fill="#f59e0b" font-size="8" font-weight="600">-4</text>
  <circle cx="433.8" cy="127.5" r="3.5" fill="#f59e0b" stroke="#0d1117" stroke-width="1"/>
  <circle cx="430.8" cy="114.3" r="3.5" fill="#f59e0b" stroke="#0d1117" stroke-width="1"/>
  <circle cx="424.3" cy="107.6" r="3.5" fill="#f59e0b" stroke="#0d1117" stroke-width="1"/>
  <text x="430.3" y="107.6" text-anchor="start" fill="#f59e0b" font-size="8" font-weight="600">-1</text>
  <circle cx="422.4" cy="104.1" r="3.5" fill="#f59e0b" stroke="#0d1117" stroke-width="1"/>
  <circle cx="412.4" cy="99.8" r="3.5" fill="#f59e0b" stroke="#0d1117" stroke-width="1"/>
  <circle cx="358.9" cy="105.8" r="3.5" fill="#f59e0b" stroke="#0d1117" stroke-width="1"/>
  <text x="364.9" y="105.8" text-anchor="start" fill="#f59e0b" font-size="8" font-weight="600">3</text>
  <circle cx="359.1" cy="105.1" r="3.5" fill="#f59e0b" stroke="#0d1117" stroke-width="1"/>
  <text x="353.1" y="105.1" text-anchor="end" fill="#f59e0b" font-size="8" font-weight="600">4</text>
  <circle cx="210.2" cy="212.6" r="3.5" fill="#4ade80" stroke="#0d1117" stroke-width="1"/>
  <text x="216.2" y="212.6" text-anchor="start" fill="#4ade80" font-size="8" font-weight="600">L1</text>
  <circle cx="563.1" cy="225.3" r="3.5" fill="#c084fc" stroke="#0d1117" stroke-width="1"/>
  <text x="569.1" y="225.3" text-anchor="start" fill="#c084fc" font-size="8" font-weight="600">LZ4</text>
  <rect x="70" y="370" width="760" height="250" fill="#161b22" rx="4"/>
  <text x="450.0" y="362" text-anchor="middle" fill="#e6edf3" font-size="12" font-weight="600">Medium compressibility</text>
  <line x1="70" y1="606.1" x2="830" y2="606.1" stroke="#21262d" stroke-width="1"/>
  <text x="64" y="606.1" text-anchor="end" dominant-baseline="middle" fill="#7d8590" font-size="9">1.50x</text>
  <line x1="70" y1="536.7" x2="830" y2="536.7" stroke="#21262d" stroke-width="1"/>
  <text x="64" y="536.7" text-anchor="end" dominant-baseline="middle" fill="#7d8590" font-size="9">2.00x</text>
  <line x1="70" y1="467.2" x2="830" y2="467.2" stroke="#21262d" stroke-width="1"/>
  <text x="64" y="467.2" text-anchor="end" dominant-baseline="middle" fill="#7d8590" font-size="9">2.50x</text>
  <line x1="70" y1="397.8" x2="830" y2="397.8" stroke="#21262d" stroke-width="1"/>
  <text x="64" y="397.8" text-anchor="end" dominant-baseline="middle" fill="#7d8590" font-size="9">3.00x</text>
  <line x1="149.4" y1="370" x2="149.4" y2="620" stroke="#21262d" stroke-width="1"/>
  <text x="149.4" y="634" text-anchor="middle" fill="#7d8590" font-size="9">50</text>
  <line x1="257.0" y1="370" x2="257.0" y2="620" stroke="#21262d" stroke-width="1"/>
  <text x="257.0" y="634" text-anchor="middle" fill="#7d8590" font-size="9">100</text>
  <line x1="364.7" y1="370" x2="364.7" y2="620" stroke="#21262d" stroke-width="1"/>
  <text x="364.7" y="634" text-anchor="middle" fill="#7d8590" font-size="9">200</text>
  <line x1="507.0" y1="370" x2="507.0" y2="620" stroke="#21262d" stroke-width="1"/>
  <text x="507.0" y="634" text-anchor="middle" fill="#7d8590" font-size="9">500</text>
  <line x1="614.7" y1="370" x2="614.7" y2="620" stroke="#21262d" stroke-width="1"/>
  <text x="614.7" y="634" text-anchor="middle" fill="#7d8590" font-size="9">1000</text>
  <line x1="722.4" y1="370" x2="722.4" y2="620" stroke="#21262d" stroke-width="1"/>
  <text x="722.4" y="634" text-anchor="middle" fill="#7d8590" font-size="9">2000</text>
  <text x="450.0" y="648" text-anchor="middle" fill="#7d8590" font-size="10">encode MB/s (log scale)</text>
  <path d="M459.3,572.9L452.9,567.4L445.8,559.7L437.5,548.8L429.2,537.0L419.8,525.6L408.3,513.6L400.1,445.1L367.8,425.5L324.4,410.9L319.0,407.3" fill="none" stroke="#60a5fa" stroke-width="1.5" stroke-opacity="0.6"/>
  <circle cx="459.3" cy="572.9" r="3.5" fill="#60a5fa" stroke="#0d1117" stroke-width="1"/>
  <text x="465.3" y="572.9" text-anchor="start" fill="#60a5fa" font-size="8" font-weight="600">-7</text>
  <circle cx="452.9" cy="567.4" r="3.5" fill="#60a5fa" stroke="#0d1117" stroke-width="1"/>
  <circle cx="445.8" cy="559.7" r="3.5" fill="#60a5fa" stroke="#0d1117" stroke-width="1"/>
  <circle cx="437.5" cy="548.8" r="3.5" fill="#60a5fa" stroke="#0d1117" stroke-width="1"/>
  <text x="443.5" y="548.8" text-anchor="start" fill="#60a5fa" font-size="8" font-weight="600">-4</text>
  <circle cx="429.2" cy="537.0" r="3.5" fill="#60a5fa" stroke="#0d1117" stroke-width="1"/>
  <circle cx="419.8" cy="525.6" r="3.5" fill="#60a5fa" stroke="#0d1117" stroke-width="1"/>
  <circle cx="408.3" cy="513.6" r="3.5" fill="#60a5fa" stroke="#0d1117" stroke-width="1"/>
  <text x="414.3" y="513.6" text-anchor="start" fill="#60a5fa" font-size="8" font-weight="600">-1</text>
  <circle cx="400.1" cy="445.1" r="3.5" fill="#60a5fa" stroke="#0d1117" stroke-width="1"/>
  <circle cx="367.8" cy="425.5" r="3.5" fill="#60a5fa" stroke="#0d1117" stroke-width="1"/>
  <circle cx="324.4" cy="410.9" r="3.5" fill="#60a5fa" stroke="#0d1117" stroke-width="1"/>
  <text x="330.4" y="410.9" text-anchor="start" fill="#60a5fa" font-size="8" font-weight="600">3</text>
  <circle cx="319.0" cy="407.3" r="3.5" fill="#60a5fa" stroke="#0d1117" stroke-width="1"/>
  <text x="313.0" y="407.3" text-anchor="end" fill="#60a5fa" font-size="8" font-weight="600">4</text>
  <path d="M417.3,580.5L393.2,556.0L388.5,550.6L386.3,542.7L379.7,530.1L374.0,519.2L367.3,507.3L347.8,474.7L333.4,463.7L298.4,464.7L296.1,460.9" fill="none" stroke="#f87171" stroke-width="1.5" stroke-opacity="0.6"/>
  <circle cx="417.3" cy="580.5" r="3.5" fill="#f87171" stroke="#0d1117" stroke-width="1"/>
  <text x="423.3" y="580.5" text-anchor="start" fill="#f87171" font-size="8" font-weight="600">-7</text>
  <circle cx="393.2" cy="556.0" r="3.5" fill="#f87171" stroke="#0d1117" stroke-width="1"/>
  <circle cx="388.5" cy="550.6" r="3.5" fill="#f87171" stroke="#0d1117" stroke-width="1"/>
  <circle cx="386.3" cy="542.7" r="3.5" fill="#f87171" stroke="#0d1117" stroke-width="1"/>
  <text x="392.3" y="542.7" text-anchor="start" fill="#f87171" font-size="8" font-weight="600">-4</text>
  <circle cx="379.7" cy="530.1" r="3.5" fill="#f87171" stroke="#0d1117" stroke-width="1"/>
  <circle cx="374.0" cy="519.2" r="3.5" fill="#f87171" stroke="#0d1117" stroke-width="1"/>
  <circle cx="367.3" cy="507.3" r="3.5" fill="#f87171" stroke="#0d1117" stroke-width="1"/>
  <text x="373.3" y="507.3" text-anchor="start" fill="#f87171" font-size="8" font-weight="600">-1</text>
  <circle cx="347.8" cy="474.7" r="3.5" fill="#f87171" stroke="#0d1117" stroke-width="1"/>
  <circle cx="333.4" cy="463.7" r="3.5" fill="#f87171" stroke="#0d1117" stroke-width="1"/>
  <circle cx="298.4" cy="464.7" r="3.5" fill="#f87171" stroke="#0d1117" stroke-width="1"/>
  <text x="304.4" y="464.7" text-anchor="start" fill="#f87171" font-size="8" font-weight="600">3</text>
  <circle cx="296.1" cy="460.9" r="3.5" fill="#f87171" stroke="#0d1117" stroke-width="1"/>
  <text x="290.1" y="460.9" text-anchor="end" fill="#f87171" font-size="8" font-weight="600">4</text>
  <path d="M347.6,503.4L344.9,498.1L339.6,492.1L335.5,484.9L329.7,476.3L323.9,467.3L315.7,459.2L310.7,446.1L288.5,425.9L215.1,412.8L214.1,408.2" fill="none" stroke="#f59e0b" stroke-width="1.5" stroke-opacity="0.6"/>
  <circle cx="347.6" cy="503.4" r="3.5" fill="#f59e0b" stroke="#0d1117" stroke-width="1"/>
  <text x="353.6" y="503.4" text-anchor="start" fill="#f59e0b" font-size="8" font-weight="600">-7</text>
  <circle cx="344.9" cy="498.1" r="3.5" fill="#f59e0b" stroke="#0d1117" stroke-width="1"/>
  <circle cx="339.6" cy="492.1" r="3.5" fill="#f59e0b" stroke="#0d1117" stroke-width="1"/>
  <circle cx="335.5" cy="484.9" r="3.5" fill="#f59e0b" stroke="#0d1117" stroke-width="1"/>
  <text x="341.5" y="484.9" text-anchor="start" fill="#f59e0b" font-size="8" font-weight="600">-4</text>
  <circle cx="329.7" cy="476.3" r="3.5" fill="#f59e0b" stroke="#0d1117" stroke-width="1"/>
  <circle cx="323.9" cy="467.3" r="3.5" fill="#f59e0b" stroke="#0d1117" stroke-width="1"/>
  <circle cx="315.7" cy="459.2" r="3.5" fill="#f59e0b" stroke="#0d1117" stroke-width="1"/>
  <text x="321.7" y="459.2" text-anchor="start" fill="#f59e0b" font-size="8" font-weight="600">-1</text>
  <circle cx="310.7" cy="446.1" r="3.5" fill="#f59e0b" stroke="#0d1117" stroke-width="1"/>
  <circle cx="288.5" cy="425.9" r="3.5" fill="#f59e0b" stroke="#0d1117" stroke-width="1"/>
  <circle cx="215.1" cy="412.8" r="3.5" fill="#f59e0b" stroke="#0d1117" stroke-width="1"/>
  <text x="221.1" y="412.8" text-anchor="start" fill="#f59e0b" font-size="8" font-weight="600">3</text>
  <circle cx="214.1" cy="408.2" r="3.5" fill="#f59e0b" stroke="#0d1117" stroke-width="1"/>
  <text x="208.1" y="408.2" text-anchor="end" fill="#f59e0b" font-size="8" font-weight="600">4</text>
  <circle cx="140.5" cy="512.1" r="3.5" fill="#4ade80" stroke="#0d1117" stroke-width="1"/>
  <text x="146.5" y="512.1" text-anchor="start" fill="#4ade80" font-size="8" font-weight="600">L1</text>
  <circle cx="460.1" cy="560.9" r="3.5" fill="#c084fc" stroke="#0d1117" stroke-width="1"/>
  <text x="466.1" y="560.9" text-anchor="start" fill="#c084fc" font-size="8" font-weight="600">LZ4</text>
  <rect x="70" y="685" width="760" height="250" fill="#161b22" rx="4"/>
  <text x="450.0" y="677" text-anchor="middle" fill="#e6edf3" font-size="12" font-weight="600">Low compressibility</text>
  <line x1="70" y1="910.0" x2="830" y2="910.0" stroke="#21262d" stroke-width="1"/>
  <text x="64" y="910.0" text-anchor="end" dominant-baseline="middle" fill="#7d8590" font-size="9">1.00x</text>
  <line x1="70" y1="860.0" x2="830" y2="860.0" stroke="#21262d" stroke-width="1"/>
  <text x="64" y="860.0" text-anchor="end" dominant-baseline="middle" fill="#7d8590" font-size="9">1.10x</text>
  <line x1="70" y1="810.0" x2="830" y2="810.0" stroke="#21262d" stroke-width="1"/>
  <text x="64" y="810.0" text-anchor="end" dominant-baseline="middle" fill="#7d8590" font-size="9">1.20x</text>
  <line x1="70" y1="760.0" x2="830" y2="760.0" stroke="#21262d" stroke-width="1"/>
  <text x="64" y="760.0" text-anchor="end" dominant-baseline="middle" fill="#7d8590" font-size="9">1.30x</text>
  <line x1="70" y1="710.0" x2="830" y2="710.0" stroke="#21262d" stroke-width="1"/>
  <text x="64" y="710.0" text-anchor="end" dominant-baseline="middle" fill="#7d8590" font-size="9">1.40x</text>
  <line x1="149.4" y1="685" x2="149.4" y2="935" stroke="#21262d" stroke-width="1"/>
  <text x="149.4" y="949" text-anchor="middle" fill="#7d8590" font-size="9">50</text>
  <line x1="257.0" y1="685" x2="257.0" y2="935" stroke="#21262d" stroke-width="1"/>
  <text x="257.0" y="949" text-anchor="middle" fill="#7d8590" font-size="9">100</text>
  <line x1="364.7" y1="685" x2="364.7" y2="935" stroke="#21262d" stroke-width="1"/>
  <text x="364.7" y="949" text-anchor="middle" fill="#7d8590" font-size="9">200</text>
  <line x1="507.0" y1="685" x2="507.0" y2="935" stroke="#21262d" stroke-width="1"/>
  <text x="507.0" y="949" text-anchor="middle" fill="#7d8590" font-size="9">500</text>
  <line x1="614.7" y1="685" x2="614.7" y2="935" stroke="#21262d" stroke-width="1"/>
  <text x="614.7" y="949" text-anchor="middle" fill="#7d8590" font-size="9">1000</text>
  <line x1="722.4" y1="685" x2="722.4" y2="935" stroke="#21262d" stroke-width="1"/>
  <text x="722.4" y="949" text-anchor="middle" fill="#7d8590" font-size="9">2000</text>
  <text x="450.0" y="963" text-anchor="middle" fill="#7d8590" font-size="10">encode MB/s (log scale)</text>
  <path d="M677.1,898.6L663.3,894.1L659.8,895.2L646.3,892.2L631.3,889.9L613.6,886.6L584.5,883.6L464.9,807.5L378.6,780.5L247.2,734.2L233.2,703.9" fill="none" stroke="#60a5fa" stroke-width="1.5" stroke-opacity="0.6"/>
  <circle cx="677.1" cy="898.6" r="3.5" fill="#60a5fa" stroke="#0d1117" stroke-width="1"/>
  <text x="683.1" y="898.6" text-anchor="start" fill="#60a5fa" font-size="8" font-weight="600">-7</text>
  <circle cx="663.3" cy="894.1" r="3.5" fill="#60a5fa" stroke="#0d1117" stroke-width="1"/>
  <circle cx="659.8" cy="895.2" r="3.5" fill="#60a5fa" stroke="#0d1117" stroke-width="1"/>
  <circle cx="646.3" cy="892.2" r="3.5" fill="#60a5fa" stroke="#0d1117" stroke-width="1"/>
  <text x="652.3" y="892.2" text-anchor="start" fill="#60a5fa" font-size="8" font-weight="600">-4</text>
  <circle cx="631.3" cy="889.9" r="3.5" fill="#60a5fa" stroke="#0d1117" stroke-width="1"/>
  <circle cx="613.6" cy="886.6" r="3.5" fill="#60a5fa" stroke="#0d1117" stroke-width="1"/>
  <circle cx="584.5" cy="883.6" r="3.5" fill="#60a5fa" stroke="#0d1117" stroke-width="1"/>
  <text x="590.5" y="883.6" text-anchor="start" fill="#60a5fa" font-size="8" font-weight="600">-1</text>
  <circle cx="464.9" cy="807.5" r="3.5" fill="#60a5fa" stroke="#0d1117" stroke-width="1"/>
  <circle cx="378.6" cy="780.5" r="3.5" fill="#60a5fa" stroke="#0d1117" stroke-width="1"/>
  <circle cx="247.2" cy="734.2" r="3.5" fill="#60a5fa" stroke="#0d1117" stroke-width="1"/>
  <text x="253.2" y="734.2" text-anchor="start" fill="#60a5fa" font-size="8" font-weight="600">3</text>
  <circle cx="233.2" cy="703.9" r="3.5" fill="#60a5fa" stroke="#0d1117" stroke-width="1"/>
  <text x="239.2" y="703.9" text-anchor="start" fill="#60a5fa" font-size="8" font-weight="600">4</text>
  <path d="M713.4,907.4L719.4,908.2L671.4,903.7L629.4,896.6L609.8,893.4L603.9,894.8L547.8,887.0L386.2,842.3L321.7,808.8L291.3,812.8L278.6,792.6" fill="none" stroke="#f87171" stroke-width="1.5" stroke-opacity="0.6"/>
  <circle cx="713.4" cy="907.4" r="3.5" fill="#f87171" stroke="#0d1117" stroke-width="1"/>
  <text x="719.4" y="907.4" text-anchor="start" fill="#f87171" font-size="8" font-weight="600">-7</text>
  <circle cx="719.4" cy="908.2" r="3.5" fill="#f87171" stroke="#0d1117" stroke-width="1"/>
  <circle cx="671.4" cy="903.7" r="3.5" fill="#f87171" stroke="#0d1117" stroke-width="1"/>
  <circle cx="629.4" cy="896.6" r="3.5" fill="#f87171" stroke="#0d1117" stroke-width="1"/>
  <text x="635.4" y="896.6" text-anchor="start" fill="#f87171" font-size="8" font-weight="600">-4</text>
  <circle cx="609.8" cy="893.4" r="3.5" fill="#f87171" stroke="#0d1117" stroke-width="1"/>
  <circle cx="603.9" cy="894.8" r="3.5" fill="#f87171" stroke="#0d1117" stroke-width="1"/>
  <circle cx="547.8" cy="887.0" r="3.5" fill="#f87171" stroke="#0d1117" stroke-width="1"/>
  <text x="553.8" y="887.0" text-anchor="start" fill="#f87171" font-size="8" font-weight="600">-1</text>
  <circle cx="386.2" cy="842.3" r="3.5" fill="#f87171" stroke="#0d1117" stroke-width="1"/>
  <circle cx="321.7" cy="808.8" r="3.5" fill="#f87171" stroke="#0d1117" stroke-width="1"/>
  <circle cx="291.3" cy="812.8" r="3.5" fill="#f87171" stroke="#0d1117" stroke-width="1"/>
  <text x="297.3" y="812.8" text-anchor="start" fill="#f87171" font-size="8" font-weight="600">3</text>
  <circle cx="278.6" cy="792.6" r="3.5" fill="#f87171" stroke="#0d1117" stroke-width="1"/>
  <text x="284.6" y="792.6" text-anchor="start" fill="#f87171" font-size="8" font-weight="600">4</text>
  <path d="M381.5,824.5L381.5,825.4L377.6,823.1L374.3,821.3L367.7,817.3L363.8,817.7L353.1,814.5L345.4,807.6L290.6,780.6L175.8,748.4L140.5,716.5" fill="none" stroke="#f59e0b" stroke-width="1.5" stroke-opacity="0.6"/>
  <circle cx="381.5" cy="824.5" r="3.5" fill="#f59e0b" stroke="#0d1117" stroke-width="1"/>
  <text x="387.5" y="824.5" text-anchor="start" fill="#f59e0b" font-size="8" font-weight="600">-7</text>
  <circle cx="381.5" cy="825.4" r="3.5" fill="#f59e0b" stroke="#0d1117" stroke-width="1"/>
  <circle cx="377.6" cy="823.1" r="3.5" fill="#f59e0b" stroke="#0d1117" stroke-width="1"/>
  <circle cx="374.3" cy="821.3" r="3.5" fill="#f59e0b" stroke="#0d1117" stroke-width="1"/>
  <text x="368.3" y="821.3" text-anchor="end" fill="#f59e0b" font-size="8" font-weight="600">-4</text>
  <circle cx="367.7" cy="817.3" r="3.5" fill="#f59e0b" stroke="#0d1117" stroke-width="1"/>
  <circle cx="363.8" cy="817.7" r="3.5" fill="#f59e0b" stroke="#0d1117" stroke-width="1"/>
  <circle cx="353.1" cy="814.5" r="3.5" fill="#f59e0b" stroke="#0d1117" stroke-width="1"/>
  <text x="347.1" y="814.5" text-anchor="end" fill="#f59e0b" font-size="8" font-weight="600">-1</text>
  <circle cx="345.4" cy="807.6" r="3.5" fill="#f59e0b" stroke="#0d1117" stroke-width="1"/>
  <circle cx="290.6" cy="780.6" r="3.5" fill="#f59e0b" stroke="#0d1117" stroke-width="1"/>
  <circle cx="175.8" cy="748.4" r="3.5" fill="#f59e0b" stroke="#0d1117" stroke-width="1"/>
  <text x="181.8" y="748.4" text-anchor="start" fill="#f59e0b" font-size="8" font-weight="600">3</text>
  <circle cx="140.5" cy="716.5" r="3.5" fill="#f59e0b" stroke="#0d1117" stroke-width="1"/>
  <text x="146.5" y="716.5" text-anchor="start" fill="#f59e0b" font-size="8" font-weight="600">4</text>
  <circle cx="86.6" cy="824.0" r="3.5" fill="#4ade80" stroke="#0d1117" stroke-width="1"/>
  <text x="92.6" y="824.0" text-anchor="start" fill="#4ade80" font-size="8" font-weight="600">L1</text>
  <circle cx="730.9" cy="902.2" r="3.5" fill="#c084fc" stroke="#0d1117" stroke-width="1"/>
  <text x="736.9" y="902.2" text-anchor="start" fill="#c084fc" font-size="8" font-weight="600">LZ4</text>
  <text x="16" y="495.0" text-anchor="middle" fill="#e6edf3" font-size="11" font-weight="600" transform="rotate(-90,16,495.0)">compression ratio</text>
  <circle cx="153" cy="975" r="4" fill="#60a5fa"/>
  <text x="161" y="978.5" fill="#e6edf3" font-size="10" font-weight="500">C zstd 1.5.7 (libzstd)</text>
  <circle cx="325" cy="975" r="4" fill="#f87171"/>
  <text x="333" y="978.5" fill="#e6edf3" font-size="10" font-weight="500">zrip (safe Rust)</text>
  <circle cx="460" cy="975" r="4" fill="#f59e0b"/>
  <text x="468" y="978.5" fill="#e6edf3" font-size="10" font-weight="500">structured-zstd 0.0.40 (unsafe Rust)</text>
  <circle cx="236" cy="993" r="4" fill="#4ade80"/>
  <text x="244" y="996.5" fill="#e6edf3" font-size="10" font-weight="500">ruzstd 0.8.2 (safe Rust)</text>
  <circle cx="420" cy="993" r="4" fill="#c084fc"/>
  <text x="428" y="996.5" fill="#e6edf3" font-size="10" font-weight="500">lz4rip 0.3.1 (safe Rust, LZ4)</text>
</svg>
