<svg xmlns="http://www.w3.org/2000/svg" viewBox="0 0 850 1015" font-family="system-ui, -apple-system, sans-serif">
  <rect width="850" height="1015" fill="#0d1117"/>
  <text x="425.0" y="18" text-anchor="middle" fill="#e6edf3" font-size="14" font-weight="700">Encode Speed vs Compression Ratio (geomean across corpus)</text>
  <text x="425.0" y="34" text-anchor="middle" fill="#7d8590" font-size="10">Intel Core i7-8700B @ 3.20GHz, performance governor, turbo off</text>
  <rect x="70" y="55" width="760" height="250" fill="#161b22" rx="4"/>
  <text x="450.0" y="47" text-anchor="middle" fill="#e6edf3" font-size="12" font-weight="600">High compressibility</text>
  <line x1="70" y1="255.0" x2="830" y2="255.0" stroke="#21262d" stroke-width="1"/>
  <text x="64" y="255.0" text-anchor="end" dominant-baseline="middle" fill="#7d8590" font-size="9">4.00x</text>
  <line x1="70" y1="188.3" x2="830" y2="188.3" stroke="#21262d" stroke-width="1"/>
  <text x="64" y="188.3" text-anchor="end" dominant-baseline="middle" fill="#7d8590" font-size="9">6.00x</text>
  <line x1="70" y1="121.7" x2="830" y2="121.7" stroke="#21262d" stroke-width="1"/>
  <text x="64" y="121.7" text-anchor="end" dominant-baseline="middle" fill="#7d8590" font-size="9">8.00x</text>
  <line x1="139.5" y1="55" x2="139.5" y2="305" stroke="#21262d" stroke-width="1"/>
  <text x="139.5" y="319" text-anchor="middle" fill="#7d8590" font-size="9">50</text>
  <line x1="233.8" y1="55" x2="233.8" y2="305" stroke="#21262d" stroke-width="1"/>
  <text x="233.8" y="319" text-anchor="middle" fill="#7d8590" font-size="9">100</text>
  <line x1="328.1" y1="55" x2="328.1" y2="305" stroke="#21262d" stroke-width="1"/>
  <text x="328.1" y="319" text-anchor="middle" fill="#7d8590" font-size="9">200</text>
  <line x1="452.8" y1="55" x2="452.8" y2="305" stroke="#21262d" stroke-width="1"/>
  <text x="452.8" y="319" text-anchor="middle" fill="#7d8590" font-size="9">500</text>
  <line x1="547.1" y1="55" x2="547.1" y2="305" stroke="#21262d" stroke-width="1"/>
  <text x="547.1" y="319" text-anchor="middle" fill="#7d8590" font-size="9">1000</text>
  <line x1="641.4" y1="55" x2="641.4" y2="305" stroke="#21262d" stroke-width="1"/>
  <text x="641.4" y="319" text-anchor="middle" fill="#7d8590" font-size="9">2000</text>
  <line x1="766.1" y1="55" x2="766.1" y2="305" stroke="#21262d" stroke-width="1"/>
  <text x="766.1" y="319" text-anchor="middle" fill="#7d8590" font-size="9">5000</text>
  <text x="450.0" y="333" text-anchor="middle" fill="#7d8590" font-size="10">encode MB/s (log scale)</text>
  <path d="M506.3,236.2L498.2,225.1L495.4,214.9L491.1,200.9L487.1,184.4L482.5,166.5L475.4,153.6L468.4,104.0L456.5,100.7L434.3,93.7L432.6,93.7" fill="none" stroke="#60a5fa" stroke-width="1.5" stroke-opacity="0.6"/>
  <circle cx="506.3" cy="236.2" r="3.5" fill="#60a5fa" stroke="#0d1117" stroke-width="1"/>
  <text x="512.3" y="236.2" text-anchor="start" fill="#60a5fa" font-size="8" font-weight="600">-7</text>
  <circle cx="498.2" cy="225.1" r="3.5" fill="#60a5fa" stroke="#0d1117" stroke-width="1"/>
  <circle cx="495.4" cy="214.9" r="3.5" fill="#60a5fa" stroke="#0d1117" stroke-width="1"/>
  <circle cx="491.1" cy="200.9" r="3.5" fill="#60a5fa" stroke="#0d1117" stroke-width="1"/>
  <text x="497.1" y="200.9" text-anchor="start" fill="#60a5fa" font-size="8" font-weight="600">-4</text>
  <circle cx="487.1" cy="184.4" r="3.5" fill="#60a5fa" stroke="#0d1117" stroke-width="1"/>
  <circle cx="482.5" cy="166.5" r="3.5" fill="#60a5fa" stroke="#0d1117" stroke-width="1"/>
  <circle cx="475.4" cy="153.6" r="3.5" fill="#60a5fa" stroke="#0d1117" stroke-width="1"/>
  <text x="481.4" y="153.6" text-anchor="start" fill="#60a5fa" font-size="8" font-weight="600">-1</text>
  <circle cx="468.4" cy="104.0" r="3.5" fill="#60a5fa" stroke="#0d1117" stroke-width="1"/>
  <circle cx="456.5" cy="100.7" r="3.5" fill="#60a5fa" stroke="#0d1117" stroke-width="1"/>
  <circle cx="434.3" cy="93.7" r="3.5" fill="#60a5fa" stroke="#0d1117" stroke-width="1"/>
  <text x="440.3" y="93.7" text-anchor="start" fill="#60a5fa" font-size="8" font-weight="600">3</text>
  <circle cx="432.6" cy="93.7" r="3.5" fill="#60a5fa" stroke="#0d1117" stroke-width="1"/>
  <text x="426.6" y="93.7" text-anchor="end" fill="#60a5fa" font-size="8" font-weight="600">4</text>
  <path d="M460.6,249.7L445.6,247.0L439.4,228.1L433.9,216.8L431.5,206.9L427.6,193.4L424.1,175.1L422.3,151.6L410.4,140.9L406.1,137.5L386.0,122.1L366.2,117.0" fill="none" stroke="#f87171" stroke-width="1.5" stroke-opacity="0.6"/>
  <circle cx="460.6" cy="249.7" r="3.5" fill="#f87171" stroke="#0d1117" stroke-width="1"/>
  <text x="466.6" y="249.7" text-anchor="start" fill="#f87171" font-size="8" font-weight="600">-8</text>
  <circle cx="445.6" cy="247.0" r="3.5" fill="#f87171" stroke="#0d1117" stroke-width="1"/>
  <circle cx="439.4" cy="228.1" r="3.5" fill="#f87171" stroke="#0d1117" stroke-width="1"/>
  <circle cx="433.9" cy="216.8" r="3.5" fill="#f87171" stroke="#0d1117" stroke-width="1"/>
  <text x="439.9" y="216.8" text-anchor="start" fill="#f87171" font-size="8" font-weight="600">-5</text>
  <circle cx="431.5" cy="206.9" r="3.5" fill="#f87171" stroke="#0d1117" stroke-width="1"/>
  <circle cx="427.6" cy="193.4" r="3.5" fill="#f87171" stroke="#0d1117" stroke-width="1"/>
  <circle cx="424.1" cy="175.1" r="3.5" fill="#f87171" stroke="#0d1117" stroke-width="1"/>
  <text x="430.1" y="175.1" text-anchor="start" fill="#f87171" font-size="8" font-weight="600">-2</text>
  <circle cx="422.3" cy="151.6" r="3.5" fill="#f87171" stroke="#0d1117" stroke-width="1"/>
  <circle cx="410.4" cy="140.9" r="3.5" fill="#f87171" stroke="#0d1117" stroke-width="1"/>
  <circle cx="406.1" cy="137.5" r="3.5" fill="#f87171" stroke="#0d1117" stroke-width="1"/>
  <text x="412.1" y="137.5" text-anchor="start" fill="#f87171" font-size="8" font-weight="600">2</text>
  <circle cx="386.0" cy="122.1" r="3.5" fill="#f87171" stroke="#0d1117" stroke-width="1"/>
  <circle cx="366.2" cy="117.0" r="3.5" fill="#f87171" stroke="#0d1117" stroke-width="1"/>
  <text x="372.2" y="117.0" text-anchor="start" fill="#f87171" font-size="8" font-weight="600">4</text>
  <path d="M419.1,236.1L413.1,225.0L410.3,214.8L407.1,200.7L402.6,184.3L398.8,166.6L392.0,153.7L383.9,104.0L376.5,100.7L328.6,93.2L328.1,92.8" fill="none" stroke="#f59e0b" stroke-width="1.5" stroke-opacity="0.6"/>
  <circle cx="419.1" cy="236.1" r="3.5" fill="#f59e0b" stroke="#0d1117" stroke-width="1"/>
  <text x="425.1" y="236.1" text-anchor="start" fill="#f59e0b" font-size="8" font-weight="600">-7</text>
  <circle cx="413.1" cy="225.0" r="3.5" fill="#f59e0b" stroke="#0d1117" stroke-width="1"/>
  <circle cx="410.3" cy="214.8" r="3.5" fill="#f59e0b" stroke="#0d1117" stroke-width="1"/>
  <circle cx="407.1" cy="200.7" r="3.5" fill="#f59e0b" stroke="#0d1117" stroke-width="1"/>
  <text x="413.1" y="200.7" text-anchor="start" fill="#f59e0b" font-size="8" font-weight="600">-4</text>
  <circle cx="402.6" cy="184.3" r="3.5" fill="#f59e0b" stroke="#0d1117" stroke-width="1"/>
  <circle cx="398.8" cy="166.6" r="3.5" fill="#f59e0b" stroke="#0d1117" stroke-width="1"/>
  <circle cx="392.0" cy="153.7" r="3.5" fill="#f59e0b" stroke="#0d1117" stroke-width="1"/>
  <text x="398.0" y="153.7" text-anchor="start" fill="#f59e0b" font-size="8" font-weight="600">-1</text>
  <circle cx="383.9" cy="104.0" r="3.5" fill="#f59e0b" stroke="#0d1117" stroke-width="1"/>
  <circle cx="376.5" cy="100.7" r="3.5" fill="#f59e0b" stroke="#0d1117" stroke-width="1"/>
  <circle cx="328.6" cy="93.2" r="3.5" fill="#f59e0b" stroke="#0d1117" stroke-width="1"/>
  <text x="334.6" y="93.2" text-anchor="start" fill="#f59e0b" font-size="8" font-weight="600">3</text>
  <circle cx="328.1" cy="92.8" r="3.5" fill="#f59e0b" stroke="#0d1117" stroke-width="1"/>
  <text x="322.1" y="92.8" text-anchor="end" fill="#f59e0b" font-size="8" font-weight="600">4</text>
  <path d="M413.6,249.7L403.6,247.0L397.5,228.1L391.4,216.8L389.1,206.9L385.7,193.4L382.6,175.1L380.1,151.6L367.2,140.9L364.6,137.5L346.5,122.1L330.1,117.0" fill="none" stroke="#f472b6" stroke-width="1.5" stroke-opacity="0.6"/>
  <circle cx="413.6" cy="249.7" r="3.5" fill="#f472b6" stroke="#0d1117" stroke-width="1"/>
  <text x="419.6" y="249.7" text-anchor="start" fill="#f472b6" font-size="8" font-weight="600">-8</text>
  <circle cx="403.6" cy="247.0" r="3.5" fill="#f472b6" stroke="#0d1117" stroke-width="1"/>
  <circle cx="397.5" cy="228.1" r="3.5" fill="#f472b6" stroke="#0d1117" stroke-width="1"/>
  <circle cx="391.4" cy="216.8" r="3.5" fill="#f472b6" stroke="#0d1117" stroke-width="1"/>
  <text x="397.4" y="216.8" text-anchor="start" fill="#f472b6" font-size="8" font-weight="600">-5</text>
  <circle cx="389.1" cy="206.9" r="3.5" fill="#f472b6" stroke="#0d1117" stroke-width="1"/>
  <circle cx="385.7" cy="193.4" r="3.5" fill="#f472b6" stroke="#0d1117" stroke-width="1"/>
  <circle cx="382.6" cy="175.1" r="3.5" fill="#f472b6" stroke="#0d1117" stroke-width="1"/>
  <text x="388.6" y="175.1" text-anchor="start" fill="#f472b6" font-size="8" font-weight="600">-2</text>
  <circle cx="380.1" cy="151.6" r="3.5" fill="#f472b6" stroke="#0d1117" stroke-width="1"/>
  <circle cx="367.2" cy="140.9" r="3.5" fill="#f472b6" stroke="#0d1117" stroke-width="1"/>
  <circle cx="364.6" cy="137.5" r="3.5" fill="#f472b6" stroke="#0d1117" stroke-width="1"/>
  <text x="370.6" y="137.5" text-anchor="start" fill="#f472b6" font-size="8" font-weight="600">2</text>
  <circle cx="346.5" cy="122.1" r="3.5" fill="#f472b6" stroke="#0d1117" stroke-width="1"/>
  <circle cx="330.1" cy="117.0" r="3.5" fill="#f472b6" stroke="#0d1117" stroke-width="1"/>
  <text x="336.1" y="117.0" text-anchor="start" fill="#f472b6" font-size="8" font-weight="600">4</text>
  <circle cx="202.6" cy="212.6" r="3.5" fill="#4ade80" stroke="#0d1117" stroke-width="1"/>
  <text x="208.6" y="212.6" text-anchor="start" fill="#4ade80" font-size="8" font-weight="600">L1</text>
  <circle cx="509.3" cy="230.7" r="3.5" fill="#c084fc" stroke="#0d1117" stroke-width="1"/>
  <text x="515.3" y="230.7" text-anchor="start" fill="#c084fc" font-size="8" font-weight="600">LZ4</text>
  <rect x="70" y="370" width="760" height="250" fill="#161b22" rx="4"/>
  <text x="450.0" y="362" text-anchor="middle" fill="#e6edf3" font-size="12" font-weight="600">Medium compressibility</text>
  <line x1="70" y1="606.1" x2="830" y2="606.1" stroke="#21262d" stroke-width="1"/>
  <text x="64" y="606.1" text-anchor="end" dominant-baseline="middle" fill="#7d8590" font-size="9">1.50x</text>
  <line x1="70" y1="536.7" x2="830" y2="536.7" stroke="#21262d" stroke-width="1"/>
  <text x="64" y="536.7" text-anchor="end" dominant-baseline="middle" fill="#7d8590" font-size="9">2.00x</text>
  <line x1="70" y1="467.2" x2="830" y2="467.2" stroke="#21262d" stroke-width="1"/>
  <text x="64" y="467.2" text-anchor="end" dominant-baseline="middle" fill="#7d8590" font-size="9">2.50x</text>
  <line x1="70" y1="397.8" x2="830" y2="397.8" stroke="#21262d" stroke-width="1"/>
  <text x="64" y="397.8" text-anchor="end" dominant-baseline="middle" fill="#7d8590" font-size="9">3.00x</text>
  <line x1="139.5" y1="370" x2="139.5" y2="620" stroke="#21262d" stroke-width="1"/>
  <text x="139.5" y="634" text-anchor="middle" fill="#7d8590" font-size="9">50</text>
  <line x1="233.8" y1="370" x2="233.8" y2="620" stroke="#21262d" stroke-width="1"/>
  <text x="233.8" y="634" text-anchor="middle" fill="#7d8590" font-size="9">100</text>
  <line x1="328.1" y1="370" x2="328.1" y2="620" stroke="#21262d" stroke-width="1"/>
  <text x="328.1" y="634" text-anchor="middle" fill="#7d8590" font-size="9">200</text>
  <line x1="452.8" y1="370" x2="452.8" y2="620" stroke="#21262d" stroke-width="1"/>
  <text x="452.8" y="634" text-anchor="middle" fill="#7d8590" font-size="9">500</text>
  <line x1="547.1" y1="370" x2="547.1" y2="620" stroke="#21262d" stroke-width="1"/>
  <text x="547.1" y="634" text-anchor="middle" fill="#7d8590" font-size="9">1000</text>
  <line x1="641.4" y1="370" x2="641.4" y2="620" stroke="#21262d" stroke-width="1"/>
  <text x="641.4" y="634" text-anchor="middle" fill="#7d8590" font-size="9">2000</text>
  <line x1="766.1" y1="370" x2="766.1" y2="620" stroke="#21262d" stroke-width="1"/>
  <text x="766.1" y="634" text-anchor="middle" fill="#7d8590" font-size="9">5000</text>
  <text x="450.0" y="648" text-anchor="middle" fill="#7d8590" font-size="10">encode MB/s (log scale)</text>
  <path d="M413.5,572.9L407.8,567.4L401.2,559.7L393.4,548.8L385.8,537.0L377.5,525.6L367.0,513.6L360.2,445.1L333.8,425.5L296.8,410.9L293.3,407.3" fill="none" stroke="#60a5fa" stroke-width="1.5" stroke-opacity="0.6"/>
  <circle cx="413.5" cy="572.9" r="3.5" fill="#60a5fa" stroke="#0d1117" stroke-width="1"/>
  <text x="419.5" y="572.9" text-anchor="start" fill="#60a5fa" font-size="8" font-weight="600">-7</text>
  <circle cx="407.8" cy="567.4" r="3.5" fill="#60a5fa" stroke="#0d1117" stroke-width="1"/>
  <circle cx="401.2" cy="559.7" r="3.5" fill="#60a5fa" stroke="#0d1117" stroke-width="1"/>
  <circle cx="393.4" cy="548.8" r="3.5" fill="#60a5fa" stroke="#0d1117" stroke-width="1"/>
  <text x="399.4" y="548.8" text-anchor="start" fill="#60a5fa" font-size="8" font-weight="600">-4</text>
  <circle cx="385.8" cy="537.0" r="3.5" fill="#60a5fa" stroke="#0d1117" stroke-width="1"/>
  <circle cx="377.5" cy="525.6" r="3.5" fill="#60a5fa" stroke="#0d1117" stroke-width="1"/>
  <circle cx="367.0" cy="513.6" r="3.5" fill="#60a5fa" stroke="#0d1117" stroke-width="1"/>
  <text x="373.0" y="513.6" text-anchor="start" fill="#60a5fa" font-size="8" font-weight="600">-1</text>
  <circle cx="360.2" cy="445.1" r="3.5" fill="#60a5fa" stroke="#0d1117" stroke-width="1"/>
  <circle cx="333.8" cy="425.5" r="3.5" fill="#60a5fa" stroke="#0d1117" stroke-width="1"/>
  <circle cx="296.8" cy="410.9" r="3.5" fill="#60a5fa" stroke="#0d1117" stroke-width="1"/>
  <text x="302.8" y="410.9" text-anchor="start" fill="#60a5fa" font-size="8" font-weight="600">3</text>
  <circle cx="293.3" cy="407.3" r="3.5" fill="#60a5fa" stroke="#0d1117" stroke-width="1"/>
  <text x="287.3" y="407.3" text-anchor="end" fill="#60a5fa" font-size="8" font-weight="600">4</text>
  <path d="M352.7,576.2L339.4,551.5L330.6,539.7L327.3,533.7L324.0,525.8L318.5,513.4L314.2,502.9L308.9,491.8L296.2,474.7L280.1,461.7L252.8,456.2L212.6,448.2" fill="none" stroke="#f87171" stroke-width="1.5" stroke-opacity="0.6"/>
  <circle cx="352.7" cy="576.2" r="3.5" fill="#f87171" stroke="#0d1117" stroke-width="1"/>
  <text x="358.7" y="576.2" text-anchor="start" fill="#f87171" font-size="8" font-weight="600">-8</text>
  <circle cx="339.4" cy="551.5" r="3.5" fill="#f87171" stroke="#0d1117" stroke-width="1"/>
  <circle cx="330.6" cy="539.7" r="3.5" fill="#f87171" stroke="#0d1117" stroke-width="1"/>
  <circle cx="327.3" cy="533.7" r="3.5" fill="#f87171" stroke="#0d1117" stroke-width="1"/>
  <text x="333.3" y="533.7" text-anchor="start" fill="#f87171" font-size="8" font-weight="600">-5</text>
  <circle cx="324.0" cy="525.8" r="3.5" fill="#f87171" stroke="#0d1117" stroke-width="1"/>
  <circle cx="318.5" cy="513.4" r="3.5" fill="#f87171" stroke="#0d1117" stroke-width="1"/>
  <circle cx="314.2" cy="502.9" r="3.5" fill="#f87171" stroke="#0d1117" stroke-width="1"/>
  <text x="320.2" y="502.9" text-anchor="start" fill="#f87171" font-size="8" font-weight="600">-2</text>
  <circle cx="308.9" cy="491.8" r="3.5" fill="#f87171" stroke="#0d1117" stroke-width="1"/>
  <circle cx="296.2" cy="474.7" r="3.5" fill="#f87171" stroke="#0d1117" stroke-width="1"/>
  <circle cx="280.1" cy="461.7" r="3.5" fill="#f87171" stroke="#0d1117" stroke-width="1"/>
  <text x="286.1" y="461.7" text-anchor="start" fill="#f87171" font-size="8" font-weight="600">2</text>
  <circle cx="252.8" cy="456.2" r="3.5" fill="#f87171" stroke="#0d1117" stroke-width="1"/>
  <circle cx="212.6" cy="448.2" r="3.5" fill="#f87171" stroke="#0d1117" stroke-width="1"/>
  <text x="218.6" y="448.2" text-anchor="start" fill="#f87171" font-size="8" font-weight="600">4</text>
  <path d="M338.0,573.0L334.7,567.5L328.0,559.8L322.2,548.8L314.7,537.2L308.0,525.9L299.5,513.9L286.4,445.5L264.1,426.1L201.0,412.4L199.1,407.6" fill="none" stroke="#f59e0b" stroke-width="1.5" stroke-opacity="0.6"/>
  <circle cx="338.0" cy="573.0" r="3.5" fill="#f59e0b" stroke="#0d1117" stroke-width="1"/>
  <text x="344.0" y="573.0" text-anchor="start" fill="#f59e0b" font-size="8" font-weight="600">-7</text>
  <circle cx="334.7" cy="567.5" r="3.5" fill="#f59e0b" stroke="#0d1117" stroke-width="1"/>
  <circle cx="328.0" cy="559.8" r="3.5" fill="#f59e0b" stroke="#0d1117" stroke-width="1"/>
  <circle cx="322.2" cy="548.8" r="3.5" fill="#f59e0b" stroke="#0d1117" stroke-width="1"/>
  <text x="328.2" y="548.8" text-anchor="start" fill="#f59e0b" font-size="8" font-weight="600">-4</text>
  <circle cx="314.7" cy="537.2" r="3.5" fill="#f59e0b" stroke="#0d1117" stroke-width="1"/>
  <circle cx="308.0" cy="525.9" r="3.5" fill="#f59e0b" stroke="#0d1117" stroke-width="1"/>
  <circle cx="299.5" cy="513.9" r="3.5" fill="#f59e0b" stroke="#0d1117" stroke-width="1"/>
  <text x="305.5" y="513.9" text-anchor="start" fill="#f59e0b" font-size="8" font-weight="600">-1</text>
  <circle cx="286.4" cy="445.5" r="3.5" fill="#f59e0b" stroke="#0d1117" stroke-width="1"/>
  <circle cx="264.1" cy="426.1" r="3.5" fill="#f59e0b" stroke="#0d1117" stroke-width="1"/>
  <circle cx="201.0" cy="412.4" r="3.5" fill="#f59e0b" stroke="#0d1117" stroke-width="1"/>
  <text x="207.0" y="412.4" text-anchor="start" fill="#f59e0b" font-size="8" font-weight="600">3</text>
  <circle cx="199.1" cy="407.6" r="3.5" fill="#f59e0b" stroke="#0d1117" stroke-width="1"/>
  <text x="193.1" y="407.6" text-anchor="end" fill="#f59e0b" font-size="8" font-weight="600">4</text>
  <path d="M310.2,576.2L302.7,551.5L293.7,539.7L290.3,533.7L286.5,525.8L281.0,513.4L276.9,502.9L271.3,491.8L251.6,474.7L239.8,461.7L216.9,456.2L180.8,448.2" fill="none" stroke="#f472b6" stroke-width="1.5" stroke-opacity="0.6"/>
  <circle cx="310.2" cy="576.2" r="3.5" fill="#f472b6" stroke="#0d1117" stroke-width="1"/>
  <text x="316.2" y="576.2" text-anchor="start" fill="#f472b6" font-size="8" font-weight="600">-8</text>
  <circle cx="302.7" cy="551.5" r="3.5" fill="#f472b6" stroke="#0d1117" stroke-width="1"/>
  <circle cx="293.7" cy="539.7" r="3.5" fill="#f472b6" stroke="#0d1117" stroke-width="1"/>
  <circle cx="290.3" cy="533.7" r="3.5" fill="#f472b6" stroke="#0d1117" stroke-width="1"/>
  <text x="296.3" y="533.7" text-anchor="start" fill="#f472b6" font-size="8" font-weight="600">-5</text>
  <circle cx="286.5" cy="525.8" r="3.5" fill="#f472b6" stroke="#0d1117" stroke-width="1"/>
  <circle cx="281.0" cy="513.4" r="3.5" fill="#f472b6" stroke="#0d1117" stroke-width="1"/>
  <circle cx="276.9" cy="502.9" r="3.5" fill="#f472b6" stroke="#0d1117" stroke-width="1"/>
  <text x="282.9" y="502.9" text-anchor="start" fill="#f472b6" font-size="8" font-weight="600">-2</text>
  <circle cx="271.3" cy="491.8" r="3.5" fill="#f472b6" stroke="#0d1117" stroke-width="1"/>
  <circle cx="251.6" cy="474.7" r="3.5" fill="#f472b6" stroke="#0d1117" stroke-width="1"/>
  <circle cx="239.8" cy="461.7" r="3.5" fill="#f472b6" stroke="#0d1117" stroke-width="1"/>
  <text x="245.8" y="461.7" text-anchor="start" fill="#f472b6" font-size="8" font-weight="600">2</text>
  <circle cx="216.9" cy="456.2" r="3.5" fill="#f472b6" stroke="#0d1117" stroke-width="1"/>
  <circle cx="180.8" cy="448.2" r="3.5" fill="#f472b6" stroke="#0d1117" stroke-width="1"/>
  <text x="186.8" y="448.2" text-anchor="start" fill="#f472b6" font-size="8" font-weight="600">4</text>
  <circle cx="135.3" cy="512.1" r="3.5" fill="#4ade80" stroke="#0d1117" stroke-width="1"/>
  <text x="141.3" y="512.1" text-anchor="start" fill="#4ade80" font-size="8" font-weight="600">L1</text>
  <circle cx="426.9" cy="579.3" r="3.5" fill="#c084fc" stroke="#0d1117" stroke-width="1"/>
  <text x="432.9" y="579.3" text-anchor="start" fill="#c084fc" font-size="8" font-weight="600">LZ4</text>
  <rect x="70" y="685" width="760" height="250" fill="#161b22" rx="4"/>
  <text x="450.0" y="677" text-anchor="middle" fill="#e6edf3" font-size="12" font-weight="600">Low compressibility</text>
  <line x1="70" y1="914.2" x2="830" y2="914.2" stroke="#21262d" stroke-width="1"/>
  <text x="64" y="914.2" text-anchor="end" dominant-baseline="middle" fill="#7d8590" font-size="9">1.00x</text>
  <line x1="70" y1="872.5" x2="830" y2="872.5" stroke="#21262d" stroke-width="1"/>
  <text x="64" y="872.5" text-anchor="end" dominant-baseline="middle" fill="#7d8590" font-size="9">1.10x</text>
  <line x1="70" y1="830.8" x2="830" y2="830.8" stroke="#21262d" stroke-width="1"/>
  <text x="64" y="830.8" text-anchor="end" dominant-baseline="middle" fill="#7d8590" font-size="9">1.20x</text>
  <line x1="70" y1="789.2" x2="830" y2="789.2" stroke="#21262d" stroke-width="1"/>
  <text x="64" y="789.2" text-anchor="end" dominant-baseline="middle" fill="#7d8590" font-size="9">1.30x</text>
  <line x1="70" y1="747.5" x2="830" y2="747.5" stroke="#21262d" stroke-width="1"/>
  <text x="64" y="747.5" text-anchor="end" dominant-baseline="middle" fill="#7d8590" font-size="9">1.40x</text>
  <line x1="70" y1="705.8" x2="830" y2="705.8" stroke="#21262d" stroke-width="1"/>
  <text x="64" y="705.8" text-anchor="end" dominant-baseline="middle" fill="#7d8590" font-size="9">1.50x</text>
  <line x1="139.5" y1="685" x2="139.5" y2="935" stroke="#21262d" stroke-width="1"/>
  <text x="139.5" y="949" text-anchor="middle" fill="#7d8590" font-size="9">50</text>
  <line x1="233.8" y1="685" x2="233.8" y2="935" stroke="#21262d" stroke-width="1"/>
  <text x="233.8" y="949" text-anchor="middle" fill="#7d8590" font-size="9">100</text>
  <line x1="328.1" y1="685" x2="328.1" y2="935" stroke="#21262d" stroke-width="1"/>
  <text x="328.1" y="949" text-anchor="middle" fill="#7d8590" font-size="9">200</text>
  <line x1="452.8" y1="685" x2="452.8" y2="935" stroke="#21262d" stroke-width="1"/>
  <text x="452.8" y="949" text-anchor="middle" fill="#7d8590" font-size="9">500</text>
  <line x1="547.1" y1="685" x2="547.1" y2="935" stroke="#21262d" stroke-width="1"/>
  <text x="547.1" y="949" text-anchor="middle" fill="#7d8590" font-size="9">1000</text>
  <line x1="641.4" y1="685" x2="641.4" y2="935" stroke="#21262d" stroke-width="1"/>
  <text x="641.4" y="949" text-anchor="middle" fill="#7d8590" font-size="9">2000</text>
  <line x1="766.1" y1="685" x2="766.1" y2="935" stroke="#21262d" stroke-width="1"/>
  <text x="766.1" y="949" text-anchor="middle" fill="#7d8590" font-size="9">5000</text>
  <text x="450.0" y="963" text-anchor="middle" fill="#7d8590" font-size="10">encode MB/s (log scale)</text>
  <path d="M611.1,904.6L598.8,900.9L595.1,901.8L583.0,899.4L569.3,897.4L553.5,894.7L526.8,892.1L417.9,828.8L347.8,806.3L235.3,767.6L224.1,742.4" fill="none" stroke="#60a5fa" stroke-width="1.5" stroke-opacity="0.6"/>
  <circle cx="611.1" cy="904.6" r="3.5" fill="#60a5fa" stroke="#0d1117" stroke-width="1"/>
  <text x="617.1" y="904.6" text-anchor="start" fill="#60a5fa" font-size="8" font-weight="600">-7</text>
  <circle cx="598.8" cy="900.9" r="3.5" fill="#60a5fa" stroke="#0d1117" stroke-width="1"/>
  <circle cx="595.1" cy="901.8" r="3.5" fill="#60a5fa" stroke="#0d1117" stroke-width="1"/>
  <circle cx="583.0" cy="899.4" r="3.5" fill="#60a5fa" stroke="#0d1117" stroke-width="1"/>
  <text x="589.0" y="899.4" text-anchor="start" fill="#60a5fa" font-size="8" font-weight="600">-4</text>
  <circle cx="569.3" cy="897.4" r="3.5" fill="#60a5fa" stroke="#0d1117" stroke-width="1"/>
  <circle cx="553.5" cy="894.7" r="3.5" fill="#60a5fa" stroke="#0d1117" stroke-width="1"/>
  <circle cx="526.8" cy="892.1" r="3.5" fill="#60a5fa" stroke="#0d1117" stroke-width="1"/>
  <text x="532.8" y="892.1" text-anchor="start" fill="#60a5fa" font-size="8" font-weight="600">-1</text>
  <circle cx="417.9" cy="828.8" r="3.5" fill="#60a5fa" stroke="#0d1117" stroke-width="1"/>
  <circle cx="347.8" cy="806.3" r="3.5" fill="#60a5fa" stroke="#0d1117" stroke-width="1"/>
  <circle cx="235.3" cy="767.6" r="3.5" fill="#60a5fa" stroke="#0d1117" stroke-width="1"/>
  <text x="241.3" y="767.6" text-anchor="start" fill="#60a5fa" font-size="8" font-weight="600">3</text>
  <circle cx="224.1" cy="742.4" r="3.5" fill="#60a5fa" stroke="#0d1117" stroke-width="1"/>
  <text x="230.1" y="742.4" text-anchor="start" fill="#60a5fa" font-size="8" font-weight="600">4</text>
  <path d="M652.8,913.3L595.5,909.7L549.3,902.9L535.1,899.3L516.5,897.3L496.3,895.2L451.8,891.5L420.7,884.7L336.7,857.8L263.0,817.1L240.2,807.1L177.9,782.7" fill="none" stroke="#f87171" stroke-width="1.5" stroke-opacity="0.6"/>
  <circle cx="652.8" cy="913.3" r="3.5" fill="#f87171" stroke="#0d1117" stroke-width="1"/>
  <text x="658.8" y="913.3" text-anchor="start" fill="#f87171" font-size="8" font-weight="600">-8</text>
  <circle cx="595.5" cy="909.7" r="3.5" fill="#f87171" stroke="#0d1117" stroke-width="1"/>
  <circle cx="549.3" cy="902.9" r="3.5" fill="#f87171" stroke="#0d1117" stroke-width="1"/>
  <circle cx="535.1" cy="899.3" r="3.5" fill="#f87171" stroke="#0d1117" stroke-width="1"/>
  <text x="541.1" y="899.3" text-anchor="start" fill="#f87171" font-size="8" font-weight="600">-5</text>
  <circle cx="516.5" cy="897.3" r="3.5" fill="#f87171" stroke="#0d1117" stroke-width="1"/>
  <circle cx="496.3" cy="895.2" r="3.5" fill="#f87171" stroke="#0d1117" stroke-width="1"/>
  <circle cx="451.8" cy="891.5" r="3.5" fill="#f87171" stroke="#0d1117" stroke-width="1"/>
  <text x="457.8" y="891.5" text-anchor="start" fill="#f87171" font-size="8" font-weight="600">-2</text>
  <circle cx="420.7" cy="884.7" r="3.5" fill="#f87171" stroke="#0d1117" stroke-width="1"/>
  <circle cx="336.7" cy="857.8" r="3.5" fill="#f87171" stroke="#0d1117" stroke-width="1"/>
  <circle cx="263.0" cy="817.1" r="3.5" fill="#f87171" stroke="#0d1117" stroke-width="1"/>
  <text x="269.0" y="817.1" text-anchor="start" fill="#f87171" font-size="8" font-weight="600">2</text>
  <circle cx="240.2" cy="807.1" r="3.5" fill="#f87171" stroke="#0d1117" stroke-width="1"/>
  <circle cx="177.9" cy="782.7" r="3.5" fill="#f87171" stroke="#0d1117" stroke-width="1"/>
  <text x="183.9" y="782.7" text-anchor="start" fill="#f87171" font-size="8" font-weight="600">4</text>
  <path d="M547.7,904.5L536.0,900.9L526.4,901.7L520.2,899.3L500.7,897.2L487.9,894.5L469.9,892.0L310.3,828.8L266.4,806.3L147.0,776.3L136.3,752.6" fill="none" stroke="#f59e0b" stroke-width="1.5" stroke-opacity="0.6"/>
  <circle cx="547.7" cy="904.5" r="3.5" fill="#f59e0b" stroke="#0d1117" stroke-width="1"/>
  <text x="553.7" y="904.5" text-anchor="start" fill="#f59e0b" font-size="8" font-weight="600">-7</text>
  <circle cx="536.0" cy="900.9" r="3.5" fill="#f59e0b" stroke="#0d1117" stroke-width="1"/>
  <circle cx="526.4" cy="901.7" r="3.5" fill="#f59e0b" stroke="#0d1117" stroke-width="1"/>
  <circle cx="520.2" cy="899.3" r="3.5" fill="#f59e0b" stroke="#0d1117" stroke-width="1"/>
  <text x="526.2" y="899.3" text-anchor="start" fill="#f59e0b" font-size="8" font-weight="600">-4</text>
  <circle cx="500.7" cy="897.2" r="3.5" fill="#f59e0b" stroke="#0d1117" stroke-width="1"/>
  <circle cx="487.9" cy="894.5" r="3.5" fill="#f59e0b" stroke="#0d1117" stroke-width="1"/>
  <circle cx="469.9" cy="892.0" r="3.5" fill="#f59e0b" stroke="#0d1117" stroke-width="1"/>
  <text x="475.9" y="892.0" text-anchor="start" fill="#f59e0b" font-size="8" font-weight="600">-1</text>
  <circle cx="310.3" cy="828.8" r="3.5" fill="#f59e0b" stroke="#0d1117" stroke-width="1"/>
  <circle cx="266.4" cy="806.3" r="3.5" fill="#f59e0b" stroke="#0d1117" stroke-width="1"/>
  <circle cx="147.0" cy="776.3" r="3.5" fill="#f59e0b" stroke="#0d1117" stroke-width="1"/>
  <text x="153.0" y="776.3" text-anchor="start" fill="#f59e0b" font-size="8" font-weight="600">3</text>
  <circle cx="136.3" cy="752.6" r="3.5" fill="#f59e0b" stroke="#0d1117" stroke-width="1"/>
  <text x="142.3" y="752.6" text-anchor="start" fill="#f59e0b" font-size="8" font-weight="600">4</text>
  <path d="M618.1,913.3L563.3,909.7L515.3,902.9L500.9,899.3L480.6,897.3L459.8,895.2L414.3,891.5L382.0,884.7L288.6,857.8L226.4,817.1L204.0,807.1L133.1,782.7" fill="none" stroke="#f472b6" stroke-width="1.5" stroke-opacity="0.6"/>
  <circle cx="618.1" cy="913.3" r="3.5" fill="#f472b6" stroke="#0d1117" stroke-width="1"/>
  <text x="624.1" y="913.3" text-anchor="start" fill="#f472b6" font-size="8" font-weight="600">-8</text>
  <circle cx="563.3" cy="909.7" r="3.5" fill="#f472b6" stroke="#0d1117" stroke-width="1"/>
  <circle cx="515.3" cy="902.9" r="3.5" fill="#f472b6" stroke="#0d1117" stroke-width="1"/>
  <circle cx="500.9" cy="899.3" r="3.5" fill="#f472b6" stroke="#0d1117" stroke-width="1"/>
  <text x="506.9" y="899.3" text-anchor="start" fill="#f472b6" font-size="8" font-weight="600">-5</text>
  <circle cx="480.6" cy="897.3" r="3.5" fill="#f472b6" stroke="#0d1117" stroke-width="1"/>
  <circle cx="459.8" cy="895.2" r="3.5" fill="#f472b6" stroke="#0d1117" stroke-width="1"/>
  <circle cx="414.3" cy="891.5" r="3.5" fill="#f472b6" stroke="#0d1117" stroke-width="1"/>
  <text x="420.3" y="891.5" text-anchor="start" fill="#f472b6" font-size="8" font-weight="600">-2</text>
  <circle cx="382.0" cy="884.7" r="3.5" fill="#f472b6" stroke="#0d1117" stroke-width="1"/>
  <circle cx="288.6" cy="857.8" r="3.5" fill="#f472b6" stroke="#0d1117" stroke-width="1"/>
  <circle cx="226.4" cy="817.1" r="3.5" fill="#f472b6" stroke="#0d1117" stroke-width="1"/>
  <text x="232.4" y="817.1" text-anchor="start" fill="#f472b6" font-size="8" font-weight="600">2</text>
  <circle cx="204.0" cy="807.1" r="3.5" fill="#f472b6" stroke="#0d1117" stroke-width="1"/>
  <circle cx="133.1" cy="782.7" r="3.5" fill="#f472b6" stroke="#0d1117" stroke-width="1"/>
  <text x="139.1" y="782.7" text-anchor="start" fill="#f472b6" font-size="8" font-weight="600">4</text>
  <circle cx="88.1" cy="842.5" r="3.5" fill="#4ade80" stroke="#0d1117" stroke-width="1"/>
  <text x="94.1" y="842.5" text-anchor="start" fill="#4ade80" font-size="8" font-weight="600">L1</text>
  <circle cx="712.6" cy="911.7" r="3.5" fill="#c084fc" stroke="#0d1117" stroke-width="1"/>
  <text x="718.6" y="911.7" text-anchor="start" fill="#c084fc" font-size="8" font-weight="600">LZ4</text>
  <text x="16" y="495.0" text-anchor="middle" fill="#e6edf3" font-size="11" font-weight="600" transform="rotate(-90,16,495.0)">compression ratio</text>
  <circle cx="101" cy="975" r="4" fill="#60a5fa"/>
  <text x="109" y="978.5" fill="#e6edf3" font-size="10" font-weight="500">libzstd v1.5.7 (C)</text>
  <circle cx="257" cy="975" r="4" fill="#f87171"/>
  <text x="265" y="978.5" fill="#e6edf3" font-size="10" font-weight="500">zrip (safe SIMD + encapsulated unsafe)</text>
  <circle cx="536" cy="975" r="4" fill="#f59e0b"/>
  <text x="544" y="978.5" fill="#e6edf3" font-size="10" font-weight="500">structured-zstd v0.0.49 (unsafe)</text>
  <circle cx="61" cy="993" r="4" fill="#f472b6"/>
  <text x="69" y="996.5" fill="#e6edf3" font-size="10" font-weight="500">zrip paranoid (safe SIMD, no unsafe)</text>
  <circle cx="328" cy="993" r="4" fill="#4ade80"/>
  <text x="336" y="996.5" fill="#e6edf3" font-size="10" font-weight="500">ruzstd v0.8.3 (safe)</text>
  <circle cx="496" cy="993" r="4" fill="#c084fc"/>
  <text x="504" y="996.5" fill="#e6edf3" font-size="10" font-weight="500">lz4rip 0.8.5 (encapsulated unsafe, Rust, LZ4)</text>
</svg>
