<svg xmlns="http://www.w3.org/2000/svg" viewBox="0 0 850 790" font-family="system-ui, -apple-system, sans-serif">
  <rect width="850" height="790" fill="#0d1117"/>
  <text x="425.0" y="18" text-anchor="middle" fill="#e6edf3" font-size="14" font-weight="700">Encode Speed vs Compression Ratio (geomean across corpus)</text>
  <text x="425.0" y="34" text-anchor="middle" fill="#7d8590" font-size="10">Intel Core i7-8700B @ 3.20GHz, performance governor, turbo off</text>
  <rect x="70" y="55" width="760" height="300" fill="#161b22" rx="4"/>
  <text x="450.0" y="47" text-anchor="middle" fill="#e6edf3" font-size="12" font-weight="600">Compressible</text>
  <line x1="70" y1="305.0" x2="830" y2="305.0" stroke="#21262d" stroke-width="1"/>
  <text x="64" y="305.0" text-anchor="end" dominant-baseline="middle" fill="#7d8590" font-size="9">2.50x</text>
  <line x1="70" y1="255.0" x2="830" y2="255.0" stroke="#21262d" stroke-width="1"/>
  <text x="64" y="255.0" text-anchor="end" dominant-baseline="middle" fill="#7d8590" font-size="9">3.00x</text>
  <line x1="70" y1="205.0" x2="830" y2="205.0" stroke="#21262d" stroke-width="1"/>
  <text x="64" y="205.0" text-anchor="end" dominant-baseline="middle" fill="#7d8590" font-size="9">3.50x</text>
  <line x1="70" y1="155.0" x2="830" y2="155.0" stroke="#21262d" stroke-width="1"/>
  <text x="64" y="155.0" text-anchor="end" dominant-baseline="middle" fill="#7d8590" font-size="9">4.00x</text>
  <line x1="70" y1="105.0" x2="830" y2="105.0" stroke="#21262d" stroke-width="1"/>
  <text x="64" y="105.0" text-anchor="end" dominant-baseline="middle" fill="#7d8590" font-size="9">4.50x</text>
  <line x1="162.5" y1="55" x2="162.5" y2="355" stroke="#21262d" stroke-width="1"/>
  <text x="162.5" y="369" text-anchor="middle" fill="#7d8590" font-size="9">50</text>
  <line x1="287.9" y1="55" x2="287.9" y2="355" stroke="#21262d" stroke-width="1"/>
  <text x="287.9" y="369" text-anchor="middle" fill="#7d8590" font-size="9">100</text>
  <line x1="413.3" y1="55" x2="413.3" y2="355" stroke="#21262d" stroke-width="1"/>
  <text x="413.3" y="369" text-anchor="middle" fill="#7d8590" font-size="9">200</text>
  <line x1="579.2" y1="55" x2="579.2" y2="355" stroke="#21262d" stroke-width="1"/>
  <text x="579.2" y="369" text-anchor="middle" fill="#7d8590" font-size="9">500</text>
  <line x1="704.6" y1="55" x2="704.6" y2="355" stroke="#21262d" stroke-width="1"/>
  <text x="704.6" y="369" text-anchor="middle" fill="#7d8590" font-size="9">1000</text>
  <text x="450.0" y="383" text-anchor="middle" fill="#7d8590" font-size="10">encode MB/s (log scale)</text>
  <path d="M571.6,295.8L562.7,284.2L556.4,271.8L548.4,254.4L541.1,235.1L532.8,215.1L521.9,198.1L513.1,122.2L485.1,107.1L444.3,91.8L439.5,89.7" fill="none" stroke="#60a5fa" stroke-width="1.5" stroke-opacity="0.6"/>
  <circle cx="571.6" cy="295.8" r="3.5" fill="#60a5fa" stroke="#0d1117" stroke-width="1"/>
  <text x="577.6" y="295.8" text-anchor="start" fill="#60a5fa" font-size="8" font-weight="600">-7</text>
  <circle cx="562.7" cy="284.2" r="3.5" fill="#60a5fa" stroke="#0d1117" stroke-width="1"/>
  <circle cx="556.4" cy="271.8" r="3.5" fill="#60a5fa" stroke="#0d1117" stroke-width="1"/>
  <circle cx="548.4" cy="254.4" r="3.5" fill="#60a5fa" stroke="#0d1117" stroke-width="1"/>
  <text x="554.4" y="254.4" text-anchor="start" fill="#60a5fa" font-size="8" font-weight="600">-4</text>
  <circle cx="541.1" cy="235.1" r="3.5" fill="#60a5fa" stroke="#0d1117" stroke-width="1"/>
  <circle cx="532.8" cy="215.1" r="3.5" fill="#60a5fa" stroke="#0d1117" stroke-width="1"/>
  <circle cx="521.9" cy="198.1" r="3.5" fill="#60a5fa" stroke="#0d1117" stroke-width="1"/>
  <text x="527.9" y="198.1" text-anchor="start" fill="#60a5fa" font-size="8" font-weight="600">-1</text>
  <circle cx="513.1" cy="122.2" r="3.5" fill="#60a5fa" stroke="#0d1117" stroke-width="1"/>
  <circle cx="485.1" cy="107.1" r="3.5" fill="#60a5fa" stroke="#0d1117" stroke-width="1"/>
  <circle cx="444.3" cy="91.8" r="3.5" fill="#60a5fa" stroke="#0d1117" stroke-width="1"/>
  <text x="450.3" y="91.8" text-anchor="start" fill="#60a5fa" font-size="8" font-weight="600">3</text>
  <circle cx="439.5" cy="89.7" r="3.5" fill="#60a5fa" stroke="#0d1117" stroke-width="1"/>
  <text x="433.5" y="89.7" text-anchor="end" fill="#60a5fa" font-size="8" font-weight="600">4</text>
  <path d="M503.3,309.2L466.9,267.6L460.7,257.8L459.3,245.5L454.3,230.0L450.9,212.4L447.4,193.0L444.9,166.5L434.2,158.5L390.0,147.1L387.1,143.6" fill="none" stroke="#f87171" stroke-width="1.5" stroke-opacity="0.6"/>
  <circle cx="503.3" cy="309.2" r="3.5" fill="#f87171" stroke="#0d1117" stroke-width="1"/>
  <text x="509.3" y="309.2" text-anchor="start" fill="#f87171" font-size="8" font-weight="600">-7</text>
  <circle cx="466.9" cy="267.6" r="3.5" fill="#f87171" stroke="#0d1117" stroke-width="1"/>
  <circle cx="460.7" cy="257.8" r="3.5" fill="#f87171" stroke="#0d1117" stroke-width="1"/>
  <circle cx="459.3" cy="245.5" r="3.5" fill="#f87171" stroke="#0d1117" stroke-width="1"/>
  <text x="465.3" y="245.5" text-anchor="start" fill="#f87171" font-size="8" font-weight="600">-4</text>
  <circle cx="454.3" cy="230.0" r="3.5" fill="#f87171" stroke="#0d1117" stroke-width="1"/>
  <circle cx="450.9" cy="212.4" r="3.5" fill="#f87171" stroke="#0d1117" stroke-width="1"/>
  <circle cx="447.4" cy="193.0" r="3.5" fill="#f87171" stroke="#0d1117" stroke-width="1"/>
  <text x="453.4" y="193.0" text-anchor="start" fill="#f87171" font-size="8" font-weight="600">-1</text>
  <circle cx="444.9" cy="166.5" r="3.5" fill="#f87171" stroke="#0d1117" stroke-width="1"/>
  <circle cx="434.2" cy="158.5" r="3.5" fill="#f87171" stroke="#0d1117" stroke-width="1"/>
  <circle cx="390.0" cy="147.1" r="3.5" fill="#f87171" stroke="#0d1117" stroke-width="1"/>
  <text x="396.0" y="147.1" text-anchor="start" fill="#f87171" font-size="8" font-weight="600">3</text>
  <circle cx="387.1" cy="143.6" r="3.5" fill="#f87171" stroke="#0d1117" stroke-width="1"/>
  <text x="381.1" y="143.6" text-anchor="end" fill="#f87171" font-size="8" font-weight="600">4</text>
  <path d="M437.4,211.3L434.1,201.4L430.1,189.8L426.2,176.0L420.9,160.1L415.8,145.1L406.7,135.0L402.7,123.0L385.0,106.8L300.2,101.2L299.8,98.2" fill="none" stroke="#f59e0b" stroke-width="1.5" stroke-opacity="0.6"/>
  <circle cx="437.4" cy="211.3" r="3.5" fill="#f59e0b" stroke="#0d1117" stroke-width="1"/>
  <text x="443.4" y="211.3" text-anchor="start" fill="#f59e0b" font-size="8" font-weight="600">-7</text>
  <circle cx="434.1" cy="201.4" r="3.5" fill="#f59e0b" stroke="#0d1117" stroke-width="1"/>
  <circle cx="430.1" cy="189.8" r="3.5" fill="#f59e0b" stroke="#0d1117" stroke-width="1"/>
  <circle cx="426.2" cy="176.0" r="3.5" fill="#f59e0b" stroke="#0d1117" stroke-width="1"/>
  <text x="432.2" y="176.0" text-anchor="start" fill="#f59e0b" font-size="8" font-weight="600">-4</text>
  <circle cx="420.9" cy="160.1" r="3.5" fill="#f59e0b" stroke="#0d1117" stroke-width="1"/>
  <circle cx="415.8" cy="145.1" r="3.5" fill="#f59e0b" stroke="#0d1117" stroke-width="1"/>
  <circle cx="406.7" cy="135.0" r="3.5" fill="#f59e0b" stroke="#0d1117" stroke-width="1"/>
  <text x="412.7" y="135.0" text-anchor="start" fill="#f59e0b" font-size="8" font-weight="600">-1</text>
  <circle cx="402.7" cy="123.0" r="3.5" fill="#f59e0b" stroke="#0d1117" stroke-width="1"/>
  <circle cx="385.0" cy="106.8" r="3.5" fill="#f59e0b" stroke="#0d1117" stroke-width="1"/>
  <circle cx="300.2" cy="101.2" r="3.5" fill="#f59e0b" stroke="#0d1117" stroke-width="1"/>
  <text x="306.2" y="101.2" text-anchor="start" fill="#f59e0b" font-size="8" font-weight="600">3</text>
  <circle cx="299.8" cy="98.2" r="3.5" fill="#f59e0b" stroke="#0d1117" stroke-width="1"/>
  <text x="293.8" y="98.2" text-anchor="end" fill="#f59e0b" font-size="8" font-weight="600">4</text>
  <circle cx="185.2" cy="238.3" r="3.5" fill="#4ade80" stroke="#0d1117" stroke-width="1"/>
  <text x="191.2" y="238.3" text-anchor="start" fill="#4ade80" font-size="8" font-weight="600">L1</text>
  <circle cx="569.6" cy="279.3" r="3.5" fill="#c084fc" stroke="#0d1117" stroke-width="1"/>
  <text x="575.6" y="279.3" text-anchor="start" fill="#c084fc" font-size="8" font-weight="600">LZ4</text>
  <rect x="70" y="410" width="760" height="300" fill="#161b22" rx="4"/>
  <text x="450.0" y="402" text-anchor="middle" fill="#e6edf3" font-size="12" font-weight="600">Incompressible</text>
  <line x1="70" y1="650.0" x2="830" y2="650.0" stroke="#21262d" stroke-width="1"/>
  <text x="64" y="650.0" text-anchor="end" dominant-baseline="middle" fill="#7d8590" font-size="9">1.20x</text>
  <line x1="70" y1="590.0" x2="830" y2="590.0" stroke="#21262d" stroke-width="1"/>
  <text x="64" y="590.0" text-anchor="end" dominant-baseline="middle" fill="#7d8590" font-size="9">1.40x</text>
  <line x1="70" y1="530.0" x2="830" y2="530.0" stroke="#21262d" stroke-width="1"/>
  <text x="64" y="530.0" text-anchor="end" dominant-baseline="middle" fill="#7d8590" font-size="9">1.60x</text>
  <line x1="70" y1="470.0" x2="830" y2="470.0" stroke="#21262d" stroke-width="1"/>
  <text x="64" y="470.0" text-anchor="end" dominant-baseline="middle" fill="#7d8590" font-size="9">1.80x</text>
  <line x1="162.5" y1="410" x2="162.5" y2="710" stroke="#21262d" stroke-width="1"/>
  <text x="162.5" y="724" text-anchor="middle" fill="#7d8590" font-size="9">50</text>
  <line x1="287.9" y1="410" x2="287.9" y2="710" stroke="#21262d" stroke-width="1"/>
  <text x="287.9" y="724" text-anchor="middle" fill="#7d8590" font-size="9">100</text>
  <line x1="413.3" y1="410" x2="413.3" y2="710" stroke="#21262d" stroke-width="1"/>
  <text x="413.3" y="724" text-anchor="middle" fill="#7d8590" font-size="9">200</text>
  <line x1="579.2" y1="410" x2="579.2" y2="710" stroke="#21262d" stroke-width="1"/>
  <text x="579.2" y="724" text-anchor="middle" fill="#7d8590" font-size="9">500</text>
  <line x1="704.6" y1="410" x2="704.6" y2="710" stroke="#21262d" stroke-width="1"/>
  <text x="704.6" y="724" text-anchor="middle" fill="#7d8590" font-size="9">1000</text>
  <text x="450.0" y="738" text-anchor="middle" fill="#7d8590" font-size="10">encode MB/s (log scale)</text>
  <path d="M714.3,639.5L702.0,636.8L696.3,635.3L683.0,632.8L667.3,629.0L649.1,625.8L618.8,621.3L513.7,542.0L431.7,518.4L308.1,492.4L295.7,474.0" fill="none" stroke="#60a5fa" stroke-width="1.5" stroke-opacity="0.6"/>
  <circle cx="714.3" cy="639.5" r="3.5" fill="#60a5fa" stroke="#0d1117" stroke-width="1"/>
  <text x="720.3" y="639.5" text-anchor="start" fill="#60a5fa" font-size="8" font-weight="600">-7</text>
  <circle cx="702.0" cy="636.8" r="3.5" fill="#60a5fa" stroke="#0d1117" stroke-width="1"/>
  <circle cx="696.3" cy="635.3" r="3.5" fill="#60a5fa" stroke="#0d1117" stroke-width="1"/>
  <circle cx="683.0" cy="632.8" r="3.5" fill="#60a5fa" stroke="#0d1117" stroke-width="1"/>
  <text x="689.0" y="632.8" text-anchor="start" fill="#60a5fa" font-size="8" font-weight="600">-4</text>
  <circle cx="667.3" cy="629.0" r="3.5" fill="#60a5fa" stroke="#0d1117" stroke-width="1"/>
  <circle cx="649.1" cy="625.8" r="3.5" fill="#60a5fa" stroke="#0d1117" stroke-width="1"/>
  <circle cx="618.8" cy="621.3" r="3.5" fill="#60a5fa" stroke="#0d1117" stroke-width="1"/>
  <text x="624.8" y="621.3" text-anchor="start" fill="#60a5fa" font-size="8" font-weight="600">-1</text>
  <circle cx="513.7" cy="542.0" r="3.5" fill="#60a5fa" stroke="#0d1117" stroke-width="1"/>
  <circle cx="431.7" cy="518.4" r="3.5" fill="#60a5fa" stroke="#0d1117" stroke-width="1"/>
  <circle cx="308.1" cy="492.4" r="3.5" fill="#60a5fa" stroke="#0d1117" stroke-width="1"/>
  <text x="314.1" y="492.4" text-anchor="start" fill="#60a5fa" font-size="8" font-weight="600">3</text>
  <circle cx="295.7" cy="474.0" r="3.5" fill="#60a5fa" stroke="#0d1117" stroke-width="1"/>
  <text x="301.7" y="474.0" text-anchor="start" fill="#60a5fa" font-size="8" font-weight="600">4</text>
  <path d="M618.0,639.9L571.8,604.9L556.6,603.4L542.2,603.5L516.4,598.6L496.6,594.4L472.3,590.7L410.7,570.1L353.8,544.0L311.2,538.4L305.2,526.2" fill="none" stroke="#f87171" stroke-width="1.5" stroke-opacity="0.6"/>
  <circle cx="618.0" cy="639.9" r="3.5" fill="#f87171" stroke="#0d1117" stroke-width="1"/>
  <text x="624.0" y="639.9" text-anchor="start" fill="#f87171" font-size="8" font-weight="600">-7</text>
  <circle cx="571.8" cy="604.9" r="3.5" fill="#f87171" stroke="#0d1117" stroke-width="1"/>
  <circle cx="556.6" cy="603.4" r="3.5" fill="#f87171" stroke="#0d1117" stroke-width="1"/>
  <circle cx="542.2" cy="603.5" r="3.5" fill="#f87171" stroke="#0d1117" stroke-width="1"/>
  <text x="548.2" y="603.5" text-anchor="start" fill="#f87171" font-size="8" font-weight="600">-4</text>
  <circle cx="516.4" cy="598.6" r="3.5" fill="#f87171" stroke="#0d1117" stroke-width="1"/>
  <circle cx="496.6" cy="594.4" r="3.5" fill="#f87171" stroke="#0d1117" stroke-width="1"/>
  <circle cx="472.3" cy="590.7" r="3.5" fill="#f87171" stroke="#0d1117" stroke-width="1"/>
  <text x="478.3" y="590.7" text-anchor="start" fill="#f87171" font-size="8" font-weight="600">-1</text>
  <circle cx="410.7" cy="570.1" r="3.5" fill="#f87171" stroke="#0d1117" stroke-width="1"/>
  <circle cx="353.8" cy="544.0" r="3.5" fill="#f87171" stroke="#0d1117" stroke-width="1"/>
  <circle cx="311.2" cy="538.4" r="3.5" fill="#f87171" stroke="#0d1117" stroke-width="1"/>
  <text x="317.2" y="538.4" text-anchor="start" fill="#f87171" font-size="8" font-weight="600">3</text>
  <circle cx="305.2" cy="526.2" r="3.5" fill="#f87171" stroke="#0d1117" stroke-width="1"/>
  <text x="311.2" y="526.2" text-anchor="start" fill="#f87171" font-size="8" font-weight="600">4</text>
  <path d="M428.5,558.7L427.6,558.6L423.5,557.2L419.4,555.3L412.7,552.6L406.7,551.4L394.5,548.2L385.7,542.0L331.3,518.4L199.6,500.4L170.1,479.7" fill="none" stroke="#f59e0b" stroke-width="1.5" stroke-opacity="0.6"/>
  <circle cx="428.5" cy="558.7" r="3.5" fill="#f59e0b" stroke="#0d1117" stroke-width="1"/>
  <text x="434.5" y="558.7" text-anchor="start" fill="#f59e0b" font-size="8" font-weight="600">-7</text>
  <circle cx="427.6" cy="558.6" r="3.5" fill="#f59e0b" stroke="#0d1117" stroke-width="1"/>
  <circle cx="423.5" cy="557.2" r="3.5" fill="#f59e0b" stroke="#0d1117" stroke-width="1"/>
  <circle cx="419.4" cy="555.3" r="3.5" fill="#f59e0b" stroke="#0d1117" stroke-width="1"/>
  <text x="413.4" y="555.3" text-anchor="end" fill="#f59e0b" font-size="8" font-weight="600">-4</text>
  <circle cx="412.7" cy="552.6" r="3.5" fill="#f59e0b" stroke="#0d1117" stroke-width="1"/>
  <circle cx="406.7" cy="551.4" r="3.5" fill="#f59e0b" stroke="#0d1117" stroke-width="1"/>
  <circle cx="394.5" cy="548.2" r="3.5" fill="#f59e0b" stroke="#0d1117" stroke-width="1"/>
  <text x="388.5" y="548.2" text-anchor="end" fill="#f59e0b" font-size="8" font-weight="600">-1</text>
  <circle cx="385.7" cy="542.0" r="3.5" fill="#f59e0b" stroke="#0d1117" stroke-width="1"/>
  <circle cx="331.3" cy="518.4" r="3.5" fill="#f59e0b" stroke="#0d1117" stroke-width="1"/>
  <circle cx="199.6" cy="500.4" r="3.5" fill="#f59e0b" stroke="#0d1117" stroke-width="1"/>
  <text x="205.6" y="500.4" text-anchor="start" fill="#f59e0b" font-size="8" font-weight="600">3</text>
  <circle cx="170.1" cy="479.7" r="3.5" fill="#f59e0b" stroke="#0d1117" stroke-width="1"/>
  <text x="176.1" y="479.7" text-anchor="start" fill="#f59e0b" font-size="8" font-weight="600">4</text>
  <circle cx="117.5" cy="588.4" r="3.5" fill="#4ade80" stroke="#0d1117" stroke-width="1"/>
  <text x="123.5" y="588.4" text-anchor="start" fill="#4ade80" font-size="8" font-weight="600">L1</text>
  <circle cx="766.9" cy="642.2" r="3.5" fill="#c084fc" stroke="#0d1117" stroke-width="1"/>
  <text x="772.9" y="642.2" text-anchor="start" fill="#c084fc" font-size="8" font-weight="600">LZ4</text>
  <text x="16" y="382.5" text-anchor="middle" fill="#e6edf3" font-size="11" font-weight="600" transform="rotate(-90,16,382.5)">compression ratio</text>
  <circle cx="153" cy="750" r="4" fill="#60a5fa"/>
  <text x="161" y="753.5" fill="#e6edf3" font-size="10" font-weight="500">C zstd 1.5.7 (libzstd)</text>
  <circle cx="325" cy="750" r="4" fill="#f87171"/>
  <text x="333" y="753.5" fill="#e6edf3" font-size="10" font-weight="500">zrip (safe Rust)</text>
  <circle cx="460" cy="750" r="4" fill="#f59e0b"/>
  <text x="468" y="753.5" fill="#e6edf3" font-size="10" font-weight="500">structured-zstd 0.0.37 (unsafe Rust)</text>
  <circle cx="236" cy="768" r="4" fill="#4ade80"/>
  <text x="244" y="771.5" fill="#e6edf3" font-size="10" font-weight="500">ruzstd 0.8.2 (safe Rust)</text>
  <circle cx="420" cy="768" r="4" fill="#c084fc"/>
  <text x="428" y="771.5" fill="#e6edf3" font-size="10" font-weight="500">lz4rip 0.3.1 (safe Rust, LZ4)</text>
</svg>
