<svg viewBox="0 0 850 1106" xmlns="http://www.w3.org/2000/svg" font-family="system-ui, -apple-system, sans-serif">
<rect x="0" y="0" width="850" height="1106" opacity="1" fill="#0D1117" stroke="none"/>
<text x="425" y="18" dy="0.5ex" text-anchor="middle" font-family="sans-serif" font-size="12.096774193548388" opacity="1" fill="#E6EDF3" font-weight="bold">
12-file Silesia: Encode Speed vs Compression Ratio
</text>
<text x="425" y="36" dy="0.5ex" text-anchor="middle" font-family="sans-serif" font-size="8.870967741935484" opacity="1" fill="#7D8590">
Linux VM on a 2018 Mac Mini, Intel Core i7-8700B @ 3.20GHz, 6 cores, performance governor, turbo off
</text>
<rect x="70" y="66" width="760" height="250" opacity="1" fill="#161B22" stroke="none"/>
<text x="450" y="53" dy="0.5ex" text-anchor="middle" font-family="sans-serif" font-size="10.483870967741936" opacity="1" fill="#E6EDF3" font-weight="bold">
High compressibility
</text>
<polyline fill="none" opacity="1" stroke="#21262D" stroke-width="1" points="137,66 137,316 "/>
<text x="137" y="332" dy="0.5ex" text-anchor="middle" font-family="sans-serif" font-size="8.064516129032258" opacity="1" fill="#7D8590">
50
</text>
<polyline fill="none" opacity="1" stroke="#21262D" stroke-width="1" points="228,66 228,316 "/>
<text x="228" y="332" dy="0.5ex" text-anchor="middle" font-family="sans-serif" font-size="8.064516129032258" opacity="1" fill="#7D8590">
100
</text>
<polyline fill="none" opacity="1" stroke="#21262D" stroke-width="1" points="318,66 318,316 "/>
<text x="318" y="332" dy="0.5ex" text-anchor="middle" font-family="sans-serif" font-size="8.064516129032258" opacity="1" fill="#7D8590">
200
</text>
<polyline fill="none" opacity="1" stroke="#21262D" stroke-width="1" points="438,66 438,316 "/>
<text x="438" y="332" dy="0.5ex" text-anchor="middle" font-family="sans-serif" font-size="8.064516129032258" opacity="1" fill="#7D8590">
500
</text>
<polyline fill="none" opacity="1" stroke="#21262D" stroke-width="1" points="529,66 529,316 "/>
<text x="529" y="332" dy="0.5ex" text-anchor="middle" font-family="sans-serif" font-size="8.064516129032258" opacity="1" fill="#7D8590">
1000
</text>
<polyline fill="none" opacity="1" stroke="#21262D" stroke-width="1" points="619,66 619,316 "/>
<text x="619" y="332" dy="0.5ex" text-anchor="middle" font-family="sans-serif" font-size="8.064516129032258" opacity="1" fill="#7D8590">
2000
</text>
<polyline fill="none" opacity="1" stroke="#21262D" stroke-width="1" points="739,66 739,316 "/>
<text x="739" y="332" dy="0.5ex" text-anchor="middle" font-family="sans-serif" font-size="8.064516129032258" opacity="1" fill="#7D8590">
5000
</text>
<polyline fill="none" opacity="1" stroke="#21262D" stroke-width="1" points="830,66 830,316 "/>
<text x="830" y="332" dy="0.5ex" text-anchor="middle" font-family="sans-serif" font-size="8.064516129032258" opacity="1" fill="#7D8590">
10000
</text>
<polyline fill="none" opacity="1" stroke="#21262D" stroke-width="1" points="70,293 830,293 "/>
<text x="62" y="293" dy="0.5ex" text-anchor="end" font-family="sans-serif" font-size="8.870967741935484" opacity="1" fill="#7D8590">
3.00x
</text>
<polyline fill="none" opacity="1" stroke="#21262D" stroke-width="1" points="70,248 830,248 "/>
<text x="62" y="248" dy="0.5ex" text-anchor="end" font-family="sans-serif" font-size="8.870967741935484" opacity="1" fill="#7D8590">
4.00x
</text>
<polyline fill="none" opacity="1" stroke="#21262D" stroke-width="1" points="70,202 830,202 "/>
<text x="62" y="202" dy="0.5ex" text-anchor="end" font-family="sans-serif" font-size="8.870967741935484" opacity="1" fill="#7D8590">
5.00x
</text>
<polyline fill="none" opacity="1" stroke="#21262D" stroke-width="1" points="70,157 830,157 "/>
<text x="62" y="157" dy="0.5ex" text-anchor="end" font-family="sans-serif" font-size="8.870967741935484" opacity="1" fill="#7D8590">
6.00x
</text>
<polyline fill="none" opacity="1" stroke="#21262D" stroke-width="1" points="70,111 830,111 "/>
<text x="62" y="111" dy="0.5ex" text-anchor="end" font-family="sans-serif" font-size="8.870967741935484" opacity="1" fill="#7D8590">
7.00x
</text>
<polyline fill="none" opacity="1" stroke="#21262D" stroke-width="1" points="70,66 830,66 "/>
<text x="62" y="66" dy="0.5ex" text-anchor="end" font-family="sans-serif" font-size="8.870967741935484" opacity="1" fill="#7D8590">
8.00x
</text>
<polyline fill="none" opacity="1" stroke="#30363D" stroke-width="2" points="70,316 830,316 "/>
<polyline fill="none" opacity="1" stroke="#60A5FA" stroke-width="1" points="470,259 465,248 461,237 456,221 452,201 447,181 442,165 435,107 422,101 402,85 402,84 "/>
<circle cx="470" cy="259" r="3" opacity="1" fill="#60A5FA" stroke="none" stroke-width="1"/>
<text x="476" y="259" dy="0.5ex" text-anchor="start" font-family="sans-serif" font-size="7.258064516129032" opacity="1" fill="#60A5FA" font-weight="bold">
L-7
</text>
<circle cx="465" cy="248" r="3" opacity="1" fill="#60A5FA" stroke="none" stroke-width="1"/>
<circle cx="461" cy="237" r="3" opacity="1" fill="#60A5FA" stroke="none" stroke-width="1"/>
<circle cx="456" cy="221" r="3" opacity="1" fill="#60A5FA" stroke="none" stroke-width="1"/>
<circle cx="452" cy="201" r="3" opacity="1" fill="#60A5FA" stroke="none" stroke-width="1"/>
<circle cx="447" cy="181" r="3" opacity="1" fill="#60A5FA" stroke="none" stroke-width="1"/>
<circle cx="442" cy="165" r="3" opacity="1" fill="#60A5FA" stroke="none" stroke-width="1"/>
<text x="448" y="165" dy="0.5ex" text-anchor="start" font-family="sans-serif" font-size="7.258064516129032" opacity="1" fill="#60A5FA" font-weight="bold">
L-1
</text>
<circle cx="435" cy="107" r="3" opacity="1" fill="#60A5FA" stroke="none" stroke-width="1"/>
<text x="441" y="107" dy="0.5ex" text-anchor="start" font-family="sans-serif" font-size="7.258064516129032" opacity="1" fill="#60A5FA" font-weight="bold">
L1
</text>
<circle cx="422" cy="101" r="3" opacity="1" fill="#60A5FA" stroke="none" stroke-width="1"/>
<circle cx="402" cy="85" r="3" opacity="1" fill="#60A5FA" stroke="none" stroke-width="1"/>
<text x="408" y="85" dy="0.5ex" text-anchor="start" font-family="sans-serif" font-size="7.258064516129032" opacity="1" fill="#60A5FA" font-weight="bold">
L3
</text>
<circle cx="402" cy="84" r="3" opacity="1" fill="#60A5FA" stroke="none" stroke-width="1"/>
<polyline fill="none" opacity="1" stroke="#F87171" stroke-width="1" points="422,273 406,264 403,247 400,235 399,225 394,209 391,188 388,166 380,152 377,145 359,123 338,117 "/>
<circle cx="422" cy="273" r="3" opacity="1" fill="#F87171" stroke="none" stroke-width="1"/>
<text x="428" y="273" dy="0.5ex" text-anchor="start" font-family="sans-serif" font-size="7.258064516129032" opacity="1" fill="#F87171" font-weight="bold">
L-8
</text>
<circle cx="406" cy="264" r="3" opacity="1" fill="#F87171" stroke="none" stroke-width="1"/>
<circle cx="403" cy="247" r="3" opacity="1" fill="#F87171" stroke="none" stroke-width="1"/>
<circle cx="400" cy="235" r="3" opacity="1" fill="#F87171" stroke="none" stroke-width="1"/>
<circle cx="399" cy="225" r="3" opacity="1" fill="#F87171" stroke="none" stroke-width="1"/>
<circle cx="394" cy="209" r="3" opacity="1" fill="#F87171" stroke="none" stroke-width="1"/>
<circle cx="391" cy="188" r="3" opacity="1" fill="#F87171" stroke="none" stroke-width="1"/>
<circle cx="388" cy="166" r="3" opacity="1" fill="#F87171" stroke="none" stroke-width="1"/>
<text x="394" y="166" dy="0.5ex" text-anchor="start" font-family="sans-serif" font-size="7.258064516129032" opacity="1" fill="#F87171" font-weight="bold">
L-1
</text>
<circle cx="380" cy="152" r="3" opacity="1" fill="#F87171" stroke="none" stroke-width="1"/>
<text x="386" y="152" dy="0.5ex" text-anchor="start" font-family="sans-serif" font-size="7.258064516129032" opacity="1" fill="#F87171" font-weight="bold">
L1
</text>
<circle cx="377" cy="145" r="3" opacity="1" fill="#F87171" stroke="none" stroke-width="1"/>
<circle cx="359" cy="123" r="3" opacity="1" fill="#F87171" stroke="none" stroke-width="1"/>
<text x="365" y="123" dy="0.5ex" text-anchor="start" font-family="sans-serif" font-size="7.258064516129032" opacity="1" fill="#F87171" font-weight="bold">
L3
</text>
<circle cx="338" cy="117" r="3" opacity="1" fill="#F87171" stroke="none" stroke-width="1"/>
<polyline fill="none" opacity="1" stroke="#F59E0B" stroke-width="1" points="391,259 387,248 384,237 380,221 376,201 372,181 367,166 362,107 351,101 304,85 304,84 "/>
<circle cx="391" cy="259" r="3" opacity="1" fill="#F59E0B" stroke="none" stroke-width="1"/>
<text x="397" y="259" dy="0.5ex" text-anchor="start" font-family="sans-serif" font-size="7.258064516129032" opacity="1" fill="#F59E0B" font-weight="bold">
L-7
</text>
<circle cx="387" cy="248" r="3" opacity="1" fill="#F59E0B" stroke="none" stroke-width="1"/>
<circle cx="384" cy="237" r="3" opacity="1" fill="#F59E0B" stroke="none" stroke-width="1"/>
<circle cx="380" cy="221" r="3" opacity="1" fill="#F59E0B" stroke="none" stroke-width="1"/>
<circle cx="376" cy="201" r="3" opacity="1" fill="#F59E0B" stroke="none" stroke-width="1"/>
<circle cx="372" cy="181" r="3" opacity="1" fill="#F59E0B" stroke="none" stroke-width="1"/>
<circle cx="367" cy="166" r="3" opacity="1" fill="#F59E0B" stroke="none" stroke-width="1"/>
<text x="373" y="166" dy="0.5ex" text-anchor="start" font-family="sans-serif" font-size="7.258064516129032" opacity="1" fill="#F59E0B" font-weight="bold">
L-1
</text>
<circle cx="362" cy="107" r="3" opacity="1" fill="#F59E0B" stroke="none" stroke-width="1"/>
<text x="368" y="107" dy="0.5ex" text-anchor="start" font-family="sans-serif" font-size="7.258064516129032" opacity="1" fill="#F59E0B" font-weight="bold">
L1
</text>
<circle cx="351" cy="101" r="3" opacity="1" fill="#F59E0B" stroke="none" stroke-width="1"/>
<circle cx="304" cy="85" r="3" opacity="1" fill="#F59E0B" stroke="none" stroke-width="1"/>
<text x="310" y="85" dy="0.5ex" text-anchor="start" font-family="sans-serif" font-size="7.258064516129032" opacity="1" fill="#F59E0B" font-weight="bold">
L3
</text>
<circle cx="304" cy="84" r="3" opacity="1" fill="#F59E0B" stroke="none" stroke-width="1"/>
<polyline fill="none" opacity="1" stroke="#F472B6" stroke-width="1" points="379,273 368,264 364,247 361,235 359,225 355,209 352,188 349,166 338,152 337,145 323,123 308,117 "/>
<circle cx="379" cy="273" r="3" opacity="1" fill="#F472B6" stroke="none" stroke-width="1"/>
<text x="385" y="273" dy="0.5ex" text-anchor="start" font-family="sans-serif" font-size="7.258064516129032" opacity="1" fill="#F472B6" font-weight="bold">
L-8
</text>
<circle cx="368" cy="264" r="3" opacity="1" fill="#F472B6" stroke="none" stroke-width="1"/>
<circle cx="364" cy="247" r="3" opacity="1" fill="#F472B6" stroke="none" stroke-width="1"/>
<circle cx="361" cy="235" r="3" opacity="1" fill="#F472B6" stroke="none" stroke-width="1"/>
<circle cx="359" cy="225" r="3" opacity="1" fill="#F472B6" stroke="none" stroke-width="1"/>
<circle cx="355" cy="209" r="3" opacity="1" fill="#F472B6" stroke="none" stroke-width="1"/>
<circle cx="352" cy="188" r="3" opacity="1" fill="#F472B6" stroke="none" stroke-width="1"/>
<circle cx="349" cy="166" r="3" opacity="1" fill="#F472B6" stroke="none" stroke-width="1"/>
<text x="355" y="166" dy="0.5ex" text-anchor="start" font-family="sans-serif" font-size="7.258064516129032" opacity="1" fill="#F472B6" font-weight="bold">
L-1
</text>
<circle cx="338" cy="152" r="3" opacity="1" fill="#F472B6" stroke="none" stroke-width="1"/>
<text x="344" y="152" dy="0.5ex" text-anchor="start" font-family="sans-serif" font-size="7.258064516129032" opacity="1" fill="#F472B6" font-weight="bold">
L1
</text>
<circle cx="337" cy="145" r="3" opacity="1" fill="#F472B6" stroke="none" stroke-width="1"/>
<circle cx="323" cy="123" r="3" opacity="1" fill="#F472B6" stroke="none" stroke-width="1"/>
<text x="329" y="123" dy="0.5ex" text-anchor="start" font-family="sans-serif" font-size="7.258064516129032" opacity="1" fill="#F472B6" font-weight="bold">
L3
</text>
<circle cx="308" cy="117" r="3" opacity="1" fill="#F472B6" stroke="none" stroke-width="1"/>
<circle cx="190" cy="227" r="3" opacity="1" fill="#4ADE80" stroke="none" stroke-width="1"/>
<text x="196" y="227" dy="0.5ex" text-anchor="start" font-family="sans-serif" font-size="7.258064516129032" opacity="1" fill="#4ADE80" font-weight="bold">
L1
</text>
<circle cx="470" cy="249" r="3" opacity="1" fill="#C084FC" stroke="none" stroke-width="1"/>
<text x="476" y="249" dy="0.5ex" text-anchor="start" font-family="sans-serif" font-size="7.258064516129032" opacity="1" fill="#C084FC" font-weight="bold">
L1
</text>
<text x="450" y="350" dy="0.5ex" text-anchor="middle" font-family="sans-serif" font-size="8.870967741935484" opacity="1" fill="#7D8590">
encode MB/s (log)
</text>
<rect x="70" y="401" width="760" height="250" opacity="1" fill="#161B22" stroke="none"/>
<text x="450" y="388" dy="0.5ex" text-anchor="middle" font-family="sans-serif" font-size="10.483870967741936" opacity="1" fill="#E6EDF3" font-weight="bold">
Medium compressibility
</text>
<polyline fill="none" opacity="1" stroke="#21262D" stroke-width="1" points="137,401 137,651 "/>
<text x="137" y="667" dy="0.5ex" text-anchor="middle" font-family="sans-serif" font-size="8.064516129032258" opacity="1" fill="#7D8590">
50
</text>
<polyline fill="none" opacity="1" stroke="#21262D" stroke-width="1" points="228,401 228,651 "/>
<text x="228" y="667" dy="0.5ex" text-anchor="middle" font-family="sans-serif" font-size="8.064516129032258" opacity="1" fill="#7D8590">
100
</text>
<polyline fill="none" opacity="1" stroke="#21262D" stroke-width="1" points="318,401 318,651 "/>
<text x="318" y="667" dy="0.5ex" text-anchor="middle" font-family="sans-serif" font-size="8.064516129032258" opacity="1" fill="#7D8590">
200
</text>
<polyline fill="none" opacity="1" stroke="#21262D" stroke-width="1" points="438,401 438,651 "/>
<text x="438" y="667" dy="0.5ex" text-anchor="middle" font-family="sans-serif" font-size="8.064516129032258" opacity="1" fill="#7D8590">
500
</text>
<polyline fill="none" opacity="1" stroke="#21262D" stroke-width="1" points="529,401 529,651 "/>
<text x="529" y="667" dy="0.5ex" text-anchor="middle" font-family="sans-serif" font-size="8.064516129032258" opacity="1" fill="#7D8590">
1000
</text>
<polyline fill="none" opacity="1" stroke="#21262D" stroke-width="1" points="619,401 619,651 "/>
<text x="619" y="667" dy="0.5ex" text-anchor="middle" font-family="sans-serif" font-size="8.064516129032258" opacity="1" fill="#7D8590">
2000
</text>
<polyline fill="none" opacity="1" stroke="#21262D" stroke-width="1" points="739,401 739,651 "/>
<text x="739" y="667" dy="0.5ex" text-anchor="middle" font-family="sans-serif" font-size="8.064516129032258" opacity="1" fill="#7D8590">
5000
</text>
<polyline fill="none" opacity="1" stroke="#21262D" stroke-width="1" points="830,401 830,651 "/>
<text x="830" y="667" dy="0.5ex" text-anchor="middle" font-family="sans-serif" font-size="8.064516129032258" opacity="1" fill="#7D8590">
10000
</text>
<polyline fill="none" opacity="1" stroke="#21262D" stroke-width="1" points="70,637 830,637 "/>
<text x="62" y="637" dy="0.5ex" text-anchor="end" font-family="sans-serif" font-size="8.870967741935484" opacity="1" fill="#7D8590">
1.50x
</text>
<polyline fill="none" opacity="1" stroke="#21262D" stroke-width="1" points="70,568 830,568 "/>
<text x="62" y="568" dy="0.5ex" text-anchor="end" font-family="sans-serif" font-size="8.870967741935484" opacity="1" fill="#7D8590">
2.00x
</text>
<polyline fill="none" opacity="1" stroke="#21262D" stroke-width="1" points="70,498 830,498 "/>
<text x="62" y="498" dy="0.5ex" text-anchor="end" font-family="sans-serif" font-size="8.870967741935484" opacity="1" fill="#7D8590">
2.50x
</text>
<polyline fill="none" opacity="1" stroke="#21262D" stroke-width="1" points="70,429 830,429 "/>
<text x="62" y="429" dy="0.5ex" text-anchor="end" font-family="sans-serif" font-size="8.870967741935484" opacity="1" fill="#7D8590">
3.00x
</text>
<polyline fill="none" opacity="1" stroke="#30363D" stroke-width="2" points="70,651 830,651 "/>
<polyline fill="none" opacity="1" stroke="#60A5FA" stroke-width="1" points="414,606 409,602 403,594 395,585 388,575 378,564 366,552 355,492 327,468 288,452 288,446 "/>
<circle cx="414" cy="606" r="3" opacity="1" fill="#60A5FA" stroke="none" stroke-width="1"/>
<text x="420" y="606" dy="0.5ex" text-anchor="start" font-family="sans-serif" font-size="7.258064516129032" opacity="1" fill="#60A5FA" font-weight="bold">
L-7
</text>
<circle cx="409" cy="602" r="3" opacity="1" fill="#60A5FA" stroke="none" stroke-width="1"/>
<circle cx="403" cy="594" r="3" opacity="1" fill="#60A5FA" stroke="none" stroke-width="1"/>
<circle cx="395" cy="585" r="3" opacity="1" fill="#60A5FA" stroke="none" stroke-width="1"/>
<circle cx="388" cy="575" r="3" opacity="1" fill="#60A5FA" stroke="none" stroke-width="1"/>
<circle cx="378" cy="564" r="3" opacity="1" fill="#60A5FA" stroke="none" stroke-width="1"/>
<circle cx="366" cy="552" r="3" opacity="1" fill="#60A5FA" stroke="none" stroke-width="1"/>
<text x="372" y="552" dy="0.5ex" text-anchor="start" font-family="sans-serif" font-size="7.258064516129032" opacity="1" fill="#60A5FA" font-weight="bold">
L-1
</text>
<circle cx="355" cy="492" r="3" opacity="1" fill="#60A5FA" stroke="none" stroke-width="1"/>
<text x="361" y="492" dy="0.5ex" text-anchor="start" font-family="sans-serif" font-size="7.258064516129032" opacity="1" fill="#60A5FA" font-weight="bold">
L1
</text>
<circle cx="327" cy="468" r="3" opacity="1" fill="#60A5FA" stroke="none" stroke-width="1"/>
<circle cx="288" cy="452" r="3" opacity="1" fill="#60A5FA" stroke="none" stroke-width="1"/>
<text x="294" y="452" dy="0.5ex" text-anchor="start" font-family="sans-serif" font-size="7.258064516129032" opacity="1" fill="#60A5FA" font-weight="bold">
L3
</text>
<circle cx="288" cy="446" r="3" opacity="1" fill="#60A5FA" stroke="none" stroke-width="1"/>
<polyline fill="none" opacity="1" stroke="#F87171" stroke-width="1" points="353,609 337,581 329,571 326,567 322,559 317,548 313,539 307,528 291,511 271,495 248,488 210,479 "/>
<circle cx="353" cy="609" r="3" opacity="1" fill="#F87171" stroke="none" stroke-width="1"/>
<text x="359" y="609" dy="0.5ex" text-anchor="start" font-family="sans-serif" font-size="7.258064516129032" opacity="1" fill="#F87171" font-weight="bold">
L-8
</text>
<circle cx="337" cy="581" r="3" opacity="1" fill="#F87171" stroke="none" stroke-width="1"/>
<circle cx="329" cy="571" r="3" opacity="1" fill="#F87171" stroke="none" stroke-width="1"/>
<circle cx="326" cy="567" r="3" opacity="1" fill="#F87171" stroke="none" stroke-width="1"/>
<circle cx="322" cy="559" r="3" opacity="1" fill="#F87171" stroke="none" stroke-width="1"/>
<circle cx="317" cy="548" r="3" opacity="1" fill="#F87171" stroke="none" stroke-width="1"/>
<circle cx="313" cy="539" r="3" opacity="1" fill="#F87171" stroke="none" stroke-width="1"/>
<circle cx="307" cy="528" r="3" opacity="1" fill="#F87171" stroke="none" stroke-width="1"/>
<text x="313" y="528" dy="0.5ex" text-anchor="start" font-family="sans-serif" font-size="7.258064516129032" opacity="1" fill="#F87171" font-weight="bold">
L-1
</text>
<circle cx="291" cy="511" r="3" opacity="1" fill="#F87171" stroke="none" stroke-width="1"/>
<text x="297" y="511" dy="0.5ex" text-anchor="start" font-family="sans-serif" font-size="7.258064516129032" opacity="1" fill="#F87171" font-weight="bold">
L1
</text>
<circle cx="271" cy="495" r="3" opacity="1" fill="#F87171" stroke="none" stroke-width="1"/>
<circle cx="248" cy="488" r="3" opacity="1" fill="#F87171" stroke="none" stroke-width="1"/>
<text x="254" y="488" dy="0.5ex" text-anchor="start" font-family="sans-serif" font-size="7.258064516129032" opacity="1" fill="#F87171" font-weight="bold">
L3
</text>
<circle cx="210" cy="479" r="3" opacity="1" fill="#F87171" stroke="none" stroke-width="1"/>
<polyline fill="none" opacity="1" stroke="#F59E0B" stroke-width="1" points="345,606 342,602 335,594 329,585 321,575 313,564 303,553 287,492 262,468 200,454 196,447 "/>
<circle cx="345" cy="606" r="3" opacity="1" fill="#F59E0B" stroke="none" stroke-width="1"/>
<text x="351" y="606" dy="0.5ex" text-anchor="start" font-family="sans-serif" font-size="7.258064516129032" opacity="1" fill="#F59E0B" font-weight="bold">
L-7
</text>
<circle cx="342" cy="602" r="3" opacity="1" fill="#F59E0B" stroke="none" stroke-width="1"/>
<circle cx="335" cy="594" r="3" opacity="1" fill="#F59E0B" stroke="none" stroke-width="1"/>
<circle cx="329" cy="585" r="3" opacity="1" fill="#F59E0B" stroke="none" stroke-width="1"/>
<circle cx="321" cy="575" r="3" opacity="1" fill="#F59E0B" stroke="none" stroke-width="1"/>
<circle cx="313" cy="564" r="3" opacity="1" fill="#F59E0B" stroke="none" stroke-width="1"/>
<circle cx="303" cy="553" r="3" opacity="1" fill="#F59E0B" stroke="none" stroke-width="1"/>
<text x="309" y="553" dy="0.5ex" text-anchor="start" font-family="sans-serif" font-size="7.258064516129032" opacity="1" fill="#F59E0B" font-weight="bold">
L-1
</text>
<circle cx="287" cy="492" r="3" opacity="1" fill="#F59E0B" stroke="none" stroke-width="1"/>
<text x="293" y="492" dy="0.5ex" text-anchor="start" font-family="sans-serif" font-size="7.258064516129032" opacity="1" fill="#F59E0B" font-weight="bold">
L1
</text>
<circle cx="262" cy="468" r="3" opacity="1" fill="#F59E0B" stroke="none" stroke-width="1"/>
<circle cx="200" cy="454" r="3" opacity="1" fill="#F59E0B" stroke="none" stroke-width="1"/>
<text x="206" y="454" dy="0.5ex" text-anchor="start" font-family="sans-serif" font-size="7.258064516129032" opacity="1" fill="#F59E0B" font-weight="bold">
L3
</text>
<circle cx="196" cy="447" r="3" opacity="1" fill="#F59E0B" stroke="none" stroke-width="1"/>
<polyline fill="none" opacity="1" stroke="#F472B6" stroke-width="1" points="311,609 301,581 293,571 289,567 286,559 280,548 276,539 269,528 247,511 232,495 214,488 183,479 "/>
<circle cx="311" cy="609" r="3" opacity="1" fill="#F472B6" stroke="none" stroke-width="1"/>
<text x="317" y="609" dy="0.5ex" text-anchor="start" font-family="sans-serif" font-size="7.258064516129032" opacity="1" fill="#F472B6" font-weight="bold">
L-8
</text>
<circle cx="301" cy="581" r="3" opacity="1" fill="#F472B6" stroke="none" stroke-width="1"/>
<circle cx="293" cy="571" r="3" opacity="1" fill="#F472B6" stroke="none" stroke-width="1"/>
<circle cx="289" cy="567" r="3" opacity="1" fill="#F472B6" stroke="none" stroke-width="1"/>
<circle cx="286" cy="559" r="3" opacity="1" fill="#F472B6" stroke="none" stroke-width="1"/>
<circle cx="280" cy="548" r="3" opacity="1" fill="#F472B6" stroke="none" stroke-width="1"/>
<circle cx="276" cy="539" r="3" opacity="1" fill="#F472B6" stroke="none" stroke-width="1"/>
<circle cx="269" cy="528" r="3" opacity="1" fill="#F472B6" stroke="none" stroke-width="1"/>
<text x="275" y="528" dy="0.5ex" text-anchor="start" font-family="sans-serif" font-size="7.258064516129032" opacity="1" fill="#F472B6" font-weight="bold">
L-1
</text>
<circle cx="247" cy="511" r="3" opacity="1" fill="#F472B6" stroke="none" stroke-width="1"/>
<text x="253" y="511" dy="0.5ex" text-anchor="start" font-family="sans-serif" font-size="7.258064516129032" opacity="1" fill="#F472B6" font-weight="bold">
L1
</text>
<circle cx="232" cy="495" r="3" opacity="1" fill="#F472B6" stroke="none" stroke-width="1"/>
<circle cx="214" cy="488" r="3" opacity="1" fill="#F472B6" stroke="none" stroke-width="1"/>
<text x="220" y="488" dy="0.5ex" text-anchor="start" font-family="sans-serif" font-size="7.258064516129032" opacity="1" fill="#F472B6" font-weight="bold">
L3
</text>
<circle cx="183" cy="479" r="3" opacity="1" fill="#F472B6" stroke="none" stroke-width="1"/>
<circle cx="135" cy="557" r="3" opacity="1" fill="#4ADE80" stroke="none" stroke-width="1"/>
<text x="141" y="557" dy="0.5ex" text-anchor="start" font-family="sans-serif" font-size="7.258064516129032" opacity="1" fill="#4ADE80" font-weight="bold">
L1
</text>
<circle cx="423" cy="619" r="3" opacity="1" fill="#C084FC" stroke="none" stroke-width="1"/>
<text x="429" y="619" dy="0.5ex" text-anchor="start" font-family="sans-serif" font-size="7.258064516129032" opacity="1" fill="#C084FC" font-weight="bold">
L1
</text>
<text x="450" y="685" dy="0.5ex" text-anchor="middle" font-family="sans-serif" font-size="8.870967741935484" opacity="1" fill="#7D8590">
encode MB/s (log)
</text>
<rect x="70" y="736" width="760" height="250" opacity="1" fill="#161B22" stroke="none"/>
<text x="450" y="723" dy="0.5ex" text-anchor="middle" font-family="sans-serif" font-size="10.483870967741936" opacity="1" fill="#E6EDF3" font-weight="bold">
Low compressibility
</text>
<polyline fill="none" opacity="1" stroke="#21262D" stroke-width="1" points="137,736 137,986 "/>
<text x="137" y="1002" dy="0.5ex" text-anchor="middle" font-family="sans-serif" font-size="8.064516129032258" opacity="1" fill="#7D8590">
50
</text>
<polyline fill="none" opacity="1" stroke="#21262D" stroke-width="1" points="228,736 228,986 "/>
<text x="228" y="1002" dy="0.5ex" text-anchor="middle" font-family="sans-serif" font-size="8.064516129032258" opacity="1" fill="#7D8590">
100
</text>
<polyline fill="none" opacity="1" stroke="#21262D" stroke-width="1" points="318,736 318,986 "/>
<text x="318" y="1002" dy="0.5ex" text-anchor="middle" font-family="sans-serif" font-size="8.064516129032258" opacity="1" fill="#7D8590">
200
</text>
<polyline fill="none" opacity="1" stroke="#21262D" stroke-width="1" points="438,736 438,986 "/>
<text x="438" y="1002" dy="0.5ex" text-anchor="middle" font-family="sans-serif" font-size="8.064516129032258" opacity="1" fill="#7D8590">
500
</text>
<polyline fill="none" opacity="1" stroke="#21262D" stroke-width="1" points="529,736 529,986 "/>
<text x="529" y="1002" dy="0.5ex" text-anchor="middle" font-family="sans-serif" font-size="8.064516129032258" opacity="1" fill="#7D8590">
1000
</text>
<polyline fill="none" opacity="1" stroke="#21262D" stroke-width="1" points="619,736 619,986 "/>
<text x="619" y="1002" dy="0.5ex" text-anchor="middle" font-family="sans-serif" font-size="8.064516129032258" opacity="1" fill="#7D8590">
2000
</text>
<polyline fill="none" opacity="1" stroke="#21262D" stroke-width="1" points="739,736 739,986 "/>
<text x="739" y="1002" dy="0.5ex" text-anchor="middle" font-family="sans-serif" font-size="8.064516129032258" opacity="1" fill="#7D8590">
5000
</text>
<polyline fill="none" opacity="1" stroke="#21262D" stroke-width="1" points="830,736 830,986 "/>
<text x="830" y="1002" dy="0.5ex" text-anchor="middle" font-family="sans-serif" font-size="8.064516129032258" opacity="1" fill="#7D8590">
10000
</text>
<polyline fill="none" opacity="1" stroke="#21262D" stroke-width="1" points="70,965 830,965 "/>
<text x="62" y="965" dy="0.5ex" text-anchor="end" font-family="sans-serif" font-size="8.870967741935484" opacity="1" fill="#7D8590">
1.00x
</text>
<polyline fill="none" opacity="1" stroke="#21262D" stroke-width="1" points="70,882 830,882 "/>
<text x="62" y="882" dy="0.5ex" text-anchor="end" font-family="sans-serif" font-size="8.870967741935484" opacity="1" fill="#7D8590">
1.20x
</text>
<polyline fill="none" opacity="1" stroke="#21262D" stroke-width="1" points="70,799 830,799 "/>
<text x="62" y="799" dy="0.5ex" text-anchor="end" font-family="sans-serif" font-size="8.870967741935484" opacity="1" fill="#7D8590">
1.40x
</text>
<polyline fill="none" opacity="1" stroke="#30363D" stroke-width="2" points="70,986 830,986 "/>
<polyline fill="none" opacity="1" stroke="#60A5FA" stroke-width="1" points="590,956 578,952 575,953 563,950 550,948 535,946 509,943 405,880 337,857 229,819 218,793 "/>
<circle cx="590" cy="956" r="3" opacity="1" fill="#60A5FA" stroke="none" stroke-width="1"/>
<text x="596" y="956" dy="0.5ex" text-anchor="start" font-family="sans-serif" font-size="7.258064516129032" opacity="1" fill="#60A5FA" font-weight="bold">
L-7
</text>
<circle cx="578" cy="952" r="3" opacity="1" fill="#60A5FA" stroke="none" stroke-width="1"/>
<circle cx="575" cy="953" r="3" opacity="1" fill="#60A5FA" stroke="none" stroke-width="1"/>
<circle cx="563" cy="950" r="3" opacity="1" fill="#60A5FA" stroke="none" stroke-width="1"/>
<circle cx="550" cy="948" r="3" opacity="1" fill="#60A5FA" stroke="none" stroke-width="1"/>
<circle cx="535" cy="946" r="3" opacity="1" fill="#60A5FA" stroke="none" stroke-width="1"/>
<circle cx="509" cy="943" r="3" opacity="1" fill="#60A5FA" stroke="none" stroke-width="1"/>
<text x="515" y="943" dy="0.5ex" text-anchor="start" font-family="sans-serif" font-size="7.258064516129032" opacity="1" fill="#60A5FA" font-weight="bold">
L-1
</text>
<circle cx="405" cy="880" r="3" opacity="1" fill="#60A5FA" stroke="none" stroke-width="1"/>
<text x="411" y="880" dy="0.5ex" text-anchor="start" font-family="sans-serif" font-size="7.258064516129032" opacity="1" fill="#60A5FA" font-weight="bold">
L1
</text>
<circle cx="337" cy="857" r="3" opacity="1" fill="#60A5FA" stroke="none" stroke-width="1"/>
<circle cx="229" cy="819" r="3" opacity="1" fill="#60A5FA" stroke="none" stroke-width="1"/>
<text x="235" y="819" dy="0.5ex" text-anchor="start" font-family="sans-serif" font-size="7.258064516129032" opacity="1" fill="#60A5FA" font-weight="bold">
L3
</text>
<circle cx="218" cy="793" r="3" opacity="1" fill="#60A5FA" stroke="none" stroke-width="1"/>
<polyline fill="none" opacity="1" stroke="#F87171" stroke-width="1" points="630,964 575,961 531,954 517,950 499,948 480,946 437,942 407,936 326,909 256,868 234,858 174,834 "/>
<circle cx="630" cy="964" r="3" opacity="1" fill="#F87171" stroke="none" stroke-width="1"/>
<text x="636" y="964" dy="0.5ex" text-anchor="start" font-family="sans-serif" font-size="7.258064516129032" opacity="1" fill="#F87171" font-weight="bold">
L-8
</text>
<circle cx="575" cy="961" r="3" opacity="1" fill="#F87171" stroke="none" stroke-width="1"/>
<circle cx="531" cy="954" r="3" opacity="1" fill="#F87171" stroke="none" stroke-width="1"/>
<circle cx="517" cy="950" r="3" opacity="1" fill="#F87171" stroke="none" stroke-width="1"/>
<circle cx="499" cy="948" r="3" opacity="1" fill="#F87171" stroke="none" stroke-width="1"/>
<circle cx="480" cy="946" r="3" opacity="1" fill="#F87171" stroke="none" stroke-width="1"/>
<circle cx="437" cy="942" r="3" opacity="1" fill="#F87171" stroke="none" stroke-width="1"/>
<circle cx="407" cy="936" r="3" opacity="1" fill="#F87171" stroke="none" stroke-width="1"/>
<text x="413" y="936" dy="0.5ex" text-anchor="start" font-family="sans-serif" font-size="7.258064516129032" opacity="1" fill="#F87171" font-weight="bold">
L-1
</text>
<circle cx="326" cy="909" r="3" opacity="1" fill="#F87171" stroke="none" stroke-width="1"/>
<text x="332" y="909" dy="0.5ex" text-anchor="start" font-family="sans-serif" font-size="7.258064516129032" opacity="1" fill="#F87171" font-weight="bold">
L1
</text>
<circle cx="256" cy="868" r="3" opacity="1" fill="#F87171" stroke="none" stroke-width="1"/>
<circle cx="234" cy="858" r="3" opacity="1" fill="#F87171" stroke="none" stroke-width="1"/>
<text x="240" y="858" dy="0.5ex" text-anchor="start" font-family="sans-serif" font-size="7.258064516129032" opacity="1" fill="#F87171" font-weight="bold">
L3
</text>
<circle cx="174" cy="834" r="3" opacity="1" fill="#F87171" stroke="none" stroke-width="1"/>
<polyline fill="none" opacity="1" stroke="#F59E0B" stroke-width="1" points="529,956 518,952 509,953 503,950 484,948 472,946 455,943 301,880 259,857 144,827 134,804 "/>
<circle cx="529" cy="956" r="3" opacity="1" fill="#F59E0B" stroke="none" stroke-width="1"/>
<text x="535" y="956" dy="0.5ex" text-anchor="start" font-family="sans-serif" font-size="7.258064516129032" opacity="1" fill="#F59E0B" font-weight="bold">
L-7
</text>
<circle cx="518" cy="952" r="3" opacity="1" fill="#F59E0B" stroke="none" stroke-width="1"/>
<circle cx="509" cy="953" r="3" opacity="1" fill="#F59E0B" stroke="none" stroke-width="1"/>
<circle cx="503" cy="950" r="3" opacity="1" fill="#F59E0B" stroke="none" stroke-width="1"/>
<circle cx="484" cy="948" r="3" opacity="1" fill="#F59E0B" stroke="none" stroke-width="1"/>
<circle cx="472" cy="946" r="3" opacity="1" fill="#F59E0B" stroke="none" stroke-width="1"/>
<circle cx="455" cy="943" r="3" opacity="1" fill="#F59E0B" stroke="none" stroke-width="1"/>
<text x="461" y="943" dy="0.5ex" text-anchor="start" font-family="sans-serif" font-size="7.258064516129032" opacity="1" fill="#F59E0B" font-weight="bold">
L-1
</text>
<circle cx="301" cy="880" r="3" opacity="1" fill="#F59E0B" stroke="none" stroke-width="1"/>
<text x="307" y="880" dy="0.5ex" text-anchor="start" font-family="sans-serif" font-size="7.258064516129032" opacity="1" fill="#F59E0B" font-weight="bold">
L1
</text>
<circle cx="259" cy="857" r="3" opacity="1" fill="#F59E0B" stroke="none" stroke-width="1"/>
<circle cx="144" cy="827" r="3" opacity="1" fill="#F59E0B" stroke="none" stroke-width="1"/>
<text x="150" y="827" dy="0.5ex" text-anchor="start" font-family="sans-serif" font-size="7.258064516129032" opacity="1" fill="#F59E0B" font-weight="bold">
L3
</text>
<circle cx="134" cy="804" r="3" opacity="1" fill="#F59E0B" stroke="none" stroke-width="1"/>
<polyline fill="none" opacity="1" stroke="#F472B6" stroke-width="1" points="597,964 544,961 498,954 484,950 465,948 445,946 401,942 370,936 280,909 220,868 199,858 131,834 "/>
<circle cx="597" cy="964" r="3" opacity="1" fill="#F472B6" stroke="none" stroke-width="1"/>
<text x="603" y="964" dy="0.5ex" text-anchor="start" font-family="sans-serif" font-size="7.258064516129032" opacity="1" fill="#F472B6" font-weight="bold">
L-8
</text>
<circle cx="544" cy="961" r="3" opacity="1" fill="#F472B6" stroke="none" stroke-width="1"/>
<circle cx="498" cy="954" r="3" opacity="1" fill="#F472B6" stroke="none" stroke-width="1"/>
<circle cx="484" cy="950" r="3" opacity="1" fill="#F472B6" stroke="none" stroke-width="1"/>
<circle cx="465" cy="948" r="3" opacity="1" fill="#F472B6" stroke="none" stroke-width="1"/>
<circle cx="445" cy="946" r="3" opacity="1" fill="#F472B6" stroke="none" stroke-width="1"/>
<circle cx="401" cy="942" r="3" opacity="1" fill="#F472B6" stroke="none" stroke-width="1"/>
<circle cx="370" cy="936" r="3" opacity="1" fill="#F472B6" stroke="none" stroke-width="1"/>
<text x="376" y="936" dy="0.5ex" text-anchor="start" font-family="sans-serif" font-size="7.258064516129032" opacity="1" fill="#F472B6" font-weight="bold">
L-1
</text>
<circle cx="280" cy="909" r="3" opacity="1" fill="#F472B6" stroke="none" stroke-width="1"/>
<text x="286" y="909" dy="0.5ex" text-anchor="start" font-family="sans-serif" font-size="7.258064516129032" opacity="1" fill="#F472B6" font-weight="bold">
L1
</text>
<circle cx="220" cy="868" r="3" opacity="1" fill="#F472B6" stroke="none" stroke-width="1"/>
<circle cx="199" cy="858" r="3" opacity="1" fill="#F472B6" stroke="none" stroke-width="1"/>
<text x="205" y="858" dy="0.5ex" text-anchor="start" font-family="sans-serif" font-size="7.258064516129032" opacity="1" fill="#F472B6" font-weight="bold">
L3
</text>
<circle cx="131" cy="834" r="3" opacity="1" fill="#F472B6" stroke="none" stroke-width="1"/>
<circle cx="87" cy="894" r="3" opacity="1" fill="#4ADE80" stroke="none" stroke-width="1"/>
<text x="93" y="894" dy="0.5ex" text-anchor="start" font-family="sans-serif" font-size="7.258064516129032" opacity="1" fill="#4ADE80" font-weight="bold">
L1
</text>
<circle cx="688" cy="963" r="3" opacity="1" fill="#C084FC" stroke="none" stroke-width="1"/>
<text x="694" y="963" dy="0.5ex" text-anchor="start" font-family="sans-serif" font-size="7.258064516129032" opacity="1" fill="#C084FC" font-weight="bold">
L1
</text>
<text x="450" y="1020" dy="0.5ex" text-anchor="middle" font-family="sans-serif" font-size="8.870967741935484" opacity="1" fill="#7D8590">
encode MB/s (log)
</text>
<text x="16" y="526" dy="0.5ex" text-anchor="middle" font-family="sans-serif" font-size="9.67741935483871" opacity="1" fill="#E6EDF3" font-weight="bold" transform="rotate(270, 16, 526)">
compression ratio
</text>
<rect x="111" y="1035" width="12" height="12" opacity="1" fill="#60A5FA" stroke="none"/>
<text x="129" y="1041" dy="0.5ex" text-anchor="start" font-family="sans-serif" font-size="8.870967741935484" opacity="1" fill="#E6EDF3">
libzstd v1.5.7 (C)
</text>
<rect x="391" y="1035" width="12" height="12" opacity="1" fill="#F87171" stroke="none"/>
<text x="409" y="1041" dy="0.5ex" text-anchor="start" font-family="sans-serif" font-size="8.870967741935484" opacity="1" fill="#E6EDF3">
zrip (safe SIMD + encapsulated unsafe)
</text>
<rect x="111" y="1055" width="12" height="12" opacity="1" fill="#F59E0B" stroke="none"/>
<text x="129" y="1061" dy="0.5ex" text-anchor="start" font-family="sans-serif" font-size="8.870967741935484" opacity="1" fill="#E6EDF3">
structured-zstd v0.0.49 (unsafe)
</text>
<rect x="391" y="1055" width="12" height="12" opacity="1" fill="#F472B6" stroke="none"/>
<text x="409" y="1061" dy="0.5ex" text-anchor="start" font-family="sans-serif" font-size="8.870967741935484" opacity="1" fill="#E6EDF3">
zrip paranoid (safe SIMD, no unsafe)
</text>
<rect x="111" y="1075" width="12" height="12" opacity="1" fill="#4ADE80" stroke="none"/>
<text x="129" y="1081" dy="0.5ex" text-anchor="start" font-family="sans-serif" font-size="8.870967741935484" opacity="1" fill="#E6EDF3">
ruzstd v0.8.3 (safe)
</text>
<rect x="391" y="1075" width="12" height="12" opacity="1" fill="#C084FC" stroke="none"/>
<text x="409" y="1081" dy="0.5ex" text-anchor="start" font-family="sans-serif" font-size="8.870967741935484" opacity="1" fill="#E6EDF3">
lz4rip 0.8.5 (encapsulated unsafe, Rust, LZ4)
</text>
</svg>
