<svg xmlns="http://www.w3.org/2000/svg" viewBox="0 0 850 1015" font-family="system-ui, -apple-system, sans-serif">
  <rect width="850" height="1015" fill="#0d1117"/>
  <text x="425.0" y="18" text-anchor="middle" fill="#e6edf3" font-size="14" font-weight="700">Encode Speed vs Compression Ratio (geomean across corpus)</text>
  <text x="425.0" y="34" text-anchor="middle" fill="#7d8590" font-size="10">Intel Core i7-8700B @ 3.20GHz, performance governor, turbo off</text>
  <rect x="70" y="55" width="760" height="250" fill="#161b22" rx="4"/>
  <text x="450.0" y="47" text-anchor="middle" fill="#e6edf3" font-size="12" font-weight="600">High compressibility</text>
  <line x1="70" y1="255.0" x2="830" y2="255.0" stroke="#21262d" stroke-width="1"/>
  <text x="64" y="255.0" text-anchor="end" dominant-baseline="middle" fill="#7d8590" font-size="9">4.00x</text>
  <line x1="70" y1="188.3" x2="830" y2="188.3" stroke="#21262d" stroke-width="1"/>
  <text x="64" y="188.3" text-anchor="end" dominant-baseline="middle" fill="#7d8590" font-size="9">6.00x</text>
  <line x1="70" y1="121.7" x2="830" y2="121.7" stroke="#21262d" stroke-width="1"/>
  <text x="64" y="121.7" text-anchor="end" dominant-baseline="middle" fill="#7d8590" font-size="9">8.00x</text>
  <line x1="139.5" y1="55" x2="139.5" y2="305" stroke="#21262d" stroke-width="1"/>
  <text x="139.5" y="319" text-anchor="middle" fill="#7d8590" font-size="9">50</text>
  <line x1="233.8" y1="55" x2="233.8" y2="305" stroke="#21262d" stroke-width="1"/>
  <text x="233.8" y="319" text-anchor="middle" fill="#7d8590" font-size="9">100</text>
  <line x1="328.1" y1="55" x2="328.1" y2="305" stroke="#21262d" stroke-width="1"/>
  <text x="328.1" y="319" text-anchor="middle" fill="#7d8590" font-size="9">200</text>
  <line x1="452.8" y1="55" x2="452.8" y2="305" stroke="#21262d" stroke-width="1"/>
  <text x="452.8" y="319" text-anchor="middle" fill="#7d8590" font-size="9">500</text>
  <line x1="547.1" y1="55" x2="547.1" y2="305" stroke="#21262d" stroke-width="1"/>
  <text x="547.1" y="319" text-anchor="middle" fill="#7d8590" font-size="9">1000</text>
  <line x1="641.4" y1="55" x2="641.4" y2="305" stroke="#21262d" stroke-width="1"/>
  <text x="641.4" y="319" text-anchor="middle" fill="#7d8590" font-size="9">2000</text>
  <line x1="766.1" y1="55" x2="766.1" y2="305" stroke="#21262d" stroke-width="1"/>
  <text x="766.1" y="319" text-anchor="middle" fill="#7d8590" font-size="9">5000</text>
  <text x="450.0" y="333" text-anchor="middle" fill="#7d8590" font-size="10">encode MB/s (log scale)</text>
  <path d="M503.2,236.2L495.4,225.1L492.6,214.9L488.6,200.9L484.9,184.4L480.4,166.5L473.7,153.6L466.1,104.0L453.5,100.7L430.6,93.7L428.4,93.7" fill="none" stroke="#60a5fa" stroke-width="1.5" stroke-opacity="0.6"/>
  <circle cx="503.2" cy="236.2" r="3.5" fill="#60a5fa" stroke="#0d1117" stroke-width="1"/>
  <text x="509.2" y="236.2" text-anchor="start" fill="#60a5fa" font-size="8" font-weight="600">-7</text>
  <circle cx="495.4" cy="225.1" r="3.5" fill="#60a5fa" stroke="#0d1117" stroke-width="1"/>
  <circle cx="492.6" cy="214.9" r="3.5" fill="#60a5fa" stroke="#0d1117" stroke-width="1"/>
  <circle cx="488.6" cy="200.9" r="3.5" fill="#60a5fa" stroke="#0d1117" stroke-width="1"/>
  <text x="494.6" y="200.9" text-anchor="start" fill="#60a5fa" font-size="8" font-weight="600">-4</text>
  <circle cx="484.9" cy="184.4" r="3.5" fill="#60a5fa" stroke="#0d1117" stroke-width="1"/>
  <circle cx="480.4" cy="166.5" r="3.5" fill="#60a5fa" stroke="#0d1117" stroke-width="1"/>
  <circle cx="473.7" cy="153.6" r="3.5" fill="#60a5fa" stroke="#0d1117" stroke-width="1"/>
  <text x="479.7" y="153.6" text-anchor="start" fill="#60a5fa" font-size="8" font-weight="600">-1</text>
  <circle cx="466.1" cy="104.0" r="3.5" fill="#60a5fa" stroke="#0d1117" stroke-width="1"/>
  <circle cx="453.5" cy="100.7" r="3.5" fill="#60a5fa" stroke="#0d1117" stroke-width="1"/>
  <circle cx="430.6" cy="93.7" r="3.5" fill="#60a5fa" stroke="#0d1117" stroke-width="1"/>
  <text x="436.6" y="93.7" text-anchor="start" fill="#60a5fa" font-size="8" font-weight="600">3</text>
  <circle cx="428.4" cy="93.7" r="3.5" fill="#60a5fa" stroke="#0d1117" stroke-width="1"/>
  <text x="422.4" y="93.7" text-anchor="end" fill="#60a5fa" font-size="8" font-weight="600">4</text>
  <path d="M479.4,249.7L452.8,233.7L446.2,223.3L443.8,212.7L440.7,199.3L438.0,179.6L435.3,160.5L423.8,140.9L420.8,138.6L395.8,122.1L393.4,118.4" fill="none" stroke="#f87171" stroke-width="1.5" stroke-opacity="0.6"/>
  <circle cx="479.4" cy="249.7" r="3.5" fill="#f87171" stroke="#0d1117" stroke-width="1"/>
  <text x="485.4" y="249.7" text-anchor="start" fill="#f87171" font-size="8" font-weight="600">-7</text>
  <circle cx="452.8" cy="233.7" r="3.5" fill="#f87171" stroke="#0d1117" stroke-width="1"/>
  <circle cx="446.2" cy="223.3" r="3.5" fill="#f87171" stroke="#0d1117" stroke-width="1"/>
  <circle cx="443.8" cy="212.7" r="3.5" fill="#f87171" stroke="#0d1117" stroke-width="1"/>
  <text x="449.8" y="212.7" text-anchor="start" fill="#f87171" font-size="8" font-weight="600">-4</text>
  <circle cx="440.7" cy="199.3" r="3.5" fill="#f87171" stroke="#0d1117" stroke-width="1"/>
  <circle cx="438.0" cy="179.6" r="3.5" fill="#f87171" stroke="#0d1117" stroke-width="1"/>
  <circle cx="435.3" cy="160.5" r="3.5" fill="#f87171" stroke="#0d1117" stroke-width="1"/>
  <text x="441.3" y="160.5" text-anchor="start" fill="#f87171" font-size="8" font-weight="600">-1</text>
  <circle cx="423.8" cy="140.9" r="3.5" fill="#f87171" stroke="#0d1117" stroke-width="1"/>
  <circle cx="420.8" cy="138.6" r="3.5" fill="#f87171" stroke="#0d1117" stroke-width="1"/>
  <circle cx="395.8" cy="122.1" r="3.5" fill="#f87171" stroke="#0d1117" stroke-width="1"/>
  <text x="401.8" y="122.1" text-anchor="start" fill="#f87171" font-size="8" font-weight="600">3</text>
  <circle cx="393.4" cy="118.4" r="3.5" fill="#f87171" stroke="#0d1117" stroke-width="1"/>
  <text x="387.4" y="118.4" text-anchor="end" fill="#f87171" font-size="8" font-weight="600">4</text>
  <path d="M352.1,175.3L350.4,166.2L349.8,155.4L348.4,142.2L345.7,127.5L342.7,114.3L338.4,107.6L337.4,103.8L326.6,100.3L276.6,105.8L276.2,104.9" fill="none" stroke="#f59e0b" stroke-width="1.5" stroke-opacity="0.6"/>
  <circle cx="352.1" cy="175.3" r="3.5" fill="#f59e0b" stroke="#0d1117" stroke-width="1"/>
  <text x="358.1" y="175.3" text-anchor="start" fill="#f59e0b" font-size="8" font-weight="600">-7</text>
  <circle cx="350.4" cy="166.2" r="3.5" fill="#f59e0b" stroke="#0d1117" stroke-width="1"/>
  <circle cx="349.8" cy="155.4" r="3.5" fill="#f59e0b" stroke="#0d1117" stroke-width="1"/>
  <circle cx="348.4" cy="142.2" r="3.5" fill="#f59e0b" stroke="#0d1117" stroke-width="1"/>
  <text x="354.4" y="142.2" text-anchor="start" fill="#f59e0b" font-size="8" font-weight="600">-4</text>
  <circle cx="345.7" cy="127.5" r="3.5" fill="#f59e0b" stroke="#0d1117" stroke-width="1"/>
  <circle cx="342.7" cy="114.3" r="3.5" fill="#f59e0b" stroke="#0d1117" stroke-width="1"/>
  <circle cx="338.4" cy="107.6" r="3.5" fill="#f59e0b" stroke="#0d1117" stroke-width="1"/>
  <text x="344.4" y="107.6" text-anchor="start" fill="#f59e0b" font-size="8" font-weight="600">-1</text>
  <circle cx="337.4" cy="103.8" r="3.5" fill="#f59e0b" stroke="#0d1117" stroke-width="1"/>
  <circle cx="326.6" cy="100.3" r="3.5" fill="#f59e0b" stroke="#0d1117" stroke-width="1"/>
  <circle cx="276.6" cy="105.8" r="3.5" fill="#f59e0b" stroke="#0d1117" stroke-width="1"/>
  <text x="282.6" y="105.8" text-anchor="start" fill="#f59e0b" font-size="8" font-weight="600">3</text>
  <circle cx="276.2" cy="104.9" r="3.5" fill="#f59e0b" stroke="#0d1117" stroke-width="1"/>
  <text x="270.2" y="104.9" text-anchor="end" fill="#f59e0b" font-size="8" font-weight="600">4</text>
  <path d="M403.2,249.7L382.7,233.7L377.2,223.3L374.2,212.7L370.1,199.3L367.0,179.6L364.3,160.5L351.4,140.9L351.0,138.6L330.8,122.1L329.7,118.4" fill="none" stroke="#f472b6" stroke-width="1.5" stroke-opacity="0.6"/>
  <circle cx="403.2" cy="249.7" r="3.5" fill="#f472b6" stroke="#0d1117" stroke-width="1"/>
  <text x="409.2" y="249.7" text-anchor="start" fill="#f472b6" font-size="8" font-weight="600">-7</text>
  <circle cx="382.7" cy="233.7" r="3.5" fill="#f472b6" stroke="#0d1117" stroke-width="1"/>
  <circle cx="377.2" cy="223.3" r="3.5" fill="#f472b6" stroke="#0d1117" stroke-width="1"/>
  <circle cx="374.2" cy="212.7" r="3.5" fill="#f472b6" stroke="#0d1117" stroke-width="1"/>
  <text x="380.2" y="212.7" text-anchor="start" fill="#f472b6" font-size="8" font-weight="600">-4</text>
  <circle cx="370.1" cy="199.3" r="3.5" fill="#f472b6" stroke="#0d1117" stroke-width="1"/>
  <circle cx="367.0" cy="179.6" r="3.5" fill="#f472b6" stroke="#0d1117" stroke-width="1"/>
  <circle cx="364.3" cy="160.5" r="3.5" fill="#f472b6" stroke="#0d1117" stroke-width="1"/>
  <text x="370.3" y="160.5" text-anchor="start" fill="#f472b6" font-size="8" font-weight="600">-1</text>
  <circle cx="351.4" cy="140.9" r="3.5" fill="#f472b6" stroke="#0d1117" stroke-width="1"/>
  <circle cx="351.0" cy="138.6" r="3.5" fill="#f472b6" stroke="#0d1117" stroke-width="1"/>
  <circle cx="330.8" cy="122.1" r="3.5" fill="#f472b6" stroke="#0d1117" stroke-width="1"/>
  <text x="336.8" y="122.1" text-anchor="start" fill="#f472b6" font-size="8" font-weight="600">3</text>
  <circle cx="329.7" cy="118.4" r="3.5" fill="#f472b6" stroke="#0d1117" stroke-width="1"/>
  <text x="323.7" y="118.4" text-anchor="end" fill="#f472b6" font-size="8" font-weight="600">4</text>
  <circle cx="193.3" cy="212.6" r="3.5" fill="#4ade80" stroke="#0d1117" stroke-width="1"/>
  <text x="199.3" y="212.6" text-anchor="start" fill="#4ade80" font-size="8" font-weight="600">L1</text>
  <circle cx="498.1" cy="230.7" r="3.5" fill="#c084fc" stroke="#0d1117" stroke-width="1"/>
  <text x="504.1" y="230.7" text-anchor="start" fill="#c084fc" font-size="8" font-weight="600">LZ4</text>
  <rect x="70" y="370" width="760" height="250" fill="#161b22" rx="4"/>
  <text x="450.0" y="362" text-anchor="middle" fill="#e6edf3" font-size="12" font-weight="600">Medium compressibility</text>
  <line x1="70" y1="606.1" x2="830" y2="606.1" stroke="#21262d" stroke-width="1"/>
  <text x="64" y="606.1" text-anchor="end" dominant-baseline="middle" fill="#7d8590" font-size="9">1.50x</text>
  <line x1="70" y1="536.7" x2="830" y2="536.7" stroke="#21262d" stroke-width="1"/>
  <text x="64" y="536.7" text-anchor="end" dominant-baseline="middle" fill="#7d8590" font-size="9">2.00x</text>
  <line x1="70" y1="467.2" x2="830" y2="467.2" stroke="#21262d" stroke-width="1"/>
  <text x="64" y="467.2" text-anchor="end" dominant-baseline="middle" fill="#7d8590" font-size="9">2.50x</text>
  <line x1="70" y1="397.8" x2="830" y2="397.8" stroke="#21262d" stroke-width="1"/>
  <text x="64" y="397.8" text-anchor="end" dominant-baseline="middle" fill="#7d8590" font-size="9">3.00x</text>
  <line x1="139.5" y1="370" x2="139.5" y2="620" stroke="#21262d" stroke-width="1"/>
  <text x="139.5" y="634" text-anchor="middle" fill="#7d8590" font-size="9">50</text>
  <line x1="233.8" y1="370" x2="233.8" y2="620" stroke="#21262d" stroke-width="1"/>
  <text x="233.8" y="634" text-anchor="middle" fill="#7d8590" font-size="9">100</text>
  <line x1="328.1" y1="370" x2="328.1" y2="620" stroke="#21262d" stroke-width="1"/>
  <text x="328.1" y="634" text-anchor="middle" fill="#7d8590" font-size="9">200</text>
  <line x1="452.8" y1="370" x2="452.8" y2="620" stroke="#21262d" stroke-width="1"/>
  <text x="452.8" y="634" text-anchor="middle" fill="#7d8590" font-size="9">500</text>
  <line x1="547.1" y1="370" x2="547.1" y2="620" stroke="#21262d" stroke-width="1"/>
  <text x="547.1" y="634" text-anchor="middle" fill="#7d8590" font-size="9">1000</text>
  <line x1="641.4" y1="370" x2="641.4" y2="620" stroke="#21262d" stroke-width="1"/>
  <text x="641.4" y="634" text-anchor="middle" fill="#7d8590" font-size="9">2000</text>
  <line x1="766.1" y1="370" x2="766.1" y2="620" stroke="#21262d" stroke-width="1"/>
  <text x="766.1" y="634" text-anchor="middle" fill="#7d8590" font-size="9">5000</text>
  <text x="450.0" y="648" text-anchor="middle" fill="#7d8590" font-size="10">encode MB/s (log scale)</text>
  <path d="M408.8,572.9L403.2,567.4L396.9,559.7L389.5,548.8L382.2,537.0L374.2,525.6L364.4,513.6L357.2,445.1L329.8,425.5L292.5,410.9L288.0,407.3" fill="none" stroke="#60a5fa" stroke-width="1.5" stroke-opacity="0.6"/>
  <circle cx="408.8" cy="572.9" r="3.5" fill="#60a5fa" stroke="#0d1117" stroke-width="1"/>
  <text x="414.8" y="572.9" text-anchor="start" fill="#60a5fa" font-size="8" font-weight="600">-7</text>
  <circle cx="403.2" cy="567.4" r="3.5" fill="#60a5fa" stroke="#0d1117" stroke-width="1"/>
  <circle cx="396.9" cy="559.7" r="3.5" fill="#60a5fa" stroke="#0d1117" stroke-width="1"/>
  <circle cx="389.5" cy="548.8" r="3.5" fill="#60a5fa" stroke="#0d1117" stroke-width="1"/>
  <text x="395.5" y="548.8" text-anchor="start" fill="#60a5fa" font-size="8" font-weight="600">-4</text>
  <circle cx="382.2" cy="537.0" r="3.5" fill="#60a5fa" stroke="#0d1117" stroke-width="1"/>
  <circle cx="374.2" cy="525.6" r="3.5" fill="#60a5fa" stroke="#0d1117" stroke-width="1"/>
  <circle cx="364.4" cy="513.6" r="3.5" fill="#60a5fa" stroke="#0d1117" stroke-width="1"/>
  <text x="370.4" y="513.6" text-anchor="start" fill="#60a5fa" font-size="8" font-weight="600">-1</text>
  <circle cx="357.2" cy="445.1" r="3.5" fill="#60a5fa" stroke="#0d1117" stroke-width="1"/>
  <circle cx="329.8" cy="425.5" r="3.5" fill="#60a5fa" stroke="#0d1117" stroke-width="1"/>
  <circle cx="292.5" cy="410.9" r="3.5" fill="#60a5fa" stroke="#0d1117" stroke-width="1"/>
  <text x="298.5" y="410.9" text-anchor="start" fill="#60a5fa" font-size="8" font-weight="600">3</text>
  <circle cx="288.0" cy="407.3" r="3.5" fill="#60a5fa" stroke="#0d1117" stroke-width="1"/>
  <text x="282.0" y="407.3" text-anchor="end" fill="#60a5fa" font-size="8" font-weight="600">4</text>
  <path d="M370.6,576.2L350.7,556.0L347.0,550.6L343.5,542.7L337.9,530.1L333.4,519.2L327.9,507.3L310.5,474.7L298.8,463.7L262.4,456.2L252.2,452.5" fill="none" stroke="#f87171" stroke-width="1.5" stroke-opacity="0.6"/>
  <circle cx="370.6" cy="576.2" r="3.5" fill="#f87171" stroke="#0d1117" stroke-width="1"/>
  <text x="376.6" y="576.2" text-anchor="start" fill="#f87171" font-size="8" font-weight="600">-7</text>
  <circle cx="350.7" cy="556.0" r="3.5" fill="#f87171" stroke="#0d1117" stroke-width="1"/>
  <circle cx="347.0" cy="550.6" r="3.5" fill="#f87171" stroke="#0d1117" stroke-width="1"/>
  <circle cx="343.5" cy="542.7" r="3.5" fill="#f87171" stroke="#0d1117" stroke-width="1"/>
  <text x="349.5" y="542.7" text-anchor="start" fill="#f87171" font-size="8" font-weight="600">-4</text>
  <circle cx="337.9" cy="530.1" r="3.5" fill="#f87171" stroke="#0d1117" stroke-width="1"/>
  <circle cx="333.4" cy="519.2" r="3.5" fill="#f87171" stroke="#0d1117" stroke-width="1"/>
  <circle cx="327.9" cy="507.3" r="3.5" fill="#f87171" stroke="#0d1117" stroke-width="1"/>
  <text x="333.9" y="507.3" text-anchor="start" fill="#f87171" font-size="8" font-weight="600">-1</text>
  <circle cx="310.5" cy="474.7" r="3.5" fill="#f87171" stroke="#0d1117" stroke-width="1"/>
  <circle cx="298.8" cy="463.7" r="3.5" fill="#f87171" stroke="#0d1117" stroke-width="1"/>
  <circle cx="262.4" cy="456.2" r="3.5" fill="#f87171" stroke="#0d1117" stroke-width="1"/>
  <text x="268.4" y="456.2" text-anchor="start" fill="#f87171" font-size="8" font-weight="600">3</text>
  <circle cx="252.2" cy="452.5" r="3.5" fill="#f87171" stroke="#0d1117" stroke-width="1"/>
  <text x="258.2" y="452.5" text-anchor="start" fill="#f87171" font-size="8" font-weight="600">4</text>
  <path d="M274.5,503.4L271.8,498.1L266.6,492.1L263.0,484.9L254.6,476.3L251.2,467.3L242.3,459.2L236.6,444.2L216.9,426.1L151.4,413.5L150.7,408.7" fill="none" stroke="#f59e0b" stroke-width="1.5" stroke-opacity="0.6"/>
  <circle cx="274.5" cy="503.4" r="3.5" fill="#f59e0b" stroke="#0d1117" stroke-width="1"/>
  <text x="280.5" y="503.4" text-anchor="start" fill="#f59e0b" font-size="8" font-weight="600">-7</text>
  <circle cx="271.8" cy="498.1" r="3.5" fill="#f59e0b" stroke="#0d1117" stroke-width="1"/>
  <circle cx="266.6" cy="492.1" r="3.5" fill="#f59e0b" stroke="#0d1117" stroke-width="1"/>
  <circle cx="263.0" cy="484.9" r="3.5" fill="#f59e0b" stroke="#0d1117" stroke-width="1"/>
  <text x="269.0" y="484.9" text-anchor="start" fill="#f59e0b" font-size="8" font-weight="600">-4</text>
  <circle cx="254.6" cy="476.3" r="3.5" fill="#f59e0b" stroke="#0d1117" stroke-width="1"/>
  <circle cx="251.2" cy="467.3" r="3.5" fill="#f59e0b" stroke="#0d1117" stroke-width="1"/>
  <circle cx="242.3" cy="459.2" r="3.5" fill="#f59e0b" stroke="#0d1117" stroke-width="1"/>
  <text x="248.3" y="459.2" text-anchor="start" fill="#f59e0b" font-size="8" font-weight="600">-1</text>
  <circle cx="236.6" cy="444.2" r="3.5" fill="#f59e0b" stroke="#0d1117" stroke-width="1"/>
  <circle cx="216.9" cy="426.1" r="3.5" fill="#f59e0b" stroke="#0d1117" stroke-width="1"/>
  <circle cx="151.4" cy="413.5" r="3.5" fill="#f59e0b" stroke="#0d1117" stroke-width="1"/>
  <text x="157.4" y="413.5" text-anchor="start" fill="#f59e0b" font-size="8" font-weight="600">3</text>
  <circle cx="150.7" cy="408.7" r="3.5" fill="#f59e0b" stroke="#0d1117" stroke-width="1"/>
  <text x="144.7" y="408.7" text-anchor="end" fill="#f59e0b" font-size="8" font-weight="600">4</text>
  <path d="M299.7,576.2L284.0,556.0L280.3,550.6L276.0,542.7L269.0,530.1L263.0,519.2L256.7,507.3L234.3,474.7L228.5,463.7L202.6,456.2L196.9,452.5" fill="none" stroke="#f472b6" stroke-width="1.5" stroke-opacity="0.6"/>
  <circle cx="299.7" cy="576.2" r="3.5" fill="#f472b6" stroke="#0d1117" stroke-width="1"/>
  <text x="305.7" y="576.2" text-anchor="start" fill="#f472b6" font-size="8" font-weight="600">-7</text>
  <circle cx="284.0" cy="556.0" r="3.5" fill="#f472b6" stroke="#0d1117" stroke-width="1"/>
  <circle cx="280.3" cy="550.6" r="3.5" fill="#f472b6" stroke="#0d1117" stroke-width="1"/>
  <circle cx="276.0" cy="542.7" r="3.5" fill="#f472b6" stroke="#0d1117" stroke-width="1"/>
  <text x="282.0" y="542.7" text-anchor="start" fill="#f472b6" font-size="8" font-weight="600">-4</text>
  <circle cx="269.0" cy="530.1" r="3.5" fill="#f472b6" stroke="#0d1117" stroke-width="1"/>
  <circle cx="263.0" cy="519.2" r="3.5" fill="#f472b6" stroke="#0d1117" stroke-width="1"/>
  <circle cx="256.7" cy="507.3" r="3.5" fill="#f472b6" stroke="#0d1117" stroke-width="1"/>
  <text x="262.7" y="507.3" text-anchor="start" fill="#f472b6" font-size="8" font-weight="600">-1</text>
  <circle cx="234.3" cy="474.7" r="3.5" fill="#f472b6" stroke="#0d1117" stroke-width="1"/>
  <circle cx="228.5" cy="463.7" r="3.5" fill="#f472b6" stroke="#0d1117" stroke-width="1"/>
  <circle cx="202.6" cy="456.2" r="3.5" fill="#f472b6" stroke="#0d1117" stroke-width="1"/>
  <text x="208.6" y="456.2" text-anchor="start" fill="#f472b6" font-size="8" font-weight="600">3</text>
  <circle cx="196.9" cy="452.5" r="3.5" fill="#f472b6" stroke="#0d1117" stroke-width="1"/>
  <text x="190.9" y="452.5" text-anchor="end" fill="#f472b6" font-size="8" font-weight="600">4</text>
  <circle cx="132.1" cy="512.1" r="3.5" fill="#4ade80" stroke="#0d1117" stroke-width="1"/>
  <text x="138.1" y="512.1" text-anchor="start" fill="#4ade80" font-size="8" font-weight="600">L1</text>
  <circle cx="409.2" cy="579.3" r="3.5" fill="#c084fc" stroke="#0d1117" stroke-width="1"/>
  <text x="415.2" y="579.3" text-anchor="start" fill="#c084fc" font-size="8" font-weight="600">LZ4</text>
  <rect x="70" y="685" width="760" height="250" fill="#161b22" rx="4"/>
  <text x="450.0" y="677" text-anchor="middle" fill="#e6edf3" font-size="12" font-weight="600">Low compressibility</text>
  <line x1="70" y1="914.2" x2="830" y2="914.2" stroke="#21262d" stroke-width="1"/>
  <text x="64" y="914.2" text-anchor="end" dominant-baseline="middle" fill="#7d8590" font-size="9">1.00x</text>
  <line x1="70" y1="872.5" x2="830" y2="872.5" stroke="#21262d" stroke-width="1"/>
  <text x="64" y="872.5" text-anchor="end" dominant-baseline="middle" fill="#7d8590" font-size="9">1.10x</text>
  <line x1="70" y1="830.8" x2="830" y2="830.8" stroke="#21262d" stroke-width="1"/>
  <text x="64" y="830.8" text-anchor="end" dominant-baseline="middle" fill="#7d8590" font-size="9">1.20x</text>
  <line x1="70" y1="789.2" x2="830" y2="789.2" stroke="#21262d" stroke-width="1"/>
  <text x="64" y="789.2" text-anchor="end" dominant-baseline="middle" fill="#7d8590" font-size="9">1.30x</text>
  <line x1="70" y1="747.5" x2="830" y2="747.5" stroke="#21262d" stroke-width="1"/>
  <text x="64" y="747.5" text-anchor="end" dominant-baseline="middle" fill="#7d8590" font-size="9">1.40x</text>
  <line x1="70" y1="705.8" x2="830" y2="705.8" stroke="#21262d" stroke-width="1"/>
  <text x="64" y="705.8" text-anchor="end" dominant-baseline="middle" fill="#7d8590" font-size="9">1.50x</text>
  <line x1="139.5" y1="685" x2="139.5" y2="935" stroke="#21262d" stroke-width="1"/>
  <text x="139.5" y="949" text-anchor="middle" fill="#7d8590" font-size="9">50</text>
  <line x1="233.8" y1="685" x2="233.8" y2="935" stroke="#21262d" stroke-width="1"/>
  <text x="233.8" y="949" text-anchor="middle" fill="#7d8590" font-size="9">100</text>
  <line x1="328.1" y1="685" x2="328.1" y2="935" stroke="#21262d" stroke-width="1"/>
  <text x="328.1" y="949" text-anchor="middle" fill="#7d8590" font-size="9">200</text>
  <line x1="452.8" y1="685" x2="452.8" y2="935" stroke="#21262d" stroke-width="1"/>
  <text x="452.8" y="949" text-anchor="middle" fill="#7d8590" font-size="9">500</text>
  <line x1="547.1" y1="685" x2="547.1" y2="935" stroke="#21262d" stroke-width="1"/>
  <text x="547.1" y="949" text-anchor="middle" fill="#7d8590" font-size="9">1000</text>
  <line x1="641.4" y1="685" x2="641.4" y2="935" stroke="#21262d" stroke-width="1"/>
  <text x="641.4" y="949" text-anchor="middle" fill="#7d8590" font-size="9">2000</text>
  <line x1="766.1" y1="685" x2="766.1" y2="935" stroke="#21262d" stroke-width="1"/>
  <text x="766.1" y="949" text-anchor="middle" fill="#7d8590" font-size="9">5000</text>
  <text x="450.0" y="963" text-anchor="middle" fill="#7d8590" font-size="10">encode MB/s (log scale)</text>
  <path d="M605.8,904.6L594.5,900.9L591.5,901.8L579.3,899.4L566.1,897.4L550.1,894.7L524.1,892.1L416.1,828.8L342.1,806.3L227.4,767.6L215.7,742.4" fill="none" stroke="#60a5fa" stroke-width="1.5" stroke-opacity="0.6"/>
  <circle cx="605.8" cy="904.6" r="3.5" fill="#60a5fa" stroke="#0d1117" stroke-width="1"/>
  <text x="611.8" y="904.6" text-anchor="start" fill="#60a5fa" font-size="8" font-weight="600">-7</text>
  <circle cx="594.5" cy="900.9" r="3.5" fill="#60a5fa" stroke="#0d1117" stroke-width="1"/>
  <circle cx="591.5" cy="901.8" r="3.5" fill="#60a5fa" stroke="#0d1117" stroke-width="1"/>
  <circle cx="579.3" cy="899.4" r="3.5" fill="#60a5fa" stroke="#0d1117" stroke-width="1"/>
  <text x="585.3" y="899.4" text-anchor="start" fill="#60a5fa" font-size="8" font-weight="600">-4</text>
  <circle cx="566.1" cy="897.4" r="3.5" fill="#60a5fa" stroke="#0d1117" stroke-width="1"/>
  <circle cx="550.1" cy="894.7" r="3.5" fill="#60a5fa" stroke="#0d1117" stroke-width="1"/>
  <circle cx="524.1" cy="892.1" r="3.5" fill="#60a5fa" stroke="#0d1117" stroke-width="1"/>
  <text x="530.1" y="892.1" text-anchor="start" fill="#60a5fa" font-size="8" font-weight="600">-1</text>
  <circle cx="416.1" cy="828.8" r="3.5" fill="#60a5fa" stroke="#0d1117" stroke-width="1"/>
  <circle cx="342.1" cy="806.3" r="3.5" fill="#60a5fa" stroke="#0d1117" stroke-width="1"/>
  <circle cx="227.4" cy="767.6" r="3.5" fill="#60a5fa" stroke="#0d1117" stroke-width="1"/>
  <text x="233.4" y="767.6" text-anchor="start" fill="#60a5fa" font-size="8" font-weight="600">3</text>
  <circle cx="215.7" cy="742.4" r="3.5" fill="#60a5fa" stroke="#0d1117" stroke-width="1"/>
  <text x="221.7" y="742.4" text-anchor="start" fill="#60a5fa" font-size="8" font-weight="600">4</text>
  <path d="M644.9,913.0L639.8,912.7L596.3,908.9L557.8,903.0L540.8,900.3L535.1,901.5L486.1,895.0L342.0,857.8L288.3,829.9L242.8,807.1L232.1,796.4" fill="none" stroke="#f87171" stroke-width="1.5" stroke-opacity="0.6"/>
  <circle cx="644.9" cy="913.0" r="3.5" fill="#f87171" stroke="#0d1117" stroke-width="1"/>
  <text x="650.9" y="913.0" text-anchor="start" fill="#f87171" font-size="8" font-weight="600">-7</text>
  <circle cx="639.8" cy="912.7" r="3.5" fill="#f87171" stroke="#0d1117" stroke-width="1"/>
  <circle cx="596.3" cy="908.9" r="3.5" fill="#f87171" stroke="#0d1117" stroke-width="1"/>
  <circle cx="557.8" cy="903.0" r="3.5" fill="#f87171" stroke="#0d1117" stroke-width="1"/>
  <text x="563.8" y="903.0" text-anchor="start" fill="#f87171" font-size="8" font-weight="600">-4</text>
  <circle cx="540.8" cy="900.3" r="3.5" fill="#f87171" stroke="#0d1117" stroke-width="1"/>
  <circle cx="535.1" cy="901.5" r="3.5" fill="#f87171" stroke="#0d1117" stroke-width="1"/>
  <circle cx="486.1" cy="895.0" r="3.5" fill="#f87171" stroke="#0d1117" stroke-width="1"/>
  <text x="492.1" y="895.0" text-anchor="start" fill="#f87171" font-size="8" font-weight="600">-1</text>
  <circle cx="342.0" cy="857.8" r="3.5" fill="#f87171" stroke="#0d1117" stroke-width="1"/>
  <circle cx="288.3" cy="829.9" r="3.5" fill="#f87171" stroke="#0d1117" stroke-width="1"/>
  <circle cx="242.8" cy="807.1" r="3.5" fill="#f87171" stroke="#0d1117" stroke-width="1"/>
  <text x="248.8" y="807.1" text-anchor="start" fill="#f87171" font-size="8" font-weight="600">3</text>
  <circle cx="232.1" cy="796.4" r="3.5" fill="#f87171" stroke="#0d1117" stroke-width="1"/>
  <text x="238.1" y="796.4" text-anchor="start" fill="#f87171" font-size="8" font-weight="600">4</text>
  <path d="M285.1,842.9L284.4,843.7L277.0,841.7L279.9,840.3L275.0,836.9L271.7,837.2L263.1,834.6L255.0,828.8L211.2,806.3L123.9,781.0L94.4,754.6" fill="none" stroke="#f59e0b" stroke-width="1.5" stroke-opacity="0.6"/>
  <circle cx="285.1" cy="842.9" r="3.5" fill="#f59e0b" stroke="#0d1117" stroke-width="1"/>
  <text x="291.1" y="842.9" text-anchor="start" fill="#f59e0b" font-size="8" font-weight="600">-7</text>
  <circle cx="284.4" cy="843.7" r="3.5" fill="#f59e0b" stroke="#0d1117" stroke-width="1"/>
  <circle cx="277.0" cy="841.7" r="3.5" fill="#f59e0b" stroke="#0d1117" stroke-width="1"/>
  <circle cx="279.9" cy="840.3" r="3.5" fill="#f59e0b" stroke="#0d1117" stroke-width="1"/>
  <text x="273.9" y="840.3" text-anchor="end" fill="#f59e0b" font-size="8" font-weight="600">-4</text>
  <circle cx="275.0" cy="836.9" r="3.5" fill="#f59e0b" stroke="#0d1117" stroke-width="1"/>
  <circle cx="271.7" cy="837.2" r="3.5" fill="#f59e0b" stroke="#0d1117" stroke-width="1"/>
  <circle cx="263.1" cy="834.6" r="3.5" fill="#f59e0b" stroke="#0d1117" stroke-width="1"/>
  <text x="257.1" y="834.6" text-anchor="end" fill="#f59e0b" font-size="8" font-weight="600">-1</text>
  <circle cx="255.0" cy="828.8" r="3.5" fill="#f59e0b" stroke="#0d1117" stroke-width="1"/>
  <circle cx="211.2" cy="806.3" r="3.5" fill="#f59e0b" stroke="#0d1117" stroke-width="1"/>
  <circle cx="123.9" cy="781.0" r="3.5" fill="#f59e0b" stroke="#0d1117" stroke-width="1"/>
  <text x="129.9" y="781.0" text-anchor="start" fill="#f59e0b" font-size="8" font-weight="600">3</text>
  <circle cx="94.4" cy="754.6" r="3.5" fill="#f59e0b" stroke="#0d1117" stroke-width="1"/>
  <text x="100.4" y="754.6" text-anchor="start" fill="#f59e0b" font-size="8" font-weight="600">4</text>
  <path d="M611.7,913.0L606.7,912.7L558.7,908.9L515.9,903.0L497.5,900.3L490.1,901.5L434.0,895.0L277.2,857.8L232.5,829.9L190.8,807.1L182.6,796.4" fill="none" stroke="#f472b6" stroke-width="1.5" stroke-opacity="0.6"/>
  <circle cx="611.7" cy="913.0" r="3.5" fill="#f472b6" stroke="#0d1117" stroke-width="1"/>
  <text x="617.7" y="913.0" text-anchor="start" fill="#f472b6" font-size="8" font-weight="600">-7</text>
  <circle cx="606.7" cy="912.7" r="3.5" fill="#f472b6" stroke="#0d1117" stroke-width="1"/>
  <circle cx="558.7" cy="908.9" r="3.5" fill="#f472b6" stroke="#0d1117" stroke-width="1"/>
  <circle cx="515.9" cy="903.0" r="3.5" fill="#f472b6" stroke="#0d1117" stroke-width="1"/>
  <text x="521.9" y="903.0" text-anchor="start" fill="#f472b6" font-size="8" font-weight="600">-4</text>
  <circle cx="497.5" cy="900.3" r="3.5" fill="#f472b6" stroke="#0d1117" stroke-width="1"/>
  <circle cx="490.1" cy="901.5" r="3.5" fill="#f472b6" stroke="#0d1117" stroke-width="1"/>
  <circle cx="434.0" cy="895.0" r="3.5" fill="#f472b6" stroke="#0d1117" stroke-width="1"/>
  <text x="440.0" y="895.0" text-anchor="start" fill="#f472b6" font-size="8" font-weight="600">-1</text>
  <circle cx="277.2" cy="857.8" r="3.5" fill="#f472b6" stroke="#0d1117" stroke-width="1"/>
  <circle cx="232.5" cy="829.9" r="3.5" fill="#f472b6" stroke="#0d1117" stroke-width="1"/>
  <circle cx="190.8" cy="807.1" r="3.5" fill="#f472b6" stroke="#0d1117" stroke-width="1"/>
  <text x="196.8" y="807.1" text-anchor="start" fill="#f472b6" font-size="8" font-weight="600">3</text>
  <circle cx="182.6" cy="796.4" r="3.5" fill="#f472b6" stroke="#0d1117" stroke-width="1"/>
  <text x="188.6" y="796.4" text-anchor="start" fill="#f472b6" font-size="8" font-weight="600">4</text>
  <circle cx="86.4" cy="842.5" r="3.5" fill="#4ade80" stroke="#0d1117" stroke-width="1"/>
  <text x="92.4" y="842.5" text-anchor="start" fill="#4ade80" font-size="8" font-weight="600">L1</text>
  <circle cx="680.5" cy="911.7" r="3.5" fill="#c084fc" stroke="#0d1117" stroke-width="1"/>
  <text x="686.5" y="911.7" text-anchor="start" fill="#c084fc" font-size="8" font-weight="600">LZ4</text>
  <text x="16" y="495.0" text-anchor="middle" fill="#e6edf3" font-size="11" font-weight="600" transform="rotate(-90,16,495.0)">compression ratio</text>
  <circle cx="95" cy="975" r="4" fill="#60a5fa"/>
  <text x="103" y="978.5" fill="#e6edf3" font-size="10" font-weight="500">C zstd 1.5.7 (libzstd)</text>
  <circle cx="275" cy="975" r="4" fill="#f87171"/>
  <text x="283" y="978.5" fill="#e6edf3" font-size="10" font-weight="500">zrip (encapsulated unsafe, Rust)</text>
  <circle cx="518" cy="975" r="4" fill="#f59e0b"/>
  <text x="526" y="978.5" fill="#e6edf3" font-size="10" font-weight="500">structured-zstd 0.0.44 (unsafe Rust)</text>
  <circle cx="48" cy="993" r="4" fill="#f472b6"/>
  <text x="56" y="996.5" fill="#e6edf3" font-size="10" font-weight="500">zrip paranoid (safe Rust, no unsafe)</text>
  <circle cx="316" cy="993" r="4" fill="#4ade80"/>
  <text x="324" y="996.5" fill="#e6edf3" font-size="10" font-weight="500">ruzstd 0.8.2 (safe Rust)</text>
  <circle cx="509" cy="993" r="4" fill="#c084fc"/>
  <text x="516" y="996.5" fill="#e6edf3" font-size="10" font-weight="500">lz4rip 0.8.5 (encapsulated unsafe, Rust, LZ4)</text>
</svg>
