<svg xmlns="http://www.w3.org/2000/svg" viewBox="0 0 850 495" font-family="system-ui, -apple-system, sans-serif">
  <rect width="850" height="495" fill="#0d1117"/>
  <text x="425.0" y="18" text-anchor="middle" fill="#e6edf3" font-size="14" font-weight="700">Encode Speed vs Compression Ratio (geomean across corpus)</text>
  <text x="425.0" y="34" text-anchor="middle" fill="#7d8590" font-size="10">Intel Core i7-8700B @ 3.20GHz, performance governor, turbo off</text>
  <rect x="70" y="55" width="340" height="360" fill="#161b22" rx="4"/>
  <text x="240.0" y="47" text-anchor="middle" fill="#e6edf3" font-size="12" font-weight="600">Compressible</text>
  <line x1="70" y1="373.4" x2="410" y2="373.4" stroke="#21262d" stroke-width="1"/>
  <text x="64" y="373.4" text-anchor="end" dominant-baseline="middle" fill="#7d8590" font-size="9">2.50x</text>
  <line x1="70" y1="308.4" x2="410" y2="308.4" stroke="#21262d" stroke-width="1"/>
  <text x="64" y="308.4" text-anchor="end" dominant-baseline="middle" fill="#7d8590" font-size="9">3.00x</text>
  <line x1="70" y1="243.5" x2="410" y2="243.5" stroke="#21262d" stroke-width="1"/>
  <text x="64" y="243.5" text-anchor="end" dominant-baseline="middle" fill="#7d8590" font-size="9">3.50x</text>
  <line x1="70" y1="178.6" x2="410" y2="178.6" stroke="#21262d" stroke-width="1"/>
  <text x="64" y="178.6" text-anchor="end" dominant-baseline="middle" fill="#7d8590" font-size="9">4.00x</text>
  <line x1="70" y1="113.6" x2="410" y2="113.6" stroke="#21262d" stroke-width="1"/>
  <text x="64" y="113.6" text-anchor="end" dominant-baseline="middle" fill="#7d8590" font-size="9">4.50x</text>
  <line x1="134.1" y1="55" x2="134.1" y2="415" stroke="#21262d" stroke-width="1"/>
  <text x="134.1" y="429" text-anchor="middle" fill="#7d8590" font-size="9">100</text>
  <line x1="203.2" y1="55" x2="203.2" y2="415" stroke="#21262d" stroke-width="1"/>
  <text x="203.2" y="429" text-anchor="middle" fill="#7d8590" font-size="9">200</text>
  <line x1="294.5" y1="55" x2="294.5" y2="415" stroke="#21262d" stroke-width="1"/>
  <text x="294.5" y="429" text-anchor="middle" fill="#7d8590" font-size="9">500</text>
  <line x1="363.6" y1="55" x2="363.6" y2="415" stroke="#21262d" stroke-width="1"/>
  <text x="363.6" y="429" text-anchor="middle" fill="#7d8590" font-size="9">1000</text>
  <text x="240.0" y="443" text-anchor="middle" fill="#7d8590" font-size="10">encode MB/s</text>
  <path d="M262.5,234.5L257.8,135.9L219.7,96.5" fill="none" stroke="#60a5fa" stroke-width="1.5" stroke-opacity="0.6"/>
  <circle cx="262.5" cy="234.5" r="3.5" fill="#60a5fa" stroke="#0d1117" stroke-width="1"/>
  <text x="268.5" y="234.5" text-anchor="start" fill="#60a5fa" font-size="8" font-weight="600">-1</text>
  <circle cx="257.8" cy="135.9" r="3.5" fill="#60a5fa" stroke="#0d1117" stroke-width="1"/>
  <text x="263.8" y="135.9" text-anchor="start" fill="#60a5fa" font-size="8" font-weight="600">1</text>
  <circle cx="219.7" cy="96.5" r="3.5" fill="#60a5fa" stroke="#0d1117" stroke-width="1"/>
  <text x="225.7" y="96.5" text-anchor="start" fill="#60a5fa" font-size="8" font-weight="600">3</text>
  <path d="M234.0,373.5L232.1,356.8L228.9,344.8L227.1,328.8L223.8,310.5L221.0,287.7L217.8,264.6L220.2,193.5L214.6,183.2L192.1,173.7L191.6,169.3" fill="none" stroke="#f87171" stroke-width="1.5" stroke-opacity="0.6"/>
  <circle cx="234.0" cy="373.5" r="3.5" fill="#f87171" stroke="#0d1117" stroke-width="1"/>
  <text x="240.0" y="373.5" text-anchor="start" fill="#f87171" font-size="8" font-weight="600">-7</text>
  <circle cx="232.1" cy="356.8" r="3.5" fill="#f87171" stroke="#0d1117" stroke-width="1"/>
  <circle cx="228.9" cy="344.8" r="3.5" fill="#f87171" stroke="#0d1117" stroke-width="1"/>
  <circle cx="227.1" cy="328.8" r="3.5" fill="#f87171" stroke="#0d1117" stroke-width="1"/>
  <text x="233.1" y="328.8" text-anchor="start" fill="#f87171" font-size="8" font-weight="600">-4</text>
  <circle cx="223.8" cy="310.5" r="3.5" fill="#f87171" stroke="#0d1117" stroke-width="1"/>
  <circle cx="221.0" cy="287.7" r="3.5" fill="#f87171" stroke="#0d1117" stroke-width="1"/>
  <circle cx="217.8" cy="264.6" r="3.5" fill="#f87171" stroke="#0d1117" stroke-width="1"/>
  <text x="223.8" y="264.6" text-anchor="start" fill="#f87171" font-size="8" font-weight="600">-1</text>
  <circle cx="220.2" cy="193.5" r="3.5" fill="#f87171" stroke="#0d1117" stroke-width="1"/>
  <circle cx="214.6" cy="183.2" r="3.5" fill="#f87171" stroke="#0d1117" stroke-width="1"/>
  <circle cx="192.1" cy="173.7" r="3.5" fill="#f87171" stroke="#0d1117" stroke-width="1"/>
  <text x="198.1" y="173.7" text-anchor="start" fill="#f87171" font-size="8" font-weight="600">3</text>
  <circle cx="191.6" cy="169.3" r="3.5" fill="#f87171" stroke="#0d1117" stroke-width="1"/>
  <text x="185.6" y="169.3" text-anchor="end" fill="#f87171" font-size="8" font-weight="600">4</text>
  <path d="M196.2,152.5L196.2,137.0L127.6,108.6" fill="none" stroke="#f59e0b" stroke-width="1.5" stroke-opacity="0.6"/>
  <circle cx="196.2" cy="152.5" r="3.5" fill="#f59e0b" stroke="#0d1117" stroke-width="1"/>
  <text x="202.2" y="152.5" text-anchor="start" fill="#f59e0b" font-size="8" font-weight="600">-1</text>
  <circle cx="196.2" cy="137.0" r="3.5" fill="#f59e0b" stroke="#0d1117" stroke-width="1"/>
  <text x="202.2" y="137.0" text-anchor="start" fill="#f59e0b" font-size="8" font-weight="600">1</text>
  <circle cx="127.6" cy="108.6" r="3.5" fill="#f59e0b" stroke="#0d1117" stroke-width="1"/>
  <text x="133.6" y="108.6" text-anchor="start" fill="#f59e0b" font-size="8" font-weight="600">3</text>
  <circle cx="288.1" cy="340.0" r="3.5" fill="#c084fc" stroke="#0d1117" stroke-width="1"/>
  <text x="294.1" y="340.0" text-anchor="start" fill="#c084fc" font-size="8" font-weight="600">-1</text>
  <rect x="440" y="55" width="390" height="360" fill="#161b22" rx="4"/>
  <text x="635.0" y="47" text-anchor="middle" fill="#e6edf3" font-size="12" font-weight="600">Incompressible</text>
  <line x1="440" y1="387.8" x2="830" y2="387.8" stroke="#21262d" stroke-width="1"/>
  <text x="434" y="387.8" text-anchor="end" dominant-baseline="middle" fill="#7d8590" font-size="9">1.20x</text>
  <line x1="440" y1="332.4" x2="830" y2="332.4" stroke="#21262d" stroke-width="1"/>
  <text x="434" y="332.4" text-anchor="end" dominant-baseline="middle" fill="#7d8590" font-size="9">1.30x</text>
  <line x1="440" y1="276.9" x2="830" y2="276.9" stroke="#21262d" stroke-width="1"/>
  <text x="434" y="276.9" text-anchor="end" dominant-baseline="middle" fill="#7d8590" font-size="9">1.40x</text>
  <line x1="440" y1="221.5" x2="830" y2="221.5" stroke="#21262d" stroke-width="1"/>
  <text x="434" y="221.5" text-anchor="end" dominant-baseline="middle" fill="#7d8590" font-size="9">1.50x</text>
  <line x1="440" y1="166.0" x2="830" y2="166.0" stroke="#21262d" stroke-width="1"/>
  <text x="434" y="166.0" text-anchor="end" dominant-baseline="middle" fill="#7d8590" font-size="9">1.60x</text>
  <line x1="440" y1="110.5" x2="830" y2="110.5" stroke="#21262d" stroke-width="1"/>
  <text x="434" y="110.5" text-anchor="end" dominant-baseline="middle" fill="#7d8590" font-size="9">1.70x</text>
  <line x1="513.5" y1="55" x2="513.5" y2="415" stroke="#21262d" stroke-width="1"/>
  <text x="513.5" y="429" text-anchor="middle" fill="#7d8590" font-size="9">100</text>
  <line x1="592.8" y1="55" x2="592.8" y2="415" stroke="#21262d" stroke-width="1"/>
  <text x="592.8" y="429" text-anchor="middle" fill="#7d8590" font-size="9">200</text>
  <line x1="697.5" y1="55" x2="697.5" y2="415" stroke="#21262d" stroke-width="1"/>
  <text x="697.5" y="429" text-anchor="middle" fill="#7d8590" font-size="9">500</text>
  <line x1="776.8" y1="55" x2="776.8" y2="415" stroke="#21262d" stroke-width="1"/>
  <text x="776.8" y="429" text-anchor="middle" fill="#7d8590" font-size="9">1000</text>
  <text x="635.0" y="443" text-anchor="middle" fill="#7d8590" font-size="10">encode MB/s</text>
  <path d="M721.6,334.8L655.9,188.2L524.2,96.5" fill="none" stroke="#60a5fa" stroke-width="1.5" stroke-opacity="0.6"/>
  <circle cx="721.6" cy="334.8" r="3.5" fill="#60a5fa" stroke="#0d1117" stroke-width="1"/>
  <text x="727.6" y="334.8" text-anchor="start" fill="#60a5fa" font-size="8" font-weight="600">-1</text>
  <circle cx="655.9" cy="188.2" r="3.5" fill="#60a5fa" stroke="#0d1117" stroke-width="1"/>
  <text x="661.9" y="188.2" text-anchor="start" fill="#60a5fa" font-size="8" font-weight="600">1</text>
  <circle cx="524.2" cy="96.5" r="3.5" fill="#60a5fa" stroke="#0d1117" stroke-width="1"/>
  <text x="530.2" y="96.5" text-anchor="start" fill="#60a5fa" font-size="8" font-weight="600">3</text>
  <path d="M724.2,330.0L714.8,316.4L706.6,313.2L699.0,312.4L688.1,304.5L655.9,294.1L617.1,283.9L590.3,240.2L555.0,192.0L531.6,166.7L529.9,144.9" fill="none" stroke="#f87171" stroke-width="1.5" stroke-opacity="0.6"/>
  <circle cx="724.2" cy="330.0" r="3.5" fill="#f87171" stroke="#0d1117" stroke-width="1"/>
  <text x="730.2" y="330.0" text-anchor="start" fill="#f87171" font-size="8" font-weight="600">-7</text>
  <circle cx="714.8" cy="316.4" r="3.5" fill="#f87171" stroke="#0d1117" stroke-width="1"/>
  <circle cx="706.6" cy="313.2" r="3.5" fill="#f87171" stroke="#0d1117" stroke-width="1"/>
  <circle cx="699.0" cy="312.4" r="3.5" fill="#f87171" stroke="#0d1117" stroke-width="1"/>
  <text x="705.0" y="312.4" text-anchor="start" fill="#f87171" font-size="8" font-weight="600">-4</text>
  <circle cx="688.1" cy="304.5" r="3.5" fill="#f87171" stroke="#0d1117" stroke-width="1"/>
  <circle cx="655.9" cy="294.1" r="3.5" fill="#f87171" stroke="#0d1117" stroke-width="1"/>
  <circle cx="617.1" cy="283.9" r="3.5" fill="#f87171" stroke="#0d1117" stroke-width="1"/>
  <text x="623.1" y="283.9" text-anchor="start" fill="#f87171" font-size="8" font-weight="600">-1</text>
  <circle cx="590.3" cy="240.2" r="3.5" fill="#f87171" stroke="#0d1117" stroke-width="1"/>
  <circle cx="555.0" cy="192.0" r="3.5" fill="#f87171" stroke="#0d1117" stroke-width="1"/>
  <circle cx="531.6" cy="166.7" r="3.5" fill="#f87171" stroke="#0d1117" stroke-width="1"/>
  <text x="537.6" y="166.7" text-anchor="start" fill="#f87171" font-size="8" font-weight="600">3</text>
  <circle cx="529.9" cy="144.9" r="3.5" fill="#f87171" stroke="#0d1117" stroke-width="1"/>
  <text x="535.9" y="144.9" text-anchor="start" fill="#f87171" font-size="8" font-weight="600">4</text>
  <path d="M580.6,199.5L575.0,188.2L458.6,111.4" fill="none" stroke="#f59e0b" stroke-width="1.5" stroke-opacity="0.6"/>
  <circle cx="580.6" cy="199.5" r="3.5" fill="#f59e0b" stroke="#0d1117" stroke-width="1"/>
  <text x="586.6" y="199.5" text-anchor="start" fill="#f59e0b" font-size="8" font-weight="600">-1</text>
  <circle cx="575.0" cy="188.2" r="3.5" fill="#f59e0b" stroke="#0d1117" stroke-width="1"/>
  <text x="581.0" y="188.2" text-anchor="start" fill="#f59e0b" font-size="8" font-weight="600">1</text>
  <circle cx="458.6" cy="111.4" r="3.5" fill="#f59e0b" stroke="#0d1117" stroke-width="1"/>
  <text x="464.6" y="111.4" text-anchor="start" fill="#f59e0b" font-size="8" font-weight="600">3</text>
  <circle cx="813.7" cy="373.5" r="3.5" fill="#c084fc" stroke="#0d1117" stroke-width="1"/>
  <text x="819.7" y="373.5" text-anchor="start" fill="#c084fc" font-size="8" font-weight="600">-1</text>
  <text x="16" y="235.0" text-anchor="middle" fill="#e6edf3" font-size="11" font-weight="600" transform="rotate(-90,16,235.0)">compression ratio</text>
  <circle cx="45" cy="457" r="4" fill="#60a5fa"/>
  <text x="53" y="460.5" fill="#e6edf3" font-size="10" font-weight="500">C zstd 1.5.7 (libzstd)</text>
  <circle cx="217" cy="457" r="4" fill="#f87171"/>
  <text x="225" y="460.5" fill="#e6edf3" font-size="10" font-weight="500">zrip (safe Rust)</text>
  <circle cx="352" cy="457" r="4" fill="#f59e0b"/>
  <text x="360" y="460.5" fill="#e6edf3" font-size="10" font-weight="500">structured-zstd 0.0.37 (unsafe Rust)</text>
  <circle cx="612" cy="457" r="4" fill="#c084fc"/>
  <text x="620" y="460.5" fill="#e6edf3" font-size="10" font-weight="500">lz4rip 0.3.1 (safe Rust, LZ4)</text>
</svg>
