<svg viewBox="0 0 830 1221" xmlns="http://www.w3.org/2000/svg" font-family="system-ui, -apple-system, sans-serif">
<rect x="0" y="0" width="830" height="1221" opacity="1" fill="#0D1117" stroke="none"/>
<text x="415" y="18" dy="0.5ex" text-anchor="middle" font-family="sans-serif" font-size="12.096774193548388" opacity="1" fill="#E6EDF3" font-weight="bold">
Decode Throughput vs Input Size (Silesia slices, C zstd L3 bitstream)
</text>
<text x="415" y="36" dy="0.5ex" text-anchor="middle" font-family="sans-serif" font-size="8.870967741935484" opacity="1" fill="#7D8590">
Linux VM on a 2018 Mac Mini, Intel Core i7-8700B @ 3.20GHz, 6 cores, performance governor, turbo off
</text>
<rect x="90" y="66" width="700" height="220" opacity="1" fill="#161B22" stroke="none"/>
<text x="440" y="54" dy="0.5ex" text-anchor="middle" font-family="sans-serif" font-size="10.483870967741936" opacity="1" fill="#E6EDF3" font-weight="bold">
dickens
</text>
<polyline fill="none" opacity="1" stroke="#30363D" stroke-width="2" points="90,286 790,286 "/>
<polyline fill="none" opacity="1" stroke="#21262D" stroke-width="1" points="118,66 118,286 "/>
<text x="118" y="302" dy="0.5ex" text-anchor="middle" font-family="sans-serif" font-size="8.064516129032258" opacity="1" fill="#7D8590">
512
</text>
<polyline fill="none" opacity="1" stroke="#21262D" stroke-width="1" points="196,66 196,286 "/>
<text x="196" y="302" dy="0.5ex" text-anchor="middle" font-family="sans-serif" font-size="8.064516129032258" opacity="1" fill="#7D8590">
1K
</text>
<polyline fill="none" opacity="1" stroke="#21262D" stroke-width="1" points="274,66 274,286 "/>
<text x="274" y="302" dy="0.5ex" text-anchor="middle" font-family="sans-serif" font-size="8.064516129032258" opacity="1" fill="#7D8590">
2K
</text>
<polyline fill="none" opacity="1" stroke="#21262D" stroke-width="1" points="352,66 352,286 "/>
<text x="352" y="302" dy="0.5ex" text-anchor="middle" font-family="sans-serif" font-size="8.064516129032258" opacity="1" fill="#7D8590">
4K
</text>
<polyline fill="none" opacity="1" stroke="#21262D" stroke-width="1" points="430,66 430,286 "/>
<text x="430" y="302" dy="0.5ex" text-anchor="middle" font-family="sans-serif" font-size="8.064516129032258" opacity="1" fill="#7D8590">
8K
</text>
<polyline fill="none" opacity="1" stroke="#21262D" stroke-width="1" points="508,66 508,286 "/>
<text x="508" y="302" dy="0.5ex" text-anchor="middle" font-family="sans-serif" font-size="8.064516129032258" opacity="1" fill="#7D8590">
16K
</text>
<polyline fill="none" opacity="1" stroke="#21262D" stroke-width="1" points="586,66 586,286 "/>
<text x="586" y="302" dy="0.5ex" text-anchor="middle" font-family="sans-serif" font-size="8.064516129032258" opacity="1" fill="#7D8590">
32K
</text>
<polyline fill="none" opacity="1" stroke="#21262D" stroke-width="1" points="664,66 664,286 "/>
<text x="664" y="302" dy="0.5ex" text-anchor="middle" font-family="sans-serif" font-size="8.064516129032258" opacity="1" fill="#7D8590">
64K
</text>
<polyline fill="none" opacity="1" stroke="#21262D" stroke-width="1" points="742,66 742,286 "/>
<text x="742" y="302" dy="0.5ex" text-anchor="middle" font-family="sans-serif" font-size="8.064516129032258" opacity="1" fill="#7D8590">
128K
</text>
<polyline fill="none" opacity="1" stroke="#21262D" stroke-width="1" points="90,237 790,237 "/>
<text x="82" y="237" dy="0.5ex" text-anchor="end" font-family="sans-serif" font-size="8.064516129032258" opacity="1" fill="#7D8590">
200
</text>
<polyline fill="none" opacity="1" stroke="#21262D" stroke-width="1" points="90,189 790,189 "/>
<text x="82" y="189" dy="0.5ex" text-anchor="end" font-family="sans-serif" font-size="8.064516129032258" opacity="1" fill="#7D8590">
400
</text>
<polyline fill="none" opacity="1" stroke="#21262D" stroke-width="1" points="90,140 790,140 "/>
<text x="82" y="140" dy="0.5ex" text-anchor="end" font-family="sans-serif" font-size="8.064516129032258" opacity="1" fill="#7D8590">
600
</text>
<polyline fill="none" opacity="1" stroke="#21262D" stroke-width="1" points="90,92 790,92 "/>
<text x="82" y="92" dy="0.5ex" text-anchor="end" font-family="sans-serif" font-size="8.064516129032258" opacity="1" fill="#7D8590">
800
</text>
<polyline fill="none" opacity="1" stroke="#60A5FA" stroke-width="2" points="118,239 196,212 274,198 352,170 430,151 508,143 586,115 664,101 742,95 "/>
<circle cx="118" cy="239" r="3" opacity="1" fill="#60A5FA" stroke="none" stroke-width="1"/>
<circle cx="196" cy="212" r="3" opacity="1" fill="#60A5FA" stroke="none" stroke-width="1"/>
<circle cx="274" cy="198" r="3" opacity="1" fill="#60A5FA" stroke="none" stroke-width="1"/>
<circle cx="352" cy="170" r="3" opacity="1" fill="#60A5FA" stroke="none" stroke-width="1"/>
<circle cx="430" cy="151" r="3" opacity="1" fill="#60A5FA" stroke="none" stroke-width="1"/>
<circle cx="508" cy="143" r="3" opacity="1" fill="#60A5FA" stroke="none" stroke-width="1"/>
<circle cx="586" cy="115" r="3" opacity="1" fill="#60A5FA" stroke="none" stroke-width="1"/>
<circle cx="664" cy="101" r="3" opacity="1" fill="#60A5FA" stroke="none" stroke-width="1"/>
<circle cx="742" cy="95" r="3" opacity="1" fill="#60A5FA" stroke="none" stroke-width="1"/>
<polyline fill="none" opacity="1" stroke="#F87171" stroke-width="2" points="118,231 196,208 274,195 352,186 430,178 508,177 586,170 664,191 742,188 "/>
<circle cx="118" cy="231" r="3" opacity="1" fill="#F87171" stroke="none" stroke-width="1"/>
<circle cx="196" cy="208" r="3" opacity="1" fill="#F87171" stroke="none" stroke-width="1"/>
<circle cx="274" cy="195" r="3" opacity="1" fill="#F87171" stroke="none" stroke-width="1"/>
<circle cx="352" cy="186" r="3" opacity="1" fill="#F87171" stroke="none" stroke-width="1"/>
<circle cx="430" cy="178" r="3" opacity="1" fill="#F87171" stroke="none" stroke-width="1"/>
<circle cx="508" cy="177" r="3" opacity="1" fill="#F87171" stroke="none" stroke-width="1"/>
<circle cx="586" cy="170" r="3" opacity="1" fill="#F87171" stroke="none" stroke-width="1"/>
<circle cx="664" cy="191" r="3" opacity="1" fill="#F87171" stroke="none" stroke-width="1"/>
<circle cx="742" cy="188" r="3" opacity="1" fill="#F87171" stroke="none" stroke-width="1"/>
<polyline fill="none" opacity="1" stroke="#F472B6" stroke-width="2" points="118,234 196,216 274,208 352,203 430,199 508,205 586,207 664,214 742,213 "/>
<circle cx="118" cy="234" r="3" opacity="1" fill="#F472B6" stroke="none" stroke-width="1"/>
<circle cx="196" cy="216" r="3" opacity="1" fill="#F472B6" stroke="none" stroke-width="1"/>
<circle cx="274" cy="208" r="3" opacity="1" fill="#F472B6" stroke="none" stroke-width="1"/>
<circle cx="352" cy="203" r="3" opacity="1" fill="#F472B6" stroke="none" stroke-width="1"/>
<circle cx="430" cy="199" r="3" opacity="1" fill="#F472B6" stroke="none" stroke-width="1"/>
<circle cx="508" cy="205" r="3" opacity="1" fill="#F472B6" stroke="none" stroke-width="1"/>
<circle cx="586" cy="207" r="3" opacity="1" fill="#F472B6" stroke="none" stroke-width="1"/>
<circle cx="664" cy="214" r="3" opacity="1" fill="#F472B6" stroke="none" stroke-width="1"/>
<circle cx="742" cy="213" r="3" opacity="1" fill="#F472B6" stroke="none" stroke-width="1"/>
<polyline fill="none" opacity="1" stroke="#F59E0B" stroke-width="2" points="118,261 196,245 274,238 352,219 430,207 508,204 586,185 664,180 742,176 "/>
<circle cx="118" cy="261" r="3" opacity="1" fill="#F59E0B" stroke="none" stroke-width="1"/>
<circle cx="196" cy="245" r="3" opacity="1" fill="#F59E0B" stroke="none" stroke-width="1"/>
<circle cx="274" cy="238" r="3" opacity="1" fill="#F59E0B" stroke="none" stroke-width="1"/>
<circle cx="352" cy="219" r="3" opacity="1" fill="#F59E0B" stroke="none" stroke-width="1"/>
<circle cx="430" cy="207" r="3" opacity="1" fill="#F59E0B" stroke="none" stroke-width="1"/>
<circle cx="508" cy="204" r="3" opacity="1" fill="#F59E0B" stroke="none" stroke-width="1"/>
<circle cx="586" cy="185" r="3" opacity="1" fill="#F59E0B" stroke="none" stroke-width="1"/>
<circle cx="664" cy="180" r="3" opacity="1" fill="#F59E0B" stroke="none" stroke-width="1"/>
<circle cx="742" cy="176" r="3" opacity="1" fill="#F59E0B" stroke="none" stroke-width="1"/>
<polyline fill="none" opacity="1" stroke="#4ADE80" stroke-width="2" points="118,271 196,264 274,261 352,258 430,256 508,257 586,253 664,252 742,251 "/>
<circle cx="118" cy="271" r="3" opacity="1" fill="#4ADE80" stroke="none" stroke-width="1"/>
<circle cx="196" cy="264" r="3" opacity="1" fill="#4ADE80" stroke="none" stroke-width="1"/>
<circle cx="274" cy="261" r="3" opacity="1" fill="#4ADE80" stroke="none" stroke-width="1"/>
<circle cx="352" cy="258" r="3" opacity="1" fill="#4ADE80" stroke="none" stroke-width="1"/>
<circle cx="430" cy="256" r="3" opacity="1" fill="#4ADE80" stroke="none" stroke-width="1"/>
<circle cx="508" cy="257" r="3" opacity="1" fill="#4ADE80" stroke="none" stroke-width="1"/>
<circle cx="586" cy="253" r="3" opacity="1" fill="#4ADE80" stroke="none" stroke-width="1"/>
<circle cx="664" cy="252" r="3" opacity="1" fill="#4ADE80" stroke="none" stroke-width="1"/>
<circle cx="742" cy="251" r="3" opacity="1" fill="#4ADE80" stroke="none" stroke-width="1"/>
<rect x="90" y="336" width="700" height="220" opacity="1" fill="#161B22" stroke="none"/>
<text x="440" y="324" dy="0.5ex" text-anchor="middle" font-family="sans-serif" font-size="10.483870967741936" opacity="1" fill="#E6EDF3" font-weight="bold">
nci
</text>
<polyline fill="none" opacity="1" stroke="#30363D" stroke-width="2" points="90,556 790,556 "/>
<polyline fill="none" opacity="1" stroke="#21262D" stroke-width="1" points="118,336 118,556 "/>
<text x="118" y="572" dy="0.5ex" text-anchor="middle" font-family="sans-serif" font-size="8.064516129032258" opacity="1" fill="#7D8590">
512
</text>
<polyline fill="none" opacity="1" stroke="#21262D" stroke-width="1" points="196,336 196,556 "/>
<text x="196" y="572" dy="0.5ex" text-anchor="middle" font-family="sans-serif" font-size="8.064516129032258" opacity="1" fill="#7D8590">
1K
</text>
<polyline fill="none" opacity="1" stroke="#21262D" stroke-width="1" points="274,336 274,556 "/>
<text x="274" y="572" dy="0.5ex" text-anchor="middle" font-family="sans-serif" font-size="8.064516129032258" opacity="1" fill="#7D8590">
2K
</text>
<polyline fill="none" opacity="1" stroke="#21262D" stroke-width="1" points="352,336 352,556 "/>
<text x="352" y="572" dy="0.5ex" text-anchor="middle" font-family="sans-serif" font-size="8.064516129032258" opacity="1" fill="#7D8590">
4K
</text>
<polyline fill="none" opacity="1" stroke="#21262D" stroke-width="1" points="430,336 430,556 "/>
<text x="430" y="572" dy="0.5ex" text-anchor="middle" font-family="sans-serif" font-size="8.064516129032258" opacity="1" fill="#7D8590">
8K
</text>
<polyline fill="none" opacity="1" stroke="#21262D" stroke-width="1" points="508,336 508,556 "/>
<text x="508" y="572" dy="0.5ex" text-anchor="middle" font-family="sans-serif" font-size="8.064516129032258" opacity="1" fill="#7D8590">
16K
</text>
<polyline fill="none" opacity="1" stroke="#21262D" stroke-width="1" points="586,336 586,556 "/>
<text x="586" y="572" dy="0.5ex" text-anchor="middle" font-family="sans-serif" font-size="8.064516129032258" opacity="1" fill="#7D8590">
32K
</text>
<polyline fill="none" opacity="1" stroke="#21262D" stroke-width="1" points="664,336 664,556 "/>
<text x="664" y="572" dy="0.5ex" text-anchor="middle" font-family="sans-serif" font-size="8.064516129032258" opacity="1" fill="#7D8590">
64K
</text>
<polyline fill="none" opacity="1" stroke="#21262D" stroke-width="1" points="742,336 742,556 "/>
<text x="742" y="572" dy="0.5ex" text-anchor="middle" font-family="sans-serif" font-size="8.064516129032258" opacity="1" fill="#7D8590">
128K
</text>
<polyline fill="none" opacity="1" stroke="#21262D" stroke-width="1" points="90,507 790,507 "/>
<text x="82" y="507" dy="0.5ex" text-anchor="end" font-family="sans-serif" font-size="8.064516129032258" opacity="1" fill="#7D8590">
500
</text>
<polyline fill="none" opacity="1" stroke="#21262D" stroke-width="1" points="90,457 790,457 "/>
<text x="82" y="457" dy="0.5ex" text-anchor="end" font-family="sans-serif" font-size="8.064516129032258" opacity="1" fill="#7D8590">
1000
</text>
<polyline fill="none" opacity="1" stroke="#21262D" stroke-width="1" points="90,408 790,408 "/>
<text x="82" y="408" dy="0.5ex" text-anchor="end" font-family="sans-serif" font-size="8.064516129032258" opacity="1" fill="#7D8590">
1500
</text>
<polyline fill="none" opacity="1" stroke="#21262D" stroke-width="1" points="90,359 790,359 "/>
<text x="82" y="359" dy="0.5ex" text-anchor="end" font-family="sans-serif" font-size="8.064516129032258" opacity="1" fill="#7D8590">
2000
</text>
<polyline fill="none" opacity="1" stroke="#60A5FA" stroke-width="2" points="118,536 196,521 274,509 352,478 430,440 508,409 586,389 664,365 742,381 "/>
<circle cx="118" cy="536" r="3" opacity="1" fill="#60A5FA" stroke="none" stroke-width="1"/>
<circle cx="196" cy="521" r="3" opacity="1" fill="#60A5FA" stroke="none" stroke-width="1"/>
<circle cx="274" cy="509" r="3" opacity="1" fill="#60A5FA" stroke="none" stroke-width="1"/>
<circle cx="352" cy="478" r="3" opacity="1" fill="#60A5FA" stroke="none" stroke-width="1"/>
<circle cx="430" cy="440" r="3" opacity="1" fill="#60A5FA" stroke="none" stroke-width="1"/>
<circle cx="508" cy="409" r="3" opacity="1" fill="#60A5FA" stroke="none" stroke-width="1"/>
<circle cx="586" cy="389" r="3" opacity="1" fill="#60A5FA" stroke="none" stroke-width="1"/>
<circle cx="664" cy="365" r="3" opacity="1" fill="#60A5FA" stroke="none" stroke-width="1"/>
<circle cx="742" cy="381" r="3" opacity="1" fill="#60A5FA" stroke="none" stroke-width="1"/>
<polyline fill="none" opacity="1" stroke="#F87171" stroke-width="2" points="118,528 196,509 274,484 352,471 430,447 508,431 586,417 664,396 742,437 "/>
<circle cx="118" cy="528" r="3" opacity="1" fill="#F87171" stroke="none" stroke-width="1"/>
<circle cx="196" cy="509" r="3" opacity="1" fill="#F87171" stroke="none" stroke-width="1"/>
<circle cx="274" cy="484" r="3" opacity="1" fill="#F87171" stroke="none" stroke-width="1"/>
<circle cx="352" cy="471" r="3" opacity="1" fill="#F87171" stroke="none" stroke-width="1"/>
<circle cx="430" cy="447" r="3" opacity="1" fill="#F87171" stroke="none" stroke-width="1"/>
<circle cx="508" cy="431" r="3" opacity="1" fill="#F87171" stroke="none" stroke-width="1"/>
<circle cx="586" cy="417" r="3" opacity="1" fill="#F87171" stroke="none" stroke-width="1"/>
<circle cx="664" cy="396" r="3" opacity="1" fill="#F87171" stroke="none" stroke-width="1"/>
<circle cx="742" cy="437" r="3" opacity="1" fill="#F87171" stroke="none" stroke-width="1"/>
<polyline fill="none" opacity="1" stroke="#F472B6" stroke-width="2" points="118,529 196,512 274,490 352,479 430,461 508,449 586,439 664,427 742,456 "/>
<circle cx="118" cy="529" r="3" opacity="1" fill="#F472B6" stroke="none" stroke-width="1"/>
<circle cx="196" cy="512" r="3" opacity="1" fill="#F472B6" stroke="none" stroke-width="1"/>
<circle cx="274" cy="490" r="3" opacity="1" fill="#F472B6" stroke="none" stroke-width="1"/>
<circle cx="352" cy="479" r="3" opacity="1" fill="#F472B6" stroke="none" stroke-width="1"/>
<circle cx="430" cy="461" r="3" opacity="1" fill="#F472B6" stroke="none" stroke-width="1"/>
<circle cx="508" cy="449" r="3" opacity="1" fill="#F472B6" stroke="none" stroke-width="1"/>
<circle cx="586" cy="439" r="3" opacity="1" fill="#F472B6" stroke="none" stroke-width="1"/>
<circle cx="664" cy="427" r="3" opacity="1" fill="#F472B6" stroke="none" stroke-width="1"/>
<circle cx="742" cy="456" r="3" opacity="1" fill="#F472B6" stroke="none" stroke-width="1"/>
<polyline fill="none" opacity="1" stroke="#F59E0B" stroke-width="2" points="118,545 196,538 274,531 352,514 430,491 508,471 586,456 664,433 742,440 "/>
<circle cx="118" cy="545" r="3" opacity="1" fill="#F59E0B" stroke="none" stroke-width="1"/>
<circle cx="196" cy="538" r="3" opacity="1" fill="#F59E0B" stroke="none" stroke-width="1"/>
<circle cx="274" cy="531" r="3" opacity="1" fill="#F59E0B" stroke="none" stroke-width="1"/>
<circle cx="352" cy="514" r="3" opacity="1" fill="#F59E0B" stroke="none" stroke-width="1"/>
<circle cx="430" cy="491" r="3" opacity="1" fill="#F59E0B" stroke="none" stroke-width="1"/>
<circle cx="508" cy="471" r="3" opacity="1" fill="#F59E0B" stroke="none" stroke-width="1"/>
<circle cx="586" cy="456" r="3" opacity="1" fill="#F59E0B" stroke="none" stroke-width="1"/>
<circle cx="664" cy="433" r="3" opacity="1" fill="#F59E0B" stroke="none" stroke-width="1"/>
<circle cx="742" cy="440" r="3" opacity="1" fill="#F59E0B" stroke="none" stroke-width="1"/>
<polyline fill="none" opacity="1" stroke="#4ADE80" stroke-width="2" points="118,548 196,543 274,537 352,531 430,524 508,520 586,520 664,514 742,516 "/>
<circle cx="118" cy="548" r="3" opacity="1" fill="#4ADE80" stroke="none" stroke-width="1"/>
<circle cx="196" cy="543" r="3" opacity="1" fill="#4ADE80" stroke="none" stroke-width="1"/>
<circle cx="274" cy="537" r="3" opacity="1" fill="#4ADE80" stroke="none" stroke-width="1"/>
<circle cx="352" cy="531" r="3" opacity="1" fill="#4ADE80" stroke="none" stroke-width="1"/>
<circle cx="430" cy="524" r="3" opacity="1" fill="#4ADE80" stroke="none" stroke-width="1"/>
<circle cx="508" cy="520" r="3" opacity="1" fill="#4ADE80" stroke="none" stroke-width="1"/>
<circle cx="586" cy="520" r="3" opacity="1" fill="#4ADE80" stroke="none" stroke-width="1"/>
<circle cx="664" cy="514" r="3" opacity="1" fill="#4ADE80" stroke="none" stroke-width="1"/>
<circle cx="742" cy="516" r="3" opacity="1" fill="#4ADE80" stroke="none" stroke-width="1"/>
<rect x="90" y="606" width="700" height="220" opacity="1" fill="#161B22" stroke="none"/>
<text x="440" y="594" dy="0.5ex" text-anchor="middle" font-family="sans-serif" font-size="10.483870967741936" opacity="1" fill="#E6EDF3" font-weight="bold">
xml
</text>
<polyline fill="none" opacity="1" stroke="#30363D" stroke-width="2" points="90,826 790,826 "/>
<polyline fill="none" opacity="1" stroke="#21262D" stroke-width="1" points="118,606 118,826 "/>
<text x="118" y="842" dy="0.5ex" text-anchor="middle" font-family="sans-serif" font-size="8.064516129032258" opacity="1" fill="#7D8590">
512
</text>
<polyline fill="none" opacity="1" stroke="#21262D" stroke-width="1" points="196,606 196,826 "/>
<text x="196" y="842" dy="0.5ex" text-anchor="middle" font-family="sans-serif" font-size="8.064516129032258" opacity="1" fill="#7D8590">
1K
</text>
<polyline fill="none" opacity="1" stroke="#21262D" stroke-width="1" points="274,606 274,826 "/>
<text x="274" y="842" dy="0.5ex" text-anchor="middle" font-family="sans-serif" font-size="8.064516129032258" opacity="1" fill="#7D8590">
2K
</text>
<polyline fill="none" opacity="1" stroke="#21262D" stroke-width="1" points="352,606 352,826 "/>
<text x="352" y="842" dy="0.5ex" text-anchor="middle" font-family="sans-serif" font-size="8.064516129032258" opacity="1" fill="#7D8590">
4K
</text>
<polyline fill="none" opacity="1" stroke="#21262D" stroke-width="1" points="430,606 430,826 "/>
<text x="430" y="842" dy="0.5ex" text-anchor="middle" font-family="sans-serif" font-size="8.064516129032258" opacity="1" fill="#7D8590">
8K
</text>
<polyline fill="none" opacity="1" stroke="#21262D" stroke-width="1" points="508,606 508,826 "/>
<text x="508" y="842" dy="0.5ex" text-anchor="middle" font-family="sans-serif" font-size="8.064516129032258" opacity="1" fill="#7D8590">
16K
</text>
<polyline fill="none" opacity="1" stroke="#21262D" stroke-width="1" points="586,606 586,826 "/>
<text x="586" y="842" dy="0.5ex" text-anchor="middle" font-family="sans-serif" font-size="8.064516129032258" opacity="1" fill="#7D8590">
32K
</text>
<polyline fill="none" opacity="1" stroke="#21262D" stroke-width="1" points="664,606 664,826 "/>
<text x="664" y="842" dy="0.5ex" text-anchor="middle" font-family="sans-serif" font-size="8.064516129032258" opacity="1" fill="#7D8590">
64K
</text>
<polyline fill="none" opacity="1" stroke="#21262D" stroke-width="1" points="742,606 742,826 "/>
<text x="742" y="842" dy="0.5ex" text-anchor="middle" font-family="sans-serif" font-size="8.064516129032258" opacity="1" fill="#7D8590">
128K
</text>
<polyline fill="none" opacity="1" stroke="#21262D" stroke-width="1" points="90,785 790,785 "/>
<text x="82" y="785" dy="0.5ex" text-anchor="end" font-family="sans-serif" font-size="8.064516129032258" opacity="1" fill="#7D8590">
500
</text>
<polyline fill="none" opacity="1" stroke="#21262D" stroke-width="1" points="90,744 790,744 "/>
<text x="82" y="744" dy="0.5ex" text-anchor="end" font-family="sans-serif" font-size="8.064516129032258" opacity="1" fill="#7D8590">
1000
</text>
<polyline fill="none" opacity="1" stroke="#21262D" stroke-width="1" points="90,704 790,704 "/>
<text x="82" y="704" dy="0.5ex" text-anchor="end" font-family="sans-serif" font-size="8.064516129032258" opacity="1" fill="#7D8590">
1500
</text>
<polyline fill="none" opacity="1" stroke="#21262D" stroke-width="1" points="90,663 790,663 "/>
<text x="82" y="663" dy="0.5ex" text-anchor="end" font-family="sans-serif" font-size="8.064516129032258" opacity="1" fill="#7D8590">
2000
</text>
<polyline fill="none" opacity="1" stroke="#21262D" stroke-width="1" points="90,622 790,622 "/>
<text x="82" y="622" dy="0.5ex" text-anchor="end" font-family="sans-serif" font-size="8.064516129032258" opacity="1" fill="#7D8590">
2500
</text>
<polyline fill="none" opacity="1" stroke="#60A5FA" stroke-width="2" points="118,808 196,797 274,790 352,764 430,731 508,687 586,642 664,635 742,659 "/>
<circle cx="118" cy="808" r="3" opacity="1" fill="#60A5FA" stroke="none" stroke-width="1"/>
<circle cx="196" cy="797" r="3" opacity="1" fill="#60A5FA" stroke="none" stroke-width="1"/>
<circle cx="274" cy="790" r="3" opacity="1" fill="#60A5FA" stroke="none" stroke-width="1"/>
<circle cx="352" cy="764" r="3" opacity="1" fill="#60A5FA" stroke="none" stroke-width="1"/>
<circle cx="430" cy="731" r="3" opacity="1" fill="#60A5FA" stroke="none" stroke-width="1"/>
<circle cx="508" cy="687" r="3" opacity="1" fill="#60A5FA" stroke="none" stroke-width="1"/>
<circle cx="586" cy="642" r="3" opacity="1" fill="#60A5FA" stroke="none" stroke-width="1"/>
<circle cx="664" cy="635" r="3" opacity="1" fill="#60A5FA" stroke="none" stroke-width="1"/>
<circle cx="742" cy="659" r="3" opacity="1" fill="#60A5FA" stroke="none" stroke-width="1"/>
<polyline fill="none" opacity="1" stroke="#F87171" stroke-width="2" points="118,797 196,790 274,778 352,756 430,732 508,707 586,682 664,668 742,710 "/>
<circle cx="118" cy="797" r="3" opacity="1" fill="#F87171" stroke="none" stroke-width="1"/>
<circle cx="196" cy="790" r="3" opacity="1" fill="#F87171" stroke="none" stroke-width="1"/>
<circle cx="274" cy="778" r="3" opacity="1" fill="#F87171" stroke="none" stroke-width="1"/>
<circle cx="352" cy="756" r="3" opacity="1" fill="#F87171" stroke="none" stroke-width="1"/>
<circle cx="430" cy="732" r="3" opacity="1" fill="#F87171" stroke="none" stroke-width="1"/>
<circle cx="508" cy="707" r="3" opacity="1" fill="#F87171" stroke="none" stroke-width="1"/>
<circle cx="586" cy="682" r="3" opacity="1" fill="#F87171" stroke="none" stroke-width="1"/>
<circle cx="664" cy="668" r="3" opacity="1" fill="#F87171" stroke="none" stroke-width="1"/>
<circle cx="742" cy="710" r="3" opacity="1" fill="#F87171" stroke="none" stroke-width="1"/>
<polyline fill="none" opacity="1" stroke="#F472B6" stroke-width="2" points="118,798 196,794 274,783 352,764 430,745 508,724 586,703 664,701 742,730 "/>
<circle cx="118" cy="798" r="3" opacity="1" fill="#F472B6" stroke="none" stroke-width="1"/>
<circle cx="196" cy="794" r="3" opacity="1" fill="#F472B6" stroke="none" stroke-width="1"/>
<circle cx="274" cy="783" r="3" opacity="1" fill="#F472B6" stroke="none" stroke-width="1"/>
<circle cx="352" cy="764" r="3" opacity="1" fill="#F472B6" stroke="none" stroke-width="1"/>
<circle cx="430" cy="745" r="3" opacity="1" fill="#F472B6" stroke="none" stroke-width="1"/>
<circle cx="508" cy="724" r="3" opacity="1" fill="#F472B6" stroke="none" stroke-width="1"/>
<circle cx="586" cy="703" r="3" opacity="1" fill="#F472B6" stroke="none" stroke-width="1"/>
<circle cx="664" cy="701" r="3" opacity="1" fill="#F472B6" stroke="none" stroke-width="1"/>
<circle cx="742" cy="730" r="3" opacity="1" fill="#F472B6" stroke="none" stroke-width="1"/>
<polyline fill="none" opacity="1" stroke="#F59E0B" stroke-width="2" points="118,817 196,811 274,807 352,792 430,773 508,748 586,722 664,714 742,721 "/>
<circle cx="118" cy="817" r="3" opacity="1" fill="#F59E0B" stroke="none" stroke-width="1"/>
<circle cx="196" cy="811" r="3" opacity="1" fill="#F59E0B" stroke="none" stroke-width="1"/>
<circle cx="274" cy="807" r="3" opacity="1" fill="#F59E0B" stroke="none" stroke-width="1"/>
<circle cx="352" cy="792" r="3" opacity="1" fill="#F59E0B" stroke="none" stroke-width="1"/>
<circle cx="430" cy="773" r="3" opacity="1" fill="#F59E0B" stroke="none" stroke-width="1"/>
<circle cx="508" cy="748" r="3" opacity="1" fill="#F59E0B" stroke="none" stroke-width="1"/>
<circle cx="586" cy="722" r="3" opacity="1" fill="#F59E0B" stroke="none" stroke-width="1"/>
<circle cx="664" cy="714" r="3" opacity="1" fill="#F59E0B" stroke="none" stroke-width="1"/>
<circle cx="742" cy="721" r="3" opacity="1" fill="#F59E0B" stroke="none" stroke-width="1"/>
<polyline fill="none" opacity="1" stroke="#4ADE80" stroke-width="2" points="118,820 196,818 274,815 352,808 430,801 508,795 586,790 664,789 742,789 "/>
<circle cx="118" cy="820" r="3" opacity="1" fill="#4ADE80" stroke="none" stroke-width="1"/>
<circle cx="196" cy="818" r="3" opacity="1" fill="#4ADE80" stroke="none" stroke-width="1"/>
<circle cx="274" cy="815" r="3" opacity="1" fill="#4ADE80" stroke="none" stroke-width="1"/>
<circle cx="352" cy="808" r="3" opacity="1" fill="#4ADE80" stroke="none" stroke-width="1"/>
<circle cx="430" cy="801" r="3" opacity="1" fill="#4ADE80" stroke="none" stroke-width="1"/>
<circle cx="508" cy="795" r="3" opacity="1" fill="#4ADE80" stroke="none" stroke-width="1"/>
<circle cx="586" cy="790" r="3" opacity="1" fill="#4ADE80" stroke="none" stroke-width="1"/>
<circle cx="664" cy="789" r="3" opacity="1" fill="#4ADE80" stroke="none" stroke-width="1"/>
<circle cx="742" cy="789" r="3" opacity="1" fill="#4ADE80" stroke="none" stroke-width="1"/>
<rect x="90" y="876" width="700" height="220" opacity="1" fill="#161B22" stroke="none"/>
<text x="440" y="864" dy="0.5ex" text-anchor="middle" font-family="sans-serif" font-size="10.483870967741936" opacity="1" fill="#E6EDF3" font-weight="bold">
x-ray
</text>
<polyline fill="none" opacity="1" stroke="#30363D" stroke-width="2" points="90,1096 790,1096 "/>
<polyline fill="none" opacity="1" stroke="#21262D" stroke-width="1" points="118,876 118,1096 "/>
<text x="118" y="1112" dy="0.5ex" text-anchor="middle" font-family="sans-serif" font-size="8.064516129032258" opacity="1" fill="#7D8590">
512
</text>
<polyline fill="none" opacity="1" stroke="#21262D" stroke-width="1" points="196,876 196,1096 "/>
<text x="196" y="1112" dy="0.5ex" text-anchor="middle" font-family="sans-serif" font-size="8.064516129032258" opacity="1" fill="#7D8590">
1K
</text>
<polyline fill="none" opacity="1" stroke="#21262D" stroke-width="1" points="274,876 274,1096 "/>
<text x="274" y="1112" dy="0.5ex" text-anchor="middle" font-family="sans-serif" font-size="8.064516129032258" opacity="1" fill="#7D8590">
2K
</text>
<polyline fill="none" opacity="1" stroke="#21262D" stroke-width="1" points="352,876 352,1096 "/>
<text x="352" y="1112" dy="0.5ex" text-anchor="middle" font-family="sans-serif" font-size="8.064516129032258" opacity="1" fill="#7D8590">
4K
</text>
<polyline fill="none" opacity="1" stroke="#21262D" stroke-width="1" points="430,876 430,1096 "/>
<text x="430" y="1112" dy="0.5ex" text-anchor="middle" font-family="sans-serif" font-size="8.064516129032258" opacity="1" fill="#7D8590">
8K
</text>
<polyline fill="none" opacity="1" stroke="#21262D" stroke-width="1" points="508,876 508,1096 "/>
<text x="508" y="1112" dy="0.5ex" text-anchor="middle" font-family="sans-serif" font-size="8.064516129032258" opacity="1" fill="#7D8590">
16K
</text>
<polyline fill="none" opacity="1" stroke="#21262D" stroke-width="1" points="586,876 586,1096 "/>
<text x="586" y="1112" dy="0.5ex" text-anchor="middle" font-family="sans-serif" font-size="8.064516129032258" opacity="1" fill="#7D8590">
32K
</text>
<polyline fill="none" opacity="1" stroke="#21262D" stroke-width="1" points="664,876 664,1096 "/>
<text x="664" y="1112" dy="0.5ex" text-anchor="middle" font-family="sans-serif" font-size="8.064516129032258" opacity="1" fill="#7D8590">
64K
</text>
<polyline fill="none" opacity="1" stroke="#21262D" stroke-width="1" points="742,876 742,1096 "/>
<text x="742" y="1112" dy="0.5ex" text-anchor="middle" font-family="sans-serif" font-size="8.064516129032258" opacity="1" fill="#7D8590">
128K
</text>
<polyline fill="none" opacity="1" stroke="#21262D" stroke-width="1" points="90,1056 790,1056 "/>
<text x="82" y="1056" dy="0.5ex" text-anchor="end" font-family="sans-serif" font-size="8.064516129032258" opacity="1" fill="#7D8590">
200
</text>
<polyline fill="none" opacity="1" stroke="#21262D" stroke-width="1" points="90,1016 790,1016 "/>
<text x="82" y="1016" dy="0.5ex" text-anchor="end" font-family="sans-serif" font-size="8.064516129032258" opacity="1" fill="#7D8590">
400
</text>
<polyline fill="none" opacity="1" stroke="#21262D" stroke-width="1" points="90,977 790,977 "/>
<text x="82" y="977" dy="0.5ex" text-anchor="end" font-family="sans-serif" font-size="8.064516129032258" opacity="1" fill="#7D8590">
600
</text>
<polyline fill="none" opacity="1" stroke="#21262D" stroke-width="1" points="90,937 790,937 "/>
<text x="82" y="937" dy="0.5ex" text-anchor="end" font-family="sans-serif" font-size="8.064516129032258" opacity="1" fill="#7D8590">
800
</text>
<polyline fill="none" opacity="1" stroke="#21262D" stroke-width="1" points="90,897 790,897 "/>
<text x="82" y="897" dy="0.5ex" text-anchor="end" font-family="sans-serif" font-size="8.064516129032258" opacity="1" fill="#7D8590">
1000
</text>
<polyline fill="none" opacity="1" stroke="#60A5FA" stroke-width="2" points="118,1063 196,1039 274,1005 352,970 430,949 508,927 586,905 664,919 742,928 "/>
<circle cx="118" cy="1063" r="3" opacity="1" fill="#60A5FA" stroke="none" stroke-width="1"/>
<circle cx="196" cy="1039" r="3" opacity="1" fill="#60A5FA" stroke="none" stroke-width="1"/>
<circle cx="274" cy="1005" r="3" opacity="1" fill="#60A5FA" stroke="none" stroke-width="1"/>
<circle cx="352" cy="970" r="3" opacity="1" fill="#60A5FA" stroke="none" stroke-width="1"/>
<circle cx="430" cy="949" r="3" opacity="1" fill="#60A5FA" stroke="none" stroke-width="1"/>
<circle cx="508" cy="927" r="3" opacity="1" fill="#60A5FA" stroke="none" stroke-width="1"/>
<circle cx="586" cy="905" r="3" opacity="1" fill="#60A5FA" stroke="none" stroke-width="1"/>
<circle cx="664" cy="919" r="3" opacity="1" fill="#60A5FA" stroke="none" stroke-width="1"/>
<circle cx="742" cy="928" r="3" opacity="1" fill="#60A5FA" stroke="none" stroke-width="1"/>
<polyline fill="none" opacity="1" stroke="#F87171" stroke-width="2" points="118,1046 196,1025 274,1008 352,996 430,990 508,990 586,986 664,990 742,1002 "/>
<circle cx="118" cy="1046" r="3" opacity="1" fill="#F87171" stroke="none" stroke-width="1"/>
<circle cx="196" cy="1025" r="3" opacity="1" fill="#F87171" stroke="none" stroke-width="1"/>
<circle cx="274" cy="1008" r="3" opacity="1" fill="#F87171" stroke="none" stroke-width="1"/>
<circle cx="352" cy="996" r="3" opacity="1" fill="#F87171" stroke="none" stroke-width="1"/>
<circle cx="430" cy="990" r="3" opacity="1" fill="#F87171" stroke="none" stroke-width="1"/>
<circle cx="508" cy="990" r="3" opacity="1" fill="#F87171" stroke="none" stroke-width="1"/>
<circle cx="586" cy="986" r="3" opacity="1" fill="#F87171" stroke="none" stroke-width="1"/>
<circle cx="664" cy="990" r="3" opacity="1" fill="#F87171" stroke="none" stroke-width="1"/>
<circle cx="742" cy="1002" r="3" opacity="1" fill="#F87171" stroke="none" stroke-width="1"/>
<polyline fill="none" opacity="1" stroke="#F472B6" stroke-width="2" points="118,1049 196,1030 274,1016 352,1006 430,1002 508,1002 586,999 664,1007 742,1015 "/>
<circle cx="118" cy="1049" r="3" opacity="1" fill="#F472B6" stroke="none" stroke-width="1"/>
<circle cx="196" cy="1030" r="3" opacity="1" fill="#F472B6" stroke="none" stroke-width="1"/>
<circle cx="274" cy="1016" r="3" opacity="1" fill="#F472B6" stroke="none" stroke-width="1"/>
<circle cx="352" cy="1006" r="3" opacity="1" fill="#F472B6" stroke="none" stroke-width="1"/>
<circle cx="430" cy="1002" r="3" opacity="1" fill="#F472B6" stroke="none" stroke-width="1"/>
<circle cx="508" cy="1002" r="3" opacity="1" fill="#F472B6" stroke="none" stroke-width="1"/>
<circle cx="586" cy="999" r="3" opacity="1" fill="#F472B6" stroke="none" stroke-width="1"/>
<circle cx="664" cy="1007" r="3" opacity="1" fill="#F472B6" stroke="none" stroke-width="1"/>
<circle cx="742" cy="1015" r="3" opacity="1" fill="#F472B6" stroke="none" stroke-width="1"/>
<polyline fill="none" opacity="1" stroke="#F59E0B" stroke-width="2" points="118,1078 196,1063 274,1041 352,1019 430,1005 508,985 586,967 664,975 742,980 "/>
<circle cx="118" cy="1078" r="3" opacity="1" fill="#F59E0B" stroke="none" stroke-width="1"/>
<circle cx="196" cy="1063" r="3" opacity="1" fill="#F59E0B" stroke="none" stroke-width="1"/>
<circle cx="274" cy="1041" r="3" opacity="1" fill="#F59E0B" stroke="none" stroke-width="1"/>
<circle cx="352" cy="1019" r="3" opacity="1" fill="#F59E0B" stroke="none" stroke-width="1"/>
<circle cx="430" cy="1005" r="3" opacity="1" fill="#F59E0B" stroke="none" stroke-width="1"/>
<circle cx="508" cy="985" r="3" opacity="1" fill="#F59E0B" stroke="none" stroke-width="1"/>
<circle cx="586" cy="967" r="3" opacity="1" fill="#F59E0B" stroke="none" stroke-width="1"/>
<circle cx="664" cy="975" r="3" opacity="1" fill="#F59E0B" stroke="none" stroke-width="1"/>
<circle cx="742" cy="980" r="3" opacity="1" fill="#F59E0B" stroke="none" stroke-width="1"/>
<polyline fill="none" opacity="1" stroke="#4ADE80" stroke-width="2" points="118,1086 196,1080 274,1074 352,1070 430,1068 508,1066 586,1064 664,1066 742,1066 "/>
<circle cx="118" cy="1086" r="3" opacity="1" fill="#4ADE80" stroke="none" stroke-width="1"/>
<circle cx="196" cy="1080" r="3" opacity="1" fill="#4ADE80" stroke="none" stroke-width="1"/>
<circle cx="274" cy="1074" r="3" opacity="1" fill="#4ADE80" stroke="none" stroke-width="1"/>
<circle cx="352" cy="1070" r="3" opacity="1" fill="#4ADE80" stroke="none" stroke-width="1"/>
<circle cx="430" cy="1068" r="3" opacity="1" fill="#4ADE80" stroke="none" stroke-width="1"/>
<circle cx="508" cy="1066" r="3" opacity="1" fill="#4ADE80" stroke="none" stroke-width="1"/>
<circle cx="586" cy="1064" r="3" opacity="1" fill="#4ADE80" stroke="none" stroke-width="1"/>
<circle cx="664" cy="1066" r="3" opacity="1" fill="#4ADE80" stroke="none" stroke-width="1"/>
<circle cx="742" cy="1066" r="3" opacity="1" fill="#4ADE80" stroke="none" stroke-width="1"/>
<text x="20" y="581" dy="0.5ex" text-anchor="middle" font-family="sans-serif" font-size="9.67741935483871" opacity="1" fill="#E6EDF3" font-weight="bold" transform="rotate(270, 20, 581)">
decode MB/s
</text>
<rect x="111" y="1145" width="12" height="12" opacity="1" fill="#60A5FA" stroke="none"/>
<text x="129" y="1151" dy="0.5ex" text-anchor="start" font-family="sans-serif" font-size="8.870967741935484" opacity="1" fill="#E6EDF3">
libzstd v1.5.7 (C)
</text>
<rect x="419" y="1145" width="12" height="12" opacity="1" fill="#F87171" stroke="none"/>
<text x="437" y="1151" dy="0.5ex" text-anchor="start" font-family="sans-serif" font-size="8.870967741935484" opacity="1" fill="#E6EDF3">
zrip (safe SIMD + encapsulated unsafe)
</text>
<rect x="111" y="1165" width="12" height="12" opacity="1" fill="#F472B6" stroke="none"/>
<text x="129" y="1171" dy="0.5ex" text-anchor="start" font-family="sans-serif" font-size="8.870967741935484" opacity="1" fill="#E6EDF3">
zrip paranoid (safe SIMD, no unsafe)
</text>
<rect x="419" y="1165" width="12" height="12" opacity="1" fill="#F59E0B" stroke="none"/>
<text x="437" y="1171" dy="0.5ex" text-anchor="start" font-family="sans-serif" font-size="8.870967741935484" opacity="1" fill="#E6EDF3">
structured-zstd v0.0.49 (unsafe)
</text>
<rect x="111" y="1185" width="12" height="12" opacity="1" fill="#4ADE80" stroke="none"/>
<text x="129" y="1191" dy="0.5ex" text-anchor="start" font-family="sans-serif" font-size="8.870967741935484" opacity="1" fill="#E6EDF3">
ruzstd v0.8.3 (safe)
</text>
</svg>
