<svg xmlns="http://www.w3.org/2000/svg" viewBox="0 0 830 1135" font-family="system-ui, -apple-system, sans-serif">
  <rect width="830" height="1135" fill="#0d1117"/>
  <text x="415.0" y="18" text-anchor="middle" fill="#e6edf3" font-size="14" font-weight="700">Decode Throughput vs Input Size (C zstd L3 bitstream)</text>
  <text x="415.0" y="34" text-anchor="middle" fill="#7d8590" font-size="10">Intel Core i7-8700B @ 3.20GHz, performance governor, turbo off</text>
  <rect x="90" y="55" width="700" height="220" fill="#161b22" rx="4"/>
  <text x="440.0" y="47" text-anchor="middle" fill="#e6edf3" font-size="12" font-weight="600">dickens</text>
  <line x1="117.8" y1="55" x2="117.8" y2="275" stroke="#21262d" stroke-width="1"/>
  <text x="117.8" y="289" text-anchor="middle" fill="#7d8590" font-size="9">512</text>
  <line x1="195.9" y1="55" x2="195.9" y2="275" stroke="#21262d" stroke-width="1"/>
  <text x="195.9" y="289" text-anchor="middle" fill="#7d8590" font-size="9">1K</text>
  <line x1="274.0" y1="55" x2="274.0" y2="275" stroke="#21262d" stroke-width="1"/>
  <text x="274.0" y="289" text-anchor="middle" fill="#7d8590" font-size="9">2K</text>
  <line x1="352.0" y1="55" x2="352.0" y2="275" stroke="#21262d" stroke-width="1"/>
  <text x="352.0" y="289" text-anchor="middle" fill="#7d8590" font-size="9">4K</text>
  <line x1="430.1" y1="55" x2="430.1" y2="275" stroke="#21262d" stroke-width="1"/>
  <text x="430.1" y="289" text-anchor="middle" fill="#7d8590" font-size="9">8K</text>
  <line x1="508.2" y1="55" x2="508.2" y2="275" stroke="#21262d" stroke-width="1"/>
  <text x="508.2" y="289" text-anchor="middle" fill="#7d8590" font-size="9">16K</text>
  <line x1="586.3" y1="55" x2="586.3" y2="275" stroke="#21262d" stroke-width="1"/>
  <text x="586.3" y="289" text-anchor="middle" fill="#7d8590" font-size="9">32K</text>
  <line x1="664.3" y1="55" x2="664.3" y2="275" stroke="#21262d" stroke-width="1"/>
  <text x="664.3" y="289" text-anchor="middle" fill="#7d8590" font-size="9">64K</text>
  <line x1="742.4" y1="55" x2="742.4" y2="275" stroke="#21262d" stroke-width="1"/>
  <text x="742.4" y="289" text-anchor="middle" fill="#7d8590" font-size="9">128K</text>
  <line x1="90" y1="226.2" x2="790" y2="226.2" stroke="#21262d" stroke-width="1"/>
  <text x="82" y="226.2" text-anchor="end" dominant-baseline="middle" fill="#7d8590" font-size="9">200</text>
  <line x1="90" y1="177.4" x2="790" y2="177.4" stroke="#21262d" stroke-width="1"/>
  <text x="82" y="177.4" text-anchor="end" dominant-baseline="middle" fill="#7d8590" font-size="9">400</text>
  <line x1="90" y1="128.6" x2="790" y2="128.6" stroke="#21262d" stroke-width="1"/>
  <text x="82" y="128.6" text-anchor="end" dominant-baseline="middle" fill="#7d8590" font-size="9">600</text>
  <line x1="90" y1="79.7" x2="790" y2="79.7" stroke="#21262d" stroke-width="1"/>
  <text x="82" y="79.7" text-anchor="end" dominant-baseline="middle" fill="#7d8590" font-size="9">800</text>
  <path d="M117.8,228.1L195.9,200.8L274.0,187.2L352.0,158.8L430.1,139.2L508.2,132.1L586.3,103.3L664.3,88.8L742.4,83.7" fill="none" stroke="#60a5fa" stroke-width="1.8"/>
  <circle cx="117.8" cy="228.1" r="2.5" fill="#60a5fa" stroke="#0d1117" stroke-width="0.8"/>
  <circle cx="195.9" cy="200.8" r="2.5" fill="#60a5fa" stroke="#0d1117" stroke-width="0.8"/>
  <circle cx="274.0" cy="187.2" r="2.5" fill="#60a5fa" stroke="#0d1117" stroke-width="0.8"/>
  <circle cx="352.0" cy="158.8" r="2.5" fill="#60a5fa" stroke="#0d1117" stroke-width="0.8"/>
  <circle cx="430.1" cy="139.2" r="2.5" fill="#60a5fa" stroke="#0d1117" stroke-width="0.8"/>
  <circle cx="508.2" cy="132.1" r="2.5" fill="#60a5fa" stroke="#0d1117" stroke-width="0.8"/>
  <circle cx="586.3" cy="103.3" r="2.5" fill="#60a5fa" stroke="#0d1117" stroke-width="0.8"/>
  <circle cx="664.3" cy="88.8" r="2.5" fill="#60a5fa" stroke="#0d1117" stroke-width="0.8"/>
  <circle cx="742.4" cy="83.7" r="2.5" fill="#60a5fa" stroke="#0d1117" stroke-width="0.8"/>
  <path d="M117.8,251.0L195.9,237.0L274.0,227.8L352.0,211.3L430.1,197.5L508.2,198.6L586.3,192.4L664.3,189.4L742.4,182.8" fill="none" stroke="#f87171" stroke-width="1.8"/>
  <circle cx="117.8" cy="251.0" r="2.5" fill="#f87171" stroke="#0d1117" stroke-width="0.8"/>
  <circle cx="195.9" cy="237.0" r="2.5" fill="#f87171" stroke="#0d1117" stroke-width="0.8"/>
  <circle cx="274.0" cy="227.8" r="2.5" fill="#f87171" stroke="#0d1117" stroke-width="0.8"/>
  <circle cx="352.0" cy="211.3" r="2.5" fill="#f87171" stroke="#0d1117" stroke-width="0.8"/>
  <circle cx="430.1" cy="197.5" r="2.5" fill="#f87171" stroke="#0d1117" stroke-width="0.8"/>
  <circle cx="508.2" cy="198.6" r="2.5" fill="#f87171" stroke="#0d1117" stroke-width="0.8"/>
  <circle cx="586.3" cy="192.4" r="2.5" fill="#f87171" stroke="#0d1117" stroke-width="0.8"/>
  <circle cx="664.3" cy="189.4" r="2.5" fill="#f87171" stroke="#0d1117" stroke-width="0.8"/>
  <circle cx="742.4" cy="182.8" r="2.5" fill="#f87171" stroke="#0d1117" stroke-width="0.8"/>
  <path d="M117.8,253.1L195.9,236.8L274.0,226.1L352.0,209.2L430.1,197.1L508.2,193.9L586.3,176.0L664.3,173.2L742.4,168.8" fill="none" stroke="#f59e0b" stroke-width="1.8"/>
  <circle cx="117.8" cy="253.1" r="2.5" fill="#f59e0b" stroke="#0d1117" stroke-width="0.8"/>
  <circle cx="195.9" cy="236.8" r="2.5" fill="#f59e0b" stroke="#0d1117" stroke-width="0.8"/>
  <circle cx="274.0" cy="226.1" r="2.5" fill="#f59e0b" stroke="#0d1117" stroke-width="0.8"/>
  <circle cx="352.0" cy="209.2" r="2.5" fill="#f59e0b" stroke="#0d1117" stroke-width="0.8"/>
  <circle cx="430.1" cy="197.1" r="2.5" fill="#f59e0b" stroke="#0d1117" stroke-width="0.8"/>
  <circle cx="508.2" cy="193.9" r="2.5" fill="#f59e0b" stroke="#0d1117" stroke-width="0.8"/>
  <circle cx="586.3" cy="176.0" r="2.5" fill="#f59e0b" stroke="#0d1117" stroke-width="0.8"/>
  <circle cx="664.3" cy="173.2" r="2.5" fill="#f59e0b" stroke="#0d1117" stroke-width="0.8"/>
  <circle cx="742.4" cy="168.8" r="2.5" fill="#f59e0b" stroke="#0d1117" stroke-width="0.8"/>
  <path d="M117.8,259.4L195.9,252.3L274.0,249.4L352.0,246.3L430.1,245.0L508.2,245.7L586.3,241.2L664.3,240.2L742.4,238.8" fill="none" stroke="#4ade80" stroke-width="1.8"/>
  <circle cx="117.8" cy="259.4" r="2.5" fill="#4ade80" stroke="#0d1117" stroke-width="0.8"/>
  <circle cx="195.9" cy="252.3" r="2.5" fill="#4ade80" stroke="#0d1117" stroke-width="0.8"/>
  <circle cx="274.0" cy="249.4" r="2.5" fill="#4ade80" stroke="#0d1117" stroke-width="0.8"/>
  <circle cx="352.0" cy="246.3" r="2.5" fill="#4ade80" stroke="#0d1117" stroke-width="0.8"/>
  <circle cx="430.1" cy="245.0" r="2.5" fill="#4ade80" stroke="#0d1117" stroke-width="0.8"/>
  <circle cx="508.2" cy="245.7" r="2.5" fill="#4ade80" stroke="#0d1117" stroke-width="0.8"/>
  <circle cx="586.3" cy="241.2" r="2.5" fill="#4ade80" stroke="#0d1117" stroke-width="0.8"/>
  <circle cx="664.3" cy="240.2" r="2.5" fill="#4ade80" stroke="#0d1117" stroke-width="0.8"/>
  <circle cx="742.4" cy="238.8" r="2.5" fill="#4ade80" stroke="#0d1117" stroke-width="0.8"/>
  <rect x="90" y="325" width="700" height="220" fill="#161b22" rx="4"/>
  <text x="440.0" y="317" text-anchor="middle" fill="#e6edf3" font-size="12" font-weight="600">hdfs</text>
  <line x1="117.8" y1="325" x2="117.8" y2="545" stroke="#21262d" stroke-width="1"/>
  <text x="117.8" y="559" text-anchor="middle" fill="#7d8590" font-size="9">512</text>
  <line x1="195.9" y1="325" x2="195.9" y2="545" stroke="#21262d" stroke-width="1"/>
  <text x="195.9" y="559" text-anchor="middle" fill="#7d8590" font-size="9">1K</text>
  <line x1="274.0" y1="325" x2="274.0" y2="545" stroke="#21262d" stroke-width="1"/>
  <text x="274.0" y="559" text-anchor="middle" fill="#7d8590" font-size="9">2K</text>
  <line x1="352.0" y1="325" x2="352.0" y2="545" stroke="#21262d" stroke-width="1"/>
  <text x="352.0" y="559" text-anchor="middle" fill="#7d8590" font-size="9">4K</text>
  <line x1="430.1" y1="325" x2="430.1" y2="545" stroke="#21262d" stroke-width="1"/>
  <text x="430.1" y="559" text-anchor="middle" fill="#7d8590" font-size="9">8K</text>
  <line x1="508.2" y1="325" x2="508.2" y2="545" stroke="#21262d" stroke-width="1"/>
  <text x="508.2" y="559" text-anchor="middle" fill="#7d8590" font-size="9">16K</text>
  <line x1="586.3" y1="325" x2="586.3" y2="545" stroke="#21262d" stroke-width="1"/>
  <text x="586.3" y="559" text-anchor="middle" fill="#7d8590" font-size="9">32K</text>
  <line x1="664.3" y1="325" x2="664.3" y2="545" stroke="#21262d" stroke-width="1"/>
  <text x="664.3" y="559" text-anchor="middle" fill="#7d8590" font-size="9">64K</text>
  <line x1="742.4" y1="325" x2="742.4" y2="545" stroke="#21262d" stroke-width="1"/>
  <text x="742.4" y="559" text-anchor="middle" fill="#7d8590" font-size="9">128K</text>
  <line x1="90" y1="512.0" x2="790" y2="512.0" stroke="#21262d" stroke-width="1"/>
  <text x="82" y="512.0" text-anchor="end" dominant-baseline="middle" fill="#7d8590" font-size="9">500</text>
  <line x1="90" y1="478.9" x2="790" y2="478.9" stroke="#21262d" stroke-width="1"/>
  <text x="82" y="478.9" text-anchor="end" dominant-baseline="middle" fill="#7d8590" font-size="9">1000</text>
  <line x1="90" y1="445.9" x2="790" y2="445.9" stroke="#21262d" stroke-width="1"/>
  <text x="82" y="445.9" text-anchor="end" dominant-baseline="middle" fill="#7d8590" font-size="9">1500</text>
  <line x1="90" y1="412.9" x2="790" y2="412.9" stroke="#21262d" stroke-width="1"/>
  <text x="82" y="412.9" text-anchor="end" dominant-baseline="middle" fill="#7d8590" font-size="9">2000</text>
  <line x1="90" y1="379.8" x2="790" y2="379.8" stroke="#21262d" stroke-width="1"/>
  <text x="82" y="379.8" text-anchor="end" dominant-baseline="middle" fill="#7d8590" font-size="9">2500</text>
  <line x1="90" y1="346.8" x2="790" y2="346.8" stroke="#21262d" stroke-width="1"/>
  <text x="82" y="346.8" text-anchor="end" dominant-baseline="middle" fill="#7d8590" font-size="9">3000</text>
  <path d="M117.8,531.8L195.9,520.0L274.0,501.5L352.0,486.8L430.1,450.6L508.2,404.1L586.3,363.8L664.3,353.7L742.4,372.0" fill="none" stroke="#60a5fa" stroke-width="1.8"/>
  <circle cx="117.8" cy="531.8" r="2.5" fill="#60a5fa" stroke="#0d1117" stroke-width="0.8"/>
  <circle cx="195.9" cy="520.0" r="2.5" fill="#60a5fa" stroke="#0d1117" stroke-width="0.8"/>
  <circle cx="274.0" cy="501.5" r="2.5" fill="#60a5fa" stroke="#0d1117" stroke-width="0.8"/>
  <circle cx="352.0" cy="486.8" r="2.5" fill="#60a5fa" stroke="#0d1117" stroke-width="0.8"/>
  <circle cx="430.1" cy="450.6" r="2.5" fill="#60a5fa" stroke="#0d1117" stroke-width="0.8"/>
  <circle cx="508.2" cy="404.1" r="2.5" fill="#60a5fa" stroke="#0d1117" stroke-width="0.8"/>
  <circle cx="586.3" cy="363.8" r="2.5" fill="#60a5fa" stroke="#0d1117" stroke-width="0.8"/>
  <circle cx="664.3" cy="353.7" r="2.5" fill="#60a5fa" stroke="#0d1117" stroke-width="0.8"/>
  <circle cx="742.4" cy="372.0" r="2.5" fill="#60a5fa" stroke="#0d1117" stroke-width="0.8"/>
  <path d="M117.8,538.3L195.9,532.5L274.0,523.4L352.0,513.9L430.1,493.3L508.2,465.9L586.3,439.9L664.3,437.9L742.4,440.4" fill="none" stroke="#f87171" stroke-width="1.8"/>
  <circle cx="117.8" cy="538.3" r="2.5" fill="#f87171" stroke="#0d1117" stroke-width="0.8"/>
  <circle cx="195.9" cy="532.5" r="2.5" fill="#f87171" stroke="#0d1117" stroke-width="0.8"/>
  <circle cx="274.0" cy="523.4" r="2.5" fill="#f87171" stroke="#0d1117" stroke-width="0.8"/>
  <circle cx="352.0" cy="513.9" r="2.5" fill="#f87171" stroke="#0d1117" stroke-width="0.8"/>
  <circle cx="430.1" cy="493.3" r="2.5" fill="#f87171" stroke="#0d1117" stroke-width="0.8"/>
  <circle cx="508.2" cy="465.9" r="2.5" fill="#f87171" stroke="#0d1117" stroke-width="0.8"/>
  <circle cx="586.3" cy="439.9" r="2.5" fill="#f87171" stroke="#0d1117" stroke-width="0.8"/>
  <circle cx="664.3" cy="437.9" r="2.5" fill="#f87171" stroke="#0d1117" stroke-width="0.8"/>
  <circle cx="742.4" cy="440.4" r="2.5" fill="#f87171" stroke="#0d1117" stroke-width="0.8"/>
  <path d="M117.8,538.8L195.9,533.2L274.0,523.5L352.0,513.5L430.1,491.2L508.2,463.9L586.3,440.0L664.3,433.2L742.4,440.4" fill="none" stroke="#f59e0b" stroke-width="1.8"/>
  <circle cx="117.8" cy="538.8" r="2.5" fill="#f59e0b" stroke="#0d1117" stroke-width="0.8"/>
  <circle cx="195.9" cy="533.2" r="2.5" fill="#f59e0b" stroke="#0d1117" stroke-width="0.8"/>
  <circle cx="274.0" cy="523.5" r="2.5" fill="#f59e0b" stroke="#0d1117" stroke-width="0.8"/>
  <circle cx="352.0" cy="513.5" r="2.5" fill="#f59e0b" stroke="#0d1117" stroke-width="0.8"/>
  <circle cx="430.1" cy="491.2" r="2.5" fill="#f59e0b" stroke="#0d1117" stroke-width="0.8"/>
  <circle cx="508.2" cy="463.9" r="2.5" fill="#f59e0b" stroke="#0d1117" stroke-width="0.8"/>
  <circle cx="586.3" cy="440.0" r="2.5" fill="#f59e0b" stroke="#0d1117" stroke-width="0.8"/>
  <circle cx="664.3" cy="433.2" r="2.5" fill="#f59e0b" stroke="#0d1117" stroke-width="0.8"/>
  <circle cx="742.4" cy="440.4" r="2.5" fill="#f59e0b" stroke="#0d1117" stroke-width="0.8"/>
  <path d="M117.8,540.5L195.9,536.9L274.0,531.1L352.0,525.3L430.1,517.0L508.2,509.5L586.3,505.8L664.3,506.7L742.4,507.1" fill="none" stroke="#4ade80" stroke-width="1.8"/>
  <circle cx="117.8" cy="540.5" r="2.5" fill="#4ade80" stroke="#0d1117" stroke-width="0.8"/>
  <circle cx="195.9" cy="536.9" r="2.5" fill="#4ade80" stroke="#0d1117" stroke-width="0.8"/>
  <circle cx="274.0" cy="531.1" r="2.5" fill="#4ade80" stroke="#0d1117" stroke-width="0.8"/>
  <circle cx="352.0" cy="525.3" r="2.5" fill="#4ade80" stroke="#0d1117" stroke-width="0.8"/>
  <circle cx="430.1" cy="517.0" r="2.5" fill="#4ade80" stroke="#0d1117" stroke-width="0.8"/>
  <circle cx="508.2" cy="509.5" r="2.5" fill="#4ade80" stroke="#0d1117" stroke-width="0.8"/>
  <circle cx="586.3" cy="505.8" r="2.5" fill="#4ade80" stroke="#0d1117" stroke-width="0.8"/>
  <circle cx="664.3" cy="506.7" r="2.5" fill="#4ade80" stroke="#0d1117" stroke-width="0.8"/>
  <circle cx="742.4" cy="507.1" r="2.5" fill="#4ade80" stroke="#0d1117" stroke-width="0.8"/>
  <rect x="90" y="595" width="700" height="220" fill="#161b22" rx="4"/>
  <text x="440.0" y="587" text-anchor="middle" fill="#e6edf3" font-size="12" font-weight="600">xml collection</text>
  <line x1="117.8" y1="595" x2="117.8" y2="815" stroke="#21262d" stroke-width="1"/>
  <text x="117.8" y="829" text-anchor="middle" fill="#7d8590" font-size="9">512</text>
  <line x1="195.9" y1="595" x2="195.9" y2="815" stroke="#21262d" stroke-width="1"/>
  <text x="195.9" y="829" text-anchor="middle" fill="#7d8590" font-size="9">1K</text>
  <line x1="274.0" y1="595" x2="274.0" y2="815" stroke="#21262d" stroke-width="1"/>
  <text x="274.0" y="829" text-anchor="middle" fill="#7d8590" font-size="9">2K</text>
  <line x1="352.0" y1="595" x2="352.0" y2="815" stroke="#21262d" stroke-width="1"/>
  <text x="352.0" y="829" text-anchor="middle" fill="#7d8590" font-size="9">4K</text>
  <line x1="430.1" y1="595" x2="430.1" y2="815" stroke="#21262d" stroke-width="1"/>
  <text x="430.1" y="829" text-anchor="middle" fill="#7d8590" font-size="9">8K</text>
  <line x1="508.2" y1="595" x2="508.2" y2="815" stroke="#21262d" stroke-width="1"/>
  <text x="508.2" y="829" text-anchor="middle" fill="#7d8590" font-size="9">16K</text>
  <line x1="586.3" y1="595" x2="586.3" y2="815" stroke="#21262d" stroke-width="1"/>
  <text x="586.3" y="829" text-anchor="middle" fill="#7d8590" font-size="9">32K</text>
  <line x1="664.3" y1="595" x2="664.3" y2="815" stroke="#21262d" stroke-width="1"/>
  <text x="664.3" y="829" text-anchor="middle" fill="#7d8590" font-size="9">64K</text>
  <line x1="742.4" y1="595" x2="742.4" y2="815" stroke="#21262d" stroke-width="1"/>
  <text x="742.4" y="829" text-anchor="middle" fill="#7d8590" font-size="9">128K</text>
  <line x1="90" y1="756.2" x2="790" y2="756.2" stroke="#21262d" stroke-width="1"/>
  <text x="82" y="756.2" text-anchor="end" dominant-baseline="middle" fill="#7d8590" font-size="9">1000</text>
  <line x1="90" y1="697.4" x2="790" y2="697.4" stroke="#21262d" stroke-width="1"/>
  <text x="82" y="697.4" text-anchor="end" dominant-baseline="middle" fill="#7d8590" font-size="9">2000</text>
  <line x1="90" y1="638.6" x2="790" y2="638.6" stroke="#21262d" stroke-width="1"/>
  <text x="82" y="638.6" text-anchor="end" dominant-baseline="middle" fill="#7d8590" font-size="9">3000</text>
  <path d="M117.8,805.8L195.9,800.2L274.0,791.4L352.0,780.1L430.1,770.3L508.2,744.9L586.3,703.7L664.3,653.0L742.4,623.7" fill="none" stroke="#60a5fa" stroke-width="1.8"/>
  <circle cx="117.8" cy="805.8" r="2.5" fill="#60a5fa" stroke="#0d1117" stroke-width="0.8"/>
  <circle cx="195.9" cy="800.2" r="2.5" fill="#60a5fa" stroke="#0d1117" stroke-width="0.8"/>
  <circle cx="274.0" cy="791.4" r="2.5" fill="#60a5fa" stroke="#0d1117" stroke-width="0.8"/>
  <circle cx="352.0" cy="780.1" r="2.5" fill="#60a5fa" stroke="#0d1117" stroke-width="0.8"/>
  <circle cx="430.1" cy="770.3" r="2.5" fill="#60a5fa" stroke="#0d1117" stroke-width="0.8"/>
  <circle cx="508.2" cy="744.9" r="2.5" fill="#60a5fa" stroke="#0d1117" stroke-width="0.8"/>
  <circle cx="586.3" cy="703.7" r="2.5" fill="#60a5fa" stroke="#0d1117" stroke-width="0.8"/>
  <circle cx="664.3" cy="653.0" r="2.5" fill="#60a5fa" stroke="#0d1117" stroke-width="0.8"/>
  <circle cx="742.4" cy="623.7" r="2.5" fill="#60a5fa" stroke="#0d1117" stroke-width="0.8"/>
  <path d="M117.8,809.7L195.9,806.8L274.0,801.8L352.0,794.3L430.1,787.4L508.2,771.2L586.3,744.3L664.3,720.0L742.4,694.6" fill="none" stroke="#f87171" stroke-width="1.8"/>
  <circle cx="117.8" cy="809.7" r="2.5" fill="#f87171" stroke="#0d1117" stroke-width="0.8"/>
  <circle cx="195.9" cy="806.8" r="2.5" fill="#f87171" stroke="#0d1117" stroke-width="0.8"/>
  <circle cx="274.0" cy="801.8" r="2.5" fill="#f87171" stroke="#0d1117" stroke-width="0.8"/>
  <circle cx="352.0" cy="794.3" r="2.5" fill="#f87171" stroke="#0d1117" stroke-width="0.8"/>
  <circle cx="430.1" cy="787.4" r="2.5" fill="#f87171" stroke="#0d1117" stroke-width="0.8"/>
  <circle cx="508.2" cy="771.2" r="2.5" fill="#f87171" stroke="#0d1117" stroke-width="0.8"/>
  <circle cx="586.3" cy="744.3" r="2.5" fill="#f87171" stroke="#0d1117" stroke-width="0.8"/>
  <circle cx="664.3" cy="720.0" r="2.5" fill="#f87171" stroke="#0d1117" stroke-width="0.8"/>
  <circle cx="742.4" cy="694.6" r="2.5" fill="#f87171" stroke="#0d1117" stroke-width="0.8"/>
  <path d="M117.8,810.4L195.9,807.2L274.0,802.2L352.0,795.7L430.1,789.6L508.2,775.3L586.3,751.7L664.3,723.6L742.4,697.0" fill="none" stroke="#f59e0b" stroke-width="1.8"/>
  <circle cx="117.8" cy="810.4" r="2.5" fill="#f59e0b" stroke="#0d1117" stroke-width="0.8"/>
  <circle cx="195.9" cy="807.2" r="2.5" fill="#f59e0b" stroke="#0d1117" stroke-width="0.8"/>
  <circle cx="274.0" cy="802.2" r="2.5" fill="#f59e0b" stroke="#0d1117" stroke-width="0.8"/>
  <circle cx="352.0" cy="795.7" r="2.5" fill="#f59e0b" stroke="#0d1117" stroke-width="0.8"/>
  <circle cx="430.1" cy="789.6" r="2.5" fill="#f59e0b" stroke="#0d1117" stroke-width="0.8"/>
  <circle cx="508.2" cy="775.3" r="2.5" fill="#f59e0b" stroke="#0d1117" stroke-width="0.8"/>
  <circle cx="586.3" cy="751.7" r="2.5" fill="#f59e0b" stroke="#0d1117" stroke-width="0.8"/>
  <circle cx="664.3" cy="723.6" r="2.5" fill="#f59e0b" stroke="#0d1117" stroke-width="0.8"/>
  <circle cx="742.4" cy="697.0" r="2.5" fill="#f59e0b" stroke="#0d1117" stroke-width="0.8"/>
  <path d="M117.8,811.4L195.9,809.5L274.0,807.5L352.0,805.3L430.1,803.8L508.2,799.0L586.3,791.2L664.3,783.2L742.4,774.8" fill="none" stroke="#4ade80" stroke-width="1.8"/>
  <circle cx="117.8" cy="811.4" r="2.5" fill="#4ade80" stroke="#0d1117" stroke-width="0.8"/>
  <circle cx="195.9" cy="809.5" r="2.5" fill="#4ade80" stroke="#0d1117" stroke-width="0.8"/>
  <circle cx="274.0" cy="807.5" r="2.5" fill="#4ade80" stroke="#0d1117" stroke-width="0.8"/>
  <circle cx="352.0" cy="805.3" r="2.5" fill="#4ade80" stroke="#0d1117" stroke-width="0.8"/>
  <circle cx="430.1" cy="803.8" r="2.5" fill="#4ade80" stroke="#0d1117" stroke-width="0.8"/>
  <circle cx="508.2" cy="799.0" r="2.5" fill="#4ade80" stroke="#0d1117" stroke-width="0.8"/>
  <circle cx="586.3" cy="791.2" r="2.5" fill="#4ade80" stroke="#0d1117" stroke-width="0.8"/>
  <circle cx="664.3" cy="783.2" r="2.5" fill="#4ade80" stroke="#0d1117" stroke-width="0.8"/>
  <circle cx="742.4" cy="774.8" r="2.5" fill="#4ade80" stroke="#0d1117" stroke-width="0.8"/>
  <rect x="90" y="865" width="700" height="220" fill="#161b22" rx="4"/>
  <text x="440.0" y="857" text-anchor="middle" fill="#e6edf3" font-size="12" font-weight="600">x-ray</text>
  <line x1="117.8" y1="865" x2="117.8" y2="1085" stroke="#21262d" stroke-width="1"/>
  <text x="117.8" y="1099" text-anchor="middle" fill="#7d8590" font-size="9">512</text>
  <line x1="195.9" y1="865" x2="195.9" y2="1085" stroke="#21262d" stroke-width="1"/>
  <text x="195.9" y="1099" text-anchor="middle" fill="#7d8590" font-size="9">1K</text>
  <line x1="274.0" y1="865" x2="274.0" y2="1085" stroke="#21262d" stroke-width="1"/>
  <text x="274.0" y="1099" text-anchor="middle" fill="#7d8590" font-size="9">2K</text>
  <line x1="352.0" y1="865" x2="352.0" y2="1085" stroke="#21262d" stroke-width="1"/>
  <text x="352.0" y="1099" text-anchor="middle" fill="#7d8590" font-size="9">4K</text>
  <line x1="430.1" y1="865" x2="430.1" y2="1085" stroke="#21262d" stroke-width="1"/>
  <text x="430.1" y="1099" text-anchor="middle" fill="#7d8590" font-size="9">8K</text>
  <line x1="508.2" y1="865" x2="508.2" y2="1085" stroke="#21262d" stroke-width="1"/>
  <text x="508.2" y="1099" text-anchor="middle" fill="#7d8590" font-size="9">16K</text>
  <line x1="586.3" y1="865" x2="586.3" y2="1085" stroke="#21262d" stroke-width="1"/>
  <text x="586.3" y="1099" text-anchor="middle" fill="#7d8590" font-size="9">32K</text>
  <line x1="664.3" y1="865" x2="664.3" y2="1085" stroke="#21262d" stroke-width="1"/>
  <text x="664.3" y="1099" text-anchor="middle" fill="#7d8590" font-size="9">64K</text>
  <line x1="742.4" y1="865" x2="742.4" y2="1085" stroke="#21262d" stroke-width="1"/>
  <text x="742.4" y="1099" text-anchor="middle" fill="#7d8590" font-size="9">128K</text>
  <line x1="90" y1="1045.1" x2="790" y2="1045.1" stroke="#21262d" stroke-width="1"/>
  <text x="82" y="1045.1" text-anchor="end" dominant-baseline="middle" fill="#7d8590" font-size="9">200</text>
  <line x1="90" y1="1005.2" x2="790" y2="1005.2" stroke="#21262d" stroke-width="1"/>
  <text x="82" y="1005.2" text-anchor="end" dominant-baseline="middle" fill="#7d8590" font-size="9">400</text>
  <line x1="90" y1="965.3" x2="790" y2="965.3" stroke="#21262d" stroke-width="1"/>
  <text x="82" y="965.3" text-anchor="end" dominant-baseline="middle" fill="#7d8590" font-size="9">600</text>
  <line x1="90" y1="925.5" x2="790" y2="925.5" stroke="#21262d" stroke-width="1"/>
  <text x="82" y="925.5" text-anchor="end" dominant-baseline="middle" fill="#7d8590" font-size="9">800</text>
  <line x1="90" y1="885.6" x2="790" y2="885.6" stroke="#21262d" stroke-width="1"/>
  <text x="82" y="885.6" text-anchor="end" dominant-baseline="middle" fill="#7d8590" font-size="9">1000</text>
  <path d="M117.8,1051.9L195.9,1027.7L274.0,993.9L352.0,958.9L430.1,937.6L508.2,915.4L586.3,893.7L664.3,907.8L742.4,916.0" fill="none" stroke="#60a5fa" stroke-width="1.8"/>
  <circle cx="117.8" cy="1051.9" r="2.5" fill="#60a5fa" stroke="#0d1117" stroke-width="0.8"/>
  <circle cx="195.9" cy="1027.7" r="2.5" fill="#60a5fa" stroke="#0d1117" stroke-width="0.8"/>
  <circle cx="274.0" cy="993.9" r="2.5" fill="#60a5fa" stroke="#0d1117" stroke-width="0.8"/>
  <circle cx="352.0" cy="958.9" r="2.5" fill="#60a5fa" stroke="#0d1117" stroke-width="0.8"/>
  <circle cx="430.1" cy="937.6" r="2.5" fill="#60a5fa" stroke="#0d1117" stroke-width="0.8"/>
  <circle cx="508.2" cy="915.4" r="2.5" fill="#60a5fa" stroke="#0d1117" stroke-width="0.8"/>
  <circle cx="586.3" cy="893.7" r="2.5" fill="#60a5fa" stroke="#0d1117" stroke-width="0.8"/>
  <circle cx="664.3" cy="907.8" r="2.5" fill="#60a5fa" stroke="#0d1117" stroke-width="0.8"/>
  <circle cx="742.4" cy="916.0" r="2.5" fill="#60a5fa" stroke="#0d1117" stroke-width="0.8"/>
  <path d="M117.8,1069.6L195.9,1059.2L274.0,1045.1L352.0,1030.8L430.1,1020.3L508.2,1008.3L586.3,999.7L664.3,1003.5L742.4,1007.5" fill="none" stroke="#f87171" stroke-width="1.8"/>
  <circle cx="117.8" cy="1069.6" r="2.5" fill="#f87171" stroke="#0d1117" stroke-width="0.8"/>
  <circle cx="195.9" cy="1059.2" r="2.5" fill="#f87171" stroke="#0d1117" stroke-width="0.8"/>
  <circle cx="274.0" cy="1045.1" r="2.5" fill="#f87171" stroke="#0d1117" stroke-width="0.8"/>
  <circle cx="352.0" cy="1030.8" r="2.5" fill="#f87171" stroke="#0d1117" stroke-width="0.8"/>
  <circle cx="430.1" cy="1020.3" r="2.5" fill="#f87171" stroke="#0d1117" stroke-width="0.8"/>
  <circle cx="508.2" cy="1008.3" r="2.5" fill="#f87171" stroke="#0d1117" stroke-width="0.8"/>
  <circle cx="586.3" cy="999.7" r="2.5" fill="#f87171" stroke="#0d1117" stroke-width="0.8"/>
  <circle cx="664.3" cy="1003.5" r="2.5" fill="#f87171" stroke="#0d1117" stroke-width="0.8"/>
  <circle cx="742.4" cy="1007.5" r="2.5" fill="#f87171" stroke="#0d1117" stroke-width="0.8"/>
  <path d="M117.8,1069.0L195.9,1055.3L274.0,1035.4L352.0,1011.7L430.1,992.3L508.2,973.8L586.3,956.9L664.3,966.3L742.4,971.2" fill="none" stroke="#f59e0b" stroke-width="1.8"/>
  <circle cx="117.8" cy="1069.0" r="2.5" fill="#f59e0b" stroke="#0d1117" stroke-width="0.8"/>
  <circle cx="195.9" cy="1055.3" r="2.5" fill="#f59e0b" stroke="#0d1117" stroke-width="0.8"/>
  <circle cx="274.0" cy="1035.4" r="2.5" fill="#f59e0b" stroke="#0d1117" stroke-width="0.8"/>
  <circle cx="352.0" cy="1011.7" r="2.5" fill="#f59e0b" stroke="#0d1117" stroke-width="0.8"/>
  <circle cx="430.1" cy="992.3" r="2.5" fill="#f59e0b" stroke="#0d1117" stroke-width="0.8"/>
  <circle cx="508.2" cy="973.8" r="2.5" fill="#f59e0b" stroke="#0d1117" stroke-width="0.8"/>
  <circle cx="586.3" cy="956.9" r="2.5" fill="#f59e0b" stroke="#0d1117" stroke-width="0.8"/>
  <circle cx="664.3" cy="966.3" r="2.5" fill="#f59e0b" stroke="#0d1117" stroke-width="0.8"/>
  <circle cx="742.4" cy="971.2" r="2.5" fill="#f59e0b" stroke="#0d1117" stroke-width="0.8"/>
  <path d="M117.8,1074.4L195.9,1068.5L274.0,1062.6L352.0,1058.2L430.1,1055.9L508.2,1053.6L586.3,1051.8L664.3,1053.7L742.4,1054.5" fill="none" stroke="#4ade80" stroke-width="1.8"/>
  <circle cx="117.8" cy="1074.4" r="2.5" fill="#4ade80" stroke="#0d1117" stroke-width="0.8"/>
  <circle cx="195.9" cy="1068.5" r="2.5" fill="#4ade80" stroke="#0d1117" stroke-width="0.8"/>
  <circle cx="274.0" cy="1062.6" r="2.5" fill="#4ade80" stroke="#0d1117" stroke-width="0.8"/>
  <circle cx="352.0" cy="1058.2" r="2.5" fill="#4ade80" stroke="#0d1117" stroke-width="0.8"/>
  <circle cx="430.1" cy="1055.9" r="2.5" fill="#4ade80" stroke="#0d1117" stroke-width="0.8"/>
  <circle cx="508.2" cy="1053.6" r="2.5" fill="#4ade80" stroke="#0d1117" stroke-width="0.8"/>
  <circle cx="586.3" cy="1051.8" r="2.5" fill="#4ade80" stroke="#0d1117" stroke-width="0.8"/>
  <circle cx="664.3" cy="1053.7" r="2.5" fill="#4ade80" stroke="#0d1117" stroke-width="0.8"/>
  <circle cx="742.4" cy="1054.5" r="2.5" fill="#4ade80" stroke="#0d1117" stroke-width="0.8"/>
  <text x="20" y="570.0" text-anchor="middle" fill="#e6edf3" font-size="11" font-weight="600" transform="rotate(-90,20,570.0)">decode MB/s</text>
  <circle cx="19" cy="1120" r="4" fill="#60a5fa"/>
  <text x="27" y="1123.5" fill="#e6edf3" font-size="10" font-weight="500">libzstd v1.5.7 (C)</text>
  <circle cx="167" cy="1120" r="4" fill="#f87171"/>
  <text x="175" y="1123.5" fill="#e6edf3" font-size="10" font-weight="500">zrip (safe SIMD + encapsulated unsafe)</text>
  <circle cx="438" cy="1120" r="4" fill="#f59e0b"/>
  <text x="446" y="1123.5" fill="#e6edf3" font-size="10" font-weight="500">structured-zstd v0.0.48 (unsafe)</text>
  <circle cx="673" cy="1120" r="4" fill="#4ade80"/>
  <text x="681" y="1123.5" fill="#e6edf3" font-size="10" font-weight="500">ruzstd v0.8.3 (safe)</text>
</svg>
