<svg xmlns="http://www.w3.org/2000/svg" viewBox="0 0 830 1135" font-family="system-ui, -apple-system, sans-serif">
  <rect width="830" height="1135" fill="#0d1117"/>
  <text x="415.0" y="18" text-anchor="middle" fill="#e6edf3" font-size="14" font-weight="700">Decode Throughput vs Input Size (C zstd L3 bitstream)</text>
  <text x="415.0" y="34" text-anchor="middle" fill="#7d8590" font-size="10">Intel Core i7-8700B @ 3.20GHz, performance governor, turbo off</text>
  <rect x="90" y="55" width="700" height="220" fill="#161b22" rx="4"/>
  <text x="440.0" y="47" text-anchor="middle" fill="#e6edf3" font-size="12" font-weight="600">dickens</text>
  <line x1="117.8" y1="55" x2="117.8" y2="275" stroke="#21262d" stroke-width="1"/>
  <text x="117.8" y="289" text-anchor="middle" fill="#7d8590" font-size="9">512</text>
  <line x1="195.9" y1="55" x2="195.9" y2="275" stroke="#21262d" stroke-width="1"/>
  <text x="195.9" y="289" text-anchor="middle" fill="#7d8590" font-size="9">1K</text>
  <line x1="274.0" y1="55" x2="274.0" y2="275" stroke="#21262d" stroke-width="1"/>
  <text x="274.0" y="289" text-anchor="middle" fill="#7d8590" font-size="9">2K</text>
  <line x1="352.0" y1="55" x2="352.0" y2="275" stroke="#21262d" stroke-width="1"/>
  <text x="352.0" y="289" text-anchor="middle" fill="#7d8590" font-size="9">4K</text>
  <line x1="430.1" y1="55" x2="430.1" y2="275" stroke="#21262d" stroke-width="1"/>
  <text x="430.1" y="289" text-anchor="middle" fill="#7d8590" font-size="9">8K</text>
  <line x1="508.2" y1="55" x2="508.2" y2="275" stroke="#21262d" stroke-width="1"/>
  <text x="508.2" y="289" text-anchor="middle" fill="#7d8590" font-size="9">16K</text>
  <line x1="586.3" y1="55" x2="586.3" y2="275" stroke="#21262d" stroke-width="1"/>
  <text x="586.3" y="289" text-anchor="middle" fill="#7d8590" font-size="9">32K</text>
  <line x1="664.3" y1="55" x2="664.3" y2="275" stroke="#21262d" stroke-width="1"/>
  <text x="664.3" y="289" text-anchor="middle" fill="#7d8590" font-size="9">64K</text>
  <line x1="742.4" y1="55" x2="742.4" y2="275" stroke="#21262d" stroke-width="1"/>
  <text x="742.4" y="289" text-anchor="middle" fill="#7d8590" font-size="9">128K</text>
  <line x1="90" y1="226.4" x2="790" y2="226.4" stroke="#21262d" stroke-width="1"/>
  <text x="82" y="226.4" text-anchor="end" dominant-baseline="middle" fill="#7d8590" font-size="9">200</text>
  <line x1="90" y1="177.7" x2="790" y2="177.7" stroke="#21262d" stroke-width="1"/>
  <text x="82" y="177.7" text-anchor="end" dominant-baseline="middle" fill="#7d8590" font-size="9">400</text>
  <line x1="90" y1="129.1" x2="790" y2="129.1" stroke="#21262d" stroke-width="1"/>
  <text x="82" y="129.1" text-anchor="end" dominant-baseline="middle" fill="#7d8590" font-size="9">600</text>
  <line x1="90" y1="80.4" x2="790" y2="80.4" stroke="#21262d" stroke-width="1"/>
  <text x="82" y="80.4" text-anchor="end" dominant-baseline="middle" fill="#7d8590" font-size="9">800</text>
  <path d="M117.8,228.1L195.9,200.9L274.0,187.8L352.0,159.3L430.1,139.4L508.2,132.9L586.3,103.7L664.3,89.8L742.4,83.7" fill="none" stroke="#60a5fa" stroke-width="1.8"/>
  <circle cx="117.8" cy="228.1" r="2.5" fill="#60a5fa" stroke="#0d1117" stroke-width="0.8"/>
  <circle cx="195.9" cy="200.9" r="2.5" fill="#60a5fa" stroke="#0d1117" stroke-width="0.8"/>
  <circle cx="274.0" cy="187.8" r="2.5" fill="#60a5fa" stroke="#0d1117" stroke-width="0.8"/>
  <circle cx="352.0" cy="159.3" r="2.5" fill="#60a5fa" stroke="#0d1117" stroke-width="0.8"/>
  <circle cx="430.1" cy="139.4" r="2.5" fill="#60a5fa" stroke="#0d1117" stroke-width="0.8"/>
  <circle cx="508.2" cy="132.9" r="2.5" fill="#60a5fa" stroke="#0d1117" stroke-width="0.8"/>
  <circle cx="586.3" cy="103.7" r="2.5" fill="#60a5fa" stroke="#0d1117" stroke-width="0.8"/>
  <circle cx="664.3" cy="89.8" r="2.5" fill="#60a5fa" stroke="#0d1117" stroke-width="0.8"/>
  <circle cx="742.4" cy="83.7" r="2.5" fill="#60a5fa" stroke="#0d1117" stroke-width="0.8"/>
  <path d="M117.8,251.3L195.9,237.3L274.0,227.0L352.0,209.4L430.1,192.6L508.2,191.9L586.3,187.2L664.3,183.0L742.4,175.0" fill="none" stroke="#f87171" stroke-width="1.8"/>
  <circle cx="117.8" cy="251.3" r="2.5" fill="#f87171" stroke="#0d1117" stroke-width="0.8"/>
  <circle cx="195.9" cy="237.3" r="2.5" fill="#f87171" stroke="#0d1117" stroke-width="0.8"/>
  <circle cx="274.0" cy="227.0" r="2.5" fill="#f87171" stroke="#0d1117" stroke-width="0.8"/>
  <circle cx="352.0" cy="209.4" r="2.5" fill="#f87171" stroke="#0d1117" stroke-width="0.8"/>
  <circle cx="430.1" cy="192.6" r="2.5" fill="#f87171" stroke="#0d1117" stroke-width="0.8"/>
  <circle cx="508.2" cy="191.9" r="2.5" fill="#f87171" stroke="#0d1117" stroke-width="0.8"/>
  <circle cx="586.3" cy="187.2" r="2.5" fill="#f87171" stroke="#0d1117" stroke-width="0.8"/>
  <circle cx="664.3" cy="183.0" r="2.5" fill="#f87171" stroke="#0d1117" stroke-width="0.8"/>
  <circle cx="742.4" cy="175.0" r="2.5" fill="#f87171" stroke="#0d1117" stroke-width="0.8"/>
  <path d="M117.8,251.5L195.9,238.6L274.0,230.1L352.0,215.5L430.1,205.0L508.2,209.8L586.3,205.6L664.3,204.0L742.4,200.8" fill="none" stroke="#f472b6" stroke-width="1.8"/>
  <circle cx="117.8" cy="251.5" r="2.5" fill="#f472b6" stroke="#0d1117" stroke-width="0.8"/>
  <circle cx="195.9" cy="238.6" r="2.5" fill="#f472b6" stroke="#0d1117" stroke-width="0.8"/>
  <circle cx="274.0" cy="230.1" r="2.5" fill="#f472b6" stroke="#0d1117" stroke-width="0.8"/>
  <circle cx="352.0" cy="215.5" r="2.5" fill="#f472b6" stroke="#0d1117" stroke-width="0.8"/>
  <circle cx="430.1" cy="205.0" r="2.5" fill="#f472b6" stroke="#0d1117" stroke-width="0.8"/>
  <circle cx="508.2" cy="209.8" r="2.5" fill="#f472b6" stroke="#0d1117" stroke-width="0.8"/>
  <circle cx="586.3" cy="205.6" r="2.5" fill="#f472b6" stroke="#0d1117" stroke-width="0.8"/>
  <circle cx="664.3" cy="204.0" r="2.5" fill="#f472b6" stroke="#0d1117" stroke-width="0.8"/>
  <circle cx="742.4" cy="200.8" r="2.5" fill="#f472b6" stroke="#0d1117" stroke-width="0.8"/>
  <path d="M117.8,250.6L195.9,233.7L274.0,226.0L352.0,207.5L430.1,195.4L508.2,192.4L586.3,174.1L664.3,168.9L742.4,165.6" fill="none" stroke="#f59e0b" stroke-width="1.8"/>
  <circle cx="117.8" cy="250.6" r="2.5" fill="#f59e0b" stroke="#0d1117" stroke-width="0.8"/>
  <circle cx="195.9" cy="233.7" r="2.5" fill="#f59e0b" stroke="#0d1117" stroke-width="0.8"/>
  <circle cx="274.0" cy="226.0" r="2.5" fill="#f59e0b" stroke="#0d1117" stroke-width="0.8"/>
  <circle cx="352.0" cy="207.5" r="2.5" fill="#f59e0b" stroke="#0d1117" stroke-width="0.8"/>
  <circle cx="430.1" cy="195.4" r="2.5" fill="#f59e0b" stroke="#0d1117" stroke-width="0.8"/>
  <circle cx="508.2" cy="192.4" r="2.5" fill="#f59e0b" stroke="#0d1117" stroke-width="0.8"/>
  <circle cx="586.3" cy="174.1" r="2.5" fill="#f59e0b" stroke="#0d1117" stroke-width="0.8"/>
  <circle cx="664.3" cy="168.9" r="2.5" fill="#f59e0b" stroke="#0d1117" stroke-width="0.8"/>
  <circle cx="742.4" cy="165.6" r="2.5" fill="#f59e0b" stroke="#0d1117" stroke-width="0.8"/>
  <path d="M117.8,259.4L195.9,252.3L274.0,249.5L352.0,246.5L430.1,245.2L508.2,245.8L586.3,241.4L664.3,240.4L742.4,239.3" fill="none" stroke="#4ade80" stroke-width="1.8"/>
  <circle cx="117.8" cy="259.4" r="2.5" fill="#4ade80" stroke="#0d1117" stroke-width="0.8"/>
  <circle cx="195.9" cy="252.3" r="2.5" fill="#4ade80" stroke="#0d1117" stroke-width="0.8"/>
  <circle cx="274.0" cy="249.5" r="2.5" fill="#4ade80" stroke="#0d1117" stroke-width="0.8"/>
  <circle cx="352.0" cy="246.5" r="2.5" fill="#4ade80" stroke="#0d1117" stroke-width="0.8"/>
  <circle cx="430.1" cy="245.2" r="2.5" fill="#4ade80" stroke="#0d1117" stroke-width="0.8"/>
  <circle cx="508.2" cy="245.8" r="2.5" fill="#4ade80" stroke="#0d1117" stroke-width="0.8"/>
  <circle cx="586.3" cy="241.4" r="2.5" fill="#4ade80" stroke="#0d1117" stroke-width="0.8"/>
  <circle cx="664.3" cy="240.4" r="2.5" fill="#4ade80" stroke="#0d1117" stroke-width="0.8"/>
  <circle cx="742.4" cy="239.3" r="2.5" fill="#4ade80" stroke="#0d1117" stroke-width="0.8"/>
  <rect x="90" y="325" width="700" height="220" fill="#161b22" rx="4"/>
  <text x="440.0" y="317" text-anchor="middle" fill="#e6edf3" font-size="12" font-weight="600">hdfs</text>
  <line x1="117.8" y1="325" x2="117.8" y2="545" stroke="#21262d" stroke-width="1"/>
  <text x="117.8" y="559" text-anchor="middle" fill="#7d8590" font-size="9">512</text>
  <line x1="195.9" y1="325" x2="195.9" y2="545" stroke="#21262d" stroke-width="1"/>
  <text x="195.9" y="559" text-anchor="middle" fill="#7d8590" font-size="9">1K</text>
  <line x1="274.0" y1="325" x2="274.0" y2="545" stroke="#21262d" stroke-width="1"/>
  <text x="274.0" y="559" text-anchor="middle" fill="#7d8590" font-size="9">2K</text>
  <line x1="352.0" y1="325" x2="352.0" y2="545" stroke="#21262d" stroke-width="1"/>
  <text x="352.0" y="559" text-anchor="middle" fill="#7d8590" font-size="9">4K</text>
  <line x1="430.1" y1="325" x2="430.1" y2="545" stroke="#21262d" stroke-width="1"/>
  <text x="430.1" y="559" text-anchor="middle" fill="#7d8590" font-size="9">8K</text>
  <line x1="508.2" y1="325" x2="508.2" y2="545" stroke="#21262d" stroke-width="1"/>
  <text x="508.2" y="559" text-anchor="middle" fill="#7d8590" font-size="9">16K</text>
  <line x1="586.3" y1="325" x2="586.3" y2="545" stroke="#21262d" stroke-width="1"/>
  <text x="586.3" y="559" text-anchor="middle" fill="#7d8590" font-size="9">32K</text>
  <line x1="664.3" y1="325" x2="664.3" y2="545" stroke="#21262d" stroke-width="1"/>
  <text x="664.3" y="559" text-anchor="middle" fill="#7d8590" font-size="9">64K</text>
  <line x1="742.4" y1="325" x2="742.4" y2="545" stroke="#21262d" stroke-width="1"/>
  <text x="742.4" y="559" text-anchor="middle" fill="#7d8590" font-size="9">128K</text>
  <line x1="90" y1="512.4" x2="790" y2="512.4" stroke="#21262d" stroke-width="1"/>
  <text x="82" y="512.4" text-anchor="end" dominant-baseline="middle" fill="#7d8590" font-size="9">500</text>
  <line x1="90" y1="479.8" x2="790" y2="479.8" stroke="#21262d" stroke-width="1"/>
  <text x="82" y="479.8" text-anchor="end" dominant-baseline="middle" fill="#7d8590" font-size="9">1000</text>
  <line x1="90" y1="447.2" x2="790" y2="447.2" stroke="#21262d" stroke-width="1"/>
  <text x="82" y="447.2" text-anchor="end" dominant-baseline="middle" fill="#7d8590" font-size="9">1500</text>
  <line x1="90" y1="414.6" x2="790" y2="414.6" stroke="#21262d" stroke-width="1"/>
  <text x="82" y="414.6" text-anchor="end" dominant-baseline="middle" fill="#7d8590" font-size="9">2000</text>
  <line x1="90" y1="382.0" x2="790" y2="382.0" stroke="#21262d" stroke-width="1"/>
  <text x="82" y="382.0" text-anchor="end" dominant-baseline="middle" fill="#7d8590" font-size="9">2500</text>
  <line x1="90" y1="349.4" x2="790" y2="349.4" stroke="#21262d" stroke-width="1"/>
  <text x="82" y="349.4" text-anchor="end" dominant-baseline="middle" fill="#7d8590" font-size="9">3000</text>
  <path d="M117.8,532.0L195.9,520.1L274.0,502.0L352.0,487.5L430.1,451.2L508.2,406.1L586.3,364.6L664.3,353.7L742.4,372.9" fill="none" stroke="#60a5fa" stroke-width="1.8"/>
  <circle cx="117.8" cy="532.0" r="2.5" fill="#60a5fa" stroke="#0d1117" stroke-width="0.8"/>
  <circle cx="195.9" cy="520.1" r="2.5" fill="#60a5fa" stroke="#0d1117" stroke-width="0.8"/>
  <circle cx="274.0" cy="502.0" r="2.5" fill="#60a5fa" stroke="#0d1117" stroke-width="0.8"/>
  <circle cx="352.0" cy="487.5" r="2.5" fill="#60a5fa" stroke="#0d1117" stroke-width="0.8"/>
  <circle cx="430.1" cy="451.2" r="2.5" fill="#60a5fa" stroke="#0d1117" stroke-width="0.8"/>
  <circle cx="508.2" cy="406.1" r="2.5" fill="#60a5fa" stroke="#0d1117" stroke-width="0.8"/>
  <circle cx="586.3" cy="364.6" r="2.5" fill="#60a5fa" stroke="#0d1117" stroke-width="0.8"/>
  <circle cx="664.3" cy="353.7" r="2.5" fill="#60a5fa" stroke="#0d1117" stroke-width="0.8"/>
  <circle cx="742.4" cy="372.9" r="2.5" fill="#60a5fa" stroke="#0d1117" stroke-width="0.8"/>
  <path d="M117.8,538.4L195.9,532.8L274.0,523.6L352.0,513.8L430.1,492.4L508.2,464.0L586.3,435.1L664.3,430.0L742.4,435.2" fill="none" stroke="#f87171" stroke-width="1.8"/>
  <circle cx="117.8" cy="538.4" r="2.5" fill="#f87171" stroke="#0d1117" stroke-width="0.8"/>
  <circle cx="195.9" cy="532.8" r="2.5" fill="#f87171" stroke="#0d1117" stroke-width="0.8"/>
  <circle cx="274.0" cy="523.6" r="2.5" fill="#f87171" stroke="#0d1117" stroke-width="0.8"/>
  <circle cx="352.0" cy="513.8" r="2.5" fill="#f87171" stroke="#0d1117" stroke-width="0.8"/>
  <circle cx="430.1" cy="492.4" r="2.5" fill="#f87171" stroke="#0d1117" stroke-width="0.8"/>
  <circle cx="508.2" cy="464.0" r="2.5" fill="#f87171" stroke="#0d1117" stroke-width="0.8"/>
  <circle cx="586.3" cy="435.1" r="2.5" fill="#f87171" stroke="#0d1117" stroke-width="0.8"/>
  <circle cx="664.3" cy="430.0" r="2.5" fill="#f87171" stroke="#0d1117" stroke-width="0.8"/>
  <circle cx="742.4" cy="435.2" r="2.5" fill="#f87171" stroke="#0d1117" stroke-width="0.8"/>
  <path d="M117.8,538.5L195.9,533.0L274.0,524.2L352.0,515.5L430.1,495.8L508.2,470.2L586.3,446.2L664.3,436.3L742.4,446.4" fill="none" stroke="#f472b6" stroke-width="1.8"/>
  <circle cx="117.8" cy="538.5" r="2.5" fill="#f472b6" stroke="#0d1117" stroke-width="0.8"/>
  <circle cx="195.9" cy="533.0" r="2.5" fill="#f472b6" stroke="#0d1117" stroke-width="0.8"/>
  <circle cx="274.0" cy="524.2" r="2.5" fill="#f472b6" stroke="#0d1117" stroke-width="0.8"/>
  <circle cx="352.0" cy="515.5" r="2.5" fill="#f472b6" stroke="#0d1117" stroke-width="0.8"/>
  <circle cx="430.1" cy="495.8" r="2.5" fill="#f472b6" stroke="#0d1117" stroke-width="0.8"/>
  <circle cx="508.2" cy="470.2" r="2.5" fill="#f472b6" stroke="#0d1117" stroke-width="0.8"/>
  <circle cx="586.3" cy="446.2" r="2.5" fill="#f472b6" stroke="#0d1117" stroke-width="0.8"/>
  <circle cx="664.3" cy="436.3" r="2.5" fill="#f472b6" stroke="#0d1117" stroke-width="0.8"/>
  <circle cx="742.4" cy="446.4" r="2.5" fill="#f472b6" stroke="#0d1117" stroke-width="0.8"/>
  <path d="M117.8,538.1L195.9,531.9L274.0,522.2L352.0,514.0L430.1,491.6L508.2,465.6L586.3,440.7L664.3,433.7L742.4,437.6" fill="none" stroke="#f59e0b" stroke-width="1.8"/>
  <circle cx="117.8" cy="538.1" r="2.5" fill="#f59e0b" stroke="#0d1117" stroke-width="0.8"/>
  <circle cx="195.9" cy="531.9" r="2.5" fill="#f59e0b" stroke="#0d1117" stroke-width="0.8"/>
  <circle cx="274.0" cy="522.2" r="2.5" fill="#f59e0b" stroke="#0d1117" stroke-width="0.8"/>
  <circle cx="352.0" cy="514.0" r="2.5" fill="#f59e0b" stroke="#0d1117" stroke-width="0.8"/>
  <circle cx="430.1" cy="491.6" r="2.5" fill="#f59e0b" stroke="#0d1117" stroke-width="0.8"/>
  <circle cx="508.2" cy="465.6" r="2.5" fill="#f59e0b" stroke="#0d1117" stroke-width="0.8"/>
  <circle cx="586.3" cy="440.7" r="2.5" fill="#f59e0b" stroke="#0d1117" stroke-width="0.8"/>
  <circle cx="664.3" cy="433.7" r="2.5" fill="#f59e0b" stroke="#0d1117" stroke-width="0.8"/>
  <circle cx="742.4" cy="437.6" r="2.5" fill="#f59e0b" stroke="#0d1117" stroke-width="0.8"/>
  <path d="M117.8,540.5L195.9,537.0L274.0,531.3L352.0,525.8L430.1,517.4L508.2,510.1L586.3,506.2L664.3,507.2L742.4,507.3" fill="none" stroke="#4ade80" stroke-width="1.8"/>
  <circle cx="117.8" cy="540.5" r="2.5" fill="#4ade80" stroke="#0d1117" stroke-width="0.8"/>
  <circle cx="195.9" cy="537.0" r="2.5" fill="#4ade80" stroke="#0d1117" stroke-width="0.8"/>
  <circle cx="274.0" cy="531.3" r="2.5" fill="#4ade80" stroke="#0d1117" stroke-width="0.8"/>
  <circle cx="352.0" cy="525.8" r="2.5" fill="#4ade80" stroke="#0d1117" stroke-width="0.8"/>
  <circle cx="430.1" cy="517.4" r="2.5" fill="#4ade80" stroke="#0d1117" stroke-width="0.8"/>
  <circle cx="508.2" cy="510.1" r="2.5" fill="#4ade80" stroke="#0d1117" stroke-width="0.8"/>
  <circle cx="586.3" cy="506.2" r="2.5" fill="#4ade80" stroke="#0d1117" stroke-width="0.8"/>
  <circle cx="664.3" cy="507.2" r="2.5" fill="#4ade80" stroke="#0d1117" stroke-width="0.8"/>
  <circle cx="742.4" cy="507.3" r="2.5" fill="#4ade80" stroke="#0d1117" stroke-width="0.8"/>
  <rect x="90" y="595" width="700" height="220" fill="#161b22" rx="4"/>
  <text x="440.0" y="587" text-anchor="middle" fill="#e6edf3" font-size="12" font-weight="600">xml collection</text>
  <line x1="117.8" y1="595" x2="117.8" y2="815" stroke="#21262d" stroke-width="1"/>
  <text x="117.8" y="829" text-anchor="middle" fill="#7d8590" font-size="9">512</text>
  <line x1="195.9" y1="595" x2="195.9" y2="815" stroke="#21262d" stroke-width="1"/>
  <text x="195.9" y="829" text-anchor="middle" fill="#7d8590" font-size="9">1K</text>
  <line x1="274.0" y1="595" x2="274.0" y2="815" stroke="#21262d" stroke-width="1"/>
  <text x="274.0" y="829" text-anchor="middle" fill="#7d8590" font-size="9">2K</text>
  <line x1="352.0" y1="595" x2="352.0" y2="815" stroke="#21262d" stroke-width="1"/>
  <text x="352.0" y="829" text-anchor="middle" fill="#7d8590" font-size="9">4K</text>
  <line x1="430.1" y1="595" x2="430.1" y2="815" stroke="#21262d" stroke-width="1"/>
  <text x="430.1" y="829" text-anchor="middle" fill="#7d8590" font-size="9">8K</text>
  <line x1="508.2" y1="595" x2="508.2" y2="815" stroke="#21262d" stroke-width="1"/>
  <text x="508.2" y="829" text-anchor="middle" fill="#7d8590" font-size="9">16K</text>
  <line x1="586.3" y1="595" x2="586.3" y2="815" stroke="#21262d" stroke-width="1"/>
  <text x="586.3" y="829" text-anchor="middle" fill="#7d8590" font-size="9">32K</text>
  <line x1="664.3" y1="595" x2="664.3" y2="815" stroke="#21262d" stroke-width="1"/>
  <text x="664.3" y="829" text-anchor="middle" fill="#7d8590" font-size="9">64K</text>
  <line x1="742.4" y1="595" x2="742.4" y2="815" stroke="#21262d" stroke-width="1"/>
  <text x="742.4" y="829" text-anchor="middle" fill="#7d8590" font-size="9">128K</text>
  <line x1="90" y1="756.3" x2="790" y2="756.3" stroke="#21262d" stroke-width="1"/>
  <text x="82" y="756.3" text-anchor="end" dominant-baseline="middle" fill="#7d8590" font-size="9">1000</text>
  <line x1="90" y1="697.7" x2="790" y2="697.7" stroke="#21262d" stroke-width="1"/>
  <text x="82" y="697.7" text-anchor="end" dominant-baseline="middle" fill="#7d8590" font-size="9">2000</text>
  <line x1="90" y1="639.0" x2="790" y2="639.0" stroke="#21262d" stroke-width="1"/>
  <text x="82" y="639.0" text-anchor="end" dominant-baseline="middle" fill="#7d8590" font-size="9">3000</text>
  <path d="M117.8,805.8L195.9,800.2L274.0,791.5L352.0,780.6L430.1,770.5L508.2,745.9L586.3,703.4L664.3,654.5L742.4,623.7" fill="none" stroke="#60a5fa" stroke-width="1.8"/>
  <circle cx="117.8" cy="805.8" r="2.5" fill="#60a5fa" stroke="#0d1117" stroke-width="0.8"/>
  <circle cx="195.9" cy="800.2" r="2.5" fill="#60a5fa" stroke="#0d1117" stroke-width="0.8"/>
  <circle cx="274.0" cy="791.5" r="2.5" fill="#60a5fa" stroke="#0d1117" stroke-width="0.8"/>
  <circle cx="352.0" cy="780.6" r="2.5" fill="#60a5fa" stroke="#0d1117" stroke-width="0.8"/>
  <circle cx="430.1" cy="770.5" r="2.5" fill="#60a5fa" stroke="#0d1117" stroke-width="0.8"/>
  <circle cx="508.2" cy="745.9" r="2.5" fill="#60a5fa" stroke="#0d1117" stroke-width="0.8"/>
  <circle cx="586.3" cy="703.4" r="2.5" fill="#60a5fa" stroke="#0d1117" stroke-width="0.8"/>
  <circle cx="664.3" cy="654.5" r="2.5" fill="#60a5fa" stroke="#0d1117" stroke-width="0.8"/>
  <circle cx="742.4" cy="623.7" r="2.5" fill="#60a5fa" stroke="#0d1117" stroke-width="0.8"/>
  <path d="M117.8,809.7L195.9,806.7L274.0,801.5L352.0,793.9L430.1,786.3L508.2,768.8L586.3,740.2L664.3,713.5L742.4,690.9" fill="none" stroke="#f87171" stroke-width="1.8"/>
  <circle cx="117.8" cy="809.7" r="2.5" fill="#f87171" stroke="#0d1117" stroke-width="0.8"/>
  <circle cx="195.9" cy="806.7" r="2.5" fill="#f87171" stroke="#0d1117" stroke-width="0.8"/>
  <circle cx="274.0" cy="801.5" r="2.5" fill="#f87171" stroke="#0d1117" stroke-width="0.8"/>
  <circle cx="352.0" cy="793.9" r="2.5" fill="#f87171" stroke="#0d1117" stroke-width="0.8"/>
  <circle cx="430.1" cy="786.3" r="2.5" fill="#f87171" stroke="#0d1117" stroke-width="0.8"/>
  <circle cx="508.2" cy="768.8" r="2.5" fill="#f87171" stroke="#0d1117" stroke-width="0.8"/>
  <circle cx="586.3" cy="740.2" r="2.5" fill="#f87171" stroke="#0d1117" stroke-width="0.8"/>
  <circle cx="664.3" cy="713.5" r="2.5" fill="#f87171" stroke="#0d1117" stroke-width="0.8"/>
  <circle cx="742.4" cy="690.9" r="2.5" fill="#f87171" stroke="#0d1117" stroke-width="0.8"/>
  <path d="M117.8,809.9L195.9,807.2L274.0,802.5L352.0,795.9L430.1,789.7L508.2,775.3L586.3,751.0L664.3,723.6L742.4,702.9" fill="none" stroke="#f472b6" stroke-width="1.8"/>
  <circle cx="117.8" cy="809.9" r="2.5" fill="#f472b6" stroke="#0d1117" stroke-width="0.8"/>
  <circle cx="195.9" cy="807.2" r="2.5" fill="#f472b6" stroke="#0d1117" stroke-width="0.8"/>
  <circle cx="274.0" cy="802.5" r="2.5" fill="#f472b6" stroke="#0d1117" stroke-width="0.8"/>
  <circle cx="352.0" cy="795.9" r="2.5" fill="#f472b6" stroke="#0d1117" stroke-width="0.8"/>
  <circle cx="430.1" cy="789.7" r="2.5" fill="#f472b6" stroke="#0d1117" stroke-width="0.8"/>
  <circle cx="508.2" cy="775.3" r="2.5" fill="#f472b6" stroke="#0d1117" stroke-width="0.8"/>
  <circle cx="586.3" cy="751.0" r="2.5" fill="#f472b6" stroke="#0d1117" stroke-width="0.8"/>
  <circle cx="664.3" cy="723.6" r="2.5" fill="#f472b6" stroke="#0d1117" stroke-width="0.8"/>
  <circle cx="742.4" cy="702.9" r="2.5" fill="#f472b6" stroke="#0d1117" stroke-width="0.8"/>
  <path d="M117.8,809.8L195.9,807.1L274.0,802.2L352.0,795.9L430.1,789.4L508.2,774.5L586.3,750.2L664.3,720.6L742.4,693.3" fill="none" stroke="#f59e0b" stroke-width="1.8"/>
  <circle cx="117.8" cy="809.8" r="2.5" fill="#f59e0b" stroke="#0d1117" stroke-width="0.8"/>
  <circle cx="195.9" cy="807.1" r="2.5" fill="#f59e0b" stroke="#0d1117" stroke-width="0.8"/>
  <circle cx="274.0" cy="802.2" r="2.5" fill="#f59e0b" stroke="#0d1117" stroke-width="0.8"/>
  <circle cx="352.0" cy="795.9" r="2.5" fill="#f59e0b" stroke="#0d1117" stroke-width="0.8"/>
  <circle cx="430.1" cy="789.4" r="2.5" fill="#f59e0b" stroke="#0d1117" stroke-width="0.8"/>
  <circle cx="508.2" cy="774.5" r="2.5" fill="#f59e0b" stroke="#0d1117" stroke-width="0.8"/>
  <circle cx="586.3" cy="750.2" r="2.5" fill="#f59e0b" stroke="#0d1117" stroke-width="0.8"/>
  <circle cx="664.3" cy="720.6" r="2.5" fill="#f59e0b" stroke="#0d1117" stroke-width="0.8"/>
  <circle cx="742.4" cy="693.3" r="2.5" fill="#f59e0b" stroke="#0d1117" stroke-width="0.8"/>
  <path d="M117.8,811.4L195.9,809.6L274.0,807.5L352.0,805.3L430.1,803.8L508.2,799.0L586.3,791.1L664.3,783.3L742.4,774.7" fill="none" stroke="#4ade80" stroke-width="1.8"/>
  <circle cx="117.8" cy="811.4" r="2.5" fill="#4ade80" stroke="#0d1117" stroke-width="0.8"/>
  <circle cx="195.9" cy="809.6" r="2.5" fill="#4ade80" stroke="#0d1117" stroke-width="0.8"/>
  <circle cx="274.0" cy="807.5" r="2.5" fill="#4ade80" stroke="#0d1117" stroke-width="0.8"/>
  <circle cx="352.0" cy="805.3" r="2.5" fill="#4ade80" stroke="#0d1117" stroke-width="0.8"/>
  <circle cx="430.1" cy="803.8" r="2.5" fill="#4ade80" stroke="#0d1117" stroke-width="0.8"/>
  <circle cx="508.2" cy="799.0" r="2.5" fill="#4ade80" stroke="#0d1117" stroke-width="0.8"/>
  <circle cx="586.3" cy="791.1" r="2.5" fill="#4ade80" stroke="#0d1117" stroke-width="0.8"/>
  <circle cx="664.3" cy="783.3" r="2.5" fill="#4ade80" stroke="#0d1117" stroke-width="0.8"/>
  <circle cx="742.4" cy="774.7" r="2.5" fill="#4ade80" stroke="#0d1117" stroke-width="0.8"/>
  <rect x="90" y="865" width="700" height="220" fill="#161b22" rx="4"/>
  <text x="440.0" y="857" text-anchor="middle" fill="#e6edf3" font-size="12" font-weight="600">x-ray</text>
  <line x1="117.8" y1="865" x2="117.8" y2="1085" stroke="#21262d" stroke-width="1"/>
  <text x="117.8" y="1099" text-anchor="middle" fill="#7d8590" font-size="9">512</text>
  <line x1="195.9" y1="865" x2="195.9" y2="1085" stroke="#21262d" stroke-width="1"/>
  <text x="195.9" y="1099" text-anchor="middle" fill="#7d8590" font-size="9">1K</text>
  <line x1="274.0" y1="865" x2="274.0" y2="1085" stroke="#21262d" stroke-width="1"/>
  <text x="274.0" y="1099" text-anchor="middle" fill="#7d8590" font-size="9">2K</text>
  <line x1="352.0" y1="865" x2="352.0" y2="1085" stroke="#21262d" stroke-width="1"/>
  <text x="352.0" y="1099" text-anchor="middle" fill="#7d8590" font-size="9">4K</text>
  <line x1="430.1" y1="865" x2="430.1" y2="1085" stroke="#21262d" stroke-width="1"/>
  <text x="430.1" y="1099" text-anchor="middle" fill="#7d8590" font-size="9">8K</text>
  <line x1="508.2" y1="865" x2="508.2" y2="1085" stroke="#21262d" stroke-width="1"/>
  <text x="508.2" y="1099" text-anchor="middle" fill="#7d8590" font-size="9">16K</text>
  <line x1="586.3" y1="865" x2="586.3" y2="1085" stroke="#21262d" stroke-width="1"/>
  <text x="586.3" y="1099" text-anchor="middle" fill="#7d8590" font-size="9">32K</text>
  <line x1="664.3" y1="865" x2="664.3" y2="1085" stroke="#21262d" stroke-width="1"/>
  <text x="664.3" y="1099" text-anchor="middle" fill="#7d8590" font-size="9">64K</text>
  <line x1="742.4" y1="865" x2="742.4" y2="1085" stroke="#21262d" stroke-width="1"/>
  <text x="742.4" y="1099" text-anchor="middle" fill="#7d8590" font-size="9">128K</text>
  <line x1="90" y1="1045.1" x2="790" y2="1045.1" stroke="#21262d" stroke-width="1"/>
  <text x="82" y="1045.1" text-anchor="end" dominant-baseline="middle" fill="#7d8590" font-size="9">200</text>
  <line x1="90" y1="1005.2" x2="790" y2="1005.2" stroke="#21262d" stroke-width="1"/>
  <text x="82" y="1005.2" text-anchor="end" dominant-baseline="middle" fill="#7d8590" font-size="9">400</text>
  <line x1="90" y1="965.4" x2="790" y2="965.4" stroke="#21262d" stroke-width="1"/>
  <text x="82" y="965.4" text-anchor="end" dominant-baseline="middle" fill="#7d8590" font-size="9">600</text>
  <line x1="90" y1="925.5" x2="790" y2="925.5" stroke="#21262d" stroke-width="1"/>
  <text x="82" y="925.5" text-anchor="end" dominant-baseline="middle" fill="#7d8590" font-size="9">800</text>
  <line x1="90" y1="885.6" x2="790" y2="885.6" stroke="#21262d" stroke-width="1"/>
  <text x="82" y="885.6" text-anchor="end" dominant-baseline="middle" fill="#7d8590" font-size="9">1000</text>
  <path d="M117.8,1051.9L195.9,1028.0L274.0,994.9L352.0,959.3L430.1,938.3L508.2,915.4L586.3,893.7L664.3,907.3L742.4,916.1" fill="none" stroke="#60a5fa" stroke-width="1.8"/>
  <circle cx="117.8" cy="1051.9" r="2.5" fill="#60a5fa" stroke="#0d1117" stroke-width="0.8"/>
  <circle cx="195.9" cy="1028.0" r="2.5" fill="#60a5fa" stroke="#0d1117" stroke-width="0.8"/>
  <circle cx="274.0" cy="994.9" r="2.5" fill="#60a5fa" stroke="#0d1117" stroke-width="0.8"/>
  <circle cx="352.0" cy="959.3" r="2.5" fill="#60a5fa" stroke="#0d1117" stroke-width="0.8"/>
  <circle cx="430.1" cy="938.3" r="2.5" fill="#60a5fa" stroke="#0d1117" stroke-width="0.8"/>
  <circle cx="508.2" cy="915.4" r="2.5" fill="#60a5fa" stroke="#0d1117" stroke-width="0.8"/>
  <circle cx="586.3" cy="893.7" r="2.5" fill="#60a5fa" stroke="#0d1117" stroke-width="0.8"/>
  <circle cx="664.3" cy="907.3" r="2.5" fill="#60a5fa" stroke="#0d1117" stroke-width="0.8"/>
  <circle cx="742.4" cy="916.1" r="2.5" fill="#60a5fa" stroke="#0d1117" stroke-width="0.8"/>
  <path d="M117.8,1069.7L195.9,1059.6L274.0,1045.8L352.0,1031.2L430.1,1020.7L508.2,1008.5L586.3,999.8L664.3,1001.5L742.4,1005.4" fill="none" stroke="#f87171" stroke-width="1.8"/>
  <circle cx="117.8" cy="1069.7" r="2.5" fill="#f87171" stroke="#0d1117" stroke-width="0.8"/>
  <circle cx="195.9" cy="1059.6" r="2.5" fill="#f87171" stroke="#0d1117" stroke-width="0.8"/>
  <circle cx="274.0" cy="1045.8" r="2.5" fill="#f87171" stroke="#0d1117" stroke-width="0.8"/>
  <circle cx="352.0" cy="1031.2" r="2.5" fill="#f87171" stroke="#0d1117" stroke-width="0.8"/>
  <circle cx="430.1" cy="1020.7" r="2.5" fill="#f87171" stroke="#0d1117" stroke-width="0.8"/>
  <circle cx="508.2" cy="1008.5" r="2.5" fill="#f87171" stroke="#0d1117" stroke-width="0.8"/>
  <circle cx="586.3" cy="999.8" r="2.5" fill="#f87171" stroke="#0d1117" stroke-width="0.8"/>
  <circle cx="664.3" cy="1001.5" r="2.5" fill="#f87171" stroke="#0d1117" stroke-width="0.8"/>
  <circle cx="742.4" cy="1005.4" r="2.5" fill="#f87171" stroke="#0d1117" stroke-width="0.8"/>
  <path d="M117.8,1069.7L195.9,1059.9L274.0,1045.9L352.0,1031.9L430.1,1022.5L508.2,1011.9L586.3,1003.9L664.3,1007.9L742.4,1010.9" fill="none" stroke="#f472b6" stroke-width="1.8"/>
  <circle cx="117.8" cy="1069.7" r="2.5" fill="#f472b6" stroke="#0d1117" stroke-width="0.8"/>
  <circle cx="195.9" cy="1059.9" r="2.5" fill="#f472b6" stroke="#0d1117" stroke-width="0.8"/>
  <circle cx="274.0" cy="1045.9" r="2.5" fill="#f472b6" stroke="#0d1117" stroke-width="0.8"/>
  <circle cx="352.0" cy="1031.9" r="2.5" fill="#f472b6" stroke="#0d1117" stroke-width="0.8"/>
  <circle cx="430.1" cy="1022.5" r="2.5" fill="#f472b6" stroke="#0d1117" stroke-width="0.8"/>
  <circle cx="508.2" cy="1011.9" r="2.5" fill="#f472b6" stroke="#0d1117" stroke-width="0.8"/>
  <circle cx="586.3" cy="1003.9" r="2.5" fill="#f472b6" stroke="#0d1117" stroke-width="0.8"/>
  <circle cx="664.3" cy="1007.9" r="2.5" fill="#f472b6" stroke="#0d1117" stroke-width="0.8"/>
  <circle cx="742.4" cy="1010.9" r="2.5" fill="#f472b6" stroke="#0d1117" stroke-width="0.8"/>
  <path d="M117.8,1067.4L195.9,1052.4L274.0,1030.9L352.0,1008.6L430.1,993.8L508.2,973.9L586.3,955.6L664.3,963.2L742.4,968.3" fill="none" stroke="#f59e0b" stroke-width="1.8"/>
  <circle cx="117.8" cy="1067.4" r="2.5" fill="#f59e0b" stroke="#0d1117" stroke-width="0.8"/>
  <circle cx="195.9" cy="1052.4" r="2.5" fill="#f59e0b" stroke="#0d1117" stroke-width="0.8"/>
  <circle cx="274.0" cy="1030.9" r="2.5" fill="#f59e0b" stroke="#0d1117" stroke-width="0.8"/>
  <circle cx="352.0" cy="1008.6" r="2.5" fill="#f59e0b" stroke="#0d1117" stroke-width="0.8"/>
  <circle cx="430.1" cy="993.8" r="2.5" fill="#f59e0b" stroke="#0d1117" stroke-width="0.8"/>
  <circle cx="508.2" cy="973.9" r="2.5" fill="#f59e0b" stroke="#0d1117" stroke-width="0.8"/>
  <circle cx="586.3" cy="955.6" r="2.5" fill="#f59e0b" stroke="#0d1117" stroke-width="0.8"/>
  <circle cx="664.3" cy="963.2" r="2.5" fill="#f59e0b" stroke="#0d1117" stroke-width="0.8"/>
  <circle cx="742.4" cy="968.3" r="2.5" fill="#f59e0b" stroke="#0d1117" stroke-width="0.8"/>
  <path d="M117.8,1074.4L195.9,1068.7L274.0,1062.8L352.0,1058.6L430.1,1056.4L508.2,1054.0L586.3,1052.1L664.3,1054.0L742.4,1054.7" fill="none" stroke="#4ade80" stroke-width="1.8"/>
  <circle cx="117.8" cy="1074.4" r="2.5" fill="#4ade80" stroke="#0d1117" stroke-width="0.8"/>
  <circle cx="195.9" cy="1068.7" r="2.5" fill="#4ade80" stroke="#0d1117" stroke-width="0.8"/>
  <circle cx="274.0" cy="1062.8" r="2.5" fill="#4ade80" stroke="#0d1117" stroke-width="0.8"/>
  <circle cx="352.0" cy="1058.6" r="2.5" fill="#4ade80" stroke="#0d1117" stroke-width="0.8"/>
  <circle cx="430.1" cy="1056.4" r="2.5" fill="#4ade80" stroke="#0d1117" stroke-width="0.8"/>
  <circle cx="508.2" cy="1054.0" r="2.5" fill="#4ade80" stroke="#0d1117" stroke-width="0.8"/>
  <circle cx="586.3" cy="1052.1" r="2.5" fill="#4ade80" stroke="#0d1117" stroke-width="0.8"/>
  <circle cx="664.3" cy="1054.0" r="2.5" fill="#4ade80" stroke="#0d1117" stroke-width="0.8"/>
  <circle cx="742.4" cy="1054.7" r="2.5" fill="#4ade80" stroke="#0d1117" stroke-width="0.8"/>
  <text x="20" y="570.0" text-anchor="middle" fill="#e6edf3" font-size="11" font-weight="600" transform="rotate(-90,20,570.0)">decode MB/s</text>
  <circle cx="-110" cy="1120" r="4" fill="#60a5fa"/>
  <text x="-102" y="1123.5" fill="#e6edf3" font-size="10" font-weight="500">libzstd v1.5.7 (C)</text>
  <circle cx="37" cy="1120" r="4" fill="#f87171"/>
  <text x="45" y="1123.5" fill="#e6edf3" font-size="10" font-weight="500">zrip (safe SIMD + encapsulated unsafe)</text>
  <circle cx="309" cy="1120" r="4" fill="#f472b6"/>
  <text x="317" y="1123.5" fill="#e6edf3" font-size="10" font-weight="500">zrip paranoid (safe SIMD, no unsafe)</text>
  <circle cx="568" cy="1120" r="4" fill="#f59e0b"/>
  <text x="576" y="1123.5" fill="#e6edf3" font-size="10" font-weight="500">structured-zstd v0.0.48 (unsafe)</text>
  <circle cx="802" cy="1120" r="4" fill="#4ade80"/>
  <text x="810" y="1123.5" fill="#e6edf3" font-size="10" font-weight="500">ruzstd v0.8.3 (safe)</text>
</svg>
