<svg viewBox="0 0 830 1241" xmlns="http://www.w3.org/2000/svg" font-family="system-ui, -apple-system, sans-serif">
<rect x="0" y="0" width="830" height="1241" opacity="1" fill="#0D1117" stroke="none"/>
<text x="415" y="18" dy="0.5ex" text-anchor="middle" font-family="sans-serif" font-size="12.096774193548388" opacity="1" fill="#E6EDF3" font-weight="bold">
Decode Throughput vs Input Size (64 distinct Silesia slices, C zstd L3 bitstream; lz4rip: LZ4 blocks)
</text>
<text x="415" y="36" dy="0.5ex" text-anchor="middle" font-family="sans-serif" font-size="8.870967741935484" opacity="1" fill="#7D8590">
Linux VM on a 2018 Mac Mini, Intel Core i7-8700B @ 3.20GHz, performance governor, turbo off
</text>
<rect x="90" y="66" width="700" height="220" opacity="1" fill="#161B22" stroke="none"/>
<text x="440" y="54" dy="0.5ex" text-anchor="middle" font-family="sans-serif" font-size="10.483870967741936" opacity="1" fill="#E6EDF3" font-weight="bold">
dickens
</text>
<polyline fill="none" opacity="1" stroke="#30363D" stroke-width="2" points="90,286 790,286 "/>
<polyline fill="none" opacity="1" stroke="#21262D" stroke-width="1" points="118,66 118,286 "/>
<text x="118" y="302" dy="0.5ex" text-anchor="middle" font-family="sans-serif" font-size="8.064516129032258" opacity="1" fill="#7D8590">
512
</text>
<polyline fill="none" opacity="1" stroke="#21262D" stroke-width="1" points="196,66 196,286 "/>
<text x="196" y="302" dy="0.5ex" text-anchor="middle" font-family="sans-serif" font-size="8.064516129032258" opacity="1" fill="#7D8590">
1K
</text>
<polyline fill="none" opacity="1" stroke="#21262D" stroke-width="1" points="274,66 274,286 "/>
<text x="274" y="302" dy="0.5ex" text-anchor="middle" font-family="sans-serif" font-size="8.064516129032258" opacity="1" fill="#7D8590">
2K
</text>
<polyline fill="none" opacity="1" stroke="#21262D" stroke-width="1" points="352,66 352,286 "/>
<text x="352" y="302" dy="0.5ex" text-anchor="middle" font-family="sans-serif" font-size="8.064516129032258" opacity="1" fill="#7D8590">
4K
</text>
<polyline fill="none" opacity="1" stroke="#21262D" stroke-width="1" points="430,66 430,286 "/>
<text x="430" y="302" dy="0.5ex" text-anchor="middle" font-family="sans-serif" font-size="8.064516129032258" opacity="1" fill="#7D8590">
8K
</text>
<polyline fill="none" opacity="1" stroke="#21262D" stroke-width="1" points="508,66 508,286 "/>
<text x="508" y="302" dy="0.5ex" text-anchor="middle" font-family="sans-serif" font-size="8.064516129032258" opacity="1" fill="#7D8590">
16K
</text>
<polyline fill="none" opacity="1" stroke="#21262D" stroke-width="1" points="586,66 586,286 "/>
<text x="586" y="302" dy="0.5ex" text-anchor="middle" font-family="sans-serif" font-size="8.064516129032258" opacity="1" fill="#7D8590">
32K
</text>
<polyline fill="none" opacity="1" stroke="#21262D" stroke-width="1" points="664,66 664,286 "/>
<text x="664" y="302" dy="0.5ex" text-anchor="middle" font-family="sans-serif" font-size="8.064516129032258" opacity="1" fill="#7D8590">
64K
</text>
<polyline fill="none" opacity="1" stroke="#21262D" stroke-width="1" points="742,66 742,286 "/>
<text x="742" y="302" dy="0.5ex" text-anchor="middle" font-family="sans-serif" font-size="8.064516129032258" opacity="1" fill="#7D8590">
128K
</text>
<polyline fill="none" opacity="1" stroke="#21262D" stroke-width="1" points="90,257 790,257 "/>
<text x="82" y="257" dy="0.5ex" text-anchor="end" font-family="sans-serif" font-size="8.064516129032258" opacity="1" fill="#7D8590">
100
</text>
<polyline fill="none" opacity="1" stroke="#21262D" stroke-width="1" points="90,227 790,227 "/>
<text x="82" y="227" dy="0.5ex" text-anchor="end" font-family="sans-serif" font-size="8.064516129032258" opacity="1" fill="#7D8590">
200
</text>
<polyline fill="none" opacity="1" stroke="#21262D" stroke-width="1" points="90,187 790,187 "/>
<text x="82" y="187" dy="0.5ex" text-anchor="end" font-family="sans-serif" font-size="8.064516129032258" opacity="1" fill="#7D8590">
500
</text>
<polyline fill="none" opacity="1" stroke="#21262D" stroke-width="1" points="90,157 790,157 "/>
<text x="82" y="157" dy="0.5ex" text-anchor="end" font-family="sans-serif" font-size="8.064516129032258" opacity="1" fill="#7D8590">
1000
</text>
<polyline fill="none" opacity="1" stroke="#21262D" stroke-width="1" points="90,127 790,127 "/>
<text x="82" y="127" dy="0.5ex" text-anchor="end" font-family="sans-serif" font-size="8.064516129032258" opacity="1" fill="#7D8590">
2000
</text>
<polyline fill="none" opacity="1" stroke="#21262D" stroke-width="1" points="90,87 790,87 "/>
<text x="82" y="87" dy="0.5ex" text-anchor="end" font-family="sans-serif" font-size="8.064516129032258" opacity="1" fill="#7D8590">
5000
</text>
<polyline fill="none" opacity="1" stroke="#60A5FA" stroke-width="2" points="118,214 196,209 274,196 352,187 430,185 508,185 586,173 664,170 742,168 "/>
<circle cx="118" cy="214" r="3" opacity="1" fill="#60A5FA" stroke="none" stroke-width="1"/>
<circle cx="196" cy="209" r="3" opacity="1" fill="#60A5FA" stroke="none" stroke-width="1"/>
<circle cx="274" cy="196" r="3" opacity="1" fill="#60A5FA" stroke="none" stroke-width="1"/>
<circle cx="352" cy="187" r="3" opacity="1" fill="#60A5FA" stroke="none" stroke-width="1"/>
<circle cx="430" cy="185" r="3" opacity="1" fill="#60A5FA" stroke="none" stroke-width="1"/>
<circle cx="508" cy="185" r="3" opacity="1" fill="#60A5FA" stroke="none" stroke-width="1"/>
<circle cx="586" cy="173" r="3" opacity="1" fill="#60A5FA" stroke="none" stroke-width="1"/>
<circle cx="664" cy="170" r="3" opacity="1" fill="#60A5FA" stroke="none" stroke-width="1"/>
<circle cx="742" cy="168" r="3" opacity="1" fill="#60A5FA" stroke="none" stroke-width="1"/>
<polyline fill="none" opacity="1" stroke="#F87171" stroke-width="2" points="118,249 196,247 274,230 352,216 430,209 508,205 586,194 664,191 742,189 "/>
<circle cx="118" cy="249" r="3" opacity="1" fill="#F87171" stroke="none" stroke-width="1"/>
<circle cx="196" cy="247" r="3" opacity="1" fill="#F87171" stroke="none" stroke-width="1"/>
<circle cx="274" cy="230" r="3" opacity="1" fill="#F87171" stroke="none" stroke-width="1"/>
<circle cx="352" cy="216" r="3" opacity="1" fill="#F87171" stroke="none" stroke-width="1"/>
<circle cx="430" cy="209" r="3" opacity="1" fill="#F87171" stroke="none" stroke-width="1"/>
<circle cx="508" cy="205" r="3" opacity="1" fill="#F87171" stroke="none" stroke-width="1"/>
<circle cx="586" cy="194" r="3" opacity="1" fill="#F87171" stroke="none" stroke-width="1"/>
<circle cx="664" cy="191" r="3" opacity="1" fill="#F87171" stroke="none" stroke-width="1"/>
<circle cx="742" cy="189" r="3" opacity="1" fill="#F87171" stroke="none" stroke-width="1"/>
<polyline fill="none" opacity="0.6" stroke="#F87171" stroke-width="1" points="118,254 196,237 274,230 352,218 430,209 508,203 586,198 664,195 742,192 "/>
<polyline fill="none" opacity="1" stroke="#F472B6" stroke-width="2" points="118,253 196,251 274,234 352,222 430,217 508,215 586,205 664,204 742,203 "/>
<circle cx="118" cy="253" r="3" opacity="1" fill="#F472B6" stroke="none" stroke-width="1"/>
<circle cx="196" cy="251" r="3" opacity="1" fill="#F472B6" stroke="none" stroke-width="1"/>
<circle cx="274" cy="234" r="3" opacity="1" fill="#F472B6" stroke="none" stroke-width="1"/>
<circle cx="352" cy="222" r="3" opacity="1" fill="#F472B6" stroke="none" stroke-width="1"/>
<circle cx="430" cy="217" r="3" opacity="1" fill="#F472B6" stroke="none" stroke-width="1"/>
<circle cx="508" cy="215" r="3" opacity="1" fill="#F472B6" stroke="none" stroke-width="1"/>
<circle cx="586" cy="205" r="3" opacity="1" fill="#F472B6" stroke="none" stroke-width="1"/>
<circle cx="664" cy="204" r="3" opacity="1" fill="#F472B6" stroke="none" stroke-width="1"/>
<circle cx="742" cy="203" r="3" opacity="1" fill="#F472B6" stroke="none" stroke-width="1"/>
<polyline fill="none" opacity="0.6" stroke="#F472B6" stroke-width="1" points="118,256 196,240 274,234 352,224 430,217 508,212 586,209 664,208 742,206 "/>
<polyline fill="none" opacity="1" stroke="#F59E0B" stroke-width="2" points="118,251 196,241 274,226 352,215 430,211 508,211 586,198 664,196 742,194 "/>
<circle cx="118" cy="251" r="3" opacity="1" fill="#F59E0B" stroke="none" stroke-width="1"/>
<circle cx="196" cy="241" r="3" opacity="1" fill="#F59E0B" stroke="none" stroke-width="1"/>
<circle cx="274" cy="226" r="3" opacity="1" fill="#F59E0B" stroke="none" stroke-width="1"/>
<circle cx="352" cy="215" r="3" opacity="1" fill="#F59E0B" stroke="none" stroke-width="1"/>
<circle cx="430" cy="211" r="3" opacity="1" fill="#F59E0B" stroke="none" stroke-width="1"/>
<circle cx="508" cy="211" r="3" opacity="1" fill="#F59E0B" stroke="none" stroke-width="1"/>
<circle cx="586" cy="198" r="3" opacity="1" fill="#F59E0B" stroke="none" stroke-width="1"/>
<circle cx="664" cy="196" r="3" opacity="1" fill="#F59E0B" stroke="none" stroke-width="1"/>
<circle cx="742" cy="194" r="3" opacity="1" fill="#F59E0B" stroke="none" stroke-width="1"/>
<polyline fill="none" opacity="0.6" stroke="#F59E0B" stroke-width="1" points="118,252 196,234 274,218 352,211 430,203 508,201 586,199 664,196 742,195 "/>
<polyline fill="none" opacity="1" stroke="#4ADE80" stroke-width="2" points="118,280 196,269 274,261 352,256 430,254 508,252 586,244 664,242 742,240 "/>
<circle cx="118" cy="280" r="3" opacity="1" fill="#4ADE80" stroke="none" stroke-width="1"/>
<circle cx="196" cy="269" r="3" opacity="1" fill="#4ADE80" stroke="none" stroke-width="1"/>
<circle cx="274" cy="261" r="3" opacity="1" fill="#4ADE80" stroke="none" stroke-width="1"/>
<circle cx="352" cy="256" r="3" opacity="1" fill="#4ADE80" stroke="none" stroke-width="1"/>
<circle cx="430" cy="254" r="3" opacity="1" fill="#4ADE80" stroke="none" stroke-width="1"/>
<circle cx="508" cy="252" r="3" opacity="1" fill="#4ADE80" stroke="none" stroke-width="1"/>
<circle cx="586" cy="244" r="3" opacity="1" fill="#4ADE80" stroke="none" stroke-width="1"/>
<circle cx="664" cy="242" r="3" opacity="1" fill="#4ADE80" stroke="none" stroke-width="1"/>
<circle cx="742" cy="240" r="3" opacity="1" fill="#4ADE80" stroke="none" stroke-width="1"/>
<polyline fill="none" opacity="1" stroke="#C084FC" stroke-width="2" points="118,72 196,78 274,105 352,123 430,127 508,128 586,129 664,128 742,128 "/>
<circle cx="118" cy="72" r="3" opacity="1" fill="#C084FC" stroke="none" stroke-width="1"/>
<circle cx="196" cy="78" r="3" opacity="1" fill="#C084FC" stroke="none" stroke-width="1"/>
<circle cx="274" cy="105" r="3" opacity="1" fill="#C084FC" stroke="none" stroke-width="1"/>
<circle cx="352" cy="123" r="3" opacity="1" fill="#C084FC" stroke="none" stroke-width="1"/>
<circle cx="430" cy="127" r="3" opacity="1" fill="#C084FC" stroke="none" stroke-width="1"/>
<circle cx="508" cy="128" r="3" opacity="1" fill="#C084FC" stroke="none" stroke-width="1"/>
<circle cx="586" cy="129" r="3" opacity="1" fill="#C084FC" stroke="none" stroke-width="1"/>
<circle cx="664" cy="128" r="3" opacity="1" fill="#C084FC" stroke="none" stroke-width="1"/>
<circle cx="742" cy="128" r="3" opacity="1" fill="#C084FC" stroke="none" stroke-width="1"/>
<rect x="90" y="336" width="700" height="220" opacity="1" fill="#161B22" stroke="none"/>
<text x="440" y="324" dy="0.5ex" text-anchor="middle" font-family="sans-serif" font-size="10.483870967741936" opacity="1" fill="#E6EDF3" font-weight="bold">
nci
</text>
<polyline fill="none" opacity="1" stroke="#30363D" stroke-width="2" points="90,556 790,556 "/>
<polyline fill="none" opacity="1" stroke="#21262D" stroke-width="1" points="118,336 118,556 "/>
<text x="118" y="572" dy="0.5ex" text-anchor="middle" font-family="sans-serif" font-size="8.064516129032258" opacity="1" fill="#7D8590">
512
</text>
<polyline fill="none" opacity="1" stroke="#21262D" stroke-width="1" points="196,336 196,556 "/>
<text x="196" y="572" dy="0.5ex" text-anchor="middle" font-family="sans-serif" font-size="8.064516129032258" opacity="1" fill="#7D8590">
1K
</text>
<polyline fill="none" opacity="1" stroke="#21262D" stroke-width="1" points="274,336 274,556 "/>
<text x="274" y="572" dy="0.5ex" text-anchor="middle" font-family="sans-serif" font-size="8.064516129032258" opacity="1" fill="#7D8590">
2K
</text>
<polyline fill="none" opacity="1" stroke="#21262D" stroke-width="1" points="352,336 352,556 "/>
<text x="352" y="572" dy="0.5ex" text-anchor="middle" font-family="sans-serif" font-size="8.064516129032258" opacity="1" fill="#7D8590">
4K
</text>
<polyline fill="none" opacity="1" stroke="#21262D" stroke-width="1" points="430,336 430,556 "/>
<text x="430" y="572" dy="0.5ex" text-anchor="middle" font-family="sans-serif" font-size="8.064516129032258" opacity="1" fill="#7D8590">
8K
</text>
<polyline fill="none" opacity="1" stroke="#21262D" stroke-width="1" points="508,336 508,556 "/>
<text x="508" y="572" dy="0.5ex" text-anchor="middle" font-family="sans-serif" font-size="8.064516129032258" opacity="1" fill="#7D8590">
16K
</text>
<polyline fill="none" opacity="1" stroke="#21262D" stroke-width="1" points="586,336 586,556 "/>
<text x="586" y="572" dy="0.5ex" text-anchor="middle" font-family="sans-serif" font-size="8.064516129032258" opacity="1" fill="#7D8590">
32K
</text>
<polyline fill="none" opacity="1" stroke="#21262D" stroke-width="1" points="664,336 664,556 "/>
<text x="664" y="572" dy="0.5ex" text-anchor="middle" font-family="sans-serif" font-size="8.064516129032258" opacity="1" fill="#7D8590">
64K
</text>
<polyline fill="none" opacity="1" stroke="#21262D" stroke-width="1" points="742,336 742,556 "/>
<text x="742" y="572" dy="0.5ex" text-anchor="middle" font-family="sans-serif" font-size="8.064516129032258" opacity="1" fill="#7D8590">
128K
</text>
<polyline fill="none" opacity="1" stroke="#21262D" stroke-width="1" points="90,542 790,542 "/>
<text x="82" y="542" dy="0.5ex" text-anchor="end" font-family="sans-serif" font-size="8.064516129032258" opacity="1" fill="#7D8590">
100
</text>
<polyline fill="none" opacity="1" stroke="#21262D" stroke-width="1" points="90,503 790,503 "/>
<text x="82" y="503" dy="0.5ex" text-anchor="end" font-family="sans-serif" font-size="8.064516129032258" opacity="1" fill="#7D8590">
200
</text>
<polyline fill="none" opacity="1" stroke="#21262D" stroke-width="1" points="90,453 790,453 "/>
<text x="82" y="453" dy="0.5ex" text-anchor="end" font-family="sans-serif" font-size="8.064516129032258" opacity="1" fill="#7D8590">
500
</text>
<polyline fill="none" opacity="1" stroke="#21262D" stroke-width="1" points="90,414 790,414 "/>
<text x="82" y="414" dy="0.5ex" text-anchor="end" font-family="sans-serif" font-size="8.064516129032258" opacity="1" fill="#7D8590">
1000
</text>
<polyline fill="none" opacity="1" stroke="#21262D" stroke-width="1" points="90,376 790,376 "/>
<text x="82" y="376" dy="0.5ex" text-anchor="end" font-family="sans-serif" font-size="8.064516129032258" opacity="1" fill="#7D8590">
2000
</text>
<polyline fill="none" opacity="1" stroke="#60A5FA" stroke-width="2" points="118,462 196,460 274,458 352,435 430,422 508,412 586,401 664,397 742,390 "/>
<circle cx="118" cy="462" r="3" opacity="1" fill="#60A5FA" stroke="none" stroke-width="1"/>
<circle cx="196" cy="460" r="3" opacity="1" fill="#60A5FA" stroke="none" stroke-width="1"/>
<circle cx="274" cy="458" r="3" opacity="1" fill="#60A5FA" stroke="none" stroke-width="1"/>
<circle cx="352" cy="435" r="3" opacity="1" fill="#60A5FA" stroke="none" stroke-width="1"/>
<circle cx="430" cy="422" r="3" opacity="1" fill="#60A5FA" stroke="none" stroke-width="1"/>
<circle cx="508" cy="412" r="3" opacity="1" fill="#60A5FA" stroke="none" stroke-width="1"/>
<circle cx="586" cy="401" r="3" opacity="1" fill="#60A5FA" stroke="none" stroke-width="1"/>
<circle cx="664" cy="397" r="3" opacity="1" fill="#60A5FA" stroke="none" stroke-width="1"/>
<circle cx="742" cy="390" r="3" opacity="1" fill="#60A5FA" stroke="none" stroke-width="1"/>
<polyline fill="none" opacity="1" stroke="#F87171" stroke-width="2" points="118,495 196,500 274,501 352,475 430,456 508,442 586,429 664,421 742,415 "/>
<circle cx="118" cy="495" r="3" opacity="1" fill="#F87171" stroke="none" stroke-width="1"/>
<circle cx="196" cy="500" r="3" opacity="1" fill="#F87171" stroke="none" stroke-width="1"/>
<circle cx="274" cy="501" r="3" opacity="1" fill="#F87171" stroke="none" stroke-width="1"/>
<circle cx="352" cy="475" r="3" opacity="1" fill="#F87171" stroke="none" stroke-width="1"/>
<circle cx="430" cy="456" r="3" opacity="1" fill="#F87171" stroke="none" stroke-width="1"/>
<circle cx="508" cy="442" r="3" opacity="1" fill="#F87171" stroke="none" stroke-width="1"/>
<circle cx="586" cy="429" r="3" opacity="1" fill="#F87171" stroke="none" stroke-width="1"/>
<circle cx="664" cy="421" r="3" opacity="1" fill="#F87171" stroke="none" stroke-width="1"/>
<circle cx="742" cy="415" r="3" opacity="1" fill="#F87171" stroke="none" stroke-width="1"/>
<polyline fill="none" opacity="0.6" stroke="#F87171" stroke-width="1" points="118,510 196,492 274,509 352,484 430,465 508,448 586,438 664,428 742,423 "/>
<polyline fill="none" opacity="1" stroke="#F472B6" stroke-width="2" points="118,500 196,505 274,504 352,479 430,460 508,447 586,433 664,426 742,420 "/>
<circle cx="118" cy="500" r="3" opacity="1" fill="#F472B6" stroke="none" stroke-width="1"/>
<circle cx="196" cy="505" r="3" opacity="1" fill="#F472B6" stroke="none" stroke-width="1"/>
<circle cx="274" cy="504" r="3" opacity="1" fill="#F472B6" stroke="none" stroke-width="1"/>
<circle cx="352" cy="479" r="3" opacity="1" fill="#F472B6" stroke="none" stroke-width="1"/>
<circle cx="430" cy="460" r="3" opacity="1" fill="#F472B6" stroke="none" stroke-width="1"/>
<circle cx="508" cy="447" r="3" opacity="1" fill="#F472B6" stroke="none" stroke-width="1"/>
<circle cx="586" cy="433" r="3" opacity="1" fill="#F472B6" stroke="none" stroke-width="1"/>
<circle cx="664" cy="426" r="3" opacity="1" fill="#F472B6" stroke="none" stroke-width="1"/>
<circle cx="742" cy="420" r="3" opacity="1" fill="#F472B6" stroke="none" stroke-width="1"/>
<polyline fill="none" opacity="0.6" stroke="#F472B6" stroke-width="1" points="118,516 196,497 274,513 352,488 430,469 508,453 586,444 664,435 742,430 "/>
<polyline fill="none" opacity="1" stroke="#F59E0B" stroke-width="2" points="118,516 196,503 274,495 352,470 430,451 508,438 586,425 664,419 742,412 "/>
<circle cx="118" cy="516" r="3" opacity="1" fill="#F59E0B" stroke="none" stroke-width="1"/>
<circle cx="196" cy="503" r="3" opacity="1" fill="#F59E0B" stroke="none" stroke-width="1"/>
<circle cx="274" cy="495" r="3" opacity="1" fill="#F59E0B" stroke="none" stroke-width="1"/>
<circle cx="352" cy="470" r="3" opacity="1" fill="#F59E0B" stroke="none" stroke-width="1"/>
<circle cx="430" cy="451" r="3" opacity="1" fill="#F59E0B" stroke="none" stroke-width="1"/>
<circle cx="508" cy="438" r="3" opacity="1" fill="#F59E0B" stroke="none" stroke-width="1"/>
<circle cx="586" cy="425" r="3" opacity="1" fill="#F59E0B" stroke="none" stroke-width="1"/>
<circle cx="664" cy="419" r="3" opacity="1" fill="#F59E0B" stroke="none" stroke-width="1"/>
<circle cx="742" cy="412" r="3" opacity="1" fill="#F59E0B" stroke="none" stroke-width="1"/>
<polyline fill="none" opacity="0.6" stroke="#F59E0B" stroke-width="1" points="118,529 196,509 274,485 352,464 430,450 508,435 586,427 664,420 742,413 "/>
<polyline fill="none" opacity="1" stroke="#4ADE80" stroke-width="2" points="118,548 196,533 274,524 352,506 430,494 508,487 586,478 664,472 742,467 "/>
<circle cx="118" cy="548" r="3" opacity="1" fill="#4ADE80" stroke="none" stroke-width="1"/>
<circle cx="196" cy="533" r="3" opacity="1" fill="#4ADE80" stroke="none" stroke-width="1"/>
<circle cx="274" cy="524" r="3" opacity="1" fill="#4ADE80" stroke="none" stroke-width="1"/>
<circle cx="352" cy="506" r="3" opacity="1" fill="#4ADE80" stroke="none" stroke-width="1"/>
<circle cx="430" cy="494" r="3" opacity="1" fill="#4ADE80" stroke="none" stroke-width="1"/>
<circle cx="508" cy="487" r="3" opacity="1" fill="#4ADE80" stroke="none" stroke-width="1"/>
<circle cx="586" cy="478" r="3" opacity="1" fill="#4ADE80" stroke="none" stroke-width="1"/>
<circle cx="664" cy="472" r="3" opacity="1" fill="#4ADE80" stroke="none" stroke-width="1"/>
<circle cx="742" cy="467" r="3" opacity="1" fill="#4ADE80" stroke="none" stroke-width="1"/>
<polyline fill="none" opacity="1" stroke="#C084FC" stroke-width="2" points="118,349 196,344 274,353 352,355 430,359 508,356 586,356 664,356 742,355 "/>
<circle cx="118" cy="349" r="3" opacity="1" fill="#C084FC" stroke="none" stroke-width="1"/>
<circle cx="196" cy="344" r="3" opacity="1" fill="#C084FC" stroke="none" stroke-width="1"/>
<circle cx="274" cy="353" r="3" opacity="1" fill="#C084FC" stroke="none" stroke-width="1"/>
<circle cx="352" cy="355" r="3" opacity="1" fill="#C084FC" stroke="none" stroke-width="1"/>
<circle cx="430" cy="359" r="3" opacity="1" fill="#C084FC" stroke="none" stroke-width="1"/>
<circle cx="508" cy="356" r="3" opacity="1" fill="#C084FC" stroke="none" stroke-width="1"/>
<circle cx="586" cy="356" r="3" opacity="1" fill="#C084FC" stroke="none" stroke-width="1"/>
<circle cx="664" cy="356" r="3" opacity="1" fill="#C084FC" stroke="none" stroke-width="1"/>
<circle cx="742" cy="355" r="3" opacity="1" fill="#C084FC" stroke="none" stroke-width="1"/>
<rect x="90" y="606" width="700" height="220" opacity="1" fill="#161B22" stroke="none"/>
<text x="440" y="594" dy="0.5ex" text-anchor="middle" font-family="sans-serif" font-size="10.483870967741936" opacity="1" fill="#E6EDF3" font-weight="bold">
xml
</text>
<polyline fill="none" opacity="1" stroke="#30363D" stroke-width="2" points="90,826 790,826 "/>
<polyline fill="none" opacity="1" stroke="#21262D" stroke-width="1" points="118,606 118,826 "/>
<text x="118" y="842" dy="0.5ex" text-anchor="middle" font-family="sans-serif" font-size="8.064516129032258" opacity="1" fill="#7D8590">
512
</text>
<polyline fill="none" opacity="1" stroke="#21262D" stroke-width="1" points="196,606 196,826 "/>
<text x="196" y="842" dy="0.5ex" text-anchor="middle" font-family="sans-serif" font-size="8.064516129032258" opacity="1" fill="#7D8590">
1K
</text>
<polyline fill="none" opacity="1" stroke="#21262D" stroke-width="1" points="274,606 274,826 "/>
<text x="274" y="842" dy="0.5ex" text-anchor="middle" font-family="sans-serif" font-size="8.064516129032258" opacity="1" fill="#7D8590">
2K
</text>
<polyline fill="none" opacity="1" stroke="#21262D" stroke-width="1" points="352,606 352,826 "/>
<text x="352" y="842" dy="0.5ex" text-anchor="middle" font-family="sans-serif" font-size="8.064516129032258" opacity="1" fill="#7D8590">
4K
</text>
<polyline fill="none" opacity="1" stroke="#21262D" stroke-width="1" points="430,606 430,826 "/>
<text x="430" y="842" dy="0.5ex" text-anchor="middle" font-family="sans-serif" font-size="8.064516129032258" opacity="1" fill="#7D8590">
8K
</text>
<polyline fill="none" opacity="1" stroke="#21262D" stroke-width="1" points="508,606 508,826 "/>
<text x="508" y="842" dy="0.5ex" text-anchor="middle" font-family="sans-serif" font-size="8.064516129032258" opacity="1" fill="#7D8590">
16K
</text>
<polyline fill="none" opacity="1" stroke="#21262D" stroke-width="1" points="586,606 586,826 "/>
<text x="586" y="842" dy="0.5ex" text-anchor="middle" font-family="sans-serif" font-size="8.064516129032258" opacity="1" fill="#7D8590">
32K
</text>
<polyline fill="none" opacity="1" stroke="#21262D" stroke-width="1" points="664,606 664,826 "/>
<text x="664" y="842" dy="0.5ex" text-anchor="middle" font-family="sans-serif" font-size="8.064516129032258" opacity="1" fill="#7D8590">
64K
</text>
<polyline fill="none" opacity="1" stroke="#21262D" stroke-width="1" points="742,606 742,826 "/>
<text x="742" y="842" dy="0.5ex" text-anchor="middle" font-family="sans-serif" font-size="8.064516129032258" opacity="1" fill="#7D8590">
128K
</text>
<polyline fill="none" opacity="1" stroke="#21262D" stroke-width="1" points="90,796 790,796 "/>
<text x="82" y="796" dy="0.5ex" text-anchor="end" font-family="sans-serif" font-size="8.064516129032258" opacity="1" fill="#7D8590">
100
</text>
<polyline fill="none" opacity="1" stroke="#21262D" stroke-width="1" points="90,759 790,759 "/>
<text x="82" y="759" dy="0.5ex" text-anchor="end" font-family="sans-serif" font-size="8.064516129032258" opacity="1" fill="#7D8590">
200
</text>
<polyline fill="none" opacity="1" stroke="#21262D" stroke-width="1" points="90,709 790,709 "/>
<text x="82" y="709" dy="0.5ex" text-anchor="end" font-family="sans-serif" font-size="8.064516129032258" opacity="1" fill="#7D8590">
500
</text>
<polyline fill="none" opacity="1" stroke="#21262D" stroke-width="1" points="90,672 790,672 "/>
<text x="82" y="672" dy="0.5ex" text-anchor="end" font-family="sans-serif" font-size="8.064516129032258" opacity="1" fill="#7D8590">
1000
</text>
<polyline fill="none" opacity="1" stroke="#21262D" stroke-width="1" points="90,635 790,635 "/>
<text x="82" y="635" dy="0.5ex" text-anchor="end" font-family="sans-serif" font-size="8.064516129032258" opacity="1" fill="#7D8590">
2000
</text>
<polyline fill="none" opacity="1" stroke="#60A5FA" stroke-width="2" points="118,750 196,732 274,715 352,694 430,673 508,674 586,667 664,652 742,654 "/>
<circle cx="118" cy="750" r="3" opacity="1" fill="#60A5FA" stroke="none" stroke-width="1"/>
<circle cx="196" cy="732" r="3" opacity="1" fill="#60A5FA" stroke="none" stroke-width="1"/>
<circle cx="274" cy="715" r="3" opacity="1" fill="#60A5FA" stroke="none" stroke-width="1"/>
<circle cx="352" cy="694" r="3" opacity="1" fill="#60A5FA" stroke="none" stroke-width="1"/>
<circle cx="430" cy="673" r="3" opacity="1" fill="#60A5FA" stroke="none" stroke-width="1"/>
<circle cx="508" cy="674" r="3" opacity="1" fill="#60A5FA" stroke="none" stroke-width="1"/>
<circle cx="586" cy="667" r="3" opacity="1" fill="#60A5FA" stroke="none" stroke-width="1"/>
<circle cx="664" cy="652" r="3" opacity="1" fill="#60A5FA" stroke="none" stroke-width="1"/>
<circle cx="742" cy="654" r="3" opacity="1" fill="#60A5FA" stroke="none" stroke-width="1"/>
<polyline fill="none" opacity="1" stroke="#F87171" stroke-width="2" points="118,783 196,779 274,757 352,731 430,706 508,702 586,690 664,674 742,674 "/>
<circle cx="118" cy="783" r="3" opacity="1" fill="#F87171" stroke="none" stroke-width="1"/>
<circle cx="196" cy="779" r="3" opacity="1" fill="#F87171" stroke="none" stroke-width="1"/>
<circle cx="274" cy="757" r="3" opacity="1" fill="#F87171" stroke="none" stroke-width="1"/>
<circle cx="352" cy="731" r="3" opacity="1" fill="#F87171" stroke="none" stroke-width="1"/>
<circle cx="430" cy="706" r="3" opacity="1" fill="#F87171" stroke="none" stroke-width="1"/>
<circle cx="508" cy="702" r="3" opacity="1" fill="#F87171" stroke="none" stroke-width="1"/>
<circle cx="586" cy="690" r="3" opacity="1" fill="#F87171" stroke="none" stroke-width="1"/>
<circle cx="664" cy="674" r="3" opacity="1" fill="#F87171" stroke="none" stroke-width="1"/>
<circle cx="742" cy="674" r="3" opacity="1" fill="#F87171" stroke="none" stroke-width="1"/>
<polyline fill="none" opacity="0.6" stroke="#F87171" stroke-width="1" points="118,784 196,761 274,752 352,738 430,712 508,707 586,697 664,680 742,679 "/>
<polyline fill="none" opacity="1" stroke="#F472B6" stroke-width="2" points="118,788 196,783 274,761 352,737 430,712 508,711 586,698 664,681 742,683 "/>
<circle cx="118" cy="788" r="3" opacity="1" fill="#F472B6" stroke="none" stroke-width="1"/>
<circle cx="196" cy="783" r="3" opacity="1" fill="#F472B6" stroke="none" stroke-width="1"/>
<circle cx="274" cy="761" r="3" opacity="1" fill="#F472B6" stroke="none" stroke-width="1"/>
<circle cx="352" cy="737" r="3" opacity="1" fill="#F472B6" stroke="none" stroke-width="1"/>
<circle cx="430" cy="712" r="3" opacity="1" fill="#F472B6" stroke="none" stroke-width="1"/>
<circle cx="508" cy="711" r="3" opacity="1" fill="#F472B6" stroke="none" stroke-width="1"/>
<circle cx="586" cy="698" r="3" opacity="1" fill="#F472B6" stroke="none" stroke-width="1"/>
<circle cx="664" cy="681" r="3" opacity="1" fill="#F472B6" stroke="none" stroke-width="1"/>
<circle cx="742" cy="683" r="3" opacity="1" fill="#F472B6" stroke="none" stroke-width="1"/>
<polyline fill="none" opacity="0.6" stroke="#F472B6" stroke-width="1" points="118,789 196,767 274,757 352,744 430,719 508,716 586,705 664,688 742,690 "/>
<polyline fill="none" opacity="1" stroke="#F59E0B" stroke-width="2" points="118,792 196,774 274,752 352,728 430,703 508,703 586,690 664,674 742,675 "/>
<circle cx="118" cy="792" r="3" opacity="1" fill="#F59E0B" stroke="none" stroke-width="1"/>
<circle cx="196" cy="774" r="3" opacity="1" fill="#F59E0B" stroke="none" stroke-width="1"/>
<circle cx="274" cy="752" r="3" opacity="1" fill="#F59E0B" stroke="none" stroke-width="1"/>
<circle cx="352" cy="728" r="3" opacity="1" fill="#F59E0B" stroke="none" stroke-width="1"/>
<circle cx="430" cy="703" r="3" opacity="1" fill="#F59E0B" stroke="none" stroke-width="1"/>
<circle cx="508" cy="703" r="3" opacity="1" fill="#F59E0B" stroke="none" stroke-width="1"/>
<circle cx="586" cy="690" r="3" opacity="1" fill="#F59E0B" stroke="none" stroke-width="1"/>
<circle cx="664" cy="674" r="3" opacity="1" fill="#F59E0B" stroke="none" stroke-width="1"/>
<circle cx="742" cy="675" r="3" opacity="1" fill="#F59E0B" stroke="none" stroke-width="1"/>
<polyline fill="none" opacity="0.6" stroke="#F59E0B" stroke-width="1" points="118,794 196,765 274,742 352,718 430,697 508,698 586,691 664,675 742,676 "/>
<polyline fill="none" opacity="1" stroke="#4ADE80" stroke-width="2" points="118,819 196,804 274,783 352,761 430,740 508,751 586,743 664,727 742,730 "/>
<circle cx="118" cy="819" r="3" opacity="1" fill="#4ADE80" stroke="none" stroke-width="1"/>
<circle cx="196" cy="804" r="3" opacity="1" fill="#4ADE80" stroke="none" stroke-width="1"/>
<circle cx="274" cy="783" r="3" opacity="1" fill="#4ADE80" stroke="none" stroke-width="1"/>
<circle cx="352" cy="761" r="3" opacity="1" fill="#4ADE80" stroke="none" stroke-width="1"/>
<circle cx="430" cy="740" r="3" opacity="1" fill="#4ADE80" stroke="none" stroke-width="1"/>
<circle cx="508" cy="751" r="3" opacity="1" fill="#4ADE80" stroke="none" stroke-width="1"/>
<circle cx="586" cy="743" r="3" opacity="1" fill="#4ADE80" stroke="none" stroke-width="1"/>
<circle cx="664" cy="727" r="3" opacity="1" fill="#4ADE80" stroke="none" stroke-width="1"/>
<circle cx="742" cy="730" r="3" opacity="1" fill="#4ADE80" stroke="none" stroke-width="1"/>
<polyline fill="none" opacity="1" stroke="#C084FC" stroke-width="2" points="118,613 196,618 274,628 352,631 430,627 508,628 586,630 664,626 742,627 "/>
<circle cx="118" cy="613" r="3" opacity="1" fill="#C084FC" stroke="none" stroke-width="1"/>
<circle cx="196" cy="618" r="3" opacity="1" fill="#C084FC" stroke="none" stroke-width="1"/>
<circle cx="274" cy="628" r="3" opacity="1" fill="#C084FC" stroke="none" stroke-width="1"/>
<circle cx="352" cy="631" r="3" opacity="1" fill="#C084FC" stroke="none" stroke-width="1"/>
<circle cx="430" cy="627" r="3" opacity="1" fill="#C084FC" stroke="none" stroke-width="1"/>
<circle cx="508" cy="628" r="3" opacity="1" fill="#C084FC" stroke="none" stroke-width="1"/>
<circle cx="586" cy="630" r="3" opacity="1" fill="#C084FC" stroke="none" stroke-width="1"/>
<circle cx="664" cy="626" r="3" opacity="1" fill="#C084FC" stroke="none" stroke-width="1"/>
<circle cx="742" cy="627" r="3" opacity="1" fill="#C084FC" stroke="none" stroke-width="1"/>
<rect x="90" y="876" width="700" height="220" opacity="1" fill="#161B22" stroke="none"/>
<text x="440" y="864" dy="0.5ex" text-anchor="middle" font-family="sans-serif" font-size="10.483870967741936" opacity="1" fill="#E6EDF3" font-weight="bold">
x-ray
</text>
<polyline fill="none" opacity="1" stroke="#30363D" stroke-width="2" points="90,1096 790,1096 "/>
<polyline fill="none" opacity="1" stroke="#21262D" stroke-width="1" points="118,876 118,1096 "/>
<text x="118" y="1112" dy="0.5ex" text-anchor="middle" font-family="sans-serif" font-size="8.064516129032258" opacity="1" fill="#7D8590">
512
</text>
<polyline fill="none" opacity="1" stroke="#21262D" stroke-width="1" points="196,876 196,1096 "/>
<text x="196" y="1112" dy="0.5ex" text-anchor="middle" font-family="sans-serif" font-size="8.064516129032258" opacity="1" fill="#7D8590">
1K
</text>
<polyline fill="none" opacity="1" stroke="#21262D" stroke-width="1" points="274,876 274,1096 "/>
<text x="274" y="1112" dy="0.5ex" text-anchor="middle" font-family="sans-serif" font-size="8.064516129032258" opacity="1" fill="#7D8590">
2K
</text>
<polyline fill="none" opacity="1" stroke="#21262D" stroke-width="1" points="352,876 352,1096 "/>
<text x="352" y="1112" dy="0.5ex" text-anchor="middle" font-family="sans-serif" font-size="8.064516129032258" opacity="1" fill="#7D8590">
4K
</text>
<polyline fill="none" opacity="1" stroke="#21262D" stroke-width="1" points="430,876 430,1096 "/>
<text x="430" y="1112" dy="0.5ex" text-anchor="middle" font-family="sans-serif" font-size="8.064516129032258" opacity="1" fill="#7D8590">
8K
</text>
<polyline fill="none" opacity="1" stroke="#21262D" stroke-width="1" points="508,876 508,1096 "/>
<text x="508" y="1112" dy="0.5ex" text-anchor="middle" font-family="sans-serif" font-size="8.064516129032258" opacity="1" fill="#7D8590">
16K
</text>
<polyline fill="none" opacity="1" stroke="#21262D" stroke-width="1" points="586,876 586,1096 "/>
<text x="586" y="1112" dy="0.5ex" text-anchor="middle" font-family="sans-serif" font-size="8.064516129032258" opacity="1" fill="#7D8590">
32K
</text>
<polyline fill="none" opacity="1" stroke="#21262D" stroke-width="1" points="664,876 664,1096 "/>
<text x="664" y="1112" dy="0.5ex" text-anchor="middle" font-family="sans-serif" font-size="8.064516129032258" opacity="1" fill="#7D8590">
64K
</text>
<polyline fill="none" opacity="1" stroke="#21262D" stroke-width="1" points="742,876 742,1096 "/>
<text x="742" y="1112" dy="0.5ex" text-anchor="middle" font-family="sans-serif" font-size="8.064516129032258" opacity="1" fill="#7D8590">
128K
</text>
<polyline fill="none" opacity="1" stroke="#21262D" stroke-width="1" points="90,1091 790,1091 "/>
<text x="82" y="1091" dy="0.5ex" text-anchor="end" font-family="sans-serif" font-size="8.064516129032258" opacity="1" fill="#7D8590">
50
</text>
<polyline fill="none" opacity="1" stroke="#21262D" stroke-width="1" points="90,1066 790,1066 "/>
<text x="82" y="1066" dy="0.5ex" text-anchor="end" font-family="sans-serif" font-size="8.064516129032258" opacity="1" fill="#7D8590">
100
</text>
<polyline fill="none" opacity="1" stroke="#21262D" stroke-width="1" points="90,1042 790,1042 "/>
<text x="82" y="1042" dy="0.5ex" text-anchor="end" font-family="sans-serif" font-size="8.064516129032258" opacity="1" fill="#7D8590">
200
</text>
<polyline fill="none" opacity="1" stroke="#21262D" stroke-width="1" points="90,1009 790,1009 "/>
<text x="82" y="1009" dy="0.5ex" text-anchor="end" font-family="sans-serif" font-size="8.064516129032258" opacity="1" fill="#7D8590">
500
</text>
<polyline fill="none" opacity="1" stroke="#21262D" stroke-width="1" points="90,985 790,985 "/>
<text x="82" y="985" dy="0.5ex" text-anchor="end" font-family="sans-serif" font-size="8.064516129032258" opacity="1" fill="#7D8590">
1000
</text>
<polyline fill="none" opacity="1" stroke="#21262D" stroke-width="1" points="90,960 790,960 "/>
<text x="82" y="960" dy="0.5ex" text-anchor="end" font-family="sans-serif" font-size="8.064516129032258" opacity="1" fill="#7D8590">
2000
</text>
<polyline fill="none" opacity="1" stroke="#21262D" stroke-width="1" points="90,928 790,928 "/>
<text x="82" y="928" dy="0.5ex" text-anchor="end" font-family="sans-serif" font-size="8.064516129032258" opacity="1" fill="#7D8590">
5000
</text>
<polyline fill="none" opacity="1" stroke="#21262D" stroke-width="1" points="90,903 790,903 "/>
<text x="82" y="903" dy="0.5ex" text-anchor="end" font-family="sans-serif" font-size="8.064516129032258" opacity="1" fill="#7D8590">
10000
</text>
<polyline fill="none" opacity="1" stroke="#60A5FA" stroke-width="2" points="118,1037 196,1019 274,1007 352,999 430,997 508,999 586,993 664,992 742,992 "/>
<circle cx="118" cy="1037" r="3" opacity="1" fill="#60A5FA" stroke="none" stroke-width="1"/>
<circle cx="196" cy="1019" r="3" opacity="1" fill="#60A5FA" stroke="none" stroke-width="1"/>
<circle cx="274" cy="1007" r="3" opacity="1" fill="#60A5FA" stroke="none" stroke-width="1"/>
<circle cx="352" cy="999" r="3" opacity="1" fill="#60A5FA" stroke="none" stroke-width="1"/>
<circle cx="430" cy="997" r="3" opacity="1" fill="#60A5FA" stroke="none" stroke-width="1"/>
<circle cx="508" cy="999" r="3" opacity="1" fill="#60A5FA" stroke="none" stroke-width="1"/>
<circle cx="586" cy="993" r="3" opacity="1" fill="#60A5FA" stroke="none" stroke-width="1"/>
<circle cx="664" cy="992" r="3" opacity="1" fill="#60A5FA" stroke="none" stroke-width="1"/>
<circle cx="742" cy="992" r="3" opacity="1" fill="#60A5FA" stroke="none" stroke-width="1"/>
<polyline fill="none" opacity="1" stroke="#F87171" stroke-width="2" points="118,1079 196,1057 274,1037 352,1027 430,1022 508,1017 586,1011 664,1008 742,1007 "/>
<circle cx="118" cy="1079" r="3" opacity="1" fill="#F87171" stroke="none" stroke-width="1"/>
<circle cx="196" cy="1057" r="3" opacity="1" fill="#F87171" stroke="none" stroke-width="1"/>
<circle cx="274" cy="1037" r="3" opacity="1" fill="#F87171" stroke="none" stroke-width="1"/>
<circle cx="352" cy="1027" r="3" opacity="1" fill="#F87171" stroke="none" stroke-width="1"/>
<circle cx="430" cy="1022" r="3" opacity="1" fill="#F87171" stroke="none" stroke-width="1"/>
<circle cx="508" cy="1017" r="3" opacity="1" fill="#F87171" stroke="none" stroke-width="1"/>
<circle cx="586" cy="1011" r="3" opacity="1" fill="#F87171" stroke="none" stroke-width="1"/>
<circle cx="664" cy="1008" r="3" opacity="1" fill="#F87171" stroke="none" stroke-width="1"/>
<circle cx="742" cy="1007" r="3" opacity="1" fill="#F87171" stroke="none" stroke-width="1"/>
<polyline fill="none" opacity="0.6" stroke="#F87171" stroke-width="1" points="118,1081 196,1057 274,1037 352,1022 430,1012 508,1005 586,1002 664,1000 742,999 "/>
<polyline fill="none" opacity="1" stroke="#F472B6" stroke-width="2" points="118,1080 196,1058 274,1039 352,1028 430,1023 508,1019 586,1013 664,1010 742,1010 "/>
<circle cx="118" cy="1080" r="3" opacity="1" fill="#F472B6" stroke="none" stroke-width="1"/>
<circle cx="196" cy="1058" r="3" opacity="1" fill="#F472B6" stroke="none" stroke-width="1"/>
<circle cx="274" cy="1039" r="3" opacity="1" fill="#F472B6" stroke="none" stroke-width="1"/>
<circle cx="352" cy="1028" r="3" opacity="1" fill="#F472B6" stroke="none" stroke-width="1"/>
<circle cx="430" cy="1023" r="3" opacity="1" fill="#F472B6" stroke="none" stroke-width="1"/>
<circle cx="508" cy="1019" r="3" opacity="1" fill="#F472B6" stroke="none" stroke-width="1"/>
<circle cx="586" cy="1013" r="3" opacity="1" fill="#F472B6" stroke="none" stroke-width="1"/>
<circle cx="664" cy="1010" r="3" opacity="1" fill="#F472B6" stroke="none" stroke-width="1"/>
<circle cx="742" cy="1010" r="3" opacity="1" fill="#F472B6" stroke="none" stroke-width="1"/>
<polyline fill="none" opacity="0.6" stroke="#F472B6" stroke-width="1" points="118,1083 196,1060 274,1039 352,1024 430,1013 508,1007 586,1003 664,1001 742,1000 "/>
<polyline fill="none" opacity="1" stroke="#F59E0B" stroke-width="2" points="118,1062 196,1044 274,1026 352,1018 430,1014 508,1012 586,1007 664,1004 742,1004 "/>
<circle cx="118" cy="1062" r="3" opacity="1" fill="#F59E0B" stroke="none" stroke-width="1"/>
<circle cx="196" cy="1044" r="3" opacity="1" fill="#F59E0B" stroke="none" stroke-width="1"/>
<circle cx="274" cy="1026" r="3" opacity="1" fill="#F59E0B" stroke="none" stroke-width="1"/>
<circle cx="352" cy="1018" r="3" opacity="1" fill="#F59E0B" stroke="none" stroke-width="1"/>
<circle cx="430" cy="1014" r="3" opacity="1" fill="#F59E0B" stroke="none" stroke-width="1"/>
<circle cx="508" cy="1012" r="3" opacity="1" fill="#F59E0B" stroke="none" stroke-width="1"/>
<circle cx="586" cy="1007" r="3" opacity="1" fill="#F59E0B" stroke="none" stroke-width="1"/>
<circle cx="664" cy="1004" r="3" opacity="1" fill="#F59E0B" stroke="none" stroke-width="1"/>
<circle cx="742" cy="1004" r="3" opacity="1" fill="#F59E0B" stroke="none" stroke-width="1"/>
<polyline fill="none" opacity="0.6" stroke="#F59E0B" stroke-width="1" points="118,1062 196,1042 274,1025 352,1015 430,1008 508,1006 586,1006 664,1003 742,1003 "/>
<polyline fill="none" opacity="1" stroke="#4ADE80" stroke-width="2" points="118,1091 196,1076 274,1065 352,1059 430,1058 508,1057 586,1054 664,1054 742,1054 "/>
<circle cx="118" cy="1091" r="3" opacity="1" fill="#4ADE80" stroke="none" stroke-width="1"/>
<circle cx="196" cy="1076" r="3" opacity="1" fill="#4ADE80" stroke="none" stroke-width="1"/>
<circle cx="274" cy="1065" r="3" opacity="1" fill="#4ADE80" stroke="none" stroke-width="1"/>
<circle cx="352" cy="1059" r="3" opacity="1" fill="#4ADE80" stroke="none" stroke-width="1"/>
<circle cx="430" cy="1058" r="3" opacity="1" fill="#4ADE80" stroke="none" stroke-width="1"/>
<circle cx="508" cy="1057" r="3" opacity="1" fill="#4ADE80" stroke="none" stroke-width="1"/>
<circle cx="586" cy="1054" r="3" opacity="1" fill="#4ADE80" stroke="none" stroke-width="1"/>
<circle cx="664" cy="1054" r="3" opacity="1" fill="#4ADE80" stroke="none" stroke-width="1"/>
<circle cx="742" cy="1054" r="3" opacity="1" fill="#4ADE80" stroke="none" stroke-width="1"/>
<polyline fill="none" opacity="1" stroke="#C084FC" stroke-width="2" points="118,896 196,881 274,881 352,883 430,882 508,883 586,884 664,883 742,886 "/>
<circle cx="118" cy="896" r="3" opacity="1" fill="#C084FC" stroke="none" stroke-width="1"/>
<circle cx="196" cy="881" r="3" opacity="1" fill="#C084FC" stroke="none" stroke-width="1"/>
<circle cx="274" cy="881" r="3" opacity="1" fill="#C084FC" stroke="none" stroke-width="1"/>
<circle cx="352" cy="883" r="3" opacity="1" fill="#C084FC" stroke="none" stroke-width="1"/>
<circle cx="430" cy="882" r="3" opacity="1" fill="#C084FC" stroke="none" stroke-width="1"/>
<circle cx="508" cy="883" r="3" opacity="1" fill="#C084FC" stroke="none" stroke-width="1"/>
<circle cx="586" cy="884" r="3" opacity="1" fill="#C084FC" stroke="none" stroke-width="1"/>
<circle cx="664" cy="883" r="3" opacity="1" fill="#C084FC" stroke="none" stroke-width="1"/>
<circle cx="742" cy="886" r="3" opacity="1" fill="#C084FC" stroke="none" stroke-width="1"/>
<text x="415" y="1227" dy="0.5ex" text-anchor="middle" font-family="sans-serif" font-size="8.870967741935484" opacity="1" fill="#7D8590">
thick = decoding C zstd&apos;s frames, thin = decoding its own L3 output
</text>
<text x="20" y="581" dy="0.5ex" text-anchor="middle" font-family="sans-serif" font-size="9.67741935483871" opacity="1" fill="#E6EDF3" font-weight="bold" transform="rotate(270, 20, 581)">
decode MB/s (log scale)
</text>
<rect x="87" y="1145" width="12" height="12" opacity="1" fill="#60A5FA" stroke="none"/>
<text x="105" y="1151" dy="0.5ex" text-anchor="start" font-family="sans-serif" font-size="8.870967741935484" opacity="1" fill="#E6EDF3">
libzstd v1.5.7 (C)
</text>
<rect x="395" y="1145" width="12" height="12" opacity="1" fill="#F87171" stroke="none"/>
<text x="413" y="1151" dy="0.5ex" text-anchor="start" font-family="sans-serif" font-size="8.870967741935484" opacity="1" fill="#E6EDF3">
zrip (safe SIMD + encapsulated unsafe)
</text>
<rect x="87" y="1165" width="12" height="12" opacity="1" fill="#F472B6" stroke="none"/>
<text x="105" y="1171" dy="0.5ex" text-anchor="start" font-family="sans-serif" font-size="8.870967741935484" opacity="1" fill="#E6EDF3">
zrip paranoid (safe SIMD, no unsafe)
</text>
<rect x="395" y="1165" width="12" height="12" opacity="1" fill="#F59E0B" stroke="none"/>
<text x="413" y="1171" dy="0.5ex" text-anchor="start" font-family="sans-serif" font-size="8.870967741935484" opacity="1" fill="#E6EDF3">
structured-zstd v0.0.49 (unsafe)
</text>
<rect x="87" y="1185" width="12" height="12" opacity="1" fill="#4ADE80" stroke="none"/>
<text x="105" y="1191" dy="0.5ex" text-anchor="start" font-family="sans-serif" font-size="8.870967741935484" opacity="1" fill="#E6EDF3">
ruzstd v0.8.3 (safe)
</text>
<rect x="395" y="1185" width="12" height="12" opacity="1" fill="#C084FC" stroke="none"/>
<text x="413" y="1191" dy="0.5ex" text-anchor="start" font-family="sans-serif" font-size="8.870967741935484" opacity="1" fill="#E6EDF3">
lz4rip 0.8.5 (encapsulated unsafe, Rust, LZ4)
</text>
</svg>
