<svg xmlns="http://www.w3.org/2000/svg" viewBox="0 0 830 1135" font-family="system-ui, -apple-system, sans-serif">
  <rect width="830" height="1135" fill="#0d1117"/>
  <text x="415.0" y="18" text-anchor="middle" fill="#e6edf3" font-size="14" font-weight="700">Decode Throughput vs Input Size (C zstd L3 bitstream)</text>
  <text x="415.0" y="34" text-anchor="middle" fill="#7d8590" font-size="10">Intel Core i7-8700B @ 3.20GHz, performance governor, turbo off</text>
  <rect x="90" y="55" width="700" height="220" fill="#161b22" rx="4"/>
  <text x="440.0" y="47" text-anchor="middle" fill="#e6edf3" font-size="12" font-weight="600">dickens</text>
  <line x1="117.8" y1="55" x2="117.8" y2="275" stroke="#21262d" stroke-width="1"/>
  <text x="117.8" y="289" text-anchor="middle" fill="#7d8590" font-size="9">512</text>
  <line x1="195.9" y1="55" x2="195.9" y2="275" stroke="#21262d" stroke-width="1"/>
  <text x="195.9" y="289" text-anchor="middle" fill="#7d8590" font-size="9">1K</text>
  <line x1="274.0" y1="55" x2="274.0" y2="275" stroke="#21262d" stroke-width="1"/>
  <text x="274.0" y="289" text-anchor="middle" fill="#7d8590" font-size="9">2K</text>
  <line x1="352.0" y1="55" x2="352.0" y2="275" stroke="#21262d" stroke-width="1"/>
  <text x="352.0" y="289" text-anchor="middle" fill="#7d8590" font-size="9">4K</text>
  <line x1="430.1" y1="55" x2="430.1" y2="275" stroke="#21262d" stroke-width="1"/>
  <text x="430.1" y="289" text-anchor="middle" fill="#7d8590" font-size="9">8K</text>
  <line x1="508.2" y1="55" x2="508.2" y2="275" stroke="#21262d" stroke-width="1"/>
  <text x="508.2" y="289" text-anchor="middle" fill="#7d8590" font-size="9">16K</text>
  <line x1="586.3" y1="55" x2="586.3" y2="275" stroke="#21262d" stroke-width="1"/>
  <text x="586.3" y="289" text-anchor="middle" fill="#7d8590" font-size="9">32K</text>
  <line x1="664.3" y1="55" x2="664.3" y2="275" stroke="#21262d" stroke-width="1"/>
  <text x="664.3" y="289" text-anchor="middle" fill="#7d8590" font-size="9">64K</text>
  <line x1="742.4" y1="55" x2="742.4" y2="275" stroke="#21262d" stroke-width="1"/>
  <text x="742.4" y="289" text-anchor="middle" fill="#7d8590" font-size="9">128K</text>
  <line x1="90" y1="226.3" x2="790" y2="226.3" stroke="#21262d" stroke-width="1"/>
  <text x="82" y="226.3" text-anchor="end" dominant-baseline="middle" fill="#7d8590" font-size="9">200</text>
  <line x1="90" y1="177.5" x2="790" y2="177.5" stroke="#21262d" stroke-width="1"/>
  <text x="82" y="177.5" text-anchor="end" dominant-baseline="middle" fill="#7d8590" font-size="9">400</text>
  <line x1="90" y1="128.8" x2="790" y2="128.8" stroke="#21262d" stroke-width="1"/>
  <text x="82" y="128.8" text-anchor="end" dominant-baseline="middle" fill="#7d8590" font-size="9">600</text>
  <line x1="90" y1="80.0" x2="790" y2="80.0" stroke="#21262d" stroke-width="1"/>
  <text x="82" y="80.0" text-anchor="end" dominant-baseline="middle" fill="#7d8590" font-size="9">800</text>
  <path d="M117.8,227.3L195.9,200.1L274.0,186.4L352.0,158.7L430.1,139.0L508.2,131.8L586.3,103.5L664.3,90.6L742.4,83.7" fill="none" stroke="#60a5fa" stroke-width="1.8"/>
  <circle cx="117.8" cy="227.3" r="2.5" fill="#60a5fa" stroke="#0d1117" stroke-width="0.8"/>
  <circle cx="195.9" cy="200.1" r="2.5" fill="#60a5fa" stroke="#0d1117" stroke-width="0.8"/>
  <circle cx="274.0" cy="186.4" r="2.5" fill="#60a5fa" stroke="#0d1117" stroke-width="0.8"/>
  <circle cx="352.0" cy="158.7" r="2.5" fill="#60a5fa" stroke="#0d1117" stroke-width="0.8"/>
  <circle cx="430.1" cy="139.0" r="2.5" fill="#60a5fa" stroke="#0d1117" stroke-width="0.8"/>
  <circle cx="508.2" cy="131.8" r="2.5" fill="#60a5fa" stroke="#0d1117" stroke-width="0.8"/>
  <circle cx="586.3" cy="103.5" r="2.5" fill="#60a5fa" stroke="#0d1117" stroke-width="0.8"/>
  <circle cx="664.3" cy="90.6" r="2.5" fill="#60a5fa" stroke="#0d1117" stroke-width="0.8"/>
  <circle cx="742.4" cy="83.7" r="2.5" fill="#60a5fa" stroke="#0d1117" stroke-width="0.8"/>
  <path d="M117.8,250.5L195.9,236.6L274.0,228.8L352.0,210.5L430.1,193.7L508.2,192.3L586.3,187.8L664.3,183.9L742.4,176.3" fill="none" stroke="#f87171" stroke-width="1.8"/>
  <circle cx="117.8" cy="250.5" r="2.5" fill="#f87171" stroke="#0d1117" stroke-width="0.8"/>
  <circle cx="195.9" cy="236.6" r="2.5" fill="#f87171" stroke="#0d1117" stroke-width="0.8"/>
  <circle cx="274.0" cy="228.8" r="2.5" fill="#f87171" stroke="#0d1117" stroke-width="0.8"/>
  <circle cx="352.0" cy="210.5" r="2.5" fill="#f87171" stroke="#0d1117" stroke-width="0.8"/>
  <circle cx="430.1" cy="193.7" r="2.5" fill="#f87171" stroke="#0d1117" stroke-width="0.8"/>
  <circle cx="508.2" cy="192.3" r="2.5" fill="#f87171" stroke="#0d1117" stroke-width="0.8"/>
  <circle cx="586.3" cy="187.8" r="2.5" fill="#f87171" stroke="#0d1117" stroke-width="0.8"/>
  <circle cx="664.3" cy="183.9" r="2.5" fill="#f87171" stroke="#0d1117" stroke-width="0.8"/>
  <circle cx="742.4" cy="176.3" r="2.5" fill="#f87171" stroke="#0d1117" stroke-width="0.8"/>
  <path d="M117.8,250.4L195.9,238.2L274.0,231.3L352.0,217.5L430.1,210.6L508.2,212.2L586.3,206.0L664.3,204.7L742.4,201.2" fill="none" stroke="#f472b6" stroke-width="1.8"/>
  <circle cx="117.8" cy="250.4" r="2.5" fill="#f472b6" stroke="#0d1117" stroke-width="0.8"/>
  <circle cx="195.9" cy="238.2" r="2.5" fill="#f472b6" stroke="#0d1117" stroke-width="0.8"/>
  <circle cx="274.0" cy="231.3" r="2.5" fill="#f472b6" stroke="#0d1117" stroke-width="0.8"/>
  <circle cx="352.0" cy="217.5" r="2.5" fill="#f472b6" stroke="#0d1117" stroke-width="0.8"/>
  <circle cx="430.1" cy="210.6" r="2.5" fill="#f472b6" stroke="#0d1117" stroke-width="0.8"/>
  <circle cx="508.2" cy="212.2" r="2.5" fill="#f472b6" stroke="#0d1117" stroke-width="0.8"/>
  <circle cx="586.3" cy="206.0" r="2.5" fill="#f472b6" stroke="#0d1117" stroke-width="0.8"/>
  <circle cx="664.3" cy="204.7" r="2.5" fill="#f472b6" stroke="#0d1117" stroke-width="0.8"/>
  <circle cx="742.4" cy="201.2" r="2.5" fill="#f472b6" stroke="#0d1117" stroke-width="0.8"/>
  <path d="M117.8,251.5L195.9,235.3L274.0,226.6L352.0,208.5L430.1,196.0L508.2,192.7L586.3,174.1L664.3,168.5L742.4,165.3" fill="none" stroke="#f59e0b" stroke-width="1.8"/>
  <circle cx="117.8" cy="251.5" r="2.5" fill="#f59e0b" stroke="#0d1117" stroke-width="0.8"/>
  <circle cx="195.9" cy="235.3" r="2.5" fill="#f59e0b" stroke="#0d1117" stroke-width="0.8"/>
  <circle cx="274.0" cy="226.6" r="2.5" fill="#f59e0b" stroke="#0d1117" stroke-width="0.8"/>
  <circle cx="352.0" cy="208.5" r="2.5" fill="#f59e0b" stroke="#0d1117" stroke-width="0.8"/>
  <circle cx="430.1" cy="196.0" r="2.5" fill="#f59e0b" stroke="#0d1117" stroke-width="0.8"/>
  <circle cx="508.2" cy="192.7" r="2.5" fill="#f59e0b" stroke="#0d1117" stroke-width="0.8"/>
  <circle cx="586.3" cy="174.1" r="2.5" fill="#f59e0b" stroke="#0d1117" stroke-width="0.8"/>
  <circle cx="664.3" cy="168.5" r="2.5" fill="#f59e0b" stroke="#0d1117" stroke-width="0.8"/>
  <circle cx="742.4" cy="165.3" r="2.5" fill="#f59e0b" stroke="#0d1117" stroke-width="0.8"/>
  <path d="M117.8,259.4L195.9,252.2L274.0,249.5L352.0,246.5L430.1,245.2L508.2,245.8L586.3,241.4L664.3,240.3L742.4,239.3" fill="none" stroke="#4ade80" stroke-width="1.8"/>
  <circle cx="117.8" cy="259.4" r="2.5" fill="#4ade80" stroke="#0d1117" stroke-width="0.8"/>
  <circle cx="195.9" cy="252.2" r="2.5" fill="#4ade80" stroke="#0d1117" stroke-width="0.8"/>
  <circle cx="274.0" cy="249.5" r="2.5" fill="#4ade80" stroke="#0d1117" stroke-width="0.8"/>
  <circle cx="352.0" cy="246.5" r="2.5" fill="#4ade80" stroke="#0d1117" stroke-width="0.8"/>
  <circle cx="430.1" cy="245.2" r="2.5" fill="#4ade80" stroke="#0d1117" stroke-width="0.8"/>
  <circle cx="508.2" cy="245.8" r="2.5" fill="#4ade80" stroke="#0d1117" stroke-width="0.8"/>
  <circle cx="586.3" cy="241.4" r="2.5" fill="#4ade80" stroke="#0d1117" stroke-width="0.8"/>
  <circle cx="664.3" cy="240.3" r="2.5" fill="#4ade80" stroke="#0d1117" stroke-width="0.8"/>
  <circle cx="742.4" cy="239.3" r="2.5" fill="#4ade80" stroke="#0d1117" stroke-width="0.8"/>
  <rect x="90" y="325" width="700" height="220" fill="#161b22" rx="4"/>
  <text x="440.0" y="317" text-anchor="middle" fill="#e6edf3" font-size="12" font-weight="600">hdfs</text>
  <line x1="117.8" y1="325" x2="117.8" y2="545" stroke="#21262d" stroke-width="1"/>
  <text x="117.8" y="559" text-anchor="middle" fill="#7d8590" font-size="9">512</text>
  <line x1="195.9" y1="325" x2="195.9" y2="545" stroke="#21262d" stroke-width="1"/>
  <text x="195.9" y="559" text-anchor="middle" fill="#7d8590" font-size="9">1K</text>
  <line x1="274.0" y1="325" x2="274.0" y2="545" stroke="#21262d" stroke-width="1"/>
  <text x="274.0" y="559" text-anchor="middle" fill="#7d8590" font-size="9">2K</text>
  <line x1="352.0" y1="325" x2="352.0" y2="545" stroke="#21262d" stroke-width="1"/>
  <text x="352.0" y="559" text-anchor="middle" fill="#7d8590" font-size="9">4K</text>
  <line x1="430.1" y1="325" x2="430.1" y2="545" stroke="#21262d" stroke-width="1"/>
  <text x="430.1" y="559" text-anchor="middle" fill="#7d8590" font-size="9">8K</text>
  <line x1="508.2" y1="325" x2="508.2" y2="545" stroke="#21262d" stroke-width="1"/>
  <text x="508.2" y="559" text-anchor="middle" fill="#7d8590" font-size="9">16K</text>
  <line x1="586.3" y1="325" x2="586.3" y2="545" stroke="#21262d" stroke-width="1"/>
  <text x="586.3" y="559" text-anchor="middle" fill="#7d8590" font-size="9">32K</text>
  <line x1="664.3" y1="325" x2="664.3" y2="545" stroke="#21262d" stroke-width="1"/>
  <text x="664.3" y="559" text-anchor="middle" fill="#7d8590" font-size="9">64K</text>
  <line x1="742.4" y1="325" x2="742.4" y2="545" stroke="#21262d" stroke-width="1"/>
  <text x="742.4" y="559" text-anchor="middle" fill="#7d8590" font-size="9">128K</text>
  <line x1="90" y1="511.9" x2="790" y2="511.9" stroke="#21262d" stroke-width="1"/>
  <text x="82" y="511.9" text-anchor="end" dominant-baseline="middle" fill="#7d8590" font-size="9">500</text>
  <line x1="90" y1="478.7" x2="790" y2="478.7" stroke="#21262d" stroke-width="1"/>
  <text x="82" y="478.7" text-anchor="end" dominant-baseline="middle" fill="#7d8590" font-size="9">1000</text>
  <line x1="90" y1="445.6" x2="790" y2="445.6" stroke="#21262d" stroke-width="1"/>
  <text x="82" y="445.6" text-anchor="end" dominant-baseline="middle" fill="#7d8590" font-size="9">1500</text>
  <line x1="90" y1="412.4" x2="790" y2="412.4" stroke="#21262d" stroke-width="1"/>
  <text x="82" y="412.4" text-anchor="end" dominant-baseline="middle" fill="#7d8590" font-size="9">2000</text>
  <line x1="90" y1="379.3" x2="790" y2="379.3" stroke="#21262d" stroke-width="1"/>
  <text x="82" y="379.3" text-anchor="end" dominant-baseline="middle" fill="#7d8590" font-size="9">2500</text>
  <line x1="90" y1="346.2" x2="790" y2="346.2" stroke="#21262d" stroke-width="1"/>
  <text x="82" y="346.2" text-anchor="end" dominant-baseline="middle" fill="#7d8590" font-size="9">3000</text>
  <path d="M117.8,531.6L195.9,519.3L274.0,500.4L352.0,486.2L430.1,448.8L508.2,403.0L586.3,362.3L664.3,353.7L742.4,370.7" fill="none" stroke="#60a5fa" stroke-width="1.8"/>
  <circle cx="117.8" cy="531.6" r="2.5" fill="#60a5fa" stroke="#0d1117" stroke-width="0.8"/>
  <circle cx="195.9" cy="519.3" r="2.5" fill="#60a5fa" stroke="#0d1117" stroke-width="0.8"/>
  <circle cx="274.0" cy="500.4" r="2.5" fill="#60a5fa" stroke="#0d1117" stroke-width="0.8"/>
  <circle cx="352.0" cy="486.2" r="2.5" fill="#60a5fa" stroke="#0d1117" stroke-width="0.8"/>
  <circle cx="430.1" cy="448.8" r="2.5" fill="#60a5fa" stroke="#0d1117" stroke-width="0.8"/>
  <circle cx="508.2" cy="403.0" r="2.5" fill="#60a5fa" stroke="#0d1117" stroke-width="0.8"/>
  <circle cx="586.3" cy="362.3" r="2.5" fill="#60a5fa" stroke="#0d1117" stroke-width="0.8"/>
  <circle cx="664.3" cy="353.7" r="2.5" fill="#60a5fa" stroke="#0d1117" stroke-width="0.8"/>
  <circle cx="742.4" cy="370.7" r="2.5" fill="#60a5fa" stroke="#0d1117" stroke-width="0.8"/>
  <path d="M117.8,538.0L195.9,532.0L274.0,524.0L352.0,514.5L430.1,493.6L508.2,465.1L586.3,436.2L664.3,428.7L742.4,434.7" fill="none" stroke="#f87171" stroke-width="1.8"/>
  <circle cx="117.8" cy="538.0" r="2.5" fill="#f87171" stroke="#0d1117" stroke-width="0.8"/>
  <circle cx="195.9" cy="532.0" r="2.5" fill="#f87171" stroke="#0d1117" stroke-width="0.8"/>
  <circle cx="274.0" cy="524.0" r="2.5" fill="#f87171" stroke="#0d1117" stroke-width="0.8"/>
  <circle cx="352.0" cy="514.5" r="2.5" fill="#f87171" stroke="#0d1117" stroke-width="0.8"/>
  <circle cx="430.1" cy="493.6" r="2.5" fill="#f87171" stroke="#0d1117" stroke-width="0.8"/>
  <circle cx="508.2" cy="465.1" r="2.5" fill="#f87171" stroke="#0d1117" stroke-width="0.8"/>
  <circle cx="586.3" cy="436.2" r="2.5" fill="#f87171" stroke="#0d1117" stroke-width="0.8"/>
  <circle cx="664.3" cy="428.7" r="2.5" fill="#f87171" stroke="#0d1117" stroke-width="0.8"/>
  <circle cx="742.4" cy="434.7" r="2.5" fill="#f87171" stroke="#0d1117" stroke-width="0.8"/>
  <path d="M117.8,538.0L195.9,532.2L274.0,523.8L352.0,516.6L430.1,496.6L508.2,472.2L586.3,448.3L664.3,440.6L742.4,446.5" fill="none" stroke="#f472b6" stroke-width="1.8"/>
  <circle cx="117.8" cy="538.0" r="2.5" fill="#f472b6" stroke="#0d1117" stroke-width="0.8"/>
  <circle cx="195.9" cy="532.2" r="2.5" fill="#f472b6" stroke="#0d1117" stroke-width="0.8"/>
  <circle cx="274.0" cy="523.8" r="2.5" fill="#f472b6" stroke="#0d1117" stroke-width="0.8"/>
  <circle cx="352.0" cy="516.6" r="2.5" fill="#f472b6" stroke="#0d1117" stroke-width="0.8"/>
  <circle cx="430.1" cy="496.6" r="2.5" fill="#f472b6" stroke="#0d1117" stroke-width="0.8"/>
  <circle cx="508.2" cy="472.2" r="2.5" fill="#f472b6" stroke="#0d1117" stroke-width="0.8"/>
  <circle cx="586.3" cy="448.3" r="2.5" fill="#f472b6" stroke="#0d1117" stroke-width="0.8"/>
  <circle cx="664.3" cy="440.6" r="2.5" fill="#f472b6" stroke="#0d1117" stroke-width="0.8"/>
  <circle cx="742.4" cy="446.5" r="2.5" fill="#f472b6" stroke="#0d1117" stroke-width="0.8"/>
  <path d="M117.8,538.2L195.9,532.5L274.0,522.3L352.0,513.6L430.1,491.8L508.2,465.2L586.3,440.3L664.3,434.6L742.4,435.6" fill="none" stroke="#f59e0b" stroke-width="1.8"/>
  <circle cx="117.8" cy="538.2" r="2.5" fill="#f59e0b" stroke="#0d1117" stroke-width="0.8"/>
  <circle cx="195.9" cy="532.5" r="2.5" fill="#f59e0b" stroke="#0d1117" stroke-width="0.8"/>
  <circle cx="274.0" cy="522.3" r="2.5" fill="#f59e0b" stroke="#0d1117" stroke-width="0.8"/>
  <circle cx="352.0" cy="513.6" r="2.5" fill="#f59e0b" stroke="#0d1117" stroke-width="0.8"/>
  <circle cx="430.1" cy="491.8" r="2.5" fill="#f59e0b" stroke="#0d1117" stroke-width="0.8"/>
  <circle cx="508.2" cy="465.2" r="2.5" fill="#f59e0b" stroke="#0d1117" stroke-width="0.8"/>
  <circle cx="586.3" cy="440.3" r="2.5" fill="#f59e0b" stroke="#0d1117" stroke-width="0.8"/>
  <circle cx="664.3" cy="434.6" r="2.5" fill="#f59e0b" stroke="#0d1117" stroke-width="0.8"/>
  <circle cx="742.4" cy="435.6" r="2.5" fill="#f59e0b" stroke="#0d1117" stroke-width="0.8"/>
  <path d="M117.8,540.4L195.9,536.9L274.0,531.1L352.0,525.4L430.1,516.9L508.2,509.5L586.3,505.5L664.3,506.6L742.4,506.7" fill="none" stroke="#4ade80" stroke-width="1.8"/>
  <circle cx="117.8" cy="540.4" r="2.5" fill="#4ade80" stroke="#0d1117" stroke-width="0.8"/>
  <circle cx="195.9" cy="536.9" r="2.5" fill="#4ade80" stroke="#0d1117" stroke-width="0.8"/>
  <circle cx="274.0" cy="531.1" r="2.5" fill="#4ade80" stroke="#0d1117" stroke-width="0.8"/>
  <circle cx="352.0" cy="525.4" r="2.5" fill="#4ade80" stroke="#0d1117" stroke-width="0.8"/>
  <circle cx="430.1" cy="516.9" r="2.5" fill="#4ade80" stroke="#0d1117" stroke-width="0.8"/>
  <circle cx="508.2" cy="509.5" r="2.5" fill="#4ade80" stroke="#0d1117" stroke-width="0.8"/>
  <circle cx="586.3" cy="505.5" r="2.5" fill="#4ade80" stroke="#0d1117" stroke-width="0.8"/>
  <circle cx="664.3" cy="506.6" r="2.5" fill="#4ade80" stroke="#0d1117" stroke-width="0.8"/>
  <circle cx="742.4" cy="506.7" r="2.5" fill="#4ade80" stroke="#0d1117" stroke-width="0.8"/>
  <rect x="90" y="595" width="700" height="220" fill="#161b22" rx="4"/>
  <text x="440.0" y="587" text-anchor="middle" fill="#e6edf3" font-size="12" font-weight="600">xml collection</text>
  <line x1="117.8" y1="595" x2="117.8" y2="815" stroke="#21262d" stroke-width="1"/>
  <text x="117.8" y="829" text-anchor="middle" fill="#7d8590" font-size="9">512</text>
  <line x1="195.9" y1="595" x2="195.9" y2="815" stroke="#21262d" stroke-width="1"/>
  <text x="195.9" y="829" text-anchor="middle" fill="#7d8590" font-size="9">1K</text>
  <line x1="274.0" y1="595" x2="274.0" y2="815" stroke="#21262d" stroke-width="1"/>
  <text x="274.0" y="829" text-anchor="middle" fill="#7d8590" font-size="9">2K</text>
  <line x1="352.0" y1="595" x2="352.0" y2="815" stroke="#21262d" stroke-width="1"/>
  <text x="352.0" y="829" text-anchor="middle" fill="#7d8590" font-size="9">4K</text>
  <line x1="430.1" y1="595" x2="430.1" y2="815" stroke="#21262d" stroke-width="1"/>
  <text x="430.1" y="829" text-anchor="middle" fill="#7d8590" font-size="9">8K</text>
  <line x1="508.2" y1="595" x2="508.2" y2="815" stroke="#21262d" stroke-width="1"/>
  <text x="508.2" y="829" text-anchor="middle" fill="#7d8590" font-size="9">16K</text>
  <line x1="586.3" y1="595" x2="586.3" y2="815" stroke="#21262d" stroke-width="1"/>
  <text x="586.3" y="829" text-anchor="middle" fill="#7d8590" font-size="9">32K</text>
  <line x1="664.3" y1="595" x2="664.3" y2="815" stroke="#21262d" stroke-width="1"/>
  <text x="664.3" y="829" text-anchor="middle" fill="#7d8590" font-size="9">64K</text>
  <line x1="742.4" y1="595" x2="742.4" y2="815" stroke="#21262d" stroke-width="1"/>
  <text x="742.4" y="829" text-anchor="middle" fill="#7d8590" font-size="9">128K</text>
  <line x1="90" y1="756.2" x2="790" y2="756.2" stroke="#21262d" stroke-width="1"/>
  <text x="82" y="756.2" text-anchor="end" dominant-baseline="middle" fill="#7d8590" font-size="9">1000</text>
  <line x1="90" y1="697.5" x2="790" y2="697.5" stroke="#21262d" stroke-width="1"/>
  <text x="82" y="697.5" text-anchor="end" dominant-baseline="middle" fill="#7d8590" font-size="9">2000</text>
  <line x1="90" y1="638.7" x2="790" y2="638.7" stroke="#21262d" stroke-width="1"/>
  <text x="82" y="638.7" text-anchor="end" dominant-baseline="middle" fill="#7d8590" font-size="9">3000</text>
  <path d="M117.8,805.8L195.9,800.0L274.0,791.4L352.0,780.3L430.1,770.2L508.2,745.0L586.3,704.2L664.3,654.5L742.4,623.7" fill="none" stroke="#60a5fa" stroke-width="1.8"/>
  <circle cx="117.8" cy="805.8" r="2.5" fill="#60a5fa" stroke="#0d1117" stroke-width="0.8"/>
  <circle cx="195.9" cy="800.0" r="2.5" fill="#60a5fa" stroke="#0d1117" stroke-width="0.8"/>
  <circle cx="274.0" cy="791.4" r="2.5" fill="#60a5fa" stroke="#0d1117" stroke-width="0.8"/>
  <circle cx="352.0" cy="780.3" r="2.5" fill="#60a5fa" stroke="#0d1117" stroke-width="0.8"/>
  <circle cx="430.1" cy="770.2" r="2.5" fill="#60a5fa" stroke="#0d1117" stroke-width="0.8"/>
  <circle cx="508.2" cy="745.0" r="2.5" fill="#60a5fa" stroke="#0d1117" stroke-width="0.8"/>
  <circle cx="586.3" cy="704.2" r="2.5" fill="#60a5fa" stroke="#0d1117" stroke-width="0.8"/>
  <circle cx="664.3" cy="654.5" r="2.5" fill="#60a5fa" stroke="#0d1117" stroke-width="0.8"/>
  <circle cx="742.4" cy="623.7" r="2.5" fill="#60a5fa" stroke="#0d1117" stroke-width="0.8"/>
  <path d="M117.8,809.6L195.9,807.1L274.0,801.9L352.0,794.5L430.1,786.8L508.2,769.8L586.3,741.5L664.3,713.5L742.4,692.4" fill="none" stroke="#f87171" stroke-width="1.8"/>
  <circle cx="117.8" cy="809.6" r="2.5" fill="#f87171" stroke="#0d1117" stroke-width="0.8"/>
  <circle cx="195.9" cy="807.1" r="2.5" fill="#f87171" stroke="#0d1117" stroke-width="0.8"/>
  <circle cx="274.0" cy="801.9" r="2.5" fill="#f87171" stroke="#0d1117" stroke-width="0.8"/>
  <circle cx="352.0" cy="794.5" r="2.5" fill="#f87171" stroke="#0d1117" stroke-width="0.8"/>
  <circle cx="430.1" cy="786.8" r="2.5" fill="#f87171" stroke="#0d1117" stroke-width="0.8"/>
  <circle cx="508.2" cy="769.8" r="2.5" fill="#f87171" stroke="#0d1117" stroke-width="0.8"/>
  <circle cx="586.3" cy="741.5" r="2.5" fill="#f87171" stroke="#0d1117" stroke-width="0.8"/>
  <circle cx="664.3" cy="713.5" r="2.5" fill="#f87171" stroke="#0d1117" stroke-width="0.8"/>
  <circle cx="742.4" cy="692.4" r="2.5" fill="#f87171" stroke="#0d1117" stroke-width="0.8"/>
  <path d="M117.8,809.9L195.9,807.6L274.0,803.0L352.0,796.6L430.1,790.5L508.2,777.0L586.3,753.4L664.3,726.8L742.4,705.0" fill="none" stroke="#f472b6" stroke-width="1.8"/>
  <circle cx="117.8" cy="809.9" r="2.5" fill="#f472b6" stroke="#0d1117" stroke-width="0.8"/>
  <circle cx="195.9" cy="807.6" r="2.5" fill="#f472b6" stroke="#0d1117" stroke-width="0.8"/>
  <circle cx="274.0" cy="803.0" r="2.5" fill="#f472b6" stroke="#0d1117" stroke-width="0.8"/>
  <circle cx="352.0" cy="796.6" r="2.5" fill="#f472b6" stroke="#0d1117" stroke-width="0.8"/>
  <circle cx="430.1" cy="790.5" r="2.5" fill="#f472b6" stroke="#0d1117" stroke-width="0.8"/>
  <circle cx="508.2" cy="777.0" r="2.5" fill="#f472b6" stroke="#0d1117" stroke-width="0.8"/>
  <circle cx="586.3" cy="753.4" r="2.5" fill="#f472b6" stroke="#0d1117" stroke-width="0.8"/>
  <circle cx="664.3" cy="726.8" r="2.5" fill="#f472b6" stroke="#0d1117" stroke-width="0.8"/>
  <circle cx="742.4" cy="705.0" r="2.5" fill="#f472b6" stroke="#0d1117" stroke-width="0.8"/>
  <path d="M117.8,810.0L195.9,807.1L274.0,802.3L352.0,795.6L430.1,789.6L508.2,774.6L586.3,751.6L664.3,721.1L742.4,694.6" fill="none" stroke="#f59e0b" stroke-width="1.8"/>
  <circle cx="117.8" cy="810.0" r="2.5" fill="#f59e0b" stroke="#0d1117" stroke-width="0.8"/>
  <circle cx="195.9" cy="807.1" r="2.5" fill="#f59e0b" stroke="#0d1117" stroke-width="0.8"/>
  <circle cx="274.0" cy="802.3" r="2.5" fill="#f59e0b" stroke="#0d1117" stroke-width="0.8"/>
  <circle cx="352.0" cy="795.6" r="2.5" fill="#f59e0b" stroke="#0d1117" stroke-width="0.8"/>
  <circle cx="430.1" cy="789.6" r="2.5" fill="#f59e0b" stroke="#0d1117" stroke-width="0.8"/>
  <circle cx="508.2" cy="774.6" r="2.5" fill="#f59e0b" stroke="#0d1117" stroke-width="0.8"/>
  <circle cx="586.3" cy="751.6" r="2.5" fill="#f59e0b" stroke="#0d1117" stroke-width="0.8"/>
  <circle cx="664.3" cy="721.1" r="2.5" fill="#f59e0b" stroke="#0d1117" stroke-width="0.8"/>
  <circle cx="742.4" cy="694.6" r="2.5" fill="#f59e0b" stroke="#0d1117" stroke-width="0.8"/>
  <path d="M117.8,811.4L195.9,809.6L274.0,807.5L352.0,805.3L430.1,803.8L508.2,799.0L586.3,791.1L664.3,783.2L742.4,774.7" fill="none" stroke="#4ade80" stroke-width="1.8"/>
  <circle cx="117.8" cy="811.4" r="2.5" fill="#4ade80" stroke="#0d1117" stroke-width="0.8"/>
  <circle cx="195.9" cy="809.6" r="2.5" fill="#4ade80" stroke="#0d1117" stroke-width="0.8"/>
  <circle cx="274.0" cy="807.5" r="2.5" fill="#4ade80" stroke="#0d1117" stroke-width="0.8"/>
  <circle cx="352.0" cy="805.3" r="2.5" fill="#4ade80" stroke="#0d1117" stroke-width="0.8"/>
  <circle cx="430.1" cy="803.8" r="2.5" fill="#4ade80" stroke="#0d1117" stroke-width="0.8"/>
  <circle cx="508.2" cy="799.0" r="2.5" fill="#4ade80" stroke="#0d1117" stroke-width="0.8"/>
  <circle cx="586.3" cy="791.1" r="2.5" fill="#4ade80" stroke="#0d1117" stroke-width="0.8"/>
  <circle cx="664.3" cy="783.2" r="2.5" fill="#4ade80" stroke="#0d1117" stroke-width="0.8"/>
  <circle cx="742.4" cy="774.7" r="2.5" fill="#4ade80" stroke="#0d1117" stroke-width="0.8"/>
  <rect x="90" y="865" width="700" height="220" fill="#161b22" rx="4"/>
  <text x="440.0" y="857" text-anchor="middle" fill="#e6edf3" font-size="12" font-weight="600">x-ray</text>
  <line x1="117.8" y1="865" x2="117.8" y2="1085" stroke="#21262d" stroke-width="1"/>
  <text x="117.8" y="1099" text-anchor="middle" fill="#7d8590" font-size="9">512</text>
  <line x1="195.9" y1="865" x2="195.9" y2="1085" stroke="#21262d" stroke-width="1"/>
  <text x="195.9" y="1099" text-anchor="middle" fill="#7d8590" font-size="9">1K</text>
  <line x1="274.0" y1="865" x2="274.0" y2="1085" stroke="#21262d" stroke-width="1"/>
  <text x="274.0" y="1099" text-anchor="middle" fill="#7d8590" font-size="9">2K</text>
  <line x1="352.0" y1="865" x2="352.0" y2="1085" stroke="#21262d" stroke-width="1"/>
  <text x="352.0" y="1099" text-anchor="middle" fill="#7d8590" font-size="9">4K</text>
  <line x1="430.1" y1="865" x2="430.1" y2="1085" stroke="#21262d" stroke-width="1"/>
  <text x="430.1" y="1099" text-anchor="middle" fill="#7d8590" font-size="9">8K</text>
  <line x1="508.2" y1="865" x2="508.2" y2="1085" stroke="#21262d" stroke-width="1"/>
  <text x="508.2" y="1099" text-anchor="middle" fill="#7d8590" font-size="9">16K</text>
  <line x1="586.3" y1="865" x2="586.3" y2="1085" stroke="#21262d" stroke-width="1"/>
  <text x="586.3" y="1099" text-anchor="middle" fill="#7d8590" font-size="9">32K</text>
  <line x1="664.3" y1="865" x2="664.3" y2="1085" stroke="#21262d" stroke-width="1"/>
  <text x="664.3" y="1099" text-anchor="middle" fill="#7d8590" font-size="9">64K</text>
  <line x1="742.4" y1="865" x2="742.4" y2="1085" stroke="#21262d" stroke-width="1"/>
  <text x="742.4" y="1099" text-anchor="middle" fill="#7d8590" font-size="9">128K</text>
  <line x1="90" y1="1045.3" x2="790" y2="1045.3" stroke="#21262d" stroke-width="1"/>
  <text x="82" y="1045.3" text-anchor="end" dominant-baseline="middle" fill="#7d8590" font-size="9">200</text>
  <line x1="90" y1="1005.7" x2="790" y2="1005.7" stroke="#21262d" stroke-width="1"/>
  <text x="82" y="1005.7" text-anchor="end" dominant-baseline="middle" fill="#7d8590" font-size="9">400</text>
  <line x1="90" y1="966.0" x2="790" y2="966.0" stroke="#21262d" stroke-width="1"/>
  <text x="82" y="966.0" text-anchor="end" dominant-baseline="middle" fill="#7d8590" font-size="9">600</text>
  <line x1="90" y1="926.4" x2="790" y2="926.4" stroke="#21262d" stroke-width="1"/>
  <text x="82" y="926.4" text-anchor="end" dominant-baseline="middle" fill="#7d8590" font-size="9">800</text>
  <line x1="90" y1="886.7" x2="790" y2="886.7" stroke="#21262d" stroke-width="1"/>
  <text x="82" y="886.7" text-anchor="end" dominant-baseline="middle" fill="#7d8590" font-size="9">1000</text>
  <path d="M117.8,1051.5L195.9,1026.9L274.0,994.0L352.0,958.7L430.1,937.7L508.2,915.5L586.3,893.7L664.3,908.9L742.4,917.8" fill="none" stroke="#60a5fa" stroke-width="1.8"/>
  <circle cx="117.8" cy="1051.5" r="2.5" fill="#60a5fa" stroke="#0d1117" stroke-width="0.8"/>
  <circle cx="195.9" cy="1026.9" r="2.5" fill="#60a5fa" stroke="#0d1117" stroke-width="0.8"/>
  <circle cx="274.0" cy="994.0" r="2.5" fill="#60a5fa" stroke="#0d1117" stroke-width="0.8"/>
  <circle cx="352.0" cy="958.7" r="2.5" fill="#60a5fa" stroke="#0d1117" stroke-width="0.8"/>
  <circle cx="430.1" cy="937.7" r="2.5" fill="#60a5fa" stroke="#0d1117" stroke-width="0.8"/>
  <circle cx="508.2" cy="915.5" r="2.5" fill="#60a5fa" stroke="#0d1117" stroke-width="0.8"/>
  <circle cx="586.3" cy="893.7" r="2.5" fill="#60a5fa" stroke="#0d1117" stroke-width="0.8"/>
  <circle cx="664.3" cy="908.9" r="2.5" fill="#60a5fa" stroke="#0d1117" stroke-width="0.8"/>
  <circle cx="742.4" cy="917.8" r="2.5" fill="#60a5fa" stroke="#0d1117" stroke-width="0.8"/>
  <path d="M117.8,1069.3L195.9,1059.2L274.0,1045.0L352.0,1031.5L430.1,1022.6L508.2,1010.0L586.3,1000.9L664.3,1002.1L742.4,1006.1" fill="none" stroke="#f87171" stroke-width="1.8"/>
  <circle cx="117.8" cy="1069.3" r="2.5" fill="#f87171" stroke="#0d1117" stroke-width="0.8"/>
  <circle cx="195.9" cy="1059.2" r="2.5" fill="#f87171" stroke="#0d1117" stroke-width="0.8"/>
  <circle cx="274.0" cy="1045.0" r="2.5" fill="#f87171" stroke="#0d1117" stroke-width="0.8"/>
  <circle cx="352.0" cy="1031.5" r="2.5" fill="#f87171" stroke="#0d1117" stroke-width="0.8"/>
  <circle cx="430.1" cy="1022.6" r="2.5" fill="#f87171" stroke="#0d1117" stroke-width="0.8"/>
  <circle cx="508.2" cy="1010.0" r="2.5" fill="#f87171" stroke="#0d1117" stroke-width="0.8"/>
  <circle cx="586.3" cy="1000.9" r="2.5" fill="#f87171" stroke="#0d1117" stroke-width="0.8"/>
  <circle cx="664.3" cy="1002.1" r="2.5" fill="#f87171" stroke="#0d1117" stroke-width="0.8"/>
  <circle cx="742.4" cy="1006.1" r="2.5" fill="#f87171" stroke="#0d1117" stroke-width="0.8"/>
  <path d="M117.8,1069.3L195.9,1059.3L274.0,1045.4L352.0,1032.9L430.1,1023.9L508.2,1013.0L586.3,1004.6L664.3,1009.3L742.4,1011.7" fill="none" stroke="#f472b6" stroke-width="1.8"/>
  <circle cx="117.8" cy="1069.3" r="2.5" fill="#f472b6" stroke="#0d1117" stroke-width="0.8"/>
  <circle cx="195.9" cy="1059.3" r="2.5" fill="#f472b6" stroke="#0d1117" stroke-width="0.8"/>
  <circle cx="274.0" cy="1045.4" r="2.5" fill="#f472b6" stroke="#0d1117" stroke-width="0.8"/>
  <circle cx="352.0" cy="1032.9" r="2.5" fill="#f472b6" stroke="#0d1117" stroke-width="0.8"/>
  <circle cx="430.1" cy="1023.9" r="2.5" fill="#f472b6" stroke="#0d1117" stroke-width="0.8"/>
  <circle cx="508.2" cy="1013.0" r="2.5" fill="#f472b6" stroke="#0d1117" stroke-width="0.8"/>
  <circle cx="586.3" cy="1004.6" r="2.5" fill="#f472b6" stroke="#0d1117" stroke-width="0.8"/>
  <circle cx="664.3" cy="1009.3" r="2.5" fill="#f472b6" stroke="#0d1117" stroke-width="0.8"/>
  <circle cx="742.4" cy="1011.7" r="2.5" fill="#f472b6" stroke="#0d1117" stroke-width="0.8"/>
  <path d="M117.8,1067.9L195.9,1053.9L274.0,1032.5L352.0,1011.0L430.1,994.5L508.2,974.2L586.3,954.4L664.3,964.3L742.4,969.1" fill="none" stroke="#f59e0b" stroke-width="1.8"/>
  <circle cx="117.8" cy="1067.9" r="2.5" fill="#f59e0b" stroke="#0d1117" stroke-width="0.8"/>
  <circle cx="195.9" cy="1053.9" r="2.5" fill="#f59e0b" stroke="#0d1117" stroke-width="0.8"/>
  <circle cx="274.0" cy="1032.5" r="2.5" fill="#f59e0b" stroke="#0d1117" stroke-width="0.8"/>
  <circle cx="352.0" cy="1011.0" r="2.5" fill="#f59e0b" stroke="#0d1117" stroke-width="0.8"/>
  <circle cx="430.1" cy="994.5" r="2.5" fill="#f59e0b" stroke="#0d1117" stroke-width="0.8"/>
  <circle cx="508.2" cy="974.2" r="2.5" fill="#f59e0b" stroke="#0d1117" stroke-width="0.8"/>
  <circle cx="586.3" cy="954.4" r="2.5" fill="#f59e0b" stroke="#0d1117" stroke-width="0.8"/>
  <circle cx="664.3" cy="964.3" r="2.5" fill="#f59e0b" stroke="#0d1117" stroke-width="0.8"/>
  <circle cx="742.4" cy="969.1" r="2.5" fill="#f59e0b" stroke="#0d1117" stroke-width="0.8"/>
  <path d="M117.8,1074.5L195.9,1068.8L274.0,1062.9L352.0,1058.8L430.1,1056.6L508.2,1054.1L586.3,1052.2L664.3,1054.2L742.4,1054.9" fill="none" stroke="#4ade80" stroke-width="1.8"/>
  <circle cx="117.8" cy="1074.5" r="2.5" fill="#4ade80" stroke="#0d1117" stroke-width="0.8"/>
  <circle cx="195.9" cy="1068.8" r="2.5" fill="#4ade80" stroke="#0d1117" stroke-width="0.8"/>
  <circle cx="274.0" cy="1062.9" r="2.5" fill="#4ade80" stroke="#0d1117" stroke-width="0.8"/>
  <circle cx="352.0" cy="1058.8" r="2.5" fill="#4ade80" stroke="#0d1117" stroke-width="0.8"/>
  <circle cx="430.1" cy="1056.6" r="2.5" fill="#4ade80" stroke="#0d1117" stroke-width="0.8"/>
  <circle cx="508.2" cy="1054.1" r="2.5" fill="#4ade80" stroke="#0d1117" stroke-width="0.8"/>
  <circle cx="586.3" cy="1052.2" r="2.5" fill="#4ade80" stroke="#0d1117" stroke-width="0.8"/>
  <circle cx="664.3" cy="1054.2" r="2.5" fill="#4ade80" stroke="#0d1117" stroke-width="0.8"/>
  <circle cx="742.4" cy="1054.9" r="2.5" fill="#4ade80" stroke="#0d1117" stroke-width="0.8"/>
  <text x="20" y="570.0" text-anchor="middle" fill="#e6edf3" font-size="11" font-weight="600" transform="rotate(-90,20,570.0)">decode MB/s</text>
  <circle cx="-110" cy="1120" r="4" fill="#60a5fa"/>
  <text x="-102" y="1123.5" fill="#e6edf3" font-size="10" font-weight="500">libzstd v1.5.7 (C)</text>
  <circle cx="37" cy="1120" r="4" fill="#f87171"/>
  <text x="45" y="1123.5" fill="#e6edf3" font-size="10" font-weight="500">zrip (safe SIMD + encapsulated unsafe)</text>
  <circle cx="309" cy="1120" r="4" fill="#f472b6"/>
  <text x="317" y="1123.5" fill="#e6edf3" font-size="10" font-weight="500">zrip paranoid (safe SIMD, no unsafe)</text>
  <circle cx="568" cy="1120" r="4" fill="#f59e0b"/>
  <text x="576" y="1123.5" fill="#e6edf3" font-size="10" font-weight="500">structured-zstd v0.0.48 (unsafe)</text>
  <circle cx="802" cy="1120" r="4" fill="#4ade80"/>
  <text x="810" y="1123.5" fill="#e6edf3" font-size="10" font-weight="500">ruzstd v0.8.3 (safe)</text>
</svg>
