<svg xmlns="http://www.w3.org/2000/svg" viewBox="0 0 830 1135" font-family="system-ui, -apple-system, sans-serif">
  <rect width="830" height="1135" fill="#0d1117"/>
  <text x="415.0" y="18" text-anchor="middle" fill="#e6edf3" font-size="14" font-weight="700">Decode Throughput vs Input Size (C zstd L3 bitstream)</text>
  <text x="415.0" y="34" text-anchor="middle" fill="#7d8590" font-size="10">Intel Core i7-8700B @ 3.20GHz, performance governor, turbo off</text>
  <rect x="90" y="55" width="700" height="220" fill="#161b22" rx="4"/>
  <text x="440.0" y="47" text-anchor="middle" fill="#e6edf3" font-size="12" font-weight="600">dickens</text>
  <line x1="117.8" y1="55" x2="117.8" y2="275" stroke="#21262d" stroke-width="1"/>
  <text x="117.8" y="289" text-anchor="middle" fill="#7d8590" font-size="9">512</text>
  <line x1="195.9" y1="55" x2="195.9" y2="275" stroke="#21262d" stroke-width="1"/>
  <text x="195.9" y="289" text-anchor="middle" fill="#7d8590" font-size="9">1K</text>
  <line x1="274.0" y1="55" x2="274.0" y2="275" stroke="#21262d" stroke-width="1"/>
  <text x="274.0" y="289" text-anchor="middle" fill="#7d8590" font-size="9">2K</text>
  <line x1="352.0" y1="55" x2="352.0" y2="275" stroke="#21262d" stroke-width="1"/>
  <text x="352.0" y="289" text-anchor="middle" fill="#7d8590" font-size="9">4K</text>
  <line x1="430.1" y1="55" x2="430.1" y2="275" stroke="#21262d" stroke-width="1"/>
  <text x="430.1" y="289" text-anchor="middle" fill="#7d8590" font-size="9">8K</text>
  <line x1="508.2" y1="55" x2="508.2" y2="275" stroke="#21262d" stroke-width="1"/>
  <text x="508.2" y="289" text-anchor="middle" fill="#7d8590" font-size="9">16K</text>
  <line x1="586.3" y1="55" x2="586.3" y2="275" stroke="#21262d" stroke-width="1"/>
  <text x="586.3" y="289" text-anchor="middle" fill="#7d8590" font-size="9">32K</text>
  <line x1="664.3" y1="55" x2="664.3" y2="275" stroke="#21262d" stroke-width="1"/>
  <text x="664.3" y="289" text-anchor="middle" fill="#7d8590" font-size="9">64K</text>
  <line x1="742.4" y1="55" x2="742.4" y2="275" stroke="#21262d" stroke-width="1"/>
  <text x="742.4" y="289" text-anchor="middle" fill="#7d8590" font-size="9">128K</text>
  <line x1="90" y1="226.4" x2="790" y2="226.4" stroke="#21262d" stroke-width="1"/>
  <text x="82" y="226.4" text-anchor="end" dominant-baseline="middle" fill="#7d8590" font-size="9">200</text>
  <line x1="90" y1="177.9" x2="790" y2="177.9" stroke="#21262d" stroke-width="1"/>
  <text x="82" y="177.9" text-anchor="end" dominant-baseline="middle" fill="#7d8590" font-size="9">400</text>
  <line x1="90" y1="129.3" x2="790" y2="129.3" stroke="#21262d" stroke-width="1"/>
  <text x="82" y="129.3" text-anchor="end" dominant-baseline="middle" fill="#7d8590" font-size="9">600</text>
  <line x1="90" y1="80.7" x2="790" y2="80.7" stroke="#21262d" stroke-width="1"/>
  <text x="82" y="80.7" text-anchor="end" dominant-baseline="middle" fill="#7d8590" font-size="9">800</text>
  <path d="M117.8,228.2L195.9,200.9L274.0,186.9L352.0,159.0L430.1,140.2L508.2,132.3L586.3,104.4L664.3,90.2L742.4,83.7" fill="none" stroke="#60a5fa" stroke-width="1.8"/>
  <circle cx="117.8" cy="228.2" r="2.5" fill="#60a5fa" stroke="#0d1117" stroke-width="0.8"/>
  <circle cx="195.9" cy="200.9" r="2.5" fill="#60a5fa" stroke="#0d1117" stroke-width="0.8"/>
  <circle cx="274.0" cy="186.9" r="2.5" fill="#60a5fa" stroke="#0d1117" stroke-width="0.8"/>
  <circle cx="352.0" cy="159.0" r="2.5" fill="#60a5fa" stroke="#0d1117" stroke-width="0.8"/>
  <circle cx="430.1" cy="140.2" r="2.5" fill="#60a5fa" stroke="#0d1117" stroke-width="0.8"/>
  <circle cx="508.2" cy="132.3" r="2.5" fill="#60a5fa" stroke="#0d1117" stroke-width="0.8"/>
  <circle cx="586.3" cy="104.4" r="2.5" fill="#60a5fa" stroke="#0d1117" stroke-width="0.8"/>
  <circle cx="664.3" cy="90.2" r="2.5" fill="#60a5fa" stroke="#0d1117" stroke-width="0.8"/>
  <circle cx="742.4" cy="83.7" r="2.5" fill="#60a5fa" stroke="#0d1117" stroke-width="0.8"/>
  <path d="M117.8,219.2L195.9,195.4L274.0,181.3L352.0,170.5L430.1,161.0L508.2,160.0L586.3,159.2L664.3,180.1L742.4,176.9" fill="none" stroke="#f87171" stroke-width="1.8"/>
  <circle cx="117.8" cy="219.2" r="2.5" fill="#f87171" stroke="#0d1117" stroke-width="0.8"/>
  <circle cx="195.9" cy="195.4" r="2.5" fill="#f87171" stroke="#0d1117" stroke-width="0.8"/>
  <circle cx="274.0" cy="181.3" r="2.5" fill="#f87171" stroke="#0d1117" stroke-width="0.8"/>
  <circle cx="352.0" cy="170.5" r="2.5" fill="#f87171" stroke="#0d1117" stroke-width="0.8"/>
  <circle cx="430.1" cy="161.0" r="2.5" fill="#f87171" stroke="#0d1117" stroke-width="0.8"/>
  <circle cx="508.2" cy="160.0" r="2.5" fill="#f87171" stroke="#0d1117" stroke-width="0.8"/>
  <circle cx="586.3" cy="159.2" r="2.5" fill="#f87171" stroke="#0d1117" stroke-width="0.8"/>
  <circle cx="664.3" cy="180.1" r="2.5" fill="#f87171" stroke="#0d1117" stroke-width="0.8"/>
  <circle cx="742.4" cy="176.9" r="2.5" fill="#f87171" stroke="#0d1117" stroke-width="0.8"/>
  <path d="M117.8,221.4L195.9,201.3L274.0,194.3L352.0,190.8L430.1,187.2L508.2,192.9L586.3,196.9L664.3,204.1L742.4,203.6" fill="none" stroke="#f472b6" stroke-width="1.8"/>
  <circle cx="117.8" cy="221.4" r="2.5" fill="#f472b6" stroke="#0d1117" stroke-width="0.8"/>
  <circle cx="195.9" cy="201.3" r="2.5" fill="#f472b6" stroke="#0d1117" stroke-width="0.8"/>
  <circle cx="274.0" cy="194.3" r="2.5" fill="#f472b6" stroke="#0d1117" stroke-width="0.8"/>
  <circle cx="352.0" cy="190.8" r="2.5" fill="#f472b6" stroke="#0d1117" stroke-width="0.8"/>
  <circle cx="430.1" cy="187.2" r="2.5" fill="#f472b6" stroke="#0d1117" stroke-width="0.8"/>
  <circle cx="508.2" cy="192.9" r="2.5" fill="#f472b6" stroke="#0d1117" stroke-width="0.8"/>
  <circle cx="586.3" cy="196.9" r="2.5" fill="#f472b6" stroke="#0d1117" stroke-width="0.8"/>
  <circle cx="664.3" cy="204.1" r="2.5" fill="#f472b6" stroke="#0d1117" stroke-width="0.8"/>
  <circle cx="742.4" cy="203.6" r="2.5" fill="#f472b6" stroke="#0d1117" stroke-width="0.8"/>
  <path d="M117.8,249.9L195.9,233.0L274.0,226.0L352.0,207.6L430.1,195.1L508.2,193.0L586.3,174.3L664.3,168.7L742.4,164.9" fill="none" stroke="#f59e0b" stroke-width="1.8"/>
  <circle cx="117.8" cy="249.9" r="2.5" fill="#f59e0b" stroke="#0d1117" stroke-width="0.8"/>
  <circle cx="195.9" cy="233.0" r="2.5" fill="#f59e0b" stroke="#0d1117" stroke-width="0.8"/>
  <circle cx="274.0" cy="226.0" r="2.5" fill="#f59e0b" stroke="#0d1117" stroke-width="0.8"/>
  <circle cx="352.0" cy="207.6" r="2.5" fill="#f59e0b" stroke="#0d1117" stroke-width="0.8"/>
  <circle cx="430.1" cy="195.1" r="2.5" fill="#f59e0b" stroke="#0d1117" stroke-width="0.8"/>
  <circle cx="508.2" cy="193.0" r="2.5" fill="#f59e0b" stroke="#0d1117" stroke-width="0.8"/>
  <circle cx="586.3" cy="174.3" r="2.5" fill="#f59e0b" stroke="#0d1117" stroke-width="0.8"/>
  <circle cx="664.3" cy="168.7" r="2.5" fill="#f59e0b" stroke="#0d1117" stroke-width="0.8"/>
  <circle cx="742.4" cy="164.9" r="2.5" fill="#f59e0b" stroke="#0d1117" stroke-width="0.8"/>
  <path d="M117.8,259.5L195.9,252.5L274.0,249.7L352.0,246.7L430.1,245.1L508.2,246.2L586.3,241.9L664.3,240.9L742.4,239.6" fill="none" stroke="#4ade80" stroke-width="1.8"/>
  <circle cx="117.8" cy="259.5" r="2.5" fill="#4ade80" stroke="#0d1117" stroke-width="0.8"/>
  <circle cx="195.9" cy="252.5" r="2.5" fill="#4ade80" stroke="#0d1117" stroke-width="0.8"/>
  <circle cx="274.0" cy="249.7" r="2.5" fill="#4ade80" stroke="#0d1117" stroke-width="0.8"/>
  <circle cx="352.0" cy="246.7" r="2.5" fill="#4ade80" stroke="#0d1117" stroke-width="0.8"/>
  <circle cx="430.1" cy="245.1" r="2.5" fill="#4ade80" stroke="#0d1117" stroke-width="0.8"/>
  <circle cx="508.2" cy="246.2" r="2.5" fill="#4ade80" stroke="#0d1117" stroke-width="0.8"/>
  <circle cx="586.3" cy="241.9" r="2.5" fill="#4ade80" stroke="#0d1117" stroke-width="0.8"/>
  <circle cx="664.3" cy="240.9" r="2.5" fill="#4ade80" stroke="#0d1117" stroke-width="0.8"/>
  <circle cx="742.4" cy="239.6" r="2.5" fill="#4ade80" stroke="#0d1117" stroke-width="0.8"/>
  <rect x="90" y="325" width="700" height="220" fill="#161b22" rx="4"/>
  <text x="440.0" y="317" text-anchor="middle" fill="#e6edf3" font-size="12" font-weight="600">hdfs</text>
  <line x1="117.8" y1="325" x2="117.8" y2="545" stroke="#21262d" stroke-width="1"/>
  <text x="117.8" y="559" text-anchor="middle" fill="#7d8590" font-size="9">512</text>
  <line x1="195.9" y1="325" x2="195.9" y2="545" stroke="#21262d" stroke-width="1"/>
  <text x="195.9" y="559" text-anchor="middle" fill="#7d8590" font-size="9">1K</text>
  <line x1="274.0" y1="325" x2="274.0" y2="545" stroke="#21262d" stroke-width="1"/>
  <text x="274.0" y="559" text-anchor="middle" fill="#7d8590" font-size="9">2K</text>
  <line x1="352.0" y1="325" x2="352.0" y2="545" stroke="#21262d" stroke-width="1"/>
  <text x="352.0" y="559" text-anchor="middle" fill="#7d8590" font-size="9">4K</text>
  <line x1="430.1" y1="325" x2="430.1" y2="545" stroke="#21262d" stroke-width="1"/>
  <text x="430.1" y="559" text-anchor="middle" fill="#7d8590" font-size="9">8K</text>
  <line x1="508.2" y1="325" x2="508.2" y2="545" stroke="#21262d" stroke-width="1"/>
  <text x="508.2" y="559" text-anchor="middle" fill="#7d8590" font-size="9">16K</text>
  <line x1="586.3" y1="325" x2="586.3" y2="545" stroke="#21262d" stroke-width="1"/>
  <text x="586.3" y="559" text-anchor="middle" fill="#7d8590" font-size="9">32K</text>
  <line x1="664.3" y1="325" x2="664.3" y2="545" stroke="#21262d" stroke-width="1"/>
  <text x="664.3" y="559" text-anchor="middle" fill="#7d8590" font-size="9">64K</text>
  <line x1="742.4" y1="325" x2="742.4" y2="545" stroke="#21262d" stroke-width="1"/>
  <text x="742.4" y="559" text-anchor="middle" fill="#7d8590" font-size="9">128K</text>
  <line x1="90" y1="512.0" x2="790" y2="512.0" stroke="#21262d" stroke-width="1"/>
  <text x="82" y="512.0" text-anchor="end" dominant-baseline="middle" fill="#7d8590" font-size="9">500</text>
  <line x1="90" y1="479.0" x2="790" y2="479.0" stroke="#21262d" stroke-width="1"/>
  <text x="82" y="479.0" text-anchor="end" dominant-baseline="middle" fill="#7d8590" font-size="9">1000</text>
  <line x1="90" y1="446.0" x2="790" y2="446.0" stroke="#21262d" stroke-width="1"/>
  <text x="82" y="446.0" text-anchor="end" dominant-baseline="middle" fill="#7d8590" font-size="9">1500</text>
  <line x1="90" y1="413.0" x2="790" y2="413.0" stroke="#21262d" stroke-width="1"/>
  <text x="82" y="413.0" text-anchor="end" dominant-baseline="middle" fill="#7d8590" font-size="9">2000</text>
  <line x1="90" y1="380.0" x2="790" y2="380.0" stroke="#21262d" stroke-width="1"/>
  <text x="82" y="380.0" text-anchor="end" dominant-baseline="middle" fill="#7d8590" font-size="9">2500</text>
  <line x1="90" y1="347.0" x2="790" y2="347.0" stroke="#21262d" stroke-width="1"/>
  <text x="82" y="347.0" text-anchor="end" dominant-baseline="middle" fill="#7d8590" font-size="9">3000</text>
  <path d="M117.8,531.8L195.9,520.0L274.0,501.3L352.0,486.6L430.1,449.7L508.2,404.5L586.3,364.3L664.3,353.7L742.4,371.7" fill="none" stroke="#60a5fa" stroke-width="1.8"/>
  <circle cx="117.8" cy="531.8" r="2.5" fill="#60a5fa" stroke="#0d1117" stroke-width="0.8"/>
  <circle cx="195.9" cy="520.0" r="2.5" fill="#60a5fa" stroke="#0d1117" stroke-width="0.8"/>
  <circle cx="274.0" cy="501.3" r="2.5" fill="#60a5fa" stroke="#0d1117" stroke-width="0.8"/>
  <circle cx="352.0" cy="486.6" r="2.5" fill="#60a5fa" stroke="#0d1117" stroke-width="0.8"/>
  <circle cx="430.1" cy="449.7" r="2.5" fill="#60a5fa" stroke="#0d1117" stroke-width="0.8"/>
  <circle cx="508.2" cy="404.5" r="2.5" fill="#60a5fa" stroke="#0d1117" stroke-width="0.8"/>
  <circle cx="586.3" cy="364.3" r="2.5" fill="#60a5fa" stroke="#0d1117" stroke-width="0.8"/>
  <circle cx="664.3" cy="353.7" r="2.5" fill="#60a5fa" stroke="#0d1117" stroke-width="0.8"/>
  <circle cx="742.4" cy="371.7" r="2.5" fill="#60a5fa" stroke="#0d1117" stroke-width="0.8"/>
  <path d="M117.8,528.1L195.9,515.5L274.0,495.5L352.0,470.8L430.1,442.8L508.2,416.7L586.3,407.2L664.3,388.1L742.4,403.2" fill="none" stroke="#f87171" stroke-width="1.8"/>
  <circle cx="117.8" cy="528.1" r="2.5" fill="#f87171" stroke="#0d1117" stroke-width="0.8"/>
  <circle cx="195.9" cy="515.5" r="2.5" fill="#f87171" stroke="#0d1117" stroke-width="0.8"/>
  <circle cx="274.0" cy="495.5" r="2.5" fill="#f87171" stroke="#0d1117" stroke-width="0.8"/>
  <circle cx="352.0" cy="470.8" r="2.5" fill="#f87171" stroke="#0d1117" stroke-width="0.8"/>
  <circle cx="430.1" cy="442.8" r="2.5" fill="#f87171" stroke="#0d1117" stroke-width="0.8"/>
  <circle cx="508.2" cy="416.7" r="2.5" fill="#f87171" stroke="#0d1117" stroke-width="0.8"/>
  <circle cx="586.3" cy="407.2" r="2.5" fill="#f87171" stroke="#0d1117" stroke-width="0.8"/>
  <circle cx="664.3" cy="388.1" r="2.5" fill="#f87171" stroke="#0d1117" stroke-width="0.8"/>
  <circle cx="742.4" cy="403.2" r="2.5" fill="#f87171" stroke="#0d1117" stroke-width="0.8"/>
  <path d="M117.8,528.5L195.9,516.2L274.0,497.2L352.0,475.6L430.1,452.4L508.2,431.7L586.3,418.1L664.3,413.7L742.4,427.7" fill="none" stroke="#f472b6" stroke-width="1.8"/>
  <circle cx="117.8" cy="528.5" r="2.5" fill="#f472b6" stroke="#0d1117" stroke-width="0.8"/>
  <circle cx="195.9" cy="516.2" r="2.5" fill="#f472b6" stroke="#0d1117" stroke-width="0.8"/>
  <circle cx="274.0" cy="497.2" r="2.5" fill="#f472b6" stroke="#0d1117" stroke-width="0.8"/>
  <circle cx="352.0" cy="475.6" r="2.5" fill="#f472b6" stroke="#0d1117" stroke-width="0.8"/>
  <circle cx="430.1" cy="452.4" r="2.5" fill="#f472b6" stroke="#0d1117" stroke-width="0.8"/>
  <circle cx="508.2" cy="431.7" r="2.5" fill="#f472b6" stroke="#0d1117" stroke-width="0.8"/>
  <circle cx="586.3" cy="418.1" r="2.5" fill="#f472b6" stroke="#0d1117" stroke-width="0.8"/>
  <circle cx="664.3" cy="413.7" r="2.5" fill="#f472b6" stroke="#0d1117" stroke-width="0.8"/>
  <circle cx="742.4" cy="427.7" r="2.5" fill="#f472b6" stroke="#0d1117" stroke-width="0.8"/>
  <path d="M117.8,537.8L195.9,531.2L274.0,521.0L352.0,513.1L430.1,490.5L508.2,464.1L586.3,439.1L664.3,433.6L742.4,435.6" fill="none" stroke="#f59e0b" stroke-width="1.8"/>
  <circle cx="117.8" cy="537.8" r="2.5" fill="#f59e0b" stroke="#0d1117" stroke-width="0.8"/>
  <circle cx="195.9" cy="531.2" r="2.5" fill="#f59e0b" stroke="#0d1117" stroke-width="0.8"/>
  <circle cx="274.0" cy="521.0" r="2.5" fill="#f59e0b" stroke="#0d1117" stroke-width="0.8"/>
  <circle cx="352.0" cy="513.1" r="2.5" fill="#f59e0b" stroke="#0d1117" stroke-width="0.8"/>
  <circle cx="430.1" cy="490.5" r="2.5" fill="#f59e0b" stroke="#0d1117" stroke-width="0.8"/>
  <circle cx="508.2" cy="464.1" r="2.5" fill="#f59e0b" stroke="#0d1117" stroke-width="0.8"/>
  <circle cx="586.3" cy="439.1" r="2.5" fill="#f59e0b" stroke="#0d1117" stroke-width="0.8"/>
  <circle cx="664.3" cy="433.6" r="2.5" fill="#f59e0b" stroke="#0d1117" stroke-width="0.8"/>
  <circle cx="742.4" cy="435.6" r="2.5" fill="#f59e0b" stroke="#0d1117" stroke-width="0.8"/>
  <path d="M117.8,540.6L195.9,537.1L274.0,531.3L352.0,525.6L430.1,517.4L508.2,509.8L586.3,505.9L664.3,506.9L742.4,506.7" fill="none" stroke="#4ade80" stroke-width="1.8"/>
  <circle cx="117.8" cy="540.6" r="2.5" fill="#4ade80" stroke="#0d1117" stroke-width="0.8"/>
  <circle cx="195.9" cy="537.1" r="2.5" fill="#4ade80" stroke="#0d1117" stroke-width="0.8"/>
  <circle cx="274.0" cy="531.3" r="2.5" fill="#4ade80" stroke="#0d1117" stroke-width="0.8"/>
  <circle cx="352.0" cy="525.6" r="2.5" fill="#4ade80" stroke="#0d1117" stroke-width="0.8"/>
  <circle cx="430.1" cy="517.4" r="2.5" fill="#4ade80" stroke="#0d1117" stroke-width="0.8"/>
  <circle cx="508.2" cy="509.8" r="2.5" fill="#4ade80" stroke="#0d1117" stroke-width="0.8"/>
  <circle cx="586.3" cy="505.9" r="2.5" fill="#4ade80" stroke="#0d1117" stroke-width="0.8"/>
  <circle cx="664.3" cy="506.9" r="2.5" fill="#4ade80" stroke="#0d1117" stroke-width="0.8"/>
  <circle cx="742.4" cy="506.7" r="2.5" fill="#4ade80" stroke="#0d1117" stroke-width="0.8"/>
  <rect x="90" y="595" width="700" height="220" fill="#161b22" rx="4"/>
  <text x="440.0" y="587" text-anchor="middle" fill="#e6edf3" font-size="12" font-weight="600">xml collection</text>
  <line x1="117.8" y1="595" x2="117.8" y2="815" stroke="#21262d" stroke-width="1"/>
  <text x="117.8" y="829" text-anchor="middle" fill="#7d8590" font-size="9">512</text>
  <line x1="195.9" y1="595" x2="195.9" y2="815" stroke="#21262d" stroke-width="1"/>
  <text x="195.9" y="829" text-anchor="middle" fill="#7d8590" font-size="9">1K</text>
  <line x1="274.0" y1="595" x2="274.0" y2="815" stroke="#21262d" stroke-width="1"/>
  <text x="274.0" y="829" text-anchor="middle" fill="#7d8590" font-size="9">2K</text>
  <line x1="352.0" y1="595" x2="352.0" y2="815" stroke="#21262d" stroke-width="1"/>
  <text x="352.0" y="829" text-anchor="middle" fill="#7d8590" font-size="9">4K</text>
  <line x1="430.1" y1="595" x2="430.1" y2="815" stroke="#21262d" stroke-width="1"/>
  <text x="430.1" y="829" text-anchor="middle" fill="#7d8590" font-size="9">8K</text>
  <line x1="508.2" y1="595" x2="508.2" y2="815" stroke="#21262d" stroke-width="1"/>
  <text x="508.2" y="829" text-anchor="middle" fill="#7d8590" font-size="9">16K</text>
  <line x1="586.3" y1="595" x2="586.3" y2="815" stroke="#21262d" stroke-width="1"/>
  <text x="586.3" y="829" text-anchor="middle" fill="#7d8590" font-size="9">32K</text>
  <line x1="664.3" y1="595" x2="664.3" y2="815" stroke="#21262d" stroke-width="1"/>
  <text x="664.3" y="829" text-anchor="middle" fill="#7d8590" font-size="9">64K</text>
  <line x1="742.4" y1="595" x2="742.4" y2="815" stroke="#21262d" stroke-width="1"/>
  <text x="742.4" y="829" text-anchor="middle" fill="#7d8590" font-size="9">128K</text>
  <line x1="90" y1="756.2" x2="790" y2="756.2" stroke="#21262d" stroke-width="1"/>
  <text x="82" y="756.2" text-anchor="end" dominant-baseline="middle" fill="#7d8590" font-size="9">1000</text>
  <line x1="90" y1="697.4" x2="790" y2="697.4" stroke="#21262d" stroke-width="1"/>
  <text x="82" y="697.4" text-anchor="end" dominant-baseline="middle" fill="#7d8590" font-size="9">2000</text>
  <line x1="90" y1="638.6" x2="790" y2="638.6" stroke="#21262d" stroke-width="1"/>
  <text x="82" y="638.6" text-anchor="end" dominant-baseline="middle" fill="#7d8590" font-size="9">3000</text>
  <path d="M117.8,805.8L195.9,800.2L274.0,791.7L352.0,780.1L430.1,770.1L508.2,745.0L586.3,704.1L664.3,655.2L742.4,623.7" fill="none" stroke="#60a5fa" stroke-width="1.8"/>
  <circle cx="117.8" cy="805.8" r="2.5" fill="#60a5fa" stroke="#0d1117" stroke-width="0.8"/>
  <circle cx="195.9" cy="800.2" r="2.5" fill="#60a5fa" stroke="#0d1117" stroke-width="0.8"/>
  <circle cx="274.0" cy="791.7" r="2.5" fill="#60a5fa" stroke="#0d1117" stroke-width="0.8"/>
  <circle cx="352.0" cy="780.1" r="2.5" fill="#60a5fa" stroke="#0d1117" stroke-width="0.8"/>
  <circle cx="430.1" cy="770.1" r="2.5" fill="#60a5fa" stroke="#0d1117" stroke-width="0.8"/>
  <circle cx="508.2" cy="745.0" r="2.5" fill="#60a5fa" stroke="#0d1117" stroke-width="0.8"/>
  <circle cx="586.3" cy="704.1" r="2.5" fill="#60a5fa" stroke="#0d1117" stroke-width="0.8"/>
  <circle cx="664.3" cy="655.2" r="2.5" fill="#60a5fa" stroke="#0d1117" stroke-width="0.8"/>
  <circle cx="742.4" cy="623.7" r="2.5" fill="#60a5fa" stroke="#0d1117" stroke-width="0.8"/>
  <path d="M117.8,802.4L195.9,795.2L274.0,787.3L352.0,778.6L430.1,773.1L508.2,753.8L586.3,715.5L664.3,673.4L742.4,638.1" fill="none" stroke="#f87171" stroke-width="1.8"/>
  <circle cx="117.8" cy="802.4" r="2.5" fill="#f87171" stroke="#0d1117" stroke-width="0.8"/>
  <circle cx="195.9" cy="795.2" r="2.5" fill="#f87171" stroke="#0d1117" stroke-width="0.8"/>
  <circle cx="274.0" cy="787.3" r="2.5" fill="#f87171" stroke="#0d1117" stroke-width="0.8"/>
  <circle cx="352.0" cy="778.6" r="2.5" fill="#f87171" stroke="#0d1117" stroke-width="0.8"/>
  <circle cx="430.1" cy="773.1" r="2.5" fill="#f87171" stroke="#0d1117" stroke-width="0.8"/>
  <circle cx="508.2" cy="753.8" r="2.5" fill="#f87171" stroke="#0d1117" stroke-width="0.8"/>
  <circle cx="586.3" cy="715.5" r="2.5" fill="#f87171" stroke="#0d1117" stroke-width="0.8"/>
  <circle cx="664.3" cy="673.4" r="2.5" fill="#f87171" stroke="#0d1117" stroke-width="0.8"/>
  <circle cx="742.4" cy="638.1" r="2.5" fill="#f87171" stroke="#0d1117" stroke-width="0.8"/>
  <path d="M117.8,803.3L195.9,797.3L274.0,791.2L352.0,785.3L430.1,781.6L508.2,765.9L586.3,733.8L664.3,699.5L742.4,674.1" fill="none" stroke="#f472b6" stroke-width="1.8"/>
  <circle cx="117.8" cy="803.3" r="2.5" fill="#f472b6" stroke="#0d1117" stroke-width="0.8"/>
  <circle cx="195.9" cy="797.3" r="2.5" fill="#f472b6" stroke="#0d1117" stroke-width="0.8"/>
  <circle cx="274.0" cy="791.2" r="2.5" fill="#f472b6" stroke="#0d1117" stroke-width="0.8"/>
  <circle cx="352.0" cy="785.3" r="2.5" fill="#f472b6" stroke="#0d1117" stroke-width="0.8"/>
  <circle cx="430.1" cy="781.6" r="2.5" fill="#f472b6" stroke="#0d1117" stroke-width="0.8"/>
  <circle cx="508.2" cy="765.9" r="2.5" fill="#f472b6" stroke="#0d1117" stroke-width="0.8"/>
  <circle cx="586.3" cy="733.8" r="2.5" fill="#f472b6" stroke="#0d1117" stroke-width="0.8"/>
  <circle cx="664.3" cy="699.5" r="2.5" fill="#f472b6" stroke="#0d1117" stroke-width="0.8"/>
  <circle cx="742.4" cy="674.1" r="2.5" fill="#f472b6" stroke="#0d1117" stroke-width="0.8"/>
  <path d="M117.8,809.8L195.9,806.8L274.0,801.9L352.0,795.2L430.1,789.3L508.2,774.4L586.3,750.5L664.3,720.3L742.4,694.1" fill="none" stroke="#f59e0b" stroke-width="1.8"/>
  <circle cx="117.8" cy="809.8" r="2.5" fill="#f59e0b" stroke="#0d1117" stroke-width="0.8"/>
  <circle cx="195.9" cy="806.8" r="2.5" fill="#f59e0b" stroke="#0d1117" stroke-width="0.8"/>
  <circle cx="274.0" cy="801.9" r="2.5" fill="#f59e0b" stroke="#0d1117" stroke-width="0.8"/>
  <circle cx="352.0" cy="795.2" r="2.5" fill="#f59e0b" stroke="#0d1117" stroke-width="0.8"/>
  <circle cx="430.1" cy="789.3" r="2.5" fill="#f59e0b" stroke="#0d1117" stroke-width="0.8"/>
  <circle cx="508.2" cy="774.4" r="2.5" fill="#f59e0b" stroke="#0d1117" stroke-width="0.8"/>
  <circle cx="586.3" cy="750.5" r="2.5" fill="#f59e0b" stroke="#0d1117" stroke-width="0.8"/>
  <circle cx="664.3" cy="720.3" r="2.5" fill="#f59e0b" stroke="#0d1117" stroke-width="0.8"/>
  <circle cx="742.4" cy="694.1" r="2.5" fill="#f59e0b" stroke="#0d1117" stroke-width="0.8"/>
  <path d="M117.8,811.4L195.9,809.6L274.0,807.5L352.0,805.3L430.1,803.9L508.2,799.2L586.3,791.4L664.3,783.4L742.4,774.7" fill="none" stroke="#4ade80" stroke-width="1.8"/>
  <circle cx="117.8" cy="811.4" r="2.5" fill="#4ade80" stroke="#0d1117" stroke-width="0.8"/>
  <circle cx="195.9" cy="809.6" r="2.5" fill="#4ade80" stroke="#0d1117" stroke-width="0.8"/>
  <circle cx="274.0" cy="807.5" r="2.5" fill="#4ade80" stroke="#0d1117" stroke-width="0.8"/>
  <circle cx="352.0" cy="805.3" r="2.5" fill="#4ade80" stroke="#0d1117" stroke-width="0.8"/>
  <circle cx="430.1" cy="803.9" r="2.5" fill="#4ade80" stroke="#0d1117" stroke-width="0.8"/>
  <circle cx="508.2" cy="799.2" r="2.5" fill="#4ade80" stroke="#0d1117" stroke-width="0.8"/>
  <circle cx="586.3" cy="791.4" r="2.5" fill="#4ade80" stroke="#0d1117" stroke-width="0.8"/>
  <circle cx="664.3" cy="783.4" r="2.5" fill="#4ade80" stroke="#0d1117" stroke-width="0.8"/>
  <circle cx="742.4" cy="774.7" r="2.5" fill="#4ade80" stroke="#0d1117" stroke-width="0.8"/>
  <rect x="90" y="865" width="700" height="220" fill="#161b22" rx="4"/>
  <text x="440.0" y="857" text-anchor="middle" fill="#e6edf3" font-size="12" font-weight="600">x-ray</text>
  <line x1="117.8" y1="865" x2="117.8" y2="1085" stroke="#21262d" stroke-width="1"/>
  <text x="117.8" y="1099" text-anchor="middle" fill="#7d8590" font-size="9">512</text>
  <line x1="195.9" y1="865" x2="195.9" y2="1085" stroke="#21262d" stroke-width="1"/>
  <text x="195.9" y="1099" text-anchor="middle" fill="#7d8590" font-size="9">1K</text>
  <line x1="274.0" y1="865" x2="274.0" y2="1085" stroke="#21262d" stroke-width="1"/>
  <text x="274.0" y="1099" text-anchor="middle" fill="#7d8590" font-size="9">2K</text>
  <line x1="352.0" y1="865" x2="352.0" y2="1085" stroke="#21262d" stroke-width="1"/>
  <text x="352.0" y="1099" text-anchor="middle" fill="#7d8590" font-size="9">4K</text>
  <line x1="430.1" y1="865" x2="430.1" y2="1085" stroke="#21262d" stroke-width="1"/>
  <text x="430.1" y="1099" text-anchor="middle" fill="#7d8590" font-size="9">8K</text>
  <line x1="508.2" y1="865" x2="508.2" y2="1085" stroke="#21262d" stroke-width="1"/>
  <text x="508.2" y="1099" text-anchor="middle" fill="#7d8590" font-size="9">16K</text>
  <line x1="586.3" y1="865" x2="586.3" y2="1085" stroke="#21262d" stroke-width="1"/>
  <text x="586.3" y="1099" text-anchor="middle" fill="#7d8590" font-size="9">32K</text>
  <line x1="664.3" y1="865" x2="664.3" y2="1085" stroke="#21262d" stroke-width="1"/>
  <text x="664.3" y="1099" text-anchor="middle" fill="#7d8590" font-size="9">64K</text>
  <line x1="742.4" y1="865" x2="742.4" y2="1085" stroke="#21262d" stroke-width="1"/>
  <text x="742.4" y="1099" text-anchor="middle" fill="#7d8590" font-size="9">128K</text>
  <line x1="90" y1="1045.2" x2="790" y2="1045.2" stroke="#21262d" stroke-width="1"/>
  <text x="82" y="1045.2" text-anchor="end" dominant-baseline="middle" fill="#7d8590" font-size="9">200</text>
  <line x1="90" y1="1005.4" x2="790" y2="1005.4" stroke="#21262d" stroke-width="1"/>
  <text x="82" y="1005.4" text-anchor="end" dominant-baseline="middle" fill="#7d8590" font-size="9">400</text>
  <line x1="90" y1="965.7" x2="790" y2="965.7" stroke="#21262d" stroke-width="1"/>
  <text x="82" y="965.7" text-anchor="end" dominant-baseline="middle" fill="#7d8590" font-size="9">600</text>
  <line x1="90" y1="925.9" x2="790" y2="925.9" stroke="#21262d" stroke-width="1"/>
  <text x="82" y="925.9" text-anchor="end" dominant-baseline="middle" fill="#7d8590" font-size="9">800</text>
  <line x1="90" y1="886.1" x2="790" y2="886.1" stroke="#21262d" stroke-width="1"/>
  <text x="82" y="886.1" text-anchor="end" dominant-baseline="middle" fill="#7d8590" font-size="9">1000</text>
  <path d="M117.8,1051.9L195.9,1027.6L274.0,994.2L352.0,959.3L430.1,938.4L508.2,916.1L586.3,893.7L664.3,908.1L742.4,917.3" fill="none" stroke="#60a5fa" stroke-width="1.8"/>
  <circle cx="117.8" cy="1051.9" r="2.5" fill="#60a5fa" stroke="#0d1117" stroke-width="0.8"/>
  <circle cx="195.9" cy="1027.6" r="2.5" fill="#60a5fa" stroke="#0d1117" stroke-width="0.8"/>
  <circle cx="274.0" cy="994.2" r="2.5" fill="#60a5fa" stroke="#0d1117" stroke-width="0.8"/>
  <circle cx="352.0" cy="959.3" r="2.5" fill="#60a5fa" stroke="#0d1117" stroke-width="0.8"/>
  <circle cx="430.1" cy="938.4" r="2.5" fill="#60a5fa" stroke="#0d1117" stroke-width="0.8"/>
  <circle cx="508.2" cy="916.1" r="2.5" fill="#60a5fa" stroke="#0d1117" stroke-width="0.8"/>
  <circle cx="586.3" cy="893.7" r="2.5" fill="#60a5fa" stroke="#0d1117" stroke-width="0.8"/>
  <circle cx="664.3" cy="908.1" r="2.5" fill="#60a5fa" stroke="#0d1117" stroke-width="0.8"/>
  <circle cx="742.4" cy="917.3" r="2.5" fill="#60a5fa" stroke="#0d1117" stroke-width="0.8"/>
  <path d="M117.8,1033.4L195.9,1013.3L274.0,996.6L352.0,984.9L430.1,978.7L508.2,976.5L586.3,973.4L664.3,976.6L742.4,989.5" fill="none" stroke="#f87171" stroke-width="1.8"/>
  <circle cx="117.8" cy="1033.4" r="2.5" fill="#f87171" stroke="#0d1117" stroke-width="0.8"/>
  <circle cx="195.9" cy="1013.3" r="2.5" fill="#f87171" stroke="#0d1117" stroke-width="0.8"/>
  <circle cx="274.0" cy="996.6" r="2.5" fill="#f87171" stroke="#0d1117" stroke-width="0.8"/>
  <circle cx="352.0" cy="984.9" r="2.5" fill="#f87171" stroke="#0d1117" stroke-width="0.8"/>
  <circle cx="430.1" cy="978.7" r="2.5" fill="#f87171" stroke="#0d1117" stroke-width="0.8"/>
  <circle cx="508.2" cy="976.5" r="2.5" fill="#f87171" stroke="#0d1117" stroke-width="0.8"/>
  <circle cx="586.3" cy="973.4" r="2.5" fill="#f87171" stroke="#0d1117" stroke-width="0.8"/>
  <circle cx="664.3" cy="976.6" r="2.5" fill="#f87171" stroke="#0d1117" stroke-width="0.8"/>
  <circle cx="742.4" cy="989.5" r="2.5" fill="#f87171" stroke="#0d1117" stroke-width="0.8"/>
  <path d="M117.8,1034.2L195.9,1013.3L274.0,997.5L352.0,986.1L430.1,981.2L508.2,981.5L586.3,978.6L664.3,988.3L742.4,998.2" fill="none" stroke="#f472b6" stroke-width="1.8"/>
  <circle cx="117.8" cy="1034.2" r="2.5" fill="#f472b6" stroke="#0d1117" stroke-width="0.8"/>
  <circle cx="195.9" cy="1013.3" r="2.5" fill="#f472b6" stroke="#0d1117" stroke-width="0.8"/>
  <circle cx="274.0" cy="997.5" r="2.5" fill="#f472b6" stroke="#0d1117" stroke-width="0.8"/>
  <circle cx="352.0" cy="986.1" r="2.5" fill="#f472b6" stroke="#0d1117" stroke-width="0.8"/>
  <circle cx="430.1" cy="981.2" r="2.5" fill="#f472b6" stroke="#0d1117" stroke-width="0.8"/>
  <circle cx="508.2" cy="981.5" r="2.5" fill="#f472b6" stroke="#0d1117" stroke-width="0.8"/>
  <circle cx="586.3" cy="978.6" r="2.5" fill="#f472b6" stroke="#0d1117" stroke-width="0.8"/>
  <circle cx="664.3" cy="988.3" r="2.5" fill="#f472b6" stroke="#0d1117" stroke-width="0.8"/>
  <circle cx="742.4" cy="998.2" r="2.5" fill="#f472b6" stroke="#0d1117" stroke-width="0.8"/>
  <path d="M117.8,1066.6L195.9,1051.3L274.0,1028.8L352.0,1006.6L430.1,992.9L508.2,974.2L586.3,954.6L664.3,964.7L742.4,969.6" fill="none" stroke="#f59e0b" stroke-width="1.8"/>
  <circle cx="117.8" cy="1066.6" r="2.5" fill="#f59e0b" stroke="#0d1117" stroke-width="0.8"/>
  <circle cx="195.9" cy="1051.3" r="2.5" fill="#f59e0b" stroke="#0d1117" stroke-width="0.8"/>
  <circle cx="274.0" cy="1028.8" r="2.5" fill="#f59e0b" stroke="#0d1117" stroke-width="0.8"/>
  <circle cx="352.0" cy="1006.6" r="2.5" fill="#f59e0b" stroke="#0d1117" stroke-width="0.8"/>
  <circle cx="430.1" cy="992.9" r="2.5" fill="#f59e0b" stroke="#0d1117" stroke-width="0.8"/>
  <circle cx="508.2" cy="974.2" r="2.5" fill="#f59e0b" stroke="#0d1117" stroke-width="0.8"/>
  <circle cx="586.3" cy="954.6" r="2.5" fill="#f59e0b" stroke="#0d1117" stroke-width="0.8"/>
  <circle cx="664.3" cy="964.7" r="2.5" fill="#f59e0b" stroke="#0d1117" stroke-width="0.8"/>
  <circle cx="742.4" cy="969.6" r="2.5" fill="#f59e0b" stroke="#0d1117" stroke-width="0.8"/>
  <path d="M117.8,1074.7L195.9,1068.9L274.0,1063.2L352.0,1059.0L430.1,1056.9L508.2,1054.8L586.3,1052.9L664.3,1054.8L742.4,1055.3" fill="none" stroke="#4ade80" stroke-width="1.8"/>
  <circle cx="117.8" cy="1074.7" r="2.5" fill="#4ade80" stroke="#0d1117" stroke-width="0.8"/>
  <circle cx="195.9" cy="1068.9" r="2.5" fill="#4ade80" stroke="#0d1117" stroke-width="0.8"/>
  <circle cx="274.0" cy="1063.2" r="2.5" fill="#4ade80" stroke="#0d1117" stroke-width="0.8"/>
  <circle cx="352.0" cy="1059.0" r="2.5" fill="#4ade80" stroke="#0d1117" stroke-width="0.8"/>
  <circle cx="430.1" cy="1056.9" r="2.5" fill="#4ade80" stroke="#0d1117" stroke-width="0.8"/>
  <circle cx="508.2" cy="1054.8" r="2.5" fill="#4ade80" stroke="#0d1117" stroke-width="0.8"/>
  <circle cx="586.3" cy="1052.9" r="2.5" fill="#4ade80" stroke="#0d1117" stroke-width="0.8"/>
  <circle cx="664.3" cy="1054.8" r="2.5" fill="#4ade80" stroke="#0d1117" stroke-width="0.8"/>
  <circle cx="742.4" cy="1055.3" r="2.5" fill="#4ade80" stroke="#0d1117" stroke-width="0.8"/>
  <text x="20" y="570.0" text-anchor="middle" fill="#e6edf3" font-size="11" font-weight="600" transform="rotate(-90,20,570.0)">decode MB/s</text>
  <circle cx="-110" cy="1120" r="4" fill="#60a5fa"/>
  <text x="-102" y="1123.5" fill="#e6edf3" font-size="10" font-weight="500">libzstd v1.5.7 (C)</text>
  <circle cx="37" cy="1120" r="4" fill="#f87171"/>
  <text x="45" y="1123.5" fill="#e6edf3" font-size="10" font-weight="500">zrip (safe SIMD + encapsulated unsafe)</text>
  <circle cx="309" cy="1120" r="4" fill="#f472b6"/>
  <text x="317" y="1123.5" fill="#e6edf3" font-size="10" font-weight="500">zrip paranoid (safe SIMD, no unsafe)</text>
  <circle cx="568" cy="1120" r="4" fill="#f59e0b"/>
  <text x="576" y="1123.5" fill="#e6edf3" font-size="10" font-weight="500">structured-zstd v0.0.48 (unsafe)</text>
  <circle cx="802" cy="1120" r="4" fill="#4ade80"/>
  <text x="810" y="1123.5" fill="#e6edf3" font-size="10" font-weight="500">ruzstd v0.8.3 (safe)</text>
</svg>
