<svg xmlns="http://www.w3.org/2000/svg" viewBox="0 0 950 465" font-family="system-ui, -apple-system, sans-serif">
  <rect width="950" height="465" fill="#0d1117"/>
  <text x="475.0" y="18" text-anchor="middle" fill="#e6edf3" font-size="14" font-weight="700">Encode Throughput vs Input Size (small inputs)</text>
  <text x="475.0" y="34" text-anchor="middle" fill="#7d8590" font-size="10">Intel Core i7-8700B @ 3.20GHz, performance governor, turbo off</text>
  <rect x="90" y="55" width="230" height="340" fill="#161b22" rx="4"/>
  <text x="205.0" y="47" text-anchor="middle" fill="#e6edf3" font-size="12" font-weight="600">dickens</text>
  <line x1="104.6" y1="55" x2="104.6" y2="395" stroke="#21262d" stroke-width="1"/>
  <text x="104.6" y="409" text-anchor="middle" fill="#7d8590" font-size="9">2K</text>
  <line x1="169.8" y1="55" x2="169.8" y2="395" stroke="#21262d" stroke-width="1"/>
  <text x="169.8" y="409" text-anchor="middle" fill="#7d8590" font-size="9">8K</text>
  <line x1="235.0" y1="55" x2="235.0" y2="395" stroke="#21262d" stroke-width="1"/>
  <text x="235.0" y="409" text-anchor="middle" fill="#7d8590" font-size="9">32K</text>
  <line x1="300.1" y1="55" x2="300.1" y2="395" stroke="#21262d" stroke-width="1"/>
  <text x="300.1" y="409" text-anchor="middle" fill="#7d8590" font-size="9">128K</text>
  <line x1="90" y1="317.5" x2="320" y2="317.5" stroke="#21262d" stroke-width="1"/>
  <text x="82" y="317.5" text-anchor="end" dominant-baseline="middle" fill="#7d8590" font-size="9">100</text>
  <line x1="90" y1="239.9" x2="320" y2="239.9" stroke="#21262d" stroke-width="1"/>
  <text x="82" y="239.9" text-anchor="end" dominant-baseline="middle" fill="#7d8590" font-size="9">200</text>
  <line x1="90" y1="162.4" x2="320" y2="162.4" stroke="#21262d" stroke-width="1"/>
  <text x="82" y="162.4" text-anchor="end" dominant-baseline="middle" fill="#7d8590" font-size="9">300</text>
  <line x1="90" y1="84.8" x2="320" y2="84.8" stroke="#21262d" stroke-width="1"/>
  <text x="82" y="84.8" text-anchor="end" dominant-baseline="middle" fill="#7d8590" font-size="9">400</text>
  <path d="M104.6,125.6L169.8,99.3L235.0,197.2L300.1,219.9" fill="none" stroke="#60a5fa" stroke-width="1.5" stroke-dasharray="6,3,2,3"/>
  <circle cx="104.6" cy="125.6" r="3" fill="#60a5fa" stroke="#0d1117" stroke-width="1"/>
  <circle cx="169.8" cy="99.3" r="3" fill="#60a5fa" stroke="#0d1117" stroke-width="1"/>
  <circle cx="235.0" cy="197.2" r="3" fill="#60a5fa" stroke="#0d1117" stroke-width="1"/>
  <circle cx="300.1" cy="219.9" r="3" fill="#60a5fa" stroke="#0d1117" stroke-width="1"/>
  <text x="306.1" y="222.9" text-anchor="start" fill="#60a5fa" font-size="8" font-weight="600">L−3</text>
  <path d="M104.6,207.4L169.8,187.7L235.0,231.7L300.1,243.8" fill="none" stroke="#60a5fa" stroke-width="1.5" stroke-dasharray="2,2"/>
  <circle cx="104.6" cy="207.4" r="3" fill="#60a5fa" stroke="#0d1117" stroke-width="1"/>
  <circle cx="169.8" cy="187.7" r="3" fill="#60a5fa" stroke="#0d1117" stroke-width="1"/>
  <circle cx="235.0" cy="231.7" r="3" fill="#60a5fa" stroke="#0d1117" stroke-width="1"/>
  <circle cx="300.1" cy="243.8" r="3" fill="#60a5fa" stroke="#0d1117" stroke-width="1"/>
  <text x="306.1" y="246.8" text-anchor="start" fill="#60a5fa" font-size="8" font-weight="600">L−1</text>
  <path d="M104.6,264.4L169.8,226.8L235.0,225.1L300.1,238.0" fill="none" stroke="#60a5fa" stroke-width="1.5" stroke-dasharray="4,3"/>
  <circle cx="104.6" cy="264.4" r="3" fill="#60a5fa" stroke="#0d1117" stroke-width="1"/>
  <circle cx="169.8" cy="226.8" r="3" fill="#60a5fa" stroke="#0d1117" stroke-width="1"/>
  <circle cx="235.0" cy="225.1" r="3" fill="#60a5fa" stroke="#0d1117" stroke-width="1"/>
  <circle cx="300.1" cy="238.0" r="3" fill="#60a5fa" stroke="#0d1117" stroke-width="1"/>
  <text x="306.1" y="241.0" text-anchor="start" fill="#60a5fa" font-size="8" font-weight="600">L1</text>
  <path d="M104.6,294.1L169.8,275.6L235.0,287.2L300.1,292.2" fill="none" stroke="#60a5fa" stroke-width="1.5"/>
  <circle cx="104.6" cy="294.1" r="3" fill="#60a5fa" stroke="#0d1117" stroke-width="1"/>
  <circle cx="169.8" cy="275.6" r="3" fill="#60a5fa" stroke="#0d1117" stroke-width="1"/>
  <circle cx="235.0" cy="287.2" r="3" fill="#60a5fa" stroke="#0d1117" stroke-width="1"/>
  <circle cx="300.1" cy="292.2" r="3" fill="#60a5fa" stroke="#0d1117" stroke-width="1"/>
  <text x="306.1" y="295.2" text-anchor="start" fill="#60a5fa" font-size="8" font-weight="600">L3</text>
  <path d="M104.6,280.5L169.8,220.3L235.0,252.6L300.1,264.6" fill="none" stroke="#f87171" stroke-width="1.5" stroke-dasharray="6,3,2,3"/>
  <circle cx="104.6" cy="280.5" r="3" fill="#f87171" stroke="#0d1117" stroke-width="1"/>
  <circle cx="169.8" cy="220.3" r="3" fill="#f87171" stroke="#0d1117" stroke-width="1"/>
  <circle cx="235.0" cy="252.6" r="3" fill="#f87171" stroke="#0d1117" stroke-width="1"/>
  <circle cx="300.1" cy="264.6" r="3" fill="#f87171" stroke="#0d1117" stroke-width="1"/>
  <text x="306.1" y="267.6" text-anchor="start" fill="#f87171" font-size="8" font-weight="600">L−3</text>
  <path d="M104.6,316.2L169.8,251.7L235.0,270.1L300.1,276.3" fill="none" stroke="#f87171" stroke-width="1.5" stroke-dasharray="2,2"/>
  <circle cx="104.6" cy="316.2" r="3" fill="#f87171" stroke="#0d1117" stroke-width="1"/>
  <circle cx="169.8" cy="251.7" r="3" fill="#f87171" stroke="#0d1117" stroke-width="1"/>
  <circle cx="235.0" cy="270.1" r="3" fill="#f87171" stroke="#0d1117" stroke-width="1"/>
  <circle cx="300.1" cy="276.3" r="3" fill="#f87171" stroke="#0d1117" stroke-width="1"/>
  <text x="306.1" y="279.3" text-anchor="start" fill="#f87171" font-size="8" font-weight="600">L−1</text>
  <path d="M104.6,322.8L169.8,298.5L235.0,292.4L300.1,285.6" fill="none" stroke="#f87171" stroke-width="1.5" stroke-dasharray="4,3"/>
  <circle cx="104.6" cy="322.8" r="3" fill="#f87171" stroke="#0d1117" stroke-width="1"/>
  <circle cx="169.8" cy="298.5" r="3" fill="#f87171" stroke="#0d1117" stroke-width="1"/>
  <circle cx="235.0" cy="292.4" r="3" fill="#f87171" stroke="#0d1117" stroke-width="1"/>
  <circle cx="300.1" cy="285.6" r="3" fill="#f87171" stroke="#0d1117" stroke-width="1"/>
  <text x="306.1" y="288.6" text-anchor="start" fill="#f87171" font-size="8" font-weight="600">L1</text>
  <path d="M104.6,332.3L169.8,301.0L235.0,316.6L300.1,320.5" fill="none" stroke="#f87171" stroke-width="1.5"/>
  <circle cx="104.6" cy="332.3" r="3" fill="#f87171" stroke="#0d1117" stroke-width="1"/>
  <circle cx="169.8" cy="301.0" r="3" fill="#f87171" stroke="#0d1117" stroke-width="1"/>
  <circle cx="235.0" cy="316.6" r="3" fill="#f87171" stroke="#0d1117" stroke-width="1"/>
  <circle cx="300.1" cy="320.5" r="3" fill="#f87171" stroke="#0d1117" stroke-width="1"/>
  <text x="306.1" y="323.5" text-anchor="start" fill="#f87171" font-size="8" font-weight="600">L3</text>
  <rect x="390" y="55" width="230" height="340" fill="#161b22" rx="4"/>
  <text x="505.0" y="47" text-anchor="middle" fill="#e6edf3" font-size="12" font-weight="600">hdfs</text>
  <line x1="404.6" y1="55" x2="404.6" y2="395" stroke="#21262d" stroke-width="1"/>
  <text x="404.6" y="409" text-anchor="middle" fill="#7d8590" font-size="9">2K</text>
  <line x1="469.8" y1="55" x2="469.8" y2="395" stroke="#21262d" stroke-width="1"/>
  <text x="469.8" y="409" text-anchor="middle" fill="#7d8590" font-size="9">8K</text>
  <line x1="535.0" y1="55" x2="535.0" y2="395" stroke="#21262d" stroke-width="1"/>
  <text x="535.0" y="409" text-anchor="middle" fill="#7d8590" font-size="9">32K</text>
  <line x1="600.1" y1="55" x2="600.1" y2="395" stroke="#21262d" stroke-width="1"/>
  <text x="600.1" y="409" text-anchor="middle" fill="#7d8590" font-size="9">128K</text>
  <line x1="390" y1="286.8" x2="620" y2="286.8" stroke="#21262d" stroke-width="1"/>
  <text x="382" y="286.8" text-anchor="end" dominant-baseline="middle" fill="#7d8590" font-size="9">500</text>
  <line x1="390" y1="178.7" x2="620" y2="178.7" stroke="#21262d" stroke-width="1"/>
  <text x="382" y="178.7" text-anchor="end" dominant-baseline="middle" fill="#7d8590" font-size="9">1000</text>
  <line x1="390" y1="70.5" x2="620" y2="70.5" stroke="#21262d" stroke-width="1"/>
  <text x="382" y="70.5" text-anchor="end" dominant-baseline="middle" fill="#7d8590" font-size="9">1500</text>
  <path d="M404.6,280.0L469.8,180.0L535.0,99.3L600.1,113.8" fill="none" stroke="#60a5fa" stroke-width="1.5" stroke-dasharray="6,3,2,3"/>
  <circle cx="404.6" cy="280.0" r="3" fill="#60a5fa" stroke="#0d1117" stroke-width="1"/>
  <circle cx="469.8" cy="180.0" r="3" fill="#60a5fa" stroke="#0d1117" stroke-width="1"/>
  <circle cx="535.0" cy="99.3" r="3" fill="#60a5fa" stroke="#0d1117" stroke-width="1"/>
  <circle cx="600.1" cy="113.8" r="3" fill="#60a5fa" stroke="#0d1117" stroke-width="1"/>
  <text x="606.1" y="116.8" text-anchor="start" fill="#60a5fa" font-size="8" font-weight="600">L−3</text>
  <path d="M404.6,295.6L469.8,203.1L535.0,125.9L600.1,138.3" fill="none" stroke="#60a5fa" stroke-width="1.5" stroke-dasharray="2,2"/>
  <circle cx="404.6" cy="295.6" r="3" fill="#60a5fa" stroke="#0d1117" stroke-width="1"/>
  <circle cx="469.8" cy="203.1" r="3" fill="#60a5fa" stroke="#0d1117" stroke-width="1"/>
  <circle cx="535.0" cy="125.9" r="3" fill="#60a5fa" stroke="#0d1117" stroke-width="1"/>
  <circle cx="600.1" cy="138.3" r="3" fill="#60a5fa" stroke="#0d1117" stroke-width="1"/>
  <text x="606.1" y="141.3" text-anchor="start" fill="#60a5fa" font-size="8" font-weight="600">L−1</text>
  <path d="M404.6,335.0L469.8,253.6L535.0,163.0L600.1,150.6" fill="none" stroke="#60a5fa" stroke-width="1.5" stroke-dasharray="4,3"/>
  <circle cx="404.6" cy="335.0" r="3" fill="#60a5fa" stroke="#0d1117" stroke-width="1"/>
  <circle cx="469.8" cy="253.6" r="3" fill="#60a5fa" stroke="#0d1117" stroke-width="1"/>
  <circle cx="535.0" cy="163.0" r="3" fill="#60a5fa" stroke="#0d1117" stroke-width="1"/>
  <circle cx="600.1" cy="150.6" r="3" fill="#60a5fa" stroke="#0d1117" stroke-width="1"/>
  <text x="606.1" y="153.6" text-anchor="start" fill="#60a5fa" font-size="8" font-weight="600">L1</text>
  <path d="M404.6,344.6L469.8,278.1L535.0,216.2L600.1,217.5" fill="none" stroke="#60a5fa" stroke-width="1.5"/>
  <circle cx="404.6" cy="344.6" r="3" fill="#60a5fa" stroke="#0d1117" stroke-width="1"/>
  <circle cx="469.8" cy="278.1" r="3" fill="#60a5fa" stroke="#0d1117" stroke-width="1"/>
  <circle cx="535.0" cy="216.2" r="3" fill="#60a5fa" stroke="#0d1117" stroke-width="1"/>
  <circle cx="600.1" cy="217.5" r="3" fill="#60a5fa" stroke="#0d1117" stroke-width="1"/>
  <text x="606.1" y="220.5" text-anchor="start" fill="#60a5fa" font-size="8" font-weight="600">L3</text>
  <path d="M404.6,348.1L469.8,312.8L535.0,242.1L600.1,212.2" fill="none" stroke="#f87171" stroke-width="1.5" stroke-dasharray="6,3,2,3"/>
  <circle cx="404.6" cy="348.1" r="3" fill="#f87171" stroke="#0d1117" stroke-width="1"/>
  <circle cx="469.8" cy="312.8" r="3" fill="#f87171" stroke="#0d1117" stroke-width="1"/>
  <circle cx="535.0" cy="242.1" r="3" fill="#f87171" stroke="#0d1117" stroke-width="1"/>
  <circle cx="600.1" cy="212.2" r="3" fill="#f87171" stroke="#0d1117" stroke-width="1"/>
  <text x="606.1" y="215.2" text-anchor="start" fill="#f87171" font-size="8" font-weight="600">L−3</text>
  <path d="M404.6,348.8L469.8,314.2L535.0,241.1L600.1,216.5" fill="none" stroke="#f87171" stroke-width="1.5" stroke-dasharray="2,2"/>
  <circle cx="404.6" cy="348.8" r="3" fill="#f87171" stroke="#0d1117" stroke-width="1"/>
  <circle cx="469.8" cy="314.2" r="3" fill="#f87171" stroke="#0d1117" stroke-width="1"/>
  <circle cx="535.0" cy="241.1" r="3" fill="#f87171" stroke="#0d1117" stroke-width="1"/>
  <circle cx="600.1" cy="216.5" r="3" fill="#f87171" stroke="#0d1117" stroke-width="1"/>
  <text x="606.1" y="219.5" text-anchor="start" fill="#f87171" font-size="8" font-weight="600">L−1</text>
  <path d="M404.6,350.8L469.8,315.7L535.0,249.9L600.1,241.0" fill="none" stroke="#f87171" stroke-width="1.5" stroke-dasharray="4,3"/>
  <circle cx="404.6" cy="350.8" r="3" fill="#f87171" stroke="#0d1117" stroke-width="1"/>
  <circle cx="469.8" cy="315.7" r="3" fill="#f87171" stroke="#0d1117" stroke-width="1"/>
  <circle cx="535.0" cy="249.9" r="3" fill="#f87171" stroke="#0d1117" stroke-width="1"/>
  <circle cx="600.1" cy="241.0" r="3" fill="#f87171" stroke="#0d1117" stroke-width="1"/>
  <text x="606.1" y="244.0" text-anchor="start" fill="#f87171" font-size="8" font-weight="600">L1</text>
  <path d="M404.6,355.0L469.8,323.6L535.0,279.9L600.1,277.9" fill="none" stroke="#f87171" stroke-width="1.5"/>
  <circle cx="404.6" cy="355.0" r="3" fill="#f87171" stroke="#0d1117" stroke-width="1"/>
  <circle cx="469.8" cy="323.6" r="3" fill="#f87171" stroke="#0d1117" stroke-width="1"/>
  <circle cx="535.0" cy="279.9" r="3" fill="#f87171" stroke="#0d1117" stroke-width="1"/>
  <circle cx="600.1" cy="277.9" r="3" fill="#f87171" stroke="#0d1117" stroke-width="1"/>
  <text x="606.1" y="280.9" text-anchor="start" fill="#f87171" font-size="8" font-weight="600">L3</text>
  <rect x="690" y="55" width="230" height="340" fill="#161b22" rx="4"/>
  <text x="805.0" y="47" text-anchor="middle" fill="#e6edf3" font-size="12" font-weight="600">xml collection</text>
  <line x1="704.6" y1="55" x2="704.6" y2="395" stroke="#21262d" stroke-width="1"/>
  <text x="704.6" y="409" text-anchor="middle" fill="#7d8590" font-size="9">2K</text>
  <line x1="769.8" y1="55" x2="769.8" y2="395" stroke="#21262d" stroke-width="1"/>
  <text x="769.8" y="409" text-anchor="middle" fill="#7d8590" font-size="9">8K</text>
  <line x1="835.0" y1="55" x2="835.0" y2="395" stroke="#21262d" stroke-width="1"/>
  <text x="835.0" y="409" text-anchor="middle" fill="#7d8590" font-size="9">32K</text>
  <line x1="900.1" y1="55" x2="900.1" y2="395" stroke="#21262d" stroke-width="1"/>
  <text x="900.1" y="409" text-anchor="middle" fill="#7d8590" font-size="9">128K</text>
  <line x1="690" y1="337.0" x2="920" y2="337.0" stroke="#21262d" stroke-width="1"/>
  <text x="682" y="337.0" text-anchor="end" dominant-baseline="middle" fill="#7d8590" font-size="9">200</text>
  <line x1="690" y1="279.1" x2="920" y2="279.1" stroke="#21262d" stroke-width="1"/>
  <text x="682" y="279.1" text-anchor="end" dominant-baseline="middle" fill="#7d8590" font-size="9">400</text>
  <line x1="690" y1="221.1" x2="920" y2="221.1" stroke="#21262d" stroke-width="1"/>
  <text x="682" y="221.1" text-anchor="end" dominant-baseline="middle" fill="#7d8590" font-size="9">600</text>
  <line x1="690" y1="163.2" x2="920" y2="163.2" stroke="#21262d" stroke-width="1"/>
  <text x="682" y="163.2" text-anchor="end" dominant-baseline="middle" fill="#7d8590" font-size="9">800</text>
  <line x1="690" y1="105.2" x2="920" y2="105.2" stroke="#21262d" stroke-width="1"/>
  <text x="682" y="105.2" text-anchor="end" dominant-baseline="middle" fill="#7d8590" font-size="9">1000</text>
  <path d="M704.6,312.5L769.8,277.8L835.0,198.6L900.1,116.3" fill="none" stroke="#60a5fa" stroke-width="1.5" stroke-dasharray="6,3,2,3"/>
  <circle cx="704.6" cy="312.5" r="3" fill="#60a5fa" stroke="#0d1117" stroke-width="1"/>
  <circle cx="769.8" cy="277.8" r="3" fill="#60a5fa" stroke="#0d1117" stroke-width="1"/>
  <circle cx="835.0" cy="198.6" r="3" fill="#60a5fa" stroke="#0d1117" stroke-width="1"/>
  <circle cx="900.1" cy="116.3" r="3" fill="#60a5fa" stroke="#0d1117" stroke-width="1"/>
  <text x="906.1" y="119.3" text-anchor="start" fill="#60a5fa" font-size="8" font-weight="600">L−3</text>
  <path d="M704.6,320.0L769.8,292.5L835.0,216.4L900.1,121.8" fill="none" stroke="#60a5fa" stroke-width="1.5" stroke-dasharray="2,2"/>
  <circle cx="704.6" cy="320.0" r="3" fill="#60a5fa" stroke="#0d1117" stroke-width="1"/>
  <circle cx="769.8" cy="292.5" r="3" fill="#60a5fa" stroke="#0d1117" stroke-width="1"/>
  <circle cx="835.0" cy="216.4" r="3" fill="#60a5fa" stroke="#0d1117" stroke-width="1"/>
  <circle cx="900.1" cy="121.8" r="3" fill="#60a5fa" stroke="#0d1117" stroke-width="1"/>
  <text x="906.1" y="124.8" text-anchor="start" fill="#60a5fa" font-size="8" font-weight="600">L−1</text>
  <path d="M704.6,339.3L769.8,306.6L835.0,206.5L900.1,99.3" fill="none" stroke="#60a5fa" stroke-width="1.5" stroke-dasharray="4,3"/>
  <circle cx="704.6" cy="339.3" r="3" fill="#60a5fa" stroke="#0d1117" stroke-width="1"/>
  <circle cx="769.8" cy="306.6" r="3" fill="#60a5fa" stroke="#0d1117" stroke-width="1"/>
  <circle cx="835.0" cy="206.5" r="3" fill="#60a5fa" stroke="#0d1117" stroke-width="1"/>
  <circle cx="900.1" cy="99.3" r="3" fill="#60a5fa" stroke="#0d1117" stroke-width="1"/>
  <text x="906.1" y="102.3" text-anchor="start" fill="#60a5fa" font-size="8" font-weight="600">L1</text>
  <path d="M704.6,343.7L769.8,313.8L835.0,228.2L900.1,121.9" fill="none" stroke="#60a5fa" stroke-width="1.5"/>
  <circle cx="704.6" cy="343.7" r="3" fill="#60a5fa" stroke="#0d1117" stroke-width="1"/>
  <circle cx="769.8" cy="313.8" r="3" fill="#60a5fa" stroke="#0d1117" stroke-width="1"/>
  <circle cx="835.0" cy="228.2" r="3" fill="#60a5fa" stroke="#0d1117" stroke-width="1"/>
  <circle cx="900.1" cy="121.9" r="3" fill="#60a5fa" stroke="#0d1117" stroke-width="1"/>
  <text x="906.1" y="124.9" text-anchor="start" fill="#60a5fa" font-size="8" font-weight="600">L3</text>
  <path d="M704.6,362.9L769.8,335.9L835.0,286.5L900.1,191.5" fill="none" stroke="#f87171" stroke-width="1.5" stroke-dasharray="6,3,2,3"/>
  <circle cx="704.6" cy="362.9" r="3" fill="#f87171" stroke="#0d1117" stroke-width="1"/>
  <circle cx="769.8" cy="335.9" r="3" fill="#f87171" stroke="#0d1117" stroke-width="1"/>
  <circle cx="835.0" cy="286.5" r="3" fill="#f87171" stroke="#0d1117" stroke-width="1"/>
  <circle cx="900.1" cy="191.5" r="3" fill="#f87171" stroke="#0d1117" stroke-width="1"/>
  <text x="906.1" y="194.5" text-anchor="start" fill="#f87171" font-size="8" font-weight="600">L−3</text>
  <path d="M704.6,362.3L769.8,335.3L835.0,285.0L900.1,198.5" fill="none" stroke="#f87171" stroke-width="1.5" stroke-dasharray="2,2"/>
  <circle cx="704.6" cy="362.3" r="3" fill="#f87171" stroke="#0d1117" stroke-width="1"/>
  <circle cx="769.8" cy="335.3" r="3" fill="#f87171" stroke="#0d1117" stroke-width="1"/>
  <circle cx="835.0" cy="285.0" r="3" fill="#f87171" stroke="#0d1117" stroke-width="1"/>
  <circle cx="900.1" cy="198.5" r="3" fill="#f87171" stroke="#0d1117" stroke-width="1"/>
  <text x="906.1" y="201.5" text-anchor="start" fill="#f87171" font-size="8" font-weight="600">L−1</text>
  <path d="M704.6,363.8L769.8,339.3L835.0,290.3L900.1,205.0" fill="none" stroke="#f87171" stroke-width="1.5" stroke-dasharray="4,3"/>
  <circle cx="704.6" cy="363.8" r="3" fill="#f87171" stroke="#0d1117" stroke-width="1"/>
  <circle cx="769.8" cy="339.3" r="3" fill="#f87171" stroke="#0d1117" stroke-width="1"/>
  <circle cx="835.0" cy="290.3" r="3" fill="#f87171" stroke="#0d1117" stroke-width="1"/>
  <circle cx="900.1" cy="205.0" r="3" fill="#f87171" stroke="#0d1117" stroke-width="1"/>
  <text x="906.1" y="208.0" text-anchor="start" fill="#f87171" font-size="8" font-weight="600">L1</text>
  <path d="M704.6,366.7L769.8,346.0L835.0,302.0L900.1,227.4" fill="none" stroke="#f87171" stroke-width="1.5"/>
  <circle cx="704.6" cy="366.7" r="3" fill="#f87171" stroke="#0d1117" stroke-width="1"/>
  <circle cx="769.8" cy="346.0" r="3" fill="#f87171" stroke="#0d1117" stroke-width="1"/>
  <circle cx="835.0" cy="302.0" r="3" fill="#f87171" stroke="#0d1117" stroke-width="1"/>
  <circle cx="900.1" cy="227.4" r="3" fill="#f87171" stroke="#0d1117" stroke-width="1"/>
  <text x="906.1" y="230.4" text-anchor="start" fill="#f87171" font-size="8" font-weight="600">L3</text>
  <text x="20" y="225.0" text-anchor="middle" fill="#e6edf3" font-size="11" font-weight="600" transform="rotate(-90,20,225.0)">encode MB/s</text>
  <circle cx="149" cy="435" r="4" fill="#60a5fa"/>
  <text x="157" y="438.5" fill="#e6edf3" font-size="10" font-weight="500">C zstd (libzstd)</text>
  <circle cx="284" cy="435" r="4" fill="#f87171"/>
  <text x="292" y="438.5" fill="#e6edf3" font-size="10" font-weight="500">zrip (Rust)</text>
  <line x1="383" y1="435" x2="397" y2="435" stroke="#7d8590" stroke-width="1.5" stroke-dasharray='6,3,2,3'/>
  <text x="401" y="438.5" fill="#7d8590" font-size="10">dash-dot = L−3</text>
  <line x1="506" y1="435" x2="520" y2="435" stroke="#7d8590" stroke-width="1.5" stroke-dasharray='2,2'/>
  <text x="524" y="438.5" fill="#7d8590" font-size="10">dotted = L−1</text>
  <line x1="616" y1="435" x2="630" y2="435" stroke="#7d8590" stroke-width="1.5" stroke-dasharray='4,3'/>
  <text x="634" y="438.5" fill="#7d8590" font-size="10">dashed = L1</text>
  <line x1="720" y1="435" x2="734" y2="435" stroke="#7d8590" stroke-width="1.5"/>
  <text x="738" y="438.5" fill="#7d8590" font-size="10">solid = L3</text>
</svg>
