<svg xmlns="http://www.w3.org/2000/svg" viewBox="0 0 950 525" font-family="system-ui, -apple-system, sans-serif">
  <rect width="950" height="525" fill="#0d1117"/>
  <text x="475.0" y="18" text-anchor="middle" fill="#e6edf3" font-size="14" font-weight="700">Encode Throughput vs Input Size (small inputs)</text>
  <text x="475.0" y="34" text-anchor="middle" fill="#7d8590" font-size="10">Intel Core i7-8700B @ 3.20GHz, performance governor, turbo off</text>
  <rect x="90" y="55" width="230" height="400" fill="#161b22" rx="4"/>
  <text x="205.0" y="47" text-anchor="middle" fill="#e6edf3" font-size="12" font-weight="600">dickens</text>
  <line x1="104.6" y1="55" x2="104.6" y2="455" stroke="#21262d" stroke-width="1"/>
  <text x="104.6" y="469" text-anchor="middle" fill="#7d8590" font-size="9">2K</text>
  <line x1="169.8" y1="55" x2="169.8" y2="455" stroke="#21262d" stroke-width="1"/>
  <text x="169.8" y="469" text-anchor="middle" fill="#7d8590" font-size="9">8K</text>
  <line x1="235.0" y1="55" x2="235.0" y2="455" stroke="#21262d" stroke-width="1"/>
  <text x="235.0" y="469" text-anchor="middle" fill="#7d8590" font-size="9">32K</text>
  <line x1="300.1" y1="55" x2="300.1" y2="455" stroke="#21262d" stroke-width="1"/>
  <text x="300.1" y="469" text-anchor="middle" fill="#7d8590" font-size="9">128K</text>
  <line x1="90" y1="384.2" x2="320" y2="384.2" stroke="#21262d" stroke-width="1"/>
  <text x="82" y="384.2" text-anchor="end" dominant-baseline="middle" fill="#7d8590" font-size="9">50</text>
  <line x1="90" y1="313.4" x2="320" y2="313.4" stroke="#21262d" stroke-width="1"/>
  <text x="82" y="313.4" text-anchor="end" dominant-baseline="middle" fill="#7d8590" font-size="9">100</text>
  <line x1="90" y1="242.6" x2="320" y2="242.6" stroke="#21262d" stroke-width="1"/>
  <text x="82" y="242.6" text-anchor="end" dominant-baseline="middle" fill="#7d8590" font-size="9">150</text>
  <line x1="90" y1="171.8" x2="320" y2="171.8" stroke="#21262d" stroke-width="1"/>
  <text x="82" y="171.8" text-anchor="end" dominant-baseline="middle" fill="#7d8590" font-size="9">200</text>
  <line x1="90" y1="101.0" x2="320" y2="101.0" stroke="#21262d" stroke-width="1"/>
  <text x="82" y="101.0" text-anchor="end" dominant-baseline="middle" fill="#7d8590" font-size="9">250</text>
  <path d="M104.6,252.4L169.8,107.2L235.0,175.1L300.1,230.0L300.1,370.3L235.0,370.6L169.8,398.4L104.6,401.7Z" fill="#f59e0b" fill-opacity="0.15"/>
  <path d="M104.6,253.4L169.8,140.0L235.0,198.9L300.1,238.1" fill="none" stroke="#f59e0b" stroke-width="0.7" stroke-opacity="0.35"/>
  <path d="M104.6,276.6L169.8,152.4L235.0,220.9L300.1,250.3" fill="none" stroke="#f59e0b" stroke-width="0.7" stroke-opacity="0.35"/>
  <path d="M104.6,264.1L169.8,161.3L235.0,236.5L300.1,260.8" fill="none" stroke="#f59e0b" stroke-width="0.7" stroke-opacity="0.35"/>
  <path d="M104.6,267.1L169.8,178.3L235.0,253.9L300.1,271.0" fill="none" stroke="#f59e0b" stroke-width="0.7" stroke-opacity="0.35"/>
  <path d="M104.6,289.2L169.8,210.7L235.0,272.1L300.1,282.1" fill="none" stroke="#f59e0b" stroke-width="0.7" stroke-opacity="0.35"/>
  <path d="M104.6,301.9L169.8,257.7L235.0,288.0L300.1,292.8" fill="none" stroke="#f59e0b" stroke-width="0.7" stroke-opacity="0.35"/>
  <text x="306.1" y="295.8" text-anchor="start" fill="#f59e0b" font-size="7" font-weight="600" fill-opacity="0.5">L−1</text>
  <path d="M104.6,330.6L169.8,301.2L235.0,305.7L300.1,289.0" fill="none" stroke="#f59e0b" stroke-width="0.7" stroke-opacity="0.35"/>
  <path d="M104.6,351.6L169.8,330.7L235.0,320.3L300.1,314.9" fill="none" stroke="#f59e0b" stroke-width="0.7" stroke-opacity="0.35"/>
  <path d="M104.6,369.1L169.8,370.9L235.0,370.6L300.1,369.6" fill="none" stroke="#f59e0b" stroke-width="0.7" stroke-opacity="0.35"/>
  <path d="M104.6,252.4L169.8,107.2L235.0,175.1L300.1,230.0" fill="none" stroke="#f59e0b" stroke-width="1.5"/>
  <circle cx="104.6" cy="252.4" r="2.5" fill="#f59e0b" stroke="#0d1117" stroke-width="0.8"/>
  <circle cx="169.8" cy="107.2" r="2.5" fill="#f59e0b" stroke="#0d1117" stroke-width="0.8"/>
  <circle cx="235.0" cy="175.1" r="2.5" fill="#f59e0b" stroke="#0d1117" stroke-width="0.8"/>
  <circle cx="300.1" cy="230.0" r="2.5" fill="#f59e0b" stroke="#0d1117" stroke-width="0.8"/>
  <text x="306.1" y="233.0" text-anchor="start" fill="#f59e0b" font-size="7" font-weight="600">L−7</text>
  <path d="M104.6,401.7L169.8,398.4L235.0,370.6L300.1,370.3" fill="none" stroke="#f59e0b" stroke-width="1.5" stroke-dasharray="4,3"/>
  <circle cx="104.6" cy="401.7" r="2.5" fill="#f59e0b" stroke="#0d1117" stroke-width="0.8"/>
  <circle cx="169.8" cy="398.4" r="2.5" fill="#f59e0b" stroke="#0d1117" stroke-width="0.8"/>
  <circle cx="235.0" cy="370.6" r="2.5" fill="#f59e0b" stroke="#0d1117" stroke-width="0.8"/>
  <circle cx="300.1" cy="370.3" r="2.5" fill="#f59e0b" stroke="#0d1117" stroke-width="0.8"/>
  <text x="306.1" y="373.3" text-anchor="start" fill="#f59e0b" font-size="7" font-weight="600">L4</text>
  <rect x="390" y="55" width="230" height="400" fill="#161b22" rx="4"/>
  <text x="505.0" y="47" text-anchor="middle" fill="#e6edf3" font-size="12" font-weight="600">hdfs</text>
  <line x1="404.6" y1="55" x2="404.6" y2="455" stroke="#21262d" stroke-width="1"/>
  <text x="404.6" y="469" text-anchor="middle" fill="#7d8590" font-size="9">2K</text>
  <line x1="469.8" y1="55" x2="469.8" y2="455" stroke="#21262d" stroke-width="1"/>
  <text x="469.8" y="469" text-anchor="middle" fill="#7d8590" font-size="9">8K</text>
  <line x1="535.0" y1="55" x2="535.0" y2="455" stroke="#21262d" stroke-width="1"/>
  <text x="535.0" y="469" text-anchor="middle" fill="#7d8590" font-size="9">32K</text>
  <line x1="600.1" y1="55" x2="600.1" y2="455" stroke="#21262d" stroke-width="1"/>
  <text x="600.1" y="469" text-anchor="middle" fill="#7d8590" font-size="9">128K</text>
  <line x1="390" y1="396.4" x2="620" y2="396.4" stroke="#21262d" stroke-width="1"/>
  <text x="382" y="396.4" text-anchor="end" dominant-baseline="middle" fill="#7d8590" font-size="9">100</text>
  <line x1="390" y1="337.9" x2="620" y2="337.9" stroke="#21262d" stroke-width="1"/>
  <text x="382" y="337.9" text-anchor="end" dominant-baseline="middle" fill="#7d8590" font-size="9">200</text>
  <line x1="390" y1="279.3" x2="620" y2="279.3" stroke="#21262d" stroke-width="1"/>
  <text x="382" y="279.3" text-anchor="end" dominant-baseline="middle" fill="#7d8590" font-size="9">300</text>
  <line x1="390" y1="220.8" x2="620" y2="220.8" stroke="#21262d" stroke-width="1"/>
  <text x="382" y="220.8" text-anchor="end" dominant-baseline="middle" fill="#7d8590" font-size="9">400</text>
  <line x1="390" y1="162.2" x2="620" y2="162.2" stroke="#21262d" stroke-width="1"/>
  <text x="382" y="162.2" text-anchor="end" dominant-baseline="middle" fill="#7d8590" font-size="9">500</text>
  <line x1="390" y1="103.7" x2="620" y2="103.7" stroke="#21262d" stroke-width="1"/>
  <text x="382" y="103.7" text-anchor="end" dominant-baseline="middle" fill="#7d8590" font-size="9">600</text>
  <path d="M404.6,367.4L469.8,250.0L535.0,128.5L600.1,107.2L600.1,264.3L535.0,266.7L469.8,369.9L404.6,409.8Z" fill="#f59e0b" fill-opacity="0.15"/>
  <path d="M404.6,367.8L469.8,250.9L535.0,140.7L600.1,128.6" fill="none" stroke="#f59e0b" stroke-width="0.7" stroke-opacity="0.35"/>
  <path d="M404.6,367.4L469.8,253.7L535.0,143.1L600.1,129.9" fill="none" stroke="#f59e0b" stroke-width="0.7" stroke-opacity="0.35"/>
  <path d="M404.6,368.2L469.8,250.0L535.0,139.6L600.1,131.3" fill="none" stroke="#f59e0b" stroke-width="0.7" stroke-opacity="0.35"/>
  <path d="M404.6,368.7L469.8,252.0L535.0,148.1L600.1,136.3" fill="none" stroke="#f59e0b" stroke-width="0.7" stroke-opacity="0.35"/>
  <path d="M404.6,370.1L469.8,255.5L535.0,159.4L600.1,150.7" fill="none" stroke="#f59e0b" stroke-width="0.7" stroke-opacity="0.35"/>
  <path d="M404.6,371.4L469.8,259.1L535.0,170.3L600.1,175.3" fill="none" stroke="#f59e0b" stroke-width="0.7" stroke-opacity="0.35"/>
  <text x="606.1" y="178.3" text-anchor="start" fill="#f59e0b" font-size="7" font-weight="600" fill-opacity="0.5">L−1</text>
  <path d="M404.6,372.7L469.8,269.1L535.0,170.8L600.1,180.7" fill="none" stroke="#f59e0b" stroke-width="0.7" stroke-opacity="0.35"/>
  <path d="M404.6,374.9L469.8,272.2L535.0,180.2L600.1,175.9" fill="none" stroke="#f59e0b" stroke-width="0.7" stroke-opacity="0.35"/>
  <path d="M404.6,389.0L469.8,314.0L535.0,266.3L600.1,256.9" fill="none" stroke="#f59e0b" stroke-width="0.7" stroke-opacity="0.35"/>
  <path d="M404.6,367.4L469.8,250.0L535.0,128.5L600.1,107.2" fill="none" stroke="#f59e0b" stroke-width="1.5"/>
  <circle cx="404.6" cy="367.4" r="2.5" fill="#f59e0b" stroke="#0d1117" stroke-width="0.8"/>
  <circle cx="469.8" cy="250.0" r="2.5" fill="#f59e0b" stroke="#0d1117" stroke-width="0.8"/>
  <circle cx="535.0" cy="128.5" r="2.5" fill="#f59e0b" stroke="#0d1117" stroke-width="0.8"/>
  <circle cx="600.1" cy="107.2" r="2.5" fill="#f59e0b" stroke="#0d1117" stroke-width="0.8"/>
  <text x="606.1" y="110.2" text-anchor="start" fill="#f59e0b" font-size="7" font-weight="600">L−7</text>
  <path d="M404.6,409.8L469.8,369.9L535.0,266.7L600.1,264.3" fill="none" stroke="#f59e0b" stroke-width="1.5" stroke-dasharray="4,3"/>
  <circle cx="404.6" cy="409.8" r="2.5" fill="#f59e0b" stroke="#0d1117" stroke-width="0.8"/>
  <circle cx="469.8" cy="369.9" r="2.5" fill="#f59e0b" stroke="#0d1117" stroke-width="0.8"/>
  <circle cx="535.0" cy="266.7" r="2.5" fill="#f59e0b" stroke="#0d1117" stroke-width="0.8"/>
  <circle cx="600.1" cy="264.3" r="2.5" fill="#f59e0b" stroke="#0d1117" stroke-width="0.8"/>
  <text x="606.1" y="267.3" text-anchor="start" fill="#f59e0b" font-size="7" font-weight="600">L4</text>
  <rect x="690" y="55" width="230" height="400" fill="#161b22" rx="4"/>
  <text x="805.0" y="47" text-anchor="middle" fill="#e6edf3" font-size="12" font-weight="600">xml collection</text>
  <line x1="704.6" y1="55" x2="704.6" y2="455" stroke="#21262d" stroke-width="1"/>
  <text x="704.6" y="469" text-anchor="middle" fill="#7d8590" font-size="9">2K</text>
  <line x1="769.8" y1="55" x2="769.8" y2="455" stroke="#21262d" stroke-width="1"/>
  <text x="769.8" y="469" text-anchor="middle" fill="#7d8590" font-size="9">8K</text>
  <line x1="835.0" y1="55" x2="835.0" y2="455" stroke="#21262d" stroke-width="1"/>
  <text x="835.0" y="469" text-anchor="middle" fill="#7d8590" font-size="9">32K</text>
  <line x1="900.1" y1="55" x2="900.1" y2="455" stroke="#21262d" stroke-width="1"/>
  <text x="900.1" y="469" text-anchor="middle" fill="#7d8590" font-size="9">128K</text>
  <line x1="690" y1="395.9" x2="920" y2="395.9" stroke="#21262d" stroke-width="1"/>
  <text x="682" y="395.9" text-anchor="end" dominant-baseline="middle" fill="#7d8590" font-size="9">100</text>
  <line x1="690" y1="336.8" x2="920" y2="336.8" stroke="#21262d" stroke-width="1"/>
  <text x="682" y="336.8" text-anchor="end" dominant-baseline="middle" fill="#7d8590" font-size="9">200</text>
  <line x1="690" y1="277.7" x2="920" y2="277.7" stroke="#21262d" stroke-width="1"/>
  <text x="682" y="277.7" text-anchor="end" dominant-baseline="middle" fill="#7d8590" font-size="9">300</text>
  <line x1="690" y1="218.6" x2="920" y2="218.6" stroke="#21262d" stroke-width="1"/>
  <text x="682" y="218.6" text-anchor="end" dominant-baseline="middle" fill="#7d8590" font-size="9">400</text>
  <line x1="690" y1="159.5" x2="920" y2="159.5" stroke="#21262d" stroke-width="1"/>
  <text x="682" y="159.5" text-anchor="end" dominant-baseline="middle" fill="#7d8590" font-size="9">500</text>
  <line x1="690" y1="100.4" x2="920" y2="100.4" stroke="#21262d" stroke-width="1"/>
  <text x="682" y="100.4" text-anchor="end" dominant-baseline="middle" fill="#7d8590" font-size="9">600</text>
  <path d="M704.6,390.9L769.8,345.7L835.0,247.2L900.1,107.2L900.1,214.1L835.0,318.9L769.8,416.3L704.6,424.2Z" fill="#f59e0b" fill-opacity="0.15"/>
  <path d="M704.6,390.9L769.8,346.4L835.0,249.5L900.1,112.9" fill="none" stroke="#f59e0b" stroke-width="0.7" stroke-opacity="0.35"/>
  <path d="M704.6,398.1L769.8,347.1L835.0,255.2L900.1,113.4" fill="none" stroke="#f59e0b" stroke-width="0.7" stroke-opacity="0.35"/>
  <path d="M704.6,398.8L769.8,347.0L835.0,253.3L900.1,118.7" fill="none" stroke="#f59e0b" stroke-width="0.7" stroke-opacity="0.35"/>
  <path d="M704.6,400.1L769.8,349.2L835.0,259.1L900.1,115.2" fill="none" stroke="#f59e0b" stroke-width="0.7" stroke-opacity="0.35"/>
  <path d="M704.6,399.7L769.8,352.5L835.0,257.8L900.1,118.7" fill="none" stroke="#f59e0b" stroke-width="0.7" stroke-opacity="0.35"/>
  <path d="M704.6,400.5L769.8,355.0L835.0,262.9L900.1,124.8" fill="none" stroke="#f59e0b" stroke-width="0.7" stroke-opacity="0.35"/>
  <text x="906.1" y="127.8" text-anchor="start" fill="#f59e0b" font-size="7" font-weight="600" fill-opacity="0.5">L−1</text>
  <path d="M704.6,403.5L769.8,368.9L835.0,287.5L900.1,162.7" fill="none" stroke="#f59e0b" stroke-width="0.7" stroke-opacity="0.35"/>
  <path d="M704.6,405.9L769.8,374.5L835.0,298.8L900.1,180.6" fill="none" stroke="#f59e0b" stroke-width="0.7" stroke-opacity="0.35"/>
  <path d="M704.6,413.3L769.8,390.8L835.0,318.9L900.1,203.3" fill="none" stroke="#f59e0b" stroke-width="0.7" stroke-opacity="0.35"/>
  <path d="M704.6,390.9L769.8,345.7L835.0,247.2L900.1,107.2" fill="none" stroke="#f59e0b" stroke-width="1.5"/>
  <circle cx="704.6" cy="390.9" r="2.5" fill="#f59e0b" stroke="#0d1117" stroke-width="0.8"/>
  <circle cx="769.8" cy="345.7" r="2.5" fill="#f59e0b" stroke="#0d1117" stroke-width="0.8"/>
  <circle cx="835.0" cy="247.2" r="2.5" fill="#f59e0b" stroke="#0d1117" stroke-width="0.8"/>
  <circle cx="900.1" cy="107.2" r="2.5" fill="#f59e0b" stroke="#0d1117" stroke-width="0.8"/>
  <text x="906.1" y="110.2" text-anchor="start" fill="#f59e0b" font-size="7" font-weight="600">L−7</text>
  <path d="M704.6,424.2L769.8,416.3L835.0,318.9L900.1,214.1" fill="none" stroke="#f59e0b" stroke-width="1.5" stroke-dasharray="4,3"/>
  <circle cx="704.6" cy="424.2" r="2.5" fill="#f59e0b" stroke="#0d1117" stroke-width="0.8"/>
  <circle cx="769.8" cy="416.3" r="2.5" fill="#f59e0b" stroke="#0d1117" stroke-width="0.8"/>
  <circle cx="835.0" cy="318.9" r="2.5" fill="#f59e0b" stroke="#0d1117" stroke-width="0.8"/>
  <circle cx="900.1" cy="214.1" r="2.5" fill="#f59e0b" stroke="#0d1117" stroke-width="0.8"/>
  <text x="906.1" y="217.1" text-anchor="start" fill="#f59e0b" font-size="7" font-weight="600">L4</text>
  <text x="20" y="255.0" text-anchor="middle" fill="#e6edf3" font-size="11" font-weight="600" transform="rotate(-90,20,255.0)">encode MB/s</text>
  <circle cx="96" cy="495" r="4" fill="#60a5fa"/>
  <text x="104" y="498.5" fill="#e6edf3" font-size="10" font-weight="500">C zstd (libzstd)</text>
  <circle cx="231" cy="495" r="4" fill="#f87171"/>
  <text x="239" y="498.5" fill="#e6edf3" font-size="10" font-weight="500">zrip (Rust)</text>
  <circle cx="335" cy="495" r="4" fill="#f59e0b"/>
  <text x="343" y="498.5" fill="#e6edf3" font-size="10" font-weight="500">structured-zstd 0.0.45 (Rust)</text>
  <rect x="546" y="490" width="14" height="10" fill="#7d8590" fill-opacity="0.25" rx="2"/>
  <text x="564" y="498.5" fill="#7d8590" font-size="10">L−7..L4 range</text>
  <line x1="663" y1="495" x2="677" y2="495" stroke="#7d8590" stroke-width="1.5"/>
  <text x="681" y="498.5" fill="#7d8590" font-size="10">solid = L−7</text>
  <line x1="767" y1="495" x2="781" y2="495" stroke="#7d8590" stroke-width="1.5" stroke-dasharray='4,3'/>
  <text x="785" y="498.5" fill="#7d8590" font-size="10">dashed = L4</text>
</svg>
