<svg xmlns="http://www.w3.org/2000/svg" viewBox="0 0 830 1135" font-family="system-ui, -apple-system, sans-serif">
  <rect width="830" height="1135" fill="#0d1117"/>
  <text x="415.0" y="18" text-anchor="middle" fill="#e6edf3" font-size="14" font-weight="700">Decode Throughput vs Input Size (C zstd L3 bitstream)</text>
  <text x="415.0" y="34" text-anchor="middle" fill="#7d8590" font-size="10">Intel Core i7-8700B @ 3.20GHz, performance governor, turbo off</text>
  <rect x="90" y="55" width="700" height="220" fill="#161b22" rx="4"/>
  <text x="440.0" y="47" text-anchor="middle" fill="#e6edf3" font-size="12" font-weight="600">dickens</text>
  <line x1="117.8" y1="55" x2="117.8" y2="275" stroke="#21262d" stroke-width="1"/>
  <text x="117.8" y="289" text-anchor="middle" fill="#7d8590" font-size="9">512</text>
  <line x1="195.9" y1="55" x2="195.9" y2="275" stroke="#21262d" stroke-width="1"/>
  <text x="195.9" y="289" text-anchor="middle" fill="#7d8590" font-size="9">1K</text>
  <line x1="274.0" y1="55" x2="274.0" y2="275" stroke="#21262d" stroke-width="1"/>
  <text x="274.0" y="289" text-anchor="middle" fill="#7d8590" font-size="9">2K</text>
  <line x1="352.0" y1="55" x2="352.0" y2="275" stroke="#21262d" stroke-width="1"/>
  <text x="352.0" y="289" text-anchor="middle" fill="#7d8590" font-size="9">4K</text>
  <line x1="430.1" y1="55" x2="430.1" y2="275" stroke="#21262d" stroke-width="1"/>
  <text x="430.1" y="289" text-anchor="middle" fill="#7d8590" font-size="9">8K</text>
  <line x1="508.2" y1="55" x2="508.2" y2="275" stroke="#21262d" stroke-width="1"/>
  <text x="508.2" y="289" text-anchor="middle" fill="#7d8590" font-size="9">16K</text>
  <line x1="586.3" y1="55" x2="586.3" y2="275" stroke="#21262d" stroke-width="1"/>
  <text x="586.3" y="289" text-anchor="middle" fill="#7d8590" font-size="9">32K</text>
  <line x1="664.3" y1="55" x2="664.3" y2="275" stroke="#21262d" stroke-width="1"/>
  <text x="664.3" y="289" text-anchor="middle" fill="#7d8590" font-size="9">64K</text>
  <line x1="742.4" y1="55" x2="742.4" y2="275" stroke="#21262d" stroke-width="1"/>
  <text x="742.4" y="289" text-anchor="middle" fill="#7d8590" font-size="9">128K</text>
  <line x1="90" y1="226.4" x2="790" y2="226.4" stroke="#21262d" stroke-width="1"/>
  <text x="82" y="226.4" text-anchor="end" dominant-baseline="middle" fill="#7d8590" font-size="9">200</text>
  <line x1="90" y1="177.9" x2="790" y2="177.9" stroke="#21262d" stroke-width="1"/>
  <text x="82" y="177.9" text-anchor="end" dominant-baseline="middle" fill="#7d8590" font-size="9">400</text>
  <line x1="90" y1="129.3" x2="790" y2="129.3" stroke="#21262d" stroke-width="1"/>
  <text x="82" y="129.3" text-anchor="end" dominant-baseline="middle" fill="#7d8590" font-size="9">600</text>
  <line x1="90" y1="80.7" x2="790" y2="80.7" stroke="#21262d" stroke-width="1"/>
  <text x="82" y="80.7" text-anchor="end" dominant-baseline="middle" fill="#7d8590" font-size="9">800</text>
  <path d="M117.8,228.2L195.9,200.9L274.0,186.9L352.0,159.0L430.1,140.2L508.2,132.3L586.3,104.4L664.3,90.2L742.4,83.7" fill="none" stroke="#60a5fa" stroke-width="1.8"/>
  <circle cx="117.8" cy="228.2" r="2.5" fill="#60a5fa" stroke="#0d1117" stroke-width="0.8"/>
  <circle cx="195.9" cy="200.9" r="2.5" fill="#60a5fa" stroke="#0d1117" stroke-width="0.8"/>
  <circle cx="274.0" cy="186.9" r="2.5" fill="#60a5fa" stroke="#0d1117" stroke-width="0.8"/>
  <circle cx="352.0" cy="159.0" r="2.5" fill="#60a5fa" stroke="#0d1117" stroke-width="0.8"/>
  <circle cx="430.1" cy="140.2" r="2.5" fill="#60a5fa" stroke="#0d1117" stroke-width="0.8"/>
  <circle cx="508.2" cy="132.3" r="2.5" fill="#60a5fa" stroke="#0d1117" stroke-width="0.8"/>
  <circle cx="586.3" cy="104.4" r="2.5" fill="#60a5fa" stroke="#0d1117" stroke-width="0.8"/>
  <circle cx="664.3" cy="90.2" r="2.5" fill="#60a5fa" stroke="#0d1117" stroke-width="0.8"/>
  <circle cx="742.4" cy="83.7" r="2.5" fill="#60a5fa" stroke="#0d1117" stroke-width="0.8"/>
  <path d="M117.8,220.3L195.9,196.7L274.0,184.4L352.0,175.0L430.1,166.8L508.2,166.1L586.3,159.2L664.3,180.0L742.4,177.1" fill="none" stroke="#f87171" stroke-width="1.8"/>
  <circle cx="117.8" cy="220.3" r="2.5" fill="#f87171" stroke="#0d1117" stroke-width="0.8"/>
  <circle cx="195.9" cy="196.7" r="2.5" fill="#f87171" stroke="#0d1117" stroke-width="0.8"/>
  <circle cx="274.0" cy="184.4" r="2.5" fill="#f87171" stroke="#0d1117" stroke-width="0.8"/>
  <circle cx="352.0" cy="175.0" r="2.5" fill="#f87171" stroke="#0d1117" stroke-width="0.8"/>
  <circle cx="430.1" cy="166.8" r="2.5" fill="#f87171" stroke="#0d1117" stroke-width="0.8"/>
  <circle cx="508.2" cy="166.1" r="2.5" fill="#f87171" stroke="#0d1117" stroke-width="0.8"/>
  <circle cx="586.3" cy="159.2" r="2.5" fill="#f87171" stroke="#0d1117" stroke-width="0.8"/>
  <circle cx="664.3" cy="180.0" r="2.5" fill="#f87171" stroke="#0d1117" stroke-width="0.8"/>
  <circle cx="742.4" cy="177.1" r="2.5" fill="#f87171" stroke="#0d1117" stroke-width="0.8"/>
  <path d="M117.8,223.3L195.9,204.0L274.0,196.0L352.0,191.7L430.1,188.0L508.2,194.5L586.3,196.4L664.3,203.4L742.4,202.4" fill="none" stroke="#f472b6" stroke-width="1.8"/>
  <circle cx="117.8" cy="223.3" r="2.5" fill="#f472b6" stroke="#0d1117" stroke-width="0.8"/>
  <circle cx="195.9" cy="204.0" r="2.5" fill="#f472b6" stroke="#0d1117" stroke-width="0.8"/>
  <circle cx="274.0" cy="196.0" r="2.5" fill="#f472b6" stroke="#0d1117" stroke-width="0.8"/>
  <circle cx="352.0" cy="191.7" r="2.5" fill="#f472b6" stroke="#0d1117" stroke-width="0.8"/>
  <circle cx="430.1" cy="188.0" r="2.5" fill="#f472b6" stroke="#0d1117" stroke-width="0.8"/>
  <circle cx="508.2" cy="194.5" r="2.5" fill="#f472b6" stroke="#0d1117" stroke-width="0.8"/>
  <circle cx="586.3" cy="196.4" r="2.5" fill="#f472b6" stroke="#0d1117" stroke-width="0.8"/>
  <circle cx="664.3" cy="203.4" r="2.5" fill="#f472b6" stroke="#0d1117" stroke-width="0.8"/>
  <circle cx="742.4" cy="202.4" r="2.5" fill="#f472b6" stroke="#0d1117" stroke-width="0.8"/>
  <path d="M117.8,249.9L195.9,233.0L274.0,226.0L352.0,207.6L430.1,195.1L508.2,193.0L586.3,174.3L664.3,168.7L742.4,164.9" fill="none" stroke="#f59e0b" stroke-width="1.8"/>
  <circle cx="117.8" cy="249.9" r="2.5" fill="#f59e0b" stroke="#0d1117" stroke-width="0.8"/>
  <circle cx="195.9" cy="233.0" r="2.5" fill="#f59e0b" stroke="#0d1117" stroke-width="0.8"/>
  <circle cx="274.0" cy="226.0" r="2.5" fill="#f59e0b" stroke="#0d1117" stroke-width="0.8"/>
  <circle cx="352.0" cy="207.6" r="2.5" fill="#f59e0b" stroke="#0d1117" stroke-width="0.8"/>
  <circle cx="430.1" cy="195.1" r="2.5" fill="#f59e0b" stroke="#0d1117" stroke-width="0.8"/>
  <circle cx="508.2" cy="193.0" r="2.5" fill="#f59e0b" stroke="#0d1117" stroke-width="0.8"/>
  <circle cx="586.3" cy="174.3" r="2.5" fill="#f59e0b" stroke="#0d1117" stroke-width="0.8"/>
  <circle cx="664.3" cy="168.7" r="2.5" fill="#f59e0b" stroke="#0d1117" stroke-width="0.8"/>
  <circle cx="742.4" cy="164.9" r="2.5" fill="#f59e0b" stroke="#0d1117" stroke-width="0.8"/>
  <path d="M117.8,259.5L195.9,252.5L274.0,249.7L352.0,246.7L430.1,245.1L508.2,246.2L586.3,241.9L664.3,240.9L742.4,239.6" fill="none" stroke="#4ade80" stroke-width="1.8"/>
  <circle cx="117.8" cy="259.5" r="2.5" fill="#4ade80" stroke="#0d1117" stroke-width="0.8"/>
  <circle cx="195.9" cy="252.5" r="2.5" fill="#4ade80" stroke="#0d1117" stroke-width="0.8"/>
  <circle cx="274.0" cy="249.7" r="2.5" fill="#4ade80" stroke="#0d1117" stroke-width="0.8"/>
  <circle cx="352.0" cy="246.7" r="2.5" fill="#4ade80" stroke="#0d1117" stroke-width="0.8"/>
  <circle cx="430.1" cy="245.1" r="2.5" fill="#4ade80" stroke="#0d1117" stroke-width="0.8"/>
  <circle cx="508.2" cy="246.2" r="2.5" fill="#4ade80" stroke="#0d1117" stroke-width="0.8"/>
  <circle cx="586.3" cy="241.9" r="2.5" fill="#4ade80" stroke="#0d1117" stroke-width="0.8"/>
  <circle cx="664.3" cy="240.9" r="2.5" fill="#4ade80" stroke="#0d1117" stroke-width="0.8"/>
  <circle cx="742.4" cy="239.6" r="2.5" fill="#4ade80" stroke="#0d1117" stroke-width="0.8"/>
  <rect x="90" y="325" width="700" height="220" fill="#161b22" rx="4"/>
  <text x="440.0" y="317" text-anchor="middle" fill="#e6edf3" font-size="12" font-weight="600">hdfs</text>
  <line x1="117.8" y1="325" x2="117.8" y2="545" stroke="#21262d" stroke-width="1"/>
  <text x="117.8" y="559" text-anchor="middle" fill="#7d8590" font-size="9">512</text>
  <line x1="195.9" y1="325" x2="195.9" y2="545" stroke="#21262d" stroke-width="1"/>
  <text x="195.9" y="559" text-anchor="middle" fill="#7d8590" font-size="9">1K</text>
  <line x1="274.0" y1="325" x2="274.0" y2="545" stroke="#21262d" stroke-width="1"/>
  <text x="274.0" y="559" text-anchor="middle" fill="#7d8590" font-size="9">2K</text>
  <line x1="352.0" y1="325" x2="352.0" y2="545" stroke="#21262d" stroke-width="1"/>
  <text x="352.0" y="559" text-anchor="middle" fill="#7d8590" font-size="9">4K</text>
  <line x1="430.1" y1="325" x2="430.1" y2="545" stroke="#21262d" stroke-width="1"/>
  <text x="430.1" y="559" text-anchor="middle" fill="#7d8590" font-size="9">8K</text>
  <line x1="508.2" y1="325" x2="508.2" y2="545" stroke="#21262d" stroke-width="1"/>
  <text x="508.2" y="559" text-anchor="middle" fill="#7d8590" font-size="9">16K</text>
  <line x1="586.3" y1="325" x2="586.3" y2="545" stroke="#21262d" stroke-width="1"/>
  <text x="586.3" y="559" text-anchor="middle" fill="#7d8590" font-size="9">32K</text>
  <line x1="664.3" y1="325" x2="664.3" y2="545" stroke="#21262d" stroke-width="1"/>
  <text x="664.3" y="559" text-anchor="middle" fill="#7d8590" font-size="9">64K</text>
  <line x1="742.4" y1="325" x2="742.4" y2="545" stroke="#21262d" stroke-width="1"/>
  <text x="742.4" y="559" text-anchor="middle" fill="#7d8590" font-size="9">128K</text>
  <line x1="90" y1="512.0" x2="790" y2="512.0" stroke="#21262d" stroke-width="1"/>
  <text x="82" y="512.0" text-anchor="end" dominant-baseline="middle" fill="#7d8590" font-size="9">500</text>
  <line x1="90" y1="479.0" x2="790" y2="479.0" stroke="#21262d" stroke-width="1"/>
  <text x="82" y="479.0" text-anchor="end" dominant-baseline="middle" fill="#7d8590" font-size="9">1000</text>
  <line x1="90" y1="446.0" x2="790" y2="446.0" stroke="#21262d" stroke-width="1"/>
  <text x="82" y="446.0" text-anchor="end" dominant-baseline="middle" fill="#7d8590" font-size="9">1500</text>
  <line x1="90" y1="413.0" x2="790" y2="413.0" stroke="#21262d" stroke-width="1"/>
  <text x="82" y="413.0" text-anchor="end" dominant-baseline="middle" fill="#7d8590" font-size="9">2000</text>
  <line x1="90" y1="380.0" x2="790" y2="380.0" stroke="#21262d" stroke-width="1"/>
  <text x="82" y="380.0" text-anchor="end" dominant-baseline="middle" fill="#7d8590" font-size="9">2500</text>
  <line x1="90" y1="347.0" x2="790" y2="347.0" stroke="#21262d" stroke-width="1"/>
  <text x="82" y="347.0" text-anchor="end" dominant-baseline="middle" fill="#7d8590" font-size="9">3000</text>
  <path d="M117.8,531.8L195.9,520.0L274.0,501.3L352.0,486.6L430.1,449.7L508.2,404.5L586.3,364.3L664.3,353.7L742.4,371.7" fill="none" stroke="#60a5fa" stroke-width="1.8"/>
  <circle cx="117.8" cy="531.8" r="2.5" fill="#60a5fa" stroke="#0d1117" stroke-width="0.8"/>
  <circle cx="195.9" cy="520.0" r="2.5" fill="#60a5fa" stroke="#0d1117" stroke-width="0.8"/>
  <circle cx="274.0" cy="501.3" r="2.5" fill="#60a5fa" stroke="#0d1117" stroke-width="0.8"/>
  <circle cx="352.0" cy="486.6" r="2.5" fill="#60a5fa" stroke="#0d1117" stroke-width="0.8"/>
  <circle cx="430.1" cy="449.7" r="2.5" fill="#60a5fa" stroke="#0d1117" stroke-width="0.8"/>
  <circle cx="508.2" cy="404.5" r="2.5" fill="#60a5fa" stroke="#0d1117" stroke-width="0.8"/>
  <circle cx="586.3" cy="364.3" r="2.5" fill="#60a5fa" stroke="#0d1117" stroke-width="0.8"/>
  <circle cx="664.3" cy="353.7" r="2.5" fill="#60a5fa" stroke="#0d1117" stroke-width="0.8"/>
  <circle cx="742.4" cy="371.7" r="2.5" fill="#60a5fa" stroke="#0d1117" stroke-width="0.8"/>
  <path d="M117.8,528.2L195.9,516.0L274.0,496.3L352.0,472.7L430.1,446.6L508.2,419.9L586.3,401.7L664.3,393.0L742.4,405.1" fill="none" stroke="#f87171" stroke-width="1.8"/>
  <circle cx="117.8" cy="528.2" r="2.5" fill="#f87171" stroke="#0d1117" stroke-width="0.8"/>
  <circle cx="195.9" cy="516.0" r="2.5" fill="#f87171" stroke="#0d1117" stroke-width="0.8"/>
  <circle cx="274.0" cy="496.3" r="2.5" fill="#f87171" stroke="#0d1117" stroke-width="0.8"/>
  <circle cx="352.0" cy="472.7" r="2.5" fill="#f87171" stroke="#0d1117" stroke-width="0.8"/>
  <circle cx="430.1" cy="446.6" r="2.5" fill="#f87171" stroke="#0d1117" stroke-width="0.8"/>
  <circle cx="508.2" cy="419.9" r="2.5" fill="#f87171" stroke="#0d1117" stroke-width="0.8"/>
  <circle cx="586.3" cy="401.7" r="2.5" fill="#f87171" stroke="#0d1117" stroke-width="0.8"/>
  <circle cx="664.3" cy="393.0" r="2.5" fill="#f87171" stroke="#0d1117" stroke-width="0.8"/>
  <circle cx="742.4" cy="405.1" r="2.5" fill="#f87171" stroke="#0d1117" stroke-width="0.8"/>
  <path d="M117.8,529.1L195.9,517.7L274.0,499.3L352.0,478.5L430.1,454.0L508.2,432.4L586.3,417.7L664.3,411.8L742.4,426.9" fill="none" stroke="#f472b6" stroke-width="1.8"/>
  <circle cx="117.8" cy="529.1" r="2.5" fill="#f472b6" stroke="#0d1117" stroke-width="0.8"/>
  <circle cx="195.9" cy="517.7" r="2.5" fill="#f472b6" stroke="#0d1117" stroke-width="0.8"/>
  <circle cx="274.0" cy="499.3" r="2.5" fill="#f472b6" stroke="#0d1117" stroke-width="0.8"/>
  <circle cx="352.0" cy="478.5" r="2.5" fill="#f472b6" stroke="#0d1117" stroke-width="0.8"/>
  <circle cx="430.1" cy="454.0" r="2.5" fill="#f472b6" stroke="#0d1117" stroke-width="0.8"/>
  <circle cx="508.2" cy="432.4" r="2.5" fill="#f472b6" stroke="#0d1117" stroke-width="0.8"/>
  <circle cx="586.3" cy="417.7" r="2.5" fill="#f472b6" stroke="#0d1117" stroke-width="0.8"/>
  <circle cx="664.3" cy="411.8" r="2.5" fill="#f472b6" stroke="#0d1117" stroke-width="0.8"/>
  <circle cx="742.4" cy="426.9" r="2.5" fill="#f472b6" stroke="#0d1117" stroke-width="0.8"/>
  <path d="M117.8,537.8L195.9,531.2L274.0,521.0L352.0,513.1L430.1,490.5L508.2,464.1L586.3,439.1L664.3,433.6L742.4,435.6" fill="none" stroke="#f59e0b" stroke-width="1.8"/>
  <circle cx="117.8" cy="537.8" r="2.5" fill="#f59e0b" stroke="#0d1117" stroke-width="0.8"/>
  <circle cx="195.9" cy="531.2" r="2.5" fill="#f59e0b" stroke="#0d1117" stroke-width="0.8"/>
  <circle cx="274.0" cy="521.0" r="2.5" fill="#f59e0b" stroke="#0d1117" stroke-width="0.8"/>
  <circle cx="352.0" cy="513.1" r="2.5" fill="#f59e0b" stroke="#0d1117" stroke-width="0.8"/>
  <circle cx="430.1" cy="490.5" r="2.5" fill="#f59e0b" stroke="#0d1117" stroke-width="0.8"/>
  <circle cx="508.2" cy="464.1" r="2.5" fill="#f59e0b" stroke="#0d1117" stroke-width="0.8"/>
  <circle cx="586.3" cy="439.1" r="2.5" fill="#f59e0b" stroke="#0d1117" stroke-width="0.8"/>
  <circle cx="664.3" cy="433.6" r="2.5" fill="#f59e0b" stroke="#0d1117" stroke-width="0.8"/>
  <circle cx="742.4" cy="435.6" r="2.5" fill="#f59e0b" stroke="#0d1117" stroke-width="0.8"/>
  <path d="M117.8,540.6L195.9,537.1L274.0,531.3L352.0,525.6L430.1,517.4L508.2,509.8L586.3,505.9L664.3,506.9L742.4,506.7" fill="none" stroke="#4ade80" stroke-width="1.8"/>
  <circle cx="117.8" cy="540.6" r="2.5" fill="#4ade80" stroke="#0d1117" stroke-width="0.8"/>
  <circle cx="195.9" cy="537.1" r="2.5" fill="#4ade80" stroke="#0d1117" stroke-width="0.8"/>
  <circle cx="274.0" cy="531.3" r="2.5" fill="#4ade80" stroke="#0d1117" stroke-width="0.8"/>
  <circle cx="352.0" cy="525.6" r="2.5" fill="#4ade80" stroke="#0d1117" stroke-width="0.8"/>
  <circle cx="430.1" cy="517.4" r="2.5" fill="#4ade80" stroke="#0d1117" stroke-width="0.8"/>
  <circle cx="508.2" cy="509.8" r="2.5" fill="#4ade80" stroke="#0d1117" stroke-width="0.8"/>
  <circle cx="586.3" cy="505.9" r="2.5" fill="#4ade80" stroke="#0d1117" stroke-width="0.8"/>
  <circle cx="664.3" cy="506.9" r="2.5" fill="#4ade80" stroke="#0d1117" stroke-width="0.8"/>
  <circle cx="742.4" cy="506.7" r="2.5" fill="#4ade80" stroke="#0d1117" stroke-width="0.8"/>
  <rect x="90" y="595" width="700" height="220" fill="#161b22" rx="4"/>
  <text x="440.0" y="587" text-anchor="middle" fill="#e6edf3" font-size="12" font-weight="600">xml collection</text>
  <line x1="117.8" y1="595" x2="117.8" y2="815" stroke="#21262d" stroke-width="1"/>
  <text x="117.8" y="829" text-anchor="middle" fill="#7d8590" font-size="9">512</text>
  <line x1="195.9" y1="595" x2="195.9" y2="815" stroke="#21262d" stroke-width="1"/>
  <text x="195.9" y="829" text-anchor="middle" fill="#7d8590" font-size="9">1K</text>
  <line x1="274.0" y1="595" x2="274.0" y2="815" stroke="#21262d" stroke-width="1"/>
  <text x="274.0" y="829" text-anchor="middle" fill="#7d8590" font-size="9">2K</text>
  <line x1="352.0" y1="595" x2="352.0" y2="815" stroke="#21262d" stroke-width="1"/>
  <text x="352.0" y="829" text-anchor="middle" fill="#7d8590" font-size="9">4K</text>
  <line x1="430.1" y1="595" x2="430.1" y2="815" stroke="#21262d" stroke-width="1"/>
  <text x="430.1" y="829" text-anchor="middle" fill="#7d8590" font-size="9">8K</text>
  <line x1="508.2" y1="595" x2="508.2" y2="815" stroke="#21262d" stroke-width="1"/>
  <text x="508.2" y="829" text-anchor="middle" fill="#7d8590" font-size="9">16K</text>
  <line x1="586.3" y1="595" x2="586.3" y2="815" stroke="#21262d" stroke-width="1"/>
  <text x="586.3" y="829" text-anchor="middle" fill="#7d8590" font-size="9">32K</text>
  <line x1="664.3" y1="595" x2="664.3" y2="815" stroke="#21262d" stroke-width="1"/>
  <text x="664.3" y="829" text-anchor="middle" fill="#7d8590" font-size="9">64K</text>
  <line x1="742.4" y1="595" x2="742.4" y2="815" stroke="#21262d" stroke-width="1"/>
  <text x="742.4" y="829" text-anchor="middle" fill="#7d8590" font-size="9">128K</text>
  <line x1="90" y1="756.2" x2="790" y2="756.2" stroke="#21262d" stroke-width="1"/>
  <text x="82" y="756.2" text-anchor="end" dominant-baseline="middle" fill="#7d8590" font-size="9">1000</text>
  <line x1="90" y1="697.4" x2="790" y2="697.4" stroke="#21262d" stroke-width="1"/>
  <text x="82" y="697.4" text-anchor="end" dominant-baseline="middle" fill="#7d8590" font-size="9">2000</text>
  <line x1="90" y1="638.6" x2="790" y2="638.6" stroke="#21262d" stroke-width="1"/>
  <text x="82" y="638.6" text-anchor="end" dominant-baseline="middle" fill="#7d8590" font-size="9">3000</text>
  <path d="M117.8,805.8L195.9,800.2L274.0,791.7L352.0,780.1L430.1,770.1L508.2,745.0L586.3,704.1L664.3,655.2L742.4,623.7" fill="none" stroke="#60a5fa" stroke-width="1.8"/>
  <circle cx="117.8" cy="805.8" r="2.5" fill="#60a5fa" stroke="#0d1117" stroke-width="0.8"/>
  <circle cx="195.9" cy="800.2" r="2.5" fill="#60a5fa" stroke="#0d1117" stroke-width="0.8"/>
  <circle cx="274.0" cy="791.7" r="2.5" fill="#60a5fa" stroke="#0d1117" stroke-width="0.8"/>
  <circle cx="352.0" cy="780.1" r="2.5" fill="#60a5fa" stroke="#0d1117" stroke-width="0.8"/>
  <circle cx="430.1" cy="770.1" r="2.5" fill="#60a5fa" stroke="#0d1117" stroke-width="0.8"/>
  <circle cx="508.2" cy="745.0" r="2.5" fill="#60a5fa" stroke="#0d1117" stroke-width="0.8"/>
  <circle cx="586.3" cy="704.1" r="2.5" fill="#60a5fa" stroke="#0d1117" stroke-width="0.8"/>
  <circle cx="664.3" cy="655.2" r="2.5" fill="#60a5fa" stroke="#0d1117" stroke-width="0.8"/>
  <circle cx="742.4" cy="623.7" r="2.5" fill="#60a5fa" stroke="#0d1117" stroke-width="0.8"/>
  <path d="M117.8,802.7L195.9,795.7L274.0,788.2L352.0,780.4L430.1,775.2L508.2,756.4L586.3,719.4L664.3,680.0L742.4,642.9" fill="none" stroke="#f87171" stroke-width="1.8"/>
  <circle cx="117.8" cy="802.7" r="2.5" fill="#f87171" stroke="#0d1117" stroke-width="0.8"/>
  <circle cx="195.9" cy="795.7" r="2.5" fill="#f87171" stroke="#0d1117" stroke-width="0.8"/>
  <circle cx="274.0" cy="788.2" r="2.5" fill="#f87171" stroke="#0d1117" stroke-width="0.8"/>
  <circle cx="352.0" cy="780.4" r="2.5" fill="#f87171" stroke="#0d1117" stroke-width="0.8"/>
  <circle cx="430.1" cy="775.2" r="2.5" fill="#f87171" stroke="#0d1117" stroke-width="0.8"/>
  <circle cx="508.2" cy="756.4" r="2.5" fill="#f87171" stroke="#0d1117" stroke-width="0.8"/>
  <circle cx="586.3" cy="719.4" r="2.5" fill="#f87171" stroke="#0d1117" stroke-width="0.8"/>
  <circle cx="664.3" cy="680.0" r="2.5" fill="#f87171" stroke="#0d1117" stroke-width="0.8"/>
  <circle cx="742.4" cy="642.9" r="2.5" fill="#f87171" stroke="#0d1117" stroke-width="0.8"/>
  <path d="M117.8,803.5L195.9,797.7L274.0,791.3L352.0,785.3L430.1,781.3L508.2,765.2L586.3,733.3L664.3,698.7L742.4,674.8" fill="none" stroke="#f472b6" stroke-width="1.8"/>
  <circle cx="117.8" cy="803.5" r="2.5" fill="#f472b6" stroke="#0d1117" stroke-width="0.8"/>
  <circle cx="195.9" cy="797.7" r="2.5" fill="#f472b6" stroke="#0d1117" stroke-width="0.8"/>
  <circle cx="274.0" cy="791.3" r="2.5" fill="#f472b6" stroke="#0d1117" stroke-width="0.8"/>
  <circle cx="352.0" cy="785.3" r="2.5" fill="#f472b6" stroke="#0d1117" stroke-width="0.8"/>
  <circle cx="430.1" cy="781.3" r="2.5" fill="#f472b6" stroke="#0d1117" stroke-width="0.8"/>
  <circle cx="508.2" cy="765.2" r="2.5" fill="#f472b6" stroke="#0d1117" stroke-width="0.8"/>
  <circle cx="586.3" cy="733.3" r="2.5" fill="#f472b6" stroke="#0d1117" stroke-width="0.8"/>
  <circle cx="664.3" cy="698.7" r="2.5" fill="#f472b6" stroke="#0d1117" stroke-width="0.8"/>
  <circle cx="742.4" cy="674.8" r="2.5" fill="#f472b6" stroke="#0d1117" stroke-width="0.8"/>
  <path d="M117.8,809.8L195.9,806.8L274.0,801.9L352.0,795.2L430.1,789.3L508.2,774.4L586.3,750.5L664.3,720.3L742.4,694.1" fill="none" stroke="#f59e0b" stroke-width="1.8"/>
  <circle cx="117.8" cy="809.8" r="2.5" fill="#f59e0b" stroke="#0d1117" stroke-width="0.8"/>
  <circle cx="195.9" cy="806.8" r="2.5" fill="#f59e0b" stroke="#0d1117" stroke-width="0.8"/>
  <circle cx="274.0" cy="801.9" r="2.5" fill="#f59e0b" stroke="#0d1117" stroke-width="0.8"/>
  <circle cx="352.0" cy="795.2" r="2.5" fill="#f59e0b" stroke="#0d1117" stroke-width="0.8"/>
  <circle cx="430.1" cy="789.3" r="2.5" fill="#f59e0b" stroke="#0d1117" stroke-width="0.8"/>
  <circle cx="508.2" cy="774.4" r="2.5" fill="#f59e0b" stroke="#0d1117" stroke-width="0.8"/>
  <circle cx="586.3" cy="750.5" r="2.5" fill="#f59e0b" stroke="#0d1117" stroke-width="0.8"/>
  <circle cx="664.3" cy="720.3" r="2.5" fill="#f59e0b" stroke="#0d1117" stroke-width="0.8"/>
  <circle cx="742.4" cy="694.1" r="2.5" fill="#f59e0b" stroke="#0d1117" stroke-width="0.8"/>
  <path d="M117.8,811.4L195.9,809.6L274.0,807.5L352.0,805.3L430.1,803.9L508.2,799.2L586.3,791.4L664.3,783.4L742.4,774.7" fill="none" stroke="#4ade80" stroke-width="1.8"/>
  <circle cx="117.8" cy="811.4" r="2.5" fill="#4ade80" stroke="#0d1117" stroke-width="0.8"/>
  <circle cx="195.9" cy="809.6" r="2.5" fill="#4ade80" stroke="#0d1117" stroke-width="0.8"/>
  <circle cx="274.0" cy="807.5" r="2.5" fill="#4ade80" stroke="#0d1117" stroke-width="0.8"/>
  <circle cx="352.0" cy="805.3" r="2.5" fill="#4ade80" stroke="#0d1117" stroke-width="0.8"/>
  <circle cx="430.1" cy="803.9" r="2.5" fill="#4ade80" stroke="#0d1117" stroke-width="0.8"/>
  <circle cx="508.2" cy="799.2" r="2.5" fill="#4ade80" stroke="#0d1117" stroke-width="0.8"/>
  <circle cx="586.3" cy="791.4" r="2.5" fill="#4ade80" stroke="#0d1117" stroke-width="0.8"/>
  <circle cx="664.3" cy="783.4" r="2.5" fill="#4ade80" stroke="#0d1117" stroke-width="0.8"/>
  <circle cx="742.4" cy="774.7" r="2.5" fill="#4ade80" stroke="#0d1117" stroke-width="0.8"/>
  <rect x="90" y="865" width="700" height="220" fill="#161b22" rx="4"/>
  <text x="440.0" y="857" text-anchor="middle" fill="#e6edf3" font-size="12" font-weight="600">x-ray</text>
  <line x1="117.8" y1="865" x2="117.8" y2="1085" stroke="#21262d" stroke-width="1"/>
  <text x="117.8" y="1099" text-anchor="middle" fill="#7d8590" font-size="9">512</text>
  <line x1="195.9" y1="865" x2="195.9" y2="1085" stroke="#21262d" stroke-width="1"/>
  <text x="195.9" y="1099" text-anchor="middle" fill="#7d8590" font-size="9">1K</text>
  <line x1="274.0" y1="865" x2="274.0" y2="1085" stroke="#21262d" stroke-width="1"/>
  <text x="274.0" y="1099" text-anchor="middle" fill="#7d8590" font-size="9">2K</text>
  <line x1="352.0" y1="865" x2="352.0" y2="1085" stroke="#21262d" stroke-width="1"/>
  <text x="352.0" y="1099" text-anchor="middle" fill="#7d8590" font-size="9">4K</text>
  <line x1="430.1" y1="865" x2="430.1" y2="1085" stroke="#21262d" stroke-width="1"/>
  <text x="430.1" y="1099" text-anchor="middle" fill="#7d8590" font-size="9">8K</text>
  <line x1="508.2" y1="865" x2="508.2" y2="1085" stroke="#21262d" stroke-width="1"/>
  <text x="508.2" y="1099" text-anchor="middle" fill="#7d8590" font-size="9">16K</text>
  <line x1="586.3" y1="865" x2="586.3" y2="1085" stroke="#21262d" stroke-width="1"/>
  <text x="586.3" y="1099" text-anchor="middle" fill="#7d8590" font-size="9">32K</text>
  <line x1="664.3" y1="865" x2="664.3" y2="1085" stroke="#21262d" stroke-width="1"/>
  <text x="664.3" y="1099" text-anchor="middle" fill="#7d8590" font-size="9">64K</text>
  <line x1="742.4" y1="865" x2="742.4" y2="1085" stroke="#21262d" stroke-width="1"/>
  <text x="742.4" y="1099" text-anchor="middle" fill="#7d8590" font-size="9">128K</text>
  <line x1="90" y1="1045.2" x2="790" y2="1045.2" stroke="#21262d" stroke-width="1"/>
  <text x="82" y="1045.2" text-anchor="end" dominant-baseline="middle" fill="#7d8590" font-size="9">200</text>
  <line x1="90" y1="1005.4" x2="790" y2="1005.4" stroke="#21262d" stroke-width="1"/>
  <text x="82" y="1005.4" text-anchor="end" dominant-baseline="middle" fill="#7d8590" font-size="9">400</text>
  <line x1="90" y1="965.7" x2="790" y2="965.7" stroke="#21262d" stroke-width="1"/>
  <text x="82" y="965.7" text-anchor="end" dominant-baseline="middle" fill="#7d8590" font-size="9">600</text>
  <line x1="90" y1="925.9" x2="790" y2="925.9" stroke="#21262d" stroke-width="1"/>
  <text x="82" y="925.9" text-anchor="end" dominant-baseline="middle" fill="#7d8590" font-size="9">800</text>
  <line x1="90" y1="886.1" x2="790" y2="886.1" stroke="#21262d" stroke-width="1"/>
  <text x="82" y="886.1" text-anchor="end" dominant-baseline="middle" fill="#7d8590" font-size="9">1000</text>
  <path d="M117.8,1051.9L195.9,1027.6L274.0,994.2L352.0,959.3L430.1,938.4L508.2,916.1L586.3,893.7L664.3,908.1L742.4,917.3" fill="none" stroke="#60a5fa" stroke-width="1.8"/>
  <circle cx="117.8" cy="1051.9" r="2.5" fill="#60a5fa" stroke="#0d1117" stroke-width="0.8"/>
  <circle cx="195.9" cy="1027.6" r="2.5" fill="#60a5fa" stroke="#0d1117" stroke-width="0.8"/>
  <circle cx="274.0" cy="994.2" r="2.5" fill="#60a5fa" stroke="#0d1117" stroke-width="0.8"/>
  <circle cx="352.0" cy="959.3" r="2.5" fill="#60a5fa" stroke="#0d1117" stroke-width="0.8"/>
  <circle cx="430.1" cy="938.4" r="2.5" fill="#60a5fa" stroke="#0d1117" stroke-width="0.8"/>
  <circle cx="508.2" cy="916.1" r="2.5" fill="#60a5fa" stroke="#0d1117" stroke-width="0.8"/>
  <circle cx="586.3" cy="893.7" r="2.5" fill="#60a5fa" stroke="#0d1117" stroke-width="0.8"/>
  <circle cx="664.3" cy="908.1" r="2.5" fill="#60a5fa" stroke="#0d1117" stroke-width="0.8"/>
  <circle cx="742.4" cy="917.3" r="2.5" fill="#60a5fa" stroke="#0d1117" stroke-width="0.8"/>
  <path d="M117.8,1033.7L195.9,1013.7L274.0,997.5L352.0,985.9L430.1,979.6L508.2,977.9L586.3,973.8L664.3,977.8L742.4,990.5" fill="none" stroke="#f87171" stroke-width="1.8"/>
  <circle cx="117.8" cy="1033.7" r="2.5" fill="#f87171" stroke="#0d1117" stroke-width="0.8"/>
  <circle cx="195.9" cy="1013.7" r="2.5" fill="#f87171" stroke="#0d1117" stroke-width="0.8"/>
  <circle cx="274.0" cy="997.5" r="2.5" fill="#f87171" stroke="#0d1117" stroke-width="0.8"/>
  <circle cx="352.0" cy="985.9" r="2.5" fill="#f87171" stroke="#0d1117" stroke-width="0.8"/>
  <circle cx="430.1" cy="979.6" r="2.5" fill="#f87171" stroke="#0d1117" stroke-width="0.8"/>
  <circle cx="508.2" cy="977.9" r="2.5" fill="#f87171" stroke="#0d1117" stroke-width="0.8"/>
  <circle cx="586.3" cy="973.8" r="2.5" fill="#f87171" stroke="#0d1117" stroke-width="0.8"/>
  <circle cx="664.3" cy="977.8" r="2.5" fill="#f87171" stroke="#0d1117" stroke-width="0.8"/>
  <circle cx="742.4" cy="990.5" r="2.5" fill="#f87171" stroke="#0d1117" stroke-width="0.8"/>
  <path d="M117.8,1036.4L195.9,1018.4L274.0,1004.6L352.0,994.9L430.1,990.8L508.2,990.6L586.3,987.8L664.3,995.1L742.4,1003.7" fill="none" stroke="#f472b6" stroke-width="1.8"/>
  <circle cx="117.8" cy="1036.4" r="2.5" fill="#f472b6" stroke="#0d1117" stroke-width="0.8"/>
  <circle cx="195.9" cy="1018.4" r="2.5" fill="#f472b6" stroke="#0d1117" stroke-width="0.8"/>
  <circle cx="274.0" cy="1004.6" r="2.5" fill="#f472b6" stroke="#0d1117" stroke-width="0.8"/>
  <circle cx="352.0" cy="994.9" r="2.5" fill="#f472b6" stroke="#0d1117" stroke-width="0.8"/>
  <circle cx="430.1" cy="990.8" r="2.5" fill="#f472b6" stroke="#0d1117" stroke-width="0.8"/>
  <circle cx="508.2" cy="990.6" r="2.5" fill="#f472b6" stroke="#0d1117" stroke-width="0.8"/>
  <circle cx="586.3" cy="987.8" r="2.5" fill="#f472b6" stroke="#0d1117" stroke-width="0.8"/>
  <circle cx="664.3" cy="995.1" r="2.5" fill="#f472b6" stroke="#0d1117" stroke-width="0.8"/>
  <circle cx="742.4" cy="1003.7" r="2.5" fill="#f472b6" stroke="#0d1117" stroke-width="0.8"/>
  <path d="M117.8,1066.6L195.9,1051.3L274.0,1028.8L352.0,1006.6L430.1,992.9L508.2,974.2L586.3,954.6L664.3,964.7L742.4,969.6" fill="none" stroke="#f59e0b" stroke-width="1.8"/>
  <circle cx="117.8" cy="1066.6" r="2.5" fill="#f59e0b" stroke="#0d1117" stroke-width="0.8"/>
  <circle cx="195.9" cy="1051.3" r="2.5" fill="#f59e0b" stroke="#0d1117" stroke-width="0.8"/>
  <circle cx="274.0" cy="1028.8" r="2.5" fill="#f59e0b" stroke="#0d1117" stroke-width="0.8"/>
  <circle cx="352.0" cy="1006.6" r="2.5" fill="#f59e0b" stroke="#0d1117" stroke-width="0.8"/>
  <circle cx="430.1" cy="992.9" r="2.5" fill="#f59e0b" stroke="#0d1117" stroke-width="0.8"/>
  <circle cx="508.2" cy="974.2" r="2.5" fill="#f59e0b" stroke="#0d1117" stroke-width="0.8"/>
  <circle cx="586.3" cy="954.6" r="2.5" fill="#f59e0b" stroke="#0d1117" stroke-width="0.8"/>
  <circle cx="664.3" cy="964.7" r="2.5" fill="#f59e0b" stroke="#0d1117" stroke-width="0.8"/>
  <circle cx="742.4" cy="969.6" r="2.5" fill="#f59e0b" stroke="#0d1117" stroke-width="0.8"/>
  <path d="M117.8,1074.7L195.9,1068.9L274.0,1063.2L352.0,1059.0L430.1,1056.9L508.2,1054.8L586.3,1052.9L664.3,1054.8L742.4,1055.3" fill="none" stroke="#4ade80" stroke-width="1.8"/>
  <circle cx="117.8" cy="1074.7" r="2.5" fill="#4ade80" stroke="#0d1117" stroke-width="0.8"/>
  <circle cx="195.9" cy="1068.9" r="2.5" fill="#4ade80" stroke="#0d1117" stroke-width="0.8"/>
  <circle cx="274.0" cy="1063.2" r="2.5" fill="#4ade80" stroke="#0d1117" stroke-width="0.8"/>
  <circle cx="352.0" cy="1059.0" r="2.5" fill="#4ade80" stroke="#0d1117" stroke-width="0.8"/>
  <circle cx="430.1" cy="1056.9" r="2.5" fill="#4ade80" stroke="#0d1117" stroke-width="0.8"/>
  <circle cx="508.2" cy="1054.8" r="2.5" fill="#4ade80" stroke="#0d1117" stroke-width="0.8"/>
  <circle cx="586.3" cy="1052.9" r="2.5" fill="#4ade80" stroke="#0d1117" stroke-width="0.8"/>
  <circle cx="664.3" cy="1054.8" r="2.5" fill="#4ade80" stroke="#0d1117" stroke-width="0.8"/>
  <circle cx="742.4" cy="1055.3" r="2.5" fill="#4ade80" stroke="#0d1117" stroke-width="0.8"/>
  <text x="20" y="570.0" text-anchor="middle" fill="#e6edf3" font-size="11" font-weight="600" transform="rotate(-90,20,570.0)">decode MB/s</text>
  <circle cx="-110" cy="1120" r="4" fill="#60a5fa"/>
  <text x="-102" y="1123.5" fill="#e6edf3" font-size="10" font-weight="500">libzstd v1.5.7 (C)</text>
  <circle cx="37" cy="1120" r="4" fill="#f87171"/>
  <text x="45" y="1123.5" fill="#e6edf3" font-size="10" font-weight="500">zrip (safe SIMD + encapsulated unsafe)</text>
  <circle cx="309" cy="1120" r="4" fill="#f472b6"/>
  <text x="317" y="1123.5" fill="#e6edf3" font-size="10" font-weight="500">zrip paranoid (safe SIMD, no unsafe)</text>
  <circle cx="568" cy="1120" r="4" fill="#f59e0b"/>
  <text x="576" y="1123.5" fill="#e6edf3" font-size="10" font-weight="500">structured-zstd v0.0.48 (unsafe)</text>
  <circle cx="802" cy="1120" r="4" fill="#4ade80"/>
  <text x="810" y="1123.5" fill="#e6edf3" font-size="10" font-weight="500">ruzstd v0.8.3 (safe)</text>
</svg>
