<svg viewBox="0 0 830 1221" xmlns="http://www.w3.org/2000/svg" font-family="system-ui, -apple-system, sans-serif">
<rect x="0" y="0" width="830" height="1221" opacity="1" fill="#0D1117" stroke="none"/>
<text x="415" y="18" dy="0.5ex" text-anchor="middle" font-family="sans-serif" font-size="12.096774193548388" opacity="1" fill="#E6EDF3" font-weight="bold">
Decode Throughput vs Input Size (Silesia slices, C zstd L3 bitstream)
</text>
<text x="415" y="36" dy="0.5ex" text-anchor="middle" font-family="sans-serif" font-size="8.870967741935484" opacity="1" fill="#7D8590">
Linux VM on a 2018 Mac Mini, Intel Core i7-8700B @ 3.20GHz, performance governor, turbo off
</text>
<rect x="90" y="66" width="700" height="220" opacity="1" fill="#161B22" stroke="none"/>
<text x="440" y="54" dy="0.5ex" text-anchor="middle" font-family="sans-serif" font-size="10.483870967741936" opacity="1" fill="#E6EDF3" font-weight="bold">
dickens
</text>
<polyline fill="none" opacity="1" stroke="#30363D" stroke-width="2" points="90,286 790,286 "/>
<polyline fill="none" opacity="1" stroke="#21262D" stroke-width="1" points="118,66 118,286 "/>
<text x="118" y="302" dy="0.5ex" text-anchor="middle" font-family="sans-serif" font-size="8.064516129032258" opacity="1" fill="#7D8590">
512
</text>
<polyline fill="none" opacity="1" stroke="#21262D" stroke-width="1" points="196,66 196,286 "/>
<text x="196" y="302" dy="0.5ex" text-anchor="middle" font-family="sans-serif" font-size="8.064516129032258" opacity="1" fill="#7D8590">
1K
</text>
<polyline fill="none" opacity="1" stroke="#21262D" stroke-width="1" points="274,66 274,286 "/>
<text x="274" y="302" dy="0.5ex" text-anchor="middle" font-family="sans-serif" font-size="8.064516129032258" opacity="1" fill="#7D8590">
2K
</text>
<polyline fill="none" opacity="1" stroke="#21262D" stroke-width="1" points="352,66 352,286 "/>
<text x="352" y="302" dy="0.5ex" text-anchor="middle" font-family="sans-serif" font-size="8.064516129032258" opacity="1" fill="#7D8590">
4K
</text>
<polyline fill="none" opacity="1" stroke="#21262D" stroke-width="1" points="430,66 430,286 "/>
<text x="430" y="302" dy="0.5ex" text-anchor="middle" font-family="sans-serif" font-size="8.064516129032258" opacity="1" fill="#7D8590">
8K
</text>
<polyline fill="none" opacity="1" stroke="#21262D" stroke-width="1" points="508,66 508,286 "/>
<text x="508" y="302" dy="0.5ex" text-anchor="middle" font-family="sans-serif" font-size="8.064516129032258" opacity="1" fill="#7D8590">
16K
</text>
<polyline fill="none" opacity="1" stroke="#21262D" stroke-width="1" points="586,66 586,286 "/>
<text x="586" y="302" dy="0.5ex" text-anchor="middle" font-family="sans-serif" font-size="8.064516129032258" opacity="1" fill="#7D8590">
32K
</text>
<polyline fill="none" opacity="1" stroke="#21262D" stroke-width="1" points="664,66 664,286 "/>
<text x="664" y="302" dy="0.5ex" text-anchor="middle" font-family="sans-serif" font-size="8.064516129032258" opacity="1" fill="#7D8590">
64K
</text>
<polyline fill="none" opacity="1" stroke="#21262D" stroke-width="1" points="742,66 742,286 "/>
<text x="742" y="302" dy="0.5ex" text-anchor="middle" font-family="sans-serif" font-size="8.064516129032258" opacity="1" fill="#7D8590">
128K
</text>
<polyline fill="none" opacity="1" stroke="#21262D" stroke-width="1" points="90,238 790,238 "/>
<text x="82" y="238" dy="0.5ex" text-anchor="end" font-family="sans-serif" font-size="8.064516129032258" opacity="1" fill="#7D8590">
200
</text>
<polyline fill="none" opacity="1" stroke="#21262D" stroke-width="1" points="90,189 790,189 "/>
<text x="82" y="189" dy="0.5ex" text-anchor="end" font-family="sans-serif" font-size="8.064516129032258" opacity="1" fill="#7D8590">
400
</text>
<polyline fill="none" opacity="1" stroke="#21262D" stroke-width="1" points="90,141 790,141 "/>
<text x="82" y="141" dy="0.5ex" text-anchor="end" font-family="sans-serif" font-size="8.064516129032258" opacity="1" fill="#7D8590">
600
</text>
<polyline fill="none" opacity="1" stroke="#21262D" stroke-width="1" points="90,92 790,92 "/>
<text x="82" y="92" dy="0.5ex" text-anchor="end" font-family="sans-serif" font-size="8.064516129032258" opacity="1" fill="#7D8590">
800
</text>
<polyline fill="none" opacity="1" stroke="#60A5FA" stroke-width="2" points="118,239 196,212 274,199 352,170 430,151 508,144 586,114 664,100 742,95 "/>
<circle cx="118" cy="239" r="3" opacity="1" fill="#60A5FA" stroke="none" stroke-width="1"/>
<circle cx="196" cy="212" r="3" opacity="1" fill="#60A5FA" stroke="none" stroke-width="1"/>
<circle cx="274" cy="199" r="3" opacity="1" fill="#60A5FA" stroke="none" stroke-width="1"/>
<circle cx="352" cy="170" r="3" opacity="1" fill="#60A5FA" stroke="none" stroke-width="1"/>
<circle cx="430" cy="151" r="3" opacity="1" fill="#60A5FA" stroke="none" stroke-width="1"/>
<circle cx="508" cy="144" r="3" opacity="1" fill="#60A5FA" stroke="none" stroke-width="1"/>
<circle cx="586" cy="114" r="3" opacity="1" fill="#60A5FA" stroke="none" stroke-width="1"/>
<circle cx="664" cy="100" r="3" opacity="1" fill="#60A5FA" stroke="none" stroke-width="1"/>
<circle cx="742" cy="95" r="3" opacity="1" fill="#60A5FA" stroke="none" stroke-width="1"/>
<polyline fill="none" opacity="1" stroke="#F87171" stroke-width="2" points="118,231 196,207 274,195 352,187 430,180 508,180 586,176 664,195 742,193 "/>
<circle cx="118" cy="231" r="3" opacity="1" fill="#F87171" stroke="none" stroke-width="1"/>
<circle cx="196" cy="207" r="3" opacity="1" fill="#F87171" stroke="none" stroke-width="1"/>
<circle cx="274" cy="195" r="3" opacity="1" fill="#F87171" stroke="none" stroke-width="1"/>
<circle cx="352" cy="187" r="3" opacity="1" fill="#F87171" stroke="none" stroke-width="1"/>
<circle cx="430" cy="180" r="3" opacity="1" fill="#F87171" stroke="none" stroke-width="1"/>
<circle cx="508" cy="180" r="3" opacity="1" fill="#F87171" stroke="none" stroke-width="1"/>
<circle cx="586" cy="176" r="3" opacity="1" fill="#F87171" stroke="none" stroke-width="1"/>
<circle cx="664" cy="195" r="3" opacity="1" fill="#F87171" stroke="none" stroke-width="1"/>
<circle cx="742" cy="193" r="3" opacity="1" fill="#F87171" stroke="none" stroke-width="1"/>
<polyline fill="none" opacity="1" stroke="#F472B6" stroke-width="2" points="118,235 196,217 274,209 352,204 430,200 508,207 586,210 664,216 742,214 "/>
<circle cx="118" cy="235" r="3" opacity="1" fill="#F472B6" stroke="none" stroke-width="1"/>
<circle cx="196" cy="217" r="3" opacity="1" fill="#F472B6" stroke="none" stroke-width="1"/>
<circle cx="274" cy="209" r="3" opacity="1" fill="#F472B6" stroke="none" stroke-width="1"/>
<circle cx="352" cy="204" r="3" opacity="1" fill="#F472B6" stroke="none" stroke-width="1"/>
<circle cx="430" cy="200" r="3" opacity="1" fill="#F472B6" stroke="none" stroke-width="1"/>
<circle cx="508" cy="207" r="3" opacity="1" fill="#F472B6" stroke="none" stroke-width="1"/>
<circle cx="586" cy="210" r="3" opacity="1" fill="#F472B6" stroke="none" stroke-width="1"/>
<circle cx="664" cy="216" r="3" opacity="1" fill="#F472B6" stroke="none" stroke-width="1"/>
<circle cx="742" cy="214" r="3" opacity="1" fill="#F472B6" stroke="none" stroke-width="1"/>
<polyline fill="none" opacity="1" stroke="#F59E0B" stroke-width="2" points="118,262 196,246 274,238 352,220 430,207 508,204 586,185 664,180 742,176 "/>
<circle cx="118" cy="262" r="3" opacity="1" fill="#F59E0B" stroke="none" stroke-width="1"/>
<circle cx="196" cy="246" r="3" opacity="1" fill="#F59E0B" stroke="none" stroke-width="1"/>
<circle cx="274" cy="238" r="3" opacity="1" fill="#F59E0B" stroke="none" stroke-width="1"/>
<circle cx="352" cy="220" r="3" opacity="1" fill="#F59E0B" stroke="none" stroke-width="1"/>
<circle cx="430" cy="207" r="3" opacity="1" fill="#F59E0B" stroke="none" stroke-width="1"/>
<circle cx="508" cy="204" r="3" opacity="1" fill="#F59E0B" stroke="none" stroke-width="1"/>
<circle cx="586" cy="185" r="3" opacity="1" fill="#F59E0B" stroke="none" stroke-width="1"/>
<circle cx="664" cy="180" r="3" opacity="1" fill="#F59E0B" stroke="none" stroke-width="1"/>
<circle cx="742" cy="176" r="3" opacity="1" fill="#F59E0B" stroke="none" stroke-width="1"/>
<polyline fill="none" opacity="1" stroke="#4ADE80" stroke-width="2" points="118,271 196,263 274,261 352,258 430,256 508,257 586,253 664,251 742,250 "/>
<circle cx="118" cy="271" r="3" opacity="1" fill="#4ADE80" stroke="none" stroke-width="1"/>
<circle cx="196" cy="263" r="3" opacity="1" fill="#4ADE80" stroke="none" stroke-width="1"/>
<circle cx="274" cy="261" r="3" opacity="1" fill="#4ADE80" stroke="none" stroke-width="1"/>
<circle cx="352" cy="258" r="3" opacity="1" fill="#4ADE80" stroke="none" stroke-width="1"/>
<circle cx="430" cy="256" r="3" opacity="1" fill="#4ADE80" stroke="none" stroke-width="1"/>
<circle cx="508" cy="257" r="3" opacity="1" fill="#4ADE80" stroke="none" stroke-width="1"/>
<circle cx="586" cy="253" r="3" opacity="1" fill="#4ADE80" stroke="none" stroke-width="1"/>
<circle cx="664" cy="251" r="3" opacity="1" fill="#4ADE80" stroke="none" stroke-width="1"/>
<circle cx="742" cy="250" r="3" opacity="1" fill="#4ADE80" stroke="none" stroke-width="1"/>
<rect x="90" y="336" width="700" height="220" opacity="1" fill="#161B22" stroke="none"/>
<text x="440" y="324" dy="0.5ex" text-anchor="middle" font-family="sans-serif" font-size="10.483870967741936" opacity="1" fill="#E6EDF3" font-weight="bold">
nci
</text>
<polyline fill="none" opacity="1" stroke="#30363D" stroke-width="2" points="90,556 790,556 "/>
<polyline fill="none" opacity="1" stroke="#21262D" stroke-width="1" points="118,336 118,556 "/>
<text x="118" y="572" dy="0.5ex" text-anchor="middle" font-family="sans-serif" font-size="8.064516129032258" opacity="1" fill="#7D8590">
512
</text>
<polyline fill="none" opacity="1" stroke="#21262D" stroke-width="1" points="196,336 196,556 "/>
<text x="196" y="572" dy="0.5ex" text-anchor="middle" font-family="sans-serif" font-size="8.064516129032258" opacity="1" fill="#7D8590">
1K
</text>
<polyline fill="none" opacity="1" stroke="#21262D" stroke-width="1" points="274,336 274,556 "/>
<text x="274" y="572" dy="0.5ex" text-anchor="middle" font-family="sans-serif" font-size="8.064516129032258" opacity="1" fill="#7D8590">
2K
</text>
<polyline fill="none" opacity="1" stroke="#21262D" stroke-width="1" points="352,336 352,556 "/>
<text x="352" y="572" dy="0.5ex" text-anchor="middle" font-family="sans-serif" font-size="8.064516129032258" opacity="1" fill="#7D8590">
4K
</text>
<polyline fill="none" opacity="1" stroke="#21262D" stroke-width="1" points="430,336 430,556 "/>
<text x="430" y="572" dy="0.5ex" text-anchor="middle" font-family="sans-serif" font-size="8.064516129032258" opacity="1" fill="#7D8590">
8K
</text>
<polyline fill="none" opacity="1" stroke="#21262D" stroke-width="1" points="508,336 508,556 "/>
<text x="508" y="572" dy="0.5ex" text-anchor="middle" font-family="sans-serif" font-size="8.064516129032258" opacity="1" fill="#7D8590">
16K
</text>
<polyline fill="none" opacity="1" stroke="#21262D" stroke-width="1" points="586,336 586,556 "/>
<text x="586" y="572" dy="0.5ex" text-anchor="middle" font-family="sans-serif" font-size="8.064516129032258" opacity="1" fill="#7D8590">
32K
</text>
<polyline fill="none" opacity="1" stroke="#21262D" stroke-width="1" points="664,336 664,556 "/>
<text x="664" y="572" dy="0.5ex" text-anchor="middle" font-family="sans-serif" font-size="8.064516129032258" opacity="1" fill="#7D8590">
64K
</text>
<polyline fill="none" opacity="1" stroke="#21262D" stroke-width="1" points="742,336 742,556 "/>
<text x="742" y="572" dy="0.5ex" text-anchor="middle" font-family="sans-serif" font-size="8.064516129032258" opacity="1" fill="#7D8590">
128K
</text>
<polyline fill="none" opacity="1" stroke="#21262D" stroke-width="1" points="90,507 790,507 "/>
<text x="82" y="507" dy="0.5ex" text-anchor="end" font-family="sans-serif" font-size="8.064516129032258" opacity="1" fill="#7D8590">
500
</text>
<polyline fill="none" opacity="1" stroke="#21262D" stroke-width="1" points="90,458 790,458 "/>
<text x="82" y="458" dy="0.5ex" text-anchor="end" font-family="sans-serif" font-size="8.064516129032258" opacity="1" fill="#7D8590">
1000
</text>
<polyline fill="none" opacity="1" stroke="#21262D" stroke-width="1" points="90,409 790,409 "/>
<text x="82" y="409" dy="0.5ex" text-anchor="end" font-family="sans-serif" font-size="8.064516129032258" opacity="1" fill="#7D8590">
1500
</text>
<polyline fill="none" opacity="1" stroke="#21262D" stroke-width="1" points="90,360 790,360 "/>
<text x="82" y="360" dy="0.5ex" text-anchor="end" font-family="sans-serif" font-size="8.064516129032258" opacity="1" fill="#7D8590">
2000
</text>
<polyline fill="none" opacity="1" stroke="#60A5FA" stroke-width="2" points="118,536 196,522 274,510 352,479 430,440 508,408 586,389 664,365 742,382 "/>
<circle cx="118" cy="536" r="3" opacity="1" fill="#60A5FA" stroke="none" stroke-width="1"/>
<circle cx="196" cy="522" r="3" opacity="1" fill="#60A5FA" stroke="none" stroke-width="1"/>
<circle cx="274" cy="510" r="3" opacity="1" fill="#60A5FA" stroke="none" stroke-width="1"/>
<circle cx="352" cy="479" r="3" opacity="1" fill="#60A5FA" stroke="none" stroke-width="1"/>
<circle cx="430" cy="440" r="3" opacity="1" fill="#60A5FA" stroke="none" stroke-width="1"/>
<circle cx="508" cy="408" r="3" opacity="1" fill="#60A5FA" stroke="none" stroke-width="1"/>
<circle cx="586" cy="389" r="3" opacity="1" fill="#60A5FA" stroke="none" stroke-width="1"/>
<circle cx="664" cy="365" r="3" opacity="1" fill="#60A5FA" stroke="none" stroke-width="1"/>
<circle cx="742" cy="382" r="3" opacity="1" fill="#60A5FA" stroke="none" stroke-width="1"/>
<polyline fill="none" opacity="1" stroke="#F87171" stroke-width="2" points="118,529 196,511 274,486 352,472 430,451 508,435 586,422 664,401 742,439 "/>
<circle cx="118" cy="529" r="3" opacity="1" fill="#F87171" stroke="none" stroke-width="1"/>
<circle cx="196" cy="511" r="3" opacity="1" fill="#F87171" stroke="none" stroke-width="1"/>
<circle cx="274" cy="486" r="3" opacity="1" fill="#F87171" stroke="none" stroke-width="1"/>
<circle cx="352" cy="472" r="3" opacity="1" fill="#F87171" stroke="none" stroke-width="1"/>
<circle cx="430" cy="451" r="3" opacity="1" fill="#F87171" stroke="none" stroke-width="1"/>
<circle cx="508" cy="435" r="3" opacity="1" fill="#F87171" stroke="none" stroke-width="1"/>
<circle cx="586" cy="422" r="3" opacity="1" fill="#F87171" stroke="none" stroke-width="1"/>
<circle cx="664" cy="401" r="3" opacity="1" fill="#F87171" stroke="none" stroke-width="1"/>
<circle cx="742" cy="439" r="3" opacity="1" fill="#F87171" stroke="none" stroke-width="1"/>
<polyline fill="none" opacity="1" stroke="#F472B6" stroke-width="2" points="118,530 196,514 274,492 352,481 430,463 508,451 586,440 664,431 742,460 "/>
<circle cx="118" cy="530" r="3" opacity="1" fill="#F472B6" stroke="none" stroke-width="1"/>
<circle cx="196" cy="514" r="3" opacity="1" fill="#F472B6" stroke="none" stroke-width="1"/>
<circle cx="274" cy="492" r="3" opacity="1" fill="#F472B6" stroke="none" stroke-width="1"/>
<circle cx="352" cy="481" r="3" opacity="1" fill="#F472B6" stroke="none" stroke-width="1"/>
<circle cx="430" cy="463" r="3" opacity="1" fill="#F472B6" stroke="none" stroke-width="1"/>
<circle cx="508" cy="451" r="3" opacity="1" fill="#F472B6" stroke="none" stroke-width="1"/>
<circle cx="586" cy="440" r="3" opacity="1" fill="#F472B6" stroke="none" stroke-width="1"/>
<circle cx="664" cy="431" r="3" opacity="1" fill="#F472B6" stroke="none" stroke-width="1"/>
<circle cx="742" cy="460" r="3" opacity="1" fill="#F472B6" stroke="none" stroke-width="1"/>
<polyline fill="none" opacity="1" stroke="#F59E0B" stroke-width="2" points="118,545 196,537 274,530 352,514 430,491 508,471 586,457 664,434 742,440 "/>
<circle cx="118" cy="545" r="3" opacity="1" fill="#F59E0B" stroke="none" stroke-width="1"/>
<circle cx="196" cy="537" r="3" opacity="1" fill="#F59E0B" stroke="none" stroke-width="1"/>
<circle cx="274" cy="530" r="3" opacity="1" fill="#F59E0B" stroke="none" stroke-width="1"/>
<circle cx="352" cy="514" r="3" opacity="1" fill="#F59E0B" stroke="none" stroke-width="1"/>
<circle cx="430" cy="491" r="3" opacity="1" fill="#F59E0B" stroke="none" stroke-width="1"/>
<circle cx="508" cy="471" r="3" opacity="1" fill="#F59E0B" stroke="none" stroke-width="1"/>
<circle cx="586" cy="457" r="3" opacity="1" fill="#F59E0B" stroke="none" stroke-width="1"/>
<circle cx="664" cy="434" r="3" opacity="1" fill="#F59E0B" stroke="none" stroke-width="1"/>
<circle cx="742" cy="440" r="3" opacity="1" fill="#F59E0B" stroke="none" stroke-width="1"/>
<polyline fill="none" opacity="1" stroke="#4ADE80" stroke-width="2" points="118,548 196,543 274,537 352,531 430,525 508,521 586,520 664,515 742,516 "/>
<circle cx="118" cy="548" r="3" opacity="1" fill="#4ADE80" stroke="none" stroke-width="1"/>
<circle cx="196" cy="543" r="3" opacity="1" fill="#4ADE80" stroke="none" stroke-width="1"/>
<circle cx="274" cy="537" r="3" opacity="1" fill="#4ADE80" stroke="none" stroke-width="1"/>
<circle cx="352" cy="531" r="3" opacity="1" fill="#4ADE80" stroke="none" stroke-width="1"/>
<circle cx="430" cy="525" r="3" opacity="1" fill="#4ADE80" stroke="none" stroke-width="1"/>
<circle cx="508" cy="521" r="3" opacity="1" fill="#4ADE80" stroke="none" stroke-width="1"/>
<circle cx="586" cy="520" r="3" opacity="1" fill="#4ADE80" stroke="none" stroke-width="1"/>
<circle cx="664" cy="515" r="3" opacity="1" fill="#4ADE80" stroke="none" stroke-width="1"/>
<circle cx="742" cy="516" r="3" opacity="1" fill="#4ADE80" stroke="none" stroke-width="1"/>
<rect x="90" y="606" width="700" height="220" opacity="1" fill="#161B22" stroke="none"/>
<text x="440" y="594" dy="0.5ex" text-anchor="middle" font-family="sans-serif" font-size="10.483870967741936" opacity="1" fill="#E6EDF3" font-weight="bold">
xml
</text>
<polyline fill="none" opacity="1" stroke="#30363D" stroke-width="2" points="90,826 790,826 "/>
<polyline fill="none" opacity="1" stroke="#21262D" stroke-width="1" points="118,606 118,826 "/>
<text x="118" y="842" dy="0.5ex" text-anchor="middle" font-family="sans-serif" font-size="8.064516129032258" opacity="1" fill="#7D8590">
512
</text>
<polyline fill="none" opacity="1" stroke="#21262D" stroke-width="1" points="196,606 196,826 "/>
<text x="196" y="842" dy="0.5ex" text-anchor="middle" font-family="sans-serif" font-size="8.064516129032258" opacity="1" fill="#7D8590">
1K
</text>
<polyline fill="none" opacity="1" stroke="#21262D" stroke-width="1" points="274,606 274,826 "/>
<text x="274" y="842" dy="0.5ex" text-anchor="middle" font-family="sans-serif" font-size="8.064516129032258" opacity="1" fill="#7D8590">
2K
</text>
<polyline fill="none" opacity="1" stroke="#21262D" stroke-width="1" points="352,606 352,826 "/>
<text x="352" y="842" dy="0.5ex" text-anchor="middle" font-family="sans-serif" font-size="8.064516129032258" opacity="1" fill="#7D8590">
4K
</text>
<polyline fill="none" opacity="1" stroke="#21262D" stroke-width="1" points="430,606 430,826 "/>
<text x="430" y="842" dy="0.5ex" text-anchor="middle" font-family="sans-serif" font-size="8.064516129032258" opacity="1" fill="#7D8590">
8K
</text>
<polyline fill="none" opacity="1" stroke="#21262D" stroke-width="1" points="508,606 508,826 "/>
<text x="508" y="842" dy="0.5ex" text-anchor="middle" font-family="sans-serif" font-size="8.064516129032258" opacity="1" fill="#7D8590">
16K
</text>
<polyline fill="none" opacity="1" stroke="#21262D" stroke-width="1" points="586,606 586,826 "/>
<text x="586" y="842" dy="0.5ex" text-anchor="middle" font-family="sans-serif" font-size="8.064516129032258" opacity="1" fill="#7D8590">
32K
</text>
<polyline fill="none" opacity="1" stroke="#21262D" stroke-width="1" points="664,606 664,826 "/>
<text x="664" y="842" dy="0.5ex" text-anchor="middle" font-family="sans-serif" font-size="8.064516129032258" opacity="1" fill="#7D8590">
64K
</text>
<polyline fill="none" opacity="1" stroke="#21262D" stroke-width="1" points="742,606 742,826 "/>
<text x="742" y="842" dy="0.5ex" text-anchor="middle" font-family="sans-serif" font-size="8.064516129032258" opacity="1" fill="#7D8590">
128K
</text>
<polyline fill="none" opacity="1" stroke="#21262D" stroke-width="1" points="90,785 790,785 "/>
<text x="82" y="785" dy="0.5ex" text-anchor="end" font-family="sans-serif" font-size="8.064516129032258" opacity="1" fill="#7D8590">
500
</text>
<polyline fill="none" opacity="1" stroke="#21262D" stroke-width="1" points="90,744 790,744 "/>
<text x="82" y="744" dy="0.5ex" text-anchor="end" font-family="sans-serif" font-size="8.064516129032258" opacity="1" fill="#7D8590">
1000
</text>
<polyline fill="none" opacity="1" stroke="#21262D" stroke-width="1" points="90,702 790,702 "/>
<text x="82" y="702" dy="0.5ex" text-anchor="end" font-family="sans-serif" font-size="8.064516129032258" opacity="1" fill="#7D8590">
1500
</text>
<polyline fill="none" opacity="1" stroke="#21262D" stroke-width="1" points="90,661 790,661 "/>
<text x="82" y="661" dy="0.5ex" text-anchor="end" font-family="sans-serif" font-size="8.064516129032258" opacity="1" fill="#7D8590">
2000
</text>
<polyline fill="none" opacity="1" stroke="#21262D" stroke-width="1" points="90,620 790,620 "/>
<text x="82" y="620" dy="0.5ex" text-anchor="end" font-family="sans-serif" font-size="8.064516129032258" opacity="1" fill="#7D8590">
2500
</text>
<polyline fill="none" opacity="1" stroke="#60A5FA" stroke-width="2" points="118,808 196,796 274,789 352,763 430,729 508,685 586,641 664,635 742,657 "/>
<circle cx="118" cy="808" r="3" opacity="1" fill="#60A5FA" stroke="none" stroke-width="1"/>
<circle cx="196" cy="796" r="3" opacity="1" fill="#60A5FA" stroke="none" stroke-width="1"/>
<circle cx="274" cy="789" r="3" opacity="1" fill="#60A5FA" stroke="none" stroke-width="1"/>
<circle cx="352" cy="763" r="3" opacity="1" fill="#60A5FA" stroke="none" stroke-width="1"/>
<circle cx="430" cy="729" r="3" opacity="1" fill="#60A5FA" stroke="none" stroke-width="1"/>
<circle cx="508" cy="685" r="3" opacity="1" fill="#60A5FA" stroke="none" stroke-width="1"/>
<circle cx="586" cy="641" r="3" opacity="1" fill="#60A5FA" stroke="none" stroke-width="1"/>
<circle cx="664" cy="635" r="3" opacity="1" fill="#60A5FA" stroke="none" stroke-width="1"/>
<circle cx="742" cy="657" r="3" opacity="1" fill="#60A5FA" stroke="none" stroke-width="1"/>
<polyline fill="none" opacity="1" stroke="#F87171" stroke-width="2" points="118,797 196,791 274,778 352,757 430,734 508,710 586,686 664,672 742,713 "/>
<circle cx="118" cy="797" r="3" opacity="1" fill="#F87171" stroke="none" stroke-width="1"/>
<circle cx="196" cy="791" r="3" opacity="1" fill="#F87171" stroke="none" stroke-width="1"/>
<circle cx="274" cy="778" r="3" opacity="1" fill="#F87171" stroke="none" stroke-width="1"/>
<circle cx="352" cy="757" r="3" opacity="1" fill="#F87171" stroke="none" stroke-width="1"/>
<circle cx="430" cy="734" r="3" opacity="1" fill="#F87171" stroke="none" stroke-width="1"/>
<circle cx="508" cy="710" r="3" opacity="1" fill="#F87171" stroke="none" stroke-width="1"/>
<circle cx="586" cy="686" r="3" opacity="1" fill="#F87171" stroke="none" stroke-width="1"/>
<circle cx="664" cy="672" r="3" opacity="1" fill="#F87171" stroke="none" stroke-width="1"/>
<circle cx="742" cy="713" r="3" opacity="1" fill="#F87171" stroke="none" stroke-width="1"/>
<polyline fill="none" opacity="1" stroke="#F472B6" stroke-width="2" points="118,798 196,794 274,783 352,764 430,745 508,724 586,704 664,703 742,731 "/>
<circle cx="118" cy="798" r="3" opacity="1" fill="#F472B6" stroke="none" stroke-width="1"/>
<circle cx="196" cy="794" r="3" opacity="1" fill="#F472B6" stroke="none" stroke-width="1"/>
<circle cx="274" cy="783" r="3" opacity="1" fill="#F472B6" stroke="none" stroke-width="1"/>
<circle cx="352" cy="764" r="3" opacity="1" fill="#F472B6" stroke="none" stroke-width="1"/>
<circle cx="430" cy="745" r="3" opacity="1" fill="#F472B6" stroke="none" stroke-width="1"/>
<circle cx="508" cy="724" r="3" opacity="1" fill="#F472B6" stroke="none" stroke-width="1"/>
<circle cx="586" cy="704" r="3" opacity="1" fill="#F472B6" stroke="none" stroke-width="1"/>
<circle cx="664" cy="703" r="3" opacity="1" fill="#F472B6" stroke="none" stroke-width="1"/>
<circle cx="742" cy="731" r="3" opacity="1" fill="#F472B6" stroke="none" stroke-width="1"/>
<polyline fill="none" opacity="1" stroke="#F59E0B" stroke-width="2" points="118,816 196,811 274,806 352,792 430,771 508,747 586,720 664,711 742,719 "/>
<circle cx="118" cy="816" r="3" opacity="1" fill="#F59E0B" stroke="none" stroke-width="1"/>
<circle cx="196" cy="811" r="3" opacity="1" fill="#F59E0B" stroke="none" stroke-width="1"/>
<circle cx="274" cy="806" r="3" opacity="1" fill="#F59E0B" stroke="none" stroke-width="1"/>
<circle cx="352" cy="792" r="3" opacity="1" fill="#F59E0B" stroke="none" stroke-width="1"/>
<circle cx="430" cy="771" r="3" opacity="1" fill="#F59E0B" stroke="none" stroke-width="1"/>
<circle cx="508" cy="747" r="3" opacity="1" fill="#F59E0B" stroke="none" stroke-width="1"/>
<circle cx="586" cy="720" r="3" opacity="1" fill="#F59E0B" stroke="none" stroke-width="1"/>
<circle cx="664" cy="711" r="3" opacity="1" fill="#F59E0B" stroke="none" stroke-width="1"/>
<circle cx="742" cy="719" r="3" opacity="1" fill="#F59E0B" stroke="none" stroke-width="1"/>
<polyline fill="none" opacity="1" stroke="#4ADE80" stroke-width="2" points="118,820 196,818 274,815 352,808 430,801 508,794 586,790 664,788 742,789 "/>
<circle cx="118" cy="820" r="3" opacity="1" fill="#4ADE80" stroke="none" stroke-width="1"/>
<circle cx="196" cy="818" r="3" opacity="1" fill="#4ADE80" stroke="none" stroke-width="1"/>
<circle cx="274" cy="815" r="3" opacity="1" fill="#4ADE80" stroke="none" stroke-width="1"/>
<circle cx="352" cy="808" r="3" opacity="1" fill="#4ADE80" stroke="none" stroke-width="1"/>
<circle cx="430" cy="801" r="3" opacity="1" fill="#4ADE80" stroke="none" stroke-width="1"/>
<circle cx="508" cy="794" r="3" opacity="1" fill="#4ADE80" stroke="none" stroke-width="1"/>
<circle cx="586" cy="790" r="3" opacity="1" fill="#4ADE80" stroke="none" stroke-width="1"/>
<circle cx="664" cy="788" r="3" opacity="1" fill="#4ADE80" stroke="none" stroke-width="1"/>
<circle cx="742" cy="789" r="3" opacity="1" fill="#4ADE80" stroke="none" stroke-width="1"/>
<rect x="90" y="876" width="700" height="220" opacity="1" fill="#161B22" stroke="none"/>
<text x="440" y="864" dy="0.5ex" text-anchor="middle" font-family="sans-serif" font-size="10.483870967741936" opacity="1" fill="#E6EDF3" font-weight="bold">
x-ray
</text>
<polyline fill="none" opacity="1" stroke="#30363D" stroke-width="2" points="90,1096 790,1096 "/>
<polyline fill="none" opacity="1" stroke="#21262D" stroke-width="1" points="118,876 118,1096 "/>
<text x="118" y="1112" dy="0.5ex" text-anchor="middle" font-family="sans-serif" font-size="8.064516129032258" opacity="1" fill="#7D8590">
512
</text>
<polyline fill="none" opacity="1" stroke="#21262D" stroke-width="1" points="196,876 196,1096 "/>
<text x="196" y="1112" dy="0.5ex" text-anchor="middle" font-family="sans-serif" font-size="8.064516129032258" opacity="1" fill="#7D8590">
1K
</text>
<polyline fill="none" opacity="1" stroke="#21262D" stroke-width="1" points="274,876 274,1096 "/>
<text x="274" y="1112" dy="0.5ex" text-anchor="middle" font-family="sans-serif" font-size="8.064516129032258" opacity="1" fill="#7D8590">
2K
</text>
<polyline fill="none" opacity="1" stroke="#21262D" stroke-width="1" points="352,876 352,1096 "/>
<text x="352" y="1112" dy="0.5ex" text-anchor="middle" font-family="sans-serif" font-size="8.064516129032258" opacity="1" fill="#7D8590">
4K
</text>
<polyline fill="none" opacity="1" stroke="#21262D" stroke-width="1" points="430,876 430,1096 "/>
<text x="430" y="1112" dy="0.5ex" text-anchor="middle" font-family="sans-serif" font-size="8.064516129032258" opacity="1" fill="#7D8590">
8K
</text>
<polyline fill="none" opacity="1" stroke="#21262D" stroke-width="1" points="508,876 508,1096 "/>
<text x="508" y="1112" dy="0.5ex" text-anchor="middle" font-family="sans-serif" font-size="8.064516129032258" opacity="1" fill="#7D8590">
16K
</text>
<polyline fill="none" opacity="1" stroke="#21262D" stroke-width="1" points="586,876 586,1096 "/>
<text x="586" y="1112" dy="0.5ex" text-anchor="middle" font-family="sans-serif" font-size="8.064516129032258" opacity="1" fill="#7D8590">
32K
</text>
<polyline fill="none" opacity="1" stroke="#21262D" stroke-width="1" points="664,876 664,1096 "/>
<text x="664" y="1112" dy="0.5ex" text-anchor="middle" font-family="sans-serif" font-size="8.064516129032258" opacity="1" fill="#7D8590">
64K
</text>
<polyline fill="none" opacity="1" stroke="#21262D" stroke-width="1" points="742,876 742,1096 "/>
<text x="742" y="1112" dy="0.5ex" text-anchor="middle" font-family="sans-serif" font-size="8.064516129032258" opacity="1" fill="#7D8590">
128K
</text>
<polyline fill="none" opacity="1" stroke="#21262D" stroke-width="1" points="90,1056 790,1056 "/>
<text x="82" y="1056" dy="0.5ex" text-anchor="end" font-family="sans-serif" font-size="8.064516129032258" opacity="1" fill="#7D8590">
200
</text>
<polyline fill="none" opacity="1" stroke="#21262D" stroke-width="1" points="90,1017 790,1017 "/>
<text x="82" y="1017" dy="0.5ex" text-anchor="end" font-family="sans-serif" font-size="8.064516129032258" opacity="1" fill="#7D8590">
400
</text>
<polyline fill="none" opacity="1" stroke="#21262D" stroke-width="1" points="90,977 790,977 "/>
<text x="82" y="977" dy="0.5ex" text-anchor="end" font-family="sans-serif" font-size="8.064516129032258" opacity="1" fill="#7D8590">
600
</text>
<polyline fill="none" opacity="1" stroke="#21262D" stroke-width="1" points="90,937 790,937 "/>
<text x="82" y="937" dy="0.5ex" text-anchor="end" font-family="sans-serif" font-size="8.064516129032258" opacity="1" fill="#7D8590">
800
</text>
<polyline fill="none" opacity="1" stroke="#21262D" stroke-width="1" points="90,897 790,897 "/>
<text x="82" y="897" dy="0.5ex" text-anchor="end" font-family="sans-serif" font-size="8.064516129032258" opacity="1" fill="#7D8590">
1000
</text>
<polyline fill="none" opacity="1" stroke="#60A5FA" stroke-width="2" points="118,1063 196,1038 274,1005 352,970 430,949 508,926 586,905 664,919 742,928 "/>
<circle cx="118" cy="1063" r="3" opacity="1" fill="#60A5FA" stroke="none" stroke-width="1"/>
<circle cx="196" cy="1038" r="3" opacity="1" fill="#60A5FA" stroke="none" stroke-width="1"/>
<circle cx="274" cy="1005" r="3" opacity="1" fill="#60A5FA" stroke="none" stroke-width="1"/>
<circle cx="352" cy="970" r="3" opacity="1" fill="#60A5FA" stroke="none" stroke-width="1"/>
<circle cx="430" cy="949" r="3" opacity="1" fill="#60A5FA" stroke="none" stroke-width="1"/>
<circle cx="508" cy="926" r="3" opacity="1" fill="#60A5FA" stroke="none" stroke-width="1"/>
<circle cx="586" cy="905" r="3" opacity="1" fill="#60A5FA" stroke="none" stroke-width="1"/>
<circle cx="664" cy="919" r="3" opacity="1" fill="#60A5FA" stroke="none" stroke-width="1"/>
<circle cx="742" cy="928" r="3" opacity="1" fill="#60A5FA" stroke="none" stroke-width="1"/>
<polyline fill="none" opacity="1" stroke="#F87171" stroke-width="2" points="118,1046 196,1025 274,1009 352,997 430,991 508,989 586,986 664,990 742,1003 "/>
<circle cx="118" cy="1046" r="3" opacity="1" fill="#F87171" stroke="none" stroke-width="1"/>
<circle cx="196" cy="1025" r="3" opacity="1" fill="#F87171" stroke="none" stroke-width="1"/>
<circle cx="274" cy="1009" r="3" opacity="1" fill="#F87171" stroke="none" stroke-width="1"/>
<circle cx="352" cy="997" r="3" opacity="1" fill="#F87171" stroke="none" stroke-width="1"/>
<circle cx="430" cy="991" r="3" opacity="1" fill="#F87171" stroke="none" stroke-width="1"/>
<circle cx="508" cy="989" r="3" opacity="1" fill="#F87171" stroke="none" stroke-width="1"/>
<circle cx="586" cy="986" r="3" opacity="1" fill="#F87171" stroke="none" stroke-width="1"/>
<circle cx="664" cy="990" r="3" opacity="1" fill="#F87171" stroke="none" stroke-width="1"/>
<circle cx="742" cy="1003" r="3" opacity="1" fill="#F87171" stroke="none" stroke-width="1"/>
<polyline fill="none" opacity="1" stroke="#F472B6" stroke-width="2" points="118,1048 196,1030 274,1017 352,1007 430,1003 508,1002 586,1000 664,1008 742,1016 "/>
<circle cx="118" cy="1048" r="3" opacity="1" fill="#F472B6" stroke="none" stroke-width="1"/>
<circle cx="196" cy="1030" r="3" opacity="1" fill="#F472B6" stroke="none" stroke-width="1"/>
<circle cx="274" cy="1017" r="3" opacity="1" fill="#F472B6" stroke="none" stroke-width="1"/>
<circle cx="352" cy="1007" r="3" opacity="1" fill="#F472B6" stroke="none" stroke-width="1"/>
<circle cx="430" cy="1003" r="3" opacity="1" fill="#F472B6" stroke="none" stroke-width="1"/>
<circle cx="508" cy="1002" r="3" opacity="1" fill="#F472B6" stroke="none" stroke-width="1"/>
<circle cx="586" cy="1000" r="3" opacity="1" fill="#F472B6" stroke="none" stroke-width="1"/>
<circle cx="664" cy="1008" r="3" opacity="1" fill="#F472B6" stroke="none" stroke-width="1"/>
<circle cx="742" cy="1016" r="3" opacity="1" fill="#F472B6" stroke="none" stroke-width="1"/>
<polyline fill="none" opacity="1" stroke="#F59E0B" stroke-width="2" points="118,1078 196,1065 274,1042 352,1021 430,1006 508,987 586,968 664,976 742,980 "/>
<circle cx="118" cy="1078" r="3" opacity="1" fill="#F59E0B" stroke="none" stroke-width="1"/>
<circle cx="196" cy="1065" r="3" opacity="1" fill="#F59E0B" stroke="none" stroke-width="1"/>
<circle cx="274" cy="1042" r="3" opacity="1" fill="#F59E0B" stroke="none" stroke-width="1"/>
<circle cx="352" cy="1021" r="3" opacity="1" fill="#F59E0B" stroke="none" stroke-width="1"/>
<circle cx="430" cy="1006" r="3" opacity="1" fill="#F59E0B" stroke="none" stroke-width="1"/>
<circle cx="508" cy="987" r="3" opacity="1" fill="#F59E0B" stroke="none" stroke-width="1"/>
<circle cx="586" cy="968" r="3" opacity="1" fill="#F59E0B" stroke="none" stroke-width="1"/>
<circle cx="664" cy="976" r="3" opacity="1" fill="#F59E0B" stroke="none" stroke-width="1"/>
<circle cx="742" cy="980" r="3" opacity="1" fill="#F59E0B" stroke="none" stroke-width="1"/>
<polyline fill="none" opacity="1" stroke="#4ADE80" stroke-width="2" points="118,1085 196,1080 274,1074 352,1070 430,1067 508,1065 586,1063 664,1065 742,1066 "/>
<circle cx="118" cy="1085" r="3" opacity="1" fill="#4ADE80" stroke="none" stroke-width="1"/>
<circle cx="196" cy="1080" r="3" opacity="1" fill="#4ADE80" stroke="none" stroke-width="1"/>
<circle cx="274" cy="1074" r="3" opacity="1" fill="#4ADE80" stroke="none" stroke-width="1"/>
<circle cx="352" cy="1070" r="3" opacity="1" fill="#4ADE80" stroke="none" stroke-width="1"/>
<circle cx="430" cy="1067" r="3" opacity="1" fill="#4ADE80" stroke="none" stroke-width="1"/>
<circle cx="508" cy="1065" r="3" opacity="1" fill="#4ADE80" stroke="none" stroke-width="1"/>
<circle cx="586" cy="1063" r="3" opacity="1" fill="#4ADE80" stroke="none" stroke-width="1"/>
<circle cx="664" cy="1065" r="3" opacity="1" fill="#4ADE80" stroke="none" stroke-width="1"/>
<circle cx="742" cy="1066" r="3" opacity="1" fill="#4ADE80" stroke="none" stroke-width="1"/>
<text x="20" y="581" dy="0.5ex" text-anchor="middle" font-family="sans-serif" font-size="9.67741935483871" opacity="1" fill="#E6EDF3" font-weight="bold" transform="rotate(270, 20, 581)">
decode MB/s
</text>
<rect x="111" y="1145" width="12" height="12" opacity="1" fill="#60A5FA" stroke="none"/>
<text x="129" y="1151" dy="0.5ex" text-anchor="start" font-family="sans-serif" font-size="8.870967741935484" opacity="1" fill="#E6EDF3">
libzstd v1.5.7 (C)
</text>
<rect x="419" y="1145" width="12" height="12" opacity="1" fill="#F87171" stroke="none"/>
<text x="437" y="1151" dy="0.5ex" text-anchor="start" font-family="sans-serif" font-size="8.870967741935484" opacity="1" fill="#E6EDF3">
zrip (safe SIMD + encapsulated unsafe)
</text>
<rect x="111" y="1165" width="12" height="12" opacity="1" fill="#F472B6" stroke="none"/>
<text x="129" y="1171" dy="0.5ex" text-anchor="start" font-family="sans-serif" font-size="8.870967741935484" opacity="1" fill="#E6EDF3">
zrip paranoid (safe SIMD, no unsafe)
</text>
<rect x="419" y="1165" width="12" height="12" opacity="1" fill="#F59E0B" stroke="none"/>
<text x="437" y="1171" dy="0.5ex" text-anchor="start" font-family="sans-serif" font-size="8.870967741935484" opacity="1" fill="#E6EDF3">
structured-zstd v0.0.49 (unsafe)
</text>
<rect x="111" y="1185" width="12" height="12" opacity="1" fill="#4ADE80" stroke="none"/>
<text x="129" y="1191" dy="0.5ex" text-anchor="start" font-family="sans-serif" font-size="8.870967741935484" opacity="1" fill="#E6EDF3">
ruzstd v0.8.3 (safe)
</text>
</svg>
