<svg xmlns="http://www.w3.org/2000/svg" viewBox="0 0 700 429" font-family="system-ui, -apple-system, sans-serif">
  <rect width="700" height="429" fill="#0d1117"/>
  <text x="350.0" y="22" text-anchor="middle" fill="#e6edf3" font-size="14" font-weight="700">zstd Pipeline @100 MB/s: Corpus geomean, Level 1 (lower is better)</text>
  <text x="350.0" y="38" text-anchor="middle" fill="#7d8590" font-size="10">Intel Core i7-8700B @ 3.20GHz, performance governor, turbo off</text>
  <text x="22" y="180.0" text-anchor="middle" fill="#e6edf3" font-size="11" font-weight="600" transform="rotate(-90,22,180.0)">seconds / GB</text>
  <line x1="70" y1="221.8" x2="680" y2="221.8" stroke="#21262d" stroke-width="1"/>
  <text x="62" y="221.8" text-anchor="end" dominant-baseline="middle" fill="#7d8590" font-size="10">10.0</text>
  <line x1="70" y1="138.5" x2="680" y2="138.5" stroke="#21262d" stroke-width="1"/>
  <text x="62" y="138.5" text-anchor="end" dominant-baseline="middle" fill="#7d8590" font-size="10">20.0</text>
  <line x1="70" y1="55.3" x2="680" y2="55.3" stroke="#21262d" stroke-width="1"/>
  <text x="62" y="55.3" text-anchor="end" dominant-baseline="middle" fill="#7d8590" font-size="10">30.0</text>
  <line x1="70" y1="305" x2="680" y2="305" stroke="#30363d" stroke-width="1.5"/>
  <rect x="111.0" y="281.3" width="80.0" height="23.7" fill="#60a5fa" rx="1"/>
  <rect x="111.0" y="257.7" width="80.0" height="23.6" fill="#4680c4" rx="1"/>
  <rect x="111.0" y="250.6" width="80.0" height="7.1" fill="#60a5fa" rx="1"/>
  <text x="151.0" y="321" text-anchor="middle" fill="#e6edf3" font-size="10" font-weight="600">C zstd</text>
  <rect x="223.0" y="270.5" width="80.0" height="34.5" fill="#f87171" rx="1"/>
  <rect x="223.0" y="244.5" width="80.0" height="26.0" fill="#c45050" rx="1"/>
  <rect x="223.0" y="229.1" width="80.0" height="15.3" fill="#f87171" rx="1"/>
  <text x="263.0" y="321" text-anchor="middle" fill="#e6edf3" font-size="10" font-weight="600">zrip</text>
  <rect x="335.0" y="261.6" width="80.0" height="43.4" fill="#f59e0b" rx="1"/>
  <rect x="335.0" y="238.0" width="80.0" height="23.6" fill="#c47d08" rx="1"/>
  <rect x="335.0" y="227.2" width="80.0" height="10.8" fill="#f59e0b" rx="1"/>
  <text x="375.0" y="321" text-anchor="middle" fill="#e6edf3" font-size="10" font-weight="600">structured-zstd</text>
  <rect x="447.0" y="246.4" width="80.0" height="58.6" fill="#f472b6" rx="1"/>
  <rect x="447.0" y="220.4" width="80.0" height="26.0" fill="#c05a92" rx="1"/>
  <rect x="447.0" y="203.6" width="80.0" height="16.8" fill="#f472b6" rx="1"/>
  <text x="487.0" y="321" text-anchor="middle" fill="#e6edf3" font-size="10" font-weight="600">zrip paranoid</text>
  <rect x="559.0" y="154.2" width="80.0" height="150.8" fill="#4ade80" rx="1"/>
  <rect x="559.0" y="123.2" width="80.0" height="30.9" fill="#3aaf60" rx="1"/>
  <rect x="559.0" y="87.6" width="80.0" height="35.6" fill="#4ade80" rx="1"/>
  <text x="599.0" y="321" text-anchor="middle" fill="#e6edf3" font-size="10" font-weight="600">ruzstd</text>
  <rect x="130" y="335" width="12" height="12" fill="#60a5fa" rx="2"/>
  <text x="148" y="345" fill="#e6edf3" font-size="10" font-weight="500">libzstd v1.5.7 (C)</text>
  <rect x="130" y="353" width="12" height="12" fill="#f87171" rx="2"/>
  <text x="148" y="363" fill="#e6edf3" font-size="10" font-weight="500">zrip (safe SIMD + encapsulated unsafe)</text>
  <rect x="130" y="371" width="12" height="12" fill="#f59e0b" rx="2"/>
  <text x="148" y="381" fill="#e6edf3" font-size="10" font-weight="500">structured-zstd v0.0.48 (unsafe)</text>
  <rect x="380" y="335" width="12" height="12" fill="#f472b6" rx="2"/>
  <text x="398" y="345" fill="#e6edf3" font-size="10" font-weight="500">zrip paranoid (safe SIMD, no unsafe)</text>
  <rect x="380" y="353" width="12" height="12" fill="#4ade80" rx="2"/>
  <text x="398" y="363" fill="#e6edf3" font-size="10" font-weight="500">ruzstd v0.8.3 (safe)</text>
  <text x="140" y="406" fill="#e6edf3" font-size="9">bright = compress + decompress</text>
  <text x="380" y="406" fill="#7d8590" font-size="9">dim = transfer @100 MB/s</text>
</svg>
