<svg xmlns="http://www.w3.org/2000/svg" viewBox="0 0 850 950" font-family="system-ui, -apple-system, sans-serif">
  <rect width="850" height="950" fill="#0d1117"/>
  <text x="450.0" y="22" text-anchor="middle" fill="#e6edf3" font-size="14" font-weight="700">zstd Pipeline @1 GB/s: Aggregate across corpus (lower is better)</text>
  <text x="450.0" y="38" text-anchor="middle" fill="#7d8590" font-size="10">Intel Core i7-8700B @ 3.20GHz, performance governor, turbo off</text>
  <text x="22" y="445.0" text-anchor="middle" fill="#e6edf3" font-size="11" font-weight="600" transform="rotate(-90,22,445.0)">seconds / GB</text>
  <text x="450.0" y="64" text-anchor="middle" fill="#e6edf3" font-size="12" font-weight="600">Level 3</text>
  <line x1="70" y1="212.9" x2="830" y2="212.9" stroke="#21262d" stroke-width="1"/>
  <text x="62" y="212.9" text-anchor="end" dominant-baseline="middle" fill="#7d8590" font-size="10">10.0</text>
  <line x1="70" y1="155.9" x2="830" y2="155.9" stroke="#21262d" stroke-width="1"/>
  <text x="62" y="155.9" text-anchor="end" dominant-baseline="middle" fill="#7d8590" font-size="10">20.0</text>
  <line x1="70" y1="98.8" x2="830" y2="98.8" stroke="#21262d" stroke-width="1"/>
  <text x="62" y="98.8" text-anchor="end" dominant-baseline="middle" fill="#7d8590" font-size="10">30.0</text>
  <line x1="70" y1="270" x2="830" y2="270" stroke="#30363d" stroke-width="1.5"/>
  <rect x="108.0" y="241.6" width="50.0" height="28.4" fill="#60a5fa" rx="1"/>
  <rect x="108.0" y="240.1" width="50.0" height="1.5" fill="#4680c4" rx="1"/>
  <rect x="108.0" y="234.3" width="50.0" height="5.8" fill="#60a5fa" rx="1"/>
  <rect x="160.5" y="234.7" width="50.0" height="35.3" fill="#f87171" rx="1"/>
  <rect x="160.5" y="233.0" width="50.0" height="1.7" fill="#c45050" rx="1"/>
  <rect x="160.5" y="223.2" width="50.0" height="9.8" fill="#f87171" rx="1"/>
  <rect x="213.0" y="214.8" width="50.0" height="55.2" fill="#f59e0b" rx="1"/>
  <rect x="213.0" y="213.2" width="50.0" height="1.5" fill="#c47d08" rx="1"/>
  <rect x="213.0" y="201.3" width="50.0" height="11.9" fill="#f59e0b" rx="1"/>
  <text x="186.8" y="288" text-anchor="middle" fill="#e6edf3" font-size="11" font-weight="600">Compressible</text>
  <rect x="488.0" y="219.0" width="50.0" height="51.0" fill="#60a5fa" rx="1"/>
  <rect x="488.0" y="215.7" width="50.0" height="3.4" fill="#4680c4" rx="1"/>
  <rect x="488.0" y="207.8" width="50.0" height="7.9" fill="#60a5fa" rx="1"/>
  <rect x="540.5" y="219.9" width="50.0" height="50.1" fill="#f87171" rx="1"/>
  <rect x="540.5" y="216.2" width="50.0" height="3.7" fill="#c45050" rx="1"/>
  <rect x="540.5" y="208.0" width="50.0" height="8.3" fill="#f87171" rx="1"/>
  <rect x="593.0" y="182.4" width="50.0" height="87.6" fill="#f59e0b" rx="1"/>
  <rect x="593.0" y="178.9" width="50.0" height="3.4" fill="#c47d08" rx="1"/>
  <rect x="593.0" y="166.8" width="50.0" height="12.1" fill="#f59e0b" rx="1"/>
  <text x="566.8" y="288" text-anchor="middle" fill="#e6edf3" font-size="11" font-weight="600">Incompressible</text>
  <text x="450.0" y="339" text-anchor="middle" fill="#e6edf3" font-size="12" font-weight="600">Level 1</text>
  <line x1="70" y1="487.9" x2="830" y2="487.9" stroke="#21262d" stroke-width="1"/>
  <text x="62" y="487.9" text-anchor="end" dominant-baseline="middle" fill="#7d8590" font-size="10">10.0</text>
  <line x1="70" y1="430.9" x2="830" y2="430.9" stroke="#21262d" stroke-width="1"/>
  <text x="62" y="430.9" text-anchor="end" dominant-baseline="middle" fill="#7d8590" font-size="10">20.0</text>
  <line x1="70" y1="373.8" x2="830" y2="373.8" stroke="#21262d" stroke-width="1"/>
  <text x="62" y="373.8" text-anchor="end" dominant-baseline="middle" fill="#7d8590" font-size="10">30.0</text>
  <line x1="70" y1="545" x2="830" y2="545" stroke="#30363d" stroke-width="1.5"/>
  <rect x="108.0" y="527.0" width="50.0" height="18.0" fill="#60a5fa" rx="1"/>
  <rect x="108.0" y="525.4" width="50.0" height="1.6" fill="#4680c4" rx="1"/>
  <rect x="108.0" y="520.2" width="50.0" height="5.2" fill="#60a5fa" rx="1"/>
  <rect x="159.9" y="519.4" width="50.0" height="25.6" fill="#f87171" rx="1"/>
  <rect x="159.9" y="517.6" width="50.0" height="1.8" fill="#c45050" rx="1"/>
  <rect x="159.9" y="506.5" width="50.0" height="11.1" fill="#f87171" rx="1"/>
  <rect x="211.8" y="514.6" width="50.0" height="30.4" fill="#f59e0b" rx="1"/>
  <rect x="211.8" y="513.0" width="50.0" height="1.6" fill="#c47d08" rx="1"/>
  <rect x="211.8" y="502.1" width="50.0" height="10.9" fill="#f59e0b" rx="1"/>
  <rect x="263.6" y="441.0" width="50.0" height="104.0" fill="#4ade80" rx="1"/>
  <rect x="263.6" y="438.9" width="50.0" height="2.1" fill="#3aaf60" rx="1"/>
  <rect x="263.6" y="413.0" width="50.0" height="25.9" fill="#4ade80" rx="1"/>
  <text x="211.8" y="563" text-anchor="middle" fill="#e6edf3" font-size="11" font-weight="600">Compressible</text>
  <rect x="488.0" y="527.6" width="50.0" height="17.4" fill="#60a5fa" rx="1"/>
  <rect x="488.0" y="523.8" width="50.0" height="3.7" fill="#4680c4" rx="1"/>
  <rect x="488.0" y="518.3" width="50.0" height="5.5" fill="#60a5fa" rx="1"/>
  <rect x="539.9" y="517.0" width="50.0" height="28.0" fill="#f87171" rx="1"/>
  <rect x="539.9" y="513.0" width="50.0" height="4.0" fill="#c45050" rx="1"/>
  <rect x="539.9" y="504.8" width="50.0" height="8.2" fill="#f87171" rx="1"/>
  <rect x="591.8" y="511.2" width="50.0" height="33.8" fill="#f59e0b" rx="1"/>
  <rect x="591.8" y="507.4" width="50.0" height="3.7" fill="#c47d08" rx="1"/>
  <rect x="591.8" y="499.1" width="50.0" height="8.3" fill="#f59e0b" rx="1"/>
  <rect x="643.6" y="398.9" width="50.0" height="146.1" fill="#4ade80" rx="1"/>
  <rect x="643.6" y="394.8" width="50.0" height="4.1" fill="#3aaf60" rx="1"/>
  <rect x="643.6" y="371.1" width="50.0" height="23.8" fill="#4ade80" rx="1"/>
  <text x="591.8" y="563" text-anchor="middle" fill="#e6edf3" font-size="11" font-weight="600">Incompressible</text>
  <text x="450.0" y="614" text-anchor="middle" fill="#e6edf3" font-size="12" font-weight="600">Level −1</text>
  <line x1="70" y1="762.9" x2="830" y2="762.9" stroke="#21262d" stroke-width="1"/>
  <text x="62" y="762.9" text-anchor="end" dominant-baseline="middle" fill="#7d8590" font-size="10">10.0</text>
  <line x1="70" y1="705.9" x2="830" y2="705.9" stroke="#21262d" stroke-width="1"/>
  <text x="62" y="705.9" text-anchor="end" dominant-baseline="middle" fill="#7d8590" font-size="10">20.0</text>
  <line x1="70" y1="648.8" x2="830" y2="648.8" stroke="#21262d" stroke-width="1"/>
  <text x="62" y="648.8" text-anchor="end" dominant-baseline="middle" fill="#7d8590" font-size="10">30.0</text>
  <line x1="70" y1="820" x2="830" y2="820" stroke="#30363d" stroke-width="1.5"/>
  <rect x="108.0" y="803.3" width="50.0" height="16.7" fill="#60a5fa" rx="1"/>
  <rect x="108.0" y="801.4" width="50.0" height="1.9" fill="#4680c4" rx="1"/>
  <rect x="108.0" y="796.8" width="50.0" height="4.6" fill="#60a5fa" rx="1"/>
  <rect x="160.5" y="795.2" width="50.0" height="24.8" fill="#f87171" rx="1"/>
  <rect x="160.5" y="793.3" width="50.0" height="1.9" fill="#c45050" rx="1"/>
  <rect x="160.5" y="782.7" width="50.0" height="10.6" fill="#f87171" rx="1"/>
  <rect x="213.0" y="790.1" width="50.0" height="29.9" fill="#f59e0b" rx="1"/>
  <rect x="213.0" y="788.4" width="50.0" height="1.7" fill="#c47d08" rx="1"/>
  <rect x="213.0" y="777.7" width="50.0" height="10.8" fill="#f59e0b" rx="1"/>
  <text x="186.8" y="838" text-anchor="middle" fill="#e6edf3" font-size="11" font-weight="600">Compressible</text>
  <rect x="488.0" y="807.5" width="50.0" height="12.5" fill="#60a5fa" rx="1"/>
  <rect x="488.0" y="803.0" width="50.0" height="4.5" fill="#4680c4" rx="1"/>
  <rect x="488.0" y="800.6" width="50.0" height="2.4" fill="#60a5fa" rx="1"/>
  <rect x="540.5" y="799.3" width="50.0" height="20.7" fill="#f87171" rx="1"/>
  <rect x="540.5" y="795.1" width="50.0" height="4.2" fill="#c45050" rx="1"/>
  <rect x="540.5" y="788.3" width="50.0" height="6.8" fill="#f87171" rx="1"/>
  <rect x="593.0" y="787.8" width="50.0" height="32.2" fill="#f59e0b" rx="1"/>
  <rect x="593.0" y="784.0" width="50.0" height="3.8" fill="#c47d08" rx="1"/>
  <rect x="593.0" y="776.0" width="50.0" height="8.0" fill="#f59e0b" rx="1"/>
  <text x="566.8" y="838" text-anchor="middle" fill="#e6edf3" font-size="11" font-weight="600">Incompressible</text>
  <rect x="250" y="850" width="12" height="12" fill="#60a5fa" rx="2"/>
  <text x="268" y="860" fill="#e6edf3" font-size="10" font-weight="500">C zstd 1.5.7 (libzstd)</text>
  <rect x="250" y="868" width="12" height="12" fill="#f87171" rx="2"/>
  <text x="268" y="878" fill="#e6edf3" font-size="10" font-weight="500">zrip (safe Rust)</text>
  <rect x="250" y="886" width="12" height="12" fill="#f59e0b" rx="2"/>
  <text x="268" y="896" fill="#e6edf3" font-size="10" font-weight="500">structured-zstd 0.0.40 (unsafe Rust)</text>
  <rect x="460" y="850" width="12" height="12" fill="#4ade80" rx="2"/>
  <text x="478" y="860" fill="#e6edf3" font-size="10" font-weight="500">ruzstd 0.8.2 (safe Rust)</text>
  <rect x="460" y="868" width="12" height="12" fill="#c084fc" rx="2"/>
  <text x="478" y="878" fill="#e6edf3" font-size="10" font-weight="500">lz4rip 0.3.1 (safe Rust, LZ4)</text>
  <text x="240" y="921" fill="#e6edf3" font-size="9">bright = compress + decompress</text>
  <text x="480" y="921" fill="#7d8590" font-size="9">dim = transfer @1 GB/s</text>
</svg>
