<svg xmlns="http://www.w3.org/2000/svg" viewBox="0 0 700 429" font-family="system-ui, -apple-system, sans-serif">
  <rect width="700" height="429" fill="#0d1117"/>
  <text x="350.0" y="22" text-anchor="middle" fill="#e6edf3" font-size="14" font-weight="700">zstd Pipeline @100 MB/s: Corpus geomean, Level 1 (lower is better)</text>
  <text x="350.0" y="38" text-anchor="middle" fill="#7d8590" font-size="10">Intel Core i7-8700B @ 3.20GHz, performance governor, turbo off</text>
  <text x="22" y="180.0" text-anchor="middle" fill="#e6edf3" font-size="11" font-weight="600" transform="rotate(-90,22,180.0)">seconds / GB</text>
  <line x1="70" y1="224.7" x2="680" y2="224.7" stroke="#21262d" stroke-width="1"/>
  <text x="62" y="224.7" text-anchor="end" dominant-baseline="middle" fill="#7d8590" font-size="10">10.0</text>
  <line x1="70" y1="144.4" x2="680" y2="144.4" stroke="#21262d" stroke-width="1"/>
  <text x="62" y="144.4" text-anchor="end" dominant-baseline="middle" fill="#7d8590" font-size="10">20.0</text>
  <line x1="70" y1="64.1" x2="680" y2="64.1" stroke="#21262d" stroke-width="1"/>
  <text x="62" y="64.1" text-anchor="end" dominant-baseline="middle" fill="#7d8590" font-size="10">30.0</text>
  <line x1="70" y1="305" x2="680" y2="305" stroke="#30363d" stroke-width="1.5"/>
  <rect x="111.0" y="281.6" width="80.0" height="23.4" fill="#60a5fa" rx="1"/>
  <rect x="111.0" y="258.8" width="80.0" height="22.8" fill="#4680c4" rx="1"/>
  <rect x="111.0" y="251.8" width="80.0" height="7.0" fill="#60a5fa" rx="1"/>
  <text x="151.0" y="321" text-anchor="middle" fill="#e6edf3" font-size="10" font-weight="600">C zstd</text>
  <rect x="223.0" y="271.2" width="80.0" height="33.8" fill="#f87171" rx="1"/>
  <rect x="223.0" y="246.1" width="80.0" height="25.1" fill="#c45050" rx="1"/>
  <rect x="223.0" y="228.0" width="80.0" height="18.1" fill="#f87171" rx="1"/>
  <text x="263.0" y="321" text-anchor="middle" fill="#e6edf3" font-size="10" font-weight="600">zrip</text>
  <rect x="335.0" y="244.6" width="80.0" height="60.4" fill="#f59e0b" rx="1"/>
  <rect x="335.0" y="221.9" width="80.0" height="22.7" fill="#c47d08" rx="1"/>
  <rect x="335.0" y="205.4" width="80.0" height="16.5" fill="#f59e0b" rx="1"/>
  <text x="375.0" y="321" text-anchor="middle" fill="#e6edf3" font-size="10" font-weight="600">structured-zstd</text>
  <rect x="447.0" y="247.5" width="80.0" height="57.5" fill="#f472b6" rx="1"/>
  <rect x="447.0" y="222.4" width="80.0" height="25.1" fill="#c05a92" rx="1"/>
  <rect x="447.0" y="198.3" width="80.0" height="24.1" fill="#f472b6" rx="1"/>
  <text x="487.0" y="321" text-anchor="middle" fill="#e6edf3" font-size="10" font-weight="600">zrip paranoid</text>
  <rect x="559.0" y="152.3" width="80.0" height="152.7" fill="#4ade80" rx="1"/>
  <rect x="559.0" y="122.5" width="80.0" height="29.8" fill="#3aaf60" rx="1"/>
  <rect x="559.0" y="87.6" width="80.0" height="34.9" fill="#4ade80" rx="1"/>
  <text x="599.0" y="321" text-anchor="middle" fill="#e6edf3" font-size="10" font-weight="600">ruzstd</text>
  <rect x="130" y="335" width="12" height="12" fill="#60a5fa" rx="2"/>
  <text x="148" y="345" fill="#e6edf3" font-size="10" font-weight="500">C zstd 1.5.7 (libzstd)</text>
  <rect x="130" y="353" width="12" height="12" fill="#f87171" rx="2"/>
  <text x="148" y="363" fill="#e6edf3" font-size="10" font-weight="500">zrip (encapsulated unsafe, Rust)</text>
  <rect x="130" y="371" width="12" height="12" fill="#f59e0b" rx="2"/>
  <text x="148" y="381" fill="#e6edf3" font-size="10" font-weight="500">structured-zstd 0.0.44 (unsafe Rust)</text>
  <rect x="380" y="335" width="12" height="12" fill="#f472b6" rx="2"/>
  <text x="398" y="345" fill="#e6edf3" font-size="10" font-weight="500">zrip paranoid (safe Rust, no unsafe)</text>
  <rect x="380" y="353" width="12" height="12" fill="#4ade80" rx="2"/>
  <text x="398" y="363" fill="#e6edf3" font-size="10" font-weight="500">ruzstd 0.8.2 (safe Rust)</text>
  <text x="140" y="406" fill="#e6edf3" font-size="9">bright = compress + decompress</text>
  <text x="380" y="406" fill="#7d8590" font-size="9">dim = transfer @100 MB/s</text>
</svg>
