<svg xmlns="http://www.w3.org/2000/svg" viewBox="0 0 850 950" font-family="system-ui, -apple-system, sans-serif">
  <rect width="850" height="950" fill="#0d1117"/>
  <text x="450.0" y="22" text-anchor="middle" fill="#e6edf3" font-size="14" font-weight="700">zstd Pipeline @1 GB/s: Aggregate across corpus (lower is better)</text>
  <text x="450.0" y="38" text-anchor="middle" fill="#7d8590" font-size="10">Intel Core i7-8700B @ 3.20GHz, performance governor, turbo off</text>
  <text x="22" y="445.0" text-anchor="middle" fill="#e6edf3" font-size="11" font-weight="600" transform="rotate(-90,22,445.0)">seconds / GB</text>
  <text x="450.0" y="64" text-anchor="middle" fill="#e6edf3" font-size="12" font-weight="600">Level 3</text>
  <line x1="70" y1="213.3" x2="830" y2="213.3" stroke="#21262d" stroke-width="1"/>
  <text x="62" y="213.3" text-anchor="end" dominant-baseline="middle" fill="#7d8590" font-size="10">10.0</text>
  <line x1="70" y1="156.6" x2="830" y2="156.6" stroke="#21262d" stroke-width="1"/>
  <text x="62" y="156.6" text-anchor="end" dominant-baseline="middle" fill="#7d8590" font-size="10">20.0</text>
  <line x1="70" y1="99.9" x2="830" y2="99.9" stroke="#21262d" stroke-width="1"/>
  <text x="62" y="99.9" text-anchor="end" dominant-baseline="middle" fill="#7d8590" font-size="10">30.0</text>
  <line x1="70" y1="270" x2="830" y2="270" stroke="#30363d" stroke-width="1.5"/>
  <rect x="108.0" y="241.4" width="50.0" height="28.6" fill="#60a5fa" rx="1"/>
  <rect x="108.0" y="239.9" width="50.0" height="1.5" fill="#4680c4" rx="1"/>
  <rect x="108.0" y="234.1" width="50.0" height="5.8" fill="#60a5fa" rx="1"/>
  <rect x="160.5" y="234.4" width="50.0" height="35.6" fill="#f87171" rx="1"/>
  <rect x="160.5" y="232.7" width="50.0" height="1.7" fill="#c45050" rx="1"/>
  <rect x="160.5" y="223.1" width="50.0" height="9.6" fill="#f87171" rx="1"/>
  <rect x="213.0" y="210.1" width="50.0" height="59.9" fill="#f59e0b" rx="1"/>
  <rect x="213.0" y="208.6" width="50.0" height="1.5" fill="#c47d08" rx="1"/>
  <rect x="213.0" y="196.7" width="50.0" height="11.9" fill="#f59e0b" rx="1"/>
  <text x="186.8" y="288" text-anchor="middle" fill="#e6edf3" font-size="11" font-weight="600">Compressible</text>
  <rect x="488.0" y="218.4" width="50.0" height="51.6" fill="#60a5fa" rx="1"/>
  <rect x="488.0" y="215.1" width="50.0" height="3.3" fill="#4680c4" rx="1"/>
  <rect x="488.0" y="207.2" width="50.0" height="7.9" fill="#60a5fa" rx="1"/>
  <rect x="540.5" y="219.8" width="50.0" height="50.2" fill="#f87171" rx="1"/>
  <rect x="540.5" y="216.2" width="50.0" height="3.6" fill="#c45050" rx="1"/>
  <rect x="540.5" y="207.9" width="50.0" height="8.3" fill="#f87171" rx="1"/>
  <rect x="593.0" y="177.1" width="50.0" height="92.9" fill="#f59e0b" rx="1"/>
  <rect x="593.0" y="173.7" width="50.0" height="3.4" fill="#c47d08" rx="1"/>
  <rect x="593.0" y="161.7" width="50.0" height="12.0" fill="#f59e0b" rx="1"/>
  <text x="566.8" y="288" text-anchor="middle" fill="#e6edf3" font-size="11" font-weight="600">Incompressible</text>
  <text x="450.0" y="339" text-anchor="middle" fill="#e6edf3" font-size="12" font-weight="600">Level 1</text>
  <line x1="70" y1="488.3" x2="830" y2="488.3" stroke="#21262d" stroke-width="1"/>
  <text x="62" y="488.3" text-anchor="end" dominant-baseline="middle" fill="#7d8590" font-size="10">10.0</text>
  <line x1="70" y1="431.6" x2="830" y2="431.6" stroke="#21262d" stroke-width="1"/>
  <text x="62" y="431.6" text-anchor="end" dominant-baseline="middle" fill="#7d8590" font-size="10">20.0</text>
  <line x1="70" y1="374.9" x2="830" y2="374.9" stroke="#21262d" stroke-width="1"/>
  <text x="62" y="374.9" text-anchor="end" dominant-baseline="middle" fill="#7d8590" font-size="10">30.0</text>
  <line x1="70" y1="545" x2="830" y2="545" stroke="#30363d" stroke-width="1.5"/>
  <rect x="108.0" y="527.1" width="50.0" height="17.9" fill="#60a5fa" rx="1"/>
  <rect x="108.0" y="525.5" width="50.0" height="1.6" fill="#4680c4" rx="1"/>
  <rect x="108.0" y="520.3" width="50.0" height="5.2" fill="#60a5fa" rx="1"/>
  <rect x="159.9" y="518.8" width="50.0" height="26.2" fill="#f87171" rx="1"/>
  <rect x="159.9" y="517.0" width="50.0" height="1.8" fill="#c45050" rx="1"/>
  <rect x="159.9" y="506.1" width="50.0" height="10.9" fill="#f87171" rx="1"/>
  <rect x="211.8" y="514.8" width="50.0" height="30.2" fill="#f59e0b" rx="1"/>
  <rect x="211.8" y="513.2" width="50.0" height="1.6" fill="#c47d08" rx="1"/>
  <rect x="211.8" y="502.4" width="50.0" height="10.8" fill="#f59e0b" rx="1"/>
  <rect x="263.6" y="440.9" width="50.0" height="104.1" fill="#4ade80" rx="1"/>
  <rect x="263.6" y="438.8" width="50.0" height="2.1" fill="#3aaf60" rx="1"/>
  <rect x="263.6" y="413.0" width="50.0" height="25.9" fill="#4ade80" rx="1"/>
  <text x="211.8" y="563" text-anchor="middle" fill="#e6edf3" font-size="11" font-weight="600">Compressible</text>
  <rect x="488.0" y="527.7" width="50.0" height="17.3" fill="#60a5fa" rx="1"/>
  <rect x="488.0" y="524.0" width="50.0" height="3.7" fill="#4680c4" rx="1"/>
  <rect x="488.0" y="518.4" width="50.0" height="5.6" fill="#60a5fa" rx="1"/>
  <rect x="539.9" y="515.2" width="50.0" height="29.8" fill="#f87171" rx="1"/>
  <rect x="539.9" y="511.2" width="50.0" height="4.0" fill="#c45050" rx="1"/>
  <rect x="539.9" y="503.1" width="50.0" height="8.1" fill="#f87171" rx="1"/>
  <rect x="591.8" y="511.5" width="50.0" height="33.5" fill="#f59e0b" rx="1"/>
  <rect x="591.8" y="507.8" width="50.0" height="3.7" fill="#c47d08" rx="1"/>
  <rect x="591.8" y="499.5" width="50.0" height="8.3" fill="#f59e0b" rx="1"/>
  <rect x="643.6" y="398.9" width="50.0" height="146.1" fill="#4ade80" rx="1"/>
  <rect x="643.6" y="394.8" width="50.0" height="4.1" fill="#3aaf60" rx="1"/>
  <rect x="643.6" y="371.1" width="50.0" height="23.7" fill="#4ade80" rx="1"/>
  <text x="591.8" y="563" text-anchor="middle" fill="#e6edf3" font-size="11" font-weight="600">Incompressible</text>
  <text x="450.0" y="614" text-anchor="middle" fill="#e6edf3" font-size="12" font-weight="600">Level −1</text>
  <line x1="70" y1="763.3" x2="830" y2="763.3" stroke="#21262d" stroke-width="1"/>
  <text x="62" y="763.3" text-anchor="end" dominant-baseline="middle" fill="#7d8590" font-size="10">10.0</text>
  <line x1="70" y1="706.6" x2="830" y2="706.6" stroke="#21262d" stroke-width="1"/>
  <text x="62" y="706.6" text-anchor="end" dominant-baseline="middle" fill="#7d8590" font-size="10">20.0</text>
  <line x1="70" y1="649.9" x2="830" y2="649.9" stroke="#21262d" stroke-width="1"/>
  <text x="62" y="649.9" text-anchor="end" dominant-baseline="middle" fill="#7d8590" font-size="10">30.0</text>
  <line x1="70" y1="820" x2="830" y2="820" stroke="#30363d" stroke-width="1.5"/>
  <rect x="108.0" y="803.4" width="50.0" height="16.6" fill="#60a5fa" rx="1"/>
  <rect x="108.0" y="801.4" width="50.0" height="1.9" fill="#4680c4" rx="1"/>
  <rect x="108.0" y="796.9" width="50.0" height="4.6" fill="#60a5fa" rx="1"/>
  <rect x="159.9" y="793.0" width="50.0" height="27.0" fill="#f87171" rx="1"/>
  <rect x="159.9" y="791.0" width="50.0" height="2.0" fill="#c45050" rx="1"/>
  <rect x="159.9" y="780.8" width="50.0" height="10.2" fill="#f87171" rx="1"/>
  <rect x="211.8" y="790.2" width="50.0" height="29.8" fill="#f59e0b" rx="1"/>
  <rect x="211.8" y="788.6" width="50.0" height="1.7" fill="#c47d08" rx="1"/>
  <rect x="211.8" y="777.9" width="50.0" height="10.7" fill="#f59e0b" rx="1"/>
  <rect x="263.6" y="806.6" width="50.0" height="13.4" fill="#c084fc" rx="1"/>
  <rect x="263.6" y="804.2" width="50.0" height="2.4" fill="#9966cc" rx="1"/>
  <rect x="263.6" y="799.8" width="50.0" height="4.4" fill="#c084fc" rx="1"/>
  <text x="211.8" y="838" text-anchor="middle" fill="#e6edf3" font-size="11" font-weight="600">Compressible</text>
  <rect x="488.0" y="807.5" width="50.0" height="12.5" fill="#60a5fa" rx="1"/>
  <rect x="488.0" y="803.1" width="50.0" height="4.4" fill="#4680c4" rx="1"/>
  <rect x="488.0" y="800.7" width="50.0" height="2.4" fill="#60a5fa" rx="1"/>
  <rect x="539.9" y="795.2" width="50.0" height="24.8" fill="#f87171" rx="1"/>
  <rect x="539.9" y="791.0" width="50.0" height="4.2" fill="#c45050" rx="1"/>
  <rect x="539.9" y="784.6" width="50.0" height="6.4" fill="#f87171" rx="1"/>
  <rect x="591.8" y="788.2" width="50.0" height="31.8" fill="#f59e0b" rx="1"/>
  <rect x="591.8" y="784.4" width="50.0" height="3.8" fill="#c47d08" rx="1"/>
  <rect x="591.8" y="776.5" width="50.0" height="7.9" fill="#f59e0b" rx="1"/>
  <rect x="643.6" y="813.9" width="50.0" height="6.1" fill="#c084fc" rx="1"/>
  <rect x="643.6" y="809.2" width="50.0" height="4.7" fill="#9966cc" rx="1"/>
  <rect x="643.6" y="807.7" width="50.0" height="1.6" fill="#c084fc" rx="1"/>
  <text x="591.8" y="838" text-anchor="middle" fill="#e6edf3" font-size="11" font-weight="600">Incompressible</text>
  <rect x="250" y="850" width="12" height="12" fill="#60a5fa" rx="2"/>
  <text x="268" y="860" fill="#e6edf3" font-size="10" font-weight="500">C zstd (libzstd)</text>
  <rect x="250" y="868" width="12" height="12" fill="#f87171" rx="2"/>
  <text x="268" y="878" fill="#e6edf3" font-size="10" font-weight="500">zrip (safe Rust)</text>
  <rect x="250" y="886" width="12" height="12" fill="#f59e0b" rx="2"/>
  <text x="268" y="896" fill="#e6edf3" font-size="10" font-weight="500">structured-zstd (unsafe Rust)</text>
  <rect x="460" y="850" width="12" height="12" fill="#4ade80" rx="2"/>
  <text x="478" y="860" fill="#e6edf3" font-size="10" font-weight="500">ruzstd (safe Rust)</text>
  <rect x="460" y="868" width="12" height="12" fill="#c084fc" rx="2"/>
  <text x="478" y="878" fill="#e6edf3" font-size="10" font-weight="500">lz4rip (safe Rust, LZ4)</text>
  <text x="240" y="921" fill="#e6edf3" font-size="9">bright = compress + decompress</text>
  <text x="480" y="921" fill="#7d8590" font-size="9">dim = transfer @1 GB/s</text>
</svg>
