<svg xmlns="http://www.w3.org/2000/svg" viewBox="0 0 700 411" font-family="system-ui, -apple-system, sans-serif">
  <rect width="700" height="411" fill="#0d1117"/>
  <text x="350.0" y="22" text-anchor="middle" fill="#e6edf3" font-size="14" font-weight="700">zstd Pipeline @100 MB/s: Corpus geomean, Level 1 (lower is better)</text>
  <text x="350.0" y="38" text-anchor="middle" fill="#7d8590" font-size="10">Intel Core i7-8700B @ 3.20GHz, performance governor, turbo off</text>
  <text x="22" y="180.0" text-anchor="middle" fill="#e6edf3" font-size="11" font-weight="600" transform="rotate(-90,22,180.0)">seconds / GB</text>
  <line x1="70" y1="258.3" x2="680" y2="258.3" stroke="#21262d" stroke-width="1"/>
  <text x="62" y="258.3" text-anchor="end" dominant-baseline="middle" fill="#7d8590" font-size="10">5.0</text>
  <line x1="70" y1="211.7" x2="680" y2="211.7" stroke="#21262d" stroke-width="1"/>
  <text x="62" y="211.7" text-anchor="end" dominant-baseline="middle" fill="#7d8590" font-size="10">10.0</text>
  <line x1="70" y1="165.0" x2="680" y2="165.0" stroke="#21262d" stroke-width="1"/>
  <text x="62" y="165.0" text-anchor="end" dominant-baseline="middle" fill="#7d8590" font-size="10">15.0</text>
  <line x1="70" y1="118.3" x2="680" y2="118.3" stroke="#21262d" stroke-width="1"/>
  <text x="62" y="118.3" text-anchor="end" dominant-baseline="middle" fill="#7d8590" font-size="10">20.0</text>
  <line x1="70" y1="71.7" x2="680" y2="71.7" stroke="#21262d" stroke-width="1"/>
  <text x="62" y="71.7" text-anchor="end" dominant-baseline="middle" fill="#7d8590" font-size="10">25.0</text>
  <line x1="70" y1="305" x2="680" y2="305" stroke="#30363d" stroke-width="1.5"/>
  <rect x="167.0" y="283.5" width="80.0" height="21.5" fill="#60a5fa" rx="1"/>
  <rect x="167.0" y="264.8" width="80.0" height="18.7" fill="#4680c4" rx="1"/>
  <rect x="167.0" y="257.9" width="80.0" height="6.8" fill="#60a5fa" rx="1"/>
  <text x="207.0" y="321" text-anchor="middle" fill="#e6edf3" font-size="10" font-weight="600">C zstd</text>
  <rect x="279.0" y="273.1" width="80.0" height="31.9" fill="#f87171" rx="1"/>
  <rect x="279.0" y="252.0" width="80.0" height="21.1" fill="#c45050" rx="1"/>
  <rect x="279.0" y="240.7" width="80.0" height="11.3" fill="#f87171" rx="1"/>
  <text x="319.0" y="321" text-anchor="middle" fill="#e6edf3" font-size="10" font-weight="600">zrip</text>
  <rect x="391.0" y="253.6" width="80.0" height="51.4" fill="#f59e0b" rx="1"/>
  <rect x="391.0" y="227.1" width="80.0" height="26.5" fill="#c47d08" rx="1"/>
  <rect x="391.0" y="213.2" width="80.0" height="13.8" fill="#f59e0b" rx="1"/>
  <text x="431.0" y="321" text-anchor="middle" fill="#e6edf3" font-size="10" font-weight="600">structured-zstd</text>
  <rect x="503.0" y="149.1" width="80.0" height="155.9" fill="#4ade80" rx="1"/>
  <rect x="503.0" y="123.4" width="80.0" height="25.7" fill="#3aaf60" rx="1"/>
  <rect x="503.0" y="87.6" width="80.0" height="35.8" fill="#4ade80" rx="1"/>
  <text x="543.0" y="321" text-anchor="middle" fill="#e6edf3" font-size="10" font-weight="600">ruzstd</text>
  <rect x="150" y="335" width="12" height="12" fill="#60a5fa" rx="2"/>
  <text x="168" y="345" fill="#e6edf3" font-size="10" font-weight="500">C zstd 1.5.7 (libzstd)</text>
  <rect x="150" y="353" width="12" height="12" fill="#f87171" rx="2"/>
  <text x="168" y="363" fill="#e6edf3" font-size="10" font-weight="500">zrip (encapsulated unsafe, Rust)</text>
  <rect x="360" y="335" width="12" height="12" fill="#f59e0b" rx="2"/>
  <text x="378" y="345" fill="#e6edf3" font-size="10" font-weight="500">structured-zstd 0.0.41 (unsafe Rust)</text>
  <rect x="360" y="353" width="12" height="12" fill="#4ade80" rx="2"/>
  <text x="378" y="363" fill="#e6edf3" font-size="10" font-weight="500">ruzstd 0.8.2 (safe Rust)</text>
  <text x="140" y="388" fill="#e6edf3" font-size="9">bright = compress + decompress</text>
  <text x="380" y="388" fill="#7d8590" font-size="9">dim = transfer @100 MB/s</text>
</svg>
