<svg xmlns="http://www.w3.org/2000/svg" viewBox="0 0 850 930" font-family="system-ui, -apple-system, sans-serif">
  <rect width="850" height="930" fill="#0d1117"/>
  <text x="450.0" y="22" text-anchor="middle" fill="#e6edf3" font-size="14" font-weight="700">zstd Pipeline @1 GB/s: Aggregate across corpus (lower is better)</text>
  <text x="450.0" y="38" text-anchor="middle" fill="#7d8590" font-size="10">Intel Core i7-8700B @ 3.20GHz, performance governor, turbo off</text>
  <text x="22" y="445.0" text-anchor="middle" fill="#e6edf3" font-size="11" font-weight="600" transform="rotate(-90,22,445.0)">seconds / GB</text>
  <text x="450.0" y="64" text-anchor="middle" fill="#e6edf3" font-size="12" font-weight="600">Level 3</text>
  <line x1="70" y1="213.4" x2="830" y2="213.4" stroke="#21262d" stroke-width="1"/>
  <text x="62" y="213.4" text-anchor="end" dominant-baseline="middle" fill="#7d8590" font-size="10">10.0</text>
  <line x1="70" y1="156.8" x2="830" y2="156.8" stroke="#21262d" stroke-width="1"/>
  <text x="62" y="156.8" text-anchor="end" dominant-baseline="middle" fill="#7d8590" font-size="10">20.0</text>
  <line x1="70" y1="100.1" x2="830" y2="100.1" stroke="#21262d" stroke-width="1"/>
  <text x="62" y="100.1" text-anchor="end" dominant-baseline="middle" fill="#7d8590" font-size="10">30.0</text>
  <line x1="70" y1="270" x2="830" y2="270" stroke="#30363d" stroke-width="1.5"/>
  <rect x="108.0" y="241.4" width="50.0" height="28.6" fill="#60a5fa" rx="1"/>
  <rect x="108.0" y="239.9" width="50.0" height="1.5" fill="#4680c4" rx="1"/>
  <rect x="108.0" y="234.1" width="50.0" height="5.8" fill="#60a5fa" rx="1"/>
  <rect x="160.5" y="232.4" width="50.0" height="37.6" fill="#f87171" rx="1"/>
  <rect x="160.5" y="230.8" width="50.0" height="1.6" fill="#c45050" rx="1"/>
  <rect x="160.5" y="221.2" width="50.0" height="9.6" fill="#f87171" rx="1"/>
  <rect x="213.0" y="210.2" width="50.0" height="59.8" fill="#f59e0b" rx="1"/>
  <rect x="213.0" y="208.7" width="50.0" height="1.5" fill="#c47d08" rx="1"/>
  <rect x="213.0" y="196.8" width="50.0" height="11.8" fill="#f59e0b" rx="1"/>
  <text x="186.8" y="288" text-anchor="middle" fill="#e6edf3" font-size="11" font-weight="600">Compressible</text>
  <rect x="488.0" y="218.5" width="50.0" height="51.5" fill="#60a5fa" rx="1"/>
  <rect x="488.0" y="215.2" width="50.0" height="3.3" fill="#4680c4" rx="1"/>
  <rect x="488.0" y="207.3" width="50.0" height="7.8" fill="#60a5fa" rx="1"/>
  <rect x="540.5" y="216.0" width="50.0" height="54.0" fill="#f87171" rx="1"/>
  <rect x="540.5" y="212.5" width="50.0" height="3.5" fill="#c45050" rx="1"/>
  <rect x="540.5" y="203.7" width="50.0" height="8.8" fill="#f87171" rx="1"/>
  <rect x="593.0" y="177.3" width="50.0" height="92.7" fill="#f59e0b" rx="1"/>
  <rect x="593.0" y="173.8" width="50.0" height="3.4" fill="#c47d08" rx="1"/>
  <rect x="593.0" y="161.9" width="50.0" height="12.0" fill="#f59e0b" rx="1"/>
  <text x="566.8" y="288" text-anchor="middle" fill="#e6edf3" font-size="11" font-weight="600">Incompressible</text>
  <text x="450.0" y="339" text-anchor="middle" fill="#e6edf3" font-size="12" font-weight="600">Level 1</text>
  <line x1="70" y1="488.4" x2="830" y2="488.4" stroke="#21262d" stroke-width="1"/>
  <text x="62" y="488.4" text-anchor="end" dominant-baseline="middle" fill="#7d8590" font-size="10">10.0</text>
  <line x1="70" y1="431.8" x2="830" y2="431.8" stroke="#21262d" stroke-width="1"/>
  <text x="62" y="431.8" text-anchor="end" dominant-baseline="middle" fill="#7d8590" font-size="10">20.0</text>
  <line x1="70" y1="375.1" x2="830" y2="375.1" stroke="#21262d" stroke-width="1"/>
  <text x="62" y="375.1" text-anchor="end" dominant-baseline="middle" fill="#7d8590" font-size="10">30.0</text>
  <line x1="70" y1="545" x2="830" y2="545" stroke="#30363d" stroke-width="1.5"/>
  <rect x="108.0" y="527.1" width="50.0" height="17.9" fill="#60a5fa" rx="1"/>
  <rect x="108.0" y="525.5" width="50.0" height="1.6" fill="#4680c4" rx="1"/>
  <rect x="108.0" y="520.4" width="50.0" height="5.1" fill="#60a5fa" rx="1"/>
  <rect x="159.9" y="514.9" width="50.0" height="30.1" fill="#f87171" rx="1"/>
  <rect x="159.9" y="513.2" width="50.0" height="1.7" fill="#c45050" rx="1"/>
  <rect x="159.9" y="501.8" width="50.0" height="11.4" fill="#f87171" rx="1"/>
  <rect x="211.8" y="514.7" width="50.0" height="30.3" fill="#f59e0b" rx="1"/>
  <rect x="211.8" y="513.1" width="50.0" height="1.6" fill="#c47d08" rx="1"/>
  <rect x="211.8" y="502.4" width="50.0" height="10.8" fill="#f59e0b" rx="1"/>
  <rect x="263.6" y="441.1" width="50.0" height="103.9" fill="#4ade80" rx="1"/>
  <rect x="263.6" y="439.0" width="50.0" height="2.1" fill="#3aaf60" rx="1"/>
  <rect x="263.6" y="412.2" width="50.0" height="26.8" fill="#4ade80" rx="1"/>
  <text x="211.8" y="563" text-anchor="middle" fill="#e6edf3" font-size="11" font-weight="600">Compressible</text>
  <rect x="488.0" y="527.6" width="50.0" height="17.4" fill="#60a5fa" rx="1"/>
  <rect x="488.0" y="523.9" width="50.0" height="3.7" fill="#4680c4" rx="1"/>
  <rect x="488.0" y="518.4" width="50.0" height="5.5" fill="#60a5fa" rx="1"/>
  <rect x="539.9" y="497.3" width="50.0" height="47.7" fill="#f87171" rx="1"/>
  <rect x="539.9" y="493.6" width="50.0" height="3.6" fill="#c45050" rx="1"/>
  <rect x="539.9" y="482.4" width="50.0" height="11.2" fill="#f87171" rx="1"/>
  <rect x="591.8" y="511.5" width="50.0" height="33.5" fill="#f59e0b" rx="1"/>
  <rect x="591.8" y="507.8" width="50.0" height="3.7" fill="#c47d08" rx="1"/>
  <rect x="591.8" y="499.6" width="50.0" height="8.2" fill="#f59e0b" rx="1"/>
  <rect x="643.6" y="398.8" width="50.0" height="146.2" fill="#4ade80" rx="1"/>
  <rect x="643.6" y="394.8" width="50.0" height="4.1" fill="#3aaf60" rx="1"/>
  <rect x="643.6" y="371.1" width="50.0" height="23.7" fill="#4ade80" rx="1"/>
  <text x="591.8" y="563" text-anchor="middle" fill="#e6edf3" font-size="11" font-weight="600">Incompressible</text>
  <text x="450.0" y="614" text-anchor="middle" fill="#e6edf3" font-size="12" font-weight="600">Level −1</text>
  <line x1="70" y1="763.4" x2="830" y2="763.4" stroke="#21262d" stroke-width="1"/>
  <text x="62" y="763.4" text-anchor="end" dominant-baseline="middle" fill="#7d8590" font-size="10">10.0</text>
  <line x1="70" y1="706.8" x2="830" y2="706.8" stroke="#21262d" stroke-width="1"/>
  <text x="62" y="706.8" text-anchor="end" dominant-baseline="middle" fill="#7d8590" font-size="10">20.0</text>
  <line x1="70" y1="650.1" x2="830" y2="650.1" stroke="#21262d" stroke-width="1"/>
  <text x="62" y="650.1" text-anchor="end" dominant-baseline="middle" fill="#7d8590" font-size="10">30.0</text>
  <line x1="70" y1="820" x2="830" y2="820" stroke="#30363d" stroke-width="1.5"/>
  <rect x="108.0" y="803.4" width="50.0" height="16.6" fill="#60a5fa" rx="1"/>
  <rect x="108.0" y="801.5" width="50.0" height="1.9" fill="#4680c4" rx="1"/>
  <rect x="108.0" y="796.9" width="50.0" height="4.6" fill="#60a5fa" rx="1"/>
  <rect x="160.5" y="792.3" width="50.0" height="27.7" fill="#f87171" rx="1"/>
  <rect x="160.5" y="790.3" width="50.0" height="2.0" fill="#c45050" rx="1"/>
  <rect x="160.5" y="780.1" width="50.0" height="10.2" fill="#f87171" rx="1"/>
  <rect x="213.0" y="790.3" width="50.0" height="29.7" fill="#f59e0b" rx="1"/>
  <rect x="213.0" y="788.6" width="50.0" height="1.7" fill="#c47d08" rx="1"/>
  <rect x="213.0" y="777.9" width="50.0" height="10.7" fill="#f59e0b" rx="1"/>
  <text x="186.8" y="838" text-anchor="middle" fill="#e6edf3" font-size="11" font-weight="600">Compressible</text>
  <rect x="488.0" y="807.5" width="50.0" height="12.5" fill="#60a5fa" rx="1"/>
  <rect x="488.0" y="803.1" width="50.0" height="4.4" fill="#4680c4" rx="1"/>
  <rect x="488.0" y="800.7" width="50.0" height="2.4" fill="#60a5fa" rx="1"/>
  <rect x="540.5" y="794.8" width="50.0" height="25.2" fill="#f87171" rx="1"/>
  <rect x="540.5" y="790.6" width="50.0" height="4.2" fill="#c45050" rx="1"/>
  <rect x="540.5" y="784.4" width="50.0" height="6.2" fill="#f87171" rx="1"/>
  <rect x="593.0" y="788.2" width="50.0" height="31.8" fill="#f59e0b" rx="1"/>
  <rect x="593.0" y="784.5" width="50.0" height="3.8" fill="#c47d08" rx="1"/>
  <rect x="593.0" y="776.6" width="50.0" height="7.9" fill="#f59e0b" rx="1"/>
  <text x="566.8" y="838" text-anchor="middle" fill="#e6edf3" font-size="11" font-weight="600">Incompressible</text>
  <rect x="250" y="850" width="12" height="12" fill="#60a5fa" rx="2"/>
  <text x="268" y="860" fill="#e6edf3" font-size="10" font-weight="500">C zstd (libzstd)</text>
  <rect x="250" y="868" width="12" height="12" fill="#f87171" rx="2"/>
  <text x="268" y="878" fill="#e6edf3" font-size="10" font-weight="500">zrip (safe Rust)</text>
  <rect x="460" y="850" width="12" height="12" fill="#f59e0b" rx="2"/>
  <text x="478" y="860" fill="#e6edf3" font-size="10" font-weight="500">structured-zstd (unsafe Rust)</text>
  <rect x="460" y="868" width="12" height="12" fill="#4ade80" rx="2"/>
  <text x="478" y="878" fill="#e6edf3" font-size="10" font-weight="500">ruzstd (safe Rust)</text>
  <text x="240" y="903" fill="#e6edf3" font-size="9">bright = compress + decompress</text>
  <text x="480" y="903" fill="#7d8590" font-size="9">dim = transfer @1 GB/s</text>
</svg>
