<svg xmlns="http://www.w3.org/2000/svg" viewBox="0 0 850 950" font-family="system-ui, -apple-system, sans-serif">
  <rect width="850" height="950" fill="#0d1117"/>
  <text x="450.0" y="22" text-anchor="middle" fill="#e6edf3" font-size="14" font-weight="700">zstd Pipeline @100 MB/s: Aggregate across corpus (lower is better)</text>
  <text x="450.0" y="38" text-anchor="middle" fill="#7d8590" font-size="10">wasmtime (wasm32-wasip1), Linux VM on Intel Core i7-8700B @ 3.20GHz</text>
  <text x="22" y="445.0" text-anchor="middle" fill="#e6edf3" font-size="11" font-weight="600" transform="rotate(-90,22,445.0)">seconds / GB</text>
  <text x="450.0" y="64" text-anchor="middle" fill="#e6edf3" font-size="12" font-weight="600">High compressibility</text>
  <line x1="70" y1="191.3" x2="830" y2="191.3" stroke="#21262d" stroke-width="1"/>
  <text x="62" y="191.3" text-anchor="end" dominant-baseline="middle" fill="#7d8590" font-size="10">5.0</text>
  <line x1="70" y1="112.7" x2="830" y2="112.7" stroke="#21262d" stroke-width="1"/>
  <text x="62" y="112.7" text-anchor="end" dominant-baseline="middle" fill="#7d8590" font-size="10">10.0</text>
  <line x1="70" y1="270" x2="830" y2="270" stroke="#30363d" stroke-width="1.5"/>
  <rect x="95.3" y="221.9" width="44.3" height="48.1" fill="#60a5fa" rx="1"/>
  <rect x="95.3" y="195.7" width="44.3" height="26.2" fill="#4680c4" rx="1"/>
  <rect x="95.3" y="175.0" width="44.3" height="20.8" fill="#60a5fa" rx="1"/>
  <rect x="141.3" y="220.0" width="44.3" height="50.0" fill="#f87171" rx="1"/>
  <rect x="141.3" y="192.3" width="44.3" height="27.6" fill="#c45050" rx="1"/>
  <rect x="141.3" y="171.1" width="44.3" height="21.2" fill="#f87171" rx="1"/>
  <rect x="187.3" y="195.1" width="44.3" height="74.9" fill="#f59e0b" rx="1"/>
  <rect x="187.3" y="172.7" width="44.3" height="22.5" fill="#c47d08" rx="1"/>
  <rect x="187.3" y="148.3" width="44.3" height="24.4" fill="#f59e0b" rx="1"/>
  <rect x="233.3" y="180.0" width="44.3" height="90.0" fill="#f472b6" rx="1"/>
  <rect x="233.3" y="152.4" width="44.3" height="27.6" fill="#c05a92" rx="1"/>
  <rect x="233.3" y="109.6" width="44.3" height="42.8" fill="#f472b6" rx="1"/>
  <text x="196.7" y="288" text-anchor="middle" fill="#e6edf3" font-size="11" font-weight="600">Level −1</text>
  <rect x="348.7" y="221.3" width="44.3" height="48.7" fill="#60a5fa" rx="1"/>
  <rect x="348.7" y="199.3" width="44.3" height="22.0" fill="#4680c4" rx="1"/>
  <rect x="348.7" y="177.7" width="44.3" height="21.6" fill="#60a5fa" rx="1"/>
  <rect x="394.7" y="216.0" width="44.3" height="54.0" fill="#f87171" rx="1"/>
  <rect x="394.7" y="190.8" width="44.3" height="25.2" fill="#c45050" rx="1"/>
  <rect x="394.7" y="165.3" width="44.3" height="25.5" fill="#f87171" rx="1"/>
  <rect x="440.7" y="193.3" width="44.3" height="76.7" fill="#f59e0b" rx="1"/>
  <rect x="440.7" y="171.3" width="44.3" height="22.0" fill="#c47d08" rx="1"/>
  <rect x="440.7" y="146.0" width="44.3" height="25.3" fill="#f59e0b" rx="1"/>
  <rect x="486.7" y="170.2" width="44.3" height="99.8" fill="#f472b6" rx="1"/>
  <rect x="486.7" y="145.0" width="44.3" height="25.2" fill="#c05a92" rx="1"/>
  <rect x="486.7" y="96.1" width="44.3" height="48.9" fill="#f472b6" rx="1"/>
  <text x="450.0" y="288" text-anchor="middle" fill="#e6edf3" font-size="11" font-weight="600">Level 1</text>
  <rect x="602.0" y="205.6" width="44.3" height="64.4" fill="#60a5fa" rx="1"/>
  <rect x="602.0" y="184.8" width="44.3" height="20.7" fill="#4680c4" rx="1"/>
  <rect x="602.0" y="162.0" width="44.3" height="22.8" fill="#60a5fa" rx="1"/>
  <rect x="648.0" y="203.9" width="44.3" height="66.1" fill="#f87171" rx="1"/>
  <rect x="648.0" y="180.8" width="44.3" height="23.1" fill="#c45050" rx="1"/>
  <rect x="648.0" y="159.1" width="44.3" height="21.6" fill="#f87171" rx="1"/>
  <rect x="694.0" y="145.7" width="44.3" height="124.3" fill="#f59e0b" rx="1"/>
  <rect x="694.0" y="125.1" width="44.3" height="20.6" fill="#c47d08" rx="1"/>
  <rect x="694.0" y="98.9" width="44.3" height="26.3" fill="#f59e0b" rx="1"/>
  <rect x="740.0" y="163.0" width="44.3" height="107.0" fill="#f472b6" rx="1"/>
  <rect x="740.0" y="139.8" width="44.3" height="23.1" fill="#c05a92" rx="1"/>
  <rect x="740.0" y="96.6" width="44.3" height="43.2" fill="#f472b6" rx="1"/>
  <text x="703.3" y="288" text-anchor="middle" fill="#e6edf3" font-size="11" font-weight="600">Level 3</text>
  <text x="450.0" y="339" text-anchor="middle" fill="#e6edf3" font-size="12" font-weight="600">Medium compressibility</text>
  <line x1="70" y1="509.2" x2="830" y2="509.2" stroke="#21262d" stroke-width="1"/>
  <text x="62" y="509.2" text-anchor="end" dominant-baseline="middle" fill="#7d8590" font-size="10">5.0</text>
  <line x1="70" y1="473.5" x2="830" y2="473.5" stroke="#21262d" stroke-width="1"/>
  <text x="62" y="473.5" text-anchor="end" dominant-baseline="middle" fill="#7d8590" font-size="10">10.0</text>
  <line x1="70" y1="437.7" x2="830" y2="437.7" stroke="#21262d" stroke-width="1"/>
  <text x="62" y="437.7" text-anchor="end" dominant-baseline="middle" fill="#7d8590" font-size="10">15.0</text>
  <line x1="70" y1="402.0" x2="830" y2="402.0" stroke="#21262d" stroke-width="1"/>
  <text x="62" y="402.0" text-anchor="end" dominant-baseline="middle" fill="#7d8590" font-size="10">20.0</text>
  <line x1="70" y1="366.2" x2="830" y2="366.2" stroke="#21262d" stroke-width="1"/>
  <text x="62" y="366.2" text-anchor="end" dominant-baseline="middle" fill="#7d8590" font-size="10">25.0</text>
  <line x1="70" y1="545" x2="830" y2="545" stroke="#30363d" stroke-width="1.5"/>
  <rect x="95.3" y="504.8" width="44.3" height="40.2" fill="#60a5fa" rx="1"/>
  <rect x="95.3" y="473.3" width="44.3" height="31.5" fill="#4680c4" rx="1"/>
  <rect x="95.3" y="459.3" width="44.3" height="13.9" fill="#60a5fa" rx="1"/>
  <rect x="141.3" y="502.4" width="44.3" height="42.6" fill="#f87171" rx="1"/>
  <rect x="141.3" y="470.9" width="44.3" height="31.5" fill="#c45050" rx="1"/>
  <rect x="141.3" y="456.8" width="44.3" height="14.1" fill="#f87171" rx="1"/>
  <rect x="187.3" y="482.9" width="44.3" height="62.1" fill="#f59e0b" rx="1"/>
  <rect x="187.3" y="455.6" width="44.3" height="27.3" fill="#c47d08" rx="1"/>
  <rect x="187.3" y="438.6" width="44.3" height="16.9" fill="#f59e0b" rx="1"/>
  <rect x="233.3" y="467.9" width="44.3" height="77.1" fill="#f472b6" rx="1"/>
  <rect x="233.3" y="436.4" width="44.3" height="31.5" fill="#c05a92" rx="1"/>
  <rect x="233.3" y="403.4" width="44.3" height="33.0" fill="#f472b6" rx="1"/>
  <text x="196.7" y="563" text-anchor="middle" fill="#e6edf3" font-size="11" font-weight="600">Level −1</text>
  <rect x="348.7" y="501.4" width="44.3" height="43.6" fill="#60a5fa" rx="1"/>
  <rect x="348.7" y="475.1" width="44.3" height="26.3" fill="#4680c4" rx="1"/>
  <rect x="348.7" y="459.1" width="44.3" height="16.0" fill="#60a5fa" rx="1"/>
  <rect x="394.7" y="494.6" width="44.3" height="50.4" fill="#f87171" rx="1"/>
  <rect x="394.7" y="466.4" width="44.3" height="28.2" fill="#c45050" rx="1"/>
  <rect x="394.7" y="446.6" width="44.3" height="19.7" fill="#f87171" rx="1"/>
  <rect x="440.7" y="481.1" width="44.3" height="63.9" fill="#f59e0b" rx="1"/>
  <rect x="440.7" y="454.7" width="44.3" height="26.4" fill="#c47d08" rx="1"/>
  <rect x="440.7" y="437.0" width="44.3" height="17.7" fill="#f59e0b" rx="1"/>
  <rect x="486.7" y="452.7" width="44.3" height="92.3" fill="#f472b6" rx="1"/>
  <rect x="486.7" y="424.5" width="44.3" height="28.2" fill="#c05a92" rx="1"/>
  <rect x="486.7" y="384.4" width="44.3" height="40.1" fill="#f472b6" rx="1"/>
  <text x="450.0" y="563" text-anchor="middle" fill="#e6edf3" font-size="11" font-weight="600">Level 1</text>
  <rect x="602.0" y="476.6" width="44.3" height="68.4" fill="#60a5fa" rx="1"/>
  <rect x="602.0" y="452.8" width="44.3" height="23.9" fill="#4680c4" rx="1"/>
  <rect x="602.0" y="434.1" width="44.3" height="18.7" fill="#60a5fa" rx="1"/>
  <rect x="648.0" y="477.9" width="44.3" height="67.1" fill="#f87171" rx="1"/>
  <rect x="648.0" y="451.5" width="44.3" height="26.3" fill="#c45050" rx="1"/>
  <rect x="648.0" y="435.6" width="44.3" height="15.9" fill="#f87171" rx="1"/>
  <rect x="694.0" y="416.9" width="44.3" height="128.1" fill="#f59e0b" rx="1"/>
  <rect x="694.0" y="393.0" width="44.3" height="23.9" fill="#c47d08" rx="1"/>
  <rect x="694.0" y="371.1" width="44.3" height="21.9" fill="#f59e0b" rx="1"/>
  <rect x="740.0" y="437.8" width="44.3" height="107.2" fill="#f472b6" rx="1"/>
  <rect x="740.0" y="411.5" width="44.3" height="26.3" fill="#c05a92" rx="1"/>
  <rect x="740.0" y="375.3" width="44.3" height="36.1" fill="#f472b6" rx="1"/>
  <text x="703.3" y="563" text-anchor="middle" fill="#e6edf3" font-size="11" font-weight="600">Level 3</text>
  <text x="450.0" y="614" text-anchor="middle" fill="#e6edf3" font-size="12" font-weight="600">Low compressibility</text>
  <line x1="70" y1="773.1" x2="830" y2="773.1" stroke="#21262d" stroke-width="1"/>
  <text x="62" y="773.1" text-anchor="end" dominant-baseline="middle" fill="#7d8590" font-size="10">10.0</text>
  <line x1="70" y1="726.3" x2="830" y2="726.3" stroke="#21262d" stroke-width="1"/>
  <text x="62" y="726.3" text-anchor="end" dominant-baseline="middle" fill="#7d8590" font-size="10">20.0</text>
  <line x1="70" y1="679.4" x2="830" y2="679.4" stroke="#21262d" stroke-width="1"/>
  <text x="62" y="679.4" text-anchor="end" dominant-baseline="middle" fill="#7d8590" font-size="10">30.0</text>
  <line x1="70" y1="632.6" x2="830" y2="632.6" stroke="#21262d" stroke-width="1"/>
  <text x="62" y="632.6" text-anchor="end" dominant-baseline="middle" fill="#7d8590" font-size="10">40.0</text>
  <line x1="70" y1="820" x2="830" y2="820" stroke="#30363d" stroke-width="1.5"/>
  <rect x="95.3" y="804.8" width="44.3" height="15.2" fill="#60a5fa" rx="1"/>
  <rect x="95.3" y="760.0" width="44.3" height="44.7" fill="#4680c4" rx="1"/>
  <rect x="95.3" y="756.8" width="44.3" height="3.2" fill="#60a5fa" rx="1"/>
  <rect x="141.3" y="808.6" width="44.3" height="11.4" fill="#f87171" rx="1"/>
  <rect x="141.3" y="763.6" width="44.3" height="45.0" fill="#c45050" rx="1"/>
  <rect x="141.3" y="761.0" width="44.3" height="2.6" fill="#f87171" rx="1"/>
  <rect x="187.3" y="780.5" width="44.3" height="39.5" fill="#f59e0b" rx="1"/>
  <rect x="187.3" y="741.3" width="44.3" height="39.2" fill="#c47d08" rx="1"/>
  <rect x="187.3" y="733.4" width="44.3" height="7.9" fill="#f59e0b" rx="1"/>
  <rect x="233.3" y="801.9" width="44.3" height="18.1" fill="#f472b6" rx="1"/>
  <rect x="233.3" y="756.9" width="44.3" height="45.0" fill="#c05a92" rx="1"/>
  <rect x="233.3" y="752.5" width="44.3" height="4.4" fill="#f472b6" rx="1"/>
  <text x="196.7" y="838" text-anchor="middle" fill="#e6edf3" font-size="11" font-weight="600">Level −1</text>
  <rect x="348.7" y="782.9" width="44.3" height="37.1" fill="#60a5fa" rx="1"/>
  <rect x="348.7" y="744.1" width="44.3" height="38.8" fill="#4680c4" rx="1"/>
  <rect x="348.7" y="731.0" width="44.3" height="13.0" fill="#60a5fa" rx="1"/>
  <rect x="394.7" y="790.6" width="44.3" height="29.4" fill="#f87171" rx="1"/>
  <rect x="394.7" y="749.3" width="44.3" height="41.3" fill="#c45050" rx="1"/>
  <rect x="394.7" y="742.8" width="44.3" height="6.5" fill="#f87171" rx="1"/>
  <rect x="440.7" y="778.2" width="44.3" height="41.8" fill="#f59e0b" rx="1"/>
  <rect x="440.7" y="739.4" width="44.3" height="38.8" fill="#c47d08" rx="1"/>
  <rect x="440.7" y="731.3" width="44.3" height="8.1" fill="#f59e0b" rx="1"/>
  <rect x="486.7" y="769.2" width="44.3" height="50.8" fill="#f472b6" rx="1"/>
  <rect x="486.7" y="727.8" width="44.3" height="41.3" fill="#c05a92" rx="1"/>
  <rect x="486.7" y="714.4" width="44.3" height="13.5" fill="#f472b6" rx="1"/>
  <text x="450.0" y="838" text-anchor="middle" fill="#e6edf3" font-size="11" font-weight="600">Level 1</text>
  <rect x="602.0" y="737.1" width="44.3" height="82.9" fill="#60a5fa" rx="1"/>
  <rect x="602.0" y="702.5" width="44.3" height="34.6" fill="#4680c4" rx="1"/>
  <rect x="602.0" y="687.1" width="44.3" height="15.4" fill="#60a5fa" rx="1"/>
  <rect x="648.0" y="760.1" width="44.3" height="59.9" fill="#f87171" rx="1"/>
  <rect x="648.0" y="723.0" width="44.3" height="37.2" fill="#c45050" rx="1"/>
  <rect x="648.0" y="712.5" width="44.3" height="10.4" fill="#f87171" rx="1"/>
  <rect x="694.0" y="695.2" width="44.3" height="124.8" fill="#f59e0b" rx="1"/>
  <rect x="694.0" y="660.0" width="44.3" height="35.2" fill="#c47d08" rx="1"/>
  <rect x="694.0" y="646.1" width="44.3" height="14.0" fill="#f59e0b" rx="1"/>
  <rect x="740.0" y="727.9" width="44.3" height="92.1" fill="#f472b6" rx="1"/>
  <rect x="740.0" y="690.8" width="44.3" height="37.2" fill="#c05a92" rx="1"/>
  <rect x="740.0" y="668.5" width="44.3" height="22.2" fill="#f472b6" rx="1"/>
  <text x="703.3" y="838" text-anchor="middle" fill="#e6edf3" font-size="11" font-weight="600">Level 3</text>
  <rect x="230" y="850" width="12" height="12" fill="#60a5fa" rx="2"/>
  <text x="248" y="860" fill="#e6edf3" font-size="10" font-weight="500">C zstd 1.5.7 (libzstd wasm)</text>
  <rect x="230" y="868" width="12" height="12" fill="#f87171" rx="2"/>
  <text x="248" y="878" fill="#e6edf3" font-size="10" font-weight="500">zrip (SIMD128)</text>
  <rect x="480" y="850" width="12" height="12" fill="#f59e0b" rx="2"/>
  <text x="498" y="860" fill="#e6edf3" font-size="10" font-weight="500">structured-zstd 0.0.45</text>
  <rect x="480" y="868" width="12" height="12" fill="#f472b6" rx="2"/>
  <text x="498" y="878" fill="#e6edf3" font-size="10" font-weight="500">zrip paranoid (safe Rust, no unsafe)</text>
  <text x="240" y="903" fill="#e6edf3" font-size="9">bright = compress + decompress</text>
  <text x="480" y="903" fill="#7d8590" font-size="9">dim = transfer @100 MB/s</text>
</svg>
