<svg xmlns="http://www.w3.org/2000/svg" viewBox="0 0 850 950" font-family="system-ui, -apple-system, sans-serif">
  <rect width="850" height="950" fill="#0d1117"/>
  <text x="450.0" y="22" text-anchor="middle" fill="#e6edf3" font-size="14" font-weight="700">zstd Pipeline @100 MB/s: Aggregate across corpus (lower is better)</text>
  <text x="450.0" y="38" text-anchor="middle" fill="#7d8590" font-size="10">wasmtime (wasm32-wasip1)</text>
  <text x="22" y="445.0" text-anchor="middle" fill="#e6edf3" font-size="11" font-weight="600" transform="rotate(-90,22,445.0)">seconds / GB</text>
  <text x="450.0" y="64" text-anchor="middle" fill="#e6edf3" font-size="12" font-weight="600">High compressibility</text>
  <line x1="70" y1="205.2" x2="830" y2="205.2" stroke="#21262d" stroke-width="1"/>
  <text x="62" y="205.2" text-anchor="end" dominant-baseline="middle" fill="#7d8590" font-size="10">2.0</text>
  <line x1="70" y1="140.5" x2="830" y2="140.5" stroke="#21262d" stroke-width="1"/>
  <text x="62" y="140.5" text-anchor="end" dominant-baseline="middle" fill="#7d8590" font-size="10">4.0</text>
  <line x1="70" y1="75.7" x2="830" y2="75.7" stroke="#21262d" stroke-width="1"/>
  <text x="62" y="75.7" text-anchor="end" dominant-baseline="middle" fill="#7d8590" font-size="10">6.0</text>
  <line x1="70" y1="270" x2="830" y2="270" stroke="#30363d" stroke-width="1.5"/>
  <rect x="95.3" y="232.5" width="44.3" height="37.5" fill="#60a5fa" rx="1"/>
  <rect x="95.3" y="174.8" width="44.3" height="57.8" fill="#4680c4" rx="1"/>
  <rect x="95.3" y="157.9" width="44.3" height="16.9" fill="#60a5fa" rx="1"/>
  <rect x="141.3" y="223.7" width="44.3" height="46.3" fill="#f87171" rx="1"/>
  <rect x="141.3" y="162.2" width="44.3" height="61.5" fill="#c45050" rx="1"/>
  <rect x="141.3" y="145.4" width="44.3" height="16.8" fill="#f87171" rx="1"/>
  <rect x="187.3" y="207.5" width="44.3" height="62.5" fill="#f59e0b" rx="1"/>
  <rect x="187.3" y="157.5" width="44.3" height="50.0" fill="#c47d08" rx="1"/>
  <rect x="187.3" y="136.9" width="44.3" height="20.6" fill="#f59e0b" rx="1"/>
  <rect x="233.3" y="196.0" width="44.3" height="74.0" fill="#f472b6" rx="1"/>
  <rect x="233.3" y="134.5" width="44.3" height="61.5" fill="#c05a92" rx="1"/>
  <rect x="233.3" y="103.7" width="44.3" height="30.8" fill="#f472b6" rx="1"/>
  <text x="196.7" y="288" text-anchor="middle" fill="#e6edf3" font-size="11" font-weight="600">Level −1</text>
  <rect x="348.7" y="230.0" width="44.3" height="40.0" fill="#60a5fa" rx="1"/>
  <rect x="348.7" y="181.1" width="44.3" height="49.0" fill="#4680c4" rx="1"/>
  <rect x="348.7" y="163.2" width="44.3" height="17.9" fill="#60a5fa" rx="1"/>
  <rect x="394.7" y="218.6" width="44.3" height="51.4" fill="#f87171" rx="1"/>
  <rect x="394.7" y="162.5" width="44.3" height="56.1" fill="#c45050" rx="1"/>
  <rect x="394.7" y="142.2" width="44.3" height="20.3" fill="#f87171" rx="1"/>
  <rect x="440.7" y="205.8" width="44.3" height="64.2" fill="#f59e0b" rx="1"/>
  <rect x="440.7" y="156.8" width="44.3" height="49.0" fill="#c47d08" rx="1"/>
  <rect x="440.7" y="136.3" width="44.3" height="20.5" fill="#f59e0b" rx="1"/>
  <rect x="486.7" y="187.6" width="44.3" height="82.4" fill="#f472b6" rx="1"/>
  <rect x="486.7" y="131.4" width="44.3" height="56.1" fill="#c05a92" rx="1"/>
  <rect x="486.7" y="96.1" width="44.3" height="35.4" fill="#f472b6" rx="1"/>
  <text x="450.0" y="288" text-anchor="middle" fill="#e6edf3" font-size="11" font-weight="600">Level 1</text>
  <rect x="602.0" y="218.2" width="44.3" height="51.8" fill="#60a5fa" rx="1"/>
  <rect x="602.0" y="172.2" width="44.3" height="46.0" fill="#4680c4" rx="1"/>
  <rect x="602.0" y="153.2" width="44.3" height="19.0" fill="#60a5fa" rx="1"/>
  <rect x="648.0" y="215.0" width="44.3" height="55.0" fill="#f87171" rx="1"/>
  <rect x="648.0" y="163.6" width="44.3" height="51.5" fill="#c45050" rx="1"/>
  <rect x="648.0" y="147.0" width="44.3" height="16.6" fill="#f87171" rx="1"/>
  <rect x="694.0" y="168.5" width="44.3" height="101.5" fill="#f59e0b" rx="1"/>
  <rect x="694.0" y="120.9" width="44.3" height="47.6" fill="#c47d08" rx="1"/>
  <rect x="694.0" y="101.5" width="44.3" height="19.4" fill="#f59e0b" rx="1"/>
  <rect x="740.0" y="185.0" width="44.3" height="85.0" fill="#f472b6" rx="1"/>
  <rect x="740.0" y="133.5" width="44.3" height="51.5" fill="#c05a92" rx="1"/>
  <rect x="740.0" y="103.6" width="44.3" height="29.9" fill="#f472b6" rx="1"/>
  <text x="703.3" y="288" text-anchor="middle" fill="#e6edf3" font-size="11" font-weight="600">Level 3</text>
  <text x="450.0" y="339" text-anchor="middle" fill="#e6edf3" font-size="12" font-weight="600">Medium compressibility</text>
  <line x1="70" y1="466.4" x2="830" y2="466.4" stroke="#21262d" stroke-width="1"/>
  <text x="62" y="466.4" text-anchor="end" dominant-baseline="middle" fill="#7d8590" font-size="10">5.0</text>
  <line x1="70" y1="387.9" x2="830" y2="387.9" stroke="#21262d" stroke-width="1"/>
  <text x="62" y="387.9" text-anchor="end" dominant-baseline="middle" fill="#7d8590" font-size="10">10.0</text>
  <line x1="70" y1="545" x2="830" y2="545" stroke="#30363d" stroke-width="1.5"/>
  <rect x="95.3" y="513.7" width="44.3" height="31.3" fill="#60a5fa" rx="1"/>
  <rect x="95.3" y="443.8" width="44.3" height="69.9" fill="#4680c4" rx="1"/>
  <rect x="95.3" y="432.8" width="44.3" height="11.0" fill="#60a5fa" rx="1"/>
  <rect x="141.3" y="504.9" width="44.3" height="40.1" fill="#f87171" rx="1"/>
  <rect x="141.3" y="435.1" width="44.3" height="69.7" fill="#c45050" rx="1"/>
  <rect x="141.3" y="423.6" width="44.3" height="11.6" fill="#f87171" rx="1"/>
  <rect x="187.3" y="495.8" width="44.3" height="49.2" fill="#f59e0b" rx="1"/>
  <rect x="187.3" y="435.4" width="44.3" height="60.4" fill="#c47d08" rx="1"/>
  <rect x="187.3" y="420.3" width="44.3" height="15.1" fill="#f59e0b" rx="1"/>
  <rect x="233.3" y="478.2" width="44.3" height="66.8" fill="#f472b6" rx="1"/>
  <rect x="233.3" y="408.5" width="44.3" height="69.7" fill="#c05a92" rx="1"/>
  <rect x="233.3" y="383.4" width="44.3" height="25.0" fill="#f472b6" rx="1"/>
  <text x="196.7" y="563" text-anchor="middle" fill="#e6edf3" font-size="11" font-weight="600">Level −1</text>
  <rect x="348.7" y="511.1" width="44.3" height="33.9" fill="#60a5fa" rx="1"/>
  <rect x="348.7" y="453.0" width="44.3" height="58.1" fill="#4680c4" rx="1"/>
  <rect x="348.7" y="439.6" width="44.3" height="13.4" fill="#60a5fa" rx="1"/>
  <rect x="394.7" y="496.5" width="44.3" height="48.5" fill="#f87171" rx="1"/>
  <rect x="394.7" y="434.3" width="44.3" height="62.3" fill="#c45050" rx="1"/>
  <rect x="394.7" y="418.6" width="44.3" height="15.6" fill="#f87171" rx="1"/>
  <rect x="440.7" y="494.5" width="44.3" height="50.5" fill="#f59e0b" rx="1"/>
  <rect x="440.7" y="436.2" width="44.3" height="58.3" fill="#c47d08" rx="1"/>
  <rect x="440.7" y="421.2" width="44.3" height="15.0" fill="#f59e0b" rx="1"/>
  <rect x="486.7" y="466.6" width="44.3" height="78.4" fill="#f472b6" rx="1"/>
  <rect x="486.7" y="404.3" width="44.3" height="62.3" fill="#c05a92" rx="1"/>
  <rect x="486.7" y="373.2" width="44.3" height="31.1" fill="#f472b6" rx="1"/>
  <text x="450.0" y="563" text-anchor="middle" fill="#e6edf3" font-size="11" font-weight="600">Level 1</text>
  <rect x="602.0" y="492.1" width="44.3" height="52.9" fill="#60a5fa" rx="1"/>
  <rect x="602.0" y="439.3" width="44.3" height="52.8" fill="#4680c4" rx="1"/>
  <rect x="602.0" y="423.7" width="44.3" height="15.6" fill="#60a5fa" rx="1"/>
  <rect x="648.0" y="487.6" width="44.3" height="57.4" fill="#f87171" rx="1"/>
  <rect x="648.0" y="429.5" width="44.3" height="58.2" fill="#c45050" rx="1"/>
  <rect x="648.0" y="416.8" width="44.3" height="12.6" fill="#f87171" rx="1"/>
  <rect x="694.0" y="446.6" width="44.3" height="98.4" fill="#f59e0b" rx="1"/>
  <rect x="694.0" y="393.0" width="44.3" height="53.6" fill="#c47d08" rx="1"/>
  <rect x="694.0" y="376.5" width="44.3" height="16.5" fill="#f59e0b" rx="1"/>
  <rect x="740.0" y="456.2" width="44.3" height="88.8" fill="#f472b6" rx="1"/>
  <rect x="740.0" y="398.0" width="44.3" height="58.2" fill="#c05a92" rx="1"/>
  <rect x="740.0" y="371.1" width="44.3" height="26.9" fill="#f472b6" rx="1"/>
  <text x="703.3" y="563" text-anchor="middle" fill="#e6edf3" font-size="11" font-weight="600">Level 3</text>
  <text x="450.0" y="614" text-anchor="middle" fill="#e6edf3" font-size="12" font-weight="600">Low compressibility</text>
  <line x1="70" y1="767.7" x2="830" y2="767.7" stroke="#21262d" stroke-width="1"/>
  <text x="62" y="767.7" text-anchor="end" dominant-baseline="middle" fill="#7d8590" font-size="10">5.0</text>
  <line x1="70" y1="715.5" x2="830" y2="715.5" stroke="#21262d" stroke-width="1"/>
  <text x="62" y="715.5" text-anchor="end" dominant-baseline="middle" fill="#7d8590" font-size="10">10.0</text>
  <line x1="70" y1="663.2" x2="830" y2="663.2" stroke="#21262d" stroke-width="1"/>
  <text x="62" y="663.2" text-anchor="end" dominant-baseline="middle" fill="#7d8590" font-size="10">15.0</text>
  <line x1="70" y1="820" x2="830" y2="820" stroke="#30363d" stroke-width="1.5"/>
  <rect x="95.3" y="810.3" width="44.3" height="9.7" fill="#60a5fa" rx="1"/>
  <rect x="95.3" y="710.4" width="44.3" height="99.8" fill="#4680c4" rx="1"/>
  <rect x="95.3" y="708.2" width="44.3" height="2.2" fill="#60a5fa" rx="1"/>
  <rect x="141.3" y="809.8" width="44.3" height="10.2" fill="#f87171" rx="1"/>
  <rect x="141.3" y="709.4" width="44.3" height="100.3" fill="#c45050" rx="1"/>
  <rect x="141.3" y="707.4" width="44.3" height="2.1" fill="#f87171" rx="1"/>
  <rect x="187.3" y="792.6" width="44.3" height="27.4" fill="#f59e0b" rx="1"/>
  <rect x="187.3" y="705.1" width="44.3" height="87.6" fill="#c47d08" rx="1"/>
  <rect x="187.3" y="696.0" width="44.3" height="9.1" fill="#f59e0b" rx="1"/>
  <rect x="233.3" y="804.5" width="44.3" height="15.5" fill="#f472b6" rx="1"/>
  <rect x="233.3" y="704.2" width="44.3" height="100.3" fill="#c05a92" rx="1"/>
  <rect x="233.3" y="700.8" width="44.3" height="3.4" fill="#f472b6" rx="1"/>
  <text x="196.7" y="838" text-anchor="middle" fill="#e6edf3" font-size="11" font-weight="600">Level −1</text>
  <rect x="348.7" y="800.9" width="44.3" height="19.1" fill="#60a5fa" rx="1"/>
  <rect x="348.7" y="714.3" width="44.3" height="86.6" fill="#4680c4" rx="1"/>
  <rect x="348.7" y="704.0" width="44.3" height="10.4" fill="#60a5fa" rx="1"/>
  <rect x="394.7" y="793.4" width="44.3" height="26.6" fill="#f87171" rx="1"/>
  <rect x="394.7" y="701.2" width="44.3" height="92.2" fill="#c45050" rx="1"/>
  <rect x="394.7" y="695.6" width="44.3" height="5.6" fill="#f87171" rx="1"/>
  <rect x="440.7" y="791.2" width="44.3" height="28.8" fill="#f59e0b" rx="1"/>
  <rect x="440.7" y="704.6" width="44.3" height="86.6" fill="#c47d08" rx="1"/>
  <rect x="440.7" y="695.3" width="44.3" height="9.2" fill="#f59e0b" rx="1"/>
  <rect x="486.7" y="775.7" width="44.3" height="44.3" fill="#f472b6" rx="1"/>
  <rect x="486.7" y="683.5" width="44.3" height="92.2" fill="#c05a92" rx="1"/>
  <rect x="486.7" y="672.8" width="44.3" height="10.7" fill="#f472b6" rx="1"/>
  <text x="450.0" y="838" text-anchor="middle" fill="#e6edf3" font-size="11" font-weight="600">Level 1</text>
  <rect x="602.0" y="766.9" width="44.3" height="53.1" fill="#60a5fa" rx="1"/>
  <rect x="602.0" y="689.6" width="44.3" height="77.3" fill="#4680c4" rx="1"/>
  <rect x="602.0" y="676.2" width="44.3" height="13.4" fill="#60a5fa" rx="1"/>
  <rect x="648.0" y="773.6" width="44.3" height="46.4" fill="#f87171" rx="1"/>
  <rect x="648.0" y="690.7" width="44.3" height="82.9" fill="#c45050" rx="1"/>
  <rect x="648.0" y="682.4" width="44.3" height="8.3" fill="#f87171" rx="1"/>
  <rect x="694.0" y="748.4" width="44.3" height="71.6" fill="#f59e0b" rx="1"/>
  <rect x="694.0" y="669.2" width="44.3" height="79.2" fill="#c47d08" rx="1"/>
  <rect x="694.0" y="657.2" width="44.3" height="12.0" fill="#f59e0b" rx="1"/>
  <rect x="740.0" y="745.5" width="44.3" height="74.5" fill="#f472b6" rx="1"/>
  <rect x="740.0" y="662.6" width="44.3" height="82.9" fill="#c05a92" rx="1"/>
  <rect x="740.0" y="646.1" width="44.3" height="16.5" fill="#f472b6" rx="1"/>
  <text x="703.3" y="838" text-anchor="middle" fill="#e6edf3" font-size="11" font-weight="600">Level 3</text>
  <rect x="230" y="850" width="12" height="12" fill="#60a5fa" rx="2"/>
  <text x="248" y="860" fill="#e6edf3" font-size="10" font-weight="500">C zstd 1.5.7 (libzstd wasm)</text>
  <rect x="230" y="868" width="12" height="12" fill="#f87171" rx="2"/>
  <text x="248" y="878" fill="#e6edf3" font-size="10" font-weight="500">zrip (SIMD128)</text>
  <rect x="480" y="850" width="12" height="12" fill="#f59e0b" rx="2"/>
  <text x="498" y="860" fill="#e6edf3" font-size="10" font-weight="500">structured-zstd 0.0.44</text>
  <rect x="480" y="868" width="12" height="12" fill="#f472b6" rx="2"/>
  <text x="498" y="878" fill="#e6edf3" font-size="10" font-weight="500">zrip paranoid (no SIMD)</text>
  <text x="240" y="903" fill="#e6edf3" font-size="9">bright = compress + decompress</text>
  <text x="480" y="903" fill="#7d8590" font-size="9">dim = transfer @100 MB/s</text>
</svg>
