<svg xmlns="http://www.w3.org/2000/svg" viewBox="0 0 850 720" font-family="system-ui, -apple-system, sans-serif">
  <rect width="850" height="720" fill="#0d1117"/>
  <text x="442.5" y="22" text-anchor="middle" fill="#e6edf3" font-size="14" font-weight="700">zstd Pipeline @100 MB/s: Per-file, Level 1 (lower is better)</text>
  <text x="442.5" y="38" text-anchor="middle" fill="#7d8590" font-size="10">wasmtime (wasm32-wasip1), Linux VM on Intel Core i7-8700B @ 3.20GHz</text>
  <line x1="55" y1="218.0" x2="830" y2="218.0" stroke="#21262d" stroke-width="1"/>
  <text x="47" y="218.0" text-anchor="end" dominant-baseline="middle" fill="#7d8590" font-size="10">10</text>
  <line x1="55" y1="146.1" x2="830" y2="146.1" stroke="#21262d" stroke-width="1"/>
  <text x="47" y="146.1" text-anchor="end" dominant-baseline="middle" fill="#7d8590" font-size="10">20</text>
  <line x1="55" y1="74.1" x2="830" y2="74.1" stroke="#21262d" stroke-width="1"/>
  <text x="47" y="74.1" text-anchor="end" dominant-baseline="middle" fill="#7d8590" font-size="10">30</text>
  <line x1="55" y1="290" x2="830" y2="290" stroke="#30363d" stroke-width="1.5"/>
  <text x="22" y="325.0" text-anchor="middle" fill="#e6edf3" font-size="11" font-weight="600" transform="rotate(-90,22,325.0)">seconds / GB</text>
  <rect x="71.1" y="234.1" width="24.2" height="55.9" fill="#60a5fa" rx="1"/>
  <rect x="71.1" y="204.1" width="24.2" height="30.1" fill="#4680c4" rx="1"/>
  <rect x="71.1" y="186.6" width="24.2" height="17.4" fill="#60a5fa" rx="1"/>
  <rect x="95.4" y="222.5" width="24.2" height="67.5" fill="#f87171" rx="1"/>
  <rect x="95.4" y="190.4" width="24.2" height="32.2" fill="#c45050" rx="1"/>
  <rect x="95.4" y="164.2" width="24.2" height="26.1" fill="#f87171" rx="1"/>
  <rect x="119.6" y="213.1" width="24.2" height="76.9" fill="#f59e0b" rx="1"/>
  <rect x="119.6" y="183.0" width="24.2" height="30.1" fill="#c47d08" rx="1"/>
  <rect x="119.6" y="163.8" width="24.2" height="19.2" fill="#f59e0b" rx="1"/>
  <rect x="143.8" y="162.5" width="24.2" height="127.5" fill="#f472b6" rx="1"/>
  <rect x="143.8" y="130.4" width="24.2" height="32.2" fill="#c05a92" rx="1"/>
  <rect x="143.8" y="71.8" width="24.2" height="58.6" fill="#f472b6" rx="1"/>
  <text x="119.6" y="306" text-anchor="middle" fill="#e6edf3" font-size="10" font-weight="600">dickens</text>
  <text x="119.6" y="318" text-anchor="middle" fill="#7d8590" font-size="9">10.2 MB</text>
  <rect x="200.3" y="278.0" width="24.2" height="12.0" fill="#60a5fa" rx="1"/>
  <rect x="200.3" y="274.4" width="24.2" height="3.6" fill="#4680c4" rx="1"/>
  <rect x="200.3" y="268.4" width="24.2" height="6.0" fill="#60a5fa" rx="1"/>
  <rect x="224.5" y="276.3" width="24.2" height="13.7" fill="#f87171" rx="1"/>
  <rect x="224.5" y="272.2" width="24.2" height="4.2" fill="#c45050" rx="1"/>
  <rect x="224.5" y="264.9" width="24.2" height="7.2" fill="#f87171" rx="1"/>
  <rect x="248.8" y="269.4" width="24.2" height="20.6" fill="#f59e0b" rx="1"/>
  <rect x="248.8" y="265.8" width="24.2" height="3.6" fill="#c47d08" rx="1"/>
  <rect x="248.8" y="258.7" width="24.2" height="7.1" fill="#f59e0b" rx="1"/>
  <rect x="273.0" y="265.0" width="24.2" height="25.0" fill="#f472b6" rx="1"/>
  <rect x="273.0" y="260.8" width="24.2" height="4.2" fill="#c05a92" rx="1"/>
  <rect x="273.0" y="248.9" width="24.2" height="11.9" fill="#f472b6" rx="1"/>
  <text x="248.8" y="306" text-anchor="middle" fill="#e6edf3" font-size="10" font-weight="600">hdfs.json</text>
  <text x="248.8" y="318" text-anchor="middle" fill="#7d8590" font-size="9">7.0 MB</text>
  <rect x="329.5" y="250.8" width="24.2" height="39.2" fill="#60a5fa" rx="1"/>
  <rect x="329.5" y="222.7" width="24.2" height="28.1" fill="#4680c4" rx="1"/>
  <rect x="329.5" y="206.7" width="24.2" height="16.1" fill="#60a5fa" rx="1"/>
  <rect x="353.7" y="246.5" width="24.2" height="43.5" fill="#f87171" rx="1"/>
  <rect x="353.7" y="216.9" width="24.2" height="29.5" fill="#c45050" rx="1"/>
  <rect x="353.7" y="198.8" width="24.2" height="18.1" fill="#f87171" rx="1"/>
  <rect x="377.9" y="229.8" width="24.2" height="60.2" fill="#f59e0b" rx="1"/>
  <rect x="377.9" y="201.4" width="24.2" height="28.4" fill="#c47d08" rx="1"/>
  <rect x="377.9" y="183.3" width="24.2" height="18.1" fill="#f59e0b" rx="1"/>
  <rect x="402.1" y="213.4" width="24.2" height="76.6" fill="#f472b6" rx="1"/>
  <rect x="402.1" y="183.9" width="24.2" height="29.5" fill="#c05a92" rx="1"/>
  <rect x="402.1" y="152.1" width="24.2" height="31.7" fill="#f472b6" rx="1"/>
  <text x="377.9" y="306" text-anchor="middle" fill="#e6edf3" font-size="10" font-weight="600">mozilla</text>
  <text x="377.9" y="318" text-anchor="middle" fill="#7d8590" font-size="9">51.2 MB</text>
  <rect x="458.6" y="247.1" width="24.2" height="42.9" fill="#60a5fa" rx="1"/>
  <rect x="458.6" y="219.6" width="24.2" height="27.5" fill="#4680c4" rx="1"/>
  <rect x="458.6" y="204.5" width="24.2" height="15.0" fill="#60a5fa" rx="1"/>
  <rect x="482.9" y="234.0" width="24.2" height="56.0" fill="#f87171" rx="1"/>
  <rect x="482.9" y="204.5" width="24.2" height="29.4" fill="#c45050" rx="1"/>
  <rect x="482.9" y="182.3" width="24.2" height="22.2" fill="#f87171" rx="1"/>
  <rect x="507.1" y="225.9" width="24.2" height="64.1" fill="#f59e0b" rx="1"/>
  <rect x="507.1" y="198.4" width="24.2" height="27.5" fill="#c47d08" rx="1"/>
  <rect x="507.1" y="183.1" width="24.2" height="15.3" fill="#f59e0b" rx="1"/>
  <rect x="531.3" y="186.6" width="24.2" height="103.4" fill="#f472b6" rx="1"/>
  <rect x="531.3" y="157.2" width="24.2" height="29.4" fill="#c05a92" rx="1"/>
  <rect x="531.3" y="118.2" width="24.2" height="39.0" fill="#f472b6" rx="1"/>
  <text x="507.1" y="306" text-anchor="middle" fill="#e6edf3" font-size="10" font-weight="600">mr</text>
  <text x="507.1" y="318" text-anchor="middle" fill="#7d8590" font-size="9">10.0 MB</text>
  <rect x="587.8" y="271.7" width="24.2" height="18.3" fill="#60a5fa" rx="1"/>
  <rect x="587.8" y="265.6" width="24.2" height="6.1" fill="#4680c4" rx="1"/>
  <rect x="587.8" y="256.4" width="24.2" height="9.2" fill="#60a5fa" rx="1"/>
  <rect x="612.0" y="268.8" width="24.2" height="21.2" fill="#f87171" rx="1"/>
  <rect x="612.0" y="261.5" width="24.2" height="7.3" fill="#c45050" rx="1"/>
  <rect x="612.0" y="250.5" width="24.2" height="11.0" fill="#f87171" rx="1"/>
  <rect x="636.2" y="258.9" width="24.2" height="31.1" fill="#f59e0b" rx="1"/>
  <rect x="636.2" y="252.8" width="24.2" height="6.1" fill="#c47d08" rx="1"/>
  <rect x="636.2" y="241.8" width="24.2" height="11.0" fill="#f59e0b" rx="1"/>
  <rect x="660.5" y="250.8" width="24.2" height="39.2" fill="#f472b6" rx="1"/>
  <rect x="660.5" y="243.5" width="24.2" height="7.3" fill="#c05a92" rx="1"/>
  <rect x="660.5" y="223.7" width="24.2" height="19.8" fill="#f472b6" rx="1"/>
  <text x="636.2" y="306" text-anchor="middle" fill="#e6edf3" font-size="10" font-weight="600">nci</text>
  <text x="636.2" y="318" text-anchor="middle" fill="#7d8590" font-size="9">33.6 MB</text>
  <rect x="717.0" y="251.5" width="24.2" height="38.5" fill="#60a5fa" rx="1"/>
  <rect x="717.0" y="224.9" width="24.2" height="26.6" fill="#4680c4" rx="1"/>
  <rect x="717.0" y="210.3" width="24.2" height="14.5" fill="#60a5fa" rx="1"/>
  <rect x="741.2" y="250.0" width="24.2" height="40.0" fill="#f87171" rx="1"/>
  <rect x="741.2" y="221.7" width="24.2" height="28.3" fill="#c45050" rx="1"/>
  <rect x="741.2" y="208.8" width="24.2" height="12.9" fill="#f87171" rx="1"/>
  <rect x="765.4" y="235.0" width="24.2" height="55.0" fill="#f59e0b" rx="1"/>
  <rect x="765.4" y="208.4" width="24.2" height="26.6" fill="#c47d08" rx="1"/>
  <rect x="765.4" y="194.5" width="24.2" height="13.9" fill="#f59e0b" rx="1"/>
  <rect x="789.6" y="216.5" width="24.2" height="73.5" fill="#f472b6" rx="1"/>
  <rect x="789.6" y="188.2" width="24.2" height="28.3" fill="#c05a92" rx="1"/>
  <rect x="789.6" y="160.8" width="24.2" height="27.5" fill="#f472b6" rx="1"/>
  <text x="765.4" y="306" text-anchor="middle" fill="#e6edf3" font-size="10" font-weight="600">osdb</text>
  <text x="765.4" y="318" text-anchor="middle" fill="#7d8590" font-size="9">10.1 MB</text>
  <line x1="55" y1="528.0" x2="830" y2="528.0" stroke="#21262d" stroke-width="1"/>
  <text x="47" y="528.0" text-anchor="end" dominant-baseline="middle" fill="#7d8590" font-size="10">10</text>
  <line x1="55" y1="456.1" x2="830" y2="456.1" stroke="#21262d" stroke-width="1"/>
  <text x="47" y="456.1" text-anchor="end" dominant-baseline="middle" fill="#7d8590" font-size="10">20</text>
  <line x1="55" y1="384.1" x2="830" y2="384.1" stroke="#21262d" stroke-width="1"/>
  <text x="47" y="384.1" text-anchor="end" dominant-baseline="middle" fill="#7d8590" font-size="10">30</text>
  <line x1="55" y1="600" x2="830" y2="600" stroke="#30363d" stroke-width="1.5"/>
  <rect x="71.1" y="549.3" width="24.2" height="50.7" fill="#60a5fa" rx="1"/>
  <rect x="71.1" y="526.0" width="24.2" height="23.3" fill="#4680c4" rx="1"/>
  <rect x="71.1" y="508.0" width="24.2" height="17.9" fill="#60a5fa" rx="1"/>
  <rect x="95.4" y="544.9" width="24.2" height="55.1" fill="#f87171" rx="1"/>
  <rect x="95.4" y="519.2" width="24.2" height="25.7" fill="#c45050" rx="1"/>
  <rect x="95.4" y="494.5" width="24.2" height="24.7" fill="#f87171" rx="1"/>
  <rect x="119.6" y="517.0" width="24.2" height="83.0" fill="#f59e0b" rx="1"/>
  <rect x="119.6" y="493.6" width="24.2" height="23.3" fill="#c47d08" rx="1"/>
  <rect x="119.6" y="466.9" width="24.2" height="26.8" fill="#f59e0b" rx="1"/>
  <rect x="143.8" y="492.0" width="24.2" height="108.0" fill="#f472b6" rx="1"/>
  <rect x="143.8" y="466.3" width="24.2" height="25.7" fill="#c05a92" rx="1"/>
  <rect x="143.8" y="414.3" width="24.2" height="52.0" fill="#f472b6" rx="1"/>
  <text x="119.6" y="616" text-anchor="middle" fill="#e6edf3" font-size="10" font-weight="600">reymont.pdf</text>
  <text x="119.6" y="628" text-anchor="middle" fill="#7d8590" font-size="9">6.6 MB</text>
  <rect x="200.3" y="568.5" width="24.2" height="31.5" fill="#60a5fa" rx="1"/>
  <rect x="200.3" y="550.2" width="24.2" height="18.3" fill="#4680c4" rx="1"/>
  <rect x="200.3" y="538.0" width="24.2" height="12.2" fill="#60a5fa" rx="1"/>
  <rect x="224.5" y="566.8" width="24.2" height="33.2" fill="#f87171" rx="1"/>
  <rect x="224.5" y="546.2" width="24.2" height="20.5" fill="#c45050" rx="1"/>
  <rect x="224.5" y="532.1" width="24.2" height="14.1" fill="#f87171" rx="1"/>
  <rect x="248.8" y="555.2" width="24.2" height="44.8" fill="#f59e0b" rx="1"/>
  <rect x="248.8" y="536.9" width="24.2" height="18.4" fill="#c47d08" rx="1"/>
  <rect x="248.8" y="523.7" width="24.2" height="13.2" fill="#f59e0b" rx="1"/>
  <rect x="273.0" y="538.6" width="24.2" height="61.4" fill="#f472b6" rx="1"/>
  <rect x="273.0" y="518.1" width="24.2" height="20.5" fill="#c05a92" rx="1"/>
  <rect x="273.0" y="488.7" width="24.2" height="29.4" fill="#f472b6" rx="1"/>
  <text x="248.8" y="616" text-anchor="middle" fill="#e6edf3" font-size="10" font-weight="600">samba</text>
  <text x="248.8" y="628" text-anchor="middle" fill="#7d8590" font-size="9">21.6 MB</text>
  <rect x="329.5" y="502.9" width="24.2" height="97.1" fill="#60a5fa" rx="1"/>
  <rect x="329.5" y="440.9" width="24.2" height="62.0" fill="#4680c4" rx="1"/>
  <rect x="329.5" y="416.6" width="24.2" height="24.3" fill="#60a5fa" rx="1"/>
  <rect x="353.7" y="560.9" width="24.2" height="39.1" fill="#f87171" rx="1"/>
  <rect x="353.7" y="498.4" width="24.2" height="62.5" fill="#c45050" rx="1"/>
  <rect x="353.7" y="488.5" width="24.2" height="9.9" fill="#f87171" rx="1"/>
  <rect x="377.9" y="521.4" width="24.2" height="78.6" fill="#f59e0b" rx="1"/>
  <rect x="377.9" y="459.4" width="24.2" height="62.0" fill="#c47d08" rx="1"/>
  <rect x="377.9" y="445.1" width="24.2" height="14.3" fill="#f59e0b" rx="1"/>
  <rect x="402.1" y="531.0" width="24.2" height="69.0" fill="#f472b6" rx="1"/>
  <rect x="402.1" y="468.5" width="24.2" height="62.5" fill="#c05a92" rx="1"/>
  <rect x="402.1" y="449.5" width="24.2" height="19.1" fill="#f472b6" rx="1"/>
  <text x="377.9" y="616" text-anchor="middle" fill="#e6edf3" font-size="10" font-weight="600">sao</text>
  <text x="377.9" y="628" text-anchor="middle" fill="#7d8590" font-size="9">7.3 MB</text>
  <rect x="458.6" y="552.8" width="24.2" height="47.2" fill="#60a5fa" rx="1"/>
  <rect x="458.6" y="529.1" width="24.2" height="23.7" fill="#4680c4" rx="1"/>
  <rect x="458.6" y="513.0" width="24.2" height="16.1" fill="#60a5fa" rx="1"/>
  <rect x="482.9" y="543.8" width="24.2" height="56.2" fill="#f87171" rx="1"/>
  <rect x="482.9" y="517.7" width="24.2" height="26.2" fill="#c45050" rx="1"/>
  <rect x="482.9" y="496.8" width="24.2" height="20.8" fill="#f87171" rx="1"/>
  <rect x="507.1" y="534.4" width="24.2" height="65.6" fill="#f59e0b" rx="1"/>
  <rect x="507.1" y="510.7" width="24.2" height="23.7" fill="#c47d08" rx="1"/>
  <rect x="507.1" y="493.5" width="24.2" height="17.2" fill="#f59e0b" rx="1"/>
  <rect x="531.3" y="495.8" width="24.2" height="104.2" fill="#f472b6" rx="1"/>
  <rect x="531.3" y="469.6" width="24.2" height="26.2" fill="#c05a92" rx="1"/>
  <rect x="531.3" y="421.6" width="24.2" height="48.0" fill="#f472b6" rx="1"/>
  <text x="507.1" y="616" text-anchor="middle" fill="#e6edf3" font-size="10" font-weight="600">webster</text>
  <text x="507.1" y="628" text-anchor="middle" fill="#7d8590" font-size="9">41.5 MB</text>
  <rect x="587.8" y="577.3" width="24.2" height="22.7" fill="#60a5fa" rx="1"/>
  <rect x="587.8" y="519.8" width="24.2" height="57.5" fill="#4680c4" rx="1"/>
  <rect x="587.8" y="503.4" width="24.2" height="16.4" fill="#60a5fa" rx="1"/>
  <rect x="612.0" y="549.7" width="24.2" height="50.3" fill="#f87171" rx="1"/>
  <rect x="612.0" y="485.4" width="24.2" height="64.3" fill="#c45050" rx="1"/>
  <rect x="612.0" y="475.3" width="24.2" height="10.1" fill="#f87171" rx="1"/>
  <rect x="636.2" y="548.1" width="24.2" height="51.9" fill="#f59e0b" rx="1"/>
  <rect x="636.2" y="490.6" width="24.2" height="57.5" fill="#c47d08" rx="1"/>
  <rect x="636.2" y="479.7" width="24.2" height="10.9" fill="#f59e0b" rx="1"/>
  <rect x="660.5" y="514.1" width="24.2" height="85.9" fill="#f472b6" rx="1"/>
  <rect x="660.5" y="449.9" width="24.2" height="64.3" fill="#c05a92" rx="1"/>
  <rect x="660.5" y="427.8" width="24.2" height="22.1" fill="#f472b6" rx="1"/>
  <text x="636.2" y="616" text-anchor="middle" fill="#e6edf3" font-size="10" font-weight="600">x-ray</text>
  <text x="636.2" y="628" text-anchor="middle" fill="#7d8590" font-size="9">8.5 MB</text>
  <rect x="717.0" y="576.7" width="24.2" height="23.3" fill="#60a5fa" rx="1"/>
  <rect x="717.0" y="566.5" width="24.2" height="10.1" fill="#4680c4" rx="1"/>
  <rect x="717.0" y="556.4" width="24.2" height="10.2" fill="#60a5fa" rx="1"/>
  <rect x="741.2" y="573.5" width="24.2" height="26.5" fill="#f87171" rx="1"/>
  <rect x="741.2" y="562.0" width="24.2" height="11.5" fill="#c45050" rx="1"/>
  <rect x="741.2" y="550.3" width="24.2" height="11.7" fill="#f87171" rx="1"/>
  <rect x="765.4" y="560.2" width="24.2" height="39.8" fill="#f59e0b" rx="1"/>
  <rect x="765.4" y="550.1" width="24.2" height="10.1" fill="#c47d08" rx="1"/>
  <rect x="765.4" y="535.7" width="24.2" height="14.4" fill="#f59e0b" rx="1"/>
  <rect x="789.6" y="550.5" width="24.2" height="49.5" fill="#f472b6" rx="1"/>
  <rect x="789.6" y="539.0" width="24.2" height="11.5" fill="#c05a92" rx="1"/>
  <rect x="789.6" y="515.5" width="24.2" height="23.5" fill="#f472b6" rx="1"/>
  <text x="765.4" y="616" text-anchor="middle" fill="#e6edf3" font-size="10" font-weight="600">xml_collection.xml</text>
  <text x="765.4" y="628" text-anchor="middle" fill="#7d8590" font-size="9">5.3 MB</text>
  <rect x="222" y="645" width="12" height="12" fill="#60a5fa" rx="2"/>
  <text x="240" y="655" fill="#e6edf3" font-size="10" font-weight="500">C zstd 1.5.7 (libzstd wasm)</text>
  <rect x="222" y="663" width="12" height="12" fill="#f87171" rx="2"/>
  <text x="240" y="673" fill="#e6edf3" font-size="10" font-weight="500">zrip (SIMD128)</text>
  <rect x="472" y="645" width="12" height="12" fill="#f59e0b" rx="2"/>
  <text x="490" y="655" fill="#e6edf3" font-size="10" font-weight="500">structured-zstd 0.0.45</text>
  <rect x="472" y="663" width="12" height="12" fill="#f472b6" rx="2"/>
  <text x="490" y="673" fill="#e6edf3" font-size="10" font-weight="500">zrip paranoid (safe Rust, no unsafe)</text>
  <text x="232" y="698" fill="#e6edf3" font-size="9">bright = compress + decompress</text>
  <text x="472" y="698" fill="#7d8590" font-size="9">dim = transfer @100 MB/s</text>
</svg>
