<svg xmlns="http://www.w3.org/2000/svg" viewBox="0 0 850 720" font-family="system-ui, -apple-system, sans-serif">
  <rect width="850" height="720" fill="#0d1117"/>
  <text x="442.5" y="22" text-anchor="middle" fill="#e6edf3" font-size="14" font-weight="700">zstd Pipeline @100 MB/s: Per-file, Level 1 (lower is better)</text>
  <text x="442.5" y="38" text-anchor="middle" fill="#7d8590" font-size="10">wasmtime 46.0.1 (wasm32-wasip1)</text>
  <line x1="55" y1="247.2" x2="830" y2="247.2" stroke="#21262d" stroke-width="1"/>
  <text x="47" y="247.2" text-anchor="end" dominant-baseline="middle" fill="#7d8590" font-size="10">5</text>
  <line x1="55" y1="204.4" x2="830" y2="204.4" stroke="#21262d" stroke-width="1"/>
  <text x="47" y="204.4" text-anchor="end" dominant-baseline="middle" fill="#7d8590" font-size="10">10</text>
  <line x1="55" y1="161.6" x2="830" y2="161.6" stroke="#21262d" stroke-width="1"/>
  <text x="47" y="161.6" text-anchor="end" dominant-baseline="middle" fill="#7d8590" font-size="10">15</text>
  <line x1="55" y1="118.8" x2="830" y2="118.8" stroke="#21262d" stroke-width="1"/>
  <text x="47" y="118.8" text-anchor="end" dominant-baseline="middle" fill="#7d8590" font-size="10">20</text>
  <line x1="55" y1="76.0" x2="830" y2="76.0" stroke="#21262d" stroke-width="1"/>
  <text x="47" y="76.0" text-anchor="end" dominant-baseline="middle" fill="#7d8590" font-size="10">25</text>
  <line x1="55" y1="290" x2="830" y2="290" stroke="#30363d" stroke-width="1.5"/>
  <text x="22" y="325.0" text-anchor="middle" fill="#e6edf3" font-size="11" font-weight="600" transform="rotate(-90,22,325.0)">seconds / GB</text>
  <rect x="71.1" y="223.6" width="24.2" height="66.4" fill="#60a5fa" rx="1"/>
  <rect x="71.1" y="187.8" width="24.2" height="35.8" fill="#4680c4" rx="1"/>
  <rect x="71.1" y="167.0" width="24.2" height="20.8" fill="#60a5fa" rx="1"/>
  <rect x="95.4" y="212.1" width="24.2" height="77.9" fill="#f87171" rx="1"/>
  <rect x="95.4" y="173.8" width="24.2" height="38.2" fill="#c45050" rx="1"/>
  <rect x="95.4" y="148.3" width="24.2" height="25.5" fill="#f87171" rx="1"/>
  <rect x="119.6" y="197.4" width="24.2" height="92.6" fill="#f59e0b" rx="1"/>
  <rect x="119.6" y="161.6" width="24.2" height="35.8" fill="#c47d08" rx="1"/>
  <rect x="119.6" y="138.6" width="24.2" height="23.0" fill="#f59e0b" rx="1"/>
  <rect x="143.8" y="208.0" width="24.2" height="82.0" fill="#f472b6" rx="1"/>
  <rect x="143.8" y="169.7" width="24.2" height="38.2" fill="#c05a92" rx="1"/>
  <rect x="143.8" y="106.5" width="24.2" height="63.2" fill="#f472b6" rx="1"/>
  <text x="119.6" y="306" text-anchor="middle" fill="#e6edf3" font-size="10" font-weight="600">dickens</text>
  <text x="119.6" y="318" text-anchor="middle" fill="#7d8590" font-size="9">10.2 MB</text>
  <rect x="200.3" y="275.8" width="24.2" height="14.2" fill="#60a5fa" rx="1"/>
  <rect x="200.3" y="271.5" width="24.2" height="4.3" fill="#4680c4" rx="1"/>
  <rect x="200.3" y="264.3" width="24.2" height="7.2" fill="#60a5fa" rx="1"/>
  <rect x="224.5" y="274.4" width="24.2" height="15.6" fill="#f87171" rx="1"/>
  <rect x="224.5" y="269.5" width="24.2" height="5.0" fill="#c45050" rx="1"/>
  <rect x="224.5" y="262.1" width="24.2" height="7.4" fill="#f87171" rx="1"/>
  <rect x="248.8" y="265.4" width="24.2" height="24.6" fill="#f59e0b" rx="1"/>
  <rect x="248.8" y="261.1" width="24.2" height="4.3" fill="#c47d08" rx="1"/>
  <rect x="248.8" y="253.2" width="24.2" height="7.9" fill="#f59e0b" rx="1"/>
  <rect x="273.0" y="273.6" width="24.2" height="16.4" fill="#f472b6" rx="1"/>
  <rect x="273.0" y="268.7" width="24.2" height="5.0" fill="#c05a92" rx="1"/>
  <rect x="273.0" y="254.9" width="24.2" height="13.7" fill="#f472b6" rx="1"/>
  <text x="248.8" y="306" text-anchor="middle" fill="#e6edf3" font-size="10" font-weight="600">hdfs.json</text>
  <text x="248.8" y="318" text-anchor="middle" fill="#7d8590" font-size="9">7.0 MB</text>
  <rect x="329.5" y="243.4" width="24.2" height="46.6" fill="#60a5fa" rx="1"/>
  <rect x="329.5" y="210.0" width="24.2" height="33.4" fill="#4680c4" rx="1"/>
  <rect x="329.5" y="190.9" width="24.2" height="19.1" fill="#60a5fa" rx="1"/>
  <rect x="353.7" y="241.7" width="24.2" height="48.3" fill="#f87171" rx="1"/>
  <rect x="353.7" y="206.5" width="24.2" height="35.1" fill="#c45050" rx="1"/>
  <rect x="353.7" y="189.6" width="24.2" height="16.9" fill="#f87171" rx="1"/>
  <rect x="377.9" y="217.6" width="24.2" height="72.4" fill="#f59e0b" rx="1"/>
  <rect x="377.9" y="183.8" width="24.2" height="33.7" fill="#c47d08" rx="1"/>
  <rect x="377.9" y="162.4" width="24.2" height="21.4" fill="#f59e0b" rx="1"/>
  <rect x="402.1" y="239.9" width="24.2" height="50.1" fill="#f472b6" rx="1"/>
  <rect x="402.1" y="204.8" width="24.2" height="35.1" fill="#c05a92" rx="1"/>
  <rect x="402.1" y="164.0" width="24.2" height="40.8" fill="#f472b6" rx="1"/>
  <text x="377.9" y="306" text-anchor="middle" fill="#e6edf3" font-size="10" font-weight="600">mozilla</text>
  <text x="377.9" y="318" text-anchor="middle" fill="#7d8590" font-size="9">51.2 MB</text>
  <rect x="458.6" y="239.0" width="24.2" height="51.0" fill="#60a5fa" rx="1"/>
  <rect x="458.6" y="206.2" width="24.2" height="32.8" fill="#4680c4" rx="1"/>
  <rect x="458.6" y="188.3" width="24.2" height="17.9" fill="#60a5fa" rx="1"/>
  <rect x="482.9" y="226.5" width="24.2" height="63.5" fill="#f87171" rx="1"/>
  <rect x="482.9" y="191.5" width="24.2" height="35.0" fill="#c45050" rx="1"/>
  <rect x="482.9" y="170.1" width="24.2" height="21.4" fill="#f87171" rx="1"/>
  <rect x="507.1" y="212.4" width="24.2" height="77.6" fill="#f59e0b" rx="1"/>
  <rect x="507.1" y="179.7" width="24.2" height="32.7" fill="#c47d08" rx="1"/>
  <rect x="507.1" y="161.4" width="24.2" height="18.3" fill="#f59e0b" rx="1"/>
  <rect x="531.3" y="222.2" width="24.2" height="67.8" fill="#f472b6" rx="1"/>
  <rect x="531.3" y="187.2" width="24.2" height="35.0" fill="#c05a92" rx="1"/>
  <rect x="531.3" y="135.7" width="24.2" height="51.5" fill="#f472b6" rx="1"/>
  <text x="507.1" y="306" text-anchor="middle" fill="#e6edf3" font-size="10" font-weight="600">mr</text>
  <text x="507.1" y="318" text-anchor="middle" fill="#7d8590" font-size="9">10.0 MB</text>
  <rect x="587.8" y="268.2" width="24.2" height="21.8" fill="#60a5fa" rx="1"/>
  <rect x="587.8" y="261.0" width="24.2" height="7.3" fill="#4680c4" rx="1"/>
  <rect x="587.8" y="250.0" width="24.2" height="10.9" fill="#60a5fa" rx="1"/>
  <rect x="612.0" y="265.4" width="24.2" height="24.6" fill="#f87171" rx="1"/>
  <rect x="612.0" y="256.8" width="24.2" height="8.6" fill="#c45050" rx="1"/>
  <rect x="612.0" y="244.5" width="24.2" height="12.2" fill="#f87171" rx="1"/>
  <rect x="636.2" y="252.7" width="24.2" height="37.3" fill="#f59e0b" rx="1"/>
  <rect x="636.2" y="245.4" width="24.2" height="7.2" fill="#c47d08" rx="1"/>
  <rect x="636.2" y="232.6" width="24.2" height="12.9" fill="#f59e0b" rx="1"/>
  <rect x="660.5" y="264.5" width="24.2" height="25.5" fill="#f472b6" rx="1"/>
  <rect x="660.5" y="255.8" width="24.2" height="8.6" fill="#c05a92" rx="1"/>
  <rect x="660.5" y="233.8" width="24.2" height="22.0" fill="#f472b6" rx="1"/>
  <text x="636.2" y="306" text-anchor="middle" fill="#e6edf3" font-size="10" font-weight="600">nci</text>
  <text x="636.2" y="318" text-anchor="middle" fill="#7d8590" font-size="9">33.6 MB</text>
  <rect x="717.0" y="244.2" width="24.2" height="45.8" fill="#60a5fa" rx="1"/>
  <rect x="717.0" y="212.5" width="24.2" height="31.7" fill="#4680c4" rx="1"/>
  <rect x="717.0" y="195.2" width="24.2" height="17.3" fill="#60a5fa" rx="1"/>
  <rect x="741.2" y="243.4" width="24.2" height="46.6" fill="#f87171" rx="1"/>
  <rect x="741.2" y="209.8" width="24.2" height="33.6" fill="#c45050" rx="1"/>
  <rect x="741.2" y="196.4" width="24.2" height="13.4" fill="#f87171" rx="1"/>
  <rect x="765.4" y="223.2" width="24.2" height="66.8" fill="#f59e0b" rx="1"/>
  <rect x="765.4" y="191.6" width="24.2" height="31.6" fill="#c47d08" rx="1"/>
  <rect x="765.4" y="174.7" width="24.2" height="16.8" fill="#f59e0b" rx="1"/>
  <rect x="789.6" y="241.3" width="24.2" height="48.7" fill="#f472b6" rx="1"/>
  <rect x="789.6" y="207.6" width="24.2" height="33.6" fill="#c05a92" rx="1"/>
  <rect x="789.6" y="176.6" width="24.2" height="31.1" fill="#f472b6" rx="1"/>
  <text x="765.4" y="306" text-anchor="middle" fill="#e6edf3" font-size="10" font-weight="600">osdb</text>
  <text x="765.4" y="318" text-anchor="middle" fill="#7d8590" font-size="9">10.1 MB</text>
  <line x1="55" y1="557.2" x2="830" y2="557.2" stroke="#21262d" stroke-width="1"/>
  <text x="47" y="557.2" text-anchor="end" dominant-baseline="middle" fill="#7d8590" font-size="10">5</text>
  <line x1="55" y1="514.4" x2="830" y2="514.4" stroke="#21262d" stroke-width="1"/>
  <text x="47" y="514.4" text-anchor="end" dominant-baseline="middle" fill="#7d8590" font-size="10">10</text>
  <line x1="55" y1="471.6" x2="830" y2="471.6" stroke="#21262d" stroke-width="1"/>
  <text x="47" y="471.6" text-anchor="end" dominant-baseline="middle" fill="#7d8590" font-size="10">15</text>
  <line x1="55" y1="428.8" x2="830" y2="428.8" stroke="#21262d" stroke-width="1"/>
  <text x="47" y="428.8" text-anchor="end" dominant-baseline="middle" fill="#7d8590" font-size="10">20</text>
  <line x1="55" y1="386.0" x2="830" y2="386.0" stroke="#21262d" stroke-width="1"/>
  <text x="47" y="386.0" text-anchor="end" dominant-baseline="middle" fill="#7d8590" font-size="10">25</text>
  <line x1="55" y1="600" x2="830" y2="600" stroke="#30363d" stroke-width="1.5"/>
  <rect x="71.1" y="539.6" width="24.2" height="60.4" fill="#60a5fa" rx="1"/>
  <rect x="71.1" y="511.9" width="24.2" height="27.7" fill="#4680c4" rx="1"/>
  <rect x="71.1" y="490.6" width="24.2" height="21.3" fill="#60a5fa" rx="1"/>
  <rect x="95.4" y="536.0" width="24.2" height="64.0" fill="#f87171" rx="1"/>
  <rect x="95.4" y="505.4" width="24.2" height="30.6" fill="#c45050" rx="1"/>
  <rect x="95.4" y="481.2" width="24.2" height="24.3" fill="#f87171" rx="1"/>
  <rect x="119.6" y="510.9" width="24.2" height="89.1" fill="#f59e0b" rx="1"/>
  <rect x="119.6" y="483.2" width="24.2" height="27.8" fill="#c47d08" rx="1"/>
  <rect x="119.6" y="458.7" width="24.2" height="24.5" fill="#f59e0b" rx="1"/>
  <rect x="143.8" y="533.8" width="24.2" height="66.2" fill="#f472b6" rx="1"/>
  <rect x="143.8" y="503.3" width="24.2" height="30.6" fill="#c05a92" rx="1"/>
  <rect x="143.8" y="447.2" width="24.2" height="56.1" fill="#f472b6" rx="1"/>
  <text x="119.6" y="616" text-anchor="middle" fill="#e6edf3" font-size="10" font-weight="600">reymont.pdf</text>
  <text x="119.6" y="628" text-anchor="middle" fill="#7d8590" font-size="9">6.6 MB</text>
  <rect x="200.3" y="562.5" width="24.2" height="37.5" fill="#60a5fa" rx="1"/>
  <rect x="200.3" y="540.8" width="24.2" height="21.8" fill="#4680c4" rx="1"/>
  <rect x="200.3" y="526.3" width="24.2" height="14.5" fill="#60a5fa" rx="1"/>
  <rect x="224.5" y="561.0" width="24.2" height="39.0" fill="#f87171" rx="1"/>
  <rect x="224.5" y="536.6" width="24.2" height="24.4" fill="#c45050" rx="1"/>
  <rect x="224.5" y="522.4" width="24.2" height="14.2" fill="#f87171" rx="1"/>
  <rect x="248.8" y="546.1" width="24.2" height="53.9" fill="#f59e0b" rx="1"/>
  <rect x="248.8" y="524.2" width="24.2" height="21.8" fill="#c47d08" rx="1"/>
  <rect x="248.8" y="508.6" width="24.2" height="15.6" fill="#f59e0b" rx="1"/>
  <rect x="273.0" y="559.8" width="24.2" height="40.2" fill="#f472b6" rx="1"/>
  <rect x="273.0" y="535.4" width="24.2" height="24.4" fill="#c05a92" rx="1"/>
  <rect x="273.0" y="503.2" width="24.2" height="32.1" fill="#f472b6" rx="1"/>
  <text x="248.8" y="616" text-anchor="middle" fill="#e6edf3" font-size="10" font-weight="600">samba</text>
  <text x="248.8" y="628" text-anchor="middle" fill="#7d8590" font-size="9">21.6 MB</text>
  <rect x="329.5" y="484.4" width="24.2" height="115.6" fill="#60a5fa" rx="1"/>
  <rect x="329.5" y="410.7" width="24.2" height="73.8" fill="#4680c4" rx="1"/>
  <rect x="329.5" y="381.8" width="24.2" height="28.9" fill="#60a5fa" rx="1"/>
  <rect x="353.7" y="554.4" width="24.2" height="45.6" fill="#f87171" rx="1"/>
  <rect x="353.7" y="480.1" width="24.2" height="74.3" fill="#c45050" rx="1"/>
  <rect x="353.7" y="469.5" width="24.2" height="10.6" fill="#f87171" rx="1"/>
  <rect x="377.9" y="502.6" width="24.2" height="97.4" fill="#f59e0b" rx="1"/>
  <rect x="377.9" y="428.9" width="24.2" height="73.8" fill="#c47d08" rx="1"/>
  <rect x="377.9" y="411.5" width="24.2" height="17.4" fill="#f59e0b" rx="1"/>
  <rect x="402.1" y="552.4" width="24.2" height="47.6" fill="#f472b6" rx="1"/>
  <rect x="402.1" y="478.1" width="24.2" height="74.3" fill="#c05a92" rx="1"/>
  <rect x="402.1" y="450.6" width="24.2" height="27.5" fill="#f472b6" rx="1"/>
  <text x="377.9" y="616" text-anchor="middle" fill="#e6edf3" font-size="10" font-weight="600">sao</text>
  <text x="377.9" y="628" text-anchor="middle" fill="#7d8590" font-size="9">7.3 MB</text>
  <rect x="458.6" y="543.9" width="24.2" height="56.1" fill="#60a5fa" rx="1"/>
  <rect x="458.6" y="515.7" width="24.2" height="28.2" fill="#4680c4" rx="1"/>
  <rect x="458.6" y="496.5" width="24.2" height="19.2" fill="#60a5fa" rx="1"/>
  <rect x="482.9" y="534.5" width="24.2" height="65.5" fill="#f87171" rx="1"/>
  <rect x="482.9" y="503.3" width="24.2" height="31.2" fill="#c45050" rx="1"/>
  <rect x="482.9" y="482.7" width="24.2" height="20.7" fill="#f87171" rx="1"/>
  <rect x="507.1" y="521.5" width="24.2" height="78.5" fill="#f59e0b" rx="1"/>
  <rect x="507.1" y="493.3" width="24.2" height="28.2" fill="#c47d08" rx="1"/>
  <rect x="507.1" y="472.7" width="24.2" height="20.7" fill="#f59e0b" rx="1"/>
  <rect x="531.3" y="533.0" width="24.2" height="67.0" fill="#f472b6" rx="1"/>
  <rect x="531.3" y="501.8" width="24.2" height="31.2" fill="#c05a92" rx="1"/>
  <rect x="531.3" y="449.4" width="24.2" height="52.4" fill="#f472b6" rx="1"/>
  <text x="507.1" y="616" text-anchor="middle" fill="#e6edf3" font-size="10" font-weight="600">webster</text>
  <text x="507.1" y="628" text-anchor="middle" fill="#7d8590" font-size="9">41.5 MB</text>
  <rect x="587.8" y="573.0" width="24.2" height="27.0" fill="#60a5fa" rx="1"/>
  <rect x="587.8" y="504.6" width="24.2" height="68.4" fill="#4680c4" rx="1"/>
  <rect x="587.8" y="485.1" width="24.2" height="19.5" fill="#60a5fa" rx="1"/>
  <rect x="612.0" y="541.7" width="24.2" height="58.3" fill="#f87171" rx="1"/>
  <rect x="612.0" y="465.3" width="24.2" height="76.5" fill="#c45050" rx="1"/>
  <rect x="612.0" y="454.8" width="24.2" height="10.5" fill="#f87171" rx="1"/>
  <rect x="636.2" y="537.9" width="24.2" height="62.1" fill="#f59e0b" rx="1"/>
  <rect x="636.2" y="469.5" width="24.2" height="68.4" fill="#c47d08" rx="1"/>
  <rect x="636.2" y="456.6" width="24.2" height="12.9" fill="#f59e0b" rx="1"/>
  <rect x="660.5" y="540.2" width="24.2" height="59.8" fill="#f472b6" rx="1"/>
  <rect x="660.5" y="463.7" width="24.2" height="76.5" fill="#c05a92" rx="1"/>
  <rect x="660.5" y="437.5" width="24.2" height="26.2" fill="#f472b6" rx="1"/>
  <text x="636.2" y="616" text-anchor="middle" fill="#e6edf3" font-size="10" font-weight="600">x-ray</text>
  <text x="636.2" y="628" text-anchor="middle" fill="#7d8590" font-size="9">8.5 MB</text>
  <rect x="717.0" y="572.3" width="24.2" height="27.7" fill="#60a5fa" rx="1"/>
  <rect x="717.0" y="560.2" width="24.2" height="12.1" fill="#4680c4" rx="1"/>
  <rect x="717.0" y="548.1" width="24.2" height="12.1" fill="#60a5fa" rx="1"/>
  <rect x="741.2" y="569.2" width="24.2" height="30.8" fill="#f87171" rx="1"/>
  <rect x="741.2" y="555.6" width="24.2" height="13.7" fill="#c45050" rx="1"/>
  <rect x="741.2" y="543.6" width="24.2" height="12.0" fill="#f87171" rx="1"/>
  <rect x="765.4" y="557.4" width="24.2" height="42.6" fill="#f59e0b" rx="1"/>
  <rect x="765.4" y="545.4" width="24.2" height="12.0" fill="#c47d08" rx="1"/>
  <rect x="765.4" y="532.4" width="24.2" height="12.9" fill="#f59e0b" rx="1"/>
  <rect x="789.6" y="568.3" width="24.2" height="31.7" fill="#f472b6" rx="1"/>
  <rect x="789.6" y="554.6" width="24.2" height="13.7" fill="#c05a92" rx="1"/>
  <rect x="789.6" y="529.0" width="24.2" height="25.6" fill="#f472b6" rx="1"/>
  <text x="765.4" y="616" text-anchor="middle" fill="#e6edf3" font-size="10" font-weight="600">xml_collection.xml</text>
  <text x="765.4" y="628" text-anchor="middle" fill="#7d8590" font-size="9">5.3 MB</text>
  <rect x="222" y="645" width="12" height="12" fill="#60a5fa" rx="2"/>
  <text x="240" y="655" fill="#e6edf3" font-size="10" font-weight="500">C zstd 1.5.7 (libzstd wasm)</text>
  <rect x="222" y="663" width="12" height="12" fill="#f87171" rx="2"/>
  <text x="240" y="673" fill="#e6edf3" font-size="10" font-weight="500">zrip (SIMD128)</text>
  <rect x="472" y="645" width="12" height="12" fill="#f59e0b" rx="2"/>
  <text x="490" y="655" fill="#e6edf3" font-size="10" font-weight="500">structured-zstd 0.0.44</text>
  <rect x="472" y="663" width="12" height="12" fill="#f472b6" rx="2"/>
  <text x="490" y="673" fill="#e6edf3" font-size="10" font-weight="500">zrip paranoid (no SIMD)</text>
  <text x="232" y="698" fill="#e6edf3" font-size="9">bright = compress + decompress</text>
  <text x="472" y="698" fill="#7d8590" font-size="9">dim = transfer @100 MB/s</text>
</svg>
