<svg xmlns="http://www.w3.org/2000/svg" viewBox="0 0 850 720" font-family="system-ui, -apple-system, sans-serif">
  <rect width="850" height="720" fill="#0d1117"/>
  <text x="442.5" y="22" text-anchor="middle" fill="#e6edf3" font-size="14" font-weight="700">zstd Pipeline @100 MB/s: Per-file, Level 1 (lower is better)</text>
  <text x="442.5" y="38" text-anchor="middle" fill="#7d8590" font-size="10">wasmtime (wasm32-wasip1), Linux VM on Intel Core i7-8700B @ 3.20GHz</text>
  <line x1="55" y1="246.7" x2="830" y2="246.7" stroke="#21262d" stroke-width="1"/>
  <text x="47" y="246.7" text-anchor="end" dominant-baseline="middle" fill="#7d8590" font-size="10">5</text>
  <line x1="55" y1="203.5" x2="830" y2="203.5" stroke="#21262d" stroke-width="1"/>
  <text x="47" y="203.5" text-anchor="end" dominant-baseline="middle" fill="#7d8590" font-size="10">10</text>
  <line x1="55" y1="160.2" x2="830" y2="160.2" stroke="#21262d" stroke-width="1"/>
  <text x="47" y="160.2" text-anchor="end" dominant-baseline="middle" fill="#7d8590" font-size="10">15</text>
  <line x1="55" y1="116.9" x2="830" y2="116.9" stroke="#21262d" stroke-width="1"/>
  <text x="47" y="116.9" text-anchor="end" dominant-baseline="middle" fill="#7d8590" font-size="10">20</text>
  <line x1="55" y1="73.7" x2="830" y2="73.7" stroke="#21262d" stroke-width="1"/>
  <text x="47" y="73.7" text-anchor="end" dominant-baseline="middle" fill="#7d8590" font-size="10">25</text>
  <line x1="55" y1="290" x2="830" y2="290" stroke="#30363d" stroke-width="1.5"/>
  <text x="22" y="325.0" text-anchor="middle" fill="#e6edf3" font-size="11" font-weight="600" transform="rotate(-90,22,325.0)">seconds / GB</text>
  <rect x="71.1" y="222.6" width="24.2" height="67.4" fill="#60a5fa" rx="1"/>
  <rect x="71.1" y="186.4" width="24.2" height="36.2" fill="#4680c4" rx="1"/>
  <rect x="71.1" y="165.1" width="24.2" height="21.3" fill="#60a5fa" rx="1"/>
  <rect x="95.4" y="206.9" width="24.2" height="83.1" fill="#f87171" rx="1"/>
  <rect x="95.4" y="168.2" width="24.2" height="38.7" fill="#c45050" rx="1"/>
  <rect x="95.4" y="133.2" width="24.2" height="35.0" fill="#f87171" rx="1"/>
  <rect x="119.6" y="204.7" width="24.2" height="85.3" fill="#f59e0b" rx="1"/>
  <rect x="119.6" y="168.5" width="24.2" height="36.2" fill="#c47d08" rx="1"/>
  <rect x="119.6" y="146.0" width="24.2" height="22.5" fill="#f59e0b" rx="1"/>
  <rect x="143.8" y="164.8" width="24.2" height="125.2" fill="#f472b6" rx="1"/>
  <rect x="143.8" y="126.2" width="24.2" height="38.7" fill="#c05a92" rx="1"/>
  <rect x="143.8" y="71.8" width="24.2" height="54.4" fill="#f472b6" rx="1"/>
  <text x="119.6" y="306" text-anchor="middle" fill="#e6edf3" font-size="10" font-weight="600">dickens</text>
  <text x="119.6" y="318" text-anchor="middle" fill="#7d8590" font-size="9">10.2 MB</text>
  <rect x="200.3" y="275.4" width="24.2" height="14.6" fill="#60a5fa" rx="1"/>
  <rect x="200.3" y="271.0" width="24.2" height="4.3" fill="#4680c4" rx="1"/>
  <rect x="200.3" y="263.9" width="24.2" height="7.1" fill="#60a5fa" rx="1"/>
  <rect x="224.5" y="274.2" width="24.2" height="15.8" fill="#f87171" rx="1"/>
  <rect x="224.5" y="269.2" width="24.2" height="5.0" fill="#c45050" rx="1"/>
  <rect x="224.5" y="259.4" width="24.2" height="9.8" fill="#f87171" rx="1"/>
  <rect x="248.8" y="267.1" width="24.2" height="22.9" fill="#f59e0b" rx="1"/>
  <rect x="248.8" y="262.8" width="24.2" height="4.3" fill="#c47d08" rx="1"/>
  <rect x="248.8" y="254.7" width="24.2" height="8.1" fill="#f59e0b" rx="1"/>
  <rect x="273.0" y="264.5" width="24.2" height="25.5" fill="#f472b6" rx="1"/>
  <rect x="273.0" y="259.4" width="24.2" height="5.0" fill="#c05a92" rx="1"/>
  <rect x="273.0" y="246.6" width="24.2" height="12.8" fill="#f472b6" rx="1"/>
  <text x="248.8" y="306" text-anchor="middle" fill="#e6edf3" font-size="10" font-weight="600">hdfs.json</text>
  <text x="248.8" y="318" text-anchor="middle" fill="#7d8590" font-size="9">7.0 MB</text>
  <rect x="329.5" y="243.4" width="24.2" height="46.6" fill="#60a5fa" rx="1"/>
  <rect x="329.5" y="209.7" width="24.2" height="33.7" fill="#4680c4" rx="1"/>
  <rect x="329.5" y="190.7" width="24.2" height="19.0" fill="#60a5fa" rx="1"/>
  <rect x="353.7" y="241.1" width="24.2" height="48.9" fill="#f87171" rx="1"/>
  <rect x="353.7" y="205.6" width="24.2" height="35.5" fill="#c45050" rx="1"/>
  <rect x="353.7" y="179.9" width="24.2" height="25.7" fill="#f87171" rx="1"/>
  <rect x="377.9" y="221.6" width="24.2" height="68.4" fill="#f59e0b" rx="1"/>
  <rect x="377.9" y="187.5" width="24.2" height="34.1" fill="#c47d08" rx="1"/>
  <rect x="377.9" y="166.1" width="24.2" height="21.3" fill="#f59e0b" rx="1"/>
  <rect x="402.1" y="209.1" width="24.2" height="80.9" fill="#f472b6" rx="1"/>
  <rect x="402.1" y="173.6" width="24.2" height="35.5" fill="#c05a92" rx="1"/>
  <rect x="402.1" y="137.2" width="24.2" height="36.4" fill="#f472b6" rx="1"/>
  <text x="377.9" y="306" text-anchor="middle" fill="#e6edf3" font-size="10" font-weight="600">mozilla</text>
  <text x="377.9" y="318" text-anchor="middle" fill="#7d8590" font-size="9">51.2 MB</text>
  <rect x="458.6" y="240.4" width="24.2" height="49.6" fill="#60a5fa" rx="1"/>
  <rect x="458.6" y="207.3" width="24.2" height="33.1" fill="#4680c4" rx="1"/>
  <rect x="458.6" y="189.5" width="24.2" height="17.9" fill="#60a5fa" rx="1"/>
  <rect x="482.9" y="227.0" width="24.2" height="63.0" fill="#f87171" rx="1"/>
  <rect x="482.9" y="191.6" width="24.2" height="35.4" fill="#c45050" rx="1"/>
  <rect x="482.9" y="162.1" width="24.2" height="29.6" fill="#f87171" rx="1"/>
  <rect x="507.1" y="218.3" width="24.2" height="71.7" fill="#f59e0b" rx="1"/>
  <rect x="507.1" y="185.2" width="24.2" height="33.1" fill="#c47d08" rx="1"/>
  <rect x="507.1" y="167.2" width="24.2" height="18.0" fill="#f59e0b" rx="1"/>
  <rect x="531.3" y="186.6" width="24.2" height="103.4" fill="#f472b6" rx="1"/>
  <rect x="531.3" y="151.2" width="24.2" height="35.4" fill="#c05a92" rx="1"/>
  <rect x="531.3" y="107.2" width="24.2" height="44.0" fill="#f472b6" rx="1"/>
  <text x="507.1" y="306" text-anchor="middle" fill="#e6edf3" font-size="10" font-weight="600">mr</text>
  <text x="507.1" y="318" text-anchor="middle" fill="#7d8590" font-size="9">10.0 MB</text>
  <rect x="587.8" y="267.7" width="24.2" height="22.3" fill="#60a5fa" rx="1"/>
  <rect x="587.8" y="260.4" width="24.2" height="7.3" fill="#4680c4" rx="1"/>
  <rect x="587.8" y="249.5" width="24.2" height="10.9" fill="#60a5fa" rx="1"/>
  <rect x="612.0" y="264.9" width="24.2" height="25.1" fill="#f87171" rx="1"/>
  <rect x="612.0" y="256.1" width="24.2" height="8.7" fill="#c45050" rx="1"/>
  <rect x="612.0" y="241.1" width="24.2" height="15.1" fill="#f87171" rx="1"/>
  <rect x="636.2" y="255.7" width="24.2" height="34.3" fill="#f59e0b" rx="1"/>
  <rect x="636.2" y="248.4" width="24.2" height="7.3" fill="#c47d08" rx="1"/>
  <rect x="636.2" y="235.5" width="24.2" height="12.9" fill="#f59e0b" rx="1"/>
  <rect x="660.5" y="250.1" width="24.2" height="39.9" fill="#f472b6" rx="1"/>
  <rect x="660.5" y="241.4" width="24.2" height="8.7" fill="#c05a92" rx="1"/>
  <rect x="660.5" y="221.3" width="24.2" height="20.1" fill="#f472b6" rx="1"/>
  <text x="636.2" y="306" text-anchor="middle" fill="#e6edf3" font-size="10" font-weight="600">nci</text>
  <text x="636.2" y="318" text-anchor="middle" fill="#7d8590" font-size="9">33.6 MB</text>
  <rect x="717.0" y="244.0" width="24.2" height="46.0" fill="#60a5fa" rx="1"/>
  <rect x="717.0" y="212.0" width="24.2" height="32.0" fill="#4680c4" rx="1"/>
  <rect x="717.0" y="194.7" width="24.2" height="17.3" fill="#60a5fa" rx="1"/>
  <rect x="741.2" y="244.3" width="24.2" height="45.7" fill="#f87171" rx="1"/>
  <rect x="741.2" y="210.3" width="24.2" height="34.0" fill="#c45050" rx="1"/>
  <rect x="741.2" y="193.2" width="24.2" height="17.1" fill="#f87171" rx="1"/>
  <rect x="765.4" y="226.2" width="24.2" height="63.8" fill="#f59e0b" rx="1"/>
  <rect x="765.4" y="194.2" width="24.2" height="32.0" fill="#c47d08" rx="1"/>
  <rect x="765.4" y="177.7" width="24.2" height="16.4" fill="#f59e0b" rx="1"/>
  <rect x="789.6" y="215.1" width="24.2" height="74.9" fill="#f472b6" rx="1"/>
  <rect x="789.6" y="181.1" width="24.2" height="34.0" fill="#c05a92" rx="1"/>
  <rect x="789.6" y="155.1" width="24.2" height="26.0" fill="#f472b6" rx="1"/>
  <text x="765.4" y="306" text-anchor="middle" fill="#e6edf3" font-size="10" font-weight="600">osdb</text>
  <text x="765.4" y="318" text-anchor="middle" fill="#7d8590" font-size="9">10.1 MB</text>
  <line x1="55" y1="556.7" x2="830" y2="556.7" stroke="#21262d" stroke-width="1"/>
  <text x="47" y="556.7" text-anchor="end" dominant-baseline="middle" fill="#7d8590" font-size="10">5</text>
  <line x1="55" y1="513.5" x2="830" y2="513.5" stroke="#21262d" stroke-width="1"/>
  <text x="47" y="513.5" text-anchor="end" dominant-baseline="middle" fill="#7d8590" font-size="10">10</text>
  <line x1="55" y1="470.2" x2="830" y2="470.2" stroke="#21262d" stroke-width="1"/>
  <text x="47" y="470.2" text-anchor="end" dominant-baseline="middle" fill="#7d8590" font-size="10">15</text>
  <line x1="55" y1="426.9" x2="830" y2="426.9" stroke="#21262d" stroke-width="1"/>
  <text x="47" y="426.9" text-anchor="end" dominant-baseline="middle" fill="#7d8590" font-size="10">20</text>
  <line x1="55" y1="383.7" x2="830" y2="383.7" stroke="#21262d" stroke-width="1"/>
  <text x="47" y="383.7" text-anchor="end" dominant-baseline="middle" fill="#7d8590" font-size="10">25</text>
  <line x1="55" y1="600" x2="830" y2="600" stroke="#30363d" stroke-width="1.5"/>
  <rect x="71.1" y="539.4" width="24.2" height="60.6" fill="#60a5fa" rx="1"/>
  <rect x="71.1" y="511.3" width="24.2" height="28.0" fill="#4680c4" rx="1"/>
  <rect x="71.1" y="489.5" width="24.2" height="21.8" fill="#60a5fa" rx="1"/>
  <rect x="95.4" y="537.4" width="24.2" height="62.6" fill="#f87171" rx="1"/>
  <rect x="95.4" y="506.5" width="24.2" height="30.9" fill="#c45050" rx="1"/>
  <rect x="95.4" y="474.8" width="24.2" height="31.6" fill="#f87171" rx="1"/>
  <rect x="119.6" y="518.3" width="24.2" height="81.7" fill="#f59e0b" rx="1"/>
  <rect x="119.6" y="490.2" width="24.2" height="28.1" fill="#c47d08" rx="1"/>
  <rect x="119.6" y="466.4" width="24.2" height="23.8" fill="#f59e0b" rx="1"/>
  <rect x="143.8" y="496.0" width="24.2" height="104.0" fill="#f472b6" rx="1"/>
  <rect x="143.8" y="465.1" width="24.2" height="30.9" fill="#c05a92" rx="1"/>
  <rect x="143.8" y="416.8" width="24.2" height="48.3" fill="#f472b6" rx="1"/>
  <text x="119.6" y="616" text-anchor="middle" fill="#e6edf3" font-size="10" font-weight="600">reymont.pdf</text>
  <text x="119.6" y="628" text-anchor="middle" fill="#7d8590" font-size="9">6.6 MB</text>
  <rect x="200.3" y="562.2" width="24.2" height="37.8" fill="#60a5fa" rx="1"/>
  <rect x="200.3" y="540.2" width="24.2" height="22.0" fill="#4680c4" rx="1"/>
  <rect x="200.3" y="525.5" width="24.2" height="14.6" fill="#60a5fa" rx="1"/>
  <rect x="224.5" y="561.5" width="24.2" height="38.5" fill="#f87171" rx="1"/>
  <rect x="224.5" y="536.8" width="24.2" height="24.7" fill="#c45050" rx="1"/>
  <rect x="224.5" y="517.4" width="24.2" height="19.4" fill="#f87171" rx="1"/>
  <rect x="248.8" y="550.6" width="24.2" height="49.4" fill="#f59e0b" rx="1"/>
  <rect x="248.8" y="528.5" width="24.2" height="22.1" fill="#c47d08" rx="1"/>
  <rect x="248.8" y="513.0" width="24.2" height="15.5" fill="#f59e0b" rx="1"/>
  <rect x="273.0" y="538.3" width="24.2" height="61.7" fill="#f472b6" rx="1"/>
  <rect x="273.0" y="513.6" width="24.2" height="24.7" fill="#c05a92" rx="1"/>
  <rect x="273.0" y="485.4" width="24.2" height="28.2" fill="#f472b6" rx="1"/>
  <text x="248.8" y="616" text-anchor="middle" fill="#e6edf3" font-size="10" font-weight="600">samba</text>
  <text x="248.8" y="628" text-anchor="middle" fill="#7d8590" font-size="9">21.6 MB</text>
  <rect x="329.5" y="531.9" width="24.2" height="68.1" fill="#60a5fa" rx="1"/>
  <rect x="329.5" y="457.3" width="24.2" height="74.6" fill="#4680c4" rx="1"/>
  <rect x="329.5" y="437.5" width="24.2" height="19.8" fill="#60a5fa" rx="1"/>
  <rect x="353.7" y="553.5" width="24.2" height="46.5" fill="#f87171" rx="1"/>
  <rect x="353.7" y="478.3" width="24.2" height="75.2" fill="#c45050" rx="1"/>
  <rect x="353.7" y="463.6" width="24.2" height="14.7" fill="#f87171" rx="1"/>
  <rect x="377.9" y="505.7" width="24.2" height="94.3" fill="#f59e0b" rx="1"/>
  <rect x="377.9" y="431.1" width="24.2" height="74.6" fill="#c47d08" rx="1"/>
  <rect x="377.9" y="413.9" width="24.2" height="17.2" fill="#f59e0b" rx="1"/>
  <rect x="402.1" y="527.8" width="24.2" height="72.2" fill="#f472b6" rx="1"/>
  <rect x="402.1" y="452.6" width="24.2" height="75.2" fill="#c05a92" rx="1"/>
  <rect x="402.1" y="429.3" width="24.2" height="23.3" fill="#f472b6" rx="1"/>
  <text x="377.9" y="616" text-anchor="middle" fill="#e6edf3" font-size="10" font-weight="600">sao</text>
  <text x="377.9" y="628" text-anchor="middle" fill="#7d8590" font-size="9">7.3 MB</text>
  <rect x="458.6" y="544.4" width="24.2" height="55.6" fill="#60a5fa" rx="1"/>
  <rect x="458.6" y="515.9" width="24.2" height="28.5" fill="#4680c4" rx="1"/>
  <rect x="458.6" y="496.5" width="24.2" height="19.3" fill="#60a5fa" rx="1"/>
  <rect x="482.9" y="535.2" width="24.2" height="64.8" fill="#f87171" rx="1"/>
  <rect x="482.9" y="503.8" width="24.2" height="31.5" fill="#c45050" rx="1"/>
  <rect x="482.9" y="474.6" width="24.2" height="29.1" fill="#f87171" rx="1"/>
  <rect x="507.1" y="527.1" width="24.2" height="72.9" fill="#f59e0b" rx="1"/>
  <rect x="507.1" y="498.6" width="24.2" height="28.5" fill="#c47d08" rx="1"/>
  <rect x="507.1" y="478.6" width="24.2" height="20.0" fill="#f59e0b" rx="1"/>
  <rect x="531.3" y="495.2" width="24.2" height="104.8" fill="#f472b6" rx="1"/>
  <rect x="531.3" y="463.7" width="24.2" height="31.5" fill="#c05a92" rx="1"/>
  <rect x="531.3" y="419.1" width="24.2" height="44.6" fill="#f472b6" rx="1"/>
  <text x="507.1" y="616" text-anchor="middle" fill="#e6edf3" font-size="10" font-weight="600">webster</text>
  <text x="507.1" y="628" text-anchor="middle" fill="#7d8590" font-size="9">41.5 MB</text>
  <rect x="587.8" y="573.0" width="24.2" height="27.0" fill="#60a5fa" rx="1"/>
  <rect x="587.8" y="503.9" width="24.2" height="69.1" fill="#4680c4" rx="1"/>
  <rect x="587.8" y="484.4" width="24.2" height="19.4" fill="#60a5fa" rx="1"/>
  <rect x="612.0" y="539.6" width="24.2" height="60.4" fill="#f87171" rx="1"/>
  <rect x="612.0" y="462.3" width="24.2" height="77.3" fill="#c45050" rx="1"/>
  <rect x="612.0" y="446.2" width="24.2" height="16.1" fill="#f87171" rx="1"/>
  <rect x="636.2" y="537.3" width="24.2" height="62.7" fill="#f59e0b" rx="1"/>
  <rect x="636.2" y="468.1" width="24.2" height="69.2" fill="#c47d08" rx="1"/>
  <rect x="636.2" y="455.4" width="24.2" height="12.7" fill="#f59e0b" rx="1"/>
  <rect x="660.5" y="507.2" width="24.2" height="92.8" fill="#f472b6" rx="1"/>
  <rect x="660.5" y="429.9" width="24.2" height="77.3" fill="#c05a92" rx="1"/>
  <rect x="660.5" y="407.7" width="24.2" height="22.2" fill="#f472b6" rx="1"/>
  <text x="636.2" y="616" text-anchor="middle" fill="#e6edf3" font-size="10" font-weight="600">x-ray</text>
  <text x="636.2" y="628" text-anchor="middle" fill="#7d8590" font-size="9">8.5 MB</text>
  <rect x="717.0" y="571.7" width="24.2" height="28.3" fill="#60a5fa" rx="1"/>
  <rect x="717.0" y="559.5" width="24.2" height="12.2" fill="#4680c4" rx="1"/>
  <rect x="717.0" y="547.3" width="24.2" height="12.2" fill="#60a5fa" rx="1"/>
  <rect x="741.2" y="569.2" width="24.2" height="30.8" fill="#f87171" rx="1"/>
  <rect x="741.2" y="555.4" width="24.2" height="13.8" fill="#c45050" rx="1"/>
  <rect x="741.2" y="539.5" width="24.2" height="15.8" fill="#f87171" rx="1"/>
  <rect x="765.4" y="560.3" width="24.2" height="39.7" fill="#f59e0b" rx="1"/>
  <rect x="765.4" y="548.2" width="24.2" height="12.2" fill="#c47d08" rx="1"/>
  <rect x="765.4" y="535.2" width="24.2" height="13.0" fill="#f59e0b" rx="1"/>
  <rect x="789.6" y="550.4" width="24.2" height="49.6" fill="#f472b6" rx="1"/>
  <rect x="789.6" y="536.6" width="24.2" height="13.8" fill="#c05a92" rx="1"/>
  <rect x="789.6" y="513.9" width="24.2" height="22.7" fill="#f472b6" rx="1"/>
  <text x="765.4" y="616" text-anchor="middle" fill="#e6edf3" font-size="10" font-weight="600">xml_collection.xml</text>
  <text x="765.4" y="628" text-anchor="middle" fill="#7d8590" font-size="9">5.3 MB</text>
  <rect x="222" y="645" width="12" height="12" fill="#60a5fa" rx="2"/>
  <text x="240" y="655" fill="#e6edf3" font-size="10" font-weight="500">C zstd 1.5.7 (libzstd wasm)</text>
  <rect x="222" y="663" width="12" height="12" fill="#f87171" rx="2"/>
  <text x="240" y="673" fill="#e6edf3" font-size="10" font-weight="500">zrip (SIMD128)</text>
  <rect x="472" y="645" width="12" height="12" fill="#f59e0b" rx="2"/>
  <text x="490" y="655" fill="#e6edf3" font-size="10" font-weight="500">structured-zstd 0.0.48</text>
  <rect x="472" y="663" width="12" height="12" fill="#f472b6" rx="2"/>
  <text x="490" y="673" fill="#e6edf3" font-size="10" font-weight="500">zrip paranoid (safe Rust, no unsafe)</text>
  <text x="232" y="698" fill="#e6edf3" font-size="9">bright = compress + decompress</text>
  <text x="472" y="698" fill="#7d8590" font-size="9">dim = transfer @100 MB/s</text>
</svg>
