<svg xmlns="http://www.w3.org/2000/svg" viewBox="0 0 850 720" font-family="system-ui, -apple-system, sans-serif">
  <rect width="850" height="720" fill="#0d1117"/>
  <text x="442.5" y="22" text-anchor="middle" fill="#e6edf3" font-size="14" font-weight="700">zstd Pipeline @100 MB/s: Per-file, Level 1 (lower is better)</text>
  <text x="442.5" y="38" text-anchor="middle" fill="#7d8590" font-size="10">wasmtime (wasm32-wasip1)</text>
  <line x1="55" y1="215.5" x2="830" y2="215.5" stroke="#21262d" stroke-width="1"/>
  <text x="47" y="215.5" text-anchor="end" dominant-baseline="middle" fill="#7d8590" font-size="10">5</text>
  <line x1="55" y1="141.1" x2="830" y2="141.1" stroke="#21262d" stroke-width="1"/>
  <text x="47" y="141.1" text-anchor="end" dominant-baseline="middle" fill="#7d8590" font-size="10">10</text>
  <line x1="55" y1="66.6" x2="830" y2="66.6" stroke="#21262d" stroke-width="1"/>
  <text x="47" y="66.6" text-anchor="end" dominant-baseline="middle" fill="#7d8590" font-size="10">15</text>
  <line x1="55" y1="290" x2="830" y2="290" stroke="#30363d" stroke-width="1.5"/>
  <text x="22" y="325.0" text-anchor="middle" fill="#e6edf3" font-size="11" font-weight="600" transform="rotate(-90,22,325.0)">seconds / GB</text>
  <rect x="74.4" y="248.9" width="29.1" height="41.1" fill="#60a5fa" rx="1"/>
  <rect x="74.4" y="186.6" width="29.1" height="62.3" fill="#4680c4" rx="1"/>
  <rect x="74.4" y="173.3" width="29.1" height="13.3" fill="#60a5fa" rx="1"/>
  <rect x="103.4" y="224.5" width="29.1" height="65.5" fill="#f87171" rx="1"/>
  <rect x="103.4" y="157.9" width="29.1" height="66.6" fill="#c45050" rx="1"/>
  <rect x="103.4" y="138.2" width="29.1" height="19.7" fill="#f87171" rx="1"/>
  <rect x="132.5" y="231.8" width="29.1" height="58.2" fill="#f59e0b" rx="1"/>
  <rect x="132.5" y="169.6" width="29.1" height="62.3" fill="#c47d08" rx="1"/>
  <rect x="132.5" y="154.2" width="29.1" height="15.3" fill="#f59e0b" rx="1"/>
  <rect x="161.6" y="192.9" width="29.1" height="97.1" fill="#f472b6" rx="1"/>
  <rect x="161.6" y="126.3" width="29.1" height="66.6" fill="#c05a92" rx="1"/>
  <rect x="161.6" y="84.2" width="29.1" height="42.1" fill="#f472b6" rx="1"/>
  <text x="132.5" y="306" text-anchor="middle" fill="#e6edf3" font-size="10" font-weight="600">dickens</text>
  <text x="132.5" y="318" text-anchor="middle" fill="#7d8590" font-size="9">10.2 MB</text>
  <rect x="229.4" y="261.4" width="29.1" height="28.6" fill="#60a5fa" rx="1"/>
  <rect x="229.4" y="203.3" width="29.1" height="58.1" fill="#4680c4" rx="1"/>
  <rect x="229.4" y="190.1" width="29.1" height="13.2" fill="#60a5fa" rx="1"/>
  <rect x="258.4" y="253.3" width="29.1" height="36.7" fill="#f87171" rx="1"/>
  <rect x="258.4" y="192.1" width="29.1" height="61.1" fill="#c45050" rx="1"/>
  <rect x="258.4" y="179.5" width="29.1" height="12.6" fill="#f87171" rx="1"/>
  <rect x="287.5" y="245.0" width="29.1" height="45.0" fill="#f59e0b" rx="1"/>
  <rect x="287.5" y="186.3" width="29.1" height="58.7" fill="#c47d08" rx="1"/>
  <rect x="287.5" y="171.2" width="29.1" height="15.0" fill="#f59e0b" rx="1"/>
  <rect x="316.6" y="227.1" width="29.1" height="62.9" fill="#f472b6" rx="1"/>
  <rect x="316.6" y="166.0" width="29.1" height="61.1" fill="#c05a92" rx="1"/>
  <rect x="316.6" y="140.6" width="29.1" height="25.3" fill="#f472b6" rx="1"/>
  <text x="287.5" y="306" text-anchor="middle" fill="#e6edf3" font-size="10" font-weight="600">mozilla</text>
  <text x="287.5" y="318" text-anchor="middle" fill="#7d8590" font-size="9">51.2 MB</text>
  <rect x="384.4" y="259.4" width="29.1" height="30.6" fill="#60a5fa" rx="1"/>
  <rect x="384.4" y="202.4" width="29.1" height="57.0" fill="#4680c4" rx="1"/>
  <rect x="384.4" y="190.7" width="29.1" height="11.7" fill="#60a5fa" rx="1"/>
  <rect x="413.4" y="238.2" width="29.1" height="51.8" fill="#f87171" rx="1"/>
  <rect x="413.4" y="177.2" width="29.1" height="60.9" fill="#c45050" rx="1"/>
  <rect x="413.4" y="160.1" width="29.1" height="17.2" fill="#f87171" rx="1"/>
  <rect x="442.5" y="244.6" width="29.1" height="45.4" fill="#f59e0b" rx="1"/>
  <rect x="442.5" y="187.6" width="29.1" height="56.9" fill="#c47d08" rx="1"/>
  <rect x="442.5" y="174.8" width="29.1" height="12.9" fill="#f59e0b" rx="1"/>
  <rect x="471.6" y="208.1" width="29.1" height="81.9" fill="#f472b6" rx="1"/>
  <rect x="471.6" y="147.2" width="29.1" height="60.9" fill="#c05a92" rx="1"/>
  <rect x="471.6" y="120.9" width="29.1" height="26.3" fill="#f472b6" rx="1"/>
  <text x="442.5" y="306" text-anchor="middle" fill="#e6edf3" font-size="10" font-weight="600">mr</text>
  <text x="442.5" y="318" text-anchor="middle" fill="#7d8590" font-size="9">10.0 MB</text>
  <rect x="539.4" y="275.5" width="29.1" height="14.5" fill="#60a5fa" rx="1"/>
  <rect x="539.4" y="262.8" width="29.1" height="12.6" fill="#4680c4" rx="1"/>
  <rect x="539.4" y="255.4" width="29.1" height="7.4" fill="#60a5fa" rx="1"/>
  <rect x="568.4" y="271.3" width="29.1" height="18.7" fill="#f87171" rx="1"/>
  <rect x="568.4" y="256.2" width="29.1" height="15.1" fill="#c45050" rx="1"/>
  <rect x="568.4" y="247.9" width="29.1" height="8.3" fill="#f87171" rx="1"/>
  <rect x="597.5" y="264.8" width="29.1" height="25.2" fill="#f59e0b" rx="1"/>
  <rect x="597.5" y="252.2" width="29.1" height="12.6" fill="#c47d08" rx="1"/>
  <rect x="597.5" y="243.5" width="29.1" height="8.7" fill="#f59e0b" rx="1"/>
  <rect x="626.6" y="259.3" width="29.1" height="30.7" fill="#f472b6" rx="1"/>
  <rect x="626.6" y="244.3" width="29.1" height="15.1" fill="#c05a92" rx="1"/>
  <rect x="626.6" y="231.3" width="29.1" height="13.0" fill="#f472b6" rx="1"/>
  <text x="597.5" y="306" text-anchor="middle" fill="#e6edf3" font-size="10" font-weight="600">nci</text>
  <text x="597.5" y="318" text-anchor="middle" fill="#7d8590" font-size="9">33.6 MB</text>
  <rect x="694.4" y="262.2" width="29.1" height="27.8" fill="#60a5fa" rx="1"/>
  <rect x="694.4" y="207.1" width="29.1" height="55.1" fill="#4680c4" rx="1"/>
  <rect x="694.4" y="195.3" width="29.1" height="11.8" fill="#60a5fa" rx="1"/>
  <rect x="723.4" y="257.9" width="29.1" height="32.1" fill="#f87171" rx="1"/>
  <rect x="723.4" y="199.3" width="29.1" height="58.5" fill="#c45050" rx="1"/>
  <rect x="723.4" y="188.9" width="29.1" height="10.4" fill="#f87171" rx="1"/>
  <rect x="752.5" y="251.5" width="29.1" height="38.5" fill="#f59e0b" rx="1"/>
  <rect x="752.5" y="196.5" width="29.1" height="55.0" fill="#c47d08" rx="1"/>
  <rect x="752.5" y="185.0" width="29.1" height="11.5" fill="#f59e0b" rx="1"/>
  <rect x="781.6" y="234.9" width="29.1" height="55.1" fill="#f472b6" rx="1"/>
  <rect x="781.6" y="176.4" width="29.1" height="58.5" fill="#c05a92" rx="1"/>
  <rect x="781.6" y="158.8" width="29.1" height="17.6" fill="#f472b6" rx="1"/>
  <text x="752.5" y="306" text-anchor="middle" fill="#e6edf3" font-size="10" font-weight="600">osdb</text>
  <text x="752.5" y="318" text-anchor="middle" fill="#7d8590" font-size="9">10.1 MB</text>
  <line x1="55" y1="525.5" x2="830" y2="525.5" stroke="#21262d" stroke-width="1"/>
  <text x="47" y="525.5" text-anchor="end" dominant-baseline="middle" fill="#7d8590" font-size="10">5</text>
  <line x1="55" y1="451.1" x2="830" y2="451.1" stroke="#21262d" stroke-width="1"/>
  <text x="47" y="451.1" text-anchor="end" dominant-baseline="middle" fill="#7d8590" font-size="10">10</text>
  <line x1="55" y1="376.6" x2="830" y2="376.6" stroke="#21262d" stroke-width="1"/>
  <text x="47" y="376.6" text-anchor="end" dominant-baseline="middle" fill="#7d8590" font-size="10">15</text>
  <line x1="55" y1="600" x2="830" y2="600" stroke="#30363d" stroke-width="1.5"/>
  <rect x="79.2" y="575.7" width="36.3" height="24.3" fill="#60a5fa" rx="1"/>
  <rect x="79.2" y="537.8" width="36.3" height="37.9" fill="#4680c4" rx="1"/>
  <rect x="79.2" y="528.3" width="36.3" height="9.5" fill="#60a5fa" rx="1"/>
  <rect x="115.5" y="568.7" width="36.3" height="31.3" fill="#f87171" rx="1"/>
  <rect x="115.5" y="526.2" width="36.3" height="42.5" fill="#c45050" rx="1"/>
  <rect x="115.5" y="515.3" width="36.3" height="10.9" fill="#f87171" rx="1"/>
  <rect x="151.9" y="563.8" width="36.3" height="36.2" fill="#f59e0b" rx="1"/>
  <rect x="151.9" y="525.8" width="36.3" height="38.0" fill="#c47d08" rx="1"/>
  <rect x="151.9" y="515.2" width="36.3" height="10.6" fill="#f59e0b" rx="1"/>
  <rect x="188.2" y="550.8" width="36.3" height="49.2" fill="#f472b6" rx="1"/>
  <rect x="188.2" y="508.3" width="36.3" height="42.5" fill="#c05a92" rx="1"/>
  <rect x="188.2" y="486.9" width="36.3" height="21.4" fill="#f472b6" rx="1"/>
  <text x="151.9" y="616" text-anchor="middle" fill="#e6edf3" font-size="10" font-weight="600">samba</text>
  <text x="151.9" y="628" text-anchor="middle" fill="#7d8590" font-size="9">21.6 MB</text>
  <rect x="273.0" y="564.3" width="36.3" height="35.7" fill="#60a5fa" rx="1"/>
  <rect x="273.0" y="436.0" width="36.3" height="128.3" fill="#4680c4" rx="1"/>
  <rect x="273.0" y="420.2" width="36.3" height="15.8" fill="#60a5fa" rx="1"/>
  <rect x="309.3" y="567.9" width="36.3" height="32.1" fill="#f87171" rx="1"/>
  <rect x="309.3" y="438.5" width="36.3" height="129.4" fill="#c45050" rx="1"/>
  <rect x="309.3" y="430.6" width="36.3" height="7.9" fill="#f87171" rx="1"/>
  <rect x="345.6" y="550.7" width="36.3" height="49.3" fill="#f59e0b" rx="1"/>
  <rect x="345.6" y="422.4" width="36.3" height="128.4" fill="#c47d08" rx="1"/>
  <rect x="345.6" y="408.1" width="36.3" height="14.3" fill="#f59e0b" rx="1"/>
  <rect x="382.0" y="544.3" width="36.3" height="55.7" fill="#f472b6" rx="1"/>
  <rect x="382.0" y="414.9" width="36.3" height="129.4" fill="#c05a92" rx="1"/>
  <rect x="382.0" y="400.1" width="36.3" height="14.8" fill="#f472b6" rx="1"/>
  <text x="345.6" y="616" text-anchor="middle" fill="#e6edf3" font-size="10" font-weight="600">sao</text>
  <text x="345.6" y="628" text-anchor="middle" fill="#7d8590" font-size="9">7.3 MB</text>
  <rect x="466.7" y="564.2" width="36.3" height="35.8" fill="#60a5fa" rx="1"/>
  <rect x="466.7" y="515.1" width="36.3" height="49.1" fill="#4680c4" rx="1"/>
  <rect x="466.7" y="502.8" width="36.3" height="12.4" fill="#60a5fa" rx="1"/>
  <rect x="503.0" y="545.5" width="36.3" height="54.5" fill="#f87171" rx="1"/>
  <rect x="503.0" y="491.3" width="36.3" height="54.2" fill="#c45050" rx="1"/>
  <rect x="503.0" y="474.5" width="36.3" height="16.8" fill="#f87171" rx="1"/>
  <rect x="539.4" y="548.4" width="36.3" height="51.6" fill="#f59e0b" rx="1"/>
  <rect x="539.4" y="499.3" width="36.3" height="49.1" fill="#c47d08" rx="1"/>
  <rect x="539.4" y="485.3" width="36.3" height="14.0" fill="#f59e0b" rx="1"/>
  <rect x="575.7" y="514.2" width="36.3" height="85.8" fill="#f472b6" rx="1"/>
  <rect x="575.7" y="460.0" width="36.3" height="54.2" fill="#c05a92" rx="1"/>
  <rect x="575.7" y="424.8" width="36.3" height="35.1" fill="#f472b6" rx="1"/>
  <text x="539.4" y="616" text-anchor="middle" fill="#e6edf3" font-size="10" font-weight="600">webster</text>
  <text x="539.4" y="628" text-anchor="middle" fill="#7d8590" font-size="9">41.5 MB</text>
  <rect x="660.5" y="580.0" width="36.3" height="20.0" fill="#60a5fa" rx="1"/>
  <rect x="660.5" y="461.0" width="36.3" height="119.0" fill="#4680c4" rx="1"/>
  <rect x="660.5" y="447.1" width="36.3" height="13.9" fill="#60a5fa" rx="1"/>
  <rect x="696.8" y="557.2" width="36.3" height="42.8" fill="#f87171" rx="1"/>
  <rect x="696.8" y="424.2" width="36.3" height="133.0" fill="#c45050" rx="1"/>
  <rect x="696.8" y="416.2" width="36.3" height="8.0" fill="#f87171" rx="1"/>
  <rect x="733.1" y="565.9" width="36.3" height="34.1" fill="#f59e0b" rx="1"/>
  <rect x="733.1" y="446.8" width="36.3" height="119.0" fill="#c47d08" rx="1"/>
  <rect x="733.1" y="434.7" width="36.3" height="12.2" fill="#f59e0b" rx="1"/>
  <rect x="769.5" y="530.5" width="36.3" height="69.5" fill="#f472b6" rx="1"/>
  <rect x="769.5" y="397.4" width="36.3" height="133.0" fill="#c05a92" rx="1"/>
  <rect x="769.5" y="381.8" width="36.3" height="15.6" fill="#f472b6" rx="1"/>
  <text x="733.1" y="616" text-anchor="middle" fill="#e6edf3" font-size="10" font-weight="600">x-ray</text>
  <text x="733.1" y="628" text-anchor="middle" fill="#7d8590" font-size="9">8.5 MB</text>
  <rect x="222" y="645" width="12" height="12" fill="#60a5fa" rx="2"/>
  <text x="240" y="655" fill="#e6edf3" font-size="10" font-weight="500">C zstd 1.5.7 (libzstd wasm)</text>
  <rect x="222" y="663" width="12" height="12" fill="#f87171" rx="2"/>
  <text x="240" y="673" fill="#e6edf3" font-size="10" font-weight="500">zrip (SIMD128)</text>
  <rect x="472" y="645" width="12" height="12" fill="#f59e0b" rx="2"/>
  <text x="490" y="655" fill="#e6edf3" font-size="10" font-weight="500">structured-zstd 0.0.44</text>
  <rect x="472" y="663" width="12" height="12" fill="#f472b6" rx="2"/>
  <text x="490" y="673" fill="#e6edf3" font-size="10" font-weight="500">zrip paranoid (no SIMD)</text>
  <text x="232" y="698" fill="#e6edf3" font-size="9">bright = compress + decompress</text>
  <text x="472" y="698" fill="#7d8590" font-size="9">dim = transfer @100 MB/s</text>
</svg>
