<svg xmlns="http://www.w3.org/2000/svg" viewBox="0 0 700 411" font-family="system-ui, -apple-system, sans-serif">
  <rect width="700" height="411" fill="#0d1117"/>
  <text x="350.0" y="22" text-anchor="middle" fill="#e6edf3" font-size="14" font-weight="700">zstd Pipeline @100 MB/s: Corpus geomean, Level 1 (lower is better)</text>
  <text x="350.0" y="38" text-anchor="middle" fill="#7d8590" font-size="10">wasmtime (wasm32-wasip1), Linux VM on Intel Core i7-8700B @ 3.20GHz</text>
  <text x="22" y="180.0" text-anchor="middle" fill="#e6edf3" font-size="11" font-weight="600" transform="rotate(-90,22,180.0)">seconds / GB</text>
  <line x1="70" y1="234.1" x2="680" y2="234.1" stroke="#21262d" stroke-width="1"/>
  <text x="62" y="234.1" text-anchor="end" dominant-baseline="middle" fill="#7d8590" font-size="10">5.0</text>
  <line x1="70" y1="163.1" x2="680" y2="163.1" stroke="#21262d" stroke-width="1"/>
  <text x="62" y="163.1" text-anchor="end" dominant-baseline="middle" fill="#7d8590" font-size="10">10.0</text>
  <line x1="70" y1="92.2" x2="680" y2="92.2" stroke="#21262d" stroke-width="1"/>
  <text x="62" y="92.2" text-anchor="end" dominant-baseline="middle" fill="#7d8590" font-size="10">15.0</text>
  <line x1="70" y1="305" x2="680" y2="305" stroke="#30363d" stroke-width="1.5"/>
  <rect x="167.0" y="237.0" width="80.0" height="68.0" fill="#60a5fa" rx="1"/>
  <rect x="167.0" y="196.7" width="80.0" height="40.3" fill="#4680c4" rx="1"/>
  <rect x="167.0" y="169.9" width="80.0" height="26.8" fill="#60a5fa" rx="1"/>
  <text x="207.0" y="321" text-anchor="middle" fill="#e6edf3" font-size="10" font-weight="600">C zstd</text>
  <rect x="279.0" y="228.9" width="80.0" height="76.1" fill="#f87171" rx="1"/>
  <rect x="279.0" y="184.5" width="80.0" height="44.4" fill="#c45050" rx="1"/>
  <rect x="279.0" y="150.2" width="80.0" height="34.3" fill="#f87171" rx="1"/>
  <text x="319.0" y="321" text-anchor="middle" fill="#e6edf3" font-size="10" font-weight="600">zrip</text>
  <rect x="391.0" y="204.8" width="80.0" height="100.2" fill="#f59e0b" rx="1"/>
  <rect x="391.0" y="164.5" width="80.0" height="40.2" fill="#c47d08" rx="1"/>
  <rect x="391.0" y="136.3" width="80.0" height="28.2" fill="#f59e0b" rx="1"/>
  <text x="431.0" y="321" text-anchor="middle" fill="#e6edf3" font-size="10" font-weight="600">structured-zstd</text>
  <rect x="503.0" y="183.2" width="80.0" height="121.8" fill="#f472b6" rx="1"/>
  <rect x="503.0" y="138.8" width="80.0" height="44.4" fill="#c05a92" rx="1"/>
  <rect x="503.0" y="87.6" width="80.0" height="51.2" fill="#f472b6" rx="1"/>
  <text x="543.0" y="321" text-anchor="middle" fill="#e6edf3" font-size="10" font-weight="600">zrip paranoid</text>
  <rect x="130" y="335" width="12" height="12" fill="#60a5fa" rx="2"/>
  <text x="148" y="345" fill="#e6edf3" font-size="10" font-weight="500">C zstd 1.5.7 (libzstd wasm)</text>
  <rect x="130" y="353" width="12" height="12" fill="#f87171" rx="2"/>
  <text x="148" y="363" fill="#e6edf3" font-size="10" font-weight="500">zrip (SIMD128)</text>
  <rect x="380" y="335" width="12" height="12" fill="#f59e0b" rx="2"/>
  <text x="398" y="345" fill="#e6edf3" font-size="10" font-weight="500">structured-zstd 0.0.48</text>
  <rect x="380" y="353" width="12" height="12" fill="#f472b6" rx="2"/>
  <text x="398" y="363" fill="#e6edf3" font-size="10" font-weight="500">zrip paranoid (safe Rust, no unsafe)</text>
  <text x="140" y="388" fill="#e6edf3" font-size="9">bright = compress + decompress</text>
  <text x="380" y="388" fill="#7d8590" font-size="9">dim = transfer @100 MB/s</text>
</svg>
