<svg xmlns="http://www.w3.org/2000/svg" viewBox="0 0 700 411" font-family="system-ui, -apple-system, sans-serif">
  <rect width="700" height="411" fill="#0d1117"/>
  <text x="350.0" y="22" text-anchor="middle" fill="#e6edf3" font-size="14" font-weight="700">zstd Pipeline @100 MB/s: Corpus geomean, Level 1 (lower is better)</text>
  <text x="350.0" y="38" text-anchor="middle" fill="#7d8590" font-size="10">wasmtime (wasm32-wasip1), Linux VM on Intel Core i7-8700B @ 3.20GHz</text>
  <text x="22" y="180.0" text-anchor="middle" fill="#e6edf3" font-size="11" font-weight="600" transform="rotate(-90,22,180.0)">seconds / GB</text>
  <line x1="70" y1="235.6" x2="680" y2="235.6" stroke="#21262d" stroke-width="1"/>
  <text x="62" y="235.6" text-anchor="end" dominant-baseline="middle" fill="#7d8590" font-size="10">5.0</text>
  <line x1="70" y1="166.2" x2="680" y2="166.2" stroke="#21262d" stroke-width="1"/>
  <text x="62" y="166.2" text-anchor="end" dominant-baseline="middle" fill="#7d8590" font-size="10">10.0</text>
  <line x1="70" y1="96.8" x2="680" y2="96.8" stroke="#21262d" stroke-width="1"/>
  <text x="62" y="96.8" text-anchor="end" dominant-baseline="middle" fill="#7d8590" font-size="10">15.0</text>
  <line x1="70" y1="305" x2="680" y2="305" stroke="#30363d" stroke-width="1.5"/>
  <rect x="167.0" y="238.4" width="80.0" height="66.6" fill="#60a5fa" rx="1"/>
  <rect x="167.0" y="199.1" width="80.0" height="39.4" fill="#4680c4" rx="1"/>
  <rect x="167.0" y="172.8" width="80.0" height="26.2" fill="#60a5fa" rx="1"/>
  <text x="207.0" y="321" text-anchor="middle" fill="#e6edf3" font-size="10" font-weight="600">C zstd</text>
  <rect x="279.0" y="218.3" width="80.0" height="86.7" fill="#f87171" rx="1"/>
  <rect x="279.0" y="174.9" width="80.0" height="43.4" fill="#c45050" rx="1"/>
  <rect x="279.0" y="138.7" width="80.0" height="36.2" fill="#f87171" rx="1"/>
  <text x="319.0" y="321" text-anchor="middle" fill="#e6edf3" font-size="10" font-weight="600">zrip</text>
  <rect x="391.0" y="206.9" width="80.0" height="98.1" fill="#f59e0b" rx="1"/>
  <rect x="391.0" y="167.6" width="80.0" height="39.4" fill="#c47d08" rx="1"/>
  <rect x="391.0" y="140.0" width="80.0" height="27.6" fill="#f59e0b" rx="1"/>
  <text x="431.0" y="321" text-anchor="middle" fill="#e6edf3" font-size="10" font-weight="600">structured-zstd</text>
  <rect x="503.0" y="181.5" width="80.0" height="123.5" fill="#f472b6" rx="1"/>
  <rect x="503.0" y="138.1" width="80.0" height="43.4" fill="#c05a92" rx="1"/>
  <rect x="503.0" y="87.6" width="80.0" height="50.5" fill="#f472b6" rx="1"/>
  <text x="543.0" y="321" text-anchor="middle" fill="#e6edf3" font-size="10" font-weight="600">zrip paranoid</text>
  <rect x="130" y="335" width="12" height="12" fill="#60a5fa" rx="2"/>
  <text x="148" y="345" fill="#e6edf3" font-size="10" font-weight="500">C zstd 1.5.7 (libzstd wasm)</text>
  <rect x="130" y="353" width="12" height="12" fill="#f87171" rx="2"/>
  <text x="148" y="363" fill="#e6edf3" font-size="10" font-weight="500">zrip (SIMD128)</text>
  <rect x="380" y="335" width="12" height="12" fill="#f59e0b" rx="2"/>
  <text x="398" y="345" fill="#e6edf3" font-size="10" font-weight="500">structured-zstd 0.0.48</text>
  <rect x="380" y="353" width="12" height="12" fill="#f472b6" rx="2"/>
  <text x="398" y="363" fill="#e6edf3" font-size="10" font-weight="500">zrip paranoid (safe Rust, no unsafe)</text>
  <text x="140" y="388" fill="#e6edf3" font-size="9">bright = compress + decompress</text>
  <text x="380" y="388" fill="#7d8590" font-size="9">dim = transfer @100 MB/s</text>
</svg>
