<svg xmlns="http://www.w3.org/2000/svg" viewBox="0 0 700 411" font-family="system-ui, -apple-system, sans-serif">
  <rect width="700" height="411" fill="#0d1117"/>
  <text x="350.0" y="22" text-anchor="middle" fill="#e6edf3" font-size="14" font-weight="700">zstd Pipeline @100 MB/s: Corpus geomean, Level 1 (lower is better)</text>
  <text x="350.0" y="38" text-anchor="middle" fill="#7d8590" font-size="10">wasmtime 46.0.1 (wasm32-wasip1)</text>
  <text x="22" y="180.0" text-anchor="middle" fill="#e6edf3" font-size="11" font-weight="600" transform="rotate(-90,22,180.0)">seconds / GB</text>
  <line x1="70" y1="220.7" x2="680" y2="220.7" stroke="#21262d" stroke-width="1"/>
  <text x="62" y="220.7" text-anchor="end" dominant-baseline="middle" fill="#7d8590" font-size="10">5.0</text>
  <line x1="70" y1="136.4" x2="680" y2="136.4" stroke="#21262d" stroke-width="1"/>
  <text x="62" y="136.4" text-anchor="end" dominant-baseline="middle" fill="#7d8590" font-size="10">10.0</text>
  <line x1="70" y1="305" x2="680" y2="305" stroke="#30363d" stroke-width="1.5"/>
  <rect x="167.0" y="221.1" width="80.0" height="83.9" fill="#60a5fa" rx="1"/>
  <rect x="167.0" y="173.3" width="80.0" height="47.8" fill="#4680c4" rx="1"/>
  <rect x="167.0" y="140.6" width="80.0" height="32.6" fill="#60a5fa" rx="1"/>
  <text x="207.0" y="321" text-anchor="middle" fill="#e6edf3" font-size="10" font-weight="600">C zstd</text>
  <rect x="279.0" y="214.3" width="80.0" height="90.7" fill="#f87171" rx="1"/>
  <rect x="279.0" y="161.5" width="80.0" height="52.7" fill="#c45050" rx="1"/>
  <rect x="279.0" y="131.5" width="80.0" height="30.1" fill="#f87171" rx="1"/>
  <text x="319.0" y="321" text-anchor="middle" fill="#e6edf3" font-size="10" font-weight="600">zrip</text>
  <rect x="391.0" y="176.5" width="80.0" height="128.5" fill="#f59e0b" rx="1"/>
  <rect x="391.0" y="128.7" width="80.0" height="47.7" fill="#c47d08" rx="1"/>
  <rect x="391.0" y="94.7" width="80.0" height="34.1" fill="#f59e0b" rx="1"/>
  <text x="431.0" y="321" text-anchor="middle" fill="#e6edf3" font-size="10" font-weight="600">structured-zstd</text>
  <rect x="503.0" y="210.5" width="80.0" height="94.5" fill="#f472b6" rx="1"/>
  <rect x="503.0" y="157.8" width="80.0" height="52.7" fill="#c05a92" rx="1"/>
  <rect x="503.0" y="87.6" width="80.0" height="70.2" fill="#f472b6" rx="1"/>
  <text x="543.0" y="321" text-anchor="middle" fill="#e6edf3" font-size="10" font-weight="600">zrip paranoid</text>
  <rect x="130" y="335" width="12" height="12" fill="#60a5fa" rx="2"/>
  <text x="148" y="345" fill="#e6edf3" font-size="10" font-weight="500">C zstd 1.5.7 (libzstd wasm)</text>
  <rect x="130" y="353" width="12" height="12" fill="#f87171" rx="2"/>
  <text x="148" y="363" fill="#e6edf3" font-size="10" font-weight="500">zrip (SIMD128)</text>
  <rect x="380" y="335" width="12" height="12" fill="#f59e0b" rx="2"/>
  <text x="398" y="345" fill="#e6edf3" font-size="10" font-weight="500">structured-zstd 0.0.44</text>
  <rect x="380" y="353" width="12" height="12" fill="#f472b6" rx="2"/>
  <text x="398" y="363" fill="#e6edf3" font-size="10" font-weight="500">zrip paranoid (no SIMD)</text>
  <text x="140" y="388" fill="#e6edf3" font-size="9">bright = compress + decompress</text>
  <text x="380" y="388" fill="#7d8590" font-size="9">dim = transfer @100 MB/s</text>
</svg>
